<?xml version="1.0" encoding="UTF-8"?>
<svg xmlns="http://www.w3.org/2000/svg" xmlns:xlink="http://www.w3.org/1999/xlink" width="841.436000mm" height="739.422900mm" viewBox="0 0 8414.36 7394.229" version="1.1">
<g id="surface1">
<path style="fill-rule:evenodd;fill:rgb(94.509804%,94.117647%,91.764706%);fill-opacity:1;stroke-width:0.3;stroke-linecap:butt;stroke-linejoin:miter;stroke:rgb(16.470588%,16.078431%,16.470588%);stroke-opacity:1;stroke-miterlimit:3;" d="M -380.718 0 C -391.326594 0 -401.500813 -4.214453 -409.002375 -11.715625 C -416.503547 -19.217188 -420.718 -29.391406 -420.718 -40 C -420.718 -47.021484 -418.869563 -53.919141 -415.359016 -60 L -34.641047 -719.423047 C -31.130109 -725.503516 -26.080891 -730.553125 -20.000031 -734.064063 C -13.919172 -737.574609 -7.021516 -739.423047 -0.00003125 -739.423047 C 7.021453 -739.423047 13.919109 -737.574609 19.999969 -734.064063 C 26.080828 -730.553125 31.130437 -725.503516 34.640984 -719.423047 L 415.358953 -60 C 418.869891 -53.919141 420.717937 -47.021484 420.717937 -40 C 420.717937 -29.391406 416.503875 -19.217188 409.002313 -11.715625 C 401.50075 -4.214453 391.326531 0 380.717937 0 L -380.718 0 " transform="matrix(10,0,0,-10,4207.18,0)"/>
<path style=" stroke:none;fill-rule:evenodd;fill:rgb(73.333333%,11.764706%,6.27451%);fill-opacity:1;" d="M 400 150 C 261.929688 150 150 261.929688 150 400 C 150 443.882812 161.550781 486.996094 183.492188 525 L 3990.671875 7119.230469 C 4035.332031 7196.578125 4117.863281 7244.230469 4207.179688 7244.230469 C 4296.496094 7244.230469 4379.027344 7196.578125 4423.6875 7119.230469 L 8230.867188 525 C 8252.808594 486.996094 8264.359375 443.882812 8264.359375 400 C 8264.359375 261.929688 8152.429688 150 8014.359375 150 L 400 150 M 1266.027344 900 L 4207.179688 5994.230469 L 7148.335938 900 L 1266.027344 900 "/>
</g>
</svg>
