<?xml version="1.0" encoding="UTF-8"?>
<svg xmlns="http://www.w3.org/2000/svg" xmlns:xlink="http://www.w3.org/1999/xlink" width="600.000000mm" height="600.000000mm" viewBox="0 0 6000 6000" version="1.1">
<g id="surface86">
<path style="fill-rule:evenodd;fill:rgb(94.509804%,94.117647%,91.764706%);fill-opacity:1;stroke-width:0.3;stroke-linecap:butt;stroke-linejoin:miter;stroke:rgb(16.470588%,16.078431%,16.470588%);stroke-opacity:1;stroke-miterlimit:3;" d="M 300 0 C 300 79.564844 268.392969 155.871094 212.132031 212.132031 C 155.871094 268.392969 79.564844 300 0 300 C -79.564844 300 -155.871094 268.392969 -212.132031 212.132031 C -268.392969 155.871094 -300 79.564844 -300 0 C -300 -79.564844 -268.392969 -155.871094 -212.132031 -212.132031 C -155.871094 -268.392969 -79.564844 -300 0 -300 C 79.564844 -300 155.871094 -268.392969 212.132031 -212.132031 C 268.392969 -155.871094 300 -79.564844 300 0 " transform="matrix(10,0,0,-10,3000,3000)"/>
<path style=" stroke:none;fill-rule:evenodd;fill:rgb(0%,35.686275%,54.901961%);fill-opacity:1;" d="M 5850 3000 C 5850 2244.132812 5549.734375 1519.222656 5015.253906 984.746094 C 4480.777344 450.265625 3755.867188 150 3000 150 C 2244.132812 150 1519.222656 450.265625 984.746094 984.746094 C 450.265625 1519.222656 150 2244.132812 150 3000 C 150 3755.867188 450.265625 4480.777344 984.746094 5015.253906 C 1519.222656 5549.734375 2244.132812 5850 3000 5850 C 3755.867188 5850 4480.777344 5549.734375 5015.253906 5015.253906 C 5549.734375 4480.777344 5850 3755.867188 5850 3000 "/>
<path style=" stroke:none;fill-rule:evenodd;fill:rgb(94.509804%,94.117647%,91.764706%);fill-opacity:1;" d="M 1200 3625 L 500 2925 L 500 2475 L 1025 3000 C 1025 2535.671875 1188.597656 2086.191406 1487.0625 1730.496094 C 1785.527344 1374.796875 2199.769531 1135.632812 2657.042969 1055.003906 L 2717.820312 1399.6875 C 2341.585938 1466.027344 2000.75 1662.808594 1755.179688 1955.46875 C 1509.605469 2248.132812 1375 2617.957031 1375 3000 L 1900 2475 L 1900 2925 L 1200 3625 "/>
<path style=" stroke:none;fill-rule:evenodd;fill:rgb(94.509804%,94.117647%,91.764706%);fill-opacity:1;" d="M 4441.265625 4246.347656 L 4185.046875 5202.5625 L 3795.335938 5427.5625 L 3987.5 4710.398438 C 3687.261719 4883.742188 3346.683594 4975 3000 4975 C 2416.203125 4975 1862.320312 4716.71875 1487.0625 4269.503906 L 1755.179688 4044.53125 C 2063.933594 4412.492188 2519.660156 4625 3000 4625 C 3285.246094 4625 3565.46875 4549.914062 3812.5 4407.292969 L 3095.335938 4215.128906 L 3485.046875 3990.128906 L 4441.265625 4246.347656 "/>
<path style=" stroke:none;fill-rule:evenodd;fill:rgb(94.509804%,94.117647%,91.764706%);fill-opacity:1;" d="M 3358.734375 1128.652344 L 4314.953125 872.4375 L 4704.664062 1097.4375 L 3987.5 1289.601562 C 4598.566406 1642.398438 4975 2294.402344 4975 3000 C 4975 3230.386719 4934.691406 3458.996094 4855.894531 3675.488281 L 4527 3555.78125 C 4591.832031 3377.65625 4625 3189.558594 4625 3000 C 4625 2419.445312 4315.277344 1882.988281 3812.5 1592.707031 L 4004.664062 2309.871094 L 3614.953125 2084.871094 L 3358.734375 1128.652344 "/>
</g>
</svg>
