<?xml version="1.0" encoding="UTF-8"?>
<svg xmlns="http://www.w3.org/2000/svg" xmlns:xlink="http://www.w3.org/1999/xlink" width="600.000000mm" height="600.000000mm" viewBox="0 0 6000 6000" version="1.1">
<g id="surface96">
<path style="fill-rule:evenodd;fill:rgb(94.509804%,94.117647%,91.764706%);fill-opacity:1;stroke-width:0.3;stroke-linecap:butt;stroke-linejoin:miter;stroke:rgb(16.470588%,16.078431%,16.470588%);stroke-opacity:1;stroke-miterlimit:3;" d="M 300 0 C 300 79.564844 268.392969 155.871094 212.132031 212.132031 C 155.871094 268.392969 79.564844 300 0 300 C -79.564844 300 -155.871094 268.392969 -212.132031 212.132031 C -268.392969 155.871094 -300 79.564844 -300 0 C -300 -79.564844 -268.392969 -155.871094 -212.132031 -212.132031 C -155.871094 -268.392969 -79.564844 -300 0 -300 C 79.564844 -300 155.871094 -268.392969 212.132031 -212.132031 C 268.392969 -155.871094 300 -79.564844 300 0 " transform="matrix(10,0,0,-10,3000,3000)"/>
<path style=" stroke:none;fill-rule:evenodd;fill:rgb(73.333333%,11.764706%,6.27451%);fill-opacity:1;" d="M 5850 3000 C 5850 2244.132812 5549.734375 1519.222656 5015.253906 984.746094 C 4480.777344 450.265625 3755.867188 150 3000 150 C 2244.132812 150 1519.222656 450.265625 984.746094 984.746094 C 450.265625 1519.222656 150 2244.132812 150 3000 C 150 3755.867188 450.265625 4480.777344 984.746094 5015.253906 C 1519.222656 5549.734375 2244.132812 5850 3000 5850 C 3755.867188 5850 4480.777344 5549.734375 5015.253906 5015.253906 C 5549.734375 4480.777344 5850 3755.867188 5850 3000 M 1350 1700.960938 C 1748.179688 1195.207031 2356.3125 900 3000 900 C 3556.953125 900 4091.097656 1121.25 4484.925781 1515.074219 C 4878.75 1908.902344 5100 2443.046875 5100 3000 C 5100 3266.980469 5049.089844 3531.511719 4950 3779.421875 L 3882.570312 3163.140625 L 3845.710938 3200 L 3004.289062 3200 L 3349.128906 2855.160156 L 2943.265625 2620.832031 C 2838.179688 2649.273438 2742.8125 2705.765625 2667.378906 2784.261719 C 2591.945312 2862.753906 2539.292969 2960.296875 2515.058594 3066.429688 L 4650 4299.039062 C 4251.820312 4804.792969 3643.6875 5100 3000 5100 C 2443.046875 5100 1908.902344 4878.75 1515.074219 4484.925781 C 1121.25 4091.097656 900 3556.953125 900 3000 C 900 2733.019531 950.910156 2468.488281 1050 2220.578125 L 1939.953125 2734.390625 C 2015.960938 2545.023438 2137.171875 2377.140625 2293 2245.40625 L 1350 1700.960938 "/>
<path style=" stroke:none;fill-rule:evenodd;fill:rgb(16.470588%,16.078431%,16.470588%);fill-opacity:1;" d="M 4700 2275 L 3825 3150 L 3125 3150 L 3725 2550 L 3100 2550 C 2927.609375 2550 2762.277344 2618.480469 2640.378906 2740.378906 C 2518.480469 2862.277344 2450 3027.609375 2450 3200 L 2450 4600 L 1900 4600 L 1900 3200 C 1900 2881.738281 2026.429688 2576.515625 2251.472656 2351.472656 C 2476.515625 2126.429688 2781.738281 2000 3100 2000 L 3725 2000 L 3125 1400 L 3825 1400 L 4700 2275 "/>
</g>
</svg>
