<?xml version="1.0" encoding="UTF-8"?>
<svg xmlns="http://www.w3.org/2000/svg" xmlns:xlink="http://www.w3.org/1999/xlink" width="600.000000mm" height="600.000000mm" viewBox="0 0 6000 6000" version="1.1">
<g id="surface91">
<path style="fill-rule:evenodd;fill:rgb(94.509804%,94.117647%,91.764706%);fill-opacity:1;stroke-width:0.3;stroke-linecap:butt;stroke-linejoin:miter;stroke:rgb(16.470588%,16.078431%,16.470588%);stroke-opacity:1;stroke-miterlimit:3;" d="M 300 0 C 300 79.564844 268.392969 155.871094 212.132031 212.132031 C 155.871094 268.392969 79.564844 300 0 300 C -79.564844 300 -155.871094 268.392969 -212.132031 212.132031 C -268.392969 155.871094 -300 79.564844 -300 0 C -300 -79.564844 -268.392969 -155.871094 -212.132031 -212.132031 C -155.871094 -268.392969 -79.564844 -300 0 -300 C 79.564844 -300 155.871094 -268.392969 212.132031 -212.132031 C 268.392969 -155.871094 300 -79.564844 300 0 " transform="matrix(10,0,0,-10,3000,3000)"/>
<path style=" stroke:none;fill-rule:evenodd;fill:rgb(73.333333%,11.764706%,6.27451%);fill-opacity:1;" d="M 5850 3000 C 5850 2244.132812 5549.734375 1519.222656 5015.253906 984.746094 C 4480.777344 450.265625 3755.867188 150 3000 150 C 2244.132812 150 1519.222656 450.265625 984.746094 984.746094 C 450.265625 1519.222656 150 2244.132812 150 3000 C 150 3755.867188 450.265625 4480.777344 984.746094 5015.253906 C 1519.222656 5549.734375 2244.132812 5850 3000 5850 C 3755.867188 5850 4480.777344 5549.734375 5015.253906 5015.253906 C 5549.734375 4480.777344 5850 3755.867188 5850 3000 M 1350 1700.960938 C 1748.179688 1195.207031 2356.3125 900 3000 900 C 3556.953125 900 4091.097656 1121.25 4484.925781 1515.074219 C 4878.75 1908.902344 5100 2443.046875 5100 3000 C 5100 3266.980469 5049.089844 3531.511719 4950 3779.421875 L 4150 3317.542969 L 4150 4010.363281 L 4650 4299.039062 C 4251.820312 4804.792969 3643.6875 5100 3000 5100 C 2443.046875 5100 1908.902344 4878.75 1515.074219 4484.925781 C 1121.25 4091.097656 900 3556.953125 900 3000 C 900 2733.019531 950.910156 2468.488281 1050 2220.578125 L 1345.4375 2391.148438 L 1229.289062 2275 L 1637.398438 1866.890625 L 1350 1700.960938 "/>
<path style=" stroke:none;fill-rule:evenodd;fill:rgb(73.333333%,11.764706%,6.27451%);fill-opacity:1;" d="M 2395.710938 2600 L 2900 2600 C 2902.417969 2600 2904.839844 2600.015625 2907.257812 2600.042969 L 3415.949219 2893.738281 C 3470.964844 2986.425781 3500 3092.21875 3500 3200 L 3500 3635.085938 L 2746.40625 3200 L 2995.710938 3200 L 2395.710938 2600 "/>
<path style=" stroke:none;fill-rule:evenodd;fill:rgb(16.470588%,16.078431%,16.470588%);fill-opacity:1;" d="M 1300 2275 L 2175 3150 L 2875 3150 L 2275 2550 L 2900 2550 C 3072.390625 2550 3237.722656 2618.480469 3359.621094 2740.378906 C 3481.519531 2862.277344 3550 3027.609375 3550 3200 L 3550 4600 L 4100 4600 L 4100 3200 C 4100 2881.738281 3973.570312 2576.515625 3748.527344 2351.472656 C 3523.484375 2126.429688 3218.261719 2000 2900 2000 L 2275 2000 L 2875 1400 L 2175 1400 L 1300 2275 "/>
</g>
</svg>
