<?xml version="1.0" encoding="UTF-8"?>
<svg xmlns="http://www.w3.org/2000/svg" xmlns:xlink="http://www.w3.org/1999/xlink" width="600.000000mm" height="600.000000mm" viewBox="0 0 6000 6000" version="1.1">
<g id="surface101">
<path style="fill-rule:evenodd;fill:rgb(94.509804%,94.117647%,91.764706%);fill-opacity:1;stroke-width:0.3;stroke-linecap:butt;stroke-linejoin:miter;stroke:rgb(16.470588%,16.078431%,16.470588%);stroke-opacity:1;stroke-miterlimit:3;" d="M 300 0 C 300 79.564844 268.392969 155.871094 212.132031 212.132031 C 155.871094 268.392969 79.564844 300 0 300 C -79.564844 300 -155.871094 268.392969 -212.132031 212.132031 C -268.392969 155.871094 -300 79.564844 -300 0 C -300 -79.564844 -268.392969 -155.871094 -212.132031 -212.132031 C -155.871094 -268.392969 -79.564844 -300 0 -300 C 79.564844 -300 155.871094 -268.392969 212.132031 -212.132031 C 268.392969 -155.871094 300 -79.564844 300 0 " transform="matrix(10,0,0,-10,3000,3000)"/>
<path style=" stroke:none;fill-rule:evenodd;fill:rgb(73.333333%,11.764706%,6.27451%);fill-opacity:1;" d="M 5850 3000 C 5850 2244.132812 5549.734375 1519.222656 5015.253906 984.746094 C 4480.777344 450.265625 3755.867188 150 3000 150 C 2244.132812 150 1519.222656 450.265625 984.746094 984.746094 C 450.265625 1519.222656 150 2244.132812 150 3000 C 150 3755.867188 450.265625 4480.777344 984.746094 5015.253906 C 1519.222656 5549.734375 2244.132812 5850 3000 5850 C 3755.867188 5850 4480.777344 5549.734375 5015.253906 5015.253906 C 5549.734375 4480.777344 5850 3755.867188 5850 3000 M 1350 1700.960938 C 1748.179688 1195.207031 2356.3125 900 3000 900 C 3556.953125 900 4091.097656 1121.25 4484.925781 1515.074219 C 4878.75 1908.902344 5100 2443.046875 5100 3000 C 5100 3266.980469 5049.089844 3531.511719 4950 3779.421875 L 4250 3375.277344 L 4250 4068.097656 L 4650 4299.039062 C 4251.820312 4804.792969 3643.6875 5100 3000 5100 C 2443.046875 5100 1908.902344 4878.75 1515.074219 4484.925781 C 1121.25 4091.097656 900 3556.953125 900 3000 C 900 2733.019531 950.910156 2468.488281 1050 2220.578125 L 1750 2624.722656 L 1750 2500 C 1750 2325.625 1786.484375 2153.175781 1857.109375 1993.738281 L 1350 1700.960938 "/>
<path style=" stroke:none;fill-rule:evenodd;fill:rgb(73.333333%,11.764706%,6.27451%);fill-opacity:1;" d="M 3600 3000 L 3600 3632.972656 L 3000 3346.410156 L 3000 2804.289062 L 2656.308594 3147.980469 L 2400 3000 L 2400 2500 C 2400 2439.875 2409.035156 2380.09375 2426.808594 2322.65625 L 3600 3000 "/>
<path style=" stroke:none;fill-rule:evenodd;fill:rgb(16.470588%,16.078431%,16.470588%);fill-opacity:1;" d="M 4200 4500 L 4200 2500 C 4200 2181.738281 4073.570312 1876.515625 3848.527344 1651.472656 C 3623.484375 1426.429688 3318.261719 1300 3000 1300 C 2681.738281 1300 2376.515625 1426.429688 2151.472656 1651.472656 C 1926.429688 1876.515625 1800 2181.738281 1800 2500 L 1800 3525 L 1200 2925 L 1200 3625 L 2075 4500 L 2950 3625 L 2950 2925 L 2350 3525 L 2350 2500 C 2350 2327.609375 2418.480469 2162.277344 2540.378906 2040.378906 C 2662.277344 1918.480469 2827.609375 1850 3000 1850 C 3172.390625 1850 3337.722656 1918.480469 3459.621094 2040.378906 C 3581.519531 2162.277344 3650 2327.609375 3650 2500 L 3650 4500 L 4200 4500 "/>
</g>
</svg>
