<?xml version="1.0" encoding="UTF-8"?>
<svg xmlns="http://www.w3.org/2000/svg" xmlns:xlink="http://www.w3.org/1999/xlink" width="600.000000mm" height="600.000000mm" viewBox="0 0 6000 6000" version="1.1">
<g id="surface111">
<path style="fill-rule:evenodd;fill:rgb(94.509804%,94.117647%,91.764706%);fill-opacity:1;stroke-width:0.3;stroke-linecap:butt;stroke-linejoin:miter;stroke:rgb(16.470588%,16.078431%,16.470588%);stroke-opacity:1;stroke-miterlimit:3;" d="M 300 0 C 300 79.564844 268.392969 155.871094 212.132031 212.132031 C 155.871094 268.392969 79.564844 300 0 300 C -79.564844 300 -155.871094 268.392969 -212.132031 212.132031 C -268.392969 155.871094 -300 79.564844 -300 0 C -300 -79.564844 -268.392969 -155.871094 -212.132031 -212.132031 C -155.871094 -268.392969 -79.564844 -300 0 -300 C 79.564844 -300 155.871094 -268.392969 212.132031 -212.132031 C 268.392969 -155.871094 300 -79.564844 300 0 " transform="matrix(10,0,0,-10,3000,3000)"/>
<path style=" stroke:none;fill-rule:evenodd;fill:rgb(0%,35.686275%,54.901961%);fill-opacity:1;" d="M 5850 3000 C 5850 2244.132812 5549.734375 1519.222656 5015.253906 984.746094 C 4480.777344 450.265625 3755.867188 150 3000 150 C 2244.132812 150 1519.222656 450.265625 984.746094 984.746094 C 450.265625 1519.222656 150 2244.132812 150 3000 C 150 3755.867188 450.265625 4480.777344 984.746094 5015.253906 C 1519.222656 5549.734375 2244.132812 5850 3000 5850 C 3755.867188 5850 4480.777344 5549.734375 5015.253906 5015.253906 C 5549.734375 4480.777344 5850 3755.867188 5850 3000 "/>
<path style=" stroke:none;fill-rule:evenodd;fill:rgb(94.509804%,94.117647%,91.764706%);fill-opacity:1;" d="M 2730 1520 L 2434.152344 1520 C 2276.339844 1520 2136.921875 1622.785156 2090.253906 1773.539062 L 1828.84375 2617.949219 C 1769.976562 2606.011719 1710.066406 2600 1650 2600 C 1411.304688 2600 1182.386719 2694.820312 1013.605469 2863.605469 C 844.820312 3032.386719 750 3261.304688 750 3500 C 750 3738.695312 844.820312 3967.613281 1013.605469 4136.394531 C 1182.386719 4305.179688 1411.304688 4400 1650 4400 C 1888.695312 4400 2117.613281 4305.179688 2286.394531 4136.394531 C 2455.179688 3967.613281 2550 3738.695312 2550 3500 C 2550 3323.175781 2497.910156 3150.265625 2400.238281 3002.867188 C 2302.566406 2855.464844 2163.636719 2740.101562 2000.792969 2671.179688 L 2099.261719 2353.109375 L 2940.773438 3600.65625 C 2974.234375 3650.261719 3030.160156 3680 3090 3680 L 3468.183594 3680 C 3509.671875 3883.253906 3620.101562 4065.9375 3780.789062 4197.136719 C 3941.476562 4328.335938 4142.554688 4400 4350 4400 C 4588.695312 4400 4817.613281 4305.179688 4986.394531 4136.394531 C 5155.179688 3967.613281 5250 3738.695312 5250 3500 C 5250 3261.304688 5155.179688 3032.386719 4986.394531 2863.605469 C 4817.613281 2694.820312 4588.695312 2600 4350 2600 C 4255.269531 2600 4161.128906 2614.957031 4071.0625 2644.316406 L 3810 2060 L 3877.5 1880 L 4080 1880 L 4080 1700 L 3315 1700 C 3290.148438 1700 3270 1720.148438 3270 1745 C 3270 1765.8125 3284.273438 1783.910156 3304.511719 1788.761719 L 3685.261719 1880 L 3617.761719 2060 L 2190 2060 L 2262.203125 1826.769531 C 2285.539062 1751.390625 2355.246094 1700 2434.152344 1700 L 2730 1700 L 2730 1520 M 2237.945312 2240 L 3081.355469 3490.410156 L 3550.261719 2240 L 2237.945312 2240 M 1775.277344 2790.984375 C 1733.917969 2783.675781 1692 2780 1650 2780 C 1459.042969 2780 1275.910156 2855.855469 1140.882812 2990.882812 C 1005.855469 3125.910156 930 3309.042969 930 3500 C 930 3690.957031 1005.855469 3874.089844 1140.882812 4009.117188 C 1275.910156 4144.144531 1459.042969 4220 1650 4220 C 1840.957031 4220 2024.089844 4144.144531 2159.117188 4009.117188 C 2294.144531 3874.089844 2370 3690.957031 2370 3500 C 2370 3361.625 2330.125 3226.175781 2255.144531 3109.875 C 2180.167969 2993.570312 2073.261719 2901.339844 1947.226562 2844.214844 L 1735.972656 3526.617188 C 1724.308594 3564.304688 1689.453125 3590 1650 3590 C 1600.292969 3590 1560 3549.707031 1560 3500 C 1560 3490.976562 1561.355469 3482.003906 1564.027344 3473.382812 L 1775.28125 2790.984375 M 3630 3500 L 4256.214844 3500 L 3980.203125 2882.222656 C 3762.972656 3012.253906 3630 3246.824219 3630 3500 M 3652.863281 3680 C 3692.769531 3834.550781 3782.898438 3971.460938 3909.09375 4069.210938 C 4035.285156 4166.957031 4190.378906 4220 4350 4220 C 4540.957031 4220 4724.089844 4144.144531 4859.117188 4009.117188 C 4994.144531 3874.089844 5070 3690.957031 5070 3500 C 5070 3309.042969 4994.144531 3125.910156 4859.117188 2990.882812 C 4724.089844 2855.855469 4540.957031 2780 4350 2780 C 4280.585938 2780 4211.539062 2790.039062 4144.996094 2809.800781 L 4477.171875 3553.289062 C 4482.332031 3564.839844 4485 3577.347656 4485 3590 C 4485 3639.707031 4444.707031 3680 4395 3680 L 3652.863281 3680 M 3270 3500 L 3450 3500 C 3450 3340.773438 3492.242188 3184.398438 3572.414062 3046.832031 C 3652.589844 2909.261719 3767.824219 2795.425781 3906.359375 2716.941406 L 3720.035156 2299.902344 L 3270 3500 "/>
</g>
</svg>
