<?xml version="1.0" encoding="UTF-8"?>
<svg xmlns="http://www.w3.org/2000/svg" xmlns:xlink="http://www.w3.org/1999/xlink" width="600.000000mm" height="600.000000mm" viewBox="0 0 6000 6000" version="1.1">
<g id="surface121">
<path style="fill-rule:evenodd;fill:rgb(94.509804%,94.117647%,91.764706%);fill-opacity:1;stroke-width:0.3;stroke-linecap:butt;stroke-linejoin:miter;stroke:rgb(16.470588%,16.078431%,16.470588%);stroke-opacity:1;stroke-miterlimit:3;" d="M 300 0 C 300 79.564844 268.392969 155.871094 212.132031 212.132031 C 155.871094 268.392969 79.564844 300 0 300 C -79.564844 300 -155.871094 268.392969 -212.132031 212.132031 C -268.392969 155.871094 -300 79.564844 -300 0 C -300 -79.564844 -268.392969 -155.871094 -212.132031 -212.132031 C -155.871094 -268.392969 -79.564844 -300 0 -300 C 79.564844 -300 155.871094 -268.392969 212.132031 -212.132031 C 268.392969 -155.871094 300 -79.564844 300 0 " transform="matrix(10,0,0,-10,3000,3000)"/>
<path style=" stroke:none;fill-rule:evenodd;fill:rgb(0%,35.686275%,54.901961%);fill-opacity:1;" d="M 5850 3000 C 5850 2244.132812 5549.734375 1519.222656 5015.253906 984.746094 C 4480.777344 450.265625 3755.867188 150 3000 150 C 2244.132812 150 1519.222656 450.265625 984.746094 984.746094 C 450.265625 1519.222656 150 2244.132812 150 3000 C 150 3755.867188 450.265625 4480.777344 984.746094 5015.253906 C 1519.222656 5549.734375 2244.132812 5850 3000 5850 C 3755.867188 5850 4480.777344 5549.734375 5015.253906 5015.253906 C 5549.734375 4480.777344 5850 3755.867188 5850 3000 "/>
<path style=" stroke:none;fill-rule:evenodd;fill:rgb(94.509804%,94.117647%,91.764706%);fill-opacity:1;" d="M 3200 500 L 3200 5500 L 3300 5500 L 3300 500 L 3200 500 "/>
<path style=" stroke:none;fill-rule:evenodd;fill:rgb(94.509804%,94.117647%,91.764706%);fill-opacity:1;" d="M 1550 2200 L 1385.640625 2200 C 1297.964844 2200 1220.511719 2257.101562 1194.585938 2340.855469 L 1049.359375 2809.972656 C 1016.65625 2803.339844 983.371094 2800 950 2800 C 817.390625 2800 690.214844 2852.679688 596.445312 2946.445312 C 502.679688 3040.214844 450 3167.390625 450 3300 C 450 3432.609375 502.679688 3559.785156 596.445312 3653.554688 C 690.214844 3747.320312 817.390625 3800 950 3800 C 1082.609375 3800 1209.785156 3747.320312 1303.554688 3653.554688 C 1397.320312 3559.785156 1450 3432.609375 1450 3300 C 1450 3201.765625 1421.0625 3105.703125 1366.800781 3023.8125 C 1312.535156 2941.925781 1235.351562 2877.835938 1144.886719 2839.542969 L 1199.589844 2662.839844 L 1667.097656 3355.917969 C 1685.6875 3383.480469 1716.757812 3400 1750 3400 L 1960.101562 3400 C 1983.152344 3512.917969 2044.5 3614.410156 2133.773438 3687.296875 C 2223.042969 3760.1875 2334.753906 3800 2450 3800 C 2582.609375 3800 2709.785156 3747.320312 2803.554688 3653.554688 C 2897.320312 3559.785156 2950 3432.609375 2950 3300 C 2950 3167.390625 2897.320312 3040.214844 2803.554688 2946.445312 C 2709.785156 2852.679688 2582.609375 2800 2450 2800 C 2397.371094 2800 2345.070312 2808.308594 2295.035156 2824.621094 L 2150 2500 L 2187.5 2400 L 2300 2400 L 2300 2300 L 1875 2300 C 1861.191406 2300 1850 2311.191406 1850 2325 C 1850 2336.5625 1857.929688 2346.617188 1869.175781 2349.3125 L 2080.699219 2400 L 2043.199219 2500 L 1250 2500 L 1290.113281 2370.425781 C 1303.078125 2328.550781 1341.804688 2300 1385.640625 2300 L 1550 2300 L 1550 2200 M 1276.636719 2600 L 1745.199219 3294.671875 L 2005.699219 2600 L 1276.636719 2600 M 1019.597656 2906.101562 C 996.621094 2902.042969 973.332031 2900 950 2900 C 843.914062 2900 742.171875 2942.144531 667.15625 3017.15625 C 592.144531 3092.171875 550 3193.914062 550 3300 C 550 3406.085938 592.144531 3507.828125 667.15625 3582.84375 C 742.171875 3657.855469 843.914062 3700 950 3700 C 1056.085938 3700 1157.828125 3657.855469 1232.84375 3582.84375 C 1307.855469 3507.828125 1350 3406.085938 1350 3300 C 1350 3223.125 1327.847656 3147.875 1286.191406 3083.261719 C 1244.539062 3018.652344 1185.144531 2967.410156 1115.125 2935.675781 L 997.761719 3314.785156 C 991.28125 3335.722656 971.917969 3350 950 3350 C 922.386719 3350 900 3327.613281 900 3300 C 900 3294.988281 900.753906 3290.003906 902.238281 3285.214844 L 1019.601562 2906.101562 M 2050 3300 L 2397.898438 3300 L 2244.558594 2956.789062 C 2123.875 3029.03125 2050 3159.347656 2050 3300 M 2062.703125 3400 C 2084.871094 3485.863281 2134.945312 3561.921875 2205.050781 3616.226562 C 2275.15625 3670.53125 2361.320312 3700 2450 3700 C 2556.085938 3700 2657.828125 3657.855469 2732.84375 3582.84375 C 2807.855469 3507.828125 2850 3406.085938 2850 3300 C 2850 3193.914062 2807.855469 3092.171875 2732.84375 3017.15625 C 2657.828125 2942.144531 2556.085938 2900 2450 2900 C 2411.4375 2900 2373.078125 2905.578125 2336.109375 2916.554688 L 2520.652344 3329.605469 C 2523.519531 3336.019531 2525 3342.972656 2525 3350 C 2525 3377.613281 2502.613281 3400 2475 3400 L 2062.703125 3400 M 1850 3300 L 1950 3300 C 1950 3211.542969 1973.46875 3124.667969 2018.007812 3048.238281 C 2062.550781 2971.8125 2126.566406 2908.570312 2203.535156 2864.964844 L 2100.019531 2633.28125 L 1850 3300 "/>
<path style=" stroke:none;fill-rule:evenodd;fill:rgb(94.509804%,94.117647%,91.764706%);fill-opacity:1;" d="M 3925 3550 L 4075 3550 L 4075 4075 C 4075 4116.421875 4041.421875 4150 4000 4150 C 3958.578125 4150 3925 4116.421875 3925 4075 L 3925 3550 M 4125 3550 L 4275 3550 L 4275 4225 C 4275 4266.421875 4241.421875 4300 4200 4300 C 4158.578125 4300 4125 4266.421875 4125 4225 L 4125 3550 M 3600.007812 3500 C 3628.730469 3308.515625 3711.828125 3129.304688 3839.421875 2983.664062 L 3839.414062 2983.65625 C 3781.839844 2919.449219 3750 2836.242188 3750 2750 L 3750 2550 C 3750 2356.699219 3906.699219 2200 4100 2200 C 4230.515625 2200 4350.1875 2272.621094 4410.453125 2388.386719 L 4618.238281 2787.542969 C 4629.375 2808.933594 4635.1875 2832.691406 4635.1875 2856.804688 C 4635.1875 2896.324219 4619.59375 2934.246094 4591.792969 2962.332031 L 4798.167969 3135.605469 C 4847.703125 3177.199219 4910.316406 3200 4975 3200 C 5000.566406 3200 5026.007812 3196.433594 5050.585938 3189.40625 L 5087.515625 3178.851562 C 5096.453125 3176.296875 5105.703125 3175 5115 3175 C 5144.898438 3175 5173.230469 3188.378906 5192.226562 3211.46875 L 5471.53125 3550.972656 C 5489.9375 3573.347656 5500 3601.417969 5500 3630.386719 C 5500 3667.007812 5483.941406 3701.785156 5456.070312 3725.535156 L 5200 3425 L 5275 3800 L 5179.148438 3814.195312 L 5236.730469 4177.722656 C 5237.242188 4180.957031 5237.5 4184.226562 5237.5 4187.5 C 5237.5 4222.019531 5209.519531 4250 5175 4250 C 5145.082031 4250 5119.355469 4228.796875 5113.648438 4199.425781 L 5042.691406 3834.410156 L 4961.71875 3846.40625 L 4924.730469 4243.300781 C 4921.734375 4275.429688 4894.769531 4300 4862.5 4300 C 4827.980469 4300 4800 4272.019531 4800 4237.5 C 4800 4236.289062 4800.035156 4235.082031 4800.105469 4233.875 L 4850 3375 L 4494.03125 3038.3125 C 4478.875 3017.109375 4470.726562 2991.699219 4470.726562 2965.632812 C 4470.726562 2936.234375 4481.089844 2907.773438 4499.996094 2885.253906 L 4278.304688 2459.386719 C 4275.722656 2454.425781 4270.59375 2451.3125 4265 2451.3125 C 4256.714844 2451.3125 4250 2458.03125 4250 2466.3125 L 4250 2850 C 4250 2863.398438 4255.378906 2876.234375 4264.925781 2885.632812 L 4309.320312 2929.339844 C 4465.480469 3083.042969 4567.488281 3283.3125 4599.992188 3500 L 3600 3500 M 3900 2920.15625 L 3935.074219 2885.632812 C 3944.621094 2876.234375 3950 2863.398438 3950 2850 L 3950 2475 C 3950 2461.191406 3938.808594 2450 3925 2450 C 3911.191406 2450 3900 2461.191406 3900 2475 L 3900 2920.15625 M 4300 1900 C 4300 1789.542969 4210.457031 1700 4100 1700 C 3989.542969 1700 3900 1789.542969 3900 1900 C 3900 2010.457031 3989.542969 2100 4100 2100 C 4210.457031 2100 4300 2010.457031 4300 1900 M 5150 2925 C 5150 2828.351562 5071.648438 2750 4975 2750 C 4878.351562 2750 4800 2828.351562 4800 2925 C 4800 3021.648438 4878.351562 3100 4975 3100 C 5071.648438 3100 5150 3021.648438 5150 2925 "/>
</g>
</svg>
