<?xml version="1.0" encoding="UTF-8"?>
<svg xmlns="http://www.w3.org/2000/svg" xmlns:xlink="http://www.w3.org/1999/xlink" width="600.000000mm" height="600.000000mm" viewBox="0 0 6000 6000" version="1.1">
<g id="surface131">
<path style="fill-rule:evenodd;fill:rgb(94.509804%,94.117647%,91.764706%);fill-opacity:1;stroke-width:0.3;stroke-linecap:butt;stroke-linejoin:miter;stroke:rgb(16.470588%,16.078431%,16.470588%);stroke-opacity:1;stroke-miterlimit:3;" d="M 300 0 C 300 79.564844 268.392969 155.871094 212.132031 212.132031 C 155.871094 268.392969 79.564844 300 0 300 C -79.564844 300 -155.871094 268.392969 -212.132031 212.132031 C -268.392969 155.871094 -300 79.564844 -300 0 C -300 -79.564844 -268.392969 -155.871094 -212.132031 -212.132031 C -155.871094 -268.392969 -79.564844 -300 0 -300 C 79.564844 -300 155.871094 -268.392969 212.132031 -212.132031 C 268.392969 -155.871094 300 -79.564844 300 0 " transform="matrix(10,0,0,-10,3000,3000)"/>
<path style=" stroke:none;fill-rule:evenodd;fill:rgb(0%,35.686275%,54.901961%);fill-opacity:1;" d="M 5850 3000 C 5850 2244.132812 5549.734375 1519.222656 5015.253906 984.746094 C 4480.777344 450.265625 3755.867188 150 3000 150 C 2244.132812 150 1519.222656 450.265625 984.746094 984.746094 C 450.265625 1519.222656 150 2244.132812 150 3000 C 150 3755.867188 450.265625 4480.777344 984.746094 5015.253906 C 1519.222656 5549.734375 2244.132812 5850 3000 5850 C 3755.867188 5850 4480.777344 5549.734375 5015.253906 5015.253906 C 5549.734375 4480.777344 5850 3755.867188 5850 3000 "/>
<path style=" stroke:none;fill-rule:evenodd;fill:rgb(94.509804%,94.117647%,91.764706%);fill-opacity:1;" d="M 1337.5 3568.75 C 1337.5 3464.320312 1378.984375 3364.167969 1452.828125 3290.328125 C 1526.667969 3216.484375 1626.820312 3175 1731.25 3175 C 1835.679688 3175 1935.832031 3216.484375 2009.671875 3290.328125 C 2083.515625 3364.167969 2125 3464.320312 2125 3568.75 L 2125 3612.5 L 3743.75 3612.5 L 3743.75 3568.75 C 3743.75 3464.320312 3785.234375 3364.167969 3859.078125 3290.328125 C 3932.917969 3216.484375 4033.070312 3175 4137.5 3175 C 4241.929688 3175 4342.082031 3216.484375 4415.921875 3290.328125 C 4489.765625 3364.167969 4531.25 3464.320312 4531.25 3568.75 L 4531.25 3612.5 L 5100 3612.5 C 5196.648438 3612.5 5275 3534.148438 5275 3437.5 L 5275 2949.265625 C 5275 2924.875 5271.601562 2900.601562 5264.898438 2877.148438 L 5086.265625 2251.921875 C 5064.796875 2176.796875 4996.132812 2125 4917.996094 2125 L 943.75 2125 C 919.585938 2125 900 2144.585938 900 2168.75 L 900 2256.25 C 900 2277.003906 914.582031 2294.902344 934.90625 2299.097656 L 934.910156 2299.097656 C 955.234375 2303.292969 969.816406 2321.191406 969.816406 2341.945312 C 969.816406 2346.957031 968.953125 2351.9375 967.265625 2356.660156 L 740.292969 2992.179688 C 730.171875 3020.515625 725 3050.378906 725 3080.46875 L 725 3525 C 725 3573.324219 764.175781 3612.5 812.5 3612.5 L 1337.5 3612.5 L 1337.5 3568.75 M 949.375 2912.5 L 1473.125 2912.5 C 1509.367188 2912.5 1538.75 2883.117188 1538.75 2846.875 L 1538.75 2365.625 C 1538.75 2329.382812 1509.367188 2300 1473.125 2300 L 1121.25 2300 C 1093.515625 2300 1068.773438 2317.433594 1059.445312 2343.554688 L 887.570312 2824.804688 C 885.042969 2831.886719 883.75 2839.351562 883.75 2846.875 C 883.75 2883.117188 913.128906 2912.5 949.375 2912.5 M 1718.125 2912.5 L 2178 2912.5 C 2214.242188 2912.5 2243.625 2883.117188 2243.625 2846.875 C 2243.625 2840.777344 2242.773438 2834.710938 2241.101562 2828.847656 L 2103.601562 2347.597656 C 2095.550781 2319.421875 2069.800781 2300 2040.5 2300 L 1718.125 2300 C 1681.882812 2300 1652.5 2329.382812 1652.5 2365.625 L 1652.5 2846.875 C 1652.5 2883.117188 1681.882812 2912.5 1718.125 2912.5 M 2428.25 2912.5 L 2869.25 2912.5 C 2905.496094 2912.5 2934.875 2883.117188 2934.875 2846.875 C 2934.875 2840.777344 2934.027344 2834.710938 2932.351562 2828.847656 L 2794.851562 2347.597656 C 2786.800781 2319.421875 2761.050781 2300 2731.75 2300 L 2290.75 2300 C 2254.503906 2300 2225.125 2329.382812 2225.125 2365.625 C 2225.125 2371.722656 2225.972656 2377.789062 2227.648438 2383.652344 L 2365.152344 2864.902344 C 2373.199219 2893.078125 2398.949219 2912.5 2428.25 2912.5 M 3119.5 2912.5 L 3560.5 2912.5 C 3596.746094 2912.5 3626.125 2883.117188 3626.125 2846.875 C 3626.125 2840.777344 3625.277344 2834.710938 3623.601562 2828.847656 L 3486.097656 2347.597656 C 3478.050781 2319.421875 3452.300781 2300 3423 2300 L 2982.007812 2300 C 2945.761719 2300 2916.382812 2329.382812 2916.382812 2365.625 C 2916.382812 2371.722656 2917.230469 2377.789062 2918.90625 2383.652344 L 3056.398438 2864.902344 C 3064.449219 2893.078125 3090.199219 2912.5 3119.5 2912.5 M 3810.75 2912.5 L 4251.75 2912.5 C 4287.996094 2912.5 4317.375 2883.117188 4317.375 2846.875 C 4317.375 2840.777344 4316.527344 2834.710938 4314.851562 2828.847656 L 4177.351562 2347.597656 C 4169.300781 2319.421875 4143.550781 2300 4114.25 2300 L 3673.257812 2300 C 3637.011719 2300 3607.632812 2329.382812 3607.632812 2365.625 C 3607.632812 2371.722656 3608.480469 2377.789062 3610.15625 2383.652344 L 3747.648438 2864.902344 C 3755.699219 2893.078125 3781.449219 2912.5 3810.75 2912.5 M 4502 2912.5 L 4943 2912.5 C 4979.246094 2912.5 5008.625 2883.117188 5008.625 2846.875 C 5008.625 2840.777344 5007.777344 2834.710938 5006.101562 2828.847656 L 4868.601562 2347.597656 C 4860.550781 2319.421875 4834.800781 2300 4805.5 2300 L 4364.5 2300 C 4328.253906 2300 4298.875 2329.382812 4298.875 2365.625 C 4298.875 2371.722656 4299.722656 2377.789062 4301.398438 2383.652344 L 4438.898438 2864.902344 C 4446.949219 2893.078125 4472.699219 2912.5 4502 2912.5 M 4443.75 3568.75 C 4443.75 3399.613281 4306.636719 3262.5 4137.5 3262.5 C 3968.363281 3262.5 3831.25 3399.613281 3831.25 3568.75 C 3831.25 3737.886719 3968.363281 3875 4137.5 3875 C 4306.636719 3875 4443.75 3737.886719 4443.75 3568.75 M 2037.5 3568.75 C 2037.5 3399.613281 1900.386719 3262.5 1731.25 3262.5 C 1562.113281 3262.5 1425 3399.613281 1425 3568.75 C 1425 3737.886719 1562.113281 3875 1731.25 3875 C 1900.386719 3875 2037.5 3737.886719 2037.5 3568.75 "/>
</g>
</svg>
