<?xml version="1.0" encoding="UTF-8"?>
<svg xmlns="http://www.w3.org/2000/svg" xmlns:xlink="http://www.w3.org/1999/xlink" width="600.000000mm" height="600.000000mm" viewBox="0 0 6000 6000" version="1.1">
<g id="surface156">
<path style="fill-rule:evenodd;fill:rgb(94.509804%,94.117647%,91.764706%);fill-opacity:1;stroke-width:0.3;stroke-linecap:butt;stroke-linejoin:miter;stroke:rgb(16.470588%,16.078431%,16.470588%);stroke-opacity:1;stroke-miterlimit:3;" d="M 300 0 C 300 79.564844 268.392969 155.871094 212.132031 212.132031 C 155.871094 268.392969 79.564844 300 0 300 C -79.564844 300 -155.871094 268.392969 -212.132031 212.132031 C -268.392969 155.871094 -300 79.564844 -300 0 C -300 -79.564844 -268.392969 -155.871094 -212.132031 -212.132031 C -155.871094 -268.392969 -79.564844 -300 0 -300 C 79.564844 -300 155.871094 -268.392969 212.132031 -212.132031 C 268.392969 -155.871094 300 -79.564844 300 0 " transform="matrix(10,0,0,-10,3000,3000)"/>
<path style=" stroke:none;fill-rule:evenodd;fill:rgb(0%,35.686275%,54.901961%);fill-opacity:1;" d="M 5850 3000 C 5850 2244.132812 5549.734375 1519.222656 5015.253906 984.746094 C 4480.777344 450.265625 3755.867188 150 3000 150 C 2244.132812 150 1519.222656 450.265625 984.746094 984.746094 C 450.265625 1519.222656 150 2244.132812 150 3000 C 150 3755.867188 450.265625 4480.777344 984.746094 5015.253906 C 1519.222656 5549.734375 2244.132812 5850 3000 5850 C 3755.867188 5850 4480.777344 5549.734375 5015.253906 5015.253906 C 5549.734375 4480.777344 5850 3755.867188 5850 3000 "/>
<path style=" stroke:none;fill-rule:evenodd;fill:rgb(94.509804%,94.117647%,91.764706%);fill-opacity:1;" d="M 2800 500 L 2800 5500 L 2700 5500 L 2700 500 L 2800 500 "/>
<path style=" stroke:none;fill-rule:evenodd;fill:rgb(94.509804%,94.117647%,91.764706%);fill-opacity:1;" d="M 875 3550 L 1025 3550 L 1025 4075 C 1025 4116.421875 991.421875 4150 950 4150 C 908.578125 4150 875 4116.421875 875 4075 L 875 3550 M 1075 3550 L 1225 3550 L 1225 4225 C 1225 4266.421875 1191.421875 4300 1150 4300 C 1108.578125 4300 1075 4266.421875 1075 4225 L 1075 3550 M 550.007812 3500 C 578.730469 3308.515625 661.828125 3129.304688 789.421875 2983.664062 L 789.414062 2983.65625 C 731.839844 2919.449219 700 2836.242188 700 2750 L 700 2550 C 700 2356.699219 856.699219 2200 1050 2200 C 1180.515625 2200 1300.1875 2272.621094 1360.453125 2388.386719 L 1568.238281 2787.542969 C 1579.375 2808.933594 1585.1875 2832.691406 1585.1875 2856.804688 C 1585.1875 2896.324219 1569.59375 2934.246094 1541.792969 2962.332031 L 1748.167969 3135.605469 C 1797.703125 3177.199219 1860.316406 3200 1925 3200 C 1950.566406 3200 1976.007812 3196.433594 2000.585938 3189.40625 L 2037.515625 3178.851562 C 2046.453125 3176.296875 2055.703125 3175 2065 3175 C 2094.898438 3175 2123.230469 3188.378906 2142.226562 3211.46875 L 2421.53125 3550.972656 C 2439.9375 3573.347656 2450 3601.417969 2450 3630.386719 C 2450 3667.007812 2433.941406 3701.785156 2406.070312 3725.535156 L 2150 3425 L 2225 3800 L 2129.148438 3814.195312 L 2186.730469 4177.722656 C 2187.242188 4180.957031 2187.5 4184.226562 2187.5 4187.5 C 2187.5 4222.019531 2159.519531 4250 2125 4250 C 2095.082031 4250 2069.355469 4228.796875 2063.648438 4199.425781 L 1992.691406 3834.410156 L 1911.71875 3846.40625 L 1874.730469 4243.300781 C 1871.734375 4275.429688 1844.769531 4300 1812.5 4300 C 1777.980469 4300 1750 4272.019531 1750 4237.5 C 1750 4236.289062 1750.035156 4235.082031 1750.105469 4233.875 L 1800 3375 L 1444.03125 3038.3125 C 1428.875 3017.109375 1420.726562 2991.699219 1420.726562 2965.632812 C 1420.726562 2936.234375 1431.089844 2907.773438 1449.996094 2885.253906 L 1228.304688 2459.386719 C 1225.722656 2454.425781 1220.59375 2451.3125 1215 2451.3125 C 1206.714844 2451.3125 1200 2458.03125 1200 2466.3125 L 1200 2850 C 1200 2863.398438 1205.378906 2876.234375 1214.925781 2885.632812 L 1259.320312 2929.339844 C 1415.480469 3083.042969 1517.488281 3283.3125 1549.992188 3500 L 550 3500 M 850 2920.15625 L 885.074219 2885.632812 C 894.621094 2876.234375 900 2863.398438 900 2850 L 900 2475 C 900 2461.191406 888.808594 2450 875 2450 C 861.191406 2450 850 2461.191406 850 2475 L 850 2920.15625 M 1250 1900 C 1250 1789.542969 1160.457031 1700 1050 1700 C 939.542969 1700 850 1789.542969 850 1900 C 850 2010.457031 939.542969 2100 1050 2100 C 1160.457031 2100 1250 2010.457031 1250 1900 M 2100 2925 C 2100 2828.351562 2021.648438 2750 1925 2750 C 1828.351562 2750 1750 2828.351562 1750 2925 C 1750 3021.648438 1828.351562 3100 1925 3100 C 2021.648438 3100 2100 3021.648438 2100 2925 "/>
<path style=" stroke:none;fill-rule:evenodd;fill:rgb(94.509804%,94.117647%,91.764706%);fill-opacity:1;" d="M 4150 2200 L 3985.640625 2200 C 3897.964844 2200 3820.511719 2257.101562 3794.585938 2340.855469 L 3649.359375 2809.972656 C 3616.65625 2803.339844 3583.371094 2800 3550 2800 C 3417.390625 2800 3290.214844 2852.679688 3196.445312 2946.445312 C 3102.679688 3040.214844 3050 3167.390625 3050 3300 C 3050 3432.609375 3102.679688 3559.785156 3196.445312 3653.554688 C 3290.214844 3747.320312 3417.390625 3800 3550 3800 C 3682.609375 3800 3809.785156 3747.320312 3903.554688 3653.554688 C 3997.320312 3559.785156 4050 3432.609375 4050 3300 C 4050 3201.765625 4021.0625 3105.703125 3966.800781 3023.8125 C 3912.535156 2941.925781 3835.351562 2877.835938 3744.886719 2839.542969 L 3799.589844 2662.839844 L 4267.097656 3355.917969 C 4285.6875 3383.480469 4316.757812 3400 4350 3400 L 4560.101562 3400 C 4583.152344 3512.917969 4644.5 3614.410156 4733.773438 3687.296875 C 4823.042969 3760.1875 4934.753906 3800 5050 3800 C 5182.609375 3800 5309.785156 3747.320312 5403.554688 3653.554688 C 5497.320312 3559.785156 5550 3432.609375 5550 3300 C 5550 3167.390625 5497.320312 3040.214844 5403.554688 2946.445312 C 5309.785156 2852.679688 5182.609375 2800 5050 2800 C 4997.371094 2800 4945.070312 2808.308594 4895.035156 2824.621094 L 4750 2500 L 4787.5 2400 L 4900 2400 L 4900 2300 L 4475 2300 C 4461.191406 2300 4450 2311.191406 4450 2325 C 4450 2336.5625 4457.929688 2346.617188 4469.175781 2349.3125 L 4680.699219 2400 L 4643.199219 2500 L 3850 2500 L 3890.113281 2370.425781 C 3903.078125 2328.550781 3941.804688 2300 3985.640625 2300 L 4150 2300 L 4150 2200 M 3876.636719 2600 L 4345.199219 3294.671875 L 4605.699219 2600 L 3876.636719 2600 M 3619.597656 2906.101562 C 3596.621094 2902.042969 3573.332031 2900 3550 2900 C 3443.914062 2900 3342.171875 2942.144531 3267.15625 3017.15625 C 3192.144531 3092.171875 3150 3193.914062 3150 3300 C 3150 3406.085938 3192.144531 3507.828125 3267.15625 3582.84375 C 3342.171875 3657.855469 3443.914062 3700 3550 3700 C 3656.085938 3700 3757.828125 3657.855469 3832.84375 3582.84375 C 3907.855469 3507.828125 3950 3406.085938 3950 3300 C 3950 3223.125 3927.847656 3147.875 3886.191406 3083.261719 C 3844.539062 3018.652344 3785.144531 2967.410156 3715.125 2935.675781 L 3597.761719 3314.785156 C 3591.28125 3335.722656 3571.917969 3350 3550 3350 C 3522.386719 3350 3500 3327.613281 3500 3300 C 3500 3294.988281 3500.753906 3290.003906 3502.238281 3285.214844 L 3619.601562 2906.101562 M 4650 3300 L 4997.898438 3300 L 4844.558594 2956.789062 C 4723.875 3029.03125 4650 3159.347656 4650 3300 M 4662.703125 3400 C 4684.871094 3485.863281 4734.945312 3561.921875 4805.050781 3616.226562 C 4875.15625 3670.53125 4961.320312 3700 5050 3700 C 5156.085938 3700 5257.828125 3657.855469 5332.84375 3582.84375 C 5407.855469 3507.828125 5450 3406.085938 5450 3300 C 5450 3193.914062 5407.855469 3092.171875 5332.84375 3017.15625 C 5257.828125 2942.144531 5156.085938 2900 5050 2900 C 5011.4375 2900 4973.078125 2905.578125 4936.109375 2916.554688 L 5120.652344 3329.605469 C 5123.519531 3336.019531 5125 3342.972656 5125 3350 C 5125 3377.613281 5102.613281 3400 5075 3400 L 4662.703125 3400 M 4450 3300 L 4550 3300 C 4550 3211.542969 4573.46875 3124.667969 4618.007812 3048.238281 C 4662.550781 2971.8125 4726.566406 2908.570312 4803.535156 2864.964844 L 4700.019531 2633.28125 L 4450 3300 "/>
<path style=" stroke:none;fill-rule:evenodd;fill:rgb(73.333333%,11.764706%,6.27451%);fill-opacity:1;" d="M 5216.191406 1208.074219 C 5090.089844 1052.117188 4947.882812 909.910156 4791.925781 783.808594 L 783.808594 4791.925781 C 909.910156 4947.882812 1052.117188 5090.089844 1208.074219 5216.191406 L 5216.191406 1208.074219 "/>
</g>
</svg>
