<?xml version="1.0" encoding="UTF-8"?>
<svg xmlns="http://www.w3.org/2000/svg" xmlns:xlink="http://www.w3.org/1999/xlink" width="600.000000mm" height="600.000000mm" viewBox="0 0 6000 6000" version="1.1">
<g id="surface146">
<path style="fill-rule:evenodd;fill:rgb(94.509804%,94.117647%,91.764706%);fill-opacity:1;stroke-width:0.3;stroke-linecap:butt;stroke-linejoin:miter;stroke:rgb(16.470588%,16.078431%,16.470588%);stroke-opacity:1;stroke-miterlimit:3;" d="M 300 0 C 300 79.564844 268.392969 155.871094 212.132031 212.132031 C 155.871094 268.392969 79.564844 300 0 300 C -79.564844 300 -155.871094 268.392969 -212.132031 212.132031 C -268.392969 155.871094 -300 79.564844 -300 0 C -300 -79.564844 -268.392969 -155.871094 -212.132031 -212.132031 C -155.871094 -268.392969 -79.564844 -300 0 -300 C 79.564844 -300 155.871094 -268.392969 212.132031 -212.132031 C 268.392969 -155.871094 300 -79.564844 300 0 " transform="matrix(10,0,0,-10,3000,3000)"/>
<path style=" stroke:none;fill-rule:evenodd;fill:rgb(0%,35.686275%,54.901961%);fill-opacity:1;" d="M 5850 3000 C 5850 2244.132812 5549.734375 1519.222656 5015.253906 984.746094 C 4480.777344 450.265625 3755.867188 150 3000 150 C 2244.132812 150 1519.222656 450.265625 984.746094 984.746094 C 450.265625 1519.222656 150 2244.132812 150 3000 C 150 3755.867188 450.265625 4480.777344 984.746094 5015.253906 C 1519.222656 5549.734375 2244.132812 5850 3000 5850 C 3755.867188 5850 4480.777344 5549.734375 5015.253906 5015.253906 C 5549.734375 4480.777344 5850 3755.867188 5850 3000 "/>
<path style=" stroke:none;fill-rule:evenodd;fill:rgb(94.509804%,94.117647%,91.764706%);fill-opacity:1;" d="M 2375 2300 L 2525 2300 L 2525 2825 C 2525 2866.421875 2491.421875 2900 2450 2900 C 2408.578125 2900 2375 2866.421875 2375 2825 L 2375 2300 M 2575 2300 L 2725 2300 L 2725 2975 C 2725 3016.421875 2691.421875 3050 2650 3050 C 2608.578125 3050 2575 3016.421875 2575 2975 L 2575 2300 M 2050.007812 2250 C 2078.730469 2058.515625 2161.828125 1879.304688 2289.421875 1733.664062 L 2289.414062 1733.65625 C 2231.839844 1669.449219 2200 1586.242188 2200 1500 L 2200 1300 C 2200 1106.699219 2356.699219 950 2550 950 C 2680.515625 950 2800.1875 1022.621094 2860.453125 1138.386719 L 3068.238281 1537.542969 C 3079.375 1558.933594 3085.1875 1582.691406 3085.1875 1606.804688 C 3085.1875 1646.324219 3069.59375 1684.246094 3041.792969 1712.332031 L 3248.167969 1885.605469 C 3297.703125 1927.199219 3360.316406 1950 3425 1950 C 3450.566406 1950 3476.007812 1946.433594 3500.585938 1939.40625 L 3537.515625 1928.851562 C 3546.453125 1926.296875 3555.703125 1925 3565 1925 C 3594.898438 1925 3623.230469 1938.378906 3642.226562 1961.46875 L 3921.53125 2300.972656 C 3939.9375 2323.347656 3950 2351.417969 3950 2380.386719 C 3950 2417.007812 3933.941406 2451.785156 3906.070312 2475.535156 L 3650 2175 L 3725 2550 L 3629.148438 2564.195312 L 3686.730469 2927.722656 C 3687.242188 2930.957031 3687.5 2934.226562 3687.5 2937.5 C 3687.5 2972.019531 3659.519531 3000 3625 3000 C 3595.082031 3000 3569.355469 2978.796875 3563.648438 2949.425781 L 3492.691406 2584.410156 L 3411.71875 2596.40625 L 3374.730469 2993.300781 C 3371.734375 3025.429688 3344.769531 3050 3312.5 3050 C 3277.980469 3050 3250 3022.019531 3250 2987.5 C 3250 2986.289062 3250.035156 2985.082031 3250.105469 2983.875 L 3300 2125 L 2944.03125 1788.3125 C 2928.875 1767.109375 2920.726562 1741.699219 2920.726562 1715.632812 C 2920.726562 1686.234375 2931.089844 1657.773438 2949.996094 1635.253906 L 2728.304688 1209.386719 C 2725.722656 1204.425781 2720.59375 1201.3125 2715 1201.3125 C 2706.714844 1201.3125 2700 1208.03125 2700 1216.3125 L 2700 1600 C 2700 1613.398438 2705.378906 1626.234375 2714.925781 1635.632812 L 2759.320312 1679.339844 C 2915.480469 1833.042969 3017.488281 2033.3125 3049.992188 2250 L 2050 2250 M 2350 1670.15625 L 2385.074219 1635.632812 C 2394.621094 1626.234375 2400 1613.398438 2400 1600 L 2400 1225 C 2400 1211.191406 2388.808594 1200 2375 1200 C 2361.191406 1200 2350 1211.191406 2350 1225 L 2350 1670.15625 M 2750 650 C 2750 539.542969 2660.457031 450 2550 450 C 2439.542969 450 2350 539.542969 2350 650 C 2350 760.457031 2439.542969 850 2550 850 C 2660.457031 850 2750 760.457031 2750 650 M 3600 1675 C 3600 1578.351562 3521.648438 1500 3425 1500 C 3328.351562 1500 3250 1578.351562 3250 1675 C 3250 1771.648438 3328.351562 1850 3425 1850 C 3521.648438 1850 3600 1771.648438 3600 1675 "/>
<path style=" stroke:none;fill-rule:evenodd;fill:rgb(94.509804%,94.117647%,91.764706%);fill-opacity:1;" d="M 2820 3380 L 2622.769531 3380 C 2517.558594 3380 2424.617188 3448.523438 2393.503906 3549.027344 L 2219.230469 4111.964844 C 2179.984375 4104.007812 2140.042969 4100 2100 4100 C 1940.871094 4100 1788.257812 4163.214844 1675.734375 4275.734375 C 1563.214844 4388.257812 1500 4540.871094 1500 4700 C 1500 4859.128906 1563.214844 5011.742188 1675.734375 5124.265625 C 1788.257812 5236.785156 1940.871094 5300 2100 5300 C 2259.128906 5300 2411.742188 5236.785156 2524.265625 5124.265625 C 2636.785156 5011.742188 2700 4859.128906 2700 4700 C 2700 4582.117188 2665.273438 4466.84375 2600.160156 4368.578125 C 2535.042969 4270.308594 2442.421875 4193.402344 2333.863281 4147.453125 L 2399.507812 3935.40625 L 2960.515625 4767.101562 C 2982.824219 4800.175781 3020.109375 4820 3060 4820 L 3312.121094 4820 C 3339.78125 4955.503906 3413.402344 5077.292969 3520.527344 5164.757812 C 3627.652344 5252.226562 3761.703125 5300 3900 5300 C 4059.128906 5300 4211.742188 5236.785156 4324.265625 5124.265625 C 4436.785156 5011.742188 4500 4859.128906 4500 4700 C 4500 4540.871094 4436.785156 4388.257812 4324.265625 4275.734375 C 4211.742188 4163.214844 4059.128906 4100 3900 4100 C 3836.84375 4100 3774.085938 4109.972656 3714.042969 4129.542969 L 3540 3740 L 3585 3620 L 3720 3620 L 3720 3500 L 3210 3500 C 3193.429688 3500 3180 3513.429688 3180 3530 C 3180 3543.875 3189.515625 3555.941406 3203.007812 3559.175781 L 3456.839844 3620 L 3411.839844 3740 L 2460 3740 L 2508.136719 3584.511719 C 2523.691406 3534.261719 2570.164062 3500 2622.769531 3500 L 2820 3500 L 2820 3380 M 2491.964844 3860 L 3054.238281 4693.605469 L 3366.839844 3860 L 2491.964844 3860 M 2183.519531 4227.320312 C 2155.945312 4222.449219 2128 4220 2100 4220 C 1972.695312 4220 1850.605469 4270.570312 1760.589844 4360.589844 C 1670.570312 4450.605469 1620 4572.695312 1620 4700 C 1620 4827.304688 1670.570312 4949.394531 1760.589844 5039.410156 C 1850.605469 5129.429688 1972.695312 5180 2100 5180 C 2227.304688 5180 2349.394531 5129.429688 2439.410156 5039.410156 C 2529.429688 4949.394531 2580 4827.304688 2580 4700 C 2580 4607.75 2553.417969 4517.453125 2503.429688 4439.917969 C 2453.445312 4362.382812 2382.175781 4300.890625 2298.152344 4262.808594 L 2157.316406 4717.742188 C 2149.539062 4742.871094 2126.300781 4760 2100 4760 C 2066.863281 4760 2040 4733.136719 2040 4700 C 2040 4693.984375 2040.90625 4688.003906 2042.683594 4682.257812 L 2183.519531 4227.320312 M 3420 4700 L 3837.476562 4700 L 3653.46875 4288.148438 C 3508.648438 4374.835938 3420 4531.214844 3420 4700 M 3435.242188 4820 C 3461.84375 4923.035156 3521.933594 5014.308594 3606.0625 5079.472656 C 3690.1875 5144.636719 3793.585938 5180 3900 5180 C 4027.304688 5180 4149.394531 5129.429688 4239.410156 5039.410156 C 4329.429688 4949.394531 4380 4827.304688 4380 4700 C 4380 4572.695312 4329.429688 4450.605469 4239.410156 4360.589844 C 4149.394531 4270.570312 4027.304688 4220 3900 4220 C 3853.722656 4220 3807.691406 4226.691406 3763.332031 4239.867188 L 3984.78125 4735.523438 C 3988.222656 4743.226562 3990 4751.566406 3990 4760 C 3990 4793.136719 3963.136719 4820 3930 4820 L 3435.242188 4820 M 3180 4700 L 3300 4700 C 3300 4593.851562 3328.160156 4489.597656 3381.609375 4397.886719 C 3435.058594 4306.175781 3511.882812 4230.285156 3604.238281 4177.960938 L 3480.023438 3899.9375 L 3180 4700 "/>
<path style=" stroke:none;fill-rule:evenodd;fill:rgb(73.333333%,11.764706%,6.27451%);fill-opacity:1;" d="M 5216.191406 1208.074219 C 5090.089844 1052.117188 4947.882812 909.910156 4791.925781 783.808594 L 783.808594 4791.925781 C 909.910156 4947.882812 1052.117188 5090.089844 1208.074219 5216.191406 L 5216.191406 1208.074219 "/>
</g>
</svg>
