<?xml version="1.0" encoding="UTF-8"?>
<svg xmlns="http://www.w3.org/2000/svg" xmlns:xlink="http://www.w3.org/1999/xlink" width="600.000000mm" height="600.000000mm" viewBox="0 0 6000 6000" version="1.1">
<g id="surface136">
<path style="fill-rule:evenodd;fill:rgb(94.509804%,94.117647%,91.764706%);fill-opacity:1;stroke-width:0.3;stroke-linecap:butt;stroke-linejoin:miter;stroke:rgb(16.470588%,16.078431%,16.470588%);stroke-opacity:1;stroke-miterlimit:3;" d="M 300 0 C 300 79.564844 268.392969 155.871094 212.132031 212.132031 C 155.871094 268.392969 79.564844 300 0 300 C -79.564844 300 -155.871094 268.392969 -212.132031 212.132031 C -268.392969 155.871094 -300 79.564844 -300 0 C -300 -79.564844 -268.392969 -155.871094 -212.132031 -212.132031 C -155.871094 -268.392969 -79.564844 -300 0 -300 C 79.564844 -300 155.871094 -268.392969 212.132031 -212.132031 C 268.392969 -155.871094 300 -79.564844 300 0 " transform="matrix(10,0,0,-10,3000,3000)"/>
<path style=" stroke:none;fill-rule:evenodd;fill:rgb(0%,35.686275%,54.901961%);fill-opacity:1;" d="M 5850 3000 C 5850 2244.132812 5549.734375 1519.222656 5015.253906 984.746094 C 4480.777344 450.265625 3755.867188 150 3000 150 C 2244.132812 150 1519.222656 450.265625 984.746094 984.746094 C 450.265625 1519.222656 150 2244.132812 150 3000 C 150 3755.867188 450.265625 4480.777344 984.746094 5015.253906 C 1519.222656 5549.734375 2244.132812 5850 3000 5850 C 3755.867188 5850 4480.777344 5549.734375 5015.253906 5015.253906 C 5549.734375 4480.777344 5850 3755.867188 5850 3000 "/>
<path style=" stroke:none;fill-rule:evenodd;fill:rgb(94.509804%,94.117647%,91.764706%);fill-opacity:1;" d="M 1906.25 3962.5 L 2168.75 3962.5 L 2168.75 4881.25 C 2168.75 4953.738281 2109.988281 5012.5 2037.5 5012.5 C 1965.011719 5012.5 1906.25 4953.738281 1906.25 4881.25 L 1906.25 3962.5 M 2256.25 3962.5 L 2518.75 3962.5 L 2518.75 5143.75 C 2518.75 5216.238281 2459.988281 5275 2387.5 5275 C 2315.011719 5275 2256.25 5216.238281 2256.25 5143.75 L 2256.25 3962.5 M 1337.511719 3875 C 1387.777344 3539.902344 1533.195312 3226.28125 1756.488281 2971.410156 L 1756.476562 2971.402344 C 1655.722656 2859.035156 1600 2713.425781 1600 2562.5 L 1600 2212.5 C 1600 2050.054688 1664.53125 1894.261719 1779.398438 1779.398438 C 1894.261719 1664.53125 2050.054688 1600 2212.5 1600 C 2324.550781 1600 2434.453125 1630.738281 2530.25 1688.867188 C 2626.042969 1746.996094 2704.054688 1830.289062 2755.792969 1929.679688 L 3119.417969 2628.203125 C 3138.90625 2665.632812 3149.078125 2707.210938 3149.078125 2749.410156 C 3149.078125 2818.566406 3121.789062 2884.929688 3073.136719 2934.078125 L 3434.292969 3237.3125 C 3520.984375 3310.101562 3630.554688 3350 3743.75 3350 C 3788.488281 3350 3833.011719 3343.761719 3876.027344 3331.464844 L 3940.648438 3312.992188 C 3956.292969 3308.519531 3972.480469 3306.25 3988.75 3306.25 C 4041.074219 3306.25 4090.652344 3329.664062 4123.894531 3370.070312 L 4612.679688 3964.203125 C 4644.890625 4003.355469 4662.5 4052.480469 4662.5 4103.179688 C 4662.5 4167.261719 4634.398438 4228.125 4585.621094 4269.683594 L 4137.5 3743.75 L 4268.75 4400 L 4101.007812 4424.839844 L 4201.777344 5061.015625 C 4202.675781 5066.675781 4203.125 5072.394531 4203.125 5078.125 C 4203.125 5138.53125 4154.15625 5187.5 4093.75 5187.5 C 4041.390625 5187.5 3996.375 5150.390625 3986.382812 5098.996094 L 3862.210938 4460.21875 L 3720.507812 4481.214844 L 3655.777344 5175.773438 C 3650.539062 5232.003906 3603.347656 5275 3546.875 5275 C 3486.46875 5275 3437.5 5226.03125 3437.5 5165.625 C 3437.5 5163.507812 3437.5625 5161.394531 3437.683594 5159.28125 L 3525 3656.25 L 2902.050781 3067.050781 C 2875.53125 3029.941406 2861.273438 2985.46875 2861.273438 2939.859375 C 2861.273438 2888.40625 2879.410156 2838.601562 2912.496094 2799.195312 L 2524.535156 2053.929688 C 2520.015625 2045.246094 2511.039062 2039.800781 2501.25 2039.800781 C 2486.753906 2039.800781 2475 2051.550781 2475 2066.050781 L 2475 2737.5 C 2475 2760.945312 2484.410156 2783.414062 2501.121094 2799.859375 L 2578.8125 2876.347656 C 2852.089844 3145.328125 3030.605469 3495.796875 3087.488281 3875 L 1337.5 3875 M 1862.5 2860.277344 L 1923.878906 2799.859375 C 1940.589844 2783.414062 1950 2760.945312 1950 2737.5 L 1950 2081.25 C 1950 2057.085938 1930.414062 2037.5 1906.25 2037.5 C 1882.085938 2037.5 1862.5 2057.085938 1862.5 2081.25 L 1862.5 2860.277344 M 2562.5 1075 C 2562.5 881.699219 2405.800781 725 2212.5 725 C 2019.199219 725 1862.5 881.699219 1862.5 1075 C 1862.5 1268.300781 2019.199219 1425 2212.5 1425 C 2405.800781 1425 2562.5 1268.300781 2562.5 1075 M 4050 2868.75 C 4050 2699.613281 3912.886719 2562.5 3743.75 2562.5 C 3574.613281 2562.5 3437.5 2699.613281 3437.5 2868.75 C 3437.5 3037.886719 3574.613281 3175 3743.75 3175 C 3912.886719 3175 4050 3037.886719 4050 2868.75 "/>
<path style=" stroke:none;fill-rule:evenodd;fill:rgb(73.333333%,11.764706%,6.27451%);fill-opacity:1;" d="M 5216.191406 1208.074219 C 5090.089844 1052.117188 4947.882812 909.910156 4791.925781 783.808594 L 783.808594 4791.925781 C 909.910156 4947.882812 1052.117188 5090.089844 1208.074219 5216.191406 L 5216.191406 1208.074219 "/>
</g>
</svg>
