<?xml version="1.0" encoding="UTF-8"?>
<svg xmlns="http://www.w3.org/2000/svg" xmlns:xlink="http://www.w3.org/1999/xlink" width="600.000000mm" height="600.000000mm" viewBox="0 0 6000 6000" version="1.1">
<g id="surface176">
<path style="fill-rule:evenodd;fill:rgb(94.509804%,94.117647%,91.764706%);fill-opacity:1;stroke-width:0.3;stroke-linecap:butt;stroke-linejoin:miter;stroke:rgb(16.470588%,16.078431%,16.470588%);stroke-opacity:1;stroke-miterlimit:3;" d="M 300 0 C 300 79.564844 268.392969 155.871094 212.132031 212.132031 C 155.871094 268.392969 79.564844 300 0 300 C -79.564844 300 -155.871094 268.392969 -212.132031 212.132031 C -268.392969 155.871094 -300 79.564844 -300 0 C -300 -79.564844 -268.392969 -155.871094 -212.132031 -212.132031 C -155.871094 -268.392969 -79.564844 -300 0 -300 C 79.564844 -300 155.871094 -268.392969 212.132031 -212.132031 C 268.392969 -155.871094 300 -79.564844 300 0 " transform="matrix(10,0,0,-10,3000,3000)"/>
<path style=" stroke:none;fill-rule:evenodd;fill:rgb(73.333333%,11.764706%,6.27451%);fill-opacity:1;" d="M 5850 3000 C 5850 2244.132812 5549.734375 1519.222656 5015.253906 984.746094 C 4480.777344 450.265625 3755.867188 150 3000 150 C 2244.132812 150 1519.222656 450.265625 984.746094 984.746094 C 450.265625 1519.222656 150 2244.132812 150 3000 C 150 3755.867188 450.265625 4480.777344 984.746094 5015.253906 C 1519.222656 5549.734375 2244.132812 5850 3000 5850 C 3755.867188 5850 4480.777344 5549.734375 5015.253906 5015.253906 C 5549.734375 4480.777344 5850 3755.867188 5850 3000 M 5100 3000 C 5100 2443.046875 4878.75 1908.902344 4484.925781 1515.074219 C 4091.097656 1121.25 3556.953125 900 3000 900 C 2443.046875 900 1908.902344 1121.25 1515.074219 1515.074219 C 1121.25 1908.902344 900 2443.046875 900 3000 C 900 3556.953125 1121.25 4091.097656 1515.074219 4484.925781 C 1908.902344 4878.75 2443.046875 5100 3000 5100 C 3556.953125 5100 4091.097656 4878.75 4484.925781 4484.925781 C 4878.75 4091.097656 5100 3556.953125 5100 3000 "/>
<path style=" stroke:none;fill-rule:evenodd;fill:rgb(16.470588%,16.078431%,16.470588%);fill-opacity:1;" d="M 1050 2850 L 1050 2750 L 4950 2750 L 4950 2850 L 1050 2850 "/>
<path style=" stroke:none;fill-rule:evenodd;fill:rgb(16.470588%,16.078431%,16.470588%);fill-opacity:1;" d="M 2595 2167.5 C 2595 2066.054688 2554.699219 1968.765625 2482.96875 1897.03125 C 2411.234375 1825.300781 2313.945312 1785 2212.5 1785 C 2111.054688 1785 2013.765625 1825.300781 1942.03125 1897.03125 C 1870.300781 1968.765625 1830 2066.054688 1830 2167.5 C 1830 2268.945312 1870.300781 2366.234375 1942.03125 2437.96875 C 2013.765625 2509.699219 2111.054688 2550 2212.5 2550 C 2313.945312 2550 2411.234375 2509.699219 2482.96875 2437.96875 C 2554.699219 2366.234375 2595 2268.945312 2595 2167.5 M 2460 2167.5 C 2460 2030.808594 2349.191406 1920 2212.5 1920 C 2075.808594 1920 1965 2030.808594 1965 2167.5 C 1965 2304.191406 2075.808594 2415 2212.5 2415 C 2349.191406 2415 2460 2304.191406 2460 2167.5 M 4170 2167.5 C 4170 2066.054688 4129.699219 1968.765625 4057.96875 1897.03125 C 3986.234375 1825.300781 3888.945312 1785 3787.5 1785 C 3686.054688 1785 3588.765625 1825.300781 3517.03125 1897.03125 C 3445.300781 1968.765625 3405 2066.054688 3405 2167.5 C 3405 2268.945312 3445.300781 2366.234375 3517.03125 2437.96875 C 3588.765625 2509.699219 3686.054688 2550 3787.5 2550 C 3888.945312 2550 3986.234375 2509.699219 4057.96875 2437.96875 C 4129.699219 2366.234375 4170 2268.945312 4170 2167.5 M 4035 2167.5 C 4035 2030.808594 3924.191406 1920 3787.5 1920 C 3650.808594 1920 3540 2030.808594 3540 2167.5 C 3540 2304.191406 3650.808594 2415 3787.5 2415 C 3924.191406 2415 4035 2304.191406 4035 2167.5 M 3390.625 2300.292969 C 3376.304688 2257.484375 3369 2212.640625 3369 2167.5 C 3369 2056.507812 3413.09375 1950.058594 3491.574219 1871.574219 C 3570.058594 1793.09375 3676.507812 1749 3787.5 1749 C 3973.894531 1749 4125 1658.335938 4125 1546.5 C 4125 1492.5 4102.5 1470 4057.5 1470 C 3920.25 1470 3788.621094 1488.964844 3691.570312 1522.722656 C 3594.523438 1556.476562 3540 1602.261719 3540 1650 C 3450 1677 3382.5 1677 3308.421875 1668 C 3206.125 1556.183594 3061.550781 1492.5 2910 1492.5 C 2836.652344 1492.5 2770.640625 1537.003906 2743.136719 1605 C 2403.75 1515 2347.5 1447.5 2662.5 1357.5 C 2730 1335 2730 1301.25 2730 1290 C 2190 1290 2100 1605 2172.390625 1750.925781 L 2172.386719 1750.925781 C 2185.71875 1749.644531 2199.105469 1749 2212.5 1749 C 2309.636719 1749 2403.746094 1782.789062 2478.699219 1844.574219 C 2553.652344 1906.359375 2604.777344 1992.296875 2623.3125 2087.644531 L 2623.308594 2087.648438 C 2662.5 2336.25 2910 2291.25 3390.628906 2300.289062 "/>
<path style=" stroke:none;fill-rule:evenodd;fill:rgb(16.470588%,16.078431%,16.470588%);fill-opacity:1;" d="M 1950 3850 C 1950 3817.542969 1960.527344 3785.964844 1980 3760 L 2010 3720 C 2030.996094 3692.003906 2048.65625 3661.652344 2062.621094 3629.5625 L 2260.382812 3175.121094 C 2280.234375 3129.503906 2325.25 3100 2375 3100 L 3625 3100 C 3674.75 3100 3719.765625 3129.503906 3739.617188 3175.121094 L 3937.378906 3629.5625 C 3951.34375 3661.652344 3969.003906 3692.003906 3990 3720 L 4020 3760 C 4039.472656 3785.964844 4050 3817.542969 4050 3850 L 4050 4175 C 4050 4244.035156 3994.035156 4300 3925 4300 L 2075 4300 C 2005.964844 4300 1950 4244.035156 1950 4175 L 1950 3850 M 2187.5 3650 L 2359.371094 3255.046875 C 2367.3125 3236.800781 2385.320312 3225 2405.21875 3225 L 3594.78125 3225 C 3614.683594 3225 3632.6875 3236.800781 3640.628906 3255.046875 L 3812.5 3650 L 2187.5 3650 M 2375 3925 C 2375 3842.15625 2307.84375 3775 2225 3775 C 2142.15625 3775 2075 3842.15625 2075 3925 C 2075 4007.84375 2142.15625 4075 2225 4075 C 2307.84375 4075 2375 4007.84375 2375 3925 M 3925 3925 C 3925 3842.15625 3857.84375 3775 3775 3775 C 3692.15625 3775 3625 3842.15625 3625 3925 C 3625 4007.84375 3692.15625 4075 3775 4075 C 3857.84375 4075 3925 4007.84375 3925 3925 M 2075 4350 L 2375 4350 L 2375 4625 C 2375 4666.421875 2341.421875 4700 2300 4700 L 2150 4700 C 2108.578125 4700 2075 4666.421875 2075 4625 L 2075 4350 M 3625 4350 L 3925 4350 L 3925 4625 C 3925 4666.421875 3891.421875 4700 3850 4700 L 3700 4700 C 3658.578125 4700 3625 4666.421875 3625 4625 L 3625 4350 "/>
</g>
</svg>
