<?xml version="1.0" encoding="UTF-8"?>
<svg xmlns="http://www.w3.org/2000/svg" xmlns:xlink="http://www.w3.org/1999/xlink" width="600.000000mm" height="600.000000mm" viewBox="0 0 6000 6000" version="1.1">
<g id="surface216">
<path style="fill-rule:evenodd;fill:rgb(94.509804%,94.117647%,91.764706%);fill-opacity:1;stroke-width:0.3;stroke-linecap:butt;stroke-linejoin:miter;stroke:rgb(16.470588%,16.078431%,16.470588%);stroke-opacity:1;stroke-miterlimit:3;" d="M 300 0 C 300 79.564844 268.392969 155.871094 212.132031 212.132031 C 155.871094 268.392969 79.564844 300 0 300 C -79.564844 300 -155.871094 268.392969 -212.132031 212.132031 C -268.392969 155.871094 -300 79.564844 -300 0 C -300 -79.564844 -268.392969 -155.871094 -212.132031 -212.132031 C -155.871094 -268.392969 -79.564844 -300 0 -300 C 79.564844 -300 155.871094 -268.392969 212.132031 -212.132031 C 268.392969 -155.871094 300 -79.564844 300 0 " transform="matrix(10,0,0,-10,3000,3000)"/>
<path style=" stroke:none;fill-rule:evenodd;fill:rgb(73.333333%,11.764706%,6.27451%);fill-opacity:1;" d="M 5850 3000 C 5850 2244.132812 5549.734375 1519.222656 5015.253906 984.746094 C 4480.777344 450.265625 3755.867188 150 3000 150 C 2244.132812 150 1519.222656 450.265625 984.746094 984.746094 C 450.265625 1519.222656 150 2244.132812 150 3000 C 150 3755.867188 450.265625 4480.777344 984.746094 5015.253906 C 1519.222656 5549.734375 2244.132812 5850 3000 5850 C 3755.867188 5850 4480.777344 5549.734375 5015.253906 5015.253906 C 5549.734375 4480.777344 5850 3755.867188 5850 3000 M 5100 3000 C 5100 2443.046875 4878.75 1908.902344 4484.925781 1515.074219 C 4091.097656 1121.25 3556.953125 900 3000 900 C 2443.046875 900 1908.902344 1121.25 1515.074219 1515.074219 C 1121.25 1908.902344 900 2443.046875 900 3000 C 900 3556.953125 1121.25 4091.097656 1515.074219 4484.925781 C 1908.902344 4878.75 2443.046875 5100 3000 5100 C 3556.953125 5100 4091.097656 4878.75 4484.925781 4484.925781 C 4878.75 4091.097656 5100 3556.953125 5100 3000 "/>
<path style=" stroke:none;fill-rule:evenodd;fill:rgb(16.470588%,16.078431%,16.470588%);fill-opacity:1;" d="M 3069 3305.597656 L 2417.386719 4505.695312 C 2369.101562 4594.625 2276.023438 4650 2174.832031 4650 C 2128.832031 4650 2083.5625 4638.503906 2043.136719 4616.554688 L 2776.277344 3266.300781 C 2787.25 3246.085938 2793 3223.449219 2793 3200.449219 L 2793 3166.5 L 3345 3166.5 L 3345 3200.449219 C 3345 3223.449219 3350.75 3246.085938 3361.722656 3266.300781 L 3909.8125 4275.75 C 3931.761719 4316.175781 3943.257812 4361.445312 3943.257812 4407.445312 C 3943.257812 4508.636719 3887.882812 4601.714844 3798.953125 4650 L 3069 3305.597656 M 3345 2296.980469 L 3345 3097.5 L 2793 3097.5 L 2793 2435.46875 L 2434.488281 2987.53125 C 2389.949219 3056.113281 2313.726562 3097.5 2231.949219 3097.5 C 2185.261719 3097.5 2139.574219 3083.96875 2100.417969 3058.539062 L 2779.660156 2012.597656 C 2843.285156 1914.621094 2952.175781 1855.5 3069 1855.5 C 3150.109375 1855.5 3228.628906 1884.078125 3290.761719 1936.214844 L 3754.058594 2324.964844 C 3800.929688 2364.292969 3828 2422.347656 3828 2483.535156 L 3828 2821.5 C 3828 2954.875 3719.875 3063 3586.5 3063 L 3586.5 2499.625 L 3345 2296.980469 M 3207 1476 C 3207 1323.570312 3083.429688 1200 2931 1200 C 2778.570312 1200 2655 1323.570312 2655 1476 C 2655 1628.429688 2778.570312 1752 2931 1752 C 3083.429688 1752 3207 1628.429688 3207 1476 "/>
</g>
</svg>
