<?xml version="1.0" encoding="UTF-8"?>
<svg xmlns="http://www.w3.org/2000/svg" xmlns:xlink="http://www.w3.org/1999/xlink" width="600.000000mm" height="600.000000mm" viewBox="0 0 6000 6000" version="1.1">
<g id="surface231">
<path style="fill-rule:evenodd;fill:rgb(94.509804%,94.117647%,91.764706%);fill-opacity:1;stroke-width:0.3;stroke-linecap:butt;stroke-linejoin:miter;stroke:rgb(16.470588%,16.078431%,16.470588%);stroke-opacity:1;stroke-miterlimit:3;" d="M 300 0 C 300 79.564844 268.392969 155.871094 212.132031 212.132031 C 155.871094 268.392969 79.564844 300 0 300 C -79.564844 300 -155.871094 268.392969 -212.132031 212.132031 C -268.392969 155.871094 -300 79.564844 -300 0 C -300 -79.564844 -268.392969 -155.871094 -212.132031 -212.132031 C -155.871094 -268.392969 -79.564844 -300 0 -300 C 79.564844 -300 155.871094 -268.392969 212.132031 -212.132031 C 268.392969 -155.871094 300 -79.564844 300 0 " transform="matrix(10,0,0,-10,3000,3000)"/>
<path style=" stroke:none;fill-rule:evenodd;fill:rgb(73.333333%,11.764706%,6.27451%);fill-opacity:1;" d="M 5850 3000 C 5850 2244.132812 5549.734375 1519.222656 5015.253906 984.746094 C 4480.777344 450.265625 3755.867188 150 3000 150 C 2244.132812 150 1519.222656 450.265625 984.746094 984.746094 C 450.265625 1519.222656 150 2244.132812 150 3000 C 150 3755.867188 450.265625 4480.777344 984.746094 5015.253906 C 1519.222656 5549.734375 2244.132812 5850 3000 5850 C 3755.867188 5850 4480.777344 5549.734375 5015.253906 5015.253906 C 5549.734375 4480.777344 5850 3755.867188 5850 3000 M 5100 3000 C 5100 2443.046875 4878.75 1908.902344 4484.925781 1515.074219 C 4091.097656 1121.25 3556.953125 900 3000 900 C 2443.046875 900 1908.902344 1121.25 1515.074219 1515.074219 C 1121.25 1908.902344 900 2443.046875 900 3000 C 900 3556.953125 1121.25 4091.097656 1515.074219 4484.925781 C 1908.902344 4878.75 2443.046875 5100 3000 5100 C 3556.953125 5100 4091.097656 4878.75 4484.925781 4484.925781 C 4878.75 4091.097656 5100 3556.953125 5100 3000 "/>
<path style=" stroke:none;fill-rule:evenodd;fill:rgb(16.470588%,16.078431%,16.470588%);fill-opacity:1;" d="M 4560 3195 L 4560 2285 L 1914.5 2285 L 1914.5 3195 L 4560 3195 M 2675 3260 L 3726.152344 3260 C 3657.433594 3315.53125 3617.5 3399.148438 3617.5 3487.5 L 2580.75 3487.5 C 2580.75 3399.148438 2540.816406 3315.53125 2472.097656 3260 L 2675 3260 M 4137.5 3487.5 C 4137.5 3361.855469 4035.644531 3260 3910 3260 C 3784.355469 3260 3682.5 3361.855469 3682.5 3487.5 C 3682.5 3613.144531 3784.355469 3715 3910 3715 C 4035.644531 3715 4137.5 3613.144531 4137.5 3487.5 M 2515.75 3487.5 C 2515.75 3361.855469 2413.894531 3260 2288.25 3260 C 2162.605469 3260 2060.75 3361.855469 2060.75 3487.5 C 2060.75 3613.144531 2162.605469 3715 2288.25 3715 C 2413.894531 3715 2515.75 3613.144531 2515.75 3487.5 M 4365 3487.5 L 4560 3422.5 L 4560 3260 L 4093.847656 3260 C 4162.566406 3315.53125 4202.5 3399.148438 4202.5 3487.5 L 4365 3487.5 M 1914.5 3487.5 L 1180 3487.5 L 1180 3411.664062 L 1914.5 3260 L 2104.402344 3260 C 2035.683594 3315.53125 1995.75 3399.148438 1995.75 3487.5 L 1914.5 3487.5 M 1914.5 3411.664062 L 1547.25 3411.664062 L 1914.5 3335.835938 L 1914.5 3411.664062 "/>
</g>
</svg>
