<?xml version="1.0" encoding="UTF-8"?>
<svg xmlns="http://www.w3.org/2000/svg" xmlns:xlink="http://www.w3.org/1999/xlink" width="600.000000mm" height="600.000000mm" viewBox="0 0 6000 6000" version="1.1">
<g id="surface196">
<path style="fill-rule:evenodd;fill:rgb(94.509804%,94.117647%,91.764706%);fill-opacity:1;stroke-width:0.3;stroke-linecap:butt;stroke-linejoin:miter;stroke:rgb(16.470588%,16.078431%,16.470588%);stroke-opacity:1;stroke-miterlimit:3;" d="M 300 0 C 300 79.564844 268.392969 155.871094 212.132031 212.132031 C 155.871094 268.392969 79.564844 300 0 300 C -79.564844 300 -155.871094 268.392969 -212.132031 212.132031 C -268.392969 155.871094 -300 79.564844 -300 0 C -300 -79.564844 -268.392969 -155.871094 -212.132031 -212.132031 C -155.871094 -268.392969 -79.564844 -300 0 -300 C 79.564844 -300 155.871094 -268.392969 212.132031 -212.132031 C 268.392969 -155.871094 300 -79.564844 300 0 " transform="matrix(10,0,0,-10,3000,3000)"/>
<path style=" stroke:none;fill-rule:evenodd;fill:rgb(73.333333%,11.764706%,6.27451%);fill-opacity:1;" d="M 5850 3000 C 5850 2244.132812 5549.734375 1519.222656 5015.253906 984.746094 C 4480.777344 450.265625 3755.867188 150 3000 150 C 2244.132812 150 1519.222656 450.265625 984.746094 984.746094 C 450.265625 1519.222656 150 2244.132812 150 3000 C 150 3755.867188 450.265625 4480.777344 984.746094 5015.253906 C 1519.222656 5549.734375 2244.132812 5850 3000 5850 C 3755.867188 5850 4480.777344 5549.734375 5015.253906 5015.253906 C 5549.734375 4480.777344 5850 3755.867188 5850 3000 M 5100 3000 C 5100 2443.046875 4878.75 1908.902344 4484.925781 1515.074219 C 4091.097656 1121.25 3556.953125 900 3000 900 C 2443.046875 900 1908.902344 1121.25 1515.074219 1515.074219 C 1121.25 1908.902344 900 2443.046875 900 3000 C 900 3556.953125 1121.25 4091.097656 1515.074219 4484.925781 C 1908.902344 4878.75 2443.046875 5100 3000 5100 C 3556.953125 5100 4091.097656 4878.75 4484.925781 4484.925781 C 4878.75 4091.097656 5100 3556.953125 5100 3000 "/>
<path style=" stroke:none;fill-rule:evenodd;fill:rgb(16.470588%,16.078431%,16.470588%);fill-opacity:1;" d="M 4380 1740 L 3353.3125 1740 C 3235.988281 1740 3135.863281 1824.820312 3116.578125 1940.542969 L 3000 2640 L 1500 2640 C 1433.726562 2640 1380 2693.726562 1380 2760 C 1380 2766.179688 1380.476562 2772.355469 1381.429688 2778.460938 L 1500 3540 L 1605.300781 3540 C 1696.394531 3426.222656 1834.25 3360 1980 3360 C 2125.75 3360 2263.605469 3426.222656 2354.699219 3540 L 3000 3540 C 3000 3333.132812 3082.179688 3134.734375 3228.457031 2988.457031 C 3374.734375 2842.179688 3573.132812 2760 3780 2760 C 4011.917969 2760 4231.808594 2863.203125 4380 3041.601562 L 4380 1740 M 4080 1920 L 3320.828125 1920 C 3291.5 1920 3266.46875 1941.203125 3261.644531 1970.136719 L 3150 2640 L 4080 2640 L 4080 1920 M 4500 3540 C 4500 3349.042969 4424.144531 3165.910156 4289.117188 3030.882812 C 4154.089844 2895.855469 3970.957031 2820 3780 2820 C 3589.042969 2820 3405.910156 2895.855469 3270.882812 3030.882812 C 3135.855469 3165.910156 3060 3349.042969 3060 3540 C 3060 3730.957031 3135.855469 3914.089844 3270.882812 4049.117188 C 3405.910156 4184.144531 3589.042969 4260 3780 4260 C 3970.957031 4260 4154.089844 4184.144531 4289.117188 4049.117188 C 4424.144531 3914.089844 4500 3730.957031 4500 3540 M 4140 3540 C 4140 3341.175781 3978.824219 3180 3780 3180 C 3581.175781 3180 3420 3341.175781 3420 3540 C 3420 3738.824219 3581.175781 3900 3780 3900 C 3978.824219 3900 4140 3738.824219 4140 3540 M 2400 3840 C 2400 3728.609375 2355.75 3621.78125 2276.984375 3543.015625 C 2198.21875 3464.25 2091.390625 3420 1980 3420 C 1868.609375 3420 1761.78125 3464.25 1683.015625 3543.015625 C 1604.25 3621.78125 1560 3728.609375 1560 3840 C 1560 3951.390625 1604.25 4058.21875 1683.015625 4136.984375 C 1761.78125 4215.75 1868.609375 4260 1980 4260 C 2091.390625 4260 2198.21875 4215.75 2276.984375 4136.984375 C 2355.75 4058.21875 2400 3951.390625 2400 3840 M 2190 3840 C 2190 3724.019531 2095.980469 3630 1980 3630 C 1864.019531 3630 1770 3724.019531 1770 3840 C 1770 3955.980469 1864.019531 4050 1980 4050 C 2095.980469 4050 2190 3955.980469 2190 3840 "/>
</g>
</svg>
