<?xml version="1.0" encoding="UTF-8"?>
<svg xmlns="http://www.w3.org/2000/svg" xmlns:xlink="http://www.w3.org/1999/xlink" width="600.000000mm" height="600.000000mm" viewBox="0 0 6000 6000" version="1.1">
<g id="surface236">
<path style="fill-rule:evenodd;fill:rgb(94.509804%,94.117647%,91.764706%);fill-opacity:1;stroke-width:0.3;stroke-linecap:butt;stroke-linejoin:miter;stroke:rgb(16.470588%,16.078431%,16.470588%);stroke-opacity:1;stroke-miterlimit:3;" d="M 300 0 C 300 79.564844 268.392969 155.871094 212.132031 212.132031 C 155.871094 268.392969 79.564844 300 0 300 C -79.564844 300 -155.871094 268.392969 -212.132031 212.132031 C -268.392969 155.871094 -300 79.564844 -300 0 C -300 -79.564844 -268.392969 -155.871094 -212.132031 -212.132031 C -155.871094 -268.392969 -79.564844 -300 0 -300 C 79.564844 -300 155.871094 -268.392969 212.132031 -212.132031 C 268.392969 -155.871094 300 -79.564844 300 0 " transform="matrix(10,0,0,-10,3000,3000)"/>
<path style=" stroke:none;fill-rule:evenodd;fill:rgb(73.333333%,11.764706%,6.27451%);fill-opacity:1;" d="M 5850 3000 C 5850 2244.132812 5549.734375 1519.222656 5015.253906 984.746094 C 4480.777344 450.265625 3755.867188 150 3000 150 C 2244.132812 150 1519.222656 450.265625 984.746094 984.746094 C 450.265625 1519.222656 150 2244.132812 150 3000 C 150 3755.867188 450.265625 4480.777344 984.746094 5015.253906 C 1519.222656 5549.734375 2244.132812 5850 3000 5850 C 3755.867188 5850 4480.777344 5549.734375 5015.253906 5015.253906 C 5549.734375 4480.777344 5850 3755.867188 5850 3000 M 5100 3000 C 5100 2443.046875 4878.75 1908.902344 4484.925781 1515.074219 C 4091.097656 1121.25 3556.953125 900 3000 900 C 2443.046875 900 1908.902344 1121.25 1515.074219 1515.074219 C 1121.25 1908.902344 900 2443.046875 900 3000 C 900 3556.953125 1121.25 4091.097656 1515.074219 4484.925781 C 1908.902344 4878.75 2443.046875 5100 3000 5100 C 3556.953125 5100 4091.097656 4878.75 4484.925781 4484.925781 C 4878.75 4091.097656 5100 3556.953125 5100 3000 "/>
<path style=" stroke:none;fill-rule:evenodd;fill:rgb(16.470588%,16.078431%,16.470588%);fill-opacity:1;" d="M 2220 3780 C 2220 3636.40625 2103.59375 3520 1960 3520 C 1816.40625 3520 1700 3636.40625 1700 3780 C 1700 3923.59375 1816.40625 4040 1960 4040 C 2103.59375 4040 2220 3923.59375 2220 3780 M 4105 3780 C 4105 3636.40625 3988.59375 3520 3845 3520 C 3701.40625 3520 3585 3636.40625 3585 3780 C 3585 3923.59375 3701.40625 4040 3845 4040 C 3988.59375 4040 4105 3923.59375 4105 3780 M 4690 3650 L 4300 3780 L 4170 3780 C 4170 3600.507812 4024.492188 3455 3845 3455 C 3665.507812 3455 3520 3600.507812 3520 3780 L 2285 3780 C 2285 3600.507812 2139.492188 3455 1960 3455 C 1780.507812 3455 1635 3600.507812 1635 3780 L 1375 3780 C 1339.101562 3780 1310 3750.898438 1310 3715 L 1310 3344.398438 C 1310 3317.128906 1327.019531 3292.757812 1352.625 3283.371094 L 1661.101562 3170.261719 C 1686.40625 3160.984375 1708.203125 3144.070312 1723.472656 3121.859375 L 1962.914062 2773.582031 C 1977.683594 2752.09375 2000.449219 2737.421875 2026.117188 2732.835938 L 2350 2675 L 2350 2610 L 1480.386719 2610 C 1454.527344 2610 1429.726562 2599.726562 1411.441406 2581.441406 L 1329.039062 2499.035156 C 1316.847656 2486.847656 1310 2470.3125 1310 2453.074219 L 1310 2376.925781 C 1310 2359.6875 1316.847656 2343.152344 1329.039062 2330.964844 L 1675.4375 2106.375 C 1691.453125 2095.699219 1710.269531 2090 1729.519531 2090 L 3520 2090 L 3780 2220 L 4625 2220 C 4660.898438 2220 4690 2249.101562 4690 2285 L 4690 3650 M 2837.5 3650 C 2819.550781 3650 2805 3635.449219 2805 3617.5 L 2805 2642.5 C 2805 2624.550781 2819.550781 2610 2837.5 2610 L 3357.5 2610 C 3375.449219 2610 3390 2624.550781 3390 2642.5 L 3390 3617.5 C 3390 3635.449219 3375.449219 3650 3357.5 3650 L 2837.5 3650 M 3682.5 3000 C 3664.550781 3000 3650 2985.449219 3650 2967.5 L 3650 2642.5 C 3650 2624.550781 3664.550781 2610 3682.5 2610 L 4137.5 2610 C 4155.449219 2610 4170 2624.550781 4170 2642.5 L 4170 2967.5 C 4170 2985.449219 4155.449219 3000 4137.5 3000 L 3682.5 3000 M 1862.5 2480 C 1844.550781 2480 1830 2465.449219 1830 2447.5 L 1830 2252.5 C 1830 2234.550781 1844.550781 2220 1862.5 2220 L 2317.5 2220 C 2335.449219 2220 2350 2234.550781 2350 2252.5 L 2350 2447.5 C 2350 2465.449219 2335.449219 2480 2317.5 2480 L 1862.5 2480 M 2317.5 2792 C 2335.449219 2792 2350 2806.550781 2350 2824.5 L 2350 3124.910156 C 2350 3142.300781 2336.3125 3156.609375 2318.941406 3157.378906 L 1816.234375 3179.722656 C 1815.851562 3179.738281 1815.464844 3179.746094 1815.082031 3179.746094 C 1800.722656 3179.746094 1789.082031 3168.105469 1789.082031 3153.746094 C 1789.082031 3148.613281 1790.601562 3143.597656 1793.449219 3139.324219 L 2005.703125 2820.945312 C 2017.761719 2802.863281 2038.054688 2792 2059.789062 2792 L 2317.5 2792 "/>
</g>
</svg>
