<?xml version="1.0" encoding="UTF-8"?>
<svg xmlns="http://www.w3.org/2000/svg" xmlns:xlink="http://www.w3.org/1999/xlink" width="600.000000mm" height="600.000000mm" viewBox="0 0 6000 6000" version="1.1">
<g id="surface211">
<path style="fill-rule:evenodd;fill:rgb(94.509804%,94.117647%,91.764706%);fill-opacity:1;stroke-width:0.3;stroke-linecap:butt;stroke-linejoin:miter;stroke:rgb(16.470588%,16.078431%,16.470588%);stroke-opacity:1;stroke-miterlimit:3;" d="M 300 0 C 300 79.564844 268.392969 155.871094 212.132031 212.132031 C 155.871094 268.392969 79.564844 300 0 300 C -79.564844 300 -155.871094 268.392969 -212.132031 212.132031 C -268.392969 155.871094 -300 79.564844 -300 0 C -300 -79.564844 -268.392969 -155.871094 -212.132031 -212.132031 C -155.871094 -268.392969 -79.564844 -300 0 -300 C 79.564844 -300 155.871094 -268.392969 212.132031 -212.132031 C 268.392969 -155.871094 300 -79.564844 300 0 " transform="matrix(10,0,0,-10,3000,3000)"/>
<path style=" stroke:none;fill-rule:evenodd;fill:rgb(73.333333%,11.764706%,6.27451%);fill-opacity:1;" d="M 5850 3000 C 5850 2244.132812 5549.734375 1519.222656 5015.253906 984.746094 C 4480.777344 450.265625 3755.867188 150 3000 150 C 2244.132812 150 1519.222656 450.265625 984.746094 984.746094 C 450.265625 1519.222656 150 2244.132812 150 3000 C 150 3755.867188 450.265625 4480.777344 984.746094 5015.253906 C 1519.222656 5549.734375 2244.132812 5850 3000 5850 C 3755.867188 5850 4480.777344 5549.734375 5015.253906 5015.253906 C 5549.734375 4480.777344 5850 3755.867188 5850 3000 M 5100 3000 C 5100 2443.046875 4878.75 1908.902344 4484.925781 1515.074219 C 4091.097656 1121.25 3556.953125 900 3000 900 C 2443.046875 900 1908.902344 1121.25 1515.074219 1515.074219 C 1121.25 1908.902344 900 2443.046875 900 3000 C 900 3556.953125 1121.25 4091.097656 1515.074219 4484.925781 C 1908.902344 4878.75 2443.046875 5100 3000 5100 C 3556.953125 5100 4091.097656 4878.75 4484.925781 4484.925781 C 4878.75 4091.097656 5100 3556.953125 5100 3000 "/>
<path style=" stroke:none;fill-rule:evenodd;fill:rgb(16.470588%,16.078431%,16.470588%);fill-opacity:1;" d="M 2805 1920 L 2591.332031 1920 C 2477.355469 1920 2376.667969 1994.234375 2342.960938 2103.109375 L 2154.164062 2712.964844 C 2111.652344 2704.34375 2068.378906 2700 2025 2700 C 1852.609375 2700 1687.277344 2768.480469 1565.378906 2890.378906 C 1443.480469 3012.277344 1375 3177.609375 1375 3350 C 1375 3522.390625 1443.480469 3687.722656 1565.378906 3809.621094 C 1687.277344 3931.519531 1852.609375 4000 2025 4000 C 2197.390625 4000 2362.722656 3931.519531 2484.621094 3809.621094 C 2606.519531 3687.722656 2675 3522.390625 2675 3350 C 2675 3222.292969 2637.378906 3097.414062 2566.839844 2990.957031 C 2496.296875 2884.503906 2395.957031 2801.183594 2278.351562 2751.40625 L 2349.46875 2521.6875 L 2957.226562 3422.695312 C 2981.390625 3458.523438 3021.78125 3480 3065 3480 L 3338.132812 3480 C 3368.097656 3626.796875 3447.851562 3758.730469 3563.902344 3853.488281 C 3679.957031 3948.242188 3825.179688 4000 3975 4000 C 4147.390625 4000 4312.722656 3931.519531 4434.621094 3809.621094 C 4556.519531 3687.722656 4625 3522.390625 4625 3350 C 4625 3177.609375 4556.519531 3012.277344 4434.621094 2890.378906 C 4312.722656 2768.480469 4147.390625 2700 3975 2700 C 3906.582031 2700 3838.59375 2710.800781 3773.542969 2732.007812 L 3585 2310 L 3633.75 2180 L 3780 2180 L 3780 2050 L 3227.5 2050 C 3209.550781 2050 3195 2064.550781 3195 2082.5 C 3195 2097.53125 3205.308594 2110.601562 3219.925781 2114.105469 L 3494.910156 2180 L 3446.160156 2310 L 2415 2310 L 2467.148438 2141.554688 C 2484 2087.117188 2534.34375 2050 2591.332031 2050 L 2805 2050 L 2805 1920 M 2449.628906 2440 L 3058.757812 3343.074219 L 3397.410156 2440 L 2449.628906 2440 M 2115.476562 2837.933594 C 2085.609375 2832.652344 2055.332031 2830 2025 2830 C 1887.085938 2830 1754.824219 2884.785156 1657.304688 2982.304688 C 1559.785156 3079.824219 1505 3212.085938 1505 3350 C 1505 3487.914062 1559.785156 3620.175781 1657.304688 3717.695312 C 1754.824219 3815.214844 1887.085938 3870 2025 3870 C 2162.914062 3870 2295.175781 3815.214844 2392.695312 3717.695312 C 2490.214844 3620.175781 2545 3487.914062 2545 3350 C 2545 3250.0625 2516.199219 3152.238281 2462.050781 3068.242188 C 2407.898438 2984.246094 2330.691406 2917.632812 2239.664062 2876.375 L 2087.09375 3369.222656 C 2078.667969 3396.441406 2053.492188 3415 2025 3415 C 1989.101562 3415 1960 3385.898438 1960 3350 C 1960 3343.484375 1960.980469 3337.003906 1962.90625 3330.777344 L 2115.480469 2837.933594 M 3455 3350 L 3907.265625 3350 L 3707.925781 2903.828125 C 3551.035156 2997.738281 3455 3167.152344 3455 3350 M 3471.511719 3480 C 3500.332031 3591.621094 3565.429688 3690.5 3656.566406 3761.097656 C 3747.703125 3831.691406 3859.71875 3870 3975 3870 C 4112.914062 3870 4245.175781 3815.214844 4342.695312 3717.695312 C 4440.214844 3620.175781 4495 3487.914062 4495 3350 C 4495 3212.085938 4440.214844 3079.824219 4342.695312 2982.304688 C 4245.175781 2884.785156 4112.914062 2830 3975 2830 C 3924.867188 2830 3875 2837.25 3826.941406 2851.523438 L 4066.847656 3388.484375 C 4070.574219 3396.828125 4072.5 3405.863281 4072.5 3415 C 4072.5 3450.898438 4043.398438 3480 4007.5 3480 L 3471.511719 3480 M 3195 3350 L 3325 3350 C 3325 3235.003906 3355.507812 3122.066406 3413.410156 3022.710938 C 3471.3125 2923.355469 3554.539062 2841.140625 3654.59375 2784.457031 L 3520.027344 2483.265625 L 3195 3350 "/>
</g>
</svg>
