<?xml version="1.0" encoding="UTF-8"?>
<svg xmlns="http://www.w3.org/2000/svg" xmlns:xlink="http://www.w3.org/1999/xlink" width="600.000000mm" height="600.000000mm" viewBox="0 0 6000 6000" version="1.1">
<g id="surface246">
<path style="fill-rule:evenodd;fill:rgb(94.509804%,94.117647%,91.764706%);fill-opacity:1;stroke-width:0.3;stroke-linecap:butt;stroke-linejoin:miter;stroke:rgb(16.470588%,16.078431%,16.470588%);stroke-opacity:1;stroke-miterlimit:3;" d="M 300 0 C 300 79.564844 268.392969 155.871094 212.132031 212.132031 C 155.871094 268.392969 79.564844 300 0 300 C -79.564844 300 -155.871094 268.392969 -212.132031 212.132031 C -268.392969 155.871094 -300 79.564844 -300 0 C -300 -79.564844 -268.392969 -155.871094 -212.132031 -212.132031 C -155.871094 -268.392969 -79.564844 -300 0 -300 C 79.564844 -300 155.871094 -268.392969 212.132031 -212.132031 C 268.392969 -155.871094 300 -79.564844 300 0 " transform="matrix(10,0,0,-10,3000,3000)"/>
<path style=" stroke:none;fill-rule:evenodd;fill:rgb(73.333333%,11.764706%,6.27451%);fill-opacity:1;" d="M 5850 3000 C 5850 2244.132812 5549.734375 1519.222656 5015.253906 984.746094 C 4480.777344 450.265625 3755.867188 150 3000 150 C 2244.132812 150 1519.222656 450.265625 984.746094 984.746094 C 450.265625 1519.222656 150 2244.132812 150 3000 C 150 3755.867188 450.265625 4480.777344 984.746094 5015.253906 C 1519.222656 5549.734375 2244.132812 5850 3000 5850 C 3755.867188 5850 4480.777344 5549.734375 5015.253906 5015.253906 C 5549.734375 4480.777344 5850 3755.867188 5850 3000 M 5100 3000 C 5100 2443.046875 4878.75 1908.902344 4484.925781 1515.074219 C 4091.097656 1121.25 3556.953125 900 3000 900 C 2443.046875 900 1908.902344 1121.25 1515.074219 1515.074219 C 1121.25 1908.902344 900 2443.046875 900 3000 C 900 3556.953125 1121.25 4091.097656 1515.074219 4484.925781 C 1908.902344 4878.75 2443.046875 5100 3000 5100 C 3556.953125 5100 4091.097656 4878.75 4484.925781 4484.925781 C 4878.75 4091.097656 5100 3556.953125 5100 3000 "/>
<path style=" stroke:none;fill-rule:evenodd;fill:rgb(16.470588%,16.078431%,16.470588%);fill-opacity:1;" d="M 2700 4450 C 2700 4394.773438 2655.226562 4350 2600 4350 C 2544.773438 4350 2500 4394.773438 2500 4450 C 2500 4505.226562 2544.773438 4550 2600 4550 C 2655.226562 4550 2700 4505.226562 2700 4450 M 2950 4450 C 2950 4394.773438 2905.226562 4350 2850 4350 C 2794.773438 4350 2750 4394.773438 2750 4450 C 2750 4505.226562 2794.773438 4550 2850 4550 C 2905.226562 4550 2950 4505.226562 2950 4450 M 3200 4450 C 3200 4394.773438 3155.226562 4350 3100 4350 C 3044.773438 4350 3000 4394.773438 3000 4450 C 3000 4505.226562 3044.773438 4550 3100 4550 C 3155.226562 4550 3200 4505.226562 3200 4450 M 2537.5 4312.5 C 2516.789062 4312.5 2500 4284.519531 2500 4250 C 2500 4215.480469 2516.789062 4187.5 2537.5 4187.5 L 3162.5 4187.5 C 3183.210938 4187.5 3200 4215.480469 3200 4250 C 3200 4284.519531 3183.210938 4312.5 3162.5 4312.5 L 2537.5 4312.5 M 3555.714844 4324.441406 C 3540.195312 4287.160156 3503.777344 4262.871094 3463.394531 4262.871094 C 3408.167969 4262.871094 3363.394531 4307.640625 3363.394531 4362.871094 C 3363.394531 4418.097656 3408.167969 4462.871094 3463.394531 4462.871094 C 3518.625 4462.871094 3563.394531 4418.097656 3563.394531 4362.871094 C 3563.394531 4349.679688 3560.785156 4336.617188 3555.714844 4324.441406 M 3786.519531 4228.367188 C 3771 4191.082031 3734.582031 4166.796875 3694.199219 4166.796875 C 3638.96875 4166.796875 3594.199219 4211.566406 3594.199219 4266.796875 C 3594.199219 4322.023438 3638.96875 4366.796875 3694.199219 4366.796875 C 3749.425781 4366.796875 3794.199219 4322.023438 3794.199219 4266.796875 C 3794.199219 4253.605469 3791.589844 4240.542969 3786.519531 4228.367188 M 4017.320312 4132.289062 C 4001.800781 4095.007812 3965.382812 4070.71875 3925 4070.71875 C 3869.773438 4070.71875 3825 4115.492188 3825 4170.71875 C 3825 4225.949219 3869.773438 4270.71875 3925 4270.71875 C 3980.226562 4270.71875 4025 4225.949219 4025 4170.71875 C 4025 4157.527344 4022.390625 4144.46875 4017.320312 4132.289062 M 3352.851562 4259.945312 C 3333.734375 4267.90625 3307.480469 4248.523438 3294.214844 4216.65625 C 3280.949219 4184.789062 3285.695312 4152.503906 3304.816406 4144.542969 L 3881.824219 3904.359375 L 3881.820312 3904.359375 C 3900.941406 3896.398438 3927.195312 3915.78125 3940.460938 3947.648438 C 3953.726562 3979.515625 3948.980469 4011.800781 3929.859375 4019.761719 L 3352.851562 4259.945312 M 2725 1687.5 C 2725 1556.332031 2618.667969 1450 2487.5 1450 C 2356.332031 1450 2250 1556.332031 2250 1687.5 C 2250 1818.667969 2356.332031 1925 2487.5 1925 C 2618.667969 1925 2725 1818.667969 2725 1687.5 M 2857.191406 4054.335938 L 2701.898438 3474.78125 C 2696.242188 3453.679688 2693.378906 3431.925781 2693.378906 3410.078125 C 2693.378906 3340.742188 2722.171875 3274.523438 2772.878906 3227.238281 L 3377.4375 2663.484375 L 3444.191406 2780.191406 C 3466.136719 2818.195312 3477.6875 2861.304688 3477.6875 2905.191406 C 3477.6875 2974.523438 3448.894531 3040.742188 3398.1875 3088.027344 L 3358.808594 3125.230469 L 3457.191406 3492.398438 L 3660.394531 3759.222656 C 3678.636719 3783.171875 3688.515625 3812.445312 3688.515625 3842.546875 C 3688.515625 3918.488281 3626.953125 3980.046875 3551.015625 3980.046875 C 3508.097656 3980.046875 3467.644531 3960.011719 3441.636719 3925.871094 L 3238.4375 3659.042969 C 3216.75 3630.574219 3200.828125 3598.144531 3191.5625 3563.570312 L 3131.023438 3337.644531 L 2986.070312 3472.816406 L 3122.820312 3983.164062 C 3125.929688 3994.769531 3127.503906 4006.734375 3127.503906 4018.75 C 3127.503906 4094.6875 3065.945312 4156.25 2990.003906 4156.25 C 2927.773438 4156.25 2873.296875 4114.449219 2857.191406 4054.335938 M 2990.300781 2923.828125 L 2861.34375 2717.453125 L 2439.226562 3111.445312 C 2418.398438 3130.867188 2390.976562 3141.667969 2362.5 3141.667969 C 2300.367188 3141.667969 2250 3091.300781 2250 3029.167969 C 2250 2997.96875 2262.957031 2968.167969 2285.773438 2946.890625 L 2619.429688 2635.75 L 2538.734375 2184.410156 C 2536.6875 2171.476562 2535.65625 2158.398438 2535.65625 2145.304688 C 2535.65625 2007.230469 2647.585938 1895.304688 2785.65625 1895.304688 C 2816.851562 1895.304688 2847.769531 1901.140625 2876.8125 1912.515625 L 3438.875 2174.480469 C 3458.039062 2181.984375 3470.644531 2200.460938 3470.644531 2221.039062 C 3470.644531 2227.546875 3469.375 2233.992188 3466.902344 2240.015625 L 3337.691406 2599.875 L 2990.300781 2923.828125 M 3126.015625 2280.570312 L 3252.785156 2315.636719 L 3219.765625 2442.953125 L 3126.015625 2280.570312 "/>
</g>
</svg>
