<?xml version="1.0" encoding="UTF-8"?>
<svg xmlns="http://www.w3.org/2000/svg" xmlns:xlink="http://www.w3.org/1999/xlink" width="600.000000mm" height="600.000000mm" viewBox="0 0 6000 6000" version="1.1">
<g id="surface186">
<path style="fill-rule:evenodd;fill:rgb(94.509804%,94.117647%,91.764706%);fill-opacity:1;stroke-width:0.3;stroke-linecap:butt;stroke-linejoin:miter;stroke:rgb(16.470588%,16.078431%,16.470588%);stroke-opacity:1;stroke-miterlimit:3;" d="M 300 0 C 300 79.564844 268.392969 155.871094 212.132031 212.132031 C 155.871094 268.392969 79.564844 300 0 300 C -79.564844 300 -155.871094 268.392969 -212.132031 212.132031 C -268.392969 155.871094 -300 79.564844 -300 0 C -300 -79.564844 -268.392969 -155.871094 -212.132031 -212.132031 C -155.871094 -268.392969 -79.564844 -300 0 -300 C 79.564844 -300 155.871094 -268.392969 212.132031 -212.132031 C 268.392969 -155.871094 300 -79.564844 300 0 " transform="matrix(10,0,0,-10,3000,3000)"/>
<path style=" stroke:none;fill-rule:evenodd;fill:rgb(73.333333%,11.764706%,6.27451%);fill-opacity:1;" d="M 5850 3000 C 5850 2244.132812 5549.734375 1519.222656 5015.253906 984.746094 C 4480.777344 450.265625 3755.867188 150 3000 150 C 2244.132812 150 1519.222656 450.265625 984.746094 984.746094 C 450.265625 1519.222656 150 2244.132812 150 3000 C 150 3755.867188 450.265625 4480.777344 984.746094 5015.253906 C 1519.222656 5549.734375 2244.132812 5850 3000 5850 C 3755.867188 5850 4480.777344 5549.734375 5015.253906 5015.253906 C 5549.734375 4480.777344 5850 3755.867188 5850 3000 M 5100 3000 C 5100 2443.046875 4878.75 1908.902344 4484.925781 1515.074219 C 4091.097656 1121.25 3556.953125 900 3000 900 C 2443.046875 900 1908.902344 1121.25 1515.074219 1515.074219 C 1121.25 1908.902344 900 2443.046875 900 3000 C 900 3556.953125 1121.25 4091.097656 1515.074219 4484.925781 C 1908.902344 4878.75 2443.046875 5100 3000 5100 C 3556.953125 5100 4091.097656 4878.75 4484.925781 4484.925781 C 4878.75 4091.097656 5100 3556.953125 5100 3000 "/>
<path style=" stroke:none;fill-rule:evenodd;fill:rgb(16.470588%,16.078431%,16.470588%);fill-opacity:1;" d="M 2200 2480 L 1506.757812 2523.328125 C 1475.292969 2525.292969 1447.914062 2545.558594 1436.84375 2575.082031 L 1260.375 3045.667969 C 1246.902344 3081.59375 1240 3119.652344 1240 3158.027344 L 1240 3600 C 1240 3644.183594 1275.816406 3680 1320 3680 L 1360 3680 C 1360 3481.175781 1521.175781 3320 1720 3320 C 1918.824219 3320 2080 3481.175781 2080 3680 L 3520 3680 C 3520 3571.261719 3569.152344 3468.347656 3653.726562 3400 L 2200 3400 L 2200 2480 M 1920 3020 L 1920 2620 L 1515.78125 2645.261719 C 1500.046875 2646.246094 1486.355469 2656.378906 1480.820312 2671.140625 L 1346.734375 3028.71875 C 1345.046875 3033.207031 1344.1875 3037.964844 1344.1875 3042.761719 C 1344.1875 3064.851562 1362.09375 3082.761719 1384.1875 3082.761719 C 1385.746094 3082.761719 1387.308594 3082.671875 1388.859375 3082.488281 L 1920 3020 M 2000 3680 C 2000 3525.359375 1874.640625 3400 1720 3400 C 1565.359375 3400 1440 3525.359375 1440 3680 C 1440 3834.640625 1565.359375 3960 1720 3960 C 1874.640625 3960 2000 3834.640625 2000 3680 M 4160 3680 C 4160 3525.359375 4034.640625 3400 3880 3400 C 3725.359375 3400 3600 3525.359375 3600 3680 C 3600 3834.640625 3725.359375 3960 3880 3960 C 4034.640625 3960 4160 3834.640625 4160 3680 M 4440 3680 L 4680 3600 L 4680 3400 L 4106.273438 3400 C 4190.847656 3468.347656 4240 3571.261719 4240 3680 L 4440 3680 M 4680 3320 L 4680 2200 L 2360 2200 L 2360 3320 L 4680 3320 "/>
</g>
</svg>
