<?xml version="1.0" encoding="UTF-8"?>
<svg xmlns="http://www.w3.org/2000/svg" xmlns:xlink="http://www.w3.org/1999/xlink" width="600.000000mm" height="600.000000mm" viewBox="0 0 6000 6000" version="1.1">
<g id="surface241">
<path style="fill-rule:evenodd;fill:rgb(94.509804%,94.117647%,91.764706%);fill-opacity:1;stroke-width:0.3;stroke-linecap:butt;stroke-linejoin:miter;stroke:rgb(16.470588%,16.078431%,16.470588%);stroke-opacity:1;stroke-miterlimit:3;" d="M 300 0 C 300 79.564844 268.392969 155.871094 212.132031 212.132031 C 155.871094 268.392969 79.564844 300 0 300 C -79.564844 300 -155.871094 268.392969 -212.132031 212.132031 C -268.392969 155.871094 -300 79.564844 -300 0 C -300 -79.564844 -268.392969 -155.871094 -212.132031 -212.132031 C -155.871094 -268.392969 -79.564844 -300 0 -300 C 79.564844 -300 155.871094 -268.392969 212.132031 -212.132031 C 268.392969 -155.871094 300 -79.564844 300 0 " transform="matrix(10,0,0,-10,3000,3000)"/>
<path style=" stroke:none;fill-rule:evenodd;fill:rgb(73.333333%,11.764706%,6.27451%);fill-opacity:1;" d="M 5850 3000 C 5850 2244.132812 5549.734375 1519.222656 5015.253906 984.746094 C 4480.777344 450.265625 3755.867188 150 3000 150 C 2244.132812 150 1519.222656 450.265625 984.746094 984.746094 C 450.265625 1519.222656 150 2244.132812 150 3000 C 150 3755.867188 450.265625 4480.777344 984.746094 5015.253906 C 1519.222656 5549.734375 2244.132812 5850 3000 5850 C 3755.867188 5850 4480.777344 5549.734375 5015.253906 5015.253906 C 5549.734375 4480.777344 5850 3755.867188 5850 3000 M 5100 3000 C 5100 2443.046875 4878.75 1908.902344 4484.925781 1515.074219 C 4091.097656 1121.25 3556.953125 900 3000 900 C 2443.046875 900 1908.902344 1121.25 1515.074219 1515.074219 C 1121.25 1908.902344 900 2443.046875 900 3000 C 900 3556.953125 1121.25 4091.097656 1515.074219 4484.925781 C 1908.902344 4878.75 2443.046875 5100 3000 5100 C 3556.953125 5100 4091.097656 4878.75 4484.925781 4484.925781 C 4878.75 4091.097656 5100 3556.953125 5100 3000 "/>
<path style=" stroke:none;fill-rule:evenodd;fill:rgb(16.470588%,16.078431%,16.470588%);fill-opacity:1;" d="M 1440 3720 L 2880 3720 C 2880 3554.316406 3014.316406 3420 3180 3420 C 3345.683594 3420 3480 3554.316406 3480 3720 L 4260 3720 C 4289.171875 3720 4314.113281 3699.019531 4319.113281 3670.28125 L 4439.113281 2980.28125 C 4439.703125 2976.886719 4440 2973.445312 4440 2970 C 4440 2966.554688 4439.703125 2963.113281 4439.113281 2959.71875 L 4319.113281 2269.71875 C 4314.113281 2240.980469 4289.171875 2220 4260 2220 L 1980 2220 C 1950.828125 2220 1925.886719 2240.980469 1920.886719 2269.71875 L 1800.886719 2959.71875 C 1800.296875 2963.113281 1800 2966.554688 1800 2970 C 1800 2973.800781 1800.359375 2977.59375 1801.078125 2981.324219 L 1920 3600 L 1440 3600 L 1440 3720 M 3420 3720 C 3420 3587.453125 3312.546875 3480 3180 3480 C 3047.453125 3480 2940 3587.453125 2940 3720 C 2940 3852.546875 3047.453125 3960 3180 3960 C 3312.546875 3960 3420 3852.546875 3420 3720 M 2220 3600 C 2203.429688 3600 2190 3586.570312 2190 3570 L 2190 2490 C 2190 2473.429688 2203.429688 2460 2220 2460 L 2700 2460 C 2716.570312 2460 2730 2473.429688 2730 2490 L 2730 3570 C 2730 3586.570312 2716.570312 3600 2700 3600 L 2220 3600 M 3420 2850 C 3403.429688 2850 3390 2836.570312 3390 2820 L 3390 2490 C 3390 2473.429688 3403.429688 2460 3420 2460 L 4080 2460 C 4096.570312 2460 4110 2473.429688 4110 2490 L 4110 2820 C 4110 2836.570312 4096.570312 2850 4080 2850 L 3420 2850 "/>
</g>
</svg>
