<?xml version="1.0" encoding="UTF-8"?>
<svg xmlns="http://www.w3.org/2000/svg" xmlns:xlink="http://www.w3.org/1999/xlink" width="600.000000mm" height="600.000000mm" viewBox="0 0 6000 6000" version="1.1">
<g id="surface221">
<path style="fill-rule:evenodd;fill:rgb(94.509804%,94.117647%,91.764706%);fill-opacity:1;stroke-width:0.3;stroke-linecap:butt;stroke-linejoin:miter;stroke:rgb(16.470588%,16.078431%,16.470588%);stroke-opacity:1;stroke-miterlimit:3;" d="M 300 0 C 300 79.564844 268.392969 155.871094 212.132031 212.132031 C 155.871094 268.392969 79.564844 300 0 300 C -79.564844 300 -155.871094 268.392969 -212.132031 212.132031 C -268.392969 155.871094 -300 79.564844 -300 0 C -300 -79.564844 -268.392969 -155.871094 -212.132031 -212.132031 C -155.871094 -268.392969 -79.564844 -300 0 -300 C 79.564844 -300 155.871094 -268.392969 212.132031 -212.132031 C 268.392969 -155.871094 300 -79.564844 300 0 " transform="matrix(10,0,0,-10,3000,3000)"/>
<path style=" stroke:none;fill-rule:evenodd;fill:rgb(73.333333%,11.764706%,6.27451%);fill-opacity:1;" d="M 5850 3000 C 5850 2244.132812 5549.734375 1519.222656 5015.253906 984.746094 C 4480.777344 450.265625 3755.867188 150 3000 150 C 2244.132812 150 1519.222656 450.265625 984.746094 984.746094 C 450.265625 1519.222656 150 2244.132812 150 3000 C 150 3755.867188 450.265625 4480.777344 984.746094 5015.253906 C 1519.222656 5549.734375 2244.132812 5850 3000 5850 C 3755.867188 5850 4480.777344 5549.734375 5015.253906 5015.253906 C 5549.734375 4480.777344 5850 3755.867188 5850 3000 M 5100 3000 C 5100 2443.046875 4878.75 1908.902344 4484.925781 1515.074219 C 4091.097656 1121.25 3556.953125 900 3000 900 C 2443.046875 900 1908.902344 1121.25 1515.074219 1515.074219 C 1121.25 1908.902344 900 2443.046875 900 3000 C 900 3556.953125 1121.25 4091.097656 1515.074219 4484.925781 C 1908.902344 4878.75 2443.046875 5100 3000 5100 C 3556.953125 5100 4091.097656 4878.75 4484.925781 4484.925781 C 4878.75 4091.097656 5100 3556.953125 5100 3000 "/>
<path style=" stroke:none;fill-rule:evenodd;fill:rgb(16.470588%,16.078431%,16.470588%);fill-opacity:1;" d="M 1407.5 3560 L 1407.5 3192.5 L 1674.929688 3017.5 L 1660.921875 2985.136719 C 1643.824219 2945.632812 1635 2903.046875 1635 2860 C 1635 2827.867188 1639.917969 2795.921875 1649.578125 2765.277344 L 1547.5 2580 L 1302.5 2632.5 L 1250 2580 L 1460 2335 L 1460 2230 L 1530 2300 C 1649.039062 2300 1759.917969 2360.503906 1824.332031 2460.609375 L 1998.453125 2734.167969 C 2058.039062 2742.539062 2118.136719 2746.742188 2178.308594 2746.742188 C 2272.382812 2746.742188 2366.171875 2736.472656 2458.015625 2716.109375 L 2459.214844 2715.894531 C 2475.964844 2712.804688 2492.964844 2711.25 2510 2711.25 C 2565.136719 2711.25 2619.046875 2727.527344 2664.96875 2758.046875 L 2712.304688 2710.710938 C 2748.40625 2674.609375 2797.367188 2654.328125 2848.421875 2654.328125 C 2935.550781 2654.328125 3011.8125 2712.847656 3034.363281 2797.007812 L 3070 2930 L 2965 3000 L 2936.859375 2840.410156 C 2927.273438 2786.046875 2880.039062 2746.410156 2824.839844 2746.410156 C 2794.667969 2746.410156 2765.738281 2758.394531 2744.40625 2779.730469 L 2719.101562 2805.03125 C 2764.769531 2856.3125 2790 2922.582031 2790 2991.25 C 2790 3023.617188 2784.386719 3055.738281 2773.414062 3086.191406 L 2912.5 3315.945312 L 2860 3648.445312 L 2760.675781 3682.5 L 2813.175781 3350 L 2565.441406 3156.695312 L 2597.5 3402.5 L 2440 3700 L 2335 3700 L 2492.5 3402.5 L 2337.324219 3127.957031 C 2256.347656 3147.582031 2173.320312 3157.5 2090 3157.5 C 2010.863281 3157.5 1931.980469 3148.554688 1854.855469 3130.832031 L 2020 3612.5 L 2002.5 3700 L 1915 3700 L 1932.5 3612.5 L 1722.5 3127.386719 L 1495 3262.5 L 1495 3507.5 L 1407.5 3560 "/>
<path style=" stroke:none;fill-rule:evenodd;fill:rgb(16.470588%,16.078431%,16.470588%);fill-opacity:1;" d="M 3840 3420 C 3840 3265.359375 3714.640625 3140 3560 3140 C 3405.359375 3140 3280 3265.359375 3280 3420 C 3280 3574.640625 3405.359375 3700 3560 3700 C 3714.640625 3700 3840 3574.640625 3840 3420 M 3770 3420 C 3770 3304.019531 3675.980469 3210 3560 3210 C 3444.019531 3210 3350 3304.019531 3350 3420 C 3350 3535.980469 3444.019531 3630 3560 3630 C 3675.980469 3630 3770 3535.980469 3770 3420 M 4750 3420 C 4750 3265.359375 4624.640625 3140 4470 3140 C 4315.359375 3140 4190 3265.359375 4190 3420 C 4190 3574.640625 4315.359375 3700 4470 3700 C 4624.640625 3700 4750 3574.640625 4750 3420 M 4680 3420 C 4680 3304.019531 4585.980469 3210 4470 3210 C 4354.019531 3210 4260 3304.019531 4260 3420 C 4260 3535.980469 4354.019531 3630 4470 3630 C 4585.980469 3630 4680 3535.980469 4680 3420 M 3280 3210 L 3280 2790 L 4750 2790 L 4750 3210 L 4680.726562 3210 C 4624.90625 3153.984375 4549.082031 3122.5 4470 3122.5 C 4390.917969 3122.5 4315.09375 3153.984375 4259.273438 3210 L 3770.726562 3210 C 3714.90625 3153.984375 3639.082031 3122.5 3560 3122.5 C 3480.917969 3122.5 3405.09375 3153.984375 3349.273438 3210 L 3280 3210 "/>
<path style=" stroke:none;fill-rule:evenodd;fill:rgb(16.470588%,16.078431%,16.470588%);fill-opacity:1;" d="M 3236.25 3210 L 2825 3087.5 L 2825 3035 L 3236.25 3157.5 L 3236.25 3210 "/>
</g>
</svg>
