<?xml version="1.0" encoding="UTF-8"?>
<svg xmlns="http://www.w3.org/2000/svg" xmlns:xlink="http://www.w3.org/1999/xlink" width="600.000000mm" height="600.000000mm" viewBox="0 0 6000 6000" version="1.1">
<g id="surface181">
<path style="fill-rule:evenodd;fill:rgb(94.509804%,94.117647%,91.764706%);fill-opacity:1;stroke-width:0.3;stroke-linecap:butt;stroke-linejoin:miter;stroke:rgb(16.470588%,16.078431%,16.470588%);stroke-opacity:1;stroke-miterlimit:3;" d="M 300 0 C 300 79.564844 268.392969 155.871094 212.132031 212.132031 C 155.871094 268.392969 79.564844 300 0 300 C -79.564844 300 -155.871094 268.392969 -212.132031 212.132031 C -268.392969 155.871094 -300 79.564844 -300 0 C -300 -79.564844 -268.392969 -155.871094 -212.132031 -212.132031 C -155.871094 -268.392969 -79.564844 -300 0 -300 C 79.564844 -300 155.871094 -268.392969 212.132031 -212.132031 C 268.392969 -155.871094 300 -79.564844 300 0 " transform="matrix(10,0,0,-10,3000,3000)"/>
<path style=" stroke:none;fill-rule:evenodd;fill:rgb(73.333333%,11.764706%,6.27451%);fill-opacity:1;" d="M 5850 3000 C 5850 2244.132812 5549.734375 1519.222656 5015.253906 984.746094 C 4480.777344 450.265625 3755.867188 150 3000 150 C 2244.132812 150 1519.222656 450.265625 984.746094 984.746094 C 450.265625 1519.222656 150 2244.132812 150 3000 C 150 3755.867188 450.265625 4480.777344 984.746094 5015.253906 C 1519.222656 5549.734375 2244.132812 5850 3000 5850 C 3755.867188 5850 4480.777344 5549.734375 5015.253906 5015.253906 C 5549.734375 4480.777344 5850 3755.867188 5850 3000 M 5100 3000 C 5100 2443.046875 4878.75 1908.902344 4484.925781 1515.074219 C 4091.097656 1121.25 3556.953125 900 3000 900 C 2443.046875 900 1908.902344 1121.25 1515.074219 1515.074219 C 1121.25 1908.902344 900 2443.046875 900 3000 C 900 3556.953125 1121.25 4091.097656 1515.074219 4484.925781 C 1908.902344 4878.75 2443.046875 5100 3000 5100 C 3556.953125 5100 4091.097656 4878.75 4484.925781 4484.925781 C 4878.75 4091.097656 5100 3556.953125 5100 3000 "/>
<path style=" stroke:none;fill-rule:evenodd;fill:rgb(16.470588%,16.078431%,16.470588%);fill-opacity:1;" d="M 1530 2930 C 1530 2884.5625 1544.738281 2840.351562 1572 2804 L 1614 2748 C 1643.398438 2708.804688 1668.121094 2666.3125 1687.671875 2621.386719 L 1964.535156 1985.171875 C 1992.328125 1921.304688 2055.347656 1880 2125 1880 L 3875 1880 C 3944.652344 1880 4007.671875 1921.304688 4035.464844 1985.171875 L 4312.328125 2621.386719 C 4331.878906 2666.3125 4356.601562 2708.804688 4386 2748 L 4428 2804 C 4455.261719 2840.351562 4470 2884.5625 4470 2930 L 4470 3385 C 4470 3481.648438 4391.648438 3560 4295 3560 L 1705 3560 C 1608.351562 3560 1530 3481.648438 1530 3385 L 1530 2930 M 1862.5 2650 L 2103.121094 2097.066406 C 2114.238281 2071.523438 2139.449219 2055 2167.308594 2055 L 3832.695312 2055 C 3860.554688 2055 3885.761719 2071.523438 3896.878906 2097.066406 L 4137.5 2650 L 1862.5 2650 M 2125 3035 C 2125 2919.019531 2030.980469 2825 1915 2825 C 1799.019531 2825 1705 2919.019531 1705 3035 C 1705 3150.980469 1799.019531 3245 1915 3245 C 2030.980469 3245 2125 3150.980469 2125 3035 M 4295 3035 C 4295 2919.019531 4200.980469 2825 4085 2825 C 3969.019531 2825 3875 2919.019531 3875 3035 C 3875 3150.980469 3969.019531 3245 4085 3245 C 4200.980469 3245 4295 3150.980469 4295 3035 M 1705 3630 L 2125 3630 L 2125 4015 C 2125 4072.988281 2077.988281 4120 2020 4120 L 1810 4120 C 1752.011719 4120 1705 4072.988281 1705 4015 L 1705 3630 M 3875 3630 L 4295 3630 L 4295 4015 C 4295 4072.988281 4247.988281 4120 4190 4120 L 3980 4120 C 3922.011719 4120 3875 4072.988281 3875 4015 L 3875 3630 "/>
</g>
</svg>
