<?xml version="1.0" encoding="UTF-8"?>
<svg xmlns="http://www.w3.org/2000/svg" xmlns:xlink="http://www.w3.org/1999/xlink" width="600.000000mm" height="600.000000mm" viewBox="0 0 6000 6000" version="1.1">
<g id="surface226">
<path style="fill-rule:evenodd;fill:rgb(94.509804%,94.117647%,91.764706%);fill-opacity:1;stroke-width:0.3;stroke-linecap:butt;stroke-linejoin:miter;stroke:rgb(16.470588%,16.078431%,16.470588%);stroke-opacity:1;stroke-miterlimit:3;" d="M 300 0 C 300 79.564844 268.392969 155.871094 212.132031 212.132031 C 155.871094 268.392969 79.564844 300 0 300 C -79.564844 300 -155.871094 268.392969 -212.132031 212.132031 C -268.392969 155.871094 -300 79.564844 -300 0 C -300 -79.564844 -268.392969 -155.871094 -212.132031 -212.132031 C -155.871094 -268.392969 -79.564844 -300 0 -300 C 79.564844 -300 155.871094 -268.392969 212.132031 -212.132031 C 268.392969 -155.871094 300 -79.564844 300 0 " transform="matrix(10,0,0,-10,3000,3000)"/>
<path style=" stroke:none;fill-rule:evenodd;fill:rgb(73.333333%,11.764706%,6.27451%);fill-opacity:1;" d="M 5850 3000 C 5850 2244.132812 5549.734375 1519.222656 5015.253906 984.746094 C 4480.777344 450.265625 3755.867188 150 3000 150 C 2244.132812 150 1519.222656 450.265625 984.746094 984.746094 C 450.265625 1519.222656 150 2244.132812 150 3000 C 150 3755.867188 450.265625 4480.777344 984.746094 5015.253906 C 1519.222656 5549.734375 2244.132812 5850 3000 5850 C 3755.867188 5850 4480.777344 5549.734375 5015.253906 5015.253906 C 5549.734375 4480.777344 5850 3755.867188 5850 3000 M 5100 3000 C 5100 2443.046875 4878.75 1908.902344 4484.925781 1515.074219 C 4091.097656 1121.25 3556.953125 900 3000 900 C 2443.046875 900 1908.902344 1121.25 1515.074219 1515.074219 C 1121.25 1908.902344 900 2443.046875 900 3000 C 900 3556.953125 1121.25 4091.097656 1515.074219 4484.925781 C 1908.902344 4878.75 2443.046875 5100 3000 5100 C 3556.953125 5100 4091.097656 4878.75 4484.925781 4484.925781 C 4878.75 4091.097656 5100 3556.953125 5100 3000 "/>
<path style=" stroke:none;fill-rule:evenodd;fill:rgb(16.470588%,16.078431%,16.470588%);fill-opacity:1;" d="M 1602.5 4170 L 1602.5 3487.5 L 2099.160156 3162.5 L 2073.144531 3102.398438 C 2041.382812 3029.035156 2025 2949.941406 2025 2870 C 2025 2810.324219 2034.128906 2751 2052.074219 2694.085938 L 1862.5 2350 L 1407.5 2447.5 L 1310 2350 L 1700 1895 L 1700 1700 L 1830 1830 C 2051.074219 1830 2256.988281 1942.363281 2376.617188 2128.273438 L 2504.09375 2326.382812 L 2783.660156 2186.253906 L 2764.972656 2152.976562 C 2748.601562 2123.820312 2740 2090.941406 2740 2057.5 C 2740 1949.804688 2827.304688 1862.5 2935 1862.5 C 3005.5 1862.5 3070.507812 1900.550781 3105.027344 1962.023438 L 3369.460938 2432.9375 C 3383.105469 2457.234375 3390.273438 2484.632812 3390.273438 2512.5 C 3390.273438 2564.023438 3365.839844 2612.492188 3324.417969 2643.136719 L 3559.703125 2601.648438 C 3589.515625 2596.394531 3619.726562 2593.75 3650 2593.75 C 3752.398438 2593.75 3852.515625 2623.980469 3937.800781 2680.65625 L 4025.710938 2592.75 C 4092.753906 2525.703125 4183.6875 2488.039062 4278.5 2488.039062 C 4440.308594 2488.039062 4581.941406 2596.71875 4623.820312 2753.011719 L 4690 3000 L 4495 3130 L 4442.738281 2833.617188 C 4424.9375 2732.65625 4337.214844 2659.050781 4234.699219 2659.050781 C 4178.671875 2659.050781 4124.9375 2681.308594 4085.320312 2720.925781 L 4038.328125 2767.917969 C 4123.140625 2863.148438 4170 2986.226562 4170 3113.75 C 4170 3173.859375 4159.578125 3233.515625 4139.195312 3290.066406 L 4397.5 3716.753906 L 4300 4334.253906 L 4115.539062 4397.5 L 4213.039062 3780 L 3752.957031 3421.007812 L 3812.5 3877.5 L 3520 4430 L 3325 4430 L 3617.5 3877.5 L 3329.3125 3367.632812 C 3178.929688 3404.082031 3024.738281 3422.5 2870 3422.5 C 2723.035156 3422.5 2576.539062 3405.886719 2433.304688 3372.972656 L 2740 4267.5 L 2707.5 4430 L 2545 4430 L 2577.5 4267.5 L 2187.5 3366.570312 L 1765 3617.5 L 1765 4072.5 L 1602.5 4170 M 2707.5 2642.5 L 2592.53125 2463.824219 L 2863.3125 2328.101562 L 2966.859375 2512.5 L 2707.5 2642.5 M 2967.5 1635 C 2967.5 1527.304688 2880.195312 1440 2772.5 1440 C 2664.804688 1440 2577.5 1527.304688 2577.5 1635 C 2577.5 1742.695312 2664.804688 1830 2772.5 1830 C 2880.195312 1830 2967.5 1742.695312 2967.5 1635 "/>
</g>
</svg>
