<?xml version="1.0" encoding="UTF-8"?>
<svg xmlns="http://www.w3.org/2000/svg" xmlns:xlink="http://www.w3.org/1999/xlink" width="600.000000mm" height="600.000000mm" viewBox="0 0 6000 6000" version="1.1">
<g id="surface206">
<path style="fill-rule:evenodd;fill:rgb(94.509804%,94.117647%,91.764706%);fill-opacity:1;stroke-width:0.3;stroke-linecap:butt;stroke-linejoin:miter;stroke:rgb(16.470588%,16.078431%,16.470588%);stroke-opacity:1;stroke-miterlimit:3;" d="M 300 0 C 300 79.564844 268.392969 155.871094 212.132031 212.132031 C 155.871094 268.392969 79.564844 300 0 300 C -79.564844 300 -155.871094 268.392969 -212.132031 212.132031 C -268.392969 155.871094 -300 79.564844 -300 0 C -300 -79.564844 -268.392969 -155.871094 -212.132031 -212.132031 C -155.871094 -268.392969 -79.564844 -300 0 -300 C 79.564844 -300 155.871094 -268.392969 212.132031 -212.132031 C 268.392969 -155.871094 300 -79.564844 300 0 " transform="matrix(10,0,0,-10,3000,3000)"/>
<path style=" stroke:none;fill-rule:evenodd;fill:rgb(73.333333%,11.764706%,6.27451%);fill-opacity:1;" d="M 5850 3000 C 5850 2244.132812 5549.734375 1519.222656 5015.253906 984.746094 C 4480.777344 450.265625 3755.867188 150 3000 150 C 2244.132812 150 1519.222656 450.265625 984.746094 984.746094 C 450.265625 1519.222656 150 2244.132812 150 3000 C 150 3755.867188 450.265625 4480.777344 984.746094 5015.253906 C 1519.222656 5549.734375 2244.132812 5850 3000 5850 C 3755.867188 5850 4480.777344 5549.734375 5015.253906 5015.253906 C 5549.734375 4480.777344 5850 3755.867188 5850 3000 M 5100 3000 C 5100 2443.046875 4878.75 1908.902344 4484.925781 1515.074219 C 4091.097656 1121.25 3556.953125 900 3000 900 C 2443.046875 900 1908.902344 1121.25 1515.074219 1515.074219 C 1121.25 1908.902344 900 2443.046875 900 3000 C 900 3556.953125 1121.25 4091.097656 1515.074219 4484.925781 C 1908.902344 4878.75 2443.046875 5100 3000 5100 C 3556.953125 5100 4091.097656 4878.75 4484.925781 4484.925781 C 4878.75 4091.097656 5100 3556.953125 5100 3000 "/>
<path style=" stroke:none;fill-rule:evenodd;fill:rgb(16.470588%,16.078431%,16.470588%);fill-opacity:1;" d="M 2755 2020 L 2475 2020 C 2360.714844 2020 2257.902344 2089.453125 2215.242188 2195.476562 L 1996.722656 2738.542969 C 1947.085938 2726.226562 1896.140625 2720 1845 2720 C 1677.914062 2720 1517.671875 2786.375 1399.523438 2904.523438 C 1281.375 3022.671875 1215 3182.914062 1215 3350 C 1215 3517.085938 1281.375 3677.328125 1399.523438 3795.476562 C 1517.671875 3913.625 1677.914062 3980 1845 3980 C 2012.085938 3980 2172.328125 3913.625 2290.476562 3795.476562 C 2408.625 3677.328125 2475 3517.085938 2475 3350 C 2475 3239.230469 2445.792969 3130.417969 2390.328125 3034.535156 C 2334.863281 2938.652344 2255.09375 2859.089844 2159.070312 2803.871094 L 2249.152344 2580 L 2715.355469 3249.886719 C 2820.046875 3400.316406 2991.726562 3490 3175 3490 L 3540.753906 3490 C 3572.476562 3629.183594 3650.53125 3753.46875 3762.125 3842.492188 C 3873.722656 3931.515625 4012.246094 3980 4155 3980 C 4322.085938 3980 4482.328125 3913.625 4600.476562 3795.476562 C 4718.625 3677.328125 4785 3517.085938 4785 3350 C 4785 3182.914062 4718.625 3022.671875 4600.476562 2904.523438 C 4482.328125 2786.375 4322.085938 2720 4155 2720 C 3998.238281 2720 3847.105469 2778.445312 3731.132812 2883.914062 C 3615.15625 2989.386719 3542.667969 3134.304688 3527.828125 3290.363281 L 3117.394531 3314.632812 C 3113.269531 3314.878906 3109.132812 3315 3105 3315 C 2989.019531 3315 2895 3220.980469 2895 3105 C 2895 3086.660156 2897.402344 3068.398438 2902.144531 3050.683594 L 2925.234375 2964.449219 C 2928.398438 2952.640625 2930 2940.464844 2930 2928.238281 C 2930 2899.644531 2921.246094 2871.738281 2904.910156 2848.265625 L 2686.914062 2535.027344 C 2660.742188 2497.421875 2617.820312 2475 2572.003906 2475 L 2291.402344 2475 L 2377.589844 2260.804688 C 2393.589844 2221.046875 2432.144531 2195 2475 2195 L 2755 2195 L 2755 2020 M 1930.503906 2903.105469 C 1902.320312 2897.714844 1873.691406 2895 1845 2895 C 1724.328125 2895 1608.59375 2942.9375 1523.265625 3028.265625 C 1437.9375 3113.59375 1390 3229.328125 1390 3350 C 1390 3470.671875 1437.9375 3586.40625 1523.265625 3671.734375 C 1608.59375 3757.0625 1724.328125 3805 1845 3805 C 1965.671875 3805 2081.40625 3757.0625 2166.734375 3671.734375 C 2252.0625 3586.40625 2300 3470.671875 2300 3350 C 2300 3195.945312 2222.046875 3052.351562 2092.851562 2968.433594 L 1926.175781 3382.664062 C 1912.84375 3415.796875 1880.714844 3437.5 1845 3437.5 C 1796.675781 3437.5 1757.5 3398.324219 1757.5 3350 C 1757.5 3338.808594 1759.648438 3327.71875 1763.824219 3317.335938 L 1930.503906 2903.105469 M 4295 3490 L 3722.074219 3490 C 3751.671875 3581.527344 3809.519531 3661.320312 3887.300781 3717.917969 C 3965.085938 3774.511719 4058.804688 3805 4155 3805 C 4275.671875 3805 4391.40625 3757.0625 4476.734375 3671.734375 C 4562.0625 3586.40625 4610 3470.671875 4610 3350 C 4610 3229.328125 4562.0625 3113.59375 4476.734375 3028.265625 C 4391.40625 2942.9375 4275.671875 2895 4155 2895 C 4046.480469 2895 3941.539062 2933.785156 3859.101562 3004.355469 C 3776.664062 3074.929688 3722.167969 3172.640625 3705.4375 3279.863281 L 4295 3245 L 4295 3490 M 4645 2475 L 3525 2475 C 3486.339844 2475 3455 2506.339844 3455 2545 C 3455 2567.839844 3466.140625 2589.242188 3484.851562 2602.339844 L 3753.496094 2776.59375 C 3871.171875 2694.195312 4011.347656 2650 4155 2650 L 4645 2650 L 4645 2475 "/>
</g>
</svg>
