<?xml version="1.0" encoding="UTF-8"?>
<svg xmlns="http://www.w3.org/2000/svg" xmlns:xlink="http://www.w3.org/1999/xlink" width="600.000000mm" height="600.000000mm" viewBox="0 0 6000 6000" version="1.1">
<g id="surface201">
<path style="fill-rule:evenodd;fill:rgb(94.509804%,94.117647%,91.764706%);fill-opacity:1;stroke-width:0.3;stroke-linecap:butt;stroke-linejoin:miter;stroke:rgb(16.470588%,16.078431%,16.470588%);stroke-opacity:1;stroke-miterlimit:3;" d="M 300 0 C 300 79.564844 268.392969 155.871094 212.132031 212.132031 C 155.871094 268.392969 79.564844 300 0 300 C -79.564844 300 -155.871094 268.392969 -212.132031 212.132031 C -268.392969 155.871094 -300 79.564844 -300 0 C -300 -79.564844 -268.392969 -155.871094 -212.132031 -212.132031 C -155.871094 -268.392969 -79.564844 -300 0 -300 C 79.564844 -300 155.871094 -268.392969 212.132031 -212.132031 C 268.392969 -155.871094 300 -79.564844 300 0 " transform="matrix(10,0,0,-10,3000,3000)"/>
<path style=" stroke:none;fill-rule:evenodd;fill:rgb(73.333333%,11.764706%,6.27451%);fill-opacity:1;" d="M 5850 3000 C 5850 2244.132812 5549.734375 1519.222656 5015.253906 984.746094 C 4480.777344 450.265625 3755.867188 150 3000 150 C 2244.132812 150 1519.222656 450.265625 984.746094 984.746094 C 450.265625 1519.222656 150 2244.132812 150 3000 C 150 3755.867188 450.265625 4480.777344 984.746094 5015.253906 C 1519.222656 5549.734375 2244.132812 5850 3000 5850 C 3755.867188 5850 4480.777344 5549.734375 5015.253906 5015.253906 C 5549.734375 4480.777344 5850 3755.867188 5850 3000 M 5100 3000 C 5100 2443.046875 4878.75 1908.902344 4484.925781 1515.074219 C 4091.097656 1121.25 3556.953125 900 3000 900 C 2443.046875 900 1908.902344 1121.25 1515.074219 1515.074219 C 1121.25 1908.902344 900 2443.046875 900 3000 C 900 3556.953125 1121.25 4091.097656 1515.074219 4484.925781 C 1908.902344 4878.75 2443.046875 5100 3000 5100 C 3556.953125 5100 4091.097656 4878.75 4484.925781 4484.925781 C 4878.75 4091.097656 5100 3556.953125 5100 3000 "/>
<path style=" stroke:none;fill-rule:evenodd;fill:rgb(16.470588%,16.078431%,16.470588%);fill-opacity:1;" d="M 2437.5 3343.75 C 2437.5 3202.855469 2381.527344 3067.726562 2281.902344 2968.097656 C 2182.273438 2868.472656 2047.144531 2812.5 1906.25 2812.5 C 1765.355469 2812.5 1630.226562 2868.472656 1530.597656 2968.097656 C 1430.972656 3067.726562 1375 3202.855469 1375 3343.75 C 1375 3484.644531 1430.972656 3619.773438 1530.597656 3719.402344 C 1630.226562 3819.027344 1765.355469 3875 1906.25 3875 C 2047.144531 3875 2182.273438 3819.027344 2281.902344 3719.402344 C 2381.527344 3619.773438 2437.5 3484.644531 2437.5 3343.75 M 2250 3343.75 C 2250 3153.902344 2096.097656 3000 1906.25 3000 C 1716.402344 3000 1562.5 3153.902344 1562.5 3343.75 C 1562.5 3533.597656 1716.402344 3687.5 1906.25 3687.5 C 2096.097656 3687.5 2250 3533.597656 2250 3343.75 M 4625 3343.75 C 4625 3202.855469 4569.027344 3067.726562 4469.402344 2968.097656 C 4369.773438 2868.472656 4234.644531 2812.5 4093.75 2812.5 C 3952.855469 2812.5 3817.726562 2868.472656 3718.097656 2968.097656 C 3618.472656 3067.726562 3562.5 3202.855469 3562.5 3343.75 C 3562.5 3484.644531 3618.472656 3619.773438 3718.097656 3719.402344 C 3817.726562 3819.027344 3952.855469 3875 4093.75 3875 C 4234.644531 3875 4369.773438 3819.027344 4469.402344 3719.402344 C 4569.027344 3619.773438 4625 3484.644531 4625 3343.75 M 4437.5 3343.75 C 4437.5 3153.902344 4283.597656 3000 4093.75 3000 C 3903.902344 3000 3750 3153.902344 3750 3343.75 C 3750 3533.597656 3903.902344 3687.5 4093.75 3687.5 C 4283.597656 3687.5 4437.5 3533.597656 4437.5 3343.75 M 3542.535156 3528.183594 C 3522.644531 3468.726562 3512.5 3406.445312 3512.5 3343.75 C 3512.5 3189.59375 3573.738281 3041.75 3682.746094 2932.746094 C 3791.75 2823.738281 3939.59375 2762.5 4093.75 2762.5 C 4218.070312 2762.5 4337.296875 2732.867188 4425.207031 2680.125 C 4513.113281 2627.378906 4562.5 2555.84375 4562.5 2481.25 C 4562.5 2406.25 4531.25 2375 4468.75 2375 C 4278.125 2375 4095.308594 2401.339844 3960.515625 2448.222656 C 3825.726562 2495.105469 3750 2558.695312 3750 2625 C 3625 2662.5 3531.25 2662.5 3428.363281 2650 C 3286.285156 2494.699219 3085.484375 2406.25 2875 2406.25 C 2773.128906 2406.25 2681.445312 2468.0625 2643.242188 2562.5 L 2643.246094 2562.5 C 2171.875 2437.5 2093.75 2343.75 2531.25 2218.75 C 2625 2187.5 2625 2140.625 2625 2125 C 1875 2125 1750 2562.5 1850.539062 2765.175781 C 1869.054688 2763.394531 1887.648438 2762.5 1906.25 2762.5 C 2041.160156 2762.5 2171.871094 2809.429688 2275.96875 2895.242188 C 2380.070312 2981.058594 2451.078125 3100.410156 2476.820312 3232.84375 C 2531.25 3578.125 2875 3515.625 3542.535156 3528.183594 "/>
</g>
</svg>
