<?xml version="1.0" encoding="UTF-8"?>
<svg xmlns="http://www.w3.org/2000/svg" xmlns:xlink="http://www.w3.org/1999/xlink" width="600.000000mm" height="600.000000mm" viewBox="0 0 6000 6000" version="1.1">
<g id="surface251">
<path style="fill-rule:evenodd;fill:rgb(94.509804%,94.117647%,91.764706%);fill-opacity:1;stroke-width:0.3;stroke-linecap:butt;stroke-linejoin:miter;stroke:rgb(16.470588%,16.078431%,16.470588%);stroke-opacity:1;stroke-miterlimit:3;" d="M 300 0 C 300 79.564844 268.392969 155.871094 212.132031 212.132031 C 155.871094 268.392969 79.564844 300 0 300 C -79.564844 300 -155.871094 268.392969 -212.132031 212.132031 C -268.392969 155.871094 -300 79.564844 -300 0 C -300 -79.564844 -268.392969 -155.871094 -212.132031 -212.132031 C -155.871094 -268.392969 -79.564844 -300 0 -300 C 79.564844 -300 155.871094 -268.392969 212.132031 -212.132031 C 268.392969 -155.871094 300 -79.564844 300 0 " transform="matrix(10,0,0,-10,3000,3000)"/>
<path style=" stroke:none;fill-rule:evenodd;fill:rgb(73.333333%,11.764706%,6.27451%);fill-opacity:1;" d="M 5850 3000 C 5850 2244.132812 5549.734375 1519.222656 5015.253906 984.746094 C 4480.777344 450.265625 3755.867188 150 3000 150 C 2244.132812 150 1519.222656 450.265625 984.746094 984.746094 C 450.265625 1519.222656 150 2244.132812 150 3000 C 150 3755.867188 450.265625 4480.777344 984.746094 5015.253906 C 1519.222656 5549.734375 2244.132812 5850 3000 5850 C 3755.867188 5850 4480.777344 5549.734375 5015.253906 5015.253906 C 5549.734375 4480.777344 5850 3755.867188 5850 3000 M 5100 3000 C 5100 2443.046875 4878.75 1908.902344 4484.925781 1515.074219 C 4091.097656 1121.25 3556.953125 900 3000 900 C 2443.046875 900 1908.902344 1121.25 1515.074219 1515.074219 C 1121.25 1908.902344 900 2443.046875 900 3000 C 900 3556.953125 1121.25 4091.097656 1515.074219 4484.925781 C 1908.902344 4878.75 2443.046875 5100 3000 5100 C 3556.953125 5100 4091.097656 4878.75 4484.925781 4484.925781 C 4878.75 4091.097656 5100 3556.953125 5100 3000 "/>
<path style=" stroke:none;fill-rule:evenodd;fill:rgb(16.470588%,16.078431%,16.470588%);fill-opacity:1;" d="M 1980 4500 C 1946.863281 4500 1920 4473.136719 1920 4440 L 1920 3840 C 1920 3806.863281 1946.863281 3780 1980 3780 L 2160 3780 C 2193.136719 3780 2220 3806.863281 2220 3840 L 2220 4440 C 2220 4473.136719 2193.136719 4500 2160 4500 L 1980 4500 M 2340 4500 C 2306.863281 4500 2280 4473.136719 2280 4440 L 2280 3840 C 2280 3806.863281 2306.863281 3780 2340 3780 L 2520 3780 C 2553.136719 3780 2580 3806.863281 2580 3840 L 2580 4005 C 2580 4038.136719 2606.863281 4065 2640 4065 L 2754 4065 C 2784.8125 4065 2814.445312 4053.148438 2836.757812 4031.898438 L 2875.863281 3994.65625 C 2909.332031 3962.78125 2953.78125 3945 3000 3945 C 3046.21875 3945 3090.667969 3962.78125 3124.136719 3994.65625 L 3163.242188 4031.898438 C 3185.554688 4053.148438 3215.1875 4065 3246 4065 L 3360 4065 C 3393.136719 4065 3420 4038.136719 3420 4005 L 3420 3840 C 3420 3806.863281 3446.863281 3780 3480 3780 L 3660 3780 C 3693.136719 3780 3720 3806.863281 3720 3840 L 3720 4440 C 3720 4473.136719 3693.136719 4500 3660 4500 L 3480 4500 C 3446.863281 4500 3420 4473.136719 3420 4440 L 3420 4275 C 3420 4241.863281 3393.136719 4215 3360 4215 L 3246 4215 C 3215.1875 4215 3185.554688 4226.851562 3163.242188 4248.101562 L 3124.136719 4285.34375 C 3090.667969 4317.21875 3046.21875 4335 3000 4335 C 2953.78125 4335 2909.332031 4317.21875 2875.863281 4285.34375 L 2836.757812 4248.101562 C 2814.445312 4226.851562 2784.8125 4215 2754 4215 L 2640 4215 C 2606.863281 4215 2580 4241.863281 2580 4275 L 2580 4440 C 2580 4473.136719 2553.136719 4500 2520 4500 L 2340 4500 M 3840 4500 C 3806.863281 4500 3780 4473.136719 3780 4440 L 3780 3840 C 3780 3806.863281 3806.863281 3780 3840 3780 L 4020 3780 C 4053.136719 3780 4080 3806.863281 4080 3840 L 4080 4440 C 4080 4473.136719 4053.136719 4500 4020 4500 L 3840 4500 M 1800 3720 L 1800 3600 L 4200 3600 L 4200 3720 L 1800 3720 M 1920 3540 L 1920 1770 C 1920 1654.019531 2014.019531 1560 2130 1560 L 3870 1560 C 3985.980469 1560 4080 1654.019531 4080 1770 L 4080 3540 L 1920 3540 "/>
<path style=" stroke:none;fill-rule:evenodd;fill:rgb(96.470588%,47.058824%,15.686275%);fill-opacity:1;" d="M 2190 3300 L 2190 1800 L 3810 1800 L 3810 3300 L 2190 3300 "/>
</g>
</svg>
