<?xml version="1.0" encoding="UTF-8"?>
<svg xmlns="http://www.w3.org/2000/svg" xmlns:xlink="http://www.w3.org/1999/xlink" width="600.000000mm" height="600.000000mm" viewBox="0 0 6000 6000" version="1.1">
<g id="surface256">
<path style="fill-rule:evenodd;fill:rgb(94.509804%,94.117647%,91.764706%);fill-opacity:1;stroke-width:0.3;stroke-linecap:butt;stroke-linejoin:miter;stroke:rgb(16.470588%,16.078431%,16.470588%);stroke-opacity:1;stroke-miterlimit:3;" d="M 300 0 C 300 79.564844 268.392969 155.871094 212.132031 212.132031 C 155.871094 268.392969 79.564844 300 0 300 C -79.564844 300 -155.871094 268.392969 -212.132031 212.132031 C -268.392969 155.871094 -300 79.564844 -300 0 C -300 -79.564844 -268.392969 -155.871094 -212.132031 -212.132031 C -155.871094 -268.392969 -79.564844 -300 0 -300 C 79.564844 -300 155.871094 -268.392969 212.132031 -212.132031 C 268.392969 -155.871094 300 -79.564844 300 0 " transform="matrix(10,0,0,-10,3000,3000)"/>
<path style=" stroke:none;fill-rule:evenodd;fill:rgb(73.333333%,11.764706%,6.27451%);fill-opacity:1;" d="M 5850 3000 C 5850 2244.132812 5549.734375 1519.222656 5015.253906 984.746094 C 4480.777344 450.265625 3755.867188 150 3000 150 C 2244.132812 150 1519.222656 450.265625 984.746094 984.746094 C 450.265625 1519.222656 150 2244.132812 150 3000 C 150 3755.867188 450.265625 4480.777344 984.746094 5015.253906 C 1519.222656 5549.734375 2244.132812 5850 3000 5850 C 3755.867188 5850 4480.777344 5549.734375 5015.253906 5015.253906 C 5549.734375 4480.777344 5850 3755.867188 5850 3000 M 5100 3000 C 5100 2443.046875 4878.75 1908.902344 4484.925781 1515.074219 C 4091.097656 1121.25 3556.953125 900 3000 900 C 2443.046875 900 1908.902344 1121.25 1515.074219 1515.074219 C 1121.25 1908.902344 900 2443.046875 900 3000 C 900 3556.953125 1121.25 4091.097656 1515.074219 4484.925781 C 1908.902344 4878.75 2443.046875 5100 3000 5100 C 3556.953125 5100 4091.097656 4878.75 4484.925781 4484.925781 C 4878.75 4091.097656 5100 3556.953125 5100 3000 "/>
<path style=" stroke:none;fill-rule:evenodd;fill:rgb(0%,35.686275%,54.901961%);fill-opacity:1;" d="M 1800 4440 L 1855.382812 4416.921875 C 1913.882812 4392.550781 1976.628906 4380 2040 4380 C 2103.371094 4380 2166.117188 4392.550781 2224.617188 4416.921875 L 2335.382812 4463.078125 C 2393.882812 4487.449219 2456.628906 4500 2520 4500 C 2583.371094 4500 2646.117188 4487.449219 2704.617188 4463.078125 L 2815.382812 4416.921875 C 2873.882812 4392.550781 2936.628906 4380 3000 4380 C 3063.371094 4380 3126.117188 4392.550781 3184.617188 4416.921875 L 3295.382812 4463.078125 C 3353.882812 4487.449219 3416.628906 4500 3480 4500 C 3543.371094 4500 3606.117188 4487.449219 3664.617188 4463.078125 L 3775.382812 4416.921875 C 3833.882812 4392.550781 3896.628906 4380 3960 4380 C 4023.371094 4380 4086.117188 4392.550781 4144.617188 4416.921875 L 4200 4440 L 4200 4320 L 4144.617188 4296.921875 C 4086.117188 4272.550781 4023.371094 4260 3960 4260 C 3896.628906 4260 3833.882812 4272.550781 3775.382812 4296.921875 L 3664.617188 4343.078125 C 3606.117188 4367.449219 3543.371094 4380 3480 4380 C 3416.628906 4380 3353.882812 4367.449219 3295.382812 4343.078125 L 3184.617188 4296.921875 C 3126.117188 4272.550781 3063.371094 4260 3000 4260 C 2936.628906 4260 2873.882812 4272.550781 2815.382812 4296.921875 L 2704.617188 4343.078125 C 2646.117188 4367.449219 2583.371094 4380 2520 4380 C 2456.628906 4380 2393.882812 4367.449219 2335.382812 4343.078125 L 2224.617188 4296.921875 C 2166.117188 4272.550781 2103.371094 4260 2040 4260 C 1976.628906 4260 1913.882812 4272.550781 1855.382812 4296.921875 L 1800 4320 L 1800 4440 "/>
<path style=" stroke:none;fill-rule:evenodd;fill:rgb(0%,35.686275%,54.901961%);fill-opacity:1;" d="M 1800 4200 L 1855.382812 4176.921875 C 1913.882812 4152.550781 1976.628906 4140 2040 4140 C 2103.371094 4140 2166.117188 4152.550781 2224.617188 4176.921875 L 2335.382812 4223.078125 C 2393.882812 4247.449219 2456.628906 4260 2520 4260 C 2583.371094 4260 2646.117188 4247.449219 2704.617188 4223.078125 L 2815.382812 4176.921875 C 2873.882812 4152.550781 2936.628906 4140 3000 4140 C 3063.371094 4140 3126.117188 4152.550781 3184.617188 4176.921875 L 3295.382812 4223.078125 C 3353.882812 4247.449219 3416.628906 4260 3480 4260 C 3543.371094 4260 3606.117188 4247.449219 3664.617188 4223.078125 L 3775.382812 4176.921875 C 3833.882812 4152.550781 3896.628906 4140 3960 4140 C 4023.371094 4140 4086.117188 4152.550781 4144.617188 4176.921875 L 4200 4200 L 4200 4080 L 4144.617188 4056.921875 C 4086.117188 4032.550781 4023.371094 4020 3960 4020 C 3896.628906 4020 3833.882812 4032.550781 3775.382812 4056.921875 L 3664.617188 4103.078125 C 3606.117188 4127.449219 3543.371094 4140 3480 4140 C 3416.628906 4140 3353.882812 4127.449219 3295.382812 4103.078125 L 3184.617188 4056.921875 C 3126.117188 4032.550781 3063.371094 4020 3000 4020 C 2936.628906 4020 2873.882812 4032.550781 2815.382812 4056.921875 L 2704.617188 4103.078125 C 2646.117188 4127.449219 2583.371094 4140 2520 4140 C 2456.628906 4140 2393.882812 4127.449219 2335.382812 4103.078125 L 2224.617188 4056.921875 C 2166.117188 4032.550781 2103.371094 4020 2040 4020 C 1976.628906 4020 1913.882812 4032.550781 1855.382812 4056.921875 L 1800 4080 L 1800 4200 "/>
<path style=" stroke:none;fill-rule:evenodd;fill:rgb(16.470588%,16.078431%,16.470588%);fill-opacity:1;" d="M 1980 3900 C 1946.863281 3900 1920 3873.136719 1920 3840 L 1920 3240 C 1920 3206.863281 1946.863281 3180 1980 3180 L 2160 3180 C 2193.136719 3180 2220 3206.863281 2220 3240 L 2220 3840 C 2220 3873.136719 2193.136719 3900 2160 3900 L 1980 3900 M 2340 3900 C 2306.863281 3900 2280 3873.136719 2280 3840 L 2280 3240 C 2280 3206.863281 2306.863281 3180 2340 3180 L 2520 3180 C 2553.136719 3180 2580 3206.863281 2580 3240 L 2580 3405 C 2580 3438.136719 2606.863281 3465 2640 3465 L 2754 3465 C 2784.8125 3465 2814.445312 3453.148438 2836.757812 3431.898438 L 2875.863281 3394.65625 C 2909.332031 3362.78125 2953.78125 3345 3000 3345 C 3046.21875 3345 3090.667969 3362.78125 3124.136719 3394.65625 L 3163.242188 3431.898438 C 3185.554688 3453.148438 3215.1875 3465 3246 3465 L 3360 3465 C 3393.136719 3465 3420 3438.136719 3420 3405 L 3420 3240 C 3420 3206.863281 3446.863281 3180 3480 3180 L 3660 3180 C 3693.136719 3180 3720 3206.863281 3720 3240 L 3720 3840 C 3720 3873.136719 3693.136719 3900 3660 3900 L 3480 3900 C 3446.863281 3900 3420 3873.136719 3420 3840 L 3420 3675 C 3420 3641.863281 3393.136719 3615 3360 3615 L 3246 3615 C 3215.1875 3615 3185.554688 3626.851562 3163.242188 3648.101562 L 3124.136719 3685.34375 C 3090.667969 3717.21875 3046.21875 3735 3000 3735 C 2953.78125 3735 2909.332031 3717.21875 2875.863281 3685.34375 L 2836.757812 3648.101562 C 2814.445312 3626.851562 2784.8125 3615 2754 3615 L 2640 3615 C 2606.863281 3615 2580 3641.863281 2580 3675 L 2580 3840 C 2580 3873.136719 2553.136719 3900 2520 3900 L 2340 3900 M 3840 3900 C 3806.863281 3900 3780 3873.136719 3780 3840 L 3780 3240 C 3780 3206.863281 3806.863281 3180 3840 3180 L 4020 3180 C 4053.136719 3180 4080 3206.863281 4080 3240 L 4080 3840 C 4080 3873.136719 4053.136719 3900 4020 3900 L 3840 3900 M 1800 3120 L 1800 2760 L 2118.183594 2760 C 2353.699219 2913.835938 2670.28125 3000 3000 3000 C 3329.71875 3000 3646.300781 2913.835938 3881.816406 2760 L 4200 2760 L 4200 3120 L 1800 3120 M 4200 2160 C 4200 1953.132812 4073.570312 1754.734375 3848.527344 1608.457031 C 3623.484375 1462.179688 3318.261719 1380 3000 1380 C 2681.738281 1380 2376.515625 1462.179688 2151.472656 1608.457031 C 1926.429688 1754.734375 1800 1953.132812 1800 2160 C 1800 2366.867188 1926.429688 2565.265625 2151.472656 2711.542969 C 2376.515625 2857.820312 2681.738281 2940 3000 2940 C 3318.261719 2940 3623.484375 2857.820312 3848.527344 2711.542969 C 4073.570312 2565.265625 4200 2366.867188 4200 2160 "/>
<path style=" stroke:none;fill-rule:evenodd;fill:rgb(96.470588%,47.058824%,15.686275%);fill-opacity:1;" d="M 4020 2160 C 4020 1992.914062 3912.535156 1832.671875 3721.25 1714.523438 C 3529.960938 1596.375 3270.519531 1530 3000 1530 C 2729.480469 1530 2470.039062 1596.375 2278.75 1714.523438 C 2087.464844 1832.671875 1980 1992.914062 1980 2160 C 1980 2327.085938 2087.464844 2487.328125 2278.75 2605.476562 C 2470.039062 2723.625 2729.480469 2790 3000 2790 C 3270.519531 2790 3529.960938 2723.625 3721.25 2605.476562 C 3912.535156 2487.328125 4020 2327.085938 4020 2160 "/>
</g>
</svg>
