<?xml version="1.0" encoding="UTF-8"?>
<svg xmlns="http://www.w3.org/2000/svg" xmlns:xlink="http://www.w3.org/1999/xlink" width="600.000000mm" height="600.000000mm" viewBox="0 0 6000 6000" version="1.1">
<g id="surface2271">
<path style="fill-rule:evenodd;fill:rgb(94.509804%,94.117647%,91.764706%);fill-opacity:1;stroke-width:0.3;stroke-linecap:butt;stroke-linejoin:miter;stroke:rgb(16.470588%,16.078431%,16.470588%);stroke-opacity:1;stroke-miterlimit:3;" d="M 300 0 C 300 79.564844 268.392969 155.871094 212.132031 212.132031 C 155.871094 268.392969 79.564844 300 0 300 C -79.564844 300 -155.871094 268.392969 -212.132031 212.132031 C -268.392969 155.871094 -300 79.564844 -300 0 C -300 -79.564844 -268.392969 -155.871094 -212.132031 -212.132031 C -155.871094 -268.392969 -79.564844 -300 0 -300 C 79.564844 -300 155.871094 -268.392969 212.132031 -212.132031 C 268.392969 -155.871094 300 -79.564844 300 0 " transform="matrix(10,0,0,-10,3000,3000)"/>
<path style=" stroke:none;fill-rule:evenodd;fill:rgb(0%,35.686275%,54.901961%);fill-opacity:1;" d="M 5850 3000 C 5850 2244.132812 5549.734375 1519.222656 5015.253906 984.746094 C 4480.777344 450.265625 3755.867188 150 3000 150 C 2244.132812 150 1519.222656 450.265625 984.746094 984.746094 C 450.265625 1519.222656 150 2244.132812 150 3000 C 150 3755.867188 450.265625 4480.777344 984.746094 5015.253906 C 1519.222656 5549.734375 2244.132812 5850 3000 5850 C 3755.867188 5850 4480.777344 5549.734375 5015.253906 5015.253906 C 5549.734375 4480.777344 5850 3755.867188 5850 3000 "/>
<path style=" stroke:none;fill-rule:evenodd;fill:rgb(16.470588%,16.078431%,16.470588%);fill-opacity:1;" d="M 2789.566406 5480.140625 C 2754.90625 5527.886719 2696.742188 5551.84375 2634.78125 5540.6875 C 2591.652344 5537.25 2544.539062 5533.46875 2492.925781 5524.175781 C 2442.363281 5515.074219 2395.773438 5501.976562 2354.738281 5490.429688 C 2317.464844 5483.71875 2286.164062 5466.164062 2263.085938 5440.371094 C 2187.738281 5422.289062 2117.0625 5396.371094 2047.453125 5362.167969 C 1988.882812 5364.03125 1937.128906 5335.285156 1908.605469 5281.867188 C 1677.28125 5124.355469 1486.683594 4873.4375 1344.527344 4546.015625 C 1320.457031 4543.792969 1296.996094 4536.289062 1275.109375 4522.582031 C 1200.433594 4475.8125 1177.808594 4377.359375 1224.578125 4302.683594 C 1230.429688 4293.339844 1236.988281 4284.546875 1244.3125 4276.867188 C 1138.160156 3948.296875 1075 3561.398438 1062.539062 3130.484375 C 1021.179688 3101.339844 994.675781 3053.253906 994.730469 3000 C 994.675781 2946.746094 1021.179688 2898.660156 1062.539062 2869.515625 C 1075 2438.601562 1138.160156 2051.703125 1244.3125 1723.132812 C 1236.988281 1715.453125 1230.429688 1706.660156 1224.578125 1697.316406 C 1177.808594 1622.640625 1200.433594 1524.1875 1275.109375 1477.417969 C 1296.996094 1463.710938 1320.457031 1456.207031 1344.527344 1453.984375 C 1486.683594 1126.5625 1677.28125 875.644531 1908.605469 718.132812 C 1937.128906 664.714844 1988.882812 635.96875 2047.453125 637.832031 C 2117.0625 603.628906 2187.738281 577.710938 2263.085938 559.628906 C 2286.164062 533.835938 2317.464844 516.28125 2354.738281 509.570312 C 2395.773438 498.023438 2442.363281 484.925781 2492.925781 475.824219 C 2544.539062 466.53125 2591.652344 462.75 2634.78125 459.3125 C 2696.742188 448.15625 2754.90625 472.113281 2789.566406 519.859375 C 2818.34375 468.417969 2873.882812 438.324219 2936.273438 441.785156 C 2978.867188 440.042969 3027.222656 438.082031 3078.515625 440.929688 C 3130.882812 443.832031 3177.636719 451.105469 3220.390625 457.742188 L 3220.300781 457.636719 C 3272.242188 460.519531 3316.324219 488.414062 3343.085938 528.636719 C 3353.464844 516.378906 3365.246094 505.839844 3379.585938 496.859375 C 3448.445312 453.734375 3537.222656 469.148438 3587.347656 530.433594 L 3660.015625 529.96875 C 4394.273438 529.96875 4996.539062 1634.800781 4993.226562 3000 C 4989.910156 4365.199219 4394.273438 5470.03125 3660.015625 5470.03125 L 3587.347656 5469.566406 C 3537.222656 5530.851562 3448.445312 5546.265625 3379.585938 5503.140625 C 3365.246094 5494.160156 3353.464844 5483.621094 3343.085938 5471.363281 C 3316.324219 5511.585938 3272.242188 5539.480469 3220.300781 5542.363281 L 3220.390625 5542.257812 C 3177.636719 5548.894531 3130.882812 5556.167969 3078.515625 5559.070312 C 3027.222656 5561.917969 2978.867188 5559.957031 2936.273438 5558.214844 C 2873.882812 5561.675781 2818.34375 5531.582031 2789.566406 5480.140625 "/>
<path style=" stroke:none;fill-rule:evenodd;fill:rgb(94.509804%,94.117647%,91.764706%);fill-opacity:1;" d="M 1831.238281 1868.878906 C 1818.15625 1860.417969 1739.613281 1812.523438 1722.6875 1804.15625 C 1688.273438 1787.152344 1620.5625 1761.644531 1606.308594 1755.960938 C 1578.257812 1741.511719 1567.234375 1707.234375 1581.679688 1679.1875 C 1597.191406 1649.074219 1630.527344 1640.039062 1658.574219 1654.488281 C 1682.3125 1660.816406 1758.46875 1694.34375 1775.261719 1702.085938 C 1797.976562 1712.558594 1870.066406 1758.792969 1883.148438 1767.253906 L 1883.132812 1767.203125 C 1911.179688 1781.652344 1922.210938 1816.105469 1907.761719 1844.15625 C 1893.3125 1872.207031 1859.285156 1883.328125 1831.238281 1868.878906 "/>
<path style=" stroke:none;fill-rule:evenodd;fill:rgb(94.509804%,94.117647%,91.764706%);fill-opacity:1;" d="M 2408.761719 1413.125 C 2393.207031 1412.296875 2301.242188 1409.847656 2282.398438 1411.015625 C 2244.085938 1413.394531 2172.664062 1424.96875 2157.472656 1427.132812 C 2125.953125 1428.5625 2099.328125 1404.324219 2097.898438 1372.804688 C 2096.367188 1338.964844 2120.867188 1314.570312 2152.386719 1313.144531 L 2152.222656 1313.078125 C 2175.960938 1306.753906 2258.777344 1297.964844 2277.199219 1296.320312 C 2302.113281 1294.097656 2387.652344 1298.316406 2403.207031 1299.144531 L 2403.167969 1299.113281 C 2434.691406 1297.683594 2461.402344 1322.078125 2462.828125 1353.597656 C 2464.257812 1385.117188 2440.28125 1411.695312 2408.761719 1413.125 "/>
<path style=" stroke:none;fill-rule:evenodd;fill:rgb(94.509804%,94.117647%,91.764706%);fill-opacity:1;" d="M 1870.339844 1463.367188 C 1854.921875 1465.59375 1764.253906 1481.160156 1746 1485.988281 C 1708.890625 1495.804688 1641.105469 1521.113281 1626.628906 1526.203125 C 1595.996094 1533.765625 1565.152344 1515.195312 1557.589844 1484.5625 C 1549.472656 1451.675781 1568.734375 1422.964844 1599.367188 1415.40625 L 1599.191406 1415.371094 C 1621.238281 1404.53125 1700.742188 1379.730469 1718.488281 1374.519531 C 1742.488281 1367.46875 1827.203125 1354.894531 1842.617188 1352.667969 L 1842.574219 1352.640625 C 1873.207031 1345.082031 1904.171875 1363.785156 1911.730469 1394.421875 C 1919.292969 1425.054688 1900.972656 1455.804688 1870.339844 1463.367188 "/>
<path style=" stroke:none;fill-rule:evenodd;fill:rgb(94.509804%,94.117647%,91.764706%);fill-opacity:1;" d="M 2922.210938 2464.359375 C 2906.851562 2461.789062 2815.742188 2449.011719 2796.886719 2448.054688 C 2758.550781 2446.105469 2686.277344 2449.574219 2670.9375 2450.019531 C 2639.457031 2447.894531 2615.726562 2420.8125 2617.855469 2389.332031 C 2620.136719 2355.535156 2647.222656 2334.050781 2678.703125 2336.175781 L 2678.546875 2336.09375 C 2702.847656 2332.480469 2786.128906 2333.058594 2804.621094 2333.496094 C 2829.625 2334.089844 2914.148438 2347.90625 2929.511719 2350.476562 L 2929.476562 2350.4375 C 2960.960938 2352.5625 2984.757812 2379.808594 2982.632812 2411.289062 C 2980.507812 2442.769531 2953.695312 2466.484375 2922.210938 2464.359375 "/>
<path style=" stroke:none;fill-rule:evenodd;fill:rgb(94.509804%,94.117647%,91.764706%);fill-opacity:1;" d="M 3137.839844 1633.460938 C 3126.15625 1623.160156 3055.566406 1564.160156 3040.0625 1553.382812 C 3008.546875 1531.46875 2945.359375 1496.222656 2932.105469 1488.488281 C 2906.503906 1470.046875 2900.671875 1434.515625 2919.109375 1408.914062 C 2938.910156 1381.429688 2973.257812 1377.507812 2998.859375 1395.949219 L 2998.773438 1395.796875 C 3021.3125 1405.570312 3091.707031 1450.074219 3107.171875 1460.222656 C 3128.085938 1473.9375 3192.539062 1530.335938 3204.21875 1540.640625 L 3204.210938 1540.589844 C 3229.816406 1559.03125 3235.621094 1594.738281 3217.179688 1620.339844 C 3198.738281 1645.941406 3163.441406 1651.902344 3137.839844 1633.460938 "/>
<path style=" stroke:none;fill-rule:evenodd;fill:rgb(94.509804%,94.117647%,91.764706%);fill-opacity:1;" d="M 3527.441406 632.074219 C 3527.441406 597.183594 3499.15625 568.902344 3464.269531 568.902344 C 3429.378906 568.902344 3401.097656 597.183594 3401.097656 632.074219 C 3401.097656 666.964844 3429.378906 695.246094 3464.269531 695.246094 C 3499.15625 695.246094 3527.441406 666.964844 3527.441406 632.074219 "/>
<path style=" stroke:none;fill-rule:evenodd;fill:rgb(94.509804%,94.117647%,91.764706%);fill-opacity:1;" d="M 3192.5625 670.238281 C 3177.167969 667.847656 3085.917969 656.164062 3067.050781 655.433594 C 3028.691406 653.945312 2956.398438 658.121094 2941.0625 658.746094 L 2941.207031 659.074219 C 2909.703125 657.324219 2885.578125 630.367188 2887.328125 598.863281 C 2889.203125 565.042969 2916.03125 543.234375 2947.535156 544.984375 L 2947.378906 544.902344 C 2971.632812 540.996094 3054.914062 540.574219 3073.410156 540.792969 C 3098.421875 541.089844 3183.101562 553.886719 3198.492188 556.273438 L 3198.460938 556.238281 C 3229.964844 557.984375 3254.089844 584.941406 3252.339844 616.445312 C 3250.59375 647.949219 3224.066406 671.984375 3192.5625 670.238281 "/>
<path style=" stroke:none;fill-rule:evenodd;fill:rgb(94.509804%,94.117647%,91.764706%);fill-opacity:1;" d="M 2816.671875 1281.800781 C 2825.597656 1293.664062 2835.101562 1305.558594 2840.359375 1318.894531 C 2896.550781 1260.996094 2980.585938 1256.566406 3044.960938 1302.9375 C 3081.785156 1324.410156 3123.582031 1348.804688 3165.265625 1378.832031 C 3200.894531 1404.492188 3231.917969 1430.503906 3260 1455.125 C 3369.660156 1262.148438 3500.507812 1120.21875 3643.550781 1046.925781 C 3630.785156 1019.835938 3617.128906 991.207031 3601.214844 962.085938 C 3576.574219 917.007812 3551.046875 876.058594 3527.101562 840.792969 C 3517.289062 822.839844 3510.871094 804.421875 3508.445312 785.277344 C 3457.417969 799.949219 3401.226562 787.402344 3360.761719 753.328125 C 3146.617188 864.601562 2963.261719 1044.449219 2816.671875 1281.800781 "/>
<path style=" stroke:none;fill-rule:evenodd;fill:rgb(94.509804%,94.117647%,91.764706%);fill-opacity:1;" d="M 2683.046875 1535.84375 C 2588.253906 1747.90625 2515.933594 1991.996094 2469.503906 2258.5625 C 2491.382812 2268.28125 2511.339844 2281.921875 2526.746094 2299.863281 C 2557.324219 2254.378906 2610.09375 2228.894531 2668.683594 2232.847656 C 2711.292969 2231.621094 2759.667969 2230.238281 2810.925781 2233.699219 C 2863.253906 2237.230469 2909.914062 2245.066406 2952.589844 2252.214844 L 2952.496094 2252.105469 C 2964.160156 2254.546875 2973.480469 2255.980469 2984.71875 2257.371094 C 3019.6875 2071.742188 3067.234375 1899.425781 3125.398438 1745.800781 C 3113.207031 1741.035156 3102.460938 1735.265625 3091.347656 1727.261719 C 3058.894531 1698.640625 3021.410156 1668.277344 2978.855469 1637.625 C 2937.171875 1607.597656 2896.46875 1581.683594 2859.644531 1560.207031 C 2834.050781 1541.769531 2815.335938 1517.730469 2804.558594 1490.410156 C 2771.007812 1523.714844 2727.222656 1538.648438 2683.046875 1535.84375 "/>
<path style=" stroke:none;fill-rule:evenodd;fill:rgb(94.509804%,94.117647%,91.764706%);fill-opacity:1;" d="M 1566.148438 1316.175781 C 1665.261719 1140.597656 1783.386719 996.402344 1916.941406 887.820312 C 1938.117188 917.539062 1969.816406 940.972656 2008.003906 950.488281 C 2050.164062 956.769531 2097.421875 966.367188 2147.421875 978.160156 C 2167.8125 982.972656 2187.167969 986.554688 2179.054688 985.273438 C 2198.328125 990.074219 2216.4375 991.148438 2235.054688 988.921875 L 2234.835938 988.84375 C 2242.753906 1009.796875 2255.398438 1028.925781 2272.464844 1045.621094 C 2305.65625 1072.363281 2342.023438 1104.078125 2378.746094 1140.003906 C 2399.425781 1160.230469 2419.839844 1180.152344 2437.824219 1199.667969 C 2430.046875 1198.863281 2423.035156 1198.449219 2414.984375 1198.816406 L 2415.089844 1198.910156 C 2371.878906 1196.609375 2324.632812 1194.070312 2272.242188 1196.445312 C 2220.921875 1198.773438 2173.007812 1205.585938 2130.808594 1211.597656 C 2068.574219 1214.421875 2016.671875 1249.394531 1993.105469 1303.183594 C 1955.339844 1258.992188 1894.84375 1237.09375 1834.566406 1251.972656 L 1834.683594 1252.042969 C 1791.859375 1258.230469 1745.027344 1264.972656 1694.109375 1277.539062 C 1647.386719 1289.070312 1604.488281 1302.726562 1566.148438 1316.175781 "/>
<path style=" stroke:none;fill-rule:evenodd;fill:rgb(94.509804%,94.117647%,91.764706%);fill-opacity:1;" d="M 2476.128906 804.5625 C 2482.195312 809.097656 2488.605469 813.515625 2494.1875 818.976562 C 2527.382812 845.71875 2565.058594 876.09375 2601.78125 912.015625 C 2639.269531 948.691406 2669.65625 984.890625 2697.460938 1018.042969 C 2752.28125 1071.675781 2758.609375 1156.429688 2718.617188 1218.472656 C 2730.953125 1220.429688 2742.351562 1223.96875 2753.792969 1229.078125 C 2873.027344 1036.960938 3015.214844 880.855469 3178.253906 770.484375 C 3142.152344 765.6875 3102.683594 761.699219 3060.855469 759.378906 C 3009.5625 756.535156 2961.308594 756.625 2918.71875 758.363281 C 2868.882812 755.601562 2827.667969 731.835938 2800.613281 694.253906 C 2778.074219 733.371094 2739.976562 762.519531 2692.066406 771.144531 C 2648.933594 774.585938 2601.046875 780.429688 2549.429688 789.722656 C 2523.953125 794.308594 2499.546875 799.222656 2476.128906 804.5625 "/>
<path style=" stroke:none;fill-rule:evenodd;fill:rgb(94.509804%,94.117647%,91.764706%);fill-opacity:1;" d="M 2755.25 1377.210938 C 2755.25 1342.324219 2726.96875 1314.039062 2692.078125 1314.039062 C 2657.191406 1314.039062 2628.90625 1342.324219 2628.90625 1377.210938 C 2628.90625 1412.101562 2657.191406 1440.382812 2692.078125 1440.382812 C 2726.96875 1440.382812 2755.25 1412.101562 2755.25 1377.210938 "/>
<path style=" stroke:none;fill-rule:evenodd;fill:rgb(94.509804%,94.117647%,91.764706%);fill-opacity:1;" d="M 2536.5625 1159.675781 C 2526.554688 1147.738281 2465.585938 1078.84375 2451.871094 1065.867188 C 2423.988281 1039.484375 2366.789062 995.179688 2354.839844 985.550781 C 2332.28125 963.488281 2331.832031 927.484375 2353.898438 904.929688 C 2377.585938 880.71875 2412.132812 881.976562 2434.6875 904.042969 L 2434.621094 903.878906 C 2455.445312 916.914062 2518.390625 971.453125 2532.160156 983.796875 C 2550.785156 1000.492188 2606.074219 1065.894531 2616.085938 1077.828125 L 2616.085938 1077.78125 C 2638.636719 1099.84375 2639.035156 1136.015625 2616.96875 1158.570312 C 2594.90625 1181.125 2559.113281 1181.738281 2536.5625 1159.675781 "/>
<path style=" stroke:none;fill-rule:evenodd;fill:rgb(94.509804%,94.117647%,91.764706%);fill-opacity:1;" d="M 2187.433594 880.917969 C 2135.621094 868.566406 2063.867188 859.269531 2048.6875 857.007812 C 2018.074219 849.378906 1999.476562 818.546875 2007.105469 787.929688 C 2015.296875 755.0625 2045.742188 738.679688 2076.359375 746.308594 L 2076.21875 746.199219 C 2100.773438 746.914062 2182.820312 761.398438 2200.78125 765.816406 C 2245.253906 777.703125 2263.878906 808.6875 2256.246094 839.304688 C 2248.617188 869.917969 2218.050781 888.546875 2187.433594 880.917969 "/>
<path style=" stroke:none;fill-rule:evenodd;fill:rgb(94.509804%,94.117647%,91.764706%);fill-opacity:1;" d="M 2656.9375 672.523438 C 2641.410156 673.761719 2549.929688 683.507812 2531.40625 687.164062 C 2493.742188 694.59375 2424.480469 715.523438 2409.710938 719.679688 C 2378.65625 725.269531 2349.054688 704.769531 2343.46875 673.714844 C 2337.464844 640.378906 2358.519531 612.953125 2389.570312 607.363281 L 2389.402344 607.320312 C 2412.09375 597.910156 2493.019531 578.230469 2511.0625 574.160156 C 2535.464844 568.660156 2620.808594 561.515625 2636.335938 560.277344 L 2636.296875 560.25 C 2667.347656 554.660156 2697.054688 575.304688 2702.644531 606.355469 C 2708.234375 637.410156 2687.992188 666.933594 2656.9375 672.523438 "/>
<path style=" stroke:none;fill-rule:evenodd;fill:rgb(94.509804%,94.117647%,91.764706%);fill-opacity:1;" d="M 3746.414062 1026.960938 C 3740.324219 1012.625 3702.121094 928.933594 3692.789062 912.519531 C 3673.820312 879.148438 3632.039062 820.074219 3623.421875 807.378906 C 3608.289062 779.691406 3618.367188 745.125 3646.050781 729.992188 C 3675.773438 713.746094 3708.453125 725.035156 3723.585938 752.722656 L 3723.570312 752.546875 C 3739.683594 771.09375 3783.96875 841.628906 3793.539062 857.453125 C 3806.480469 878.855469 3840.28125 957.527344 3846.371094 971.863281 C 3861.503906 999.550781 3851.332031 1034.242188 3823.644531 1049.371094 C 3795.960938 1064.507812 3761.546875 1054.644531 3746.414062 1026.960938 "/>
<path style=" stroke:none;fill-rule:evenodd;fill:rgb(94.509804%,94.117647%,91.764706%);fill-opacity:1;" d="M 1422.964844 1612.636719 C 1422.964844 1577.746094 1394.679688 1549.464844 1359.792969 1549.464844 C 1324.902344 1549.464844 1296.621094 1577.746094 1296.621094 1612.636719 C 1296.621094 1647.523438 1324.902344 1675.808594 1359.792969 1675.808594 C 1394.679688 1675.808594 1422.964844 1647.523438 1422.964844 1612.636719 "/>
<path style=" stroke:none;fill-rule:evenodd;fill:rgb(94.509804%,94.117647%,91.764706%);fill-opacity:1;" d="M 2127.4375 2503.867188 C 2112.148438 2506.851562 2021.980469 2527.089844 2003.988281 2532.8125 C 1967.402344 2544.441406 1900.824219 2572.925781 1886.617188 2578.722656 L 1886.863281 2578.984375 C 1856.640625 2588.039062 1824.792969 2570.882812 1815.734375 2540.660156 C 1806.011719 2508.210938 1823.835938 2478.589844 1854.058594 2469.53125 L 1853.882812 2469.507812 C 1875.367188 2457.59375 1953.554688 2428.90625 1971.023438 2422.832031 C 1994.648438 2414.609375 2078.640625 2397.882812 2093.925781 2394.898438 L 2093.882812 2394.875 C 2124.109375 2385.8125 2155.953125 2402.972656 2165.011719 2433.195312 C 2174.070312 2463.421875 2156.914062 2495.265625 2126.6875 2504.328125 L 2127.4375 2503.867188 "/>
<path style=" stroke:none;fill-rule:evenodd;fill:rgb(94.509804%,94.117647%,91.764706%);fill-opacity:1;" d="M 1615.445312 2705.160156 C 1601.476562 2712.046875 1520.066406 2754.898438 1504.203125 2765.136719 C 1471.949219 2785.949219 1415.320312 2830.984375 1403.128906 2840.304688 C 1376.339844 2856.96875 1341.261719 2848.855469 1324.59375 2822.058594 C 1306.703125 2793.300781 1316.050781 2760.050781 1342.84375 2743.386719 C 1360.453125 2726.253906 1428.300781 2678.089844 1443.558594 2667.644531 C 1464.203125 2653.519531 1540.851562 2615.347656 1554.820312 2608.464844 C 1581.613281 2591.796875 1616.820312 2600.003906 1633.484375 2626.792969 C 1650.148438 2653.585938 1642.238281 2688.496094 1615.445312 2705.160156 "/>
<path style=" stroke:none;fill-rule:evenodd;fill:rgb(94.509804%,94.117647%,91.764706%);fill-opacity:1;" d="M 2467.53125 2403.644531 C 2467.53125 2368.753906 2439.25 2340.472656 2404.359375 2340.472656 C 2369.472656 2340.472656 2341.1875 2368.753906 2341.1875 2403.644531 C 2341.1875 2438.53125 2369.472656 2466.816406 2404.359375 2466.816406 C 2439.25 2466.816406 2467.53125 2438.53125 2467.53125 2403.644531 "/>
<path style=" stroke:none;fill-rule:evenodd;fill:rgb(94.509804%,94.117647%,91.764706%);fill-opacity:1;" d="M 2029.496094 1833.230469 C 2031.675781 1773.65625 1999.820312 1715.265625 1943.320312 1686.160156 C 1906.988281 1662.660156 1867.292969 1637.007812 1820.671875 1612.992188 C 1803.308594 1604.050781 1786.746094 1595.3125 1769.820312 1587.761719 C 1820.738281 1575.195312 1868.863281 1565.730469 1911.691406 1559.542969 C 1960.601562 1547.472656 1997.402344 1514.695312 2016.855469 1472.1875 C 2047.546875 1508.628906 2093.894531 1530.664062 2145.167969 1528.339844 C 2187.367188 1522.324219 2235.367188 1517.386719 2286.6875 1515.058594 C 2339.078125 1512.683594 2387.316406 1513.226562 2430.523438 1515.53125 C 2480.769531 1513.253906 2523.113281 1488.230469 2550.507812 1450.445312 C 2558.660156 1466.234375 2569.394531 1480.941406 2583.121094 1493.769531 C 2590.28125 1500.464844 2597.828125 1506.4375 2605.792969 1511.5625 C 2527.777344 1689.75 2465.414062 1887.722656 2419.746094 2102.328125 C 2414.199219 2093.585938 2407.914062 2084.449219 2400.472656 2076.679688 L 2400.46875 2076.820312 C 2373.757812 2042.78125 2344.5625 2005.546875 2308.28125 1967.675781 C 2272.742188 1930.578125 2236.070312 1899 2203.761719 1871.191406 C 2156.484375 1821.847656 2089.636719 1806.484375 2029.496094 1833.230469 "/>
<path style=" stroke:none;fill-rule:evenodd;fill:rgb(94.509804%,94.117647%,91.764706%);fill-opacity:1;" d="M 2235.0625 2213.089844 C 2225.445312 2200.835938 2166.742188 2130 2153.457031 2116.585938 C 2126.445312 2089.3125 2070.769531 2043.003906 2059.140625 2032.992188 L 2059.023438 2033.332031 C 2037.195312 2010.546875 2037.96875 1974.378906 2060.757812 1952.554688 C 2085.214844 1929.121094 2119.675781 1931.417969 2141.503906 1954.203125 C 2161.894531 1967.910156 2223.007812 2024.375 2236.367188 2037.160156 C 2254.441406 2054.449219 2307.585938 2121.613281 2317.199219 2133.867188 L 2317.199219 2133.820312 C 2339.027344 2156.601562 2338.25 2192.769531 2315.464844 2214.597656 C 2292.683594 2236.421875 2256.890625 2235.875 2235.0625 2213.089844 "/>
<path style=" stroke:none;fill-rule:evenodd;fill:rgb(94.509804%,94.117647%,91.764706%);fill-opacity:1;" d="M 1211.570312 2736.972656 C 1229.511719 2377.25 1284.925781 2052.269531 1372.34375 1771.429688 C 1396.78125 1769.34375 1422.257812 1761.761719 1444.472656 1747.851562 C 1451.25 1743.605469 1457.675781 1739.101562 1463.582031 1734.0625 C 1474.035156 1777.320312 1502.597656 1815.636719 1545.265625 1837.613281 C 1584.859375 1853.402344 1628.949219 1873.007812 1674.621094 1896.53125 C 1721.246094 1920.546875 1762.8125 1945.027344 1799.144531 1968.53125 C 1841.507812 1990.351562 1888.582031 1990.914062 1929.671875 1974.671875 C 1927.949219 2016.238281 1943.660156 2058.019531 1974.800781 2090.527344 C 2007.109375 2118.335938 2042.429688 2151.210938 2077.96875 2188.308594 C 2112.886719 2224.761719 2144.429688 2261.007812 2170.550781 2294.003906 C 2142.160156 2285.726562 2111.363281 2285.597656 2080.929688 2294.71875 L 2081.050781 2294.785156 C 2038.582031 2303.070312 1992.136719 2312.109375 1941.902344 2327.167969 C 1892.691406 2341.914062 1847.878906 2360.1875 1808.410156 2376.292969 C 1740.769531 2396.566406 1696.253906 2454.410156 1695.335938 2523.070312 C 1644.449219 2484.453125 1573.582031 2479.464844 1516.105469 2515.21875 C 1477.296875 2534.34375 1434.914062 2555.261719 1390.382812 2582.964844 C 1346.757812 2610.09375 1308.304688 2639.476562 1274.4375 2665.363281 C 1244.523438 2683.972656 1224.046875 2707.277344 1211.570312 2736.972656 "/>
<path style=" stroke:none;fill-rule:evenodd;fill:rgb(94.509804%,94.117647%,91.764706%);fill-opacity:1;" d="M 1831.238281 4131.121094 C 1818.15625 4139.582031 1739.613281 4187.476562 1722.6875 4195.84375 C 1688.273438 4212.847656 1620.5625 4238.355469 1606.308594 4244.039062 C 1578.257812 4258.488281 1567.234375 4292.765625 1581.679688 4320.8125 C 1597.191406 4350.925781 1630.527344 4359.960938 1658.574219 4345.511719 C 1682.3125 4339.183594 1758.46875 4305.65625 1775.261719 4297.914062 C 1797.976562 4287.441406 1870.066406 4241.207031 1883.148438 4232.746094 L 1883.132812 4232.796875 C 1911.179688 4218.347656 1922.210938 4183.894531 1907.761719 4155.84375 C 1893.3125 4127.792969 1859.285156 4116.671875 1831.238281 4131.121094 "/>
<path style=" stroke:none;fill-rule:evenodd;fill:rgb(94.509804%,94.117647%,91.764706%);fill-opacity:1;" d="M 2408.761719 4586.875 C 2393.207031 4587.703125 2301.242188 4590.152344 2282.398438 4588.984375 C 2244.085938 4586.605469 2172.664062 4575.03125 2157.472656 4572.867188 C 2125.953125 4571.4375 2099.328125 4595.675781 2097.898438 4627.195312 C 2096.367188 4661.035156 2120.867188 4685.429688 2152.386719 4686.855469 L 2152.222656 4686.921875 C 2175.960938 4693.246094 2258.777344 4702.035156 2277.199219 4703.679688 C 2302.113281 4705.902344 2387.652344 4701.683594 2403.207031 4700.855469 L 2403.167969 4700.886719 C 2434.691406 4702.316406 2461.402344 4677.921875 2462.828125 4646.402344 C 2464.257812 4614.882812 2440.28125 4588.304688 2408.761719 4586.875 "/>
<path style=" stroke:none;fill-rule:evenodd;fill:rgb(94.509804%,94.117647%,91.764706%);fill-opacity:1;" d="M 1870.339844 4536.632812 C 1854.921875 4534.40625 1764.253906 4518.839844 1746 4514.011719 C 1708.890625 4504.191406 1641.105469 4478.886719 1626.628906 4473.796875 C 1595.996094 4466.234375 1565.152344 4484.804688 1557.589844 4515.4375 C 1549.472656 4548.324219 1568.734375 4577.035156 1599.367188 4584.59375 L 1599.191406 4584.628906 C 1621.238281 4595.46875 1700.742188 4620.269531 1718.488281 4625.480469 C 1742.488281 4632.53125 1827.203125 4645.105469 1842.617188 4647.332031 L 1842.574219 4647.355469 C 1873.207031 4654.917969 1904.171875 4636.214844 1911.730469 4605.578125 C 1919.292969 4574.945312 1900.972656 4544.195312 1870.339844 4536.632812 "/>
<path style=" stroke:none;fill-rule:evenodd;fill:rgb(94.509804%,94.117647%,91.764706%);fill-opacity:1;" d="M 2922.210938 3535.640625 C 2906.851562 3538.210938 2815.742188 3550.988281 2796.886719 3551.945312 C 2758.550781 3553.894531 2686.277344 3550.425781 2670.9375 3549.980469 C 2639.457031 3552.105469 2615.726562 3579.1875 2617.855469 3610.667969 C 2620.136719 3644.464844 2647.222656 3665.949219 2678.703125 3663.824219 L 2678.546875 3663.90625 C 2702.847656 3667.519531 2786.128906 3666.941406 2804.621094 3666.503906 C 2829.625 3665.910156 2914.148438 3652.09375 2929.511719 3649.523438 L 2929.476562 3649.5625 C 2960.960938 3647.433594 2984.757812 3620.191406 2982.632812 3588.710938 C 2980.507812 3557.230469 2953.695312 3533.515625 2922.210938 3535.640625 "/>
<path style=" stroke:none;fill-rule:evenodd;fill:rgb(94.509804%,94.117647%,91.764706%);fill-opacity:1;" d="M 3137.839844 4366.539062 C 3126.15625 4376.839844 3055.566406 4435.839844 3040.0625 4446.617188 C 3008.546875 4468.53125 2945.359375 4503.777344 2932.105469 4511.511719 C 2906.503906 4529.953125 2900.671875 4565.480469 2919.109375 4591.085938 C 2938.910156 4618.570312 2973.257812 4622.492188 2998.859375 4604.050781 L 2998.773438 4604.203125 C 3021.3125 4594.429688 3091.707031 4549.925781 3107.171875 4539.777344 C 3128.085938 4526.058594 3192.539062 4469.664062 3204.21875 4459.359375 L 3204.210938 4459.410156 C 3229.816406 4440.96875 3235.621094 4405.261719 3217.179688 4379.660156 C 3198.738281 4354.058594 3163.441406 4348.097656 3137.839844 4366.539062 "/>
<path style=" stroke:none;fill-rule:evenodd;fill:rgb(94.509804%,94.117647%,91.764706%);fill-opacity:1;" d="M 3527.441406 5367.925781 C 3527.441406 5333.035156 3499.15625 5304.753906 3464.269531 5304.753906 C 3429.378906 5304.753906 3401.097656 5333.035156 3401.097656 5367.925781 C 3401.097656 5402.8125 3429.378906 5431.097656 3464.269531 5431.097656 C 3499.15625 5431.097656 3527.441406 5402.8125 3527.441406 5367.925781 "/>
<path style=" stroke:none;fill-rule:evenodd;fill:rgb(94.509804%,94.117647%,91.764706%);fill-opacity:1;" d="M 3192.5625 5329.761719 C 3177.167969 5332.152344 3085.917969 5343.835938 3067.050781 5344.566406 C 3028.691406 5346.054688 2956.398438 5341.878906 2941.0625 5341.253906 L 2941.207031 5340.925781 C 2909.703125 5342.675781 2885.578125 5369.632812 2887.328125 5401.136719 C 2889.203125 5434.957031 2916.03125 5456.765625 2947.535156 5455.015625 L 2947.378906 5455.097656 C 2971.632812 5459.003906 3054.914062 5459.425781 3073.410156 5459.207031 C 3098.421875 5458.910156 3183.101562 5446.113281 3198.492188 5443.722656 L 3198.460938 5443.761719 C 3229.964844 5442.015625 3254.089844 5415.058594 3252.339844 5383.554688 C 3250.59375 5352.050781 3224.066406 5328.015625 3192.5625 5329.761719 "/>
<path style=" stroke:none;fill-rule:evenodd;fill:rgb(94.509804%,94.117647%,91.764706%);fill-opacity:1;" d="M 2816.671875 4718.199219 C 2825.597656 4706.335938 2835.101562 4694.441406 2840.359375 4681.105469 C 2896.550781 4739.003906 2980.585938 4743.433594 3044.960938 4697.0625 C 3081.785156 4675.589844 3123.582031 4651.195312 3165.265625 4621.167969 C 3200.894531 4595.507812 3231.917969 4569.496094 3260 4544.875 C 3369.660156 4737.851562 3500.507812 4879.78125 3643.550781 4953.074219 C 3630.785156 4980.164062 3617.128906 5008.792969 3601.214844 5037.914062 C 3576.574219 5082.992188 3551.046875 5123.941406 3527.101562 5159.207031 C 3517.289062 5177.160156 3510.871094 5195.578125 3508.445312 5214.722656 C 3457.417969 5200.050781 3401.226562 5212.597656 3360.761719 5246.671875 C 3146.617188 5135.398438 2963.261719 4955.550781 2816.671875 4718.199219 "/>
<path style=" stroke:none;fill-rule:evenodd;fill:rgb(94.509804%,94.117647%,91.764706%);fill-opacity:1;" d="M 2683.046875 4464.15625 C 2588.253906 4252.09375 2515.933594 4008.003906 2469.503906 3741.4375 C 2491.382812 3731.71875 2511.339844 3718.078125 2526.746094 3700.136719 C 2557.324219 3745.621094 2610.09375 3771.105469 2668.683594 3767.152344 C 2711.292969 3768.378906 2759.667969 3769.761719 2810.925781 3766.300781 C 2863.253906 3762.769531 2909.914062 3754.933594 2952.589844 3747.785156 L 2952.496094 3747.894531 C 2964.160156 3745.453125 2973.480469 3744.019531 2984.71875 3742.628906 C 3019.6875 3928.257812 3067.234375 4100.574219 3125.398438 4254.199219 C 3113.207031 4258.964844 3102.460938 4264.734375 3091.347656 4272.738281 C 3058.894531 4301.355469 3021.410156 4331.722656 2978.855469 4362.375 C 2937.171875 4392.402344 2896.46875 4418.316406 2859.644531 4439.792969 C 2834.050781 4458.230469 2815.335938 4482.269531 2804.558594 4509.589844 C 2771.007812 4476.285156 2727.222656 4461.351562 2683.046875 4464.15625 "/>
<path style=" stroke:none;fill-rule:evenodd;fill:rgb(94.509804%,94.117647%,91.764706%);fill-opacity:1;" d="M 2917.5625 3001.148438 C 2917.5625 3148.359375 2925.664062 3292.261719 2939.90625 3430.445312 C 2934.8125 3430.492188 2933.695312 3431.34375 2932.320312 3431.4375 C 2889.644531 3438.582031 2841.773438 3444.550781 2789.445312 3448.082031 C 2738.1875 3451.539062 2689.9375 3452.03125 2647.328125 3450.800781 C 2602.6875 3453.8125 2563.894531 3474.386719 2537.113281 3506.046875 C 2512.328125 3470.113281 2473.324219 3444.894531 2428.128906 3438.542969 C 2414.417969 3297.277344 2407.351562 3150.914062 2407.09375 3000 C 2406.835938 2849.085938 2414.417969 2702.722656 2428.128906 2561.457031 C 2473.324219 2555.105469 2512.328125 2529.886719 2537.113281 2493.953125 C 2563.894531 2525.613281 2602.6875 2546.183594 2647.328125 2549.199219 C 2689.9375 2547.96875 2738.1875 2548.460938 2789.445312 2551.917969 C 2841.773438 2555.449219 2889.644531 2561.417969 2932.320312 2568.5625 C 2933.695312 2568.65625 2934.8125 2569.507812 2939.90625 2569.554688 C 2925.664062 2707.738281 2917.5625 2851.640625 2917.5625 2998.851562 L 2917.5625 3001.148438 "/>
<path style=" stroke:none;fill-rule:evenodd;fill:rgb(94.509804%,94.117647%,91.764706%);fill-opacity:1;" d="M 4892.953125 2999.996094 C 4889.992188 4207.640625 4419.660156 5200.636719 3791.554688 5331.3125 C 3796.253906 5324.980469 3801.417969 5318.417969 3805.324219 5311.273438 C 3829.265625 5276.007812 3856.4375 5235.960938 3881.078125 5190.882812 C 3906.230469 5144.863281 3924.710938 5101.304688 3941.628906 5061.480469 L 3941.664062 5061.613281 C 3952.175781 5042.386719 3958.15625 5021.140625 3960.214844 5000.628906 C 4440.984375 4901.808594 4816.636719 4043.875 4816.636719 3001.148438 L 4816.636719 2998.851562 C 4816.636719 1956.125 4440.984375 1098.191406 3960.214844 999.371094 C 3958.15625 978.859375 3952.175781 957.613281 3941.664062 938.386719 L 3941.628906 938.519531 C 3924.710938 898.695312 3906.230469 855.136719 3881.078125 809.117188 C 3856.4375 764.039062 3829.265625 723.992188 3805.324219 688.722656 C 3801.417969 681.582031 3796.253906 675.019531 3791.554688 668.6875 C 4419.660156 799.363281 4889.992188 1792.359375 4892.953125 3000.003906 L 4892.953125 2999.996094 "/>
<path style=" stroke:none;fill-rule:evenodd;fill:rgb(94.509804%,94.117647%,91.764706%);fill-opacity:1;" d="M 1566.148438 4683.824219 C 1665.261719 4859.402344 1783.386719 5003.597656 1916.941406 5112.179688 C 1938.117188 5082.460938 1969.816406 5059.027344 2008.003906 5049.511719 C 2050.164062 5043.230469 2097.421875 5033.632812 2147.421875 5021.839844 C 2167.8125 5017.027344 2187.167969 5013.445312 2179.054688 5014.726562 C 2198.328125 5009.925781 2216.4375 5008.851562 2235.054688 5011.078125 L 2234.835938 5011.15625 C 2242.753906 4990.203125 2255.398438 4971.074219 2272.464844 4954.378906 C 2305.65625 4927.636719 2342.023438 4895.921875 2378.746094 4859.996094 C 2399.425781 4839.769531 2419.839844 4819.847656 2437.824219 4800.328125 C 2430.046875 4801.136719 2423.035156 4801.546875 2414.984375 4801.183594 L 2415.089844 4801.089844 C 2371.878906 4803.390625 2324.632812 4805.929688 2272.242188 4803.554688 C 2220.921875 4801.226562 2173.007812 4794.414062 2130.808594 4788.402344 C 2068.574219 4785.578125 2016.671875 4750.605469 1993.105469 4696.816406 C 1955.339844 4741.007812 1894.84375 4762.90625 1834.566406 4748.027344 L 1834.683594 4747.957031 C 1791.859375 4741.769531 1745.027344 4735.027344 1694.109375 4722.460938 C 1647.386719 4710.929688 1604.488281 4697.273438 1566.148438 4683.824219 "/>
<path style=" stroke:none;fill-rule:evenodd;fill:rgb(94.509804%,94.117647%,91.764706%);fill-opacity:1;" d="M 2476.128906 5195.4375 C 2482.195312 5190.902344 2488.605469 5186.484375 2494.1875 5181.023438 C 2527.382812 5154.28125 2565.058594 5123.90625 2601.78125 5087.984375 C 2639.269531 5051.308594 2669.65625 5015.109375 2697.460938 4981.957031 C 2752.28125 4928.324219 2758.609375 4843.570312 2718.617188 4781.527344 C 2730.953125 4779.570312 2742.351562 4776.03125 2753.792969 4770.921875 C 2873.027344 4963.039062 3015.214844 5119.144531 3178.253906 5229.515625 C 3142.152344 5234.3125 3102.683594 5238.300781 3060.855469 5240.621094 C 3009.5625 5243.464844 2961.308594 5243.375 2918.71875 5241.636719 C 2868.882812 5244.398438 2827.667969 5268.164062 2800.613281 5305.746094 C 2778.074219 5266.628906 2739.976562 5237.480469 2692.066406 5228.855469 C 2648.933594 5225.414062 2601.046875 5219.566406 2549.429688 5210.277344 C 2523.953125 5205.691406 2499.546875 5200.777344 2476.128906 5195.4375 "/>
<path style=" stroke:none;fill-rule:evenodd;fill:rgb(94.509804%,94.117647%,91.764706%);fill-opacity:1;" d="M 2755.25 4622.769531 C 2755.25 4587.882812 2726.96875 4559.597656 2692.078125 4559.597656 C 2657.191406 4559.597656 2628.90625 4587.882812 2628.90625 4622.769531 C 2628.90625 4657.660156 2657.191406 4685.941406 2692.078125 4685.941406 C 2726.96875 4685.941406 2755.25 4657.660156 2755.25 4622.769531 "/>
<path style=" stroke:none;fill-rule:evenodd;fill:rgb(94.509804%,94.117647%,91.764706%);fill-opacity:1;" d="M 2536.5625 4840.324219 C 2526.554688 4852.261719 2465.585938 4921.15625 2451.871094 4934.128906 C 2423.988281 4960.515625 2366.789062 5004.820312 2354.839844 5014.449219 C 2332.28125 5036.511719 2331.832031 5072.515625 2353.898438 5095.070312 C 2377.585938 5119.28125 2412.132812 5118.023438 2434.6875 5095.957031 L 2434.621094 5096.121094 C 2455.445312 5083.085938 2518.390625 5028.546875 2532.160156 5016.203125 C 2550.785156 4999.507812 2606.074219 4934.105469 2616.085938 4922.171875 L 2616.085938 4922.21875 C 2638.636719 4900.15625 2639.035156 4863.984375 2616.96875 4841.429688 C 2594.90625 4818.875 2559.113281 4818.261719 2536.5625 4840.324219 "/>
<path style=" stroke:none;fill-rule:evenodd;fill:rgb(94.509804%,94.117647%,91.764706%);fill-opacity:1;" d="M 2187.433594 5119.082031 C 2135.621094 5131.433594 2063.867188 5140.730469 2048.6875 5142.992188 C 2018.074219 5150.621094 1999.476562 5181.453125 2007.105469 5212.070312 C 2015.296875 5244.9375 2045.742188 5261.320312 2076.359375 5253.691406 L 2076.21875 5253.800781 C 2100.773438 5253.085938 2182.820312 5238.601562 2200.78125 5234.183594 C 2245.253906 5222.296875 2263.878906 5191.3125 2256.246094 5160.695312 C 2248.617188 5130.082031 2218.050781 5111.453125 2187.433594 5119.082031 "/>
<path style=" stroke:none;fill-rule:evenodd;fill:rgb(94.509804%,94.117647%,91.764706%);fill-opacity:1;" d="M 2656.9375 5327.476562 C 2641.410156 5326.238281 2549.929688 5316.492188 2531.40625 5312.835938 C 2493.742188 5305.40625 2424.480469 5284.476562 2409.710938 5280.320312 C 2378.65625 5274.730469 2349.054688 5295.230469 2343.46875 5326.285156 C 2337.464844 5359.621094 2358.519531 5387.046875 2389.570312 5392.636719 L 2389.402344 5392.679688 C 2412.09375 5402.089844 2493.019531 5421.769531 2511.0625 5425.839844 C 2535.464844 5431.339844 2620.808594 5438.484375 2636.335938 5439.722656 L 2636.296875 5439.75 C 2667.347656 5445.339844 2697.054688 5424.695312 2702.644531 5393.640625 C 2708.234375 5362.589844 2687.992188 5333.066406 2656.9375 5327.476562 "/>
<path style=" stroke:none;fill-rule:evenodd;fill:rgb(94.509804%,94.117647%,91.764706%);fill-opacity:1;" d="M 3746.414062 4973.039062 C 3740.324219 4987.375 3702.121094 5071.066406 3692.789062 5087.480469 C 3673.820312 5120.851562 3632.039062 5179.925781 3623.421875 5192.621094 C 3608.289062 5220.308594 3618.367188 5254.875 3646.050781 5270.007812 C 3675.773438 5286.253906 3708.453125 5274.964844 3723.585938 5247.277344 L 3723.570312 5247.453125 C 3739.683594 5228.90625 3783.96875 5158.371094 3793.539062 5142.546875 C 3806.480469 5121.144531 3840.28125 5042.472656 3846.371094 5028.136719 C 3861.503906 5000.449219 3851.332031 4965.757812 3823.644531 4950.628906 C 3795.960938 4935.492188 3761.546875 4945.355469 3746.414062 4973.039062 "/>
<path style=" stroke:none;fill-rule:evenodd;fill:rgb(94.509804%,94.117647%,91.764706%);fill-opacity:1;" d="M 1422.964844 4387.363281 C 1422.964844 4352.476562 1394.679688 4324.191406 1359.792969 4324.191406 C 1324.902344 4324.191406 1296.621094 4352.476562 1296.621094 4387.363281 C 1296.621094 4422.253906 1324.902344 4450.535156 1359.792969 4450.535156 C 1394.679688 4450.535156 1422.964844 4422.253906 1422.964844 4387.363281 "/>
<path style=" stroke:none;fill-rule:evenodd;fill:rgb(94.509804%,94.117647%,91.764706%);fill-opacity:1;" d="M 4636.953125 3000 C 4636.953125 4003.222656 4292.246094 4816.523438 3867.042969 4816.523438 C 3441.839844 4816.523438 3097.132812 4003.222656 3097.132812 3000 C 3097.132812 1996.777344 3441.839844 1183.476562 3867.042969 1183.476562 C 4292.246094 1183.476562 4636.953125 1996.777344 4636.953125 3000 "/>
<path style=" stroke:none;fill-rule:evenodd;fill:rgb(16.470588%,16.078431%,16.470588%);fill-opacity:1;" d="M 4598.214844 3000 C 4598.214844 3913.734375 4282.84375 4654.484375 3893.828125 4654.484375 C 3504.8125 4654.484375 3155.035156 3913.734375 3155.035156 3000 C 3155.035156 2086.265625 3504.8125 1345.515625 3893.828125 1345.515625 C 4282.84375 1345.515625 4598.214844 2086.265625 4598.214844 3000 "/>
<path style=" stroke:none;fill-rule:evenodd;fill:rgb(94.509804%,94.117647%,91.764706%);fill-opacity:1;" d="M 4543.128906 3000 C 4543.128906 3842.277344 4240.953125 4582.441406 3882.359375 4582.441406 C 3661 4582.441406 3457.550781 4299.980469 3334.4375 3885.972656 C 3386.242188 3970.566406 3445.867188 4018.4375 3509.632812 4018.4375 C 3705.367188 4018.4375 3864.300781 3563.507812 3866.429688 3000 C 3864.300781 2436.492188 3705.367188 1981.5625 3509.632812 1981.5625 C 3445.867188 1981.5625 3386.242188 2029.433594 3334.4375 2114.027344 C 3457.550781 1700.019531 3661 1417.558594 3882.359375 1417.558594 C 4240.953125 1417.558594 4543.128906 2157.722656 4543.128906 3000 "/>
<path style=" stroke:none;fill-rule:evenodd;fill:rgb(94.509804%,94.117647%,91.764706%);fill-opacity:1;" d="M 3773.398438 3000 C 3771.382812 3485.777344 3641.308594 3880.785156 3475.300781 3912.523438 C 3601.058594 3767.460938 3691.6875 3413.664062 3693.335938 3000 C 3694.984375 2586.335938 3601.058594 2232.539062 3475.300781 2087.476562 C 3641.308594 2119.214844 3771.382812 2514.222656 3773.398438 3000 "/>
<path style=" stroke:none;fill-rule:evenodd;fill:rgb(94.509804%,94.117647%,91.764706%);fill-opacity:1;" d="M 2127.4375 3496.132812 C 2112.148438 3493.148438 2021.980469 3472.910156 2003.988281 3467.1875 C 1967.402344 3455.558594 1900.824219 3427.074219 1886.617188 3421.277344 L 1886.863281 3421.015625 C 1856.640625 3411.960938 1824.792969 3429.117188 1815.734375 3459.339844 C 1806.011719 3491.789062 1823.835938 3521.410156 1854.058594 3530.46875 L 1853.882812 3530.492188 C 1875.367188 3542.40625 1953.554688 3571.09375 1971.023438 3577.167969 C 1994.648438 3585.390625 2078.640625 3602.117188 2093.925781 3605.101562 L 2093.882812 3605.125 C 2124.109375 3614.1875 2155.953125 3597.027344 2165.011719 3566.800781 C 2174.070312 3536.578125 2156.914062 3504.730469 2126.6875 3495.671875 L 2127.4375 3496.132812 "/>
<path style=" stroke:none;fill-rule:evenodd;fill:rgb(94.509804%,94.117647%,91.764706%);fill-opacity:1;" d="M 1217.460938 3000 C 1217.460938 2965.109375 1189.175781 2936.828125 1154.285156 2936.828125 C 1119.398438 2936.828125 1091.113281 2965.109375 1091.113281 3000 C 1091.113281 3034.890625 1119.398438 3063.171875 1154.285156 3063.171875 C 1189.175781 3063.171875 1217.460938 3034.890625 1217.460938 3000 "/>
<path style=" stroke:none;fill-rule:evenodd;fill:rgb(94.509804%,94.117647%,91.764706%);fill-opacity:1;" d="M 1615.445312 3294.839844 C 1601.476562 3287.953125 1520.066406 3245.101562 1504.203125 3234.863281 C 1471.949219 3214.050781 1415.320312 3169.015625 1403.128906 3159.695312 C 1376.339844 3143.03125 1341.261719 3151.144531 1324.59375 3177.941406 C 1306.703125 3206.699219 1316.050781 3239.949219 1342.84375 3256.613281 C 1360.453125 3273.746094 1428.300781 3321.910156 1443.558594 3332.355469 C 1464.203125 3346.484375 1540.851562 3384.652344 1554.820312 3391.535156 C 1581.613281 3408.203125 1616.820312 3399.996094 1633.484375 3373.207031 C 1650.148438 3346.414062 1642.238281 3311.503906 1615.445312 3294.839844 "/>
<path style=" stroke:none;fill-rule:evenodd;fill:rgb(94.509804%,94.117647%,91.764706%);fill-opacity:1;" d="M 2467.53125 3596.355469 C 2467.53125 3561.46875 2439.25 3533.183594 2404.359375 3533.183594 C 2369.472656 3533.183594 2341.1875 3561.46875 2341.1875 3596.355469 C 2341.1875 3631.246094 2369.472656 3659.527344 2404.359375 3659.527344 C 2439.25 3659.527344 2467.53125 3631.246094 2467.53125 3596.355469 "/>
<path style=" stroke:none;fill-rule:evenodd;fill:rgb(94.509804%,94.117647%,91.764706%);fill-opacity:1;" d="M 2029.496094 4166.769531 C 2031.675781 4226.34375 1999.820312 4284.734375 1943.320312 4313.839844 C 1906.988281 4337.339844 1867.292969 4362.992188 1820.671875 4387.007812 C 1803.308594 4395.949219 1786.746094 4404.6875 1769.820312 4412.238281 C 1820.738281 4424.804688 1868.863281 4434.269531 1911.691406 4440.457031 C 1960.601562 4452.527344 1997.402344 4485.300781 2016.855469 4527.8125 C 2047.546875 4491.371094 2093.894531 4469.335938 2145.167969 4471.660156 C 2187.367188 4477.675781 2235.367188 4482.613281 2286.6875 4484.941406 C 2339.078125 4487.316406 2387.316406 4486.773438 2430.523438 4484.46875 C 2480.769531 4486.746094 2523.113281 4511.769531 2550.507812 4549.554688 C 2558.660156 4533.765625 2569.394531 4519.058594 2583.121094 4506.230469 C 2590.28125 4499.535156 2597.828125 4493.5625 2605.792969 4488.4375 C 2527.777344 4310.25 2465.414062 4112.277344 2419.746094 3897.671875 C 2414.199219 3906.414062 2407.914062 3915.554688 2400.472656 3923.320312 L 2400.46875 3923.179688 C 2373.757812 3957.21875 2344.5625 3994.453125 2308.28125 4032.324219 C 2272.742188 4069.421875 2236.070312 4101 2203.761719 4128.808594 C 2156.484375 4178.152344 2089.636719 4193.515625 2029.496094 4166.769531 "/>
<path style=" stroke:none;fill-rule:evenodd;fill:rgb(94.509804%,94.117647%,91.764706%);fill-opacity:1;" d="M 2235.0625 3786.910156 C 2225.445312 3799.164062 2166.742188 3870 2153.457031 3883.414062 C 2126.445312 3910.6875 2070.769531 3956.996094 2059.140625 3967.007812 L 2059.023438 3966.667969 C 2037.195312 3989.453125 2037.96875 4025.621094 2060.757812 4047.445312 C 2085.214844 4070.878906 2119.675781 4068.582031 2141.503906 4045.796875 C 2161.894531 4032.089844 2223.007812 3975.625 2236.367188 3962.839844 C 2254.441406 3945.550781 2307.585938 3878.386719 2317.199219 3866.132812 L 2317.199219 3866.183594 C 2339.027344 3843.398438 2338.25 3807.230469 2315.464844 3785.402344 C 2292.683594 3763.578125 2256.890625 3764.125 2235.0625 3786.910156 "/>
<path style=" stroke:none;fill-rule:evenodd;fill:rgb(94.509804%,94.117647%,91.764706%);fill-opacity:1;" d="M 1211.570312 3263.027344 C 1229.511719 3622.75 1284.925781 3947.730469 1372.34375 4228.570312 C 1396.78125 4230.65625 1422.257812 4238.238281 1444.472656 4252.148438 C 1451.25 4256.394531 1457.675781 4260.898438 1463.582031 4265.9375 C 1474.035156 4222.679688 1502.597656 4184.363281 1545.265625 4162.386719 C 1584.859375 4146.597656 1628.949219 4126.992188 1674.621094 4103.46875 C 1721.246094 4079.453125 1762.8125 4054.972656 1799.144531 4031.46875 C 1841.507812 4009.648438 1888.582031 4009.085938 1929.671875 4025.332031 C 1927.949219 3983.761719 1943.660156 3941.980469 1974.800781 3909.472656 C 2007.109375 3881.664062 2042.429688 3848.789062 2077.96875 3811.691406 C 2112.886719 3775.238281 2144.429688 3738.992188 2170.550781 3705.996094 C 2142.160156 3714.273438 2111.363281 3714.402344 2080.929688 3705.28125 L 2081.050781 3705.214844 C 2038.582031 3696.929688 1992.136719 3687.890625 1941.902344 3672.832031 C 1892.691406 3658.085938 1847.878906 3639.8125 1808.410156 3623.707031 C 1740.769531 3603.433594 1696.253906 3545.589844 1695.335938 3476.929688 C 1644.449219 3515.546875 1573.582031 3520.535156 1516.105469 3484.78125 C 1477.296875 3465.65625 1434.914062 3444.738281 1390.382812 3417.039062 C 1346.757812 3389.90625 1308.304688 3360.523438 1274.4375 3334.636719 C 1244.523438 3316.027344 1224.046875 3292.722656 1211.570312 3263.027344 "/>
<path style=" stroke:none;fill-rule:evenodd;fill:rgb(94.509804%,94.117647%,91.764706%);fill-opacity:1;" d="M 2329.679688 3000 C 2329.421875 3153.371094 2337.234375 3301.898438 2351.191406 3446.339844 C 2321.144531 3456.847656 2295.238281 3475.488281 2276.496094 3500.347656 C 2260.152344 3454.300781 2223.488281 3416.980469 2173.097656 3401.878906 C 2130.628906 3393.59375 2083.710938 3382.378906 2033.472656 3367.320312 C 1984.261719 3352.570312 1938.910156 3336.09375 1899.441406 3319.988281 C 1849.011719 3304.875 1797.378906 3315.179688 1758.390625 3344.699219 C 1756.472656 3293.789062 1731.035156 3245.101562 1684.519531 3216.167969 C 1645.710938 3197.039062 1603.371094 3173.917969 1558.839844 3146.21875 C 1515.21875 3119.082031 1475.769531 3091.296875 1441.902344 3065.40625 C 1399.101562 3038.78125 1349.484375 3034.300781 1305.445312 3050.058594 C 1309.152344 3038.6875 1312.144531 3026.257812 1313.222656 3013.828125 C 1313.648438 3008.945312 1313.847656 3004.09375 1313.832031 2999.28125 L 1313.832031 3000.71875 C 1313.847656 2995.90625 1313.648438 2991.054688 1313.222656 2986.171875 C 1312.144531 2973.742188 1309.152344 2961.3125 1305.445312 2949.941406 C 1349.484375 2965.699219 1399.101562 2961.21875 1441.902344 2934.59375 C 1475.769531 2908.703125 1515.21875 2880.917969 1558.839844 2853.78125 C 1603.371094 2826.082031 1645.710938 2802.960938 1684.519531 2783.832031 C 1731.035156 2754.898438 1756.472656 2706.210938 1758.390625 2655.300781 C 1797.378906 2684.820312 1849.011719 2695.125 1899.441406 2680.011719 C 1938.910156 2663.90625 1984.261719 2647.429688 2033.472656 2632.679688 C 2083.710938 2617.621094 2130.628906 2606.40625 2173.097656 2598.121094 C 2223.488281 2583.019531 2260.152344 2545.699219 2276.496094 2499.652344 C 2295.238281 2524.511719 2321.144531 2543.152344 2351.191406 2553.660156 C 2337.234375 2698.101562 2329.945312 2846.628906 2329.679688 3000 "/>
</g>
</svg>
