<?xml version="1.0" encoding="UTF-8"?>
<svg xmlns="http://www.w3.org/2000/svg" xmlns:xlink="http://www.w3.org/1999/xlink" width="600.000000mm" height="600.000000mm" viewBox="0 0 6000 6000" version="1.1">
<g id="surface2511">
<path style="fill-rule:evenodd;fill:rgb(94.509804%,94.117647%,91.764706%);fill-opacity:1;stroke-width:0.3;stroke-linecap:butt;stroke-linejoin:miter;stroke:rgb(16.470588%,16.078431%,16.470588%);stroke-opacity:1;stroke-miterlimit:3;" d="M 300 0 C 300 79.564844 268.392969 155.871094 212.132031 212.132031 C 155.871094 268.392969 79.564844 300 0 300 C -79.564844 300 -155.871094 268.392969 -212.132031 212.132031 C -268.392969 155.871094 -300 79.564844 -300 0 C -300 -79.564844 -268.392969 -155.871094 -212.132031 -212.132031 C -155.871094 -268.392969 -79.564844 -300 0 -300 C 79.564844 -300 155.871094 -268.392969 212.132031 -212.132031 C 268.392969 -155.871094 300 -79.564844 300 0 " transform="matrix(10,0,0,-10,3000,3000)"/>
<path style=" stroke:none;fill-rule:evenodd;fill:rgb(73.333333%,11.764706%,6.27451%);fill-opacity:1;" d="M 5850 3000 C 5850 2244.132812 5549.734375 1519.222656 5015.253906 984.746094 C 4480.777344 450.265625 3755.867188 150 3000 150 C 2244.132812 150 1519.222656 450.265625 984.746094 984.746094 C 450.265625 1519.222656 150 2244.132812 150 3000 C 150 3755.867188 450.265625 4480.777344 984.746094 5015.253906 C 1519.222656 5549.734375 2244.132812 5850 3000 5850 C 3755.867188 5850 4480.777344 5549.734375 5015.253906 5015.253906 C 5549.734375 4480.777344 5850 3755.867188 5850 3000 M 5100 3000 C 5100 2443.046875 4878.75 1908.902344 4484.925781 1515.074219 C 4091.097656 1121.25 3556.953125 900 3000 900 C 2443.046875 900 1908.902344 1121.25 1515.074219 1515.074219 C 1121.25 1908.902344 900 2443.046875 900 3000 C 900 3556.953125 1121.25 4091.097656 1515.074219 4484.925781 C 1908.902344 4878.75 2443.046875 5100 3000 5100 C 3556.953125 5100 4091.097656 4878.75 4484.925781 4484.925781 C 4878.75 4091.097656 5100 3556.953125 5100 3000 "/>
<path style=" stroke:none;fill-rule:evenodd;fill:rgb(73.333333%,11.764706%,6.27451%);fill-opacity:1;" d="M 1195 2960 C 1195 2934.035156 1203.421875 2908.773438 1219 2888 L 1243 2856 C 1259.796875 2833.601562 1273.925781 2809.320312 1285.097656 2783.648438 L 1443.304688 2420.097656 C 1459.1875 2383.601562 1495.199219 2360 1535 2360 L 2535 2360 C 2574.800781 2360 2610.8125 2383.601562 2626.695312 2420.097656 L 2784.902344 2783.648438 C 2796.074219 2809.320312 2810.203125 2833.601562 2827 2856 L 2851 2888 C 2866.578125 2908.773438 2875 2934.035156 2875 2960 L 2875 3220 C 2875 3275.226562 2830.226562 3320 2775 3320 L 1295 3320 C 1239.773438 3320 1195 3275.226562 1195 3220 L 1195 2960 M 1385 2800 L 1522.496094 2484.039062 C 1528.851562 2469.441406 1543.253906 2460 1559.175781 2460 L 2510.824219 2460 C 2526.746094 2460 2541.148438 2469.441406 2547.503906 2484.039062 L 2685 2800 L 1385 2800 M 1295 3360 L 1535 3360 L 1535 3580 C 1535 3613.136719 1508.136719 3640 1475 3640 L 1355 3640 C 1321.863281 3640 1295 3613.136719 1295 3580 L 1295 3360 M 2535 3360 L 2775 3360 L 2775 3580 C 2775 3613.136719 2748.136719 3640 2715 3640 L 2595 3640 C 2561.863281 3640 2535 3613.136719 2535 3580 L 2535 3360 "/>
<path style=" stroke:none;fill-rule:evenodd;fill:rgb(16.470588%,16.078431%,16.470588%);fill-opacity:1;" d="M 3125 2960 C 3125 2934.035156 3133.421875 2908.773438 3149 2888 L 3173 2856 C 3189.796875 2833.601562 3203.925781 2809.320312 3215.097656 2783.648438 L 3373.304688 2420.097656 C 3389.1875 2383.601562 3425.199219 2360 3465 2360 L 4465 2360 C 4504.800781 2360 4540.8125 2383.601562 4556.695312 2420.097656 L 4714.902344 2783.648438 C 4726.074219 2809.320312 4740.203125 2833.601562 4757 2856 L 4781 2888 C 4796.578125 2908.773438 4805 2934.035156 4805 2960 L 4805 3220 C 4805 3275.226562 4760.226562 3320 4705 3320 L 3225 3320 C 3169.773438 3320 3125 3275.226562 3125 3220 L 3125 2960 M 3315 2800 L 3452.496094 2484.039062 C 3458.851562 2469.441406 3473.253906 2460 3489.175781 2460 L 4440.824219 2460 C 4456.746094 2460 4471.148438 2469.441406 4477.503906 2484.039062 L 4615 2800 L 3315 2800 M 3225 3360 L 3465 3360 L 3465 3580 C 3465 3613.136719 3438.136719 3640 3405 3640 L 3285 3640 C 3251.863281 3640 3225 3613.136719 3225 3580 L 3225 3360 M 4465 3360 L 4705 3360 L 4705 3580 C 4705 3613.136719 4678.136719 3640 4645 3640 L 4525 3640 C 4491.863281 3640 4465 3613.136719 4465 3580 L 4465 3360 "/>
</g>
</svg>
