<?xml version="1.0" encoding="UTF-8"?>
<svg xmlns="http://www.w3.org/2000/svg" xmlns:xlink="http://www.w3.org/1999/xlink" width="600.000000mm" height="600.000000mm" viewBox="0 0 6000 6000" version="1.1">
<g id="surface2516">
<path style="fill-rule:evenodd;fill:rgb(94.509804%,94.117647%,91.764706%);fill-opacity:1;stroke-width:0.3;stroke-linecap:butt;stroke-linejoin:miter;stroke:rgb(16.470588%,16.078431%,16.470588%);stroke-opacity:1;stroke-miterlimit:3;" d="M 300 0 C 300 79.564844 268.392969 155.871094 212.132031 212.132031 C 155.871094 268.392969 79.564844 300 0 300 C -79.564844 300 -155.871094 268.392969 -212.132031 212.132031 C -268.392969 155.871094 -300 79.564844 -300 0 C -300 -79.564844 -268.392969 -155.871094 -212.132031 -212.132031 C -155.871094 -268.392969 -79.564844 -300 0 -300 C 79.564844 -300 155.871094 -268.392969 212.132031 -212.132031 C 268.392969 -155.871094 300 -79.564844 300 0 " transform="matrix(10,0,0,-10,3000,3000)"/>
<path style=" stroke:none;fill-rule:evenodd;fill:rgb(73.333333%,11.764706%,6.27451%);fill-opacity:1;" d="M 5850 3000 C 5850 2244.132812 5549.734375 1519.222656 5015.253906 984.746094 C 4480.777344 450.265625 3755.867188 150 3000 150 C 2244.132812 150 1519.222656 450.265625 984.746094 984.746094 C 450.265625 1519.222656 150 2244.132812 150 3000 C 150 3755.867188 450.265625 4480.777344 984.746094 5015.253906 C 1519.222656 5549.734375 2244.132812 5850 3000 5850 C 3755.867188 5850 4480.777344 5549.734375 5015.253906 5015.253906 C 5549.734375 4480.777344 5850 3755.867188 5850 3000 M 5100 3000 C 5100 2443.046875 4878.75 1908.902344 4484.925781 1515.074219 C 4091.097656 1121.25 3556.953125 900 3000 900 C 2443.046875 900 1908.902344 1121.25 1515.074219 1515.074219 C 1121.25 1908.902344 900 2443.046875 900 3000 C 900 3556.953125 1121.25 4091.097656 1515.074219 4484.925781 C 1908.902344 4878.75 2443.046875 5100 3000 5100 C 3556.953125 5100 4091.097656 4878.75 4484.925781 4484.925781 C 4878.75 4091.097656 5100 3556.953125 5100 3000 "/>
<path style=" stroke:none;fill-rule:evenodd;fill:rgb(73.333333%,11.764706%,6.27451%);fill-opacity:1;" d="M 1465.277344 4000 C 1443.03125 4000 1425 3981.96875 1425 3959.722656 L 1425 3556.945312 C 1425 3534.699219 1443.03125 3516.664062 1465.277344 3516.664062 L 1586.109375 3516.664062 C 1608.355469 3516.664062 1626.390625 3534.699219 1626.390625 3556.945312 L 1626.390625 3959.722656 C 1626.390625 3981.96875 1608.355469 4000 1586.109375 4000 L 1465.277344 4000 M 1706.945312 4000 C 1684.699219 4000 1666.667969 3981.96875 1666.667969 3959.722656 L 1666.667969 3556.945312 C 1666.667969 3534.699219 1684.699219 3516.664062 1706.945312 3516.664062 L 1827.777344 3516.664062 C 1850.023438 3516.664062 1868.054688 3534.699219 1868.054688 3556.945312 L 1868.054688 3667.707031 C 1868.054688 3689.953125 1886.089844 3707.984375 1908.332031 3707.984375 L 1984.859375 3707.984375 C 2005.546875 3707.984375 2025.4375 3700.027344 2040.417969 3685.761719 L 2066.667969 3660.765625 C 2089.136719 3639.367188 2118.972656 3627.429688 2150 3627.429688 C 2181.027344 3627.429688 2210.863281 3639.367188 2233.332031 3660.765625 L 2259.582031 3685.761719 C 2274.5625 3700.027344 2294.453125 3707.984375 2315.140625 3707.984375 L 2391.667969 3707.984375 C 2413.910156 3707.984375 2431.945312 3689.953125 2431.945312 3667.707031 L 2431.945312 3556.945312 C 2431.945312 3534.699219 2449.976562 3516.664062 2472.222656 3516.664062 L 2593.054688 3516.664062 C 2615.300781 3516.664062 2633.335938 3534.699219 2633.335938 3556.945312 L 2633.335938 3959.722656 C 2633.335938 3981.96875 2615.300781 4000 2593.054688 4000 L 2472.222656 4000 C 2449.976562 4000 2431.945312 3981.96875 2431.945312 3959.722656 L 2431.945312 3848.957031 C 2431.945312 3826.714844 2413.910156 3808.679688 2391.667969 3808.679688 L 2315.140625 3808.679688 C 2294.453125 3808.679688 2274.5625 3816.636719 2259.582031 3830.902344 L 2233.332031 3855.902344 C 2210.863281 3877.300781 2181.027344 3889.234375 2150 3889.234375 C 2118.972656 3889.234375 2089.136719 3877.300781 2066.667969 3855.902344 L 2040.417969 3830.902344 C 2025.4375 3816.636719 2005.546875 3808.679688 1984.859375 3808.679688 L 1908.332031 3808.679688 C 1886.089844 3808.679688 1868.054688 3826.714844 1868.054688 3848.957031 L 1868.054688 3959.722656 C 1868.054688 3981.96875 1850.023438 4000 1827.777344 4000 L 1706.945312 4000 M 2713.890625 4000 C 2691.644531 4000 2673.609375 3981.96875 2673.609375 3959.722656 L 2673.609375 3556.945312 C 2673.609375 3534.699219 2691.644531 3516.664062 2713.890625 3516.664062 L 2834.722656 3516.664062 C 2856.96875 3516.664062 2875 3534.699219 2875 3556.945312 L 2875 3959.722656 C 2875 3981.96875 2856.96875 4000 2834.722656 4000 L 2713.890625 4000 M 1425 3476.390625 L 1425 2167.359375 C 1425 2089.503906 1488.117188 2026.390625 1565.972656 2026.390625 L 2734.027344 2026.390625 C 2811.882812 2026.390625 2875 2089.503906 2875 2167.359375 L 2875 3476.390625 L 1425 3476.390625 "/>
<path style=" stroke:none;fill-rule:evenodd;fill:rgb(16.470588%,16.078431%,16.470588%);fill-opacity:1;" d="M 3125 3352.382812 C 3125 3327.652344 3133.019531 3303.59375 3147.855469 3283.808594 L 3170.714844 3253.332031 C 3186.714844 3232.003906 3200.167969 3208.878906 3210.808594 3184.429688 L 3361.484375 2838.1875 C 3376.609375 2803.429688 3410.90625 2780.953125 3448.808594 2780.953125 L 4401.191406 2780.953125 C 4439.097656 2780.953125 4473.394531 2803.429688 4488.519531 2838.1875 L 4639.191406 3184.429688 C 4649.832031 3208.878906 4663.285156 3232.003906 4679.285156 3253.332031 L 4702.144531 3283.808594 C 4716.980469 3303.59375 4725 3327.652344 4725 3352.382812 L 4725 3600 C 4725 3652.597656 4682.359375 3695.238281 4629.761719 3695.238281 L 3220.238281 3695.238281 C 3167.640625 3695.238281 3125 3652.597656 3125 3600 L 3125 3352.382812 M 3305.953125 3200 L 3436.902344 2899.085938 C 3442.953125 2885.183594 3456.671875 2876.191406 3471.835938 2876.191406 L 4378.167969 2876.191406 C 4393.328125 2876.191406 4407.046875 2885.183594 4413.097656 2899.085938 L 4544.046875 3200 L 3305.953125 3200 M 3220.238281 3733.332031 L 3448.808594 3733.332031 L 3448.808594 3942.855469 C 3448.808594 3974.417969 3423.226562 4000 3391.667969 4000 L 3277.382812 4000 C 3245.820312 4000 3220.238281 3974.417969 3220.238281 3942.855469 L 3220.238281 3733.332031 M 4401.191406 3733.332031 L 4629.761719 3733.332031 L 4629.761719 3942.855469 C 4629.761719 3974.417969 4604.179688 4000 4572.617188 4000 L 4458.332031 4000 C 4426.773438 4000 4401.191406 3974.417969 4401.191406 3942.855469 L 4401.191406 3733.332031 "/>
</g>
</svg>
