<?xml version="1.0" encoding="UTF-8"?>
<svg xmlns="http://www.w3.org/2000/svg" xmlns:xlink="http://www.w3.org/1999/xlink" width="600.000000mm" height="600.000000mm" viewBox="0 0 6000 6000" version="1.1">
<g id="surface3061">
<path style="fill-rule:evenodd;fill:rgb(94.509804%,94.117647%,91.764706%);fill-opacity:1;stroke-width:0.3;stroke-linecap:butt;stroke-linejoin:miter;stroke:rgb(16.470588%,16.078431%,16.470588%);stroke-opacity:1;stroke-miterlimit:3;" d="M 300 0 C 300 79.564844 268.392969 155.871094 212.132031 212.132031 C 155.871094 268.392969 79.564844 300 0 300 C -79.564844 300 -155.871094 268.392969 -212.132031 212.132031 C -268.392969 155.871094 -300 79.564844 -300 0 C -300 -79.564844 -268.392969 -155.871094 -212.132031 -212.132031 C -155.871094 -268.392969 -79.564844 -300 0 -300 C 79.564844 -300 155.871094 -268.392969 212.132031 -212.132031 C 268.392969 -155.871094 300 -79.564844 300 0 " transform="matrix(10,0,0,-10,3000,3000)"/>
<path style=" stroke:none;fill-rule:evenodd;fill:rgb(55.686275%,57.254902%,56.862745%);fill-opacity:1;" d="M 834 2952 C 834 2920.84375 844.105469 2890.527344 862.800781 2865.601562 L 891.601562 2827.199219 C 911.757812 2800.324219 928.710938 2771.1875 942.117188 2740.378906 L 1131.96875 2304.117188 C 1151.023438 2260.324219 1194.238281 2232 1242 2232 L 2442 2232 C 2489.761719 2232 2532.976562 2260.324219 2552.03125 2304.117188 L 2741.882812 2740.378906 C 2755.289062 2771.1875 2772.242188 2800.324219 2792.398438 2827.199219 L 2821.199219 2865.601562 C 2839.894531 2890.527344 2850 2920.84375 2850 2952 L 2850 3264 C 2850 3330.273438 2796.273438 3384 2730 3384 L 954 3384 C 887.726562 3384 834 3330.273438 834 3264 L 834 2952 M 1062 2760 L 1226.996094 2380.847656 C 1234.621094 2363.328125 1251.90625 2352 1271.011719 2352 L 2412.988281 2352 C 2432.09375 2352 2449.378906 2363.328125 2457.003906 2380.847656 L 2622 2760 L 1062 2760 M 954 3432 L 1242 3432 L 1242 3696 C 1242 3735.765625 1209.765625 3768 1170 3768 L 1026 3768 C 986.234375 3768 954 3735.765625 954 3696 L 954 3432 M 2442 3432 L 2730 3432 L 2730 3696 C 2730 3735.765625 2697.765625 3768 2658 3768 L 2514 3768 C 2474.234375 3768 2442 3735.765625 2442 3696 L 2442 3432 "/>
<path style=" stroke:none;fill-rule:evenodd;fill:rgb(55.686275%,57.254902%,56.862745%);fill-opacity:1;" d="M 3150 2952 C 3150 2920.84375 3160.105469 2890.527344 3178.800781 2865.601562 L 3207.601562 2827.199219 C 3227.757812 2800.324219 3244.710938 2771.1875 3258.117188 2740.378906 L 3447.96875 2304.117188 C 3467.023438 2260.324219 3510.238281 2232 3558 2232 L 4758 2232 C 4805.761719 2232 4848.976562 2260.324219 4868.03125 2304.117188 L 5057.882812 2740.378906 C 5071.289062 2771.1875 5088.242188 2800.324219 5108.398438 2827.199219 L 5137.199219 2865.601562 C 5155.894531 2890.527344 5166 2920.84375 5166 2952 L 5166 3264 C 5166 3330.273438 5112.273438 3384 5046 3384 L 3270 3384 C 3203.726562 3384 3150 3330.273438 3150 3264 L 3150 2952 M 3378 2760 L 3542.996094 2380.847656 C 3550.621094 2363.328125 3567.90625 2352 3587.011719 2352 L 4728.988281 2352 C 4748.09375 2352 4765.378906 2363.328125 4773.003906 2380.847656 L 4938 2760 L 3378 2760 M 3270 3432 L 3558 3432 L 3558 3696 C 3558 3735.765625 3525.765625 3768 3486 3768 L 3342 3768 C 3302.234375 3768 3270 3735.765625 3270 3696 L 3270 3432 M 4758 3432 L 5046 3432 L 5046 3696 C 5046 3735.765625 5013.765625 3768 4974 3768 L 4830 3768 C 4790.234375 3768 4758 3735.765625 4758 3696 L 4758 3432 "/>
<path style=" stroke:none;fill-rule:evenodd;fill:rgb(16.470588%,16.078431%,16.470588%);fill-opacity:1;" d="M 5900 3000 C 5900 2230.871094 5594.464844 1493.246094 5050.609375 949.390625 C 4506.753906 405.535156 3769.128906 100 3000 100 C 2230.871094 100 1493.246094 405.535156 949.390625 949.390625 C 405.535156 1493.246094 100 2230.871094 100 3000 C 100 3769.128906 405.535156 4506.753906 949.390625 5050.609375 C 1493.246094 5594.464844 2230.871094 5900 3000 5900 C 3769.128906 5900 4506.753906 5594.464844 5050.609375 5050.609375 C 5594.464844 4506.753906 5900 3769.128906 5900 3000 M 4507.820312 700.222656 C 4059.796875 406.480469 3535.730469 250 3000 250 C 2270.65625 250 1571.179688 539.730469 1055.457031 1055.457031 C 539.730469 1571.179688 250 2270.65625 250 3000 C 250 3535.730469 406.480469 4059.796875 700.222656 4507.820312 L 4507.820312 700.222656 M 4624.746094 781.285156 C 4653.242188 802.152344 4681.335938 823.566406 4709.007812 845.515625 L 845.515625 4709.007812 C 823.566406 4681.335938 802.152344 4653.242188 781.285156 4624.746094 L 4624.746094 781.285156 M 4816.859375 935.652344 C 4843.160156 958.800781 4869.019531 982.453125 4894.414062 1006.589844 L 1006.589844 4894.414062 C 982.453125 4869.019531 958.800781 4843.160156 935.652344 4816.859375 L 4816.859375 935.652344 M 5064.347656 1183.140625 C 5041.199219 1156.839844 5017.546875 1130.980469 4993.410156 1105.585938 L 1105.585938 4993.410156 C 1130.980469 5017.546875 1156.839844 5041.199219 1183.140625 5064.347656 L 5064.347656 1183.140625 M 5218.714844 1375.253906 C 5197.847656 1346.757812 5176.433594 1318.664062 5154.484375 1290.992188 L 1290.992188 5154.484375 C 1318.664062 5176.433594 1346.757812 5197.847656 1375.253906 5218.714844 L 5218.714844 1375.253906 M 5299.777344 1492.179688 C 5593.519531 1940.203125 5750 2464.269531 5750 3000 C 5750 3729.34375 5460.269531 4428.820312 4944.542969 4944.542969 C 4428.820312 5460.269531 3729.34375 5750 3000 5750 C 2464.269531 5750 1940.203125 5593.519531 1492.179688 5299.777344 L 5299.777344 1492.179688 "/>
</g>
</svg>
