<?xml version="1.0" encoding="UTF-8"?>
<svg xmlns="http://www.w3.org/2000/svg" xmlns:xlink="http://www.w3.org/1999/xlink" width="600.000000mm" height="600.000000mm" viewBox="0 0 6000 6000" version="1.1">
<g id="surface3066">
<path style="fill-rule:evenodd;fill:rgb(94.509804%,94.117647%,91.764706%);fill-opacity:1;stroke-width:0.3;stroke-linecap:butt;stroke-linejoin:miter;stroke:rgb(16.470588%,16.078431%,16.470588%);stroke-opacity:1;stroke-miterlimit:3;" d="M 300 0 C 300 79.564844 268.392969 155.871094 212.132031 212.132031 C 155.871094 268.392969 79.564844 300 0 300 C -79.564844 300 -155.871094 268.392969 -212.132031 212.132031 C -268.392969 155.871094 -300 79.564844 -300 0 C -300 -79.564844 -268.392969 -155.871094 -212.132031 -212.132031 C -155.871094 -268.392969 -79.564844 -300 0 -300 C 79.564844 -300 155.871094 -268.392969 212.132031 -212.132031 C 268.392969 -155.871094 300 -79.564844 300 0 " transform="matrix(10,0,0,-10,3000,3000)"/>
<path style=" stroke:none;fill-rule:evenodd;fill:rgb(55.686275%,57.254902%,56.862745%);fill-opacity:1;" d="M 1158.335938 4200 C 1131.640625 4200 1110 4178.359375 1110 4151.664062 L 1110 3668.332031 C 1110 3641.640625 1131.640625 3620 1158.335938 3620 L 1303.332031 3620 C 1330.027344 3620 1351.667969 3641.640625 1351.667969 3668.332031 L 1351.667969 4151.664062 C 1351.667969 4178.359375 1330.027344 4200 1303.332031 4200 L 1158.335938 4200 M 1448.335938 4200 C 1421.640625 4200 1400 4178.359375 1400 4151.664062 L 1400 3668.332031 C 1400 3641.640625 1421.640625 3620 1448.335938 3620 L 1593.335938 3620 C 1620.027344 3620 1641.667969 3641.640625 1641.667969 3668.332031 L 1641.664062 3801.25 C 1641.664062 3827.945312 1663.304688 3849.585938 1690 3849.585938 L 1781.832031 3849.582031 C 1806.65625 3849.582031 1830.527344 3840.035156 1848.5 3822.917969 L 1880 3792.917969 C 1906.960938 3767.238281 1942.765625 3752.917969 1980 3752.917969 C 2017.234375 3752.917969 2053.039062 3767.238281 2080 3792.917969 L 2111.5 3822.917969 C 2129.472656 3840.035156 2153.34375 3849.582031 2178.167969 3849.582031 L 2270 3849.585938 C 2296.695312 3849.585938 2318.335938 3827.945312 2318.335938 3801.25 L 2318.332031 3668.332031 C 2318.332031 3641.640625 2339.972656 3620 2366.664062 3620 L 2511.667969 3620 C 2538.359375 3620 2560 3641.640625 2560 3668.332031 L 2560 4151.664062 C 2560 4178.359375 2538.359375 4200 2511.667969 4200 L 2366.664062 4200 C 2339.972656 4200 2318.332031 4178.359375 2318.332031 4151.664062 L 2318.335938 4018.75 C 2318.335938 3992.054688 2296.695312 3970.414062 2270 3970.414062 L 2178.167969 3970.414062 C 2153.34375 3970.414062 2129.472656 3979.964844 2111.5 3997.082031 L 2080 4027.085938 C 2053.039062 4052.761719 2017.234375 4067.085938 1980 4067.085938 C 1942.765625 4067.085938 1906.960938 4052.761719 1880 4027.085938 L 1848.5 3997.082031 C 1830.527344 3979.964844 1806.65625 3970.414062 1781.832031 3970.414062 L 1690 3970.414062 C 1663.304688 3970.414062 1641.664062 3992.054688 1641.664062 4018.75 L 1641.667969 4151.664062 C 1641.667969 4178.359375 1620.027344 4200 1593.335938 4200 L 1448.335938 4200 M 2656.667969 4200 C 2629.972656 4200 2608.332031 4178.359375 2608.332031 4151.664062 L 2608.332031 3668.332031 C 2608.332031 3641.640625 2629.972656 3620 2656.667969 3620 L 2801.664062 3620 C 2828.359375 3620 2850 3641.640625 2850 3668.332031 L 2850 4151.664062 C 2850 4178.359375 2828.359375 4200 2801.664062 4200 L 2656.667969 4200 M 1110 3571.667969 L 1110 2000.832031 C 1110 1907.40625 1185.738281 1831.667969 1279.164062 1831.667969 L 2680.835938 1831.667969 C 2774.261719 1831.667969 2850 1907.40625 2850 2000.832031 L 2850 3571.667969 L 1110 3571.667969 "/>
<path style=" stroke:none;fill-rule:evenodd;fill:rgb(55.686275%,57.254902%,56.862745%);fill-opacity:1;" d="M 3150 3422.855469 C 3150 3393.183594 3159.625 3364.308594 3177.429688 3340.570312 L 3204.855469 3304 C 3224.054688 3278.402344 3240.203125 3250.652344 3252.96875 3221.3125 L 3433.777344 2805.824219 C 3451.929688 2764.117188 3493.085938 2737.140625 3538.570312 2737.140625 L 4681.429688 2737.140625 C 4726.914062 2737.140625 4768.070312 2764.117188 4786.222656 2805.824219 L 4967.03125 3221.3125 C 4979.796875 3250.652344 4995.945312 3278.402344 5015.144531 3304 L 5042.570312 3340.570312 C 5060.375 3364.308594 5070 3393.183594 5070 3422.855469 L 5070 3720 C 5070 3783.117188 5018.832031 3834.285156 4955.714844 3834.285156 L 3264.285156 3834.285156 C 3201.167969 3834.285156 3150 3783.117188 3150 3720 L 3150 3422.855469 M 3367.140625 3240 L 3524.285156 2878.902344 C 3531.542969 2862.21875 3548.007812 2851.429688 3566.199219 2851.429688 L 4653.800781 2851.429688 C 4671.996094 2851.429688 4688.457031 2862.21875 4695.71875 2878.902344 L 4852.859375 3240 L 3367.140625 3240 M 3264.285156 3880 L 3538.570312 3880 L 3538.570312 4131.429688 C 3538.570312 4169.300781 3507.871094 4200 3470 4200 L 3332.855469 4200 C 3294.984375 4200 3264.285156 4169.300781 3264.285156 4131.429688 L 3264.285156 3880 M 4681.429688 3880 L 4955.714844 3880 L 4955.714844 4131.429688 C 4955.714844 4169.300781 4925.015625 4200 4887.144531 4200 L 4750 4200 C 4712.128906 4200 4681.429688 4169.300781 4681.429688 4131.429688 L 4681.429688 3880 "/>
<path style=" stroke:none;fill-rule:evenodd;fill:rgb(16.470588%,16.078431%,16.470588%);fill-opacity:1;" d="M 5900 3000 C 5900 2230.871094 5594.464844 1493.246094 5050.609375 949.390625 C 4506.753906 405.535156 3769.128906 100 3000 100 C 2230.871094 100 1493.246094 405.535156 949.390625 949.390625 C 405.535156 1493.246094 100 2230.871094 100 3000 C 100 3769.128906 405.535156 4506.753906 949.390625 5050.609375 C 1493.246094 5594.464844 2230.871094 5900 3000 5900 C 3769.128906 5900 4506.753906 5594.464844 5050.609375 5050.609375 C 5594.464844 4506.753906 5900 3769.128906 5900 3000 M 4507.820312 700.222656 C 4059.796875 406.480469 3535.730469 250 3000 250 C 2270.65625 250 1571.179688 539.730469 1055.457031 1055.457031 C 539.730469 1571.179688 250 2270.65625 250 3000 C 250 3535.730469 406.480469 4059.796875 700.222656 4507.820312 L 4507.820312 700.222656 M 4624.746094 781.285156 C 4653.242188 802.152344 4681.335938 823.566406 4709.007812 845.515625 L 845.515625 4709.007812 C 823.566406 4681.335938 802.152344 4653.242188 781.285156 4624.746094 L 4624.746094 781.285156 M 4816.859375 935.652344 C 4843.160156 958.800781 4869.019531 982.453125 4894.414062 1006.589844 L 1006.589844 4894.414062 C 982.453125 4869.019531 958.800781 4843.160156 935.652344 4816.859375 L 4816.859375 935.652344 M 5064.347656 1183.140625 C 5041.199219 1156.839844 5017.546875 1130.980469 4993.410156 1105.585938 L 1105.585938 4993.410156 C 1130.980469 5017.546875 1156.839844 5041.199219 1183.140625 5064.347656 L 5064.347656 1183.140625 M 5218.714844 1375.253906 C 5197.847656 1346.757812 5176.433594 1318.664062 5154.484375 1290.992188 L 1290.992188 5154.484375 C 1318.664062 5176.433594 1346.757812 5197.847656 1375.253906 5218.714844 L 5218.714844 1375.253906 M 5299.777344 1492.179688 C 5593.519531 1940.203125 5750 2464.269531 5750 3000 C 5750 3729.34375 5460.269531 4428.820312 4944.542969 4944.542969 C 4428.820312 5460.269531 3729.34375 5750 3000 5750 C 2464.269531 5750 1940.203125 5593.519531 1492.179688 5299.777344 L 5299.777344 1492.179688 "/>
</g>
</svg>
