<?xml version="1.0" encoding="UTF-8"?>
<svg xmlns="http://www.w3.org/2000/svg" xmlns:xlink="http://www.w3.org/1999/xlink" width="600.000000mm" height="600.000000mm" viewBox="0 0 6000 6000" version="1.1">
<g id="surface3241">
<path style="fill-rule:evenodd;fill:rgb(94.509804%,94.117647%,91.764706%);fill-opacity:1;stroke-width:0.3;stroke-linecap:butt;stroke-linejoin:miter;stroke:rgb(16.470588%,16.078431%,16.470588%);stroke-opacity:1;stroke-miterlimit:3;" d="M 300 0 C 300 79.564844 268.392969 155.871094 212.132031 212.132031 C 155.871094 268.392969 79.564844 300 0 300 C -79.564844 300 -155.871094 268.392969 -212.132031 212.132031 C -268.392969 155.871094 -300 79.564844 -300 0 C -300 -79.564844 -268.392969 -155.871094 -212.132031 -212.132031 C -155.871094 -268.392969 -79.564844 -300 0 -300 C 79.564844 -300 155.871094 -268.392969 212.132031 -212.132031 C 268.392969 -155.871094 300 -79.564844 300 0 " transform="matrix(10,0,0,-10,3000,3000)"/>
<path style=" stroke:none;fill-rule:evenodd;fill:rgb(73.333333%,11.764706%,6.27451%);fill-opacity:1;" d="M 5850 3000 C 5850 2244.132812 5549.734375 1519.222656 5015.253906 984.746094 C 4480.777344 450.265625 3755.867188 150 3000 150 C 2244.132812 150 1519.222656 450.265625 984.746094 984.746094 C 450.265625 1519.222656 150 2244.132812 150 3000 C 150 3755.867188 450.265625 4480.777344 984.746094 5015.253906 C 1519.222656 5549.734375 2244.132812 5850 3000 5850 C 3755.867188 5850 4480.777344 5549.734375 5015.253906 5015.253906 C 5549.734375 4480.777344 5850 3755.867188 5850 3000 "/>
<path style=" stroke:none;fill-rule:evenodd;fill:rgb(94.509804%,94.117647%,91.764706%);fill-opacity:1;" d="M 3000 2575.734375 L 1742.4375 1318.175781 C 2105.5 1046.699219 2546.664062 900 3000 900 C 3453.335938 900 3894.5 1046.699219 4257.5625 1318.175781 L 3000 2575.734375 M 2575.734375 3000 L 1318.175781 4257.5625 C 1046.699219 3894.5 900 3453.335938 900 3000 C 900 2546.664062 1046.699219 2105.5 1318.175781 1742.4375 L 2575.734375 3000 M 3000 3424.265625 L 4257.5625 4681.824219 C 3894.5 4953.300781 3453.335938 5100 3000 5100 C 2546.664062 5100 2105.5 4953.300781 1742.4375 4681.824219 L 3000 3424.265625 M 3424.265625 3000 L 4681.824219 1742.4375 C 4953.300781 2105.5 5100 2546.664062 5100 3000 C 5100 3453.335938 4953.300781 3894.5 4681.824219 4257.5625 L 3424.265625 3000 "/>
<path style=" stroke:none;fill-rule:evenodd;fill:rgb(0%,35.686275%,54.901961%);fill-opacity:1;" d="M 3000 2505.023438 L 1819.203125 1324.226562 C 2164.796875 1080.710938 2577.226562 950 3000 950 C 3422.773438 950 3835.203125 1080.710938 4180.796875 1324.226562 L 3000 2505.023438 M 2505.023438 3000 L 1324.226562 4180.796875 C 1080.710938 3835.203125 950 3422.773438 950 3000 C 950 2577.226562 1080.710938 2164.796875 1324.226562 1819.203125 L 2505.023438 3000 M 3000 3494.976562 L 4180.796875 4675.773438 C 3835.203125 4919.289062 3422.773438 5050 3000 5050 C 2577.226562 5050 2164.796875 4919.289062 1819.203125 4675.773438 L 3000 3494.976562 M 3494.976562 3000 L 4675.773438 1819.203125 C 4919.289062 2164.796875 5050 2577.226562 5050 3000 C 5050 3422.773438 4919.289062 3835.203125 4675.773438 4180.796875 L 3494.976562 3000 "/>
<path style=" stroke:none;fill-rule:evenodd;fill:rgb(94.509804%,94.117647%,91.764706%);fill-opacity:1;" d="M 2250 1550 L 2700 1100 L 2950 1100 L 2600 1450 L 3750 1450 L 3750 1650 L 2600 1650 L 2950 2000 L 2700 2000 L 2250 1550 "/>
<path style=" stroke:none;fill-rule:evenodd;fill:rgb(94.509804%,94.117647%,91.764706%);fill-opacity:1;" d="M 3750 4450 L 3300 4900 L 3050 4900 L 3400 4550 L 2250 4550 L 2250 4350 L 3400 4350 L 3050 4000 L 3300 4000 L 3750 4450 "/>
</g>
</svg>
