<?xml version="1.0" encoding="UTF-8"?>
<svg xmlns="http://www.w3.org/2000/svg" xmlns:xlink="http://www.w3.org/1999/xlink" width="600.000000mm" height="600.000000mm" viewBox="0 0 6000 6000" version="1.1">
<g id="surface3291">
<path style="fill-rule:evenodd;fill:rgb(94.509804%,94.117647%,91.764706%);fill-opacity:1;stroke-width:0.3;stroke-linecap:butt;stroke-linejoin:miter;stroke:rgb(16.470588%,16.078431%,16.470588%);stroke-opacity:1;stroke-miterlimit:3;" d="M -260 -300 C -270.608594 -300 -280.782812 -295.785547 -288.284375 -288.284375 C -295.785547 -280.782812 -300 -270.608594 -300 -260 L -300 260 C -300 270.608594 -295.785547 280.782812 -288.284375 288.284375 C -280.782812 295.785547 -270.608594 300 -260 300 L 260 300 C 270.608594 300 280.782812 295.785547 288.284375 288.284375 C 295.785547 280.782812 300 270.608594 300 260 L 300 -260 C 300 -270.608594 295.785547 -280.782812 288.284375 -288.284375 C 280.782812 -295.785547 270.608594 -300 260 -300 L -260 -300 " transform="matrix(10,0,0,-10,3000,3000)"/>
<path style=" stroke:none;fill-rule:evenodd;fill:rgb(0%,35.686275%,54.901961%);fill-opacity:1;" d="M 400 5850 C 261.929688 5850 150 5738.070312 150 5600 L 150 400 C 150 261.929688 261.929688 150 400 150 L 5600 150 C 5738.070312 150 5850 261.929688 5850 400 L 5850 5600 C 5850 5738.070312 5738.070312 5850 5600 5850 L 400 5850 "/>
<path style=" stroke:none;fill-rule:evenodd;fill:rgb(94.509804%,94.117647%,91.764706%);fill-opacity:1;" d="M 1100 5100 L 1100 900 L 2825 900 C 3163.152344 900 3487.453125 1034.328125 3726.5625 1273.4375 C 3965.671875 1512.546875 4100 1836.847656 4100 2175 C 4100 2513.152344 3965.671875 2837.453125 3726.5625 3076.5625 C 3487.453125 3315.671875 3163.152344 3450 2825 3450 L 1737.5 3450 L 1737.5 5100 L 1100 5100 M 1737.5 2850 L 2787.5 2850 C 2966.519531 2850 3138.210938 2778.882812 3264.796875 2652.296875 C 3391.382812 2525.710938 3462.5 2354.019531 3462.5 2175 C 3462.5 1995.980469 3391.382812 1824.289062 3264.796875 1697.703125 C 3138.210938 1571.117188 2966.519531 1500 2787.5 1500 L 1737.5 1500 L 1737.5 2850 "/>
<path style=" stroke:none;fill-rule:evenodd;fill:rgb(94.509804%,94.117647%,91.764706%);fill-opacity:1;" d="M 2700 4450 L 3350 3800 L 3700 3800 L 3190 4310 L 4900 4310 L 4900 4590 L 3190 4590 L 3700 5100 L 3350 5100 L 2700 4450 "/>
</g>
</svg>
