<?xml version="1.0" encoding="UTF-8"?>
<svg xmlns="http://www.w3.org/2000/svg" xmlns:xlink="http://www.w3.org/1999/xlink" width="600.000000mm" height="600.000000mm" viewBox="0 0 6000 6000" version="1.1">
<g id="surface3306">
<path style="fill-rule:evenodd;fill:rgb(94.509804%,94.117647%,91.764706%);fill-opacity:1;stroke-width:0.3;stroke-linecap:butt;stroke-linejoin:miter;stroke:rgb(16.470588%,16.078431%,16.470588%);stroke-opacity:1;stroke-miterlimit:3;" d="M -260 -300 C -270.608594 -300 -280.782812 -295.785547 -288.284375 -288.284375 C -295.785547 -280.782812 -300 -270.608594 -300 -260 L -300 260 C -300 270.608594 -295.785547 280.782812 -288.284375 288.284375 C -280.782812 295.785547 -270.608594 300 -260 300 L 260 300 C 270.608594 300 280.782812 295.785547 288.284375 288.284375 C 295.785547 280.782812 300 270.608594 300 260 L 300 -260 C 300 -270.608594 295.785547 -280.782812 288.284375 -288.284375 C 280.782812 -295.785547 270.608594 -300 260 -300 L -260 -300 " transform="matrix(10,0,0,-10,3000,3000)"/>
<path style=" stroke:none;fill-rule:evenodd;fill:rgb(0%,35.686275%,54.901961%);fill-opacity:1;" d="M 400 5850 C 261.929688 5850 150 5738.070312 150 5600 L 150 400 C 150 261.929688 261.929688 150 400 150 L 5600 150 C 5738.070312 150 5850 261.929688 5850 400 L 5850 5600 C 5850 5738.070312 5738.070312 5850 5600 5850 L 400 5850 "/>
<path style=" stroke:none;fill-rule:evenodd;fill:rgb(94.509804%,94.117647%,91.764706%);fill-opacity:1;" d="M 3000 500 L 5600 1500 L 5600 2100 L 3000 1100 L 400 2100 L 400 1500 L 3000 500 "/>
<path style=" stroke:none;fill-rule:evenodd;fill:rgb(94.509804%,94.117647%,91.764706%);fill-opacity:1;" d="M 1950 5500 L 1950 2000 L 3387.5 2000 C 3669.292969 2000 3939.542969 2111.941406 4138.800781 2311.199219 C 4338.058594 2510.457031 4450 2780.707031 4450 3062.5 C 4450 3344.292969 4338.058594 3614.542969 4138.800781 3813.800781 C 3939.542969 4013.058594 3669.292969 4125 3387.5 4125 L 2481.25 4125 L 2481.25 5500 L 1950 5500 M 2481.25 3625 L 3356.25 3625 C 3505.433594 3625 3648.507812 3565.738281 3753.996094 3460.246094 C 3859.488281 3354.757812 3918.75 3211.683594 3918.75 3062.5 C 3918.75 2913.316406 3859.488281 2770.242188 3753.996094 2664.753906 C 3648.507812 2559.261719 3505.433594 2500 3356.25 2500 L 2481.25 2500 L 2481.25 3625 "/>
</g>
</svg>
