<?xml version="1.0" encoding="UTF-8"?>
<svg xmlns="http://www.w3.org/2000/svg" xmlns:xlink="http://www.w3.org/1999/xlink" width="600.000000mm" height="900.000000mm" viewBox="0 0 6000 9000" version="1.1">
<g id="surface3371">
<path style="fill-rule:evenodd;fill:rgb(94.509804%,94.117647%,91.764706%);fill-opacity:1;stroke-width:0.3;stroke-linecap:butt;stroke-linejoin:miter;stroke:rgb(16.470588%,16.078431%,16.470588%);stroke-opacity:1;stroke-miterlimit:3;" d="M -260 -600 C -270.608594 -600 -280.782812 -595.785547 -288.284375 -588.284375 C -295.785547 -580.782813 -300 -570.608594 -300 -560 L -300 260 C -300 270.608594 -295.785547 280.782812 -288.284375 288.284375 C -280.782812 295.785547 -270.608594 300 -260 300 L 260 300 C 270.608594 300 280.782812 295.785547 288.284375 288.284375 C 295.785547 280.782812 300 270.608594 300 260 L 300 -560 C 300 -570.608594 295.785547 -580.782813 288.284375 -588.284375 C 280.782812 -595.785547 270.608594 -600 260 -600 L -260 -600 " transform="matrix(10,0,0,-10,3000,3000)"/>
<path style=" stroke:none;fill-rule:evenodd;fill:rgb(0%,35.686275%,54.901961%);fill-opacity:1;" d="M 400 8850 C 261.929688 8850 150 8738.070312 150 8600 L 150 400 C 150 261.929688 261.929688 150 400 150 L 5600 150 C 5738.070312 150 5850 261.929688 5850 400 L 5850 8600 C 5850 8738.070312 5738.070312 8850 5600 8850 L 400 8850 "/>
<path style=" stroke:none;fill-rule:evenodd;fill:rgb(94.509804%,94.117647%,91.764706%);fill-opacity:1;" d="M 5000 8300 L 5000 7900 L 2175 7900 L 2175 8100 L 1000 8100 L 1000 8300 L 5000 8300 M 2275 6837.5 C 2275 6796.929688 2288.160156 6757.457031 2312.5 6725 L 2350 6675 C 2376.246094 6640.003906 2398.324219 6602.066406 2415.777344 6561.953125 L 2662.976562 5993.902344 C 2687.792969 5936.878906 2744.0625 5900 2806.25 5900 L 4368.75 5900 C 4430.9375 5900 4487.207031 5936.878906 4512.023438 5993.902344 L 4759.222656 6561.953125 C 4776.675781 6602.066406 4798.753906 6640.003906 4825 6675 L 4862.5 6725 C 4886.839844 6757.457031 4900 6796.929688 4900 6837.5 L 4900 7243.75 C 4900 7330.042969 4830.042969 7400 4743.75 7400 L 2431.25 7400 C 2344.957031 7400 2275 7330.042969 2275 7243.75 L 2275 6837.5 M 2571.875 6587.5 L 2786.714844 6093.8125 C 2796.640625 6071 2819.148438 6056.25 2844.023438 6056.25 L 4330.976562 6056.25 C 4355.851562 6056.25 4378.359375 6071 4388.285156 6093.8125 L 4603.125 6587.5 L 2571.875 6587.5 M 2431.25 7462.5 L 2806.25 7462.5 L 2806.25 7806.25 C 2806.25 7858.027344 2764.277344 7900 2712.5 7900 L 2525 7900 C 2473.222656 7900 2431.25 7858.027344 2431.25 7806.25 L 2431.25 7462.5 M 4368.75 7462.5 L 4743.75 7462.5 L 4743.75 7806.25 C 4743.75 7858.027344 4701.777344 7900 4650 7900 L 4462.5 7900 C 4410.722656 7900 4368.75 7858.027344 4368.75 7806.25 L 4368.75 7462.5 "/>
<path style=" stroke:none;fill-rule:evenodd;fill:rgb(94.509804%,94.117647%,91.764706%);fill-opacity:1;" d="M 1600 5100 L 1600 900 L 3325 900 C 3663.152344 900 3987.453125 1034.328125 4226.5625 1273.4375 C 4465.671875 1512.546875 4600 1836.847656 4600 2175 C 4600 2513.152344 4465.671875 2837.453125 4226.5625 3076.5625 C 3987.453125 3315.671875 3663.152344 3450 3325 3450 L 2237.5 3450 L 2237.5 5100 L 1600 5100 M 2237.5 2850 L 3287.5 2850 C 3466.519531 2850 3638.210938 2778.882812 3764.796875 2652.296875 C 3891.382812 2525.710938 3962.5 2354.019531 3962.5 2175 C 3962.5 1995.980469 3891.382812 1824.289062 3764.796875 1697.703125 C 3638.210938 1571.117188 3466.519531 1500 3287.5 1500 L 2237.5 1500 L 2237.5 2850 "/>
</g>
</svg>
