<?xml version="1.0" encoding="UTF-8"?>
<svg xmlns="http://www.w3.org/2000/svg" xmlns:xlink="http://www.w3.org/1999/xlink" width="600.000000mm" height="900.000000mm" viewBox="0 0 6000 9000" version="1.1">
<g id="surface3431">
<path style="fill-rule:evenodd;fill:rgb(94.509804%,94.117647%,91.764706%);fill-opacity:1;stroke-width:0.3;stroke-linecap:butt;stroke-linejoin:miter;stroke:rgb(16.470588%,16.078431%,16.470588%);stroke-opacity:1;stroke-miterlimit:3;" d="M -260 -600 C -270.608594 -600 -280.782812 -595.785547 -288.284375 -588.284375 C -295.785547 -580.782813 -300 -570.608594 -300 -560 L -300 260 C -300 270.608594 -295.785547 280.782812 -288.284375 288.284375 C -280.782812 295.785547 -270.608594 300 -260 300 L 260 300 C 270.608594 300 280.782812 295.785547 288.284375 288.284375 C 295.785547 280.782812 300 270.608594 300 260 L 300 -560 C 300 -570.608594 295.785547 -580.782813 288.284375 -588.284375 C 280.782812 -595.785547 270.608594 -600 260 -600 L -260 -600 " transform="matrix(10,0,0,-10,3000,3000)"/>
<path style=" stroke:none;fill-rule:evenodd;fill:rgb(0%,35.686275%,54.901961%);fill-opacity:1;" d="M 400 8850 C 261.929688 8850 150 8738.070312 150 8600 L 150 400 C 150 261.929688 261.929688 150 400 150 L 5600 150 C 5738.070312 150 5850 261.929688 5850 400 L 5850 8600 C 5850 8738.070312 5738.070312 8850 5600 8850 L 400 8850 "/>
<path style=" stroke:none;fill-rule:evenodd;fill:rgb(94.509804%,94.117647%,91.764706%);fill-opacity:1;" d="M 450 8300 L 450 7900 L 4750 7900 L 4750 8100 L 5550 8100 L 5550 8300 L 450 8300 M 1593.75 7550 C 1593.75 7356.699219 1437.050781 7200 1243.75 7200 C 1050.449219 7200 893.75 7356.699219 893.75 7550 C 893.75 7743.300781 1050.449219 7900 1243.75 7900 C 1437.050781 7900 1593.75 7743.300781 1593.75 7550 M 4700 7550 C 4700 7356.699219 4543.300781 7200 4350 7200 C 4156.699219 7200 4000 7356.699219 4000 7550 C 4000 7743.300781 4156.699219 7900 4350 7900 C 4543.300781 7900 4700 7743.300781 4700 7550 M 806.25 7550 L 587.5 7550 C 539.175781 7550 500 7510.824219 500 7462.5 L 500 7055.371094 C 500 7012.597656 530.921875 6976.09375 573.113281 6969.0625 L 1812.5 6762.5 L 2399.375 6175.628906 C 2415.785156 6159.21875 2438.039062 6150 2461.246094 6150 L 4144.308594 6150 C 4164.175781 6150 4183.453125 6156.761719 4198.96875 6169.175781 L 5017.160156 6823.726562 C 5037.917969 6840.332031 5050 6865.472656 5050 6892.050781 L 5050 7462.5 C 5050 7510.824219 5010.824219 7550 4962.5 7550 L 4787.5 7550 C 4787.5 7433.96875 4741.40625 7322.6875 4659.359375 7240.640625 C 4577.3125 7158.59375 4466.03125 7112.5 4350 7112.5 C 4233.96875 7112.5 4122.6875 7158.59375 4040.640625 7240.640625 C 3958.59375 7322.6875 3912.5 7433.96875 3912.5 7550 L 1681.25 7550 C 1681.25 7433.96875 1635.15625 7322.6875 1553.109375 7240.640625 C 1471.0625 7158.59375 1359.78125 7112.5 1243.75 7112.5 C 1127.71875 7112.5 1016.4375 7158.59375 934.390625 7240.640625 C 852.34375 7322.6875 806.25 7433.96875 806.25 7550 M 3212.5 6850 L 2005.621094 6850 C 1981.460938 6850 1961.871094 6830.414062 1961.871094 6806.25 C 1961.871094 6794.648438 1966.480469 6783.519531 1974.6875 6775.3125 L 2399.375 6350.628906 C 2415.785156 6334.21875 2438.039062 6325 2461.246094 6325 L 3212.5 6325 L 3212.5 6850 M 3343.75 6850 L 3343.75 6325 L 3963.757812 6325 C 3986.964844 6325 4009.21875 6334.21875 4025.628906 6350.628906 L 4375.628906 6700.628906 C 4392.039062 6717.039062 4401.257812 6739.292969 4401.257812 6762.5 C 4401.257812 6810.824219 4362.082031 6850 4313.757812 6850 L 3343.75 6850 "/>
<path style=" stroke:none;fill-rule:evenodd;fill:rgb(94.509804%,94.117647%,91.764706%);fill-opacity:1;" d="M 1600 5100 L 1600 900 L 3325 900 C 3663.152344 900 3987.453125 1034.328125 4226.5625 1273.4375 C 4465.671875 1512.546875 4600 1836.847656 4600 2175 C 4600 2513.152344 4465.671875 2837.453125 4226.5625 3076.5625 C 3987.453125 3315.671875 3663.152344 3450 3325 3450 L 2237.5 3450 L 2237.5 5100 L 1600 5100 M 2237.5 2850 L 3287.5 2850 C 3466.519531 2850 3638.210938 2778.882812 3764.796875 2652.296875 C 3891.382812 2525.710938 3962.5 2354.019531 3962.5 2175 C 3962.5 1995.980469 3891.382812 1824.289062 3764.796875 1697.703125 C 3638.210938 1571.117188 3466.519531 1500 3287.5 1500 L 2237.5 1500 L 2237.5 2850 "/>
</g>
</svg>
