<?xml version="1.0" encoding="UTF-8"?>
<svg xmlns="http://www.w3.org/2000/svg" xmlns:xlink="http://www.w3.org/1999/xlink" width="600.000000mm" height="900.000000mm" viewBox="0 0 6000 9000" version="1.1">
<g id="surface3316">
<path style="fill-rule:evenodd;fill:rgb(94.509804%,94.117647%,91.764706%);fill-opacity:1;stroke-width:0.3;stroke-linecap:butt;stroke-linejoin:miter;stroke:rgb(16.470588%,16.078431%,16.470588%);stroke-opacity:1;stroke-miterlimit:3;" d="M -260 -600 C -270.608594 -600 -280.782812 -595.785547 -288.284375 -588.284375 C -295.785547 -580.782813 -300 -570.608594 -300 -560 L -300 260 C -300 270.608594 -295.785547 280.782812 -288.284375 288.284375 C -280.782812 295.785547 -270.608594 300 -260 300 L 260 300 C 270.608594 300 280.782812 295.785547 288.284375 288.284375 C 295.785547 280.782812 300 270.608594 300 260 L 300 -560 C 300 -570.608594 295.785547 -580.782813 288.284375 -588.284375 C 280.782812 -595.785547 270.608594 -600 260 -600 L -260 -600 " transform="matrix(10,0,0,-10,3000,3000)"/>
<path style=" stroke:none;fill-rule:evenodd;fill:rgb(0%,35.686275%,54.901961%);fill-opacity:1;" d="M 400 8850 C 261.929688 8850 150 8738.070312 150 8600 L 150 400 C 150 261.929688 261.929688 150 400 150 L 5600 150 C 5738.070312 150 5850 261.929688 5850 400 L 5850 8600 C 5850 8738.070312 5738.070312 8850 5600 8850 L 400 8850 "/>
<path style=" stroke:none;fill-rule:evenodd;fill:rgb(94.509804%,94.117647%,91.764706%);fill-opacity:1;" d="M 1000 8300 L 1000 7900 L 3000 7900 L 3000 8100 L 5000 8100 L 5000 8300 L 1000 8300 M 1342.539062 6798.753906 C 1346.707031 6758.398438 1363.847656 6720.484375 1391.394531 6690.699219 L 1433.828125 6644.8125 C 1463.53125 6612.699219 1489.386719 6577.226562 1510.867188 6539.117188 L 1815.089844 5999.453125 C 1842.785156 5950.324219 1894.804688 5919.933594 1951.199219 5919.933594 C 1956.558594 5919.933594 1961.914062 5920.207031 1967.246094 5920.757812 L 3521.484375 6081.195312 C 3583.347656 6087.582031 3635.53125 6130.042969 3654.359375 6189.3125 L 3841.925781 6779.742188 C 3855.167969 6821.4375 3873.230469 6861.441406 3895.746094 6898.949219 L 3927.914062 6952.535156 C 3945.414062 6981.683594 3954.65625 7015.039062 3954.65625 7049.039062 C 3954.65625 7055.46875 3954.324219 7061.894531 3953.664062 7068.289062 L 3911.949219 7472.394531 C 3903.726562 7552.050781 3836.609375 7612.597656 3756.527344 7612.597656 C 3751.167969 7612.597656 3745.8125 7612.324219 3740.484375 7611.773438 L 1440.207031 7374.324219 C 1360.546875 7366.101562 1300 7298.984375 1300 7218.902344 C 1300 7213.542969 1300.277344 7208.1875 1300.824219 7202.855469 L 1342.539062 6798.753906 M 1663.515625 6580.558594 L 1927.914062 6111.539062 C 1938.992188 6091.886719 1959.800781 6079.730469 1982.359375 6079.730469 C 1984.5 6079.730469 1986.644531 6079.839844 1988.777344 6080.0625 L 3467.871094 6232.742188 C 3492.613281 6235.296875 3513.488281 6252.28125 3521.019531 6275.988281 L 3684.027344 6789.128906 L 1663.515625 6580.558594 M 1433.789062 7436.496094 L 1806.808594 7475 L 1771.511719 7816.933594 C 1766.578125 7864.730469 1726.304688 7901.058594 1678.257812 7901.058594 C 1675.039062 7901.058594 1671.828125 7900.890625 1668.628906 7900.5625 L 1482.121094 7881.308594 C 1434.324219 7876.375 1397.996094 7836.105469 1397.996094 7788.054688 C 1397.996094 7784.839844 1398.164062 7781.625 1398.492188 7778.425781 L 1433.789062 7436.496094 M 3361.046875 7635.4375 L 3734.066406 7673.941406 L 3698.769531 8015.875 C 3693.835938 8063.671875 3653.566406 8100 3605.515625 8100 C 3602.300781 8100 3599.085938 8099.835938 3595.890625 8099.503906 L 3409.378906 8080.25 C 3361.585938 8075.316406 3325.257812 8035.046875 3325.257812 7986.996094 C 3325.257812 7983.78125 3325.421875 7980.570312 3325.75 7977.371094 L 3361.046875 7635.4375 "/>
<path style=" stroke:none;fill-rule:evenodd;fill:rgb(94.509804%,94.117647%,91.764706%);fill-opacity:1;" d="M 1100 5100 L 1100 900 L 2825 900 C 3163.152344 900 3487.453125 1034.328125 3726.5625 1273.4375 C 3965.671875 1512.546875 4100 1836.847656 4100 2175 C 4100 2513.152344 3965.671875 2837.453125 3726.5625 3076.5625 C 3487.453125 3315.671875 3163.152344 3450 2825 3450 L 1737.5 3450 L 1737.5 5100 L 1100 5100 M 1737.5 2850 L 2787.5 2850 C 2966.519531 2850 3138.210938 2778.882812 3264.796875 2652.296875 C 3391.382812 2525.710938 3462.5 2354.019531 3462.5 2175 C 3462.5 1995.980469 3391.382812 1824.289062 3264.796875 1697.703125 C 3138.210938 1571.117188 2966.519531 1500 2787.5 1500 L 1737.5 1500 L 1737.5 2850 "/>
<path style=" stroke:none;fill-rule:evenodd;fill:rgb(94.509804%,94.117647%,91.764706%);fill-opacity:1;" d="M 4900 4450 L 4250 3800 L 3900 3800 L 4410 4310 L 2700 4310 L 2700 4590 L 4410 4590 L 3900 5100 L 4250 5100 L 4900 4450 "/>
</g>
</svg>
