<?xml version="1.0" encoding="UTF-8"?>
<svg xmlns="http://www.w3.org/2000/svg" xmlns:xlink="http://www.w3.org/1999/xlink" width="600.000000mm" height="900.000000mm" viewBox="0 0 6000 9000" version="1.1">
<g id="surface3341">
<path style="fill-rule:evenodd;fill:rgb(94.509804%,94.117647%,91.764706%);fill-opacity:1;stroke-width:0.3;stroke-linecap:butt;stroke-linejoin:miter;stroke:rgb(16.470588%,16.078431%,16.470588%);stroke-opacity:1;stroke-miterlimit:3;" d="M -260 -600 C -270.608594 -600 -280.782812 -595.785547 -288.284375 -588.284375 C -295.785547 -580.782813 -300 -570.608594 -300 -560 L -300 260 C -300 270.608594 -295.785547 280.782812 -288.284375 288.284375 C -280.782812 295.785547 -270.608594 300 -260 300 L 260 300 C 270.608594 300 280.782812 295.785547 288.284375 288.284375 C 295.785547 280.782812 300 270.608594 300 260 L 300 -560 C 300 -570.608594 295.785547 -580.782813 288.284375 -588.284375 C 280.782812 -595.785547 270.608594 -600 260 -600 L -260 -600 " transform="matrix(10,0,0,-10,3000,3000)"/>
<path style=" stroke:none;fill-rule:evenodd;fill:rgb(0%,35.686275%,54.901961%);fill-opacity:1;" d="M 400 8850 C 261.929688 8850 150 8738.070312 150 8600 L 150 400 C 150 261.929688 261.929688 150 400 150 L 5600 150 C 5738.070312 150 5850 261.929688 5850 400 L 5850 8600 C 5850 8738.070312 5738.070312 8850 5600 8850 L 400 8850 "/>
<path style=" stroke:none;fill-rule:evenodd;fill:rgb(94.509804%,94.117647%,91.764706%);fill-opacity:1;" d="M 5000 8300 L 5000 7900 L 3000 7900 L 3000 8100 L 1000 8100 L 1000 8300 L 5000 8300 M 2046.335938 7068.289062 C 2045.675781 7061.894531 2045.34375 7055.46875 2045.34375 7049.039062 C 2045.34375 7015.039062 2054.585938 6981.683594 2072.085938 6952.535156 L 2104.253906 6898.949219 C 2126.769531 6861.441406 2144.832031 6821.4375 2158.074219 6779.742188 L 2345.640625 6189.3125 C 2364.46875 6130.042969 2416.652344 6087.582031 2478.515625 6081.195312 L 4032.753906 5920.757812 C 4038.085938 5920.207031 4043.441406 5919.933594 4048.800781 5919.933594 C 4105.195312 5919.933594 4157.214844 5950.324219 4184.910156 5999.453125 L 4489.132812 6539.121094 C 4510.613281 6577.226562 4536.46875 6612.699219 4566.171875 6644.816406 L 4608.605469 6690.699219 C 4636.152344 6720.484375 4653.292969 6758.402344 4657.460938 6798.753906 L 4699.175781 7202.855469 C 4699.722656 7208.1875 4700 7213.542969 4700 7218.902344 C 4700 7298.984375 4639.453125 7366.101562 4559.792969 7374.324219 L 2259.515625 7611.773438 C 2254.1875 7612.324219 2248.832031 7612.597656 2243.472656 7612.597656 C 2163.390625 7612.597656 2096.273438 7552.050781 2088.050781 7472.394531 L 2046.335938 7068.289062 M 2315.972656 6789.128906 L 2478.984375 6275.988281 C 2486.515625 6252.28125 2507.390625 6235.296875 2532.132812 6232.742188 L 4011.226562 6080.0625 C 4013.359375 6079.839844 4015.5 6079.730469 4017.644531 6079.730469 C 4040.203125 6079.730469 4061.011719 6091.886719 4072.089844 6111.539062 L 4336.484375 6580.558594 L 2315.972656 6789.128906 M 2265.933594 7673.941406 L 2638.953125 7635.4375 L 2674.25 7977.371094 C 2674.578125 7980.570312 2674.742188 7983.78125 2674.742188 7986.996094 C 2674.742188 8035.046875 2638.414062 8075.320312 2590.621094 8080.253906 L 2404.109375 8099.503906 C 2400.914062 8099.835938 2397.699219 8100 2394.484375 8100 C 2346.433594 8100 2306.164062 8063.671875 2301.230469 8015.875 L 2265.933594 7673.941406 M 4193.191406 7475 L 4566.210938 7436.496094 L 4601.507812 7778.429688 C 4601.835938 7781.625 4602.003906 7784.839844 4602.003906 7788.054688 C 4602.003906 7836.105469 4565.675781 7876.375 4517.878906 7881.308594 L 4331.371094 7900.5625 C 4328.171875 7900.890625 4324.960938 7901.058594 4321.742188 7901.058594 C 4273.695312 7901.058594 4233.421875 7864.730469 4228.488281 7816.933594 L 4193.191406 7475 "/>
<path style=" stroke:none;fill-rule:evenodd;fill:rgb(94.509804%,94.117647%,91.764706%);fill-opacity:1;" d="M 1100 5100 L 1100 900 L 2825 900 C 3163.152344 900 3487.453125 1034.328125 3726.5625 1273.4375 C 3965.671875 1512.546875 4100 1836.847656 4100 2175 C 4100 2513.152344 3965.671875 2837.453125 3726.5625 3076.5625 C 3487.453125 3315.671875 3163.152344 3450 2825 3450 L 1737.5 3450 L 1737.5 5100 L 1100 5100 M 1737.5 2850 L 2787.5 2850 C 2966.519531 2850 3138.210938 2778.882812 3264.796875 2652.296875 C 3391.382812 2525.710938 3462.5 2354.019531 3462.5 2175 C 3462.5 1995.980469 3391.382812 1824.289062 3264.796875 1697.703125 C 3138.210938 1571.117188 2966.519531 1500 2787.5 1500 L 1737.5 1500 L 1737.5 2850 "/>
<path style=" stroke:none;fill-rule:evenodd;fill:rgb(94.509804%,94.117647%,91.764706%);fill-opacity:1;" d="M 4900 4450 L 4250 3800 L 3900 3800 L 4410 4310 L 2700 4310 L 2700 4590 L 4410 4590 L 3900 5100 L 4250 5100 L 4900 4450 "/>
</g>
</svg>
