<?xml version="1.0" encoding="UTF-8"?>
<svg xmlns="http://www.w3.org/2000/svg" xmlns:xlink="http://www.w3.org/1999/xlink" width="600.000000mm" height="900.000000mm" viewBox="0 0 6000 9000" version="1.1">
<g id="surface3361">
<path style="fill-rule:evenodd;fill:rgb(94.509804%,94.117647%,91.764706%);fill-opacity:1;stroke-width:0.3;stroke-linecap:butt;stroke-linejoin:miter;stroke:rgb(16.470588%,16.078431%,16.470588%);stroke-opacity:1;stroke-miterlimit:3;" d="M -260 -600 C -270.608594 -600 -280.782812 -595.785547 -288.284375 -588.284375 C -295.785547 -580.782813 -300 -570.608594 -300 -560 L -300 260 C -300 270.608594 -295.785547 280.782812 -288.284375 288.284375 C -280.782812 295.785547 -270.608594 300 -260 300 L 260 300 C 270.608594 300 280.782812 295.785547 288.284375 288.284375 C 295.785547 280.782812 300 270.608594 300 260 L 300 -560 C 300 -570.608594 295.785547 -580.782813 288.284375 -588.284375 C 280.782812 -595.785547 270.608594 -600 260 -600 L -260 -600 " transform="matrix(10,0,0,-10,3000,3000)"/>
<path style=" stroke:none;fill-rule:evenodd;fill:rgb(0%,35.686275%,54.901961%);fill-opacity:1;" d="M 400 8850 C 261.929688 8850 150 8738.070312 150 8600 L 150 400 C 150 261.929688 261.929688 150 400 150 L 5600 150 C 5738.070312 150 5850 261.929688 5850 400 L 5850 8600 C 5850 8738.070312 5738.070312 8850 5600 8850 L 400 8850 "/>
<path style=" stroke:none;fill-rule:evenodd;fill:rgb(94.509804%,94.117647%,91.764706%);fill-opacity:1;" d="M 1000 8300 L 1000 7900 L 3825 7900 L 3825 8100 L 5000 8100 L 5000 8300 L 1000 8300 M 1100 6837.5 C 1100 6796.929688 1113.160156 6757.457031 1137.5 6725 L 1175 6675 C 1201.246094 6640.003906 1223.324219 6602.066406 1240.777344 6561.953125 L 1487.976562 5993.902344 C 1512.792969 5936.878906 1569.0625 5900 1631.25 5900 L 3193.75 5900 C 3255.9375 5900 3312.207031 5936.878906 3337.023438 5993.902344 L 3584.222656 6561.953125 C 3601.675781 6602.066406 3623.753906 6640.003906 3650 6675 L 3687.5 6725 C 3711.839844 6757.457031 3725 6796.929688 3725 6837.5 L 3725 7243.75 C 3725 7330.042969 3655.042969 7400 3568.75 7400 L 1256.25 7400 C 1169.957031 7400 1100 7330.042969 1100 7243.75 L 1100 6837.5 M 1396.875 6587.5 L 1611.714844 6093.8125 C 1621.640625 6071 1644.148438 6056.25 1669.023438 6056.25 L 3155.976562 6056.25 C 3180.851562 6056.25 3203.359375 6071 3213.285156 6093.8125 L 3428.125 6587.5 L 1396.875 6587.5 M 1256.25 7462.5 L 1631.25 7462.5 L 1631.25 7806.25 C 1631.25 7858.027344 1589.277344 7900 1537.5 7900 L 1350 7900 C 1298.222656 7900 1256.25 7858.027344 1256.25 7806.25 L 1256.25 7462.5 M 3193.75 7462.5 L 3568.75 7462.5 L 3568.75 7806.25 C 3568.75 7858.027344 3526.777344 7900 3475 7900 L 3287.5 7900 C 3235.722656 7900 3193.75 7858.027344 3193.75 7806.25 L 3193.75 7462.5 "/>
<path style=" stroke:none;fill-rule:evenodd;fill:rgb(94.509804%,94.117647%,91.764706%);fill-opacity:1;" d="M 1100 5100 L 1100 900 L 2825 900 C 3163.152344 900 3487.453125 1034.328125 3726.5625 1273.4375 C 3965.671875 1512.546875 4100 1836.847656 4100 2175 C 4100 2513.152344 3965.671875 2837.453125 3726.5625 3076.5625 C 3487.453125 3315.671875 3163.152344 3450 2825 3450 L 1737.5 3450 L 1737.5 5100 L 1100 5100 M 1737.5 2850 L 2787.5 2850 C 2966.519531 2850 3138.210938 2778.882812 3264.796875 2652.296875 C 3391.382812 2525.710938 3462.5 2354.019531 3462.5 2175 C 3462.5 1995.980469 3391.382812 1824.289062 3264.796875 1697.703125 C 3138.210938 1571.117188 2966.519531 1500 2787.5 1500 L 1737.5 1500 L 1737.5 2850 "/>
<path style=" stroke:none;fill-rule:evenodd;fill:rgb(94.509804%,94.117647%,91.764706%);fill-opacity:1;" d="M 2700 4450 L 3350 3800 L 3700 3800 L 3190 4310 L 4900 4310 L 4900 4590 L 3190 4590 L 3700 5100 L 3350 5100 L 2700 4450 "/>
</g>
</svg>
