<?xml version="1.0" encoding="UTF-8"?>
<svg xmlns="http://www.w3.org/2000/svg" xmlns:xlink="http://www.w3.org/1999/xlink" width="600.000000mm" height="900.000000mm" viewBox="0 0 6000 9000" version="1.1">
<g id="surface3466">
<path style="fill-rule:evenodd;fill:rgb(94.509804%,94.117647%,91.764706%);fill-opacity:1;stroke-width:0.3;stroke-linecap:butt;stroke-linejoin:miter;stroke:rgb(16.470588%,16.078431%,16.470588%);stroke-opacity:1;stroke-miterlimit:3;" d="M -260 -600 C -270.608594 -600 -280.782812 -595.785547 -288.284375 -588.284375 C -295.785547 -580.782813 -300 -570.608594 -300 -560 L -300 260 C -300 270.608594 -295.785547 280.782812 -288.284375 288.284375 C -280.782812 295.785547 -270.608594 300 -260 300 L 260 300 C 270.608594 300 280.782812 295.785547 288.284375 288.284375 C 295.785547 280.782812 300 270.608594 300 260 L 300 -560 C 300 -570.608594 295.785547 -580.782813 288.284375 -588.284375 C 280.782812 -595.785547 270.608594 -600 260 -600 L -260 -600 " transform="matrix(10,0,0,-10,3000,3000)"/>
<path style=" stroke:none;fill-rule:evenodd;fill:rgb(0%,35.686275%,54.901961%);fill-opacity:1;" d="M 400 8850 C 261.929688 8850 150 8738.070312 150 8600 L 150 400 C 150 261.929688 261.929688 150 400 150 L 5600 150 C 5738.070312 150 5850 261.929688 5850 400 L 5850 8600 C 5850 8738.070312 5738.070312 8850 5600 8850 L 400 8850 "/>
<path style=" stroke:none;fill-rule:evenodd;fill:rgb(94.509804%,94.117647%,91.764706%);fill-opacity:1;" d="M 5550 8300 L 5550 7900 L 1250 7900 L 1250 8100 L 450 8100 L 450 8300 L 5550 8300 M 4406.25 7550 C 4406.25 7356.699219 4562.949219 7200 4756.25 7200 C 4949.550781 7200 5106.25 7356.699219 5106.25 7550 C 5106.25 7743.300781 4949.550781 7900 4756.25 7900 C 4562.949219 7900 4406.25 7743.300781 4406.25 7550 M 1300 7550 C 1300 7356.699219 1456.699219 7200 1650 7200 C 1843.300781 7200 2000 7356.699219 2000 7550 C 2000 7743.300781 1843.300781 7900 1650 7900 C 1456.699219 7900 1300 7743.300781 1300 7550 M 5193.75 7550 L 5412.5 7550 C 5460.824219 7550 5500 7510.824219 5500 7462.5 L 5500 7055.371094 C 5500 7012.597656 5469.078125 6976.09375 5426.886719 6969.0625 L 4187.5 6762.5 L 3600.625 6175.628906 C 3584.214844 6159.21875 3561.960938 6150 3538.753906 6150 L 1855.691406 6150 C 1835.824219 6150 1816.546875 6156.761719 1801.03125 6169.175781 L 982.839844 6823.726562 C 962.082031 6840.332031 950 6865.472656 950 6892.050781 L 950 7462.5 C 950 7510.824219 989.175781 7550 1037.5 7550 L 1212.5 7550 C 1212.5 7433.96875 1258.59375 7322.6875 1340.640625 7240.640625 C 1422.6875 7158.59375 1533.96875 7112.5 1650 7112.5 C 1766.03125 7112.5 1877.3125 7158.59375 1959.359375 7240.640625 C 2041.40625 7322.6875 2087.5 7433.96875 2087.5 7550 L 4318.75 7550 C 4318.75 7433.96875 4364.84375 7322.6875 4446.890625 7240.640625 C 4528.9375 7158.59375 4640.21875 7112.5 4756.25 7112.5 C 4872.28125 7112.5 4983.5625 7158.59375 5065.609375 7240.640625 C 5147.65625 7322.6875 5193.75 7433.96875 5193.75 7550 M 2787.5 6850 L 3994.378906 6850 C 4018.539062 6850 4038.128906 6830.414062 4038.128906 6806.25 C 4038.128906 6794.648438 4033.519531 6783.519531 4025.3125 6775.3125 L 3600.625 6350.628906 C 3584.214844 6334.21875 3561.960938 6325 3538.753906 6325 L 2787.5 6325 L 2787.5 6850 M 2656.25 6850 L 2656.25 6325 L 2036.242188 6325 C 2013.035156 6325 1990.78125 6334.21875 1974.371094 6350.628906 L 1636.054688 6690.824219 C 1612.667969 6707.199219 1598.742188 6733.953125 1598.742188 6762.5 C 1598.742188 6810.824219 1637.917969 6850 1686.242188 6850 L 2656.25 6850 "/>
<path style=" stroke:none;fill-rule:evenodd;fill:rgb(94.509804%,94.117647%,91.764706%);fill-opacity:1;" d="M 1100 5100 L 1100 900 L 2825 900 C 3163.152344 900 3487.453125 1034.328125 3726.5625 1273.4375 C 3965.671875 1512.546875 4100 1836.847656 4100 2175 C 4100 2513.152344 3965.671875 2837.453125 3726.5625 3076.5625 C 3487.453125 3315.671875 3163.152344 3450 2825 3450 L 1737.5 3450 L 1737.5 5100 L 1100 5100 M 1737.5 2850 L 2787.5 2850 C 2966.519531 2850 3138.210938 2778.882812 3264.796875 2652.296875 C 3391.382812 2525.710938 3462.5 2354.019531 3462.5 2175 C 3462.5 1995.980469 3391.382812 1824.289062 3264.796875 1697.703125 C 3138.210938 1571.117188 2966.519531 1500 2787.5 1500 L 1737.5 1500 L 1737.5 2850 "/>
<path style=" stroke:none;fill-rule:evenodd;fill:rgb(94.509804%,94.117647%,91.764706%);fill-opacity:1;" d="M 3200 4200 L 3650 3750 L 3900 3750 L 3550 4100 L 4800 4100 L 4800 4300 L 3550 4300 L 3900 4650 L 3650 4650 L 3200 4200 "/>
<path style=" stroke:none;fill-rule:evenodd;fill:rgb(94.509804%,94.117647%,91.764706%);fill-opacity:1;" d="M 4900 5100 L 4450 4650 L 4200 4650 L 4550 5000 L 3300 5000 L 3300 5200 L 4550 5200 L 4200 5550 L 4450 5550 L 4900 5100 "/>
</g>
</svg>
