<?xml version="1.0" encoding="UTF-8"?>
<svg xmlns="http://www.w3.org/2000/svg" xmlns:xlink="http://www.w3.org/1999/xlink" width="600.000000mm" height="900.000000mm" viewBox="0 0 6000 9000" version="1.1">
<g id="surface3391">
<path style="fill-rule:evenodd;fill:rgb(94.509804%,94.117647%,91.764706%);fill-opacity:1;stroke-width:0.3;stroke-linecap:butt;stroke-linejoin:miter;stroke:rgb(16.470588%,16.078431%,16.470588%);stroke-opacity:1;stroke-miterlimit:3;" d="M -260 -600 C -270.608594 -600 -280.782812 -595.785547 -288.284375 -588.284375 C -295.785547 -580.782813 -300 -570.608594 -300 -560 L -300 260 C -300 270.608594 -295.785547 280.782812 -288.284375 288.284375 C -280.782812 295.785547 -270.608594 300 -260 300 L 260 300 C 270.608594 300 280.782812 295.785547 288.284375 288.284375 C 295.785547 280.782812 300 270.608594 300 260 L 300 -560 C 300 -570.608594 295.785547 -580.782813 288.284375 -588.284375 C 280.782812 -595.785547 270.608594 -600 260 -600 L -260 -600 " transform="matrix(10,0,0,-10,3000,3000)"/>
<path style=" stroke:none;fill-rule:evenodd;fill:rgb(0%,35.686275%,54.901961%);fill-opacity:1;" d="M 400 8850 C 261.929688 8850 150 8738.070312 150 8600 L 150 400 C 150 261.929688 261.929688 150 400 150 L 5600 150 C 5738.070312 150 5850 261.929688 5850 400 L 5850 8600 C 5850 8738.070312 5738.070312 8850 5600 8850 L 400 8850 "/>
<path style=" stroke:none;fill-rule:evenodd;fill:rgb(94.509804%,94.117647%,91.764706%);fill-opacity:1;" d="M 450 8300 L 450 7900 L 3000 7900 L 3000 8100 L 5550 8100 L 5550 8300 L 450 8300 M 1797.242188 7572.902344 C 1797.722656 7565.414062 1797.964844 7557.914062 1797.964844 7550.414062 C 1797.964844 7357.113281 1641.265625 7200.414062 1447.964844 7200.414062 C 1254.664062 7200.414062 1097.964844 7357.113281 1097.964844 7550.414062 C 1097.964844 7743.710938 1254.664062 7900.414062 1447.964844 7900.414062 C 1632.535156 7900.414062 1785.382812 7757.089844 1797.242188 7572.902344 M 4897.074219 7772.488281 C 4897.554688 7765.003906 4897.796875 7757.503906 4897.796875 7750 C 4897.796875 7556.699219 4741.097656 7400 4547.796875 7400 C 4354.496094 7400 4197.796875 7556.699219 4197.796875 7750 C 4197.796875 7943.300781 4354.496094 8100 4547.796875 8100 C 4732.367188 8100 4885.214844 7956.675781 4897.074219 7772.488281 M 1011.367188 7522.300781 L 793.070312 7508.246094 C 747.023438 7505.28125 711.191406 7467.070312 711.191406 7420.929688 C 711.191406 7419.050781 711.253906 7417.175781 711.375 7415.304688 L 737.53125 7009.019531 C 740.28125 6966.335938 773.488281 6931.894531 816.042969 6927.585938 L 2066.140625 6801.085938 L 2689.507812 6253.132812 C 2705.480469 6239.09375 2726.015625 6231.351562 2747.277344 6231.351562 C 2749.152344 6231.351562 2751.027344 6231.414062 2752.898438 6231.535156 L 4432.484375 6339.675781 C 4452.3125 6340.953125 4471.113281 6348.941406 4485.800781 6362.324219 L 5260.246094 7068.09375 C 5278.4375 7084.675781 5288.808594 7108.152344 5288.808594 7132.765625 C 5288.808594 7134.640625 5288.746094 7136.515625 5288.625 7138.390625 L 5251.972656 7707.65625 C 5249.007812 7753.703125 5210.796875 7789.535156 5164.652344 7789.535156 C 5162.777344 7789.535156 5160.902344 7789.476562 5159.03125 7789.355469 L 4984.394531 7778.109375 C 4984.996094 7768.753906 4985.296875 7759.378906 4985.296875 7750 C 4985.296875 7633.96875 4939.203125 7522.6875 4857.15625 7440.640625 C 4775.109375 7358.59375 4663.828125 7312.5 4547.796875 7312.5 C 4436.632812 7312.5 4329.632812 7354.816406 4248.542969 7430.855469 C 4167.449219 7506.894531 4118.34375 7610.953125 4111.199219 7721.890625 L 1884.5625 7578.523438 C 1885.164062 7569.164062 1885.464844 7559.789062 1885.464844 7550.414062 C 1885.464844 7434.378906 1839.371094 7323.101562 1757.324219 7241.054688 C 1675.277344 7159.007812 1563.996094 7112.914062 1447.964844 7112.914062 C 1336.800781 7112.914062 1229.800781 7155.230469 1148.710938 7231.269531 C 1067.617188 7307.308594 1018.511719 7411.367188 1011.367188 7522.300781 M 3457.625 6978.359375 L 2253.242188 6900.8125 C 2230.21875 6899.332031 2212.304688 6880.222656 2212.304688 6857.152344 C 2212.304688 6844.570312 2217.71875 6832.597656 2227.167969 6824.292969 L 2678.265625 6427.773438 C 2694.234375 6413.734375 2714.769531 6405.992188 2736.035156 6405.992188 C 2737.910156 6405.992188 2739.785156 6406.050781 2741.65625 6406.171875 L 3491.355469 6454.441406 L 3457.625 6978.359375 M 3588.601562 6986.792969 L 3622.335938 6462.875 L 4241.0625 6502.714844 C 4264.21875 6504.203125 4285.839844 6514.835938 4301.160156 6532.265625 L 4627.945312 6904.03125 C 4641.984375 6920 4649.726562 6940.535156 4649.726562 6961.796875 C 4649.726562 7010.121094 4610.550781 7049.296875 4562.226562 7049.296875 C 4560.351562 7049.296875 4558.476562 7049.238281 4556.605469 7049.117188 L 3588.601562 6986.792969 "/>
<path style=" stroke:none;fill-rule:evenodd;fill:rgb(94.509804%,94.117647%,91.764706%);fill-opacity:1;" d="M 1600 5100 L 1600 900 L 3325 900 C 3663.152344 900 3987.453125 1034.328125 4226.5625 1273.4375 C 4465.671875 1512.546875 4600 1836.847656 4600 2175 C 4600 2513.152344 4465.671875 2837.453125 4226.5625 3076.5625 C 3987.453125 3315.671875 3663.152344 3450 3325 3450 L 2237.5 3450 L 2237.5 5100 L 1600 5100 M 2237.5 2850 L 3287.5 2850 C 3466.519531 2850 3638.210938 2778.882812 3764.796875 2652.296875 C 3891.382812 2525.710938 3962.5 2354.019531 3962.5 2175 C 3962.5 1995.980469 3891.382812 1824.289062 3764.796875 1697.703125 C 3638.210938 1571.117188 3466.519531 1500 3287.5 1500 L 2237.5 1500 L 2237.5 2850 "/>
</g>
</svg>
