<?xml version="1.0" encoding="UTF-8"?>
<svg xmlns="http://www.w3.org/2000/svg" xmlns:xlink="http://www.w3.org/1999/xlink" width="600.000000mm" height="900.000000mm" viewBox="0 0 6000 9000" version="1.1">
<g id="surface3416">
<path style="fill-rule:evenodd;fill:rgb(94.509804%,94.117647%,91.764706%);fill-opacity:1;stroke-width:0.3;stroke-linecap:butt;stroke-linejoin:miter;stroke:rgb(16.470588%,16.078431%,16.470588%);stroke-opacity:1;stroke-miterlimit:3;" d="M -260 -600 C -270.608594 -600 -280.782812 -595.785547 -288.284375 -588.284375 C -295.785547 -580.782813 -300 -570.608594 -300 -560 L -300 260 C -300 270.608594 -295.785547 280.782812 -288.284375 288.284375 C -280.782812 295.785547 -270.608594 300 -260 300 L 260 300 C 270.608594 300 280.782812 295.785547 288.284375 288.284375 C 295.785547 280.782812 300 270.608594 300 260 L 300 -560 C 300 -570.608594 295.785547 -580.782813 288.284375 -588.284375 C 280.782812 -595.785547 270.608594 -600 260 -600 L -260 -600 " transform="matrix(10,0,0,-10,3000,3000)"/>
<path style=" stroke:none;fill-rule:evenodd;fill:rgb(0%,35.686275%,54.901961%);fill-opacity:1;" d="M 400 8850 C 261.929688 8850 150 8738.070312 150 8600 L 150 400 C 150 261.929688 261.929688 150 400 150 L 5600 150 C 5738.070312 150 5850 261.929688 5850 400 L 5850 8600 C 5850 8738.070312 5738.070312 8850 5600 8850 L 400 8850 "/>
<path style=" stroke:none;fill-rule:evenodd;fill:rgb(94.509804%,94.117647%,91.764706%);fill-opacity:1;" d="M 5550 8300 L 5550 7900 L 3000 7900 L 3000 8100 L 450 8100 L 450 8300 L 5550 8300 M 4202.757812 7572.902344 C 4202.277344 7565.414062 4202.035156 7557.914062 4202.035156 7550.414062 C 4202.035156 7357.113281 4358.734375 7200.414062 4552.035156 7200.414062 C 4745.335938 7200.414062 4902.035156 7357.113281 4902.035156 7550.414062 C 4902.035156 7743.710938 4745.335938 7900.414062 4552.035156 7900.414062 C 4367.464844 7900.414062 4214.617188 7757.089844 4202.757812 7572.902344 M 1102.925781 7772.488281 C 1102.445312 7765.003906 1102.203125 7757.503906 1102.203125 7750 C 1102.203125 7556.699219 1258.902344 7400 1452.203125 7400 C 1645.503906 7400 1802.203125 7556.699219 1802.203125 7750 C 1802.203125 7943.300781 1645.503906 8100 1452.203125 8100 C 1267.632812 8100 1114.785156 7956.675781 1102.925781 7772.488281 M 4988.632812 7522.300781 L 5206.929688 7508.246094 C 5252.976562 7505.28125 5288.808594 7467.070312 5288.808594 7420.929688 C 5288.808594 7419.050781 5288.746094 7417.175781 5288.625 7415.304688 L 5262.46875 7009.019531 C 5259.71875 6966.335938 5226.511719 6931.894531 5183.957031 6927.585938 L 3933.859375 6801.085938 L 3310.492188 6253.132812 C 3294.519531 6239.09375 3273.984375 6231.351562 3252.722656 6231.351562 C 3250.847656 6231.351562 3248.972656 6231.414062 3247.101562 6231.535156 L 1567.515625 6339.675781 C 1547.6875 6340.953125 1528.886719 6348.941406 1514.199219 6362.324219 L 739.753906 7068.09375 C 721.5625 7084.675781 711.191406 7108.152344 711.191406 7132.765625 C 711.191406 7134.640625 711.253906 7136.515625 711.375 7138.390625 L 748.027344 7707.65625 C 750.992188 7753.703125 789.203125 7789.535156 835.347656 7789.535156 C 837.222656 7789.535156 839.097656 7789.476562 840.96875 7789.355469 L 1015.605469 7778.109375 C 1015.003906 7768.753906 1014.703125 7759.378906 1014.703125 7750 C 1014.703125 7633.96875 1060.796875 7522.6875 1142.84375 7440.640625 C 1224.890625 7358.59375 1336.171875 7312.5 1452.203125 7312.5 C 1563.367188 7312.5 1670.367188 7354.816406 1751.457031 7430.855469 C 1832.550781 7506.894531 1881.65625 7610.953125 1888.800781 7721.890625 L 4115.4375 7578.523438 C 4114.835938 7569.164062 4114.535156 7559.789062 4114.535156 7550.414062 C 4114.535156 7434.378906 4160.628906 7323.101562 4242.675781 7241.054688 C 4324.722656 7159.007812 4436.003906 7112.914062 4552.035156 7112.914062 C 4663.199219 7112.914062 4770.199219 7155.230469 4851.289062 7231.269531 C 4932.382812 7307.308594 4981.488281 7411.367188 4988.632812 7522.300781 M 2542.375 6978.359375 L 3746.757812 6900.8125 C 3769.78125 6899.332031 3787.695312 6880.222656 3787.695312 6857.152344 C 3787.695312 6844.570312 3782.28125 6832.597656 3772.832031 6824.292969 L 3321.734375 6427.773438 C 3305.765625 6413.734375 3285.230469 6405.992188 3263.964844 6405.992188 C 3262.089844 6405.992188 3260.214844 6406.050781 3258.34375 6406.171875 L 2508.644531 6454.441406 L 2542.375 6978.359375 M 2411.398438 6986.792969 L 2377.664062 6462.875 L 1758.9375 6502.714844 C 1735.78125 6504.203125 1714.160156 6514.835938 1698.839844 6532.265625 L 1383.082031 6893.496094 C 1362.34375 6910.101562 1350.273438 6935.230469 1350.273438 6961.796875 C 1350.273438 7010.121094 1389.449219 7049.296875 1437.773438 7049.296875 C 1439.648438 7049.296875 1441.523438 7049.238281 1443.394531 7049.117188 L 2411.398438 6986.792969 "/>
<path style=" stroke:none;fill-rule:evenodd;fill:rgb(94.509804%,94.117647%,91.764706%);fill-opacity:1;" d="M 1100 5100 L 1100 900 L 2825 900 C 3163.152344 900 3487.453125 1034.328125 3726.5625 1273.4375 C 3965.671875 1512.546875 4100 1836.847656 4100 2175 C 4100 2513.152344 3965.671875 2837.453125 3726.5625 3076.5625 C 3487.453125 3315.671875 3163.152344 3450 2825 3450 L 1737.5 3450 L 1737.5 5100 L 1100 5100 M 1737.5 2850 L 2787.5 2850 C 2966.519531 2850 3138.210938 2778.882812 3264.796875 2652.296875 C 3391.382812 2525.710938 3462.5 2354.019531 3462.5 2175 C 3462.5 1995.980469 3391.382812 1824.289062 3264.796875 1697.703125 C 3138.210938 1571.117188 2966.519531 1500 2787.5 1500 L 1737.5 1500 L 1737.5 2850 "/>
<path style=" stroke:none;fill-rule:evenodd;fill:rgb(94.509804%,94.117647%,91.764706%);fill-opacity:1;" d="M 2700 4450 L 3350 3800 L 3700 3800 L 3190 4310 L 4900 4310 L 4900 4590 L 3190 4590 L 3700 5100 L 3350 5100 L 2700 4450 "/>
</g>
</svg>
