<?xml version="1.0" encoding="UTF-8"?>
<svg xmlns="http://www.w3.org/2000/svg" xmlns:xlink="http://www.w3.org/1999/xlink" width="1600.000000mm" height="1600.000000mm" viewBox="0 0 16000 16000" version="1.1">
<g id="surface3581">
<path style="fill-rule:evenodd;fill:rgb(94.509804%,94.117647%,91.764706%);fill-opacity:1;stroke-width:0.3;stroke-linecap:butt;stroke-linejoin:miter;stroke:rgb(16.470588%,16.078431%,16.470588%);stroke-opacity:1;stroke-miterlimit:3;" d="M -740 -800 C -755.912891 -800 -771.174219 -793.678516 -782.426563 -782.426563 C -793.678516 -771.174219 -800 -755.912891 -800 -740 L -800 740 C -800 755.912891 -793.678516 771.174219 -782.426563 782.426563 C -771.174219 793.678516 -755.912891 800 -740 800 L 740 800 C 755.912891 800 771.174219 793.678516 782.426563 782.426563 C 793.678516 771.174219 800 755.912891 800 740 L 800 -740 C 800 -755.912891 793.678516 -771.174219 782.426563 -782.426563 C 771.174219 -793.678516 755.912891 -800 740 -800 L -740 -800 " transform="matrix(10,0,0,-10,8000,8000)"/>
<path style=" stroke:none;fill-rule:evenodd;fill:rgb(0%,35.686275%,54.901961%);fill-opacity:1;" d="M 600 15700 C 434.316406 15700 300 15565.683594 300 15400 L 300 600 C 300 434.316406 434.316406 300 600 300 L 15400 300 C 15565.683594 300 15700 434.316406 15700 600 L 15700 15400 C 15700 15565.683594 15565.683594 15700 15400 15700 L 600 15700 "/>
<path style=" stroke:none;fill-rule:evenodd;fill:rgb(94.509804%,94.117647%,91.764706%);fill-opacity:1;" d="M 2600 3380 L 2150 3496.191406 C 2140.199219 3498.71875 2130.121094 3500 2120 3500 C 2053.726562 3500 2000 3446.273438 2000 3380 C 2000 3356.226562 2007.0625 3332.988281 2020.289062 3313.234375 L 2900 2000 L 3779.710938 3313.234375 C 3792.9375 3332.988281 3800 3356.226562 3800 3380 C 3800 3446.273438 3746.273438 3500 3680 3500 C 3669.878906 3500 3659.800781 3498.71875 3650 3496.191406 L 3200 3380 L 3200 14000 L 2600 14000 L 2600 3380 "/>
<path style=" stroke:none;fill-rule:evenodd;fill:rgb(94.509804%,94.117647%,91.764706%);fill-opacity:1;" d="M 6200 3380 L 5750 3496.191406 C 5740.199219 3498.71875 5730.121094 3500 5720 3500 C 5653.726562 3500 5600 3446.273438 5600 3380 C 5600 3356.226562 5607.0625 3332.988281 5620.289062 3313.234375 L 6500 2000 L 7379.710938 3313.234375 C 7392.9375 3332.988281 7400 3356.226562 7400 3380 C 7400 3446.273438 7346.273438 3500 7280 3500 C 7269.878906 3500 7259.800781 3498.71875 7250 3496.191406 L 6800 3380 L 6800 14000 L 6200 14000 L 6200 3380 "/>
<path style=" stroke:none;fill-rule:evenodd;fill:rgb(94.509804%,94.117647%,91.764706%);fill-opacity:1;" d="M 9200 1600 L 9600 1600 L 9600 14400 L 9200 14400 L 9200 1600 "/>
<path style=" stroke:none;fill-rule:evenodd;fill:rgb(94.509804%,94.117647%,91.764706%);fill-opacity:1;" d="M 12587.9375 5763.675781 L 12988.296875 5527.636719 C 13024.890625 5506.058594 13047.351562 5466.746094 13047.351562 5424.265625 C 13047.351562 5366.960938 13006.835938 5317.65625 12950.625 5306.542969 L 11400 5000 L 11706.542969 6550.625 C 11717.65625 6606.835938 11766.960938 6647.351562 11824.265625 6647.351562 C 11866.746094 6647.351562 11906.058594 6624.890625 11927.636719 6588.296875 L 12163.675781 6187.9375 L 12624.265625 6648.527344 C 12736.785156 6761.050781 12800 6913.660156 12800 7072.792969 L 12800 14000 L 13400 14000 L 13400 7072.792969 C 13400 6754.53125 13273.570312 6449.308594 13048.527344 6224.265625 L 12587.9375 5763.675781 "/>
</g>
</svg>
