<?xml version="1.0" encoding="UTF-8"?>
<svg xmlns="http://www.w3.org/2000/svg" xmlns:xlink="http://www.w3.org/1999/xlink" width="1600.000000mm" height="1600.000000mm" viewBox="0 0 16000 16000" version="1.1">
<g id="surface3586">
<path style="fill-rule:evenodd;fill:rgb(94.509804%,94.117647%,91.764706%);fill-opacity:1;stroke-width:0.3;stroke-linecap:butt;stroke-linejoin:miter;stroke:rgb(16.470588%,16.078431%,16.470588%);stroke-opacity:1;stroke-miterlimit:3;" d="M -740 -800 C -755.912891 -800 -771.174219 -793.678516 -782.426563 -782.426563 C -793.678516 -771.174219 -800 -755.912891 -800 -740 L -800 740 C -800 755.912891 -793.678516 771.174219 -782.426563 782.426563 C -771.174219 793.678516 -755.912891 800 -740 800 L 740 800 C 755.912891 800 771.174219 793.678516 782.426563 782.426563 C 793.678516 771.174219 800 755.912891 800 740 L 800 -740 C 800 -755.912891 793.678516 -771.174219 782.426563 -782.426563 C 771.174219 -793.678516 755.912891 -800 740 -800 L -740 -800 " transform="matrix(10,0,0,-10,8000,8000)"/>
<path style=" stroke:none;fill-rule:evenodd;fill:rgb(0%,35.686275%,54.901961%);fill-opacity:1;" d="M 600 15700 C 434.316406 15700 300 15565.683594 300 15400 L 300 600 C 300 434.316406 434.316406 300 600 300 L 15400 300 C 15565.683594 300 15700 434.316406 15700 600 L 15700 15400 C 15700 15565.683594 15565.683594 15700 15400 15700 L 600 15700 "/>
<path style=" stroke:none;fill-rule:evenodd;fill:rgb(94.509804%,94.117647%,91.764706%);fill-opacity:1;" d="M 2000 3380 L 1550 3496.191406 C 1540.199219 3498.71875 1530.121094 3500 1520 3500 C 1453.726562 3500 1400 3446.273438 1400 3380 C 1400 3356.226562 1407.0625 3332.988281 1420.289062 3313.234375 L 2300 2000 L 3179.710938 3313.234375 C 3192.9375 3332.988281 3200 3356.226562 3200 3380 C 3200 3446.273438 3146.273438 3500 3080 3500 C 3069.878906 3500 3059.800781 3498.71875 3050 3496.191406 L 2600 3380 L 2600 14000 L 2000 14000 L 2000 3380 "/>
<path style=" stroke:none;fill-rule:evenodd;fill:rgb(94.509804%,94.117647%,91.764706%);fill-opacity:1;" d="M 4800 3380 L 4350 3496.191406 C 4340.199219 3498.71875 4330.121094 3500 4320 3500 C 4253.726562 3500 4200 3446.273438 4200 3380 C 4200 3356.226562 4207.0625 3332.988281 4220.289062 3313.234375 L 5100 2000 L 5979.710938 3313.234375 C 5992.9375 3332.988281 6000 3356.226562 6000 3380 C 6000 3446.273438 5946.273438 3500 5880 3500 C 5869.878906 3500 5859.800781 3498.71875 5850 3496.191406 L 5400 3380 L 5400 14000 L 4800 14000 L 4800 3380 "/>
<path style=" stroke:none;fill-rule:evenodd;fill:rgb(94.509804%,94.117647%,91.764706%);fill-opacity:1;" d="M 7600 3380 L 7150 3496.191406 C 7140.199219 3498.71875 7130.121094 3500 7120 3500 C 7053.726562 3500 7000 3446.273438 7000 3380 C 7000 3356.226562 7007.0625 3332.988281 7020.289062 3313.234375 L 7900 2000 L 8779.710938 3313.234375 C 8792.9375 3332.988281 8800 3356.226562 8800 3380 C 8800 3446.273438 8746.273438 3500 8680 3500 C 8669.878906 3500 8659.800781 3498.71875 8650 3496.191406 L 8200 3380 L 8200 14000 L 7600 14000 L 7600 3380 "/>
<path style=" stroke:none;fill-rule:evenodd;fill:rgb(94.509804%,94.117647%,91.764706%);fill-opacity:1;" d="M 10200 1600 L 10600 1600 L 10600 14400 L 10200 14400 L 10200 1600 "/>
<path style=" stroke:none;fill-rule:evenodd;fill:rgb(94.509804%,94.117647%,91.764706%);fill-opacity:1;" d="M 13187.9375 5763.675781 L 13588.296875 5527.636719 C 13624.890625 5506.058594 13647.351562 5466.746094 13647.351562 5424.265625 C 13647.351562 5366.960938 13606.835938 5317.65625 13550.625 5306.542969 L 12000 5000 L 12306.542969 6550.625 C 12317.65625 6606.835938 12366.960938 6647.351562 12424.265625 6647.351562 C 12466.746094 6647.351562 12506.058594 6624.890625 12527.636719 6588.296875 L 12763.675781 6187.9375 L 13224.265625 6648.527344 C 13336.785156 6761.050781 13400 6913.660156 13400 7072.792969 L 13400 14000 L 14000 14000 L 14000 7072.792969 C 14000 6754.53125 13873.570312 6449.308594 13648.527344 6224.265625 L 13187.9375 5763.675781 "/>
</g>
</svg>
