<?xml version="1.0" encoding="UTF-8"?>
<svg xmlns="http://www.w3.org/2000/svg" xmlns:xlink="http://www.w3.org/1999/xlink" width="1600.000000mm" height="1600.000000mm" viewBox="0 0 16000 16000" version="1.1">
<g id="surface3591">
<path style="fill-rule:evenodd;fill:rgb(94.509804%,94.117647%,91.764706%);fill-opacity:1;stroke-width:0.3;stroke-linecap:butt;stroke-linejoin:miter;stroke:rgb(16.470588%,16.078431%,16.470588%);stroke-opacity:1;stroke-miterlimit:3;" d="M -740 -800 C -755.912891 -800 -771.174219 -793.678516 -782.426563 -782.426563 C -793.678516 -771.174219 -800 -755.912891 -800 -740 L -800 740 C -800 755.912891 -793.678516 771.174219 -782.426563 782.426563 C -771.174219 793.678516 -755.912891 800 -740 800 L 740 800 C 755.912891 800 771.174219 793.678516 782.426563 782.426563 C 793.678516 771.174219 800 755.912891 800 740 L 800 -740 C 800 -755.912891 793.678516 -771.174219 782.426563 -782.426563 C 771.174219 -793.678516 755.912891 -800 740 -800 L -740 -800 " transform="matrix(10,0,0,-10,8000,8000)"/>
<path style=" stroke:none;fill-rule:evenodd;fill:rgb(0%,35.686275%,54.901961%);fill-opacity:1;" d="M 600 15700 C 434.316406 15700 300 15565.683594 300 15400 L 300 600 C 300 434.316406 434.316406 300 600 300 L 15400 300 C 15565.683594 300 15700 434.316406 15700 600 L 15700 15400 C 15700 15565.683594 15565.683594 15700 15400 15700 L 600 15700 "/>
<path style=" stroke:none;fill-rule:evenodd;fill:rgb(94.509804%,94.117647%,91.764706%);fill-opacity:1;" d="M 3000 3380 L 2550 3496.191406 C 2540.199219 3498.71875 2530.121094 3500 2520 3500 C 2453.726562 3500 2400 3446.273438 2400 3380 C 2400 3356.226562 2407.0625 3332.988281 2420.289062 3313.234375 L 3300 2000 L 4179.710938 3313.234375 C 4192.9375 3332.988281 4200 3356.226562 4200 3380 C 4200 3446.273438 4146.273438 3500 4080 3500 C 4069.878906 3500 4059.800781 3498.71875 4050 3496.191406 L 3600 3380 L 3600 14000 L 3000 14000 L 3000 3380 "/>
<path style=" stroke:none;fill-rule:evenodd;fill:rgb(94.509804%,94.117647%,91.764706%);fill-opacity:1;" d="M 6600 3380 L 6150 3496.191406 C 6140.199219 3498.71875 6130.121094 3500 6120 3500 C 6053.726562 3500 6000 3446.273438 6000 3380 C 6000 3356.226562 6007.0625 3332.988281 6020.289062 3313.234375 L 6900 2000 L 7779.710938 3313.234375 C 7792.9375 3332.988281 7800 3356.226562 7800 3380 C 7800 3446.273438 7746.273438 3500 7680 3500 C 7669.878906 3500 7659.800781 3498.71875 7650 3496.191406 L 7200 3380 L 7200 14000 L 6600 14000 L 6600 3380 "/>
<path style=" stroke:none;fill-rule:evenodd;fill:rgb(94.509804%,94.117647%,91.764706%);fill-opacity:1;" d="M 9600 1600 L 10000 1600 L 10000 14400 L 9600 14400 L 9600 1600 "/>
<path style=" stroke:none;fill-rule:evenodd;fill:rgb(94.509804%,94.117647%,91.764706%);fill-opacity:1;" d="M 12400 3380 L 11950 3496.191406 C 11940.199219 3498.71875 11930.121094 3500 11920 3500 C 11853.726562 3500 11800 3446.273438 11800 3380 C 11800 3356.226562 11807.0625 3332.988281 11820.289062 3313.234375 L 12700 2000 L 13579.710938 3313.234375 C 13592.9375 3332.988281 13600 3356.226562 13600 3380 C 13600 3446.273438 13546.273438 3500 13480 3500 C 13469.878906 3500 13459.800781 3498.71875 13450 3496.191406 L 13000 3380 L 13000 14000 L 12400 14000 L 12400 3380 "/>
<path style=" stroke:none;fill-rule:evenodd;fill:rgb(73.333333%,11.764706%,6.27451%);fill-opacity:1;" d="M 9800 15700 L 10649.0625 15700 L 15700 1494.011719 L 15700 600 C 15700 434.316406 15565.683594 300 15400 300 L 15275.46875 300 L 9800 15700 "/>
</g>
</svg>
