<?xml version="1.0" encoding="UTF-8"?>
<svg xmlns="http://www.w3.org/2000/svg" xmlns:xlink="http://www.w3.org/1999/xlink" width="1600.000000mm" height="1600.000000mm" viewBox="0 0 16000 16000" version="1.1">
<g id="surface3596">
<path style="fill-rule:evenodd;fill:rgb(94.509804%,94.117647%,91.764706%);fill-opacity:1;stroke-width:0.3;stroke-linecap:butt;stroke-linejoin:miter;stroke:rgb(16.470588%,16.078431%,16.470588%);stroke-opacity:1;stroke-miterlimit:3;" d="M -740 -800 C -755.912891 -800 -771.174219 -793.678516 -782.426563 -782.426563 C -793.678516 -771.174219 -800 -755.912891 -800 -740 L -800 740 C -800 755.912891 -793.678516 771.174219 -782.426563 782.426563 C -771.174219 793.678516 -755.912891 800 -740 800 L 740 800 C 755.912891 800 771.174219 793.678516 782.426563 782.426563 C 793.678516 771.174219 800 755.912891 800 740 L 800 -740 C 800 -755.912891 793.678516 -771.174219 782.426563 -782.426563 C 771.174219 -793.678516 755.912891 -800 740 -800 L -740 -800 " transform="matrix(10,0,0,-10,8000,8000)"/>
<path style=" stroke:none;fill-rule:evenodd;fill:rgb(0%,35.686275%,54.901961%);fill-opacity:1;" d="M 600 15700 C 434.316406 15700 300 15565.683594 300 15400 L 300 600 C 300 434.316406 434.316406 300 600 300 L 15400 300 C 15565.683594 300 15700 434.316406 15700 600 L 15700 15400 C 15700 15565.683594 15565.683594 15700 15400 15700 L 600 15700 "/>
<path style=" stroke:none;fill-rule:evenodd;fill:rgb(94.509804%,94.117647%,91.764706%);fill-opacity:1;" d="M 2400 3380 L 1950 3496.191406 C 1940.199219 3498.71875 1930.121094 3500 1920 3500 C 1853.726562 3500 1800 3446.273438 1800 3380 C 1800 3356.226562 1807.0625 3332.988281 1820.289062 3313.234375 L 2700 2000 L 3579.710938 3313.234375 C 3592.9375 3332.988281 3600 3356.226562 3600 3380 C 3600 3446.273438 3546.273438 3500 3480 3500 C 3469.878906 3500 3459.800781 3498.71875 3450 3496.191406 L 3000 3380 L 3000 14000 L 2400 14000 L 2400 3380 "/>
<path style=" stroke:none;fill-rule:evenodd;fill:rgb(94.509804%,94.117647%,91.764706%);fill-opacity:1;" d="M 5200 3380 L 4750 3496.191406 C 4740.199219 3498.71875 4730.121094 3500 4720 3500 C 4653.726562 3500 4600 3446.273438 4600 3380 C 4600 3356.226562 4607.0625 3332.988281 4620.289062 3313.234375 L 5500 2000 L 6379.710938 3313.234375 C 6392.9375 3332.988281 6400 3356.226562 6400 3380 C 6400 3446.273438 6346.273438 3500 6280 3500 C 6269.878906 3500 6259.800781 3498.71875 6250 3496.191406 L 5800 3380 L 5800 14000 L 5200 14000 L 5200 3380 "/>
<path style=" stroke:none;fill-rule:evenodd;fill:rgb(94.509804%,94.117647%,91.764706%);fill-opacity:1;" d="M 8000 3380 L 7550 3496.191406 C 7540.199219 3498.71875 7530.121094 3500 7520 3500 C 7453.726562 3500 7400 3446.273438 7400 3380 C 7400 3356.226562 7407.0625 3332.988281 7420.289062 3313.234375 L 8300 2000 L 9179.710938 3313.234375 C 9192.9375 3332.988281 9200 3356.226562 9200 3380 C 9200 3446.273438 9146.273438 3500 9080 3500 C 9069.878906 3500 9059.800781 3498.71875 9050 3496.191406 L 8600 3380 L 8600 14000 L 8000 14000 L 8000 3380 "/>
<path style=" stroke:none;fill-rule:evenodd;fill:rgb(94.509804%,94.117647%,91.764706%);fill-opacity:1;" d="M 10600 1600 L 11000 1600 L 11000 14400 L 10600 14400 L 10600 1600 "/>
<path style=" stroke:none;fill-rule:evenodd;fill:rgb(94.509804%,94.117647%,91.764706%);fill-opacity:1;" d="M 13000 3380 L 12550 3496.191406 C 12540.199219 3498.71875 12530.121094 3500 12520 3500 C 12453.726562 3500 12400 3446.273438 12400 3380 C 12400 3356.226562 12407.0625 3332.988281 12420.289062 3313.234375 L 13300 2000 L 14179.710938 3313.234375 C 14192.9375 3332.988281 14200 3356.226562 14200 3380 C 14200 3446.273438 14146.273438 3500 14080 3500 C 14069.878906 3500 14059.800781 3498.71875 14050 3496.191406 L 13600 3380 L 13600 14000 L 13000 14000 L 13000 3380 "/>
<path style=" stroke:none;fill-rule:evenodd;fill:rgb(73.333333%,11.764706%,6.27451%);fill-opacity:1;" d="M 10800 15700 L 11633.214844 15700 L 15700 1731 L 15700 600 C 15700 434.316406 15565.683594 300 15400 300 L 15283.394531 300 L 10800 15700 "/>
</g>
</svg>
