<?xml version="1.0" encoding="UTF-8"?>
<svg xmlns="http://www.w3.org/2000/svg" xmlns:xlink="http://www.w3.org/1999/xlink" width="1200.000000mm" height="1600.000000mm" viewBox="0 0 12000 16000" version="1.1">
<g id="surface3601">
<path style="fill-rule:evenodd;fill:rgb(94.509804%,94.117647%,91.764706%);fill-opacity:1;stroke-width:0.3;stroke-linecap:butt;stroke-linejoin:miter;stroke:rgb(16.470588%,16.078431%,16.470588%);stroke-opacity:1;stroke-miterlimit:3;" d="M 540 -800 C 555.912891 -800 571.174219 -793.678516 582.426563 -782.426563 C 593.678516 -771.174219 600 -755.912891 600 -740 L 600 740 C 600 755.912891 593.678516 771.174219 582.426563 782.426563 C 571.174219 793.678516 555.912891 800 540 800 L -540 800 C -555.912891 800 -571.174219 793.678516 -582.426563 782.426563 C -593.678516 771.174219 -600 755.912891 -600 740 L -600 -740 C -600 -755.912891 -593.678516 -771.174219 -582.426563 -782.426563 C -571.174219 -793.678516 -555.912891 -800 -540 -800 L 540 -800 " transform="matrix(10,0,0,-10,6000,8000)"/>
<path style=" stroke:none;fill-rule:evenodd;fill:rgb(0%,35.686275%,54.901961%);fill-opacity:1;" d="M 11400 15700 C 11565.683594 15700 11700 15565.683594 11700 15400 L 11700 600 C 11700 434.316406 11565.683594 300 11400 300 L 600 300 C 434.316406 300 300 434.316406 300 600 L 300 15400 C 300 15565.683594 434.316406 15700 600 15700 L 11400 15700 "/>
<path style=" stroke:none;fill-rule:evenodd;fill:rgb(94.509804%,94.117647%,91.764706%);fill-opacity:1;" d="M 9300 3380 L 9750 3496.191406 C 9759.800781 3498.71875 9769.878906 3500 9780 3500 C 9846.273438 3500 9900 3446.273438 9900 3380 C 9900 3356.226562 9892.9375 3332.988281 9879.710938 3313.234375 L 9000 2000 L 8120.289062 3313.234375 C 8107.0625 3332.988281 8100 3356.226562 8100 3380 C 8100 3446.273438 8153.726562 3500 8220 3500 C 8230.121094 3500 8240.199219 3498.71875 8250 3496.191406 L 8700 3380 L 8700 3600 C 8700 4393.230469 8507.421875 5174.605469 8138.816406 5876.988281 C 7770.207031 6579.375 7236.589844 7181.769531 6583.804688 7632.421875 L 5075.324219 8673.808594 C 4342.605469 9179.644531 3743.644531 9855.804688 3329.902344 10644.195312 C 2916.15625 11432.585938 2700 12309.636719 2700 13200 L 2700 14000 L 3300 14000 L 3300 13200 C 3300 12406.769531 3492.578125 11625.394531 3861.183594 10923.011719 C 4229.792969 10220.625 4763.410156 9618.230469 5416.195312 9167.578125 L 6924.675781 8126.191406 C 7657.394531 7620.355469 8256.355469 6944.195312 8670.097656 6155.804688 C 9083.84375 5367.414062 9300 4490.363281 9300 3600 L 9300 2980 "/>
<path style=" stroke:none;fill-rule:evenodd;fill:rgb(94.509804%,94.117647%,91.764706%);fill-opacity:1;" d="M 6500 1600 L 6900 1600 L 6900 6998.527344 C 6772.863281 7114.496094 6639.320312 7223.238281 6500 7324.246094 L 6500 1600 "/>
<path style=" stroke:none;fill-rule:evenodd;fill:rgb(94.509804%,94.117647%,91.764706%);fill-opacity:1;" d="M 6500 14400 L 6900 14400 L 6900 8507.769531 L 6500 8783.914062 L 6500 14400 "/>
</g>
</svg>
