<?xml version="1.0" encoding="UTF-8"?>
<svg xmlns="http://www.w3.org/2000/svg" xmlns:xlink="http://www.w3.org/1999/xlink" width="1200.000000mm" height="1600.000000mm" viewBox="0 0 12000 16000" version="1.1">
<g id="surface3606">
<path style="fill-rule:evenodd;fill:rgb(94.509804%,94.117647%,91.764706%);fill-opacity:1;stroke-width:0.3;stroke-linecap:butt;stroke-linejoin:miter;stroke:rgb(16.470588%,16.078431%,16.470588%);stroke-opacity:1;stroke-miterlimit:3;" d="M 540 -800 C 555.912891 -800 571.174219 -793.678516 582.426563 -782.426563 C 593.678516 -771.174219 600 -755.912891 600 -740 L 600 740 C 600 755.912891 593.678516 771.174219 582.426563 782.426563 C 571.174219 793.678516 555.912891 800 540 800 L -540 800 C -555.912891 800 -571.174219 793.678516 -582.426563 782.426563 C -593.678516 771.174219 -600 755.912891 -600 740 L -600 -740 C -600 -755.912891 -593.678516 -771.174219 -582.426563 -782.426563 C -571.174219 -793.678516 -555.912891 -800 -540 -800 L 540 -800 " transform="matrix(10,0,0,-10,6000,8000)"/>
<path style=" stroke:none;fill-rule:evenodd;fill:rgb(0%,35.686275%,54.901961%);fill-opacity:1;" d="M 11400 15700 C 11565.683594 15700 11700 15565.683594 11700 15400 L 11700 600 C 11700 434.316406 11565.683594 300 11400 300 L 600 300 C 434.316406 300 300 434.316406 300 600 L 300 15400 C 300 15565.683594 434.316406 15700 600 15700 L 11400 15700 "/>
<path style=" stroke:none;fill-rule:evenodd;fill:rgb(94.509804%,94.117647%,91.764706%);fill-opacity:1;" d="M 6900 3380 L 7350 3496.191406 C 7359.800781 3498.71875 7369.878906 3500 7380 3500 C 7446.273438 3500 7500 3446.273438 7500 3380 C 7500 3356.226562 7492.9375 3332.988281 7479.710938 3313.234375 L 6600 2000 L 5720.289062 3313.234375 C 5707.0625 3332.988281 5700 3356.226562 5700 3380 C 5700 3446.273438 5753.726562 3500 5820 3500 C 5830.121094 3500 5840.199219 3498.71875 5850 3496.191406 L 6300 3380 L 6300 4000 C 6300 4892.921875 5926.917969 5745.230469 5270.902344 6350.996094 L 4015.46875 7510.257812 C 3285.359375 8184.441406 2702.71875 9002.464844 2304.21875 9912.839844 C 1905.722656 10823.214844 1700 11806.226562 1700 12800 L 1700 14000 L 2300 14000 L 2300 12800 C 2300 11889.042969 2488.578125 10987.949219 2853.867188 10153.4375 C 3219.15625 9318.925781 3753.246094 8569.070312 4422.515625 7951.070312 L 5677.945312 6791.808594 C 6456.96875 6072.464844 6900 5060.34375 6900 4000 L 6900 2980 "/>
<path style=" stroke:none;fill-rule:evenodd;fill:rgb(94.509804%,94.117647%,91.764706%);fill-opacity:1;" d="M 10300 3380 L 10750 3496.191406 C 10759.800781 3498.71875 10769.878906 3500 10780 3500 C 10846.273438 3500 10900 3446.273438 10900 3380 C 10900 3356.226562 10892.9375 3332.988281 10879.710938 3313.234375 L 10000 2000 L 9120.289062 3313.234375 C 9107.0625 3332.988281 9100 3356.226562 9100 3380 C 9100 3446.273438 9153.726562 3500 9220 3500 C 9230.121094 3500 9240.199219 3498.71875 9250 3496.191406 L 9700 3380 L 9700 4000 C 9700 4910.957031 9511.421875 5812.050781 9146.132812 6646.5625 C 8780.84375 7481.074219 8246.753906 8230.929688 7577.484375 8848.929688 L 6322.054688 10008.191406 C 5543.03125 10727.535156 5100 11739.65625 5100 12800 L 5100 14000 L 5700 14000 L 5700 12800 C 5700 11907.078125 6073.082031 11054.769531 6729.097656 10449.003906 L 7984.53125 9289.742188 C 8714.640625 8615.558594 9297.28125 7797.535156 9695.78125 6887.160156 C 10094.277344 5976.785156 10300 4993.773438 10300 4000 L 10300 2980 "/>
<path style=" stroke:none;fill-rule:evenodd;fill:rgb(94.509804%,94.117647%,91.764706%);fill-opacity:1;" d="M 8100 1600 L 8500 1600 L 8500 7244.996094 C 8377.835938 7448.289062 8244.289062 7644.519531 8100 7832.753906 L 8100 1600 "/>
<path style=" stroke:none;fill-rule:evenodd;fill:rgb(94.509804%,94.117647%,91.764706%);fill-opacity:1;" d="M 8100 14400 L 8500 14400 L 8500 9204.804688 C 8399 9309.589844 8294.976562 9411.414062 8188.050781 9510.148438 L 8100 9591.453125 L 8100 14400 "/>
</g>
</svg>
