<?xml version="1.0" encoding="UTF-8"?>
<svg xmlns="http://www.w3.org/2000/svg" xmlns:xlink="http://www.w3.org/1999/xlink" width="600.000000mm" height="450.000000mm" viewBox="0 0 6000 4500" version="1.1">
<g id="surface121">
<path style="fill-rule:evenodd;fill:rgb(94.509804%,94.117647%,91.764706%);fill-opacity:1;stroke-width:0.3;stroke-linecap:butt;stroke-linejoin:miter;stroke:rgb(16.470588%,16.078431%,16.470588%);stroke-opacity:1;stroke-miterlimit:3;" d="M -260 -225 C -270.608594 -225 -280.782812 -220.785547 -288.284375 -213.284375 C -295.785547 -205.782813 -300 -195.608594 -300 -185 L -300 185 C -300 195.608594 -295.785547 205.782813 -288.284375 213.284375 C -280.782812 220.785547 -270.608594 225 -260 225 L 260 225 C 270.608594 225 280.782812 220.785547 288.284375 213.284375 C 295.785547 205.782813 300 195.608594 300 185 L 300 -185 C 300 -195.608594 295.785547 -205.782813 288.284375 -213.284375 C 280.782812 -220.785547 270.608594 -225 260 -225 L -260 -225 " transform="matrix(10,0,0,-10,3000,2250)"/>
<path style=" stroke:none;fill-rule:evenodd;fill:rgb(16.470588%,16.078431%,16.470588%);fill-opacity:1;" d="M 400 4400 C 234.316406 4400 100 4265.683594 100 4100 L 100 400 C 100 234.316406 234.316406 100 400 100 L 5600 100 C 5765.683594 100 5900 234.316406 5900 400 L 5900 4100 C 5900 4265.683594 5765.683594 4400 5600 4400 L 400 4400 M 400 4250 C 317.15625 4250 250 4182.84375 250 4100 L 250 400 C 250 317.15625 317.15625 250 400 250 L 5600 250 C 5682.84375 250 5750 317.15625 5750 400 L 5750 4100 C 5750 4182.84375 5682.84375 4250 5600 4250 L 400 4250 "/>
<path style=" stroke:none;fill-rule:evenodd;fill:rgb(16.470588%,16.078431%,16.470588%);fill-opacity:1;" d="M 2820 4050 L 3180 4050 L 3180 3628.234375 C 3180 3551.953125 3228.082031 3483.957031 3300 3458.527344 C 3475.472656 3396.488281 3627.394531 3281.578125 3734.847656 3129.617188 C 3842.300781 2977.652344 3900 2796.113281 3900 2610 C 3900 2423.886719 3842.300781 2242.347656 3734.847656 2090.382812 C 3627.394531 1938.421875 3475.472656 1823.511719 3300 1761.472656 C 3228.082031 1736.042969 3180 1668.046875 3180 1591.765625 L 3180 1080 L 3720 1620 L 3720 1170 L 3000 450 L 2280 1170 L 2280 1620 L 2820 1080 L 2820 1728.183594 C 2616.746094 1769.671875 2434.0625 1880.101562 2302.863281 2040.789062 C 2171.664062 2201.476562 2100 2402.554688 2100 2610 C 2100 2786.46875 2151.878906 2959.042969 2249.183594 3106.257812 C 2282.507812 3156.675781 2338.910156 3187.007812 2399.347656 3187.007812 C 2498.757812 3187.007812 2579.347656 3106.417969 2579.347656 3007.007812 C 2579.347656 2971.714844 2568.96875 2937.199219 2549.507812 2907.753906 C 2491.128906 2819.425781 2460 2715.878906 2460 2610 C 2460 2466.78125 2516.894531 2329.433594 2618.164062 2228.164062 C 2719.433594 2126.894531 2856.78125 2070 3000 2070 C 3143.21875 2070 3280.566406 2126.894531 3381.835938 2228.164062 C 3483.105469 2329.433594 3540 2466.78125 3540 2610 C 3540 2734.46875 3497.003906 2855.113281 3418.28125 2951.527344 C 3339.5625 3047.9375 3229.953125 3114.195312 3108 3139.089844 C 2940.386719 3173.304688 2820 3320.746094 2820 3491.816406 L 2820 4050 "/>
</g>
</svg>
