<?xml version="1.0" encoding="UTF-8"?>
<svg xmlns="http://www.w3.org/2000/svg" xmlns:xlink="http://www.w3.org/1999/xlink" width="600.000000mm" height="330.000000mm" viewBox="0 0 6000 3300" version="1.1">
<g id="surface116">
<path style="fill-rule:evenodd;fill:rgb(94.509804%,94.117647%,91.764706%);fill-opacity:1;stroke-width:0.3;stroke-linecap:butt;stroke-linejoin:miter;stroke:rgb(16.470588%,16.078431%,16.470588%);stroke-opacity:1;stroke-miterlimit:3;" d="M -260 -165 C -270.608594 -165 -280.782812 -160.785547 -288.284375 -153.284375 C -295.785547 -145.782813 -300 -135.608594 -300 -125 L -300 125 C -300 135.608594 -295.785547 145.782813 -288.284375 153.284375 C -280.782812 160.785547 -270.608594 165 -260 165 L 260 165 C 270.608594 165 280.782812 160.785547 288.284375 153.284375 C 295.785547 145.782813 300 135.608594 300 125 L 300 -125 C 300 -135.608594 295.785547 -145.782813 288.284375 -153.284375 C 280.782812 -160.785547 270.608594 -165 260 -165 L -260 -165 " transform="matrix(10,0,0,-10,3000,1650)"/>
<path style=" stroke:none;fill-rule:evenodd;fill:rgb(16.470588%,16.078431%,16.470588%);fill-opacity:1;" d="M 400 3200 C 234.316406 3200 100 3065.683594 100 2900 L 100 400 C 100 234.316406 234.316406 100 400 100 L 5600 100 C 5765.683594 100 5900 234.316406 5900 400 L 5900 2900 C 5900 3065.683594 5765.683594 3200 5600 3200 L 400 3200 M 400 3050 C 317.15625 3050 250 2982.84375 250 2900 L 250 400 C 250 317.15625 317.15625 250 400 250 L 5600 250 C 5682.84375 250 5750 317.15625 5750 400 L 5750 2900 C 5750 2982.84375 5682.84375 3050 5600 3050 L 400 3050 "/>
<path style=" stroke:none;fill-rule:evenodd;fill:rgb(16.470588%,16.078431%,16.470588%);fill-opacity:1;" d="M 1920 2850 L 2280 2850 L 2280 2368.234375 C 2280 2291.953125 2328.082031 2223.957031 2400 2198.527344 C 2656.300781 2107.910156 2857.910156 1906.300781 2948.527344 1650 C 2973.957031 1578.082031 3041.953125 1530 3118.234375 1530 L 4170 1530 L 3630 2070 L 4080 2070 L 4800 1350 L 4080 630 L 3630 630 L 4170 1170 L 2981.816406 1170 C 2940.328125 966.746094 2829.898438 784.0625 2669.210938 652.863281 C 2508.523438 521.664062 2307.445312 450 2100 450 C 1861.304688 450 1632.386719 544.820312 1463.605469 713.605469 C 1294.820312 882.386719 1200 1111.304688 1200 1350 C 1200 1526.46875 1251.878906 1699.042969 1349.183594 1846.257812 C 1382.507812 1896.675781 1438.910156 1927.007812 1499.347656 1927.007812 C 1598.757812 1927.007812 1679.347656 1846.417969 1679.347656 1747.007812 C 1679.347656 1711.714844 1668.96875 1677.199219 1649.507812 1647.753906 C 1591.128906 1559.425781 1560 1455.878906 1560 1350 C 1560 1206.78125 1616.894531 1069.433594 1718.164062 968.164062 C 1819.433594 866.894531 1956.78125 810 2100 810 C 2243.21875 810 2380.566406 866.894531 2481.835938 968.164062 C 2583.105469 1069.433594 2640 1206.78125 2640 1350 C 2640 1474.46875 2597.003906 1595.113281 2518.28125 1691.527344 C 2439.5625 1787.9375 2329.953125 1854.195312 2208 1879.089844 C 2040.386719 1913.304688 1920 2060.746094 1920 2231.816406 L 1920 2850 "/>
</g>
</svg>
