<?xml version="1.0" encoding="UTF-8"?>
<svg xmlns="http://www.w3.org/2000/svg" xmlns:xlink="http://www.w3.org/1999/xlink" width="600.000000mm" height="330.000000mm" viewBox="0 0 6000 3300" version="1.1">
<g id="surface106">
<path style="fill-rule:evenodd;fill:rgb(94.509804%,94.117647%,91.764706%);fill-opacity:1;stroke-width:0.3;stroke-linecap:butt;stroke-linejoin:miter;stroke:rgb(16.470588%,16.078431%,16.470588%);stroke-opacity:1;stroke-miterlimit:3;" d="M -260 -165 C -270.608594 -165 -280.782812 -160.785547 -288.284375 -153.284375 C -295.785547 -145.782813 -300 -135.608594 -300 -125 L -300 125 C -300 135.608594 -295.785547 145.782813 -288.284375 153.284375 C -280.782812 160.785547 -270.608594 165 -260 165 L 260 165 C 270.608594 165 280.782812 160.785547 288.284375 153.284375 C 295.785547 145.782813 300 135.608594 300 125 L 300 -125 C 300 -135.608594 295.785547 -145.782813 288.284375 -153.284375 C 280.782812 -160.785547 270.608594 -165 260 -165 L -260 -165 " transform="matrix(10,0,0,-10,3000,1650)"/>
<path style=" stroke:none;fill-rule:evenodd;fill:rgb(16.470588%,16.078431%,16.470588%);fill-opacity:1;" d="M 400 3200 C 234.316406 3200 100 3065.683594 100 2900 L 100 400 C 100 234.316406 234.316406 100 400 100 L 5600 100 C 5765.683594 100 5900 234.316406 5900 400 L 5900 2900 C 5900 3065.683594 5765.683594 3200 5600 3200 L 400 3200 M 400 3050 C 317.15625 3050 250 2982.84375 250 2900 L 250 400 C 250 317.15625 317.15625 250 400 250 L 5600 250 C 5682.84375 250 5750 317.15625 5750 400 L 5750 2900 C 5750 2982.84375 5682.84375 3050 5600 3050 L 400 3050 "/>
<path style=" stroke:none;fill-rule:evenodd;fill:rgb(16.470588%,16.078431%,16.470588%);fill-opacity:1;" d="M 3720 2850 L 4080 2850 L 4080 2368.234375 C 4080 2291.953125 4128.082031 2223.957031 4200 2198.527344 C 4375.472656 2136.488281 4527.394531 2021.578125 4634.847656 1869.617188 C 4742.300781 1717.652344 4800 1536.113281 4800 1350 C 4800 1111.304688 4705.179688 882.386719 4536.394531 713.605469 C 4367.613281 544.820312 4138.695312 450 3900 450 C 3713.886719 450 3532.347656 507.699219 3380.382812 615.152344 C 3228.421875 722.605469 3113.511719 874.527344 3051.472656 1050 C 3026.042969 1121.917969 2958.046875 1170 2881.765625 1170 L 1830 1170 L 2370 630 L 1920 630 L 1200 1350 L 1920 2070 L 2370 2070 L 1830 1530 L 3018.183594 1530 C 3041.214844 1642.828125 3085.683594 1750.191406 3149.183594 1846.257812 C 3182.507812 1896.675781 3238.910156 1927.007812 3299.347656 1927.007812 C 3398.757812 1927.007812 3479.347656 1846.417969 3479.347656 1747.007812 C 3479.347656 1711.714844 3468.96875 1677.199219 3449.507812 1647.753906 C 3391.128906 1559.425781 3360 1455.878906 3360 1350 C 3360 1206.78125 3416.894531 1069.433594 3518.164062 968.164062 C 3619.433594 866.894531 3756.78125 810 3900 810 C 4043.21875 810 4180.566406 866.894531 4281.835938 968.164062 C 4383.105469 1069.433594 4440 1206.78125 4440 1350 C 4440 1474.46875 4397.003906 1595.113281 4318.28125 1691.527344 C 4239.5625 1787.9375 4129.953125 1854.195312 4008 1879.089844 C 3840.386719 1913.304688 3720 2060.746094 3720 2231.816406 L 3720 2850 "/>
</g>
</svg>
