<?xml version="1.0" encoding="UTF-8"?>
<svg xmlns="http://www.w3.org/2000/svg" xmlns:xlink="http://www.w3.org/1999/xlink" width="600.000000mm" height="330.000000mm" viewBox="0 0 6000 3300" version="1.1">
<g id="surface201">
<path style="fill-rule:evenodd;fill:rgb(94.509804%,94.117647%,91.764706%);fill-opacity:1;stroke-width:0.3;stroke-linecap:butt;stroke-linejoin:miter;stroke:rgb(16.470588%,16.078431%,16.470588%);stroke-opacity:1;stroke-miterlimit:3;" d="M -260 -165 C -270.608594 -165 -280.782812 -160.785547 -288.284375 -153.284375 C -295.785547 -145.782813 -300 -135.608594 -300 -125 L -300 125 C -300 135.608594 -295.785547 145.782813 -288.284375 153.284375 C -280.782812 160.785547 -270.608594 165 -260 165 L 260 165 C 270.608594 165 280.782812 160.785547 288.284375 153.284375 C 295.785547 145.782813 300 135.608594 300 125 L 300 -125 C 300 -135.608594 295.785547 -145.782813 288.284375 -153.284375 C 280.782812 -160.785547 270.608594 -165 260 -165 L -260 -165 " transform="matrix(10,0,0,-10,3000,1650)"/>
<path style=" stroke:none;fill-rule:evenodd;fill:rgb(16.470588%,16.078431%,16.470588%);fill-opacity:1;" d="M 400 3200 C 234.316406 3200 100 3065.683594 100 2900 L 100 400 C 100 234.316406 234.316406 100 400 100 L 5600 100 C 5765.683594 100 5900 234.316406 5900 400 L 5900 2900 C 5900 3065.683594 5765.683594 3200 5600 3200 L 400 3200 M 400 3050 C 317.15625 3050 250 2982.84375 250 2900 L 250 400 C 250 317.15625 317.15625 250 400 250 L 5600 250 C 5682.84375 250 5750 317.15625 5750 400 L 5750 2900 C 5750 2982.84375 5682.84375 3050 5600 3050 L 400 3050 "/>
<path style=" stroke:none;fill-rule:evenodd;fill:rgb(16.470588%,16.078431%,16.470588%);fill-opacity:1;" d="M 3000 1782.582031 L 3617.417969 2400 L 3750 2267.417969 L 3132.582031 1650 L 3437.5 1345.082031 L 3617.417969 1525 L 3750 1392.417969 L 3257.582031 900 L 3125 1032.582031 L 3304.917969 1212.5 L 3000 1517.417969 L 2695.082031 1212.5 L 2875 1032.582031 L 2742.417969 900 L 2250 1392.417969 L 2382.582031 1525 L 2562.5 1345.082031 L 2867.417969 1650 L 2250 2267.417969 L 2382.582031 2400 L 3000 1782.582031 "/>
</g>
</svg>
