<?xml version="1.0" encoding="UTF-8"?>
<svg xmlns="http://www.w3.org/2000/svg" xmlns:xlink="http://www.w3.org/1999/xlink" width="600.000000mm" height="330.000000mm" viewBox="0 0 6000 3300" version="1.1">
<g id="surface661">
<path style="fill-rule:evenodd;fill:rgb(94.509804%,94.117647%,91.764706%);fill-opacity:1;stroke-width:0.3;stroke-linecap:butt;stroke-linejoin:miter;stroke:rgb(16.470588%,16.078431%,16.470588%);stroke-opacity:1;stroke-miterlimit:3;" d="M -260 -165 C -270.608594 -165 -280.782812 -160.785547 -288.284375 -153.284375 C -295.785547 -145.782813 -300 -135.608594 -300 -125 L -300 125 C -300 135.608594 -295.785547 145.782813 -288.284375 153.284375 C -280.782812 160.785547 -270.608594 165 -260 165 L 260 165 C 270.608594 165 280.782812 160.785547 288.284375 153.284375 C 295.785547 145.782813 300 135.608594 300 125 L 300 -125 C 300 -135.608594 295.785547 -145.782813 288.284375 -153.284375 C 280.782812 -160.785547 270.608594 -165 260 -165 L -260 -165 " transform="matrix(10,0,0,-10,3000,1650)"/>
<path style=" stroke:none;fill-rule:evenodd;fill:rgb(16.470588%,16.078431%,16.470588%);fill-opacity:1;" d="M 400 3200 C 234.316406 3200 100 3065.683594 100 2900 L 100 400 C 100 234.316406 234.316406 100 400 100 L 5600 100 C 5765.683594 100 5900 234.316406 5900 400 L 5900 2900 C 5900 3065.683594 5765.683594 3200 5600 3200 L 400 3200 M 400 3050 C 317.15625 3050 250 2982.84375 250 2900 L 250 400 C 250 317.15625 317.15625 250 400 250 L 5600 250 C 5682.84375 250 5750 317.15625 5750 400 L 5750 2900 C 5750 2982.84375 5682.84375 3050 5600 3050 L 400 3050 "/>
<path style=" stroke:none;fill-rule:evenodd;fill:rgb(16.470588%,16.078431%,16.470588%);fill-opacity:1;" d="M 3050 1925.792969 L 2577.816406 2795.433594 C 2542.828125 2859.871094 2475.378906 2900 2402.050781 2900 C 2368.71875 2900 2335.914062 2891.667969 2306.621094 2875.761719 L 2837.882812 1897.316406 C 2845.835938 1882.671875 2850 1866.269531 2850 1849.601562 L 2850 1825 L 3250 1825 L 3250 1849.601562 C 3250 1866.269531 3254.164062 1882.671875 3262.117188 1897.316406 L 3659.285156 2628.804688 C 3675.1875 2658.097656 3683.519531 2690.902344 3683.519531 2724.234375 C 3683.519531 2797.5625 3643.394531 2865.011719 3578.953125 2900 L 3050 1925.792969 M 3250 1194.914062 L 3250 1775 L 2850 1775 L 2850 1295.269531 L 2590.210938 1695.3125 C 2557.933594 1745.011719 2502.699219 1775 2443.441406 1775 C 2409.609375 1775 2376.503906 1765.195312 2348.128906 1746.765625 L 2840.332031 988.839844 C 2886.4375 917.84375 2965.34375 875 3050 875 C 3108.777344 875 3165.671875 895.707031 3210.695312 933.488281 L 3546.417969 1215.191406 C 3580.382812 1243.691406 3600 1285.757812 3600 1330.097656 L 3600 1575 C 3600 1671.648438 3521.648438 1750 3425 1750 L 3425 1341.757812 L 3250 1194.914062 M 3150 600 C 3150 489.542969 3060.457031 400 2950 400 C 2839.542969 400 2750 489.542969 2750 600 C 2750 710.457031 2839.542969 800 2950 800 C 3060.457031 800 3150 710.457031 3150 600 "/>
</g>
</svg>
