<?xml version="1.0" encoding="UTF-8"?>
<svg xmlns="http://www.w3.org/2000/svg" xmlns:xlink="http://www.w3.org/1999/xlink" width="600.000000mm" height="330.000000mm" viewBox="0 0 6000 3300" version="1.1">
<g id="surface576">
<path style="fill-rule:evenodd;fill:rgb(94.509804%,94.117647%,91.764706%);fill-opacity:1;stroke-width:0.3;stroke-linecap:butt;stroke-linejoin:miter;stroke:rgb(16.470588%,16.078431%,16.470588%);stroke-opacity:1;stroke-miterlimit:3;" d="M -260 -165 C -270.608594 -165 -280.782812 -160.785547 -288.284375 -153.284375 C -295.785547 -145.782813 -300 -135.608594 -300 -125 L -300 125 C -300 135.608594 -295.785547 145.782813 -288.284375 153.284375 C -280.782812 160.785547 -270.608594 165 -260 165 L 260 165 C 270.608594 165 280.782812 160.785547 288.284375 153.284375 C 295.785547 145.782813 300 135.608594 300 125 L 300 -125 C 300 -135.608594 295.785547 -145.782813 288.284375 -153.284375 C 280.782812 -160.785547 270.608594 -165 260 -165 L -260 -165 " transform="matrix(10,0,0,-10,3000,1650)"/>
<path style=" stroke:none;fill-rule:evenodd;fill:rgb(16.470588%,16.078431%,16.470588%);fill-opacity:1;" d="M 400 3200 C 234.316406 3200 100 3065.683594 100 2900 L 100 400 C 100 234.316406 234.316406 100 400 100 L 5600 100 C 5765.683594 100 5900 234.316406 5900 400 L 5900 2900 C 5900 3065.683594 5765.683594 3200 5600 3200 L 400 3200 M 400 3050 C 317.15625 3050 250 2982.84375 250 2900 L 250 400 C 250 317.15625 317.15625 250 400 250 L 5600 250 C 5682.84375 250 5750 317.15625 5750 400 L 5750 2900 C 5750 2982.84375 5682.84375 3050 5600 3050 L 400 3050 "/>
<path style=" stroke:none;fill-rule:evenodd;fill:rgb(16.470588%,16.078431%,16.470588%);fill-opacity:1;" d="M 5040 1210 L 5040 1330 L 4960 1330 L 5231.554688 1873.105469 C 5237.109375 1884.214844 5240 1896.464844 5240 1908.882812 L 5240 2170 C 5240 2258.367188 5168.367188 2330 5080 2330 L 920 2330 C 831.632812 2330 760 2258.367188 760 2170 L 760 1908.882812 C 760 1896.464844 762.890625 1884.214844 768.445312 1873.105469 L 1040 1330 L 960 1330 L 960 1210 L 1680 1210 L 1720 1170 L 2048 1170 L 1604 874 L 2120 530 L 2636 874 L 2192 1170 L 2520 1170 L 2560 1210 L 5040 1210 M 4720 1330 L 4888.449219 1330 L 5067.144531 1687.390625 C 5076.863281 1706.828125 5081.921875 1728.265625 5081.921875 1750 C 5081.921875 1827.320312 5019.242188 1890 4941.921875 1890 L 4720 1890 L 4720 1330 M 4560 1330 C 4604.183594 1330 4640 1365.816406 4640 1410 L 4640 2170 C 4640 2214.183594 4604.183594 2250 4560 2250 L 4240 2250 C 4195.816406 2250 4160 2214.183594 4160 2170 L 4160 1410 C 4160 1365.816406 4195.816406 1330 4240 1330 L 4560 1330 M 4000 1330 C 4044.183594 1330 4080 1365.816406 4080 1410 L 4080 1810 C 4080 1854.183594 4044.183594 1890 4000 1890 L 3440 1890 C 3395.816406 1890 3360 1854.183594 3360 1810 L 3360 1410 C 3360 1365.816406 3395.816406 1330 3440 1330 L 4000 1330 M 3200 1330 C 3244.183594 1330 3280 1365.816406 3280 1410 L 3280 1810 C 3280 1854.183594 3244.183594 1890 3200 1890 L 2640 1890 C 2595.816406 1890 2560 1854.183594 2560 1810 L 2560 1410 C 2560 1365.816406 2595.816406 1330 2640 1330 L 3200 1330 M 2400 1330 C 2444.183594 1330 2480 1365.816406 2480 1410 L 2480 1810 C 2480 1854.183594 2444.183594 1890 2400 1890 L 1840 1890 C 1795.816406 1890 1760 1854.183594 1760 1810 L 1760 1410 C 1760 1365.816406 1795.816406 1330 1840 1330 L 2400 1330 M 1600 1330 C 1644.183594 1330 1680 1365.816406 1680 1410 L 1680 2170 C 1680 2214.183594 1644.183594 2250 1600 2250 L 1440 2250 C 1395.816406 2250 1360 2214.183594 1360 2170 L 1360 1410 C 1360 1365.816406 1395.816406 1330 1440 1330 L 1600 1330 M 1280 1330 L 1280 1890 L 1058.078125 1890 C 980.761719 1890 918.078125 1827.320312 918.078125 1750 C 918.078125 1728.265625 923.140625 1706.828125 932.859375 1687.390625 L 1111.554688 1330 L 1280 1330 M 1560 2410 C 1560 2520.457031 1470.457031 2610 1360 2610 C 1249.542969 2610 1160 2520.457031 1160 2410 L 1560 2410 M 1920 2410 C 1920 2451.507812 1929.230469 2492.496094 1947.019531 2530 L 1612.980469 2530 C 1630.769531 2492.496094 1640 2451.507812 1640 2410 L 1920 2410 M 2400 2410 C 2400 2520.457031 2310.457031 2610 2200 2610 C 2089.542969 2610 2000 2520.457031 2000 2410 L 2400 2410 M 4000 2410 C 4000 2520.457031 3910.457031 2610 3800 2610 C 3689.542969 2610 3600 2520.457031 3600 2410 L 4000 2410 M 4360 2410 C 4360 2451.507812 4369.230469 2492.496094 4387.019531 2530 L 4052.980469 2530 C 4070.769531 2492.496094 4080 2451.507812 4080 2410 L 4360 2410 M 4840 2410 C 4840 2520.457031 4750.457031 2610 4640 2610 C 4529.542969 2610 4440 2520.457031 4440 2410 L 4840 2410 M 2120 1170 L 1676 874 L 2120 578 L 2564 874 L 2120 1170 "/>
</g>
</svg>
