<?xml version="1.0" encoding="UTF-8"?>
<svg xmlns="http://www.w3.org/2000/svg" xmlns:xlink="http://www.w3.org/1999/xlink" width="600.000000mm" height="330.000000mm" viewBox="0 0 6000 3300" version="1.1">
<g id="surface631">
<path style="fill-rule:evenodd;fill:rgb(94.509804%,94.117647%,91.764706%);fill-opacity:1;stroke-width:0.3;stroke-linecap:butt;stroke-linejoin:miter;stroke:rgb(16.470588%,16.078431%,16.470588%);stroke-opacity:1;stroke-miterlimit:3;" d="M -260 -165 C -270.608594 -165 -280.782812 -160.785547 -288.284375 -153.284375 C -295.785547 -145.782813 -300 -135.608594 -300 -125 L -300 125 C -300 135.608594 -295.785547 145.782813 -288.284375 153.284375 C -280.782812 160.785547 -270.608594 165 -260 165 L 260 165 C 270.608594 165 280.782812 160.785547 288.284375 153.284375 C 295.785547 145.782813 300 135.608594 300 125 L 300 -125 C 300 -135.608594 295.785547 -145.782813 288.284375 -153.284375 C 280.782812 -160.785547 270.608594 -165 260 -165 L -260 -165 " transform="matrix(10,0,0,-10,3000,1650)"/>
<path style=" stroke:none;fill-rule:evenodd;fill:rgb(16.470588%,16.078431%,16.470588%);fill-opacity:1;" d="M 400 3200 C 234.316406 3200 100 3065.683594 100 2900 L 100 400 C 100 234.316406 234.316406 100 400 100 L 5600 100 C 5765.683594 100 5900 234.316406 5900 400 L 5900 2900 C 5900 3065.683594 5765.683594 3200 5600 3200 L 400 3200 M 400 3050 C 317.15625 3050 250 2982.84375 250 2900 L 250 400 C 250 317.15625 317.15625 250 400 250 L 5600 250 C 5682.84375 250 5750 317.15625 5750 400 L 5750 2900 C 5750 2982.84375 5682.84375 3050 5600 3050 L 400 3050 "/>
<path style=" stroke:none;fill-rule:evenodd;fill:rgb(16.470588%,16.078431%,16.470588%);fill-opacity:1;" d="M 4150 600 L 3294.425781 600 C 3196.65625 600 3113.21875 670.683594 3097.148438 767.121094 L 3000 1350 L 1750 1350 C 1694.773438 1350 1650 1394.773438 1650 1450 C 1650 1455.152344 1650.398438 1460.292969 1651.191406 1465.382812 L 1750 2100 L 1837.75 2100 C 1913.660156 2005.1875 2028.542969 1950 2150 1950 C 2271.457031 1950 2386.339844 2005.1875 2462.25 2100 L 3000 2100 C 3000 1927.609375 3068.480469 1762.277344 3190.378906 1640.378906 C 3312.277344 1518.480469 3477.609375 1450 3650 1450 C 3843.265625 1450 4026.507812 1536.003906 4150 1684.667969 L 4150 600 M 3900 750 L 3267.359375 750 C 3242.917969 750 3222.054688 767.671875 3218.039062 791.78125 L 3125 1350 L 3900 1350 L 3900 750 M 4250 2100 C 4250 1940.871094 4186.785156 1788.257812 4074.265625 1675.734375 C 3961.742188 1563.214844 3809.128906 1500 3650 1500 C 3490.871094 1500 3338.257812 1563.214844 3225.734375 1675.734375 C 3113.214844 1788.257812 3050 1940.871094 3050 2100 C 3050 2259.128906 3113.214844 2411.742188 3225.734375 2524.265625 C 3338.257812 2636.785156 3490.871094 2700 3650 2700 C 3809.128906 2700 3961.742188 2636.785156 4074.265625 2524.265625 C 4186.785156 2411.742188 4250 2259.128906 4250 2100 M 3950 2100 C 3950 1934.316406 3815.683594 1800 3650 1800 C 3484.316406 1800 3350 1934.316406 3350 2100 C 3350 2265.683594 3484.316406 2400 3650 2400 C 3815.683594 2400 3950 2265.683594 3950 2100 M 2500 2350 C 2500 2156.699219 2343.300781 2000 2150 2000 C 1956.699219 2000 1800 2156.699219 1800 2350 C 1800 2543.300781 1956.699219 2700 2150 2700 C 2343.300781 2700 2500 2543.300781 2500 2350 M 2325 2350 C 2325 2253.351562 2246.648438 2175 2150 2175 C 2053.351562 2175 1975 2253.351562 1975 2350 C 1975 2446.648438 2053.351562 2525 2150 2525 C 2246.648438 2525 2325 2446.648438 2325 2350 "/>
</g>
</svg>
