<?xml version="1.0" encoding="UTF-8"?>
<svg xmlns="http://www.w3.org/2000/svg" xmlns:xlink="http://www.w3.org/1999/xlink" width="600.000000mm" height="330.000000mm" viewBox="0 0 6000 3300" version="1.1">
<g id="surface666">
<path style="fill-rule:evenodd;fill:rgb(94.509804%,94.117647%,91.764706%);fill-opacity:1;stroke-width:0.3;stroke-linecap:butt;stroke-linejoin:miter;stroke:rgb(16.470588%,16.078431%,16.470588%);stroke-opacity:1;stroke-miterlimit:3;" d="M -260 -165 C -270.608594 -165 -280.782812 -160.785547 -288.284375 -153.284375 C -295.785547 -145.782813 -300 -135.608594 -300 -125 L -300 125 C -300 135.608594 -295.785547 145.782813 -288.284375 153.284375 C -280.782812 160.785547 -270.608594 165 -260 165 L 260 165 C 270.608594 165 280.782812 160.785547 288.284375 153.284375 C 295.785547 145.782813 300 135.608594 300 125 L 300 -125 C 300 -135.608594 295.785547 -145.782813 288.284375 -153.284375 C 280.782812 -160.785547 270.608594 -165 260 -165 L -260 -165 " transform="matrix(10,0,0,-10,3000,1650)"/>
<path style=" stroke:none;fill-rule:evenodd;fill:rgb(16.470588%,16.078431%,16.470588%);fill-opacity:1;" d="M 400 3200 C 234.316406 3200 100 3065.683594 100 2900 L 100 400 C 100 234.316406 234.316406 100 400 100 L 5600 100 C 5765.683594 100 5900 234.316406 5900 400 L 5900 2900 C 5900 3065.683594 5765.683594 3200 5600 3200 L 400 3200 M 400 3050 C 317.15625 3050 250 2982.84375 250 2900 L 250 400 C 250 317.15625 317.15625 250 400 250 L 5600 250 C 5682.84375 250 5750 317.15625 5750 400 L 5750 2900 C 5750 2982.84375 5682.84375 3050 5600 3050 L 400 3050 "/>
<path style=" stroke:none;fill-rule:evenodd;fill:rgb(16.470588%,16.078431%,16.470588%);fill-opacity:1;" d="M 2425 2200 L 2575 2200 L 2575 2725 C 2575 2766.421875 2541.421875 2800 2500 2800 C 2458.578125 2800 2425 2766.421875 2425 2725 L 2425 2200 M 2625 2200 L 2775 2200 L 2775 2875 C 2775 2916.421875 2741.421875 2950 2700 2950 C 2658.578125 2950 2625 2916.421875 2625 2875 L 2625 2200 M 2100.007812 2150 C 2128.730469 1958.515625 2211.828125 1779.304688 2339.421875 1633.664062 L 2339.414062 1633.65625 C 2281.839844 1569.449219 2250 1486.242188 2250 1400 L 2250 1200 C 2250 1006.699219 2406.699219 850 2600 850 C 2730.515625 850 2850.1875 922.621094 2910.453125 1038.386719 L 3118.238281 1437.542969 C 3129.375 1458.933594 3135.1875 1482.691406 3135.1875 1506.804688 C 3135.1875 1546.324219 3119.59375 1584.246094 3091.792969 1612.332031 L 3298.167969 1785.605469 C 3347.703125 1827.199219 3410.316406 1850 3475 1850 C 3500.566406 1850 3526.007812 1846.433594 3550.585938 1839.40625 L 3587.515625 1828.851562 C 3596.453125 1826.296875 3605.703125 1825 3615 1825 C 3644.898438 1825 3673.230469 1838.378906 3692.226562 1861.46875 L 3971.53125 2200.972656 C 3989.9375 2223.347656 4000 2251.417969 4000 2280.386719 C 4000 2317.007812 3983.941406 2351.785156 3956.070312 2375.535156 L 3700 2075 L 3775 2450 L 3679.148438 2464.195312 L 3736.730469 2827.722656 C 3737.242188 2830.957031 3737.5 2834.226562 3737.5 2837.5 C 3737.5 2872.019531 3709.519531 2900 3675 2900 C 3645.082031 2900 3619.355469 2878.796875 3613.648438 2849.425781 L 3542.691406 2484.410156 L 3461.71875 2496.40625 L 3424.730469 2893.300781 C 3421.734375 2925.429688 3394.769531 2950 3362.5 2950 C 3327.980469 2950 3300 2922.019531 3300 2887.5 C 3300 2886.289062 3300.035156 2885.082031 3300.105469 2883.875 L 3350 2025 L 2994.03125 1688.3125 C 2978.875 1667.109375 2970.726562 1641.699219 2970.726562 1615.632812 C 2970.726562 1586.234375 2981.089844 1557.773438 2999.996094 1535.253906 L 2778.304688 1109.386719 C 2775.722656 1104.425781 2770.59375 1101.3125 2765 1101.3125 C 2756.714844 1101.3125 2750 1108.03125 2750 1116.3125 L 2750 1500 C 2750 1513.398438 2755.378906 1526.234375 2764.925781 1535.632812 L 2809.320312 1579.339844 C 2965.480469 1733.042969 3067.488281 1933.3125 3099.992188 2150 L 2100 2150 M 2400 1570.15625 L 2435.074219 1535.632812 C 2444.621094 1526.234375 2450 1513.398438 2450 1500 L 2450 1125 C 2450 1111.191406 2438.808594 1100 2425 1100 C 2411.191406 1100 2400 1111.191406 2400 1125 L 2400 1570.15625 M 2800 550 C 2800 439.542969 2710.457031 350 2600 350 C 2489.542969 350 2400 439.542969 2400 550 C 2400 660.457031 2489.542969 750 2600 750 C 2710.457031 750 2800 660.457031 2800 550 M 3650 1575 C 3650 1478.351562 3571.648438 1400 3475 1400 C 3378.351562 1400 3300 1478.351562 3300 1575 C 3300 1671.648438 3378.351562 1750 3475 1750 C 3571.648438 1750 3650 1671.648438 3650 1575 "/>
</g>
</svg>
