<?xml version="1.0" encoding="UTF-8"?>
<svg xmlns="http://www.w3.org/2000/svg" xmlns:xlink="http://www.w3.org/1999/xlink" width="600.000000mm" height="330.000000mm" viewBox="0 0 6000 3300" version="1.1">
<g id="surface726">
<path style="fill-rule:evenodd;fill:rgb(94.509804%,94.117647%,91.764706%);fill-opacity:1;stroke-width:0.3;stroke-linecap:butt;stroke-linejoin:miter;stroke:rgb(16.470588%,16.078431%,16.470588%);stroke-opacity:1;stroke-miterlimit:3;" d="M -260 -165 C -270.608594 -165 -280.782812 -160.785547 -288.284375 -153.284375 C -295.785547 -145.782813 -300 -135.608594 -300 -125 L -300 125 C -300 135.608594 -295.785547 145.782813 -288.284375 153.284375 C -280.782812 160.785547 -270.608594 165 -260 165 L 260 165 C 270.608594 165 280.782812 160.785547 288.284375 153.284375 C 295.785547 145.782813 300 135.608594 300 125 L 300 -125 C 300 -135.608594 295.785547 -145.782813 288.284375 -153.284375 C 280.782812 -160.785547 270.608594 -165 260 -165 L -260 -165 " transform="matrix(10,0,0,-10,3000,1650)"/>
<path style=" stroke:none;fill-rule:evenodd;fill:rgb(16.470588%,16.078431%,16.470588%);fill-opacity:1;" d="M 400 3200 C 234.316406 3200 100 3065.683594 100 2900 L 100 400 C 100 234.316406 234.316406 100 400 100 L 5600 100 C 5765.683594 100 5900 234.316406 5900 400 L 5900 2900 C 5900 3065.683594 5765.683594 3200 5600 3200 L 400 3200 M 400 3050 C 317.15625 3050 250 2982.84375 250 2900 L 250 400 C 250 317.15625 317.15625 250 400 250 L 5600 250 C 5682.84375 250 5750 317.15625 5750 400 L 5750 2900 C 5750 2982.84375 5682.84375 3050 5600 3050 L 400 3050 "/>
<path style=" stroke:none;fill-rule:evenodd;fill:rgb(16.470588%,16.078431%,16.470588%);fill-opacity:1;" d="M 1180 2490 L 2860 2490 C 2860 2296.699219 3016.699219 2140 3210 2140 C 3403.300781 2140 3560 2296.699219 3560 2490 L 4470 2490 C 4504.03125 2490 4533.132812 2465.523438 4538.964844 2431.992188 L 4678.964844 1626.992188 C 4679.652344 1623.03125 4680 1619.019531 4680 1615 C 4680 1610.980469 4679.652344 1606.96875 4678.964844 1603.007812 L 4538.964844 798.007812 C 4533.132812 764.476562 4504.03125 740 4470 740 L 1810 740 C 1775.96875 740 1746.867188 764.476562 1741.035156 798.007812 L 1601.035156 1603.007812 C 1600.347656 1606.96875 1600 1610.980469 1600 1615 C 1600 1619.433594 1600.421875 1623.859375 1601.257812 1628.214844 L 1740 2350 L 1180 2350 L 1180 2490 M 3490 2490 C 3490 2335.359375 3364.640625 2210 3210 2210 C 3055.359375 2210 2930 2335.359375 2930 2490 C 2930 2644.640625 3055.359375 2770 3210 2770 C 3364.640625 2770 3490 2644.640625 3490 2490 M 2090 2350 C 2070.671875 2350 2055 2334.328125 2055 2315 L 2055 1055 C 2055 1035.671875 2070.671875 1020 2090 1020 L 2650 1020 C 2669.328125 1020 2685 1035.671875 2685 1055 L 2685 2315 C 2685 2334.328125 2669.328125 2350 2650 2350 L 2090 2350 M 3490 1475 C 3470.671875 1475 3455 1459.328125 3455 1440 L 3455 1055 C 3455 1035.671875 3470.671875 1020 3490 1020 L 4260 1020 C 4279.328125 1020 4295 1035.671875 4295 1055 L 4295 1440 C 4295 1459.328125 4279.328125 1475 4260 1475 L 3490 1475 "/>
</g>
</svg>
