<?xml version="1.0" encoding="UTF-8"?>
<svg xmlns="http://www.w3.org/2000/svg" xmlns:xlink="http://www.w3.org/1999/xlink" width="600.000000mm" height="330.000000mm" viewBox="0 0 6000 3300" version="1.1">
<g id="surface746">
<path style="fill-rule:evenodd;fill:rgb(94.509804%,94.117647%,91.764706%);fill-opacity:1;stroke-width:0.3;stroke-linecap:butt;stroke-linejoin:miter;stroke:rgb(16.470588%,16.078431%,16.470588%);stroke-opacity:1;stroke-miterlimit:3;" d="M -260 -165 C -270.608594 -165 -280.782812 -160.785547 -288.284375 -153.284375 C -295.785547 -145.782813 -300 -135.608594 -300 -125 L -300 125 C -300 135.608594 -295.785547 145.782813 -288.284375 153.284375 C -280.782812 160.785547 -270.608594 165 -260 165 L 260 165 C 270.608594 165 280.782812 160.785547 288.284375 153.284375 C 295.785547 145.782813 300 135.608594 300 125 L 300 -125 C 300 -135.608594 295.785547 -145.782813 288.284375 -153.284375 C 280.782812 -160.785547 270.608594 -165 260 -165 L -260 -165 " transform="matrix(10,0,0,-10,3000,1650)"/>
<path style=" stroke:none;fill-rule:evenodd;fill:rgb(16.470588%,16.078431%,16.470588%);fill-opacity:1;" d="M 400 3200 C 234.316406 3200 100 3065.683594 100 2900 L 100 400 C 100 234.316406 234.316406 100 400 100 L 5600 100 C 5765.683594 100 5900 234.316406 5900 400 L 5900 2900 C 5900 3065.683594 5765.683594 3200 5600 3200 L 400 3200 M 400 3050 C 317.15625 3050 250 2982.84375 250 2900 L 250 400 C 250 317.15625 317.15625 250 400 250 L 5600 250 C 5682.84375 250 5750 317.15625 5750 400 L 5750 2900 C 5750 2982.84375 5682.84375 3050 5600 3050 L 400 3050 "/>
<path style=" stroke:none;fill-rule:evenodd;fill:rgb(16.470588%,16.078431%,16.470588%);fill-opacity:1;" d="M 2676.089844 2062.5 C 2658.792969 2119.222656 2650 2178.199219 2650 2237.5 C 2650 2396.628906 2713.214844 2549.242188 2825.734375 2661.765625 C 2938.257812 2774.285156 3090.871094 2837.5 3250 2837.5 C 3409.128906 2837.5 3561.742188 2774.285156 3674.265625 2661.765625 C 3786.785156 2549.242188 3850 2396.628906 3850 2237.5 C 3850 2113.421875 3811.535156 1992.398438 3739.898438 1891.089844 C 3668.261719 1789.78125 3566.980469 1713.171875 3450 1671.816406 L 3450 1779.242188 C 3539.167969 1818.15625 3615.042969 1882.242188 3668.328125 1963.636719 C 3721.617188 2045.035156 3750 2140.210938 3750 2237.5 C 3750 2370.109375 3697.320312 2497.285156 3603.554688 2591.054688 C 3509.785156 2684.820312 3382.609375 2737.5 3250 2737.5 C 3117.390625 2737.5 2990.214844 2684.820312 2896.445312 2591.054688 C 2802.679688 2497.285156 2750 2370.109375 2750 2237.5 C 2750 2177.746094 2760.710938 2118.476562 2781.625 2062.5 L 2676.089844 2062.5 M 3000 1737.5 L 2547.398438 1737.5 C 2453.164062 1737.5 2371.714844 1803.28125 2351.878906 1895.402344 L 2150 2833.019531 C 2163.835938 2836 2177.945312 2837.5 2192.097656 2837.5 C 2283.769531 2837.5 2363.703125 2775.175781 2386.058594 2686.273438 L 2558.550781 2000.308594 C 2564.140625 1978.082031 2584.125 1962.5 2607.042969 1962.5 L 3175 1962.5 C 3271.648438 1962.5 3350 1884.148438 3350 1787.5 L 3350 1112.5 C 3350 1015.851562 3271.648438 937.5 3175 937.5 C 3078.351562 937.5 3000 1015.851562 3000 1112.5 L 3000 1412.5 L 2675 1412.5 C 2578.351562 1412.5 2500 1490.851562 2500 1587.5 L 3000 1587.5 L 3000 1737.5 M 3350 662.5 C 3350 552.042969 3260.457031 462.5 3150 462.5 C 3039.542969 462.5 2950 552.042969 2950 662.5 C 2950 772.957031 3039.542969 862.5 3150 862.5 C 3260.457031 862.5 3350 772.957031 3350 662.5 "/>
</g>
</svg>
