<?xml version="1.0" encoding="UTF-8"?>
<svg xmlns="http://www.w3.org/2000/svg" xmlns:xlink="http://www.w3.org/1999/xlink" width="600.000000mm" height="330.000000mm" viewBox="0 0 6000 3300" version="1.1">
<g id="surface626">
<path style="fill-rule:evenodd;fill:rgb(94.509804%,94.117647%,91.764706%);fill-opacity:1;stroke-width:0.3;stroke-linecap:butt;stroke-linejoin:miter;stroke:rgb(16.470588%,16.078431%,16.470588%);stroke-opacity:1;stroke-miterlimit:3;" d="M -260 -165 C -270.608594 -165 -280.782812 -160.785547 -288.284375 -153.284375 C -295.785547 -145.782813 -300 -135.608594 -300 -125 L -300 125 C -300 135.608594 -295.785547 145.782813 -288.284375 153.284375 C -280.782812 160.785547 -270.608594 165 -260 165 L 260 165 C 270.608594 165 280.782812 160.785547 288.284375 153.284375 C 295.785547 145.782813 300 135.608594 300 125 L 300 -125 C 300 -135.608594 295.785547 -145.782813 288.284375 -153.284375 C 280.782812 -160.785547 270.608594 -165 260 -165 L -260 -165 " transform="matrix(10,0,0,-10,3000,1650)"/>
<path style=" stroke:none;fill-rule:evenodd;fill:rgb(16.470588%,16.078431%,16.470588%);fill-opacity:1;" d="M 400 3200 C 234.316406 3200 100 3065.683594 100 2900 L 100 400 C 100 234.316406 234.316406 100 400 100 L 5600 100 C 5765.683594 100 5900 234.316406 5900 400 L 5900 2900 C 5900 3065.683594 5765.683594 3200 5600 3200 L 400 3200 M 400 3050 C 317.15625 3050 250 2982.84375 250 2900 L 250 400 C 250 317.15625 317.15625 250 400 250 L 5600 250 C 5682.84375 250 5750 317.15625 5750 400 L 5750 2900 C 5750 2982.84375 5682.84375 3050 5600 3050 L 400 3050 "/>
<path style=" stroke:none;fill-rule:evenodd;fill:rgb(16.470588%,16.078431%,16.470588%);fill-opacity:1;" d="M 1818.75 2300 C 1818.75 2106.699219 1662.050781 1950 1468.75 1950 C 1275.449219 1950 1118.75 2106.699219 1118.75 2300 C 1118.75 2493.300781 1275.449219 2650 1468.75 2650 C 1662.050781 2650 1818.75 2493.300781 1818.75 2300 M 4925 2300 C 4925 2106.699219 4768.300781 1950 4575 1950 C 4381.699219 1950 4225 2106.699219 4225 2300 C 4225 2493.300781 4381.699219 2650 4575 2650 C 4768.300781 2650 4925 2493.300781 4925 2300 M 1031.25 2300 L 812.5 2300 C 764.175781 2300 725 2260.824219 725 2212.5 L 725 1805.371094 C 725 1762.597656 755.921875 1726.09375 798.113281 1719.0625 L 2037.5 1512.5 L 2624.375 925.628906 C 2640.785156 909.21875 2663.039062 900 2686.246094 900 L 4369.308594 900 C 4389.175781 900 4408.453125 906.761719 4423.96875 919.175781 L 5242.160156 1573.726562 C 5262.917969 1590.332031 5275 1615.472656 5275 1642.054688 L 5275 2212.5 C 5275 2260.824219 5235.824219 2300 5187.5 2300 L 5012.5 2300 C 5012.5 2183.96875 4966.40625 2072.6875 4884.359375 1990.640625 C 4802.3125 1908.59375 4691.03125 1862.5 4575 1862.5 C 4458.96875 1862.5 4347.6875 1908.59375 4265.640625 1990.640625 C 4183.59375 2072.6875 4137.5 2183.96875 4137.5 2300 L 1906.25 2300 C 1906.25 2183.96875 1860.15625 2072.6875 1778.109375 1990.640625 C 1696.0625 1908.59375 1584.78125 1862.5 1468.75 1862.5 C 1352.71875 1862.5 1241.4375 1908.59375 1159.390625 1990.640625 C 1077.34375 2072.6875 1031.25 2183.96875 1031.25 2300 M 3437.5 1600 L 2230.621094 1600 C 2206.460938 1600 2186.871094 1580.414062 2186.871094 1556.25 C 2186.871094 1544.648438 2191.480469 1533.519531 2199.6875 1525.3125 L 2624.375 1100.628906 C 2640.785156 1084.21875 2663.039062 1075 2686.246094 1075 L 3437.5 1075 L 3437.5 1600 M 3568.75 1600 L 3568.75 1075 L 4188.757812 1075 C 4211.964844 1075 4234.21875 1084.21875 4250.628906 1100.628906 L 4600.628906 1450.628906 C 4617.039062 1467.039062 4626.257812 1489.292969 4626.257812 1512.5 C 4626.257812 1560.824219 4587.082031 1600 4538.757812 1600 L 3568.75 1600 "/>
</g>
</svg>
