<?xml version="1.0" encoding="UTF-8"?>
<svg xmlns="http://www.w3.org/2000/svg" xmlns:xlink="http://www.w3.org/1999/xlink" width="600.000000mm" height="330.000000mm" viewBox="0 0 6000 3300" version="1.1">
<g id="surface701">
<path style="fill-rule:evenodd;fill:rgb(94.509804%,94.117647%,91.764706%);fill-opacity:1;stroke-width:0.3;stroke-linecap:butt;stroke-linejoin:miter;stroke:rgb(16.470588%,16.078431%,16.470588%);stroke-opacity:1;stroke-miterlimit:3;" d="M -260 -165 C -270.608594 -165 -280.782812 -160.785547 -288.284375 -153.284375 C -295.785547 -145.782813 -300 -135.608594 -300 -125 L -300 125 C -300 135.608594 -295.785547 145.782813 -288.284375 153.284375 C -280.782812 160.785547 -270.608594 165 -260 165 L 260 165 C 270.608594 165 280.782812 160.785547 288.284375 153.284375 C 295.785547 145.782813 300 135.608594 300 125 L 300 -125 C 300 -135.608594 295.785547 -145.782813 288.284375 -153.284375 C 280.782812 -160.785547 270.608594 -165 260 -165 L -260 -165 " transform="matrix(10,0,0,-10,3000,1650)"/>
<path style=" stroke:none;fill-rule:evenodd;fill:rgb(16.470588%,16.078431%,16.470588%);fill-opacity:1;" d="M 400 3200 C 234.316406 3200 100 3065.683594 100 2900 L 100 400 C 100 234.316406 234.316406 100 400 100 L 5600 100 C 5765.683594 100 5900 234.316406 5900 400 L 5900 2900 C 5900 3065.683594 5765.683594 3200 5600 3200 L 400 3200 M 400 3050 C 317.15625 3050 250 2982.84375 250 2900 L 250 400 C 250 317.15625 317.15625 250 400 250 L 5600 250 C 5682.84375 250 5750 317.15625 5750 400 L 5750 2900 C 5750 2982.84375 5682.84375 3050 5600 3050 L 400 3050 "/>
<path style=" stroke:none;fill-rule:evenodd;fill:rgb(16.470588%,16.078431%,16.470588%);fill-opacity:1;" d="M 1380 1260 L 860.070312 1292.496094 C 836.46875 1293.96875 815.9375 1309.167969 807.632812 1331.3125 L 675.28125 1684.25 C 665.175781 1711.195312 660 1739.738281 660 1768.519531 L 660 2100 C 660 2133.136719 686.863281 2160 720 2160 L 750 2160 C 750 2010.882812 870.882812 1890 1020 1890 C 1169.117188 1890 1290 2010.882812 1290 2160 L 2370 2160 C 2370 2078.445312 2406.863281 2001.261719 2470.292969 1950 L 1380 1950 L 1380 1260 M 1170 1665 L 1170 1365 L 866.835938 1383.945312 C 855.035156 1384.683594 844.769531 1392.285156 840.617188 1403.355469 L 740.050781 1671.539062 C 738.785156 1674.90625 738.140625 1678.472656 738.140625 1682.070312 C 738.140625 1698.640625 751.570312 1712.070312 768.140625 1712.070312 C 769.308594 1712.070312 770.480469 1712.003906 771.644531 1711.867188 L 1170 1665 M 1230 2160 C 1230 2044.019531 1135.980469 1950 1020 1950 C 904.019531 1950 810 2044.019531 810 2160 C 810 2275.980469 904.019531 2370 1020 2370 C 1135.980469 2370 1230 2275.980469 1230 2160 M 2850 2160 C 2850 2044.019531 2755.980469 1950 2640 1950 C 2524.019531 1950 2430 2044.019531 2430 2160 C 2430 2275.980469 2524.019531 2370 2640 2370 C 2755.980469 2370 2850 2275.980469 2850 2160 M 3060 2160 L 3240 2100 L 3240 1950 L 2809.707031 1950 C 2873.136719 2001.261719 2910 2078.445312 2910 2160 L 3060 2160 M 3240 1890 L 3240 1050 L 1500 1050 L 1500 1890 L 3240 1890 "/>
<path style=" stroke:none;fill-rule:evenodd;fill:rgb(16.470588%,16.078431%,16.470588%);fill-opacity:1;" d="M 3360 2100 L 3576.75 2100 C 3590.214844 2040.917969 3623.164062 1988.085938 3670.292969 1950 L 3360 1950 L 3360 2100 M 4103.25 2100 L 4596.75 2100 C 4610.214844 2040.917969 4643.164062 1988.085938 4690.292969 1950 L 4009.707031 1950 C 4056.835938 1988.085938 4089.785156 2040.917969 4103.25 2100 M 5340 2100 L 5340 1950 L 5029.707031 1950 C 5076.835938 1988.085938 5109.785156 2040.917969 5123.25 2100 L 5340 2100 M 4050 2160 C 4050 2044.019531 3955.980469 1950 3840 1950 C 3724.019531 1950 3630 2044.019531 3630 2160 C 3630 2275.980469 3724.019531 2370 3840 2370 C 3955.980469 2370 4050 2275.980469 4050 2160 M 5070 2160 C 5070 2044.019531 4975.980469 1950 4860 1950 C 4744.019531 1950 4650 2044.019531 4650 2160 C 4650 2275.980469 4744.019531 2370 4860 2370 C 4975.980469 2370 5070 2275.980469 5070 2160 M 5340 1890 L 5340 1050 L 3480 1050 L 3480 1890 L 5340 1890 "/>
</g>
</svg>
