<?xml version="1.0" encoding="UTF-8"?>
<svg xmlns="http://www.w3.org/2000/svg" xmlns:xlink="http://www.w3.org/1999/xlink" width="600.000000mm" height="450.000000mm" viewBox="0 0 6000 4500" version="1.1">
<g id="surface621">
<path style="fill-rule:evenodd;fill:rgb(94.509804%,94.117647%,91.764706%);fill-opacity:1;stroke-width:0.3;stroke-linecap:butt;stroke-linejoin:miter;stroke:rgb(16.470588%,16.078431%,16.470588%);stroke-opacity:1;stroke-miterlimit:3;" d="M -260 -225 C -270.608594 -225 -280.782812 -220.785547 -288.284375 -213.284375 C -295.785547 -205.782813 -300 -195.608594 -300 -185 L -300 185 C -300 195.608594 -295.785547 205.782813 -288.284375 213.284375 C -280.782812 220.785547 -270.608594 225 -260 225 L 260 225 C 270.608594 225 280.782812 220.785547 288.284375 213.284375 C 295.785547 205.782813 300 195.608594 300 185 L 300 -185 C 300 -195.608594 295.785547 -205.782813 288.284375 -213.284375 C 280.782812 -220.785547 270.608594 -225 260 -225 L -260 -225 " transform="matrix(10,0,0,-10,3000,2250)"/>
<path style=" stroke:none;fill-rule:evenodd;fill:rgb(16.470588%,16.078431%,16.470588%);fill-opacity:1;" d="M 400 4400 C 234.316406 4400 100 4265.683594 100 4100 L 100 400 C 100 234.316406 234.316406 100 400 100 L 5600 100 C 5765.683594 100 5900 234.316406 5900 400 L 5900 4100 C 5900 4265.683594 5765.683594 4400 5600 4400 L 400 4400 M 400 4250 C 317.15625 4250 250 4182.84375 250 4100 L 250 400 C 250 317.15625 317.15625 250 400 250 L 5600 250 C 5682.84375 250 5750 317.15625 5750 400 L 5750 4100 C 5750 4182.84375 5682.84375 4250 5600 4250 L 400 4250 "/>
<path style=" stroke:none;fill-rule:evenodd;fill:rgb(16.470588%,16.078431%,16.470588%);fill-opacity:1;" d="M 1812.5 1681.25 C 1812.5 1525.917969 1938.417969 1400 2093.75 1400 C 2249.082031 1400 2375 1525.917969 2375 1681.25 L 2375 1712.5 L 3531.25 1712.5 L 3531.25 1681.25 C 3531.25 1525.917969 3657.167969 1400 3812.5 1400 C 3967.832031 1400 4093.75 1525.917969 4093.75 1681.25 L 4093.75 1712.5 L 4500 1712.5 C 4569.035156 1712.5 4625 1656.535156 4625 1587.5 L 4625 1238.761719 C 4625 1221.339844 4622.570312 1204 4617.785156 1187.25 L 4490.1875 740.660156 C 4474.855469 686.996094 4425.808594 650 4369.996094 650 L 1531.25 650 C 1513.992188 650 1500 663.992188 1500 681.25 L 1500 743.75 C 1500 758.574219 1510.414062 771.359375 1524.933594 774.355469 C 1539.453125 777.351562 1549.867188 790.136719 1549.867188 804.960938 C 1549.867188 808.542969 1549.25 812.097656 1548.046875 815.46875 L 1385.921875 1269.414062 C 1378.695312 1289.65625 1375 1310.984375 1375 1332.476562 L 1375 1650 C 1375 1684.519531 1402.980469 1712.5 1437.5 1712.5 L 1812.5 1712.5 L 1812.5 1681.25 M 1535.265625 1212.5 L 1909.375 1212.5 C 1935.261719 1212.5 1956.25 1191.511719 1956.25 1165.625 L 1956.25 821.875 C 1956.25 795.988281 1935.261719 775 1909.375 775 L 1658.035156 775 C 1638.226562 775 1620.554688 787.453125 1613.890625 806.109375 L 1491.121094 1149.859375 C 1489.316406 1154.917969 1488.390625 1160.253906 1488.390625 1165.625 C 1488.390625 1191.511719 1509.378906 1212.5 1535.265625 1212.5 M 2084.375 1212.5 L 2412.855469 1212.5 C 2438.746094 1212.5 2459.730469 1191.511719 2459.730469 1165.625 C 2459.730469 1161.269531 2459.125 1156.933594 2457.929688 1152.746094 L 2359.714844 808.996094 C 2353.964844 788.875 2335.570312 775 2314.644531 775 L 2084.375 775 C 2058.488281 775 2037.5 795.988281 2037.5 821.875 L 2037.5 1165.625 C 2037.5 1191.511719 2058.488281 1212.5 2084.375 1212.5 M 2591.609375 1212.5 L 2906.605469 1212.5 C 2932.496094 1212.5 2953.480469 1191.511719 2953.480469 1165.625 C 2953.480469 1161.269531 2952.875 1156.933594 2951.679688 1152.746094 L 2853.464844 808.996094 C 2847.714844 788.875 2829.320312 775 2808.394531 775 L 2493.394531 775 C 2467.503906 775 2446.519531 795.988281 2446.519531 821.875 C 2446.519531 826.230469 2447.125 830.566406 2448.320312 834.753906 L 2546.535156 1178.503906 C 2552.285156 1198.625 2570.679688 1212.5 2591.609375 1212.5 M 3085.355469 1212.5 L 3400.355469 1212.5 C 3426.246094 1212.5 3447.230469 1191.511719 3447.230469 1165.625 C 3447.230469 1161.269531 3446.625 1156.933594 3445.429688 1152.746094 L 3347.214844 808.996094 C 3341.464844 788.875 3323.070312 775 3302.140625 775 L 2987.148438 775 C 2961.257812 775 2940.273438 795.988281 2940.273438 821.875 C 2940.273438 826.230469 2940.878906 830.566406 2942.074219 834.753906 L 3040.285156 1178.503906 C 3046.035156 1198.625 3064.429688 1212.5 3085.355469 1212.5 M 3579.109375 1212.5 L 3894.109375 1212.5 C 3919.996094 1212.5 3940.984375 1191.511719 3940.984375 1165.625 C 3940.984375 1161.269531 3940.375 1156.933594 3939.179688 1152.746094 L 3840.964844 808.996094 C 3835.214844 788.875 3816.820312 775 3795.890625 775 L 3480.898438 775 C 3455.007812 775 3434.023438 795.988281 3434.023438 821.875 C 3434.023438 826.230469 3434.628906 830.566406 3435.828125 834.753906 L 3534.035156 1178.503906 C 3539.785156 1198.625 3558.179688 1212.5 3579.109375 1212.5 M 4072.855469 1212.5 L 4387.859375 1212.5 C 4413.746094 1212.5 4434.734375 1191.511719 4434.734375 1165.625 C 4434.734375 1161.269531 4434.125 1156.933594 4432.929688 1152.746094 L 4334.714844 808.996094 C 4328.964844 788.875 4310.570312 775 4289.640625 775 L 3974.644531 775 C 3948.753906 775 3927.769531 795.988281 3927.769531 821.875 C 3927.769531 826.230469 3928.375 830.566406 3929.570312 834.753906 L 4027.785156 1178.503906 C 4033.535156 1198.625 4051.929688 1212.5 4072.855469 1212.5 M 4031.25 1681.25 C 4031.25 1560.4375 3933.3125 1462.5 3812.5 1462.5 C 3691.6875 1462.5 3593.75 1560.4375 3593.75 1681.25 C 3593.75 1802.0625 3691.6875 1900 3812.5 1900 C 3933.3125 1900 4031.25 1802.0625 4031.25 1681.25 M 2312.5 1681.25 C 2312.5 1560.4375 2214.5625 1462.5 2093.75 1462.5 C 1972.9375 1462.5 1875 1560.4375 1875 1681.25 C 1875 1802.0625 1972.9375 1900 2093.75 1900 C 2214.5625 1900 2312.5 1802.0625 2312.5 1681.25 "/>
<path style=" stroke:none;fill-rule:evenodd;fill:rgb(16.470588%,16.078431%,16.470588%);fill-opacity:1;" d="M 4785 2725 L 4785 2830 L 4715 2830 L 4952.609375 3305.21875 C 4957.46875 3314.9375 4960 3325.65625 4960 3336.523438 L 4960 3565 C 4960 3642.320312 4897.320312 3705 4820 3705 L 1180 3705 C 1102.679688 3705 1040 3642.320312 1040 3565 L 1040 3336.523438 C 1040 3325.65625 1042.53125 3314.9375 1047.390625 3305.21875 L 1285 2830 L 1215 2830 L 1215 2725 L 1845 2725 L 1880 2690 L 2167 2690 L 1778.5 2431 L 2230 2130 L 2681.5 2431 L 2293 2690 L 2580 2690 L 2615 2725 L 4785 2725 M 4505 2830 L 4652.390625 2830 L 4808.75 3142.714844 C 4817.253906 3159.726562 4821.683594 3178.484375 4821.683594 3197.5 C 4821.683594 3265.15625 4766.835938 3320 4699.183594 3320 L 4505 3320 L 4505 2830 M 4365 2830 C 4403.660156 2830 4435 2861.339844 4435 2900 L 4435 3565 C 4435 3603.660156 4403.660156 3635 4365 3635 L 4085 3635 C 4046.339844 3635 4015 3603.660156 4015 3565 L 4015 2900 C 4015 2861.339844 4046.339844 2830 4085 2830 L 4365 2830 M 3875 2830 C 3913.660156 2830 3945 2861.339844 3945 2900 L 3945 3250 C 3945 3288.660156 3913.660156 3320 3875 3320 L 3385 3320 C 3346.339844 3320 3315 3288.660156 3315 3250 L 3315 2900 C 3315 2861.339844 3346.339844 2830 3385 2830 L 3875 2830 M 3175 2830 C 3213.660156 2830 3245 2861.339844 3245 2900 L 3245 3250 C 3245 3288.660156 3213.660156 3320 3175 3320 L 2685 3320 C 2646.339844 3320 2615 3288.660156 2615 3250 L 2615 2900 C 2615 2861.339844 2646.339844 2830 2685 2830 L 3175 2830 M 2475 2830 C 2513.660156 2830 2545 2861.339844 2545 2900 L 2545 3250 C 2545 3288.660156 2513.660156 3320 2475 3320 L 1985 3320 C 1946.339844 3320 1915 3288.660156 1915 3250 L 1915 2900 C 1915 2861.339844 1946.339844 2830 1985 2830 L 2475 2830 M 1775 2830 C 1813.660156 2830 1845 2861.339844 1845 2900 L 1845 3565 C 1845 3603.660156 1813.660156 3635 1775 3635 L 1635 3635 C 1596.339844 3635 1565 3603.660156 1565 3565 L 1565 2900 C 1565 2861.339844 1596.339844 2830 1635 2830 L 1775 2830 M 1495 2830 L 1495 3320 L 1300.820312 3320 C 1233.164062 3320 1178.320312 3265.15625 1178.320312 3197.5 C 1178.320312 3178.484375 1182.746094 3159.726562 1191.253906 3142.714844 L 1347.609375 2830 L 1495 2830 M 1740 3775 C 1740 3871.648438 1661.648438 3950 1565 3950 C 1468.351562 3950 1390 3871.648438 1390 3775 L 1740 3775 M 2055 3775 C 2055 3811.320312 2063.074219 3847.183594 2078.640625 3880 L 1786.359375 3880 C 1801.925781 3847.183594 1810 3811.320312 1810 3775 L 2055 3775 M 2475 3775 C 2475 3871.648438 2396.648438 3950 2300 3950 C 2203.351562 3950 2125 3871.648438 2125 3775 L 2475 3775 M 3875 3775 C 3875 3871.648438 3796.648438 3950 3700 3950 C 3603.351562 3950 3525 3871.648438 3525 3775 L 3875 3775 M 4190 3775 C 4190 3811.320312 4198.074219 3847.183594 4213.640625 3880 L 3921.359375 3880 C 3936.925781 3847.183594 3945 3811.320312 3945 3775 L 4190 3775 M 4610 3775 C 4610 3871.648438 4531.648438 3950 4435 3950 C 4338.351562 3950 4260 3871.648438 4260 3775 L 4610 3775 M 2230 2690 L 1841.5 2431 L 2230 2172 L 2618.5 2431 L 2230 2690 "/>
</g>
</svg>
