<?xml version="1.0" encoding="UTF-8"?>
<svg xmlns="http://www.w3.org/2000/svg" xmlns:xlink="http://www.w3.org/1999/xlink" width="600.000000mm" height="330.000000mm" viewBox="0 0 6000 3300" version="1.1">
<g id="surface706">
<path style="fill-rule:evenodd;fill:rgb(94.509804%,94.117647%,91.764706%);fill-opacity:1;stroke-width:0.3;stroke-linecap:butt;stroke-linejoin:miter;stroke:rgb(16.470588%,16.078431%,16.470588%);stroke-opacity:1;stroke-miterlimit:3;" d="M -260 -165 C -270.608594 -165 -280.782812 -160.785547 -288.284375 -153.284375 C -295.785547 -145.782813 -300 -135.608594 -300 -125 L -300 125 C -300 135.608594 -295.785547 145.782813 -288.284375 153.284375 C -280.782812 160.785547 -270.608594 165 -260 165 L 260 165 C 270.608594 165 280.782812 160.785547 288.284375 153.284375 C 295.785547 145.782813 300 135.608594 300 125 L 300 -125 C 300 -135.608594 295.785547 -145.782813 288.284375 -153.284375 C 280.782812 -160.785547 270.608594 -165 260 -165 L -260 -165 " transform="matrix(10,0,0,-10,3000,1650)"/>
<path style=" stroke:none;fill-rule:evenodd;fill:rgb(16.470588%,16.078431%,16.470588%);fill-opacity:1;" d="M 400 3200 C 234.316406 3200 100 3065.683594 100 2900 L 100 400 C 100 234.316406 234.316406 100 400 100 L 5600 100 C 5765.683594 100 5900 234.316406 5900 400 L 5900 2900 C 5900 3065.683594 5765.683594 3200 5600 3200 L 400 3200 M 400 3050 C 317.15625 3050 250 2982.84375 250 2900 L 250 400 C 250 317.15625 317.15625 250 400 250 L 5600 250 C 5682.84375 250 5750 317.15625 5750 400 L 5750 2900 C 5750 2982.84375 5682.84375 3050 5600 3050 L 400 3050 "/>
<path style=" stroke:none;fill-rule:evenodd;fill:rgb(16.470588%,16.078431%,16.470588%);fill-opacity:1;" d="M 4840 1970 L 4840 850 L 1584 850 L 1584 1970 L 4840 1970 M 2520 2050 L 3813.726562 2050 C 3729.152344 2118.347656 3680 2221.261719 3680 2330 L 2404 2330 C 2404 2221.261719 2354.847656 2118.347656 2270.273438 2050 L 2520 2050 M 4320 2330 C 4320 2175.359375 4194.640625 2050 4040 2050 C 3885.359375 2050 3760 2175.359375 3760 2330 C 3760 2484.640625 3885.359375 2610 4040 2610 C 4194.640625 2610 4320 2484.640625 4320 2330 M 2324 2330 C 2324 2175.359375 2198.640625 2050 2044 2050 C 1889.359375 2050 1764 2175.359375 1764 2330 C 1764 2484.640625 1889.359375 2610 2044 2610 C 2198.640625 2610 2324 2484.640625 2324 2330 M 4600 2330 L 4840 2250 L 4840 2050 L 4266.273438 2050 C 4350.847656 2118.347656 4400 2221.261719 4400 2330 L 4600 2330 M 1584 2330 L 680 2330 L 680 2236.664062 L 1584 2050 L 1817.726562 2050 C 1733.152344 2118.347656 1684 2221.261719 1684 2330 L 1584 2330 M 1584 2236.664062 L 1132 2236.664062 L 1584 2143.335938 L 1584 2236.664062 "/>
</g>
</svg>
