<?xml version="1.0" encoding="UTF-8"?>
<svg xmlns="http://www.w3.org/2000/svg" xmlns:xlink="http://www.w3.org/1999/xlink" width="600.000000mm" height="450.000000mm" viewBox="0 0 6000 4500" version="1.1">
<g id="surface716">
<path style="fill-rule:evenodd;fill:rgb(94.509804%,94.117647%,91.764706%);fill-opacity:1;stroke-width:0.3;stroke-linecap:butt;stroke-linejoin:miter;stroke:rgb(16.470588%,16.078431%,16.470588%);stroke-opacity:1;stroke-miterlimit:3;" d="M -260 -225 C -270.608594 -225 -280.782812 -220.785547 -288.284375 -213.284375 C -295.785547 -205.782813 -300 -195.608594 -300 -185 L -300 185 C -300 195.608594 -295.785547 205.782813 -288.284375 213.284375 C -280.782812 220.785547 -270.608594 225 -260 225 L 260 225 C 270.608594 225 280.782812 220.785547 288.284375 213.284375 C 295.785547 205.782813 300 195.608594 300 185 L 300 -185 C 300 -195.608594 295.785547 -205.782813 288.284375 -213.284375 C 280.782812 -220.785547 270.608594 -225 260 -225 L -260 -225 " transform="matrix(10,0,0,-10,3000,2250)"/>
<path style=" stroke:none;fill-rule:evenodd;fill:rgb(16.470588%,16.078431%,16.470588%);fill-opacity:1;" d="M 400 4400 C 234.316406 4400 100 4265.683594 100 4100 L 100 400 C 100 234.316406 234.316406 100 400 100 L 5600 100 C 5765.683594 100 5900 234.316406 5900 400 L 5900 4100 C 5900 4265.683594 5765.683594 4400 5600 4400 L 400 4400 M 400 4250 C 317.15625 4250 250 4182.84375 250 4100 L 250 400 C 250 317.15625 317.15625 250 400 250 L 5600 250 C 5682.84375 250 5750 317.15625 5750 400 L 5750 4100 C 5750 4182.84375 5682.84375 4250 5600 4250 L 400 4250 "/>
<path style=" stroke:none;fill-rule:evenodd;fill:rgb(0%,35.686275%,54.901961%);fill-opacity:1;" d="M 1700 3860 L 1760 3835 C 1823.371094 3808.59375 1891.347656 3795 1960 3795 C 2028.652344 3795 2096.628906 3808.59375 2160 3835 L 2280 3885 C 2343.371094 3911.40625 2411.347656 3925 2480 3925 C 2548.652344 3925 2616.628906 3911.40625 2680 3885 L 2800 3835 C 2863.371094 3808.59375 2931.347656 3795 3000 3795 C 3068.652344 3795 3136.628906 3808.59375 3200 3835 L 3320 3885 C 3383.371094 3911.40625 3451.347656 3925 3520 3925 C 3588.652344 3925 3656.628906 3911.40625 3720 3885 L 3840 3835 C 3903.371094 3808.59375 3971.347656 3795 4040 3795 C 4108.652344 3795 4176.628906 3808.59375 4240 3835 L 4300 3860 L 4300 3730 L 4240 3705 C 4176.628906 3678.59375 4108.652344 3665 4040 3665 C 3971.347656 3665 3903.371094 3678.59375 3840 3705 L 3720 3755 C 3656.628906 3781.40625 3588.652344 3795 3520 3795 C 3451.347656 3795 3383.371094 3781.40625 3320 3755 L 3200 3705 C 3136.628906 3678.59375 3068.652344 3665 3000 3665 C 2931.347656 3665 2863.371094 3678.59375 2800 3705 L 2680 3755 C 2616.628906 3781.40625 2548.652344 3795 2480 3795 C 2411.347656 3795 2343.371094 3781.40625 2280 3755 L 2160 3705 C 2096.628906 3678.59375 2028.652344 3665 1960 3665 C 1891.347656 3665 1823.371094 3678.59375 1760 3705 L 1700 3730 L 1700 3860 "/>
<path style=" stroke:none;fill-rule:evenodd;fill:rgb(0%,35.686275%,54.901961%);fill-opacity:1;" d="M 1700 3600 L 1760 3575 C 1823.371094 3548.59375 1891.347656 3535 1960 3535 C 2028.652344 3535 2096.628906 3548.59375 2160 3575 L 2280 3625 C 2343.371094 3651.40625 2411.347656 3665 2480 3665 C 2548.652344 3665 2616.628906 3651.40625 2680 3625 L 2800 3575 C 2863.371094 3548.59375 2931.347656 3535 3000 3535 C 3068.652344 3535 3136.628906 3548.59375 3200 3575 L 3320 3625 C 3383.371094 3651.40625 3451.347656 3665 3520 3665 C 3588.652344 3665 3656.628906 3651.40625 3720 3625 L 3840 3575 C 3903.371094 3548.59375 3971.347656 3535 4040 3535 C 4108.652344 3535 4176.628906 3548.59375 4240 3575 L 4300 3600 L 4300 3470 L 4240 3445 C 4176.628906 3418.59375 4108.652344 3405 4040 3405 C 3971.347656 3405 3903.371094 3418.59375 3840 3445 L 3720 3495 C 3656.628906 3521.40625 3588.652344 3535 3520 3535 C 3451.347656 3535 3383.371094 3521.40625 3320 3495 L 3200 3445 C 3136.628906 3418.59375 3068.652344 3405 3000 3405 C 2931.347656 3405 2863.371094 3418.59375 2800 3445 L 2680 3495 C 2616.628906 3521.40625 2548.652344 3535 2480 3535 C 2411.347656 3535 2343.371094 3521.40625 2280 3495 L 2160 3445 C 2096.628906 3418.59375 2028.652344 3405 1960 3405 C 1891.347656 3405 1823.371094 3418.59375 1760 3445 L 1700 3470 L 1700 3600 "/>
<path style=" stroke:none;fill-rule:evenodd;fill:rgb(16.470588%,16.078431%,16.470588%);fill-opacity:1;" d="M 1895 3275 C 1859.101562 3275 1830 3245.898438 1830 3210 L 1830 2560 C 1830 2524.101562 1859.101562 2495 1895 2495 L 2090 2495 C 2125.898438 2495 2155 2524.101562 2155 2560 L 2155 3210 C 2155 3245.898438 2125.898438 3275 2090 3275 L 1895 3275 M 2285 3275 C 2249.101562 3275 2220 3245.898438 2220 3210 L 2220 2560 C 2220 2524.101562 2249.101562 2495 2285 2495 L 2480 2495 C 2515.898438 2495 2545 2524.101562 2545 2560 L 2545 2738.75 C 2545 2774.648438 2574.101562 2803.75 2610 2803.75 L 2733.5 2803.75 C 2766.882812 2803.75 2798.984375 2790.910156 2823.15625 2767.886719 L 2865.515625 2727.542969 C 2901.777344 2693.011719 2949.929688 2673.75 3000 2673.75 C 3050.070312 2673.75 3098.222656 2693.011719 3134.484375 2727.542969 L 3176.84375 2767.886719 C 3201.015625 2790.910156 3233.117188 2803.75 3266.5 2803.75 L 3390 2803.75 C 3425.898438 2803.75 3455 2774.648438 3455 2738.75 L 3455 2560 C 3455 2524.101562 3484.101562 2495 3520 2495 L 3715 2495 C 3750.898438 2495 3780 2524.101562 3780 2560 L 3780 3210 C 3780 3245.898438 3750.898438 3275 3715 3275 L 3520 3275 C 3484.101562 3275 3455 3245.898438 3455 3210 L 3455 3031.25 C 3455 2995.351562 3425.898438 2966.25 3390 2966.25 L 3266.5 2966.25 C 3233.117188 2966.25 3201.015625 2979.089844 3176.84375 3002.113281 L 3134.484375 3042.457031 C 3098.222656 3076.988281 3050.070312 3096.25 3000 3096.25 C 2949.929688 3096.25 2901.777344 3076.988281 2865.515625 3042.457031 L 2823.15625 3002.113281 C 2798.984375 2979.089844 2766.882812 2966.25 2733.5 2966.25 L 2610 2966.25 C 2574.101562 2966.25 2545 2995.351562 2545 3031.25 L 2545 3210 C 2545 3245.898438 2515.898438 3275 2480 3275 L 2285 3275 M 3910 3275 C 3874.101562 3275 3845 3245.898438 3845 3210 L 3845 2560 C 3845 2524.101562 3874.101562 2495 3910 2495 L 4105 2495 C 4140.898438 2495 4170 2524.101562 4170 2560 L 4170 3210 C 4170 3245.898438 4140.898438 3275 4105 3275 L 3910 3275 M 1700 2430 L 1700 2040 L 2044.699219 2040 C 2299.839844 2206.65625 2642.804688 2300 3000 2300 C 3357.195312 2300 3700.160156 2206.65625 3955.300781 2040 L 4300 2040 L 4300 2430 L 1700 2430 M 4300 1390 C 4300 1165.890625 4163.035156 950.964844 3919.238281 792.496094 C 3675.441406 634.027344 3344.78125 545 3000 545 C 2655.21875 545 2324.558594 634.027344 2080.761719 792.496094 C 1836.964844 950.964844 1700 1165.890625 1700 1390 C 1700 1614.109375 1836.964844 1829.035156 2080.761719 1987.503906 C 2324.558594 2145.972656 2655.21875 2235 3000 2235 C 3344.78125 2235 3675.441406 2145.972656 3919.238281 1987.503906 C 4163.035156 1829.035156 4300 1614.109375 4300 1390 "/>
<path style=" stroke:none;fill-rule:evenodd;fill:rgb(96.470588%,47.058824%,15.686275%);fill-opacity:1;" d="M 4105 1390 C 4105 1208.988281 3988.582031 1035.394531 3781.351562 907.398438 C 3574.125 779.40625 3293.0625 707.5 3000 707.5 C 2706.9375 707.5 2425.875 779.40625 2218.648438 907.398438 C 2011.417969 1035.394531 1895 1208.988281 1895 1390 C 1895 1571.011719 2011.417969 1744.605469 2218.648438 1872.601562 C 2425.875 2000.59375 2706.9375 2072.5 3000 2072.5 C 3293.0625 2072.5 3574.125 2000.59375 3781.351562 1872.601562 C 3988.582031 1744.605469 4105 1571.011719 4105 1390 "/>
</g>
</svg>
