<?xml version="1.0" encoding="UTF-8"?>
<svg xmlns="http://www.w3.org/2000/svg" xmlns:xlink="http://www.w3.org/1999/xlink" width="600.000000mm" height="330.000000mm" viewBox="0 0 6000 3300" version="1.1">
<g id="surface681">
<path style="fill-rule:evenodd;fill:rgb(94.509804%,94.117647%,91.764706%);fill-opacity:1;stroke-width:0.3;stroke-linecap:butt;stroke-linejoin:miter;stroke:rgb(16.470588%,16.078431%,16.470588%);stroke-opacity:1;stroke-miterlimit:3;" d="M -260 -165 C -270.608594 -165 -280.782812 -160.785547 -288.284375 -153.284375 C -295.785547 -145.782813 -300 -135.608594 -300 -125 L -300 125 C -300 135.608594 -295.785547 145.782813 -288.284375 153.284375 C -280.782812 160.785547 -270.608594 165 -260 165 L 260 165 C 270.608594 165 280.782812 160.785547 288.284375 153.284375 C 295.785547 145.782813 300 135.608594 300 125 L 300 -125 C 300 -135.608594 295.785547 -145.782813 288.284375 -153.284375 C 280.782812 -160.785547 270.608594 -165 260 -165 L -260 -165 " transform="matrix(10,0,0,-10,3000,1650)"/>
<path style=" stroke:none;fill-rule:evenodd;fill:rgb(16.470588%,16.078431%,16.470588%);fill-opacity:1;" d="M 400 3200 C 234.316406 3200 100 3065.683594 100 2900 L 100 400 C 100 234.316406 234.316406 100 400 100 L 5600 100 C 5765.683594 100 5900 234.316406 5900 400 L 5900 2900 C 5900 3065.683594 5765.683594 3200 5600 3200 L 400 3200 M 400 3050 C 317.15625 3050 250 2982.84375 250 2900 L 250 400 C 250 317.15625 317.15625 250 400 250 L 5600 250 C 5682.84375 250 5750 317.15625 5750 400 L 5750 2900 C 5750 2982.84375 5682.84375 3050 5600 3050 L 400 3050 "/>
<path style=" stroke:none;fill-rule:evenodd;fill:rgb(16.470588%,16.078431%,16.470588%);fill-opacity:1;" d="M 1450 1837.5 C 1450 1796.929688 1463.160156 1757.457031 1487.5 1725 L 1525 1675 C 1551.246094 1640.003906 1573.324219 1602.066406 1590.777344 1561.953125 L 1837.976562 993.902344 C 1862.792969 936.878906 1919.0625 900 1981.25 900 L 3543.75 900 C 3605.9375 900 3662.207031 936.878906 3687.023438 993.902344 L 3934.222656 1561.953125 C 3951.675781 1602.066406 3973.753906 1640.003906 4000 1675 L 4037.5 1725 C 4061.839844 1757.457031 4075 1796.929688 4075 1837.5 L 4075 2087.5 C 4178.554688 2087.5 4262.5 2003.554688 4262.5 1900 L 4262.5 1712.5 C 4262.5 1574.429688 4374.429688 1462.5 4512.5 1462.5 C 4581.535156 1462.5 4637.5 1406.535156 4637.5 1337.5 L 4637.5 1150 C 4527.121094 1121.5 4450 1021.9375 4450 907.9375 L 4450 681.25 L 4528.125 681.25 L 4528.125 446.875 C 4528.125 420.988281 4549.113281 400 4575 400 C 4600.886719 400 4621.875 420.988281 4621.875 446.875 L 4621.875 681.25 L 4778.125 681.25 L 4778.125 446.875 C 4778.125 420.988281 4799.113281 400 4825 400 C 4850.886719 400 4871.875 420.988281 4871.875 446.875 L 4871.875 681.25 L 4950 681.25 L 4950 907.9375 C 4950 1021.9375 4872.878906 1121.5 4762.5 1150 L 4762.5 1337.5 C 4762.5 1475.570312 4650.570312 1587.5 4512.5 1587.5 C 4443.464844 1587.5 4387.5 1643.464844 4387.5 1712.5 L 4387.5 1900 C 4387.5 2072.589844 4247.589844 2212.5 4075 2212.5 L 4075 2243.75 C 4075 2330.042969 4005.042969 2400 3918.75 2400 L 1606.25 2400 C 1519.957031 2400 1450 2330.042969 1450 2243.75 L 1450 1837.5 M 1746.875 1587.5 L 1961.714844 1093.8125 C 1971.640625 1071 1994.148438 1056.25 2019.023438 1056.25 L 3505.976562 1056.25 C 3530.851562 1056.25 3553.359375 1071 3563.285156 1093.8125 L 3778.125 1587.5 L 1746.875 1587.5 M 1981.25 1931.25 C 1981.25 1827.695312 1897.304688 1743.75 1793.75 1743.75 C 1690.195312 1743.75 1606.25 1827.695312 1606.25 1931.25 C 1606.25 2034.804688 1690.195312 2118.75 1793.75 2118.75 C 1897.304688 2118.75 1981.25 2034.804688 1981.25 1931.25 M 3918.75 1931.25 C 3918.75 1827.695312 3834.804688 1743.75 3731.25 1743.75 C 3627.695312 1743.75 3543.75 1827.695312 3543.75 1931.25 C 3543.75 2034.804688 3627.695312 2118.75 3731.25 2118.75 C 3834.804688 2118.75 3918.75 2034.804688 3918.75 1931.25 M 1606.25 2462.5 L 1981.25 2462.5 L 1981.25 2806.25 C 1981.25 2858.027344 1939.277344 2900 1887.5 2900 L 1700 2900 C 1648.222656 2900 1606.25 2858.027344 1606.25 2806.25 L 1606.25 2462.5 M 3543.75 2462.5 L 3918.75 2462.5 L 3918.75 2806.25 C 3918.75 2858.027344 3876.777344 2900 3825 2900 L 3637.5 2900 C 3585.722656 2900 3543.75 2858.027344 3543.75 2806.25 L 3543.75 2462.5 "/>
</g>
</svg>
