<?xml version="1.0" encoding="UTF-8"?>
<svg xmlns="http://www.w3.org/2000/svg" xmlns:xlink="http://www.w3.org/1999/xlink" width="600.000000mm" height="330.000000mm" viewBox="0 0 6000 3300" version="1.1">
<g id="surface691">
<path style="fill-rule:evenodd;fill:rgb(94.509804%,94.117647%,91.764706%);fill-opacity:1;stroke-width:0.3;stroke-linecap:butt;stroke-linejoin:miter;stroke:rgb(16.470588%,16.078431%,16.470588%);stroke-opacity:1;stroke-miterlimit:3;" d="M -260 -165 C -270.608594 -165 -280.782812 -160.785547 -288.284375 -153.284375 C -295.785547 -145.782813 -300 -135.608594 -300 -125 L -300 125 C -300 135.608594 -295.785547 145.782813 -288.284375 153.284375 C -280.782812 160.785547 -270.608594 165 -260 165 L 260 165 C 270.608594 165 280.782812 160.785547 288.284375 153.284375 C 295.785547 145.782813 300 135.608594 300 125 L 300 -125 C 300 -135.608594 295.785547 -145.782813 288.284375 -153.284375 C 280.782812 -160.785547 270.608594 -165 260 -165 L -260 -165 " transform="matrix(10,0,0,-10,3000,1650)"/>
<path style=" stroke:none;fill-rule:evenodd;fill:rgb(16.470588%,16.078431%,16.470588%);fill-opacity:1;" d="M 400 3200 C 234.316406 3200 100 3065.683594 100 2900 L 100 400 C 100 234.316406 234.316406 100 400 100 L 5600 100 C 5765.683594 100 5900 234.316406 5900 400 L 5900 2900 C 5900 3065.683594 5765.683594 3200 5600 3200 L 400 3200 M 400 3050 C 317.15625 3050 250 2982.84375 250 2900 L 250 400 C 250 317.15625 317.15625 250 400 250 L 5600 250 C 5682.84375 250 5750 317.15625 5750 400 L 5750 2900 C 5750 2982.84375 5682.84375 3050 5600 3050 L 400 3050 "/>
<path style=" stroke:none;fill-rule:evenodd;fill:rgb(16.470588%,16.078431%,16.470588%);fill-opacity:1;" d="M 1281.25 2125 C 1281.25 1986.929688 1169.320312 1875 1031.25 1875 C 893.179688 1875 781.25 1986.929688 781.25 2125 C 781.25 2263.070312 893.179688 2375 1031.25 2375 C 1169.320312 2375 1281.25 2263.070312 1281.25 2125 M 3500 2125 C 3500 1986.929688 3388.070312 1875 3250 1875 C 3111.929688 1875 3000 1986.929688 3000 2125 C 3000 2263.070312 3111.929688 2375 3250 2375 C 3388.070312 2375 3500 2263.070312 3500 2125 M 718.75 2125 L 562.5 2125 C 527.980469 2125 500 2097.019531 500 2062.5 L 500 1771.695312 C 500 1741.140625 522.089844 1715.066406 552.226562 1710.046875 L 1437.5 1562.5 L 1856.695312 1143.304688 C 1868.417969 1131.585938 1884.3125 1125 1900.890625 1125 L 3103.078125 1125 C 3117.269531 1125 3131.039062 1129.828125 3142.121094 1138.695312 L 3726.542969 1606.234375 C 3741.371094 1618.09375 3750 1636.050781 3750 1655.039062 L 3750 2062.5 C 3750 2097.019531 3722.019531 2125 3687.5 2125 L 3562.5 2125 C 3562.5 1952.410156 3422.589844 1812.5 3250 1812.5 C 3077.410156 1812.5 2937.5 1952.410156 2937.5 2125 L 1343.75 2125 C 1343.75 1952.410156 1203.839844 1812.5 1031.25 1812.5 C 858.660156 1812.5 718.75 1952.410156 718.75 2125 M 2437.5 1625 L 1575.445312 1625 C 1558.1875 1625 1544.195312 1611.007812 1544.195312 1593.75 C 1544.195312 1585.460938 1547.488281 1577.511719 1553.347656 1571.652344 L 1856.695312 1268.304688 C 1868.417969 1256.585938 1884.3125 1250 1900.890625 1250 L 2437.5 1250 L 2437.5 1625 M 2531.25 1625 L 2531.25 1250 L 2974.113281 1250 C 2990.6875 1250 3006.585938 1256.585938 3018.304688 1268.304688 L 3268.304688 1518.304688 C 3280.027344 1530.027344 3286.613281 1545.925781 3286.613281 1562.5 C 3286.613281 1597.019531 3258.628906 1625 3224.113281 1625 L 2531.25 1625 "/>
<path style=" stroke:none;fill-rule:evenodd;fill:rgb(16.470588%,16.078431%,16.470588%);fill-opacity:1;" d="M 3875 2125 L 3875 2062.5 L 4125 2062.5 L 4125 2000 L 4526.089844 2000 C 4508.882812 2039.425781 4500 2081.980469 4500 2125 L 3875 2125 M 5500 2000 L 5437.5 2125 L 5125 2125 C 5125 2081.980469 5116.117188 2039.425781 5098.910156 2000 L 5500 2000 M 5062.5 2125 C 5062.5 1986.929688 4950.570312 1875 4812.5 1875 C 4674.429688 1875 4562.5 1986.929688 4562.5 2125 C 4562.5 2263.070312 4674.429688 2375 4812.5 2375 C 4950.570312 2375 5062.5 2263.070312 5062.5 2125 M 5500 1937.5 L 5062.5 1937.5 C 5003.484375 1858.8125 4910.863281 1812.5 4812.5 1812.5 C 4714.136719 1812.5 4621.515625 1858.8125 4562.5 1937.5 L 4125 1937.5 L 4125 1375 C 4125 1305.964844 4180.964844 1250 4250 1250 L 5375 1250 C 5444.035156 1250 5500 1305.964844 5500 1375 L 5500 1937.5 "/>
</g>
</svg>
