<?xml version="1.0" encoding="UTF-8"?>
<svg xmlns="http://www.w3.org/2000/svg" xmlns:xlink="http://www.w3.org/1999/xlink" width="600.000000mm" height="330.000000mm" viewBox="0 0 6000 3300" version="1.1">
<g id="surface571">
<path style="fill-rule:evenodd;fill:rgb(94.509804%,94.117647%,91.764706%);fill-opacity:1;stroke-width:0.3;stroke-linecap:butt;stroke-linejoin:miter;stroke:rgb(16.470588%,16.078431%,16.470588%);stroke-opacity:1;stroke-miterlimit:3;" d="M -260 -165 C -270.608594 -165 -280.782812 -160.785547 -288.284375 -153.284375 C -295.785547 -145.782813 -300 -135.608594 -300 -125 L -300 125 C -300 135.608594 -295.785547 145.782813 -288.284375 153.284375 C -280.782812 160.785547 -270.608594 165 -260 165 L 260 165 C 270.608594 165 280.782812 160.785547 288.284375 153.284375 C 295.785547 145.782813 300 135.608594 300 125 L 300 -125 C 300 -135.608594 295.785547 -145.782813 288.284375 -153.284375 C 280.782812 -160.785547 270.608594 -165 260 -165 L -260 -165 " transform="matrix(10,0,0,-10,3000,1650)"/>
<path style=" stroke:none;fill-rule:evenodd;fill:rgb(16.470588%,16.078431%,16.470588%);fill-opacity:1;" d="M 400 3200 C 234.316406 3200 100 3065.683594 100 2900 L 100 400 C 100 234.316406 234.316406 100 400 100 L 5600 100 C 5765.683594 100 5900 234.316406 5900 400 L 5900 2900 C 5900 3065.683594 5765.683594 3200 5600 3200 L 400 3200 M 400 3050 C 317.15625 3050 250 2982.84375 250 2900 L 250 400 C 250 317.15625 317.15625 250 400 250 L 5600 250 C 5682.84375 250 5750 317.15625 5750 400 L 5750 2900 C 5750 2982.84375 5682.84375 3050 5600 3050 L 400 3050 "/>
<path style=" stroke:none;fill-rule:evenodd;fill:rgb(16.470588%,16.078431%,16.470588%);fill-opacity:1;" d="M 1687.5 1637.5 C 1687.5 1596.929688 1700.660156 1557.457031 1725 1525 L 1762.5 1475 C 1788.746094 1440.003906 1810.824219 1402.066406 1828.277344 1361.953125 L 2075.476562 793.902344 C 2100.292969 736.878906 2156.5625 700 2218.75 700 L 3781.25 700 C 3843.4375 700 3899.707031 736.878906 3924.523438 793.902344 L 4171.722656 1361.953125 C 4189.175781 1402.066406 4211.253906 1440.003906 4237.5 1475 L 4275 1525 C 4299.339844 1557.457031 4312.5 1596.929688 4312.5 1637.5 L 4312.5 2043.75 C 4312.5 2130.042969 4242.542969 2200 4156.25 2200 L 1843.75 2200 C 1757.457031 2200 1687.5 2130.042969 1687.5 2043.75 L 1687.5 1637.5 M 1984.375 1387.5 L 2199.214844 893.8125 C 2209.140625 871 2231.648438 856.25 2256.523438 856.25 L 3743.476562 856.25 C 3768.351562 856.25 3790.859375 871 3800.785156 893.8125 L 4015.625 1387.5 L 1984.375 1387.5 M 2218.75 1731.25 C 2218.75 1627.695312 2134.804688 1543.75 2031.25 1543.75 C 1927.695312 1543.75 1843.75 1627.695312 1843.75 1731.25 C 1843.75 1834.804688 1927.695312 1918.75 2031.25 1918.75 C 2134.804688 1918.75 2218.75 1834.804688 2218.75 1731.25 M 4156.25 1731.25 C 4156.25 1627.695312 4072.304688 1543.75 3968.75 1543.75 C 3865.195312 1543.75 3781.25 1627.695312 3781.25 1731.25 C 3781.25 1834.804688 3865.195312 1918.75 3968.75 1918.75 C 4072.304688 1918.75 4156.25 1834.804688 4156.25 1731.25 M 1843.75 2262.5 L 2218.75 2262.5 L 2218.75 2606.25 C 2218.75 2658.027344 2176.777344 2700 2125 2700 L 1937.5 2700 C 1885.722656 2700 1843.75 2658.027344 1843.75 2606.25 L 1843.75 2262.5 M 3781.25 2262.5 L 4156.25 2262.5 L 4156.25 2606.25 C 4156.25 2658.027344 4114.277344 2700 4062.5 2700 L 3875 2700 C 3823.222656 2700 3781.25 2658.027344 3781.25 2606.25 L 3781.25 2262.5 "/>
</g>
</svg>
