<?xml version="1.0" encoding="UTF-8"?>
<svg xmlns="http://www.w3.org/2000/svg" xmlns:xlink="http://www.w3.org/1999/xlink" width="600.000000mm" height="330.000000mm" viewBox="0 0 6000 3300" version="1.1">
<g id="surface676">
<path style="fill-rule:evenodd;fill:rgb(94.509804%,94.117647%,91.764706%);fill-opacity:1;stroke-width:0.3;stroke-linecap:butt;stroke-linejoin:miter;stroke:rgb(16.470588%,16.078431%,16.470588%);stroke-opacity:1;stroke-miterlimit:3;" d="M -260 -165 C -270.608594 -165 -280.782812 -160.785547 -288.284375 -153.284375 C -295.785547 -145.782813 -300 -135.608594 -300 -125 L -300 125 C -300 135.608594 -295.785547 145.782813 -288.284375 153.284375 C -280.782812 160.785547 -270.608594 165 -260 165 L 260 165 C 270.608594 165 280.782812 160.785547 288.284375 153.284375 C 295.785547 145.782813 300 135.608594 300 125 L 300 -125 C 300 -135.608594 295.785547 -145.782813 288.284375 -153.284375 C 280.782812 -160.785547 270.608594 -165 260 -165 L -260 -165 " transform="matrix(10,0,0,-10,3000,1650)"/>
<path style=" stroke:none;fill-rule:evenodd;fill:rgb(16.470588%,16.078431%,16.470588%);fill-opacity:1;" d="M 400 3200 C 234.316406 3200 100 3065.683594 100 2900 L 100 400 C 100 234.316406 234.316406 100 400 100 L 5600 100 C 5765.683594 100 5900 234.316406 5900 400 L 5900 2900 C 5900 3065.683594 5765.683594 3200 5600 3200 L 400 3200 M 400 3050 C 317.15625 3050 250 2982.84375 250 2900 L 250 400 C 250 317.15625 317.15625 250 400 250 L 5600 250 C 5682.84375 250 5750 317.15625 5750 400 L 5750 2900 C 5750 2982.84375 5682.84375 3050 5600 3050 L 400 3050 "/>
<path style=" stroke:none;fill-rule:evenodd;fill:rgb(16.470588%,16.078431%,16.470588%);fill-opacity:1;" d="M 1925 2650 L 1925 2125 L 2307.046875 1875 L 2287.03125 1828.769531 C 2262.605469 1772.335938 2250 1711.492188 2250 1650 C 2250 1604.097656 2257.023438 1558.460938 2270.828125 1514.683594 L 2125 1250 L 1775 1325 L 1700 1250 L 2000 900 L 2000 750 L 2100 850 C 2270.054688 850 2428.453125 936.433594 2520.472656 1079.441406 L 2618.53125 1231.835938 L 2833.585938 1124.042969 L 2819.210938 1098.445312 C 2806.613281 1076.015625 2800 1050.722656 2800 1025 C 2800 942.15625 2867.15625 875 2950 875 C 3004.230469 875 3054.238281 904.269531 3080.789062 951.554688 L 3284.203125 1313.796875 C 3294.699219 1332.488281 3300.210938 1353.5625 3300.210938 1375 C 3300.210938 1414.632812 3281.414062 1451.917969 3249.550781 1475.488281 L 3430.539062 1443.578125 C 3453.472656 1439.535156 3476.714844 1437.5 3500 1437.5 C 3578.765625 1437.5 3655.78125 1460.753906 3721.386719 1504.351562 L 3789.007812 1436.730469 C 3840.582031 1385.15625 3910.527344 1356.183594 3983.460938 1356.183594 C 4107.929688 1356.183594 4216.878906 1439.785156 4249.089844 1560.007812 L 4300 1750 L 4150 1850 L 4109.800781 1622.015625 C 4096.105469 1544.351562 4028.628906 1487.730469 3949.769531 1487.730469 C 3906.671875 1487.730469 3865.335938 1504.851562 3834.863281 1535.328125 L 3798.714844 1571.476562 C 3863.953125 1644.730469 3900 1739.40625 3900 1837.5 C 3900 1883.738281 3891.984375 1929.628906 3876.304688 1973.128906 L 4075 2301.351562 L 4000 2776.351562 L 3858.109375 2825 L 3933.109375 2350 L 3579.199219 2073.851562 L 3625 2425 L 3400 2850 L 3250 2850 L 3475 2425 L 3253.320312 2032.792969 C 3137.636719 2060.832031 3019.03125 2075 2900 2075 C 2786.949219 2075 2674.261719 2062.21875 2564.082031 2036.902344 L 2800 2725 L 2775 2850 L 2650 2850 L 2675 2725 L 2375 2031.976562 L 2050 2225 L 2050 2575 L 1925 2650 M 2775 1475 L 2686.5625 1337.558594 L 2894.855469 1233.152344 L 2974.507812 1375 L 2775 1475 M 2975 700 C 2975 617.15625 2907.84375 550 2825 550 C 2742.15625 550 2675 617.15625 2675 700 C 2675 782.84375 2742.15625 850 2825 850 C 2907.84375 850 2975 782.84375 2975 700 "/>
</g>
</svg>
