<?xml version="1.0" encoding="UTF-8"?>
<svg xmlns="http://www.w3.org/2000/svg" xmlns:xlink="http://www.w3.org/1999/xlink" width="600.000000mm" height="450.000000mm" viewBox="0 0 6000 4500" version="1.1">
<g id="surface656">
<path style="fill-rule:evenodd;fill:rgb(94.509804%,94.117647%,91.764706%);fill-opacity:1;stroke-width:0.3;stroke-linecap:butt;stroke-linejoin:miter;stroke:rgb(16.470588%,16.078431%,16.470588%);stroke-opacity:1;stroke-miterlimit:3;" d="M -260 -225 C -270.608594 -225 -280.782812 -220.785547 -288.284375 -213.284375 C -295.785547 -205.782813 -300 -195.608594 -300 -185 L -300 185 C -300 195.608594 -295.785547 205.782813 -288.284375 213.284375 C -280.782812 220.785547 -270.608594 225 -260 225 L 260 225 C 270.608594 225 280.782812 220.785547 288.284375 213.284375 C 295.785547 205.782813 300 195.608594 300 185 L 300 -185 C 300 -195.608594 295.785547 -205.782813 288.284375 -213.284375 C 280.782812 -220.785547 270.608594 -225 260 -225 L -260 -225 " transform="matrix(10,0,0,-10,3000,2250)"/>
<path style=" stroke:none;fill-rule:evenodd;fill:rgb(16.470588%,16.078431%,16.470588%);fill-opacity:1;" d="M 400 4400 C 234.316406 4400 100 4265.683594 100 4100 L 100 400 C 100 234.316406 234.316406 100 400 100 L 5600 100 C 5765.683594 100 5900 234.316406 5900 400 L 5900 4100 C 5900 4265.683594 5765.683594 4400 5600 4400 L 400 4400 M 400 4250 C 317.15625 4250 250 4182.84375 250 4100 L 250 400 C 250 317.15625 317.15625 250 400 250 L 5600 250 C 5682.84375 250 5750 317.15625 5750 400 L 5750 4100 C 5750 4182.84375 5682.84375 4250 5600 4250 L 400 4250 "/>
<path style=" stroke:none;fill-rule:evenodd;fill:rgb(16.470588%,16.078431%,16.470588%);fill-opacity:1;" d="M 2850 550 L 2685.640625 550 C 2597.964844 550 2520.511719 607.101562 2494.585938 690.855469 L 2349.359375 1159.972656 C 2316.65625 1153.339844 2283.371094 1150 2250 1150 C 2117.390625 1150 1990.214844 1202.679688 1896.445312 1296.445312 C 1802.679688 1390.214844 1750 1517.390625 1750 1650 C 1750 1782.609375 1802.679688 1909.785156 1896.445312 2003.554688 C 1990.214844 2097.320312 2117.390625 2150 2250 2150 C 2382.609375 2150 2509.785156 2097.320312 2603.554688 2003.554688 C 2697.320312 1909.785156 2750 1782.609375 2750 1650 C 2750 1551.765625 2721.0625 1455.703125 2666.800781 1373.8125 C 2612.535156 1291.925781 2535.351562 1227.835938 2444.886719 1189.542969 L 2499.589844 1012.839844 L 2967.097656 1705.917969 C 2985.6875 1733.480469 3016.757812 1750 3050 1750 L 3260.101562 1750 C 3283.152344 1862.917969 3344.5 1964.410156 3433.773438 2037.296875 C 3523.042969 2110.1875 3634.753906 2150 3750 2150 C 3882.609375 2150 4009.785156 2097.320312 4103.554688 2003.554688 C 4197.320312 1909.785156 4250 1782.609375 4250 1650 C 4250 1517.390625 4197.320312 1390.214844 4103.554688 1296.445312 C 4009.785156 1202.679688 3882.609375 1150 3750 1150 C 3697.371094 1150 3645.070312 1158.308594 3595.035156 1174.621094 L 3450 850 L 3487.5 750 L 3600 750 L 3600 650 L 3175 650 C 3161.191406 650 3150 661.191406 3150 675 C 3150 686.5625 3157.929688 696.617188 3169.175781 699.3125 L 3380.699219 750 L 3343.199219 850 L 2550 850 L 2590.113281 720.425781 C 2603.078125 678.550781 2641.804688 650 2685.640625 650 L 2850 650 L 2850 550 M 2576.636719 950 L 3045.199219 1644.671875 L 3305.699219 950 L 2576.636719 950 M 2319.597656 1256.101562 C 2296.621094 1252.042969 2273.332031 1250 2250 1250 C 2143.914062 1250 2042.171875 1292.144531 1967.15625 1367.15625 C 1892.144531 1442.171875 1850 1543.914062 1850 1650 C 1850 1756.085938 1892.144531 1857.828125 1967.15625 1932.84375 C 2042.171875 2007.855469 2143.914062 2050 2250 2050 C 2356.085938 2050 2457.828125 2007.855469 2532.84375 1932.84375 C 2607.855469 1857.828125 2650 1756.085938 2650 1650 C 2650 1573.125 2627.847656 1497.875 2586.191406 1433.261719 C 2544.539062 1368.652344 2485.144531 1317.410156 2415.125 1285.675781 L 2297.761719 1664.785156 C 2291.28125 1685.722656 2271.917969 1700 2250 1700 C 2222.386719 1700 2200 1677.613281 2200 1650 C 2200 1644.988281 2200.753906 1640.003906 2202.238281 1635.214844 L 2319.601562 1256.101562 M 3350 1650 L 3697.898438 1650 L 3544.558594 1306.789062 C 3423.875 1379.03125 3350 1509.347656 3350 1650 M 3362.703125 1750 C 3384.871094 1835.863281 3434.945312 1911.921875 3505.050781 1966.226562 C 3575.15625 2020.53125 3661.320312 2050 3750 2050 C 3856.085938 2050 3957.828125 2007.855469 4032.84375 1932.84375 C 4107.855469 1857.828125 4150 1756.085938 4150 1650 C 4150 1543.914062 4107.855469 1442.171875 4032.84375 1367.15625 C 3957.828125 1292.144531 3856.085938 1250 3750 1250 C 3711.4375 1250 3673.078125 1255.578125 3636.109375 1266.554688 L 3820.652344 1679.605469 C 3823.519531 1686.019531 3825 1692.972656 3825 1700 C 3825 1727.613281 3802.613281 1750 3775 1750 L 3362.703125 1750 M 3150 1650 L 3250 1650 C 3250 1561.542969 3273.46875 1474.667969 3318.007812 1398.238281 C 3362.550781 1321.8125 3426.566406 1258.570312 3503.535156 1214.964844 L 3400.019531 983.28125 L 3150 1650 "/>
<path style=" stroke:none;fill-rule:evenodd;fill:rgb(16.470588%,16.078431%,16.470588%);fill-opacity:1;" d="M 2825 2550 L 2625 2550 C 2543.367188 2550 2469.929688 2599.609375 2439.457031 2675.339844 L 2283.371094 3063.246094 C 2247.917969 3054.449219 2211.527344 3050 2175 3050 C 2055.652344 3050 1941.191406 3097.410156 1856.800781 3181.800781 C 1772.410156 3266.191406 1725 3380.652344 1725 3500 C 1725 3619.347656 1772.410156 3733.808594 1856.800781 3818.199219 C 1941.191406 3902.589844 2055.652344 3950 2175 3950 C 2294.347656 3950 2408.808594 3902.589844 2493.199219 3818.199219 C 2577.589844 3733.808594 2625 3619.347656 2625 3500 C 2625 3420.878906 2604.140625 3343.15625 2564.519531 3274.667969 C 2524.902344 3206.179688 2467.925781 3149.351562 2399.335938 3109.90625 L 2463.679688 2950 L 2796.683594 3428.492188 C 2871.460938 3535.941406 2994.089844 3600 3125 3600 L 3386.25 3600 C 3408.910156 3699.417969 3464.664062 3788.191406 3544.375 3851.78125 C 3624.085938 3915.371094 3723.03125 3950 3825 3950 C 3944.347656 3950 4058.808594 3902.589844 4143.199219 3818.199219 C 4227.589844 3733.808594 4275 3619.347656 4275 3500 C 4275 3380.652344 4227.589844 3266.191406 4143.199219 3181.800781 C 4058.808594 3097.410156 3944.347656 3050 3825 3050 C 3713.027344 3050 3605.078125 3091.746094 3522.238281 3167.082031 C 3439.398438 3242.417969 3387.621094 3345.933594 3377.019531 3457.402344 L 3083.855469 3474.738281 C 3080.90625 3474.914062 3077.953125 3475 3075 3475 C 2992.15625 3475 2925 3407.84375 2925 3325 C 2925 3311.898438 2926.714844 3298.855469 2930.105469 3286.203125 L 2946.597656 3224.605469 C 2948.855469 3216.171875 2950 3207.476562 2950 3198.742188 C 2950 3178.316406 2943.746094 3158.382812 2932.078125 3141.621094 L 2776.367188 2917.878906 C 2757.671875 2891.015625 2727.015625 2875 2694.289062 2875 L 2493.859375 2875 L 2555.421875 2722.003906 C 2566.847656 2693.605469 2594.386719 2675 2625 2675 L 2825 2675 L 2825 2550 M 2236.074219 3180.789062 C 2215.945312 3176.9375 2195.496094 3175 2175 3175 C 1995.507812 3175 1850 3320.507812 1850 3500 C 1850 3679.492188 1995.507812 3825 2175 3825 C 2354.492188 3825 2500 3679.492188 2500 3500 C 2500 3389.960938 2444.320312 3287.394531 2352.039062 3227.453125 L 2232.980469 3523.332031 C 2223.460938 3546.996094 2200.511719 3562.5 2175 3562.5 C 2140.480469 3562.5 2112.5 3534.519531 2112.5 3500 C 2112.5 3492.003906 2114.035156 3484.085938 2117.019531 3476.667969 L 2236.074219 3180.789062 M 3925 3600 L 3515.765625 3600 C 3559.140625 3734.125 3684.035156 3825 3825 3825 C 4004.492188 3825 4150 3679.492188 4150 3500 C 4150 3320.507812 4004.492188 3175 3825 3175 C 3664.851562 3175 3528.570312 3291.664062 3503.882812 3449.902344 L 3925 3425 L 3925 3600 M 4175 2875 L 3375 2875 C 3347.386719 2875 3325 2897.386719 3325 2925 C 3325 2941.3125 3332.957031 2956.601562 3346.320312 2965.957031 L 3538.210938 3090.425781 C 3622.265625 3031.570312 3722.390625 3000 3825 3000 L 4175 3000 L 4175 2875 "/>
</g>
</svg>
