<?xml version="1.0" encoding="UTF-8"?>
<svg xmlns="http://www.w3.org/2000/svg" xmlns:xlink="http://www.w3.org/1999/xlink" width="600.000000mm" height="330.000000mm" viewBox="0 0 6000 3300" version="1.1">
<g id="surface741">
<path style="fill-rule:evenodd;fill:rgb(94.509804%,94.117647%,91.764706%);fill-opacity:1;stroke-width:0.3;stroke-linecap:butt;stroke-linejoin:miter;stroke:rgb(16.470588%,16.078431%,16.470588%);stroke-opacity:1;stroke-miterlimit:3;" d="M -260 -165 C -270.608594 -165 -280.782812 -160.785547 -288.284375 -153.284375 C -295.785547 -145.782813 -300 -135.608594 -300 -125 L -300 125 C -300 135.608594 -295.785547 145.782813 -288.284375 153.284375 C -280.782812 160.785547 -270.608594 165 -260 165 L 260 165 C 270.608594 165 280.782812 160.785547 288.284375 153.284375 C 295.785547 145.782813 300 135.608594 300 125 L 300 -125 C 300 -135.608594 295.785547 -145.782813 288.284375 -153.284375 C 280.782812 -160.785547 270.608594 -165 260 -165 L -260 -165 " transform="matrix(10,0,0,-10,3000,1650)"/>
<path style=" stroke:none;fill-rule:evenodd;fill:rgb(16.470588%,16.078431%,16.470588%);fill-opacity:1;" d="M 400 3200 C 234.316406 3200 100 3065.683594 100 2900 L 100 400 C 100 234.316406 234.316406 100 400 100 L 5600 100 C 5765.683594 100 5900 234.316406 5900 400 L 5900 2900 C 5900 3065.683594 5765.683594 3200 5600 3200 L 400 3200 M 400 3050 C 317.15625 3050 250 2982.84375 250 2900 L 250 400 C 250 317.15625 317.15625 250 400 250 L 5600 250 C 5682.84375 250 5750 317.15625 5750 400 L 5750 2900 C 5750 2982.84375 5682.84375 3050 5600 3050 L 400 3050 "/>
<path style=" stroke:none;fill-rule:evenodd;fill:rgb(16.470588%,16.078431%,16.470588%);fill-opacity:1;" d="M 2760 2810 C 2760 2765.816406 2724.183594 2730 2680 2730 C 2635.816406 2730 2600 2765.816406 2600 2810 C 2600 2854.183594 2635.816406 2890 2680 2890 C 2724.183594 2890 2760 2854.183594 2760 2810 M 2960 2810 C 2960 2765.816406 2924.183594 2730 2880 2730 C 2835.816406 2730 2800 2765.816406 2800 2810 C 2800 2854.183594 2835.816406 2890 2880 2890 C 2924.183594 2890 2960 2854.183594 2960 2810 M 3160 2810 C 3160 2765.816406 3124.183594 2730 3080 2730 C 3035.816406 2730 3000 2765.816406 3000 2810 C 3000 2854.183594 3035.816406 2890 3080 2890 C 3124.183594 2890 3160 2854.183594 3160 2810 M 2630 2700 C 2613.429688 2700 2600 2677.613281 2600 2650 C 2600 2622.386719 2613.429688 2600 2630 2600 L 3130 2600 C 3146.570312 2600 3160 2622.386719 3160 2650 C 3160 2677.613281 3146.570312 2700 3130 2700 L 2630 2700 M 3444.574219 2709.550781 C 3432.15625 2679.726562 3403.023438 2660.296875 3370.714844 2660.296875 C 3326.535156 2660.296875 3290.714844 2696.113281 3290.714844 2740.296875 C 3290.714844 2784.480469 3326.535156 2820.296875 3370.714844 2820.296875 C 3414.898438 2820.296875 3450.714844 2784.480469 3450.714844 2740.296875 C 3450.714844 2729.742188 3448.628906 2719.292969 3444.574219 2709.550781 M 3629.214844 2632.691406 C 3616.800781 2602.867188 3587.664062 2583.4375 3555.359375 2583.4375 C 3511.175781 2583.4375 3475.359375 2619.253906 3475.359375 2663.4375 C 3475.359375 2707.617188 3511.175781 2743.4375 3555.359375 2743.4375 C 3599.539062 2743.4375 3635.359375 2707.617188 3635.359375 2663.4375 C 3635.359375 2652.882812 3633.269531 2642.433594 3629.214844 2632.691406 M 3813.855469 2555.832031 C 3801.441406 2526.007812 3772.304688 2506.574219 3740 2506.574219 C 3695.816406 2506.574219 3660 2542.394531 3660 2586.574219 C 3660 2630.757812 3695.816406 2666.574219 3740 2666.574219 C 3784.183594 2666.574219 3820 2630.757812 3820 2586.574219 C 3820 2576.023438 3817.914062 2565.574219 3813.855469 2555.832031 M 3282.28125 2657.957031 C 3266.988281 2664.324219 3245.984375 2648.820312 3235.371094 2623.324219 C 3224.757812 2597.832031 3228.558594 2572.003906 3243.851562 2565.636719 L 3705.460938 2373.488281 L 3705.457031 2373.488281 C 3720.753906 2367.121094 3741.757812 2382.625 3752.367188 2408.117188 C 3762.980469 2433.613281 3759.183594 2459.441406 3743.886719 2465.808594 L 3282.28125 2657.957031 M 2780 600 C 2780 495.066406 2694.933594 410 2590 410 C 2485.066406 410 2400 495.066406 2400 600 C 2400 704.933594 2485.066406 790 2590 790 C 2694.933594 790 2780 704.933594 2780 600 M 2885.753906 2493.46875 L 2761.519531 2029.824219 C 2756.996094 2012.941406 2754.703125 1995.539062 2754.703125 1978.0625 C 2754.703125 1922.59375 2777.738281 1869.621094 2818.304688 1831.792969 L 3301.949219 1380.785156 L 3355.355469 1474.152344 C 3372.910156 1504.554688 3382.148438 1539.042969 3382.148438 1574.152344 C 3382.148438 1629.617188 3359.117188 1682.59375 3318.550781 1720.421875 L 3287.046875 1750.183594 L 3365.753906 2043.917969 L 3528.3125 2257.378906 C 3542.910156 2276.535156 3550.8125 2299.953125 3550.8125 2324.039062 C 3550.8125 2384.789062 3501.5625 2434.039062 3440.8125 2434.039062 C 3406.480469 2434.039062 3374.113281 2418.007812 3353.308594 2390.695312 L 3190.75 2177.234375 C 3173.398438 2154.460938 3160.660156 2128.515625 3153.25 2100.859375 L 3104.820312 1920.113281 L 2988.855469 2028.253906 L 3098.253906 2436.53125 C 3100.742188 2445.816406 3102.003906 2455.386719 3102.003906 2465 C 3102.003906 2525.75 3052.753906 2575 2992.003906 2575 C 2942.21875 2575 2898.636719 2541.558594 2885.753906 2493.46875 M 2992.238281 1589.0625 L 2889.074219 1423.964844 L 2551.378906 1739.15625 C 2534.71875 1754.695312 2512.78125 1763.335938 2490 1763.335938 C 2440.292969 1763.335938 2400 1723.039062 2400 1673.335938 C 2400 1648.375 2410.367188 1624.535156 2428.621094 1607.511719 L 2695.542969 1358.601562 L 2630.988281 997.527344 C 2629.347656 987.179688 2628.527344 976.71875 2628.527344 966.242188 C 2628.527344 855.785156 2718.070312 766.242188 2828.527344 766.242188 C 2853.480469 766.242188 2878.214844 770.910156 2901.449219 780.011719 L 3351.101562 989.582031 C 3366.429688 995.585938 3376.515625 1010.367188 3376.515625 1026.828125 C 3376.515625 1032.039062 3375.5 1037.195312 3373.523438 1042.011719 L 3270.152344 1329.898438 L 2992.238281 1589.0625 M 3100.8125 1074.457031 L 3202.226562 1102.507812 L 3175.8125 1204.363281 L 3100.8125 1074.457031 "/>
</g>
</svg>
