<?xml version="1.0" encoding="UTF-8"?>
<svg xmlns="http://www.w3.org/2000/svg" xmlns:xlink="http://www.w3.org/1999/xlink" width="600.000000mm" height="330.000000mm" viewBox="0 0 6000 3300" version="1.1">
<g id="surface636">
<path style="fill-rule:evenodd;fill:rgb(94.509804%,94.117647%,91.764706%);fill-opacity:1;stroke-width:0.3;stroke-linecap:butt;stroke-linejoin:miter;stroke:rgb(16.470588%,16.078431%,16.470588%);stroke-opacity:1;stroke-miterlimit:3;" d="M -260 -165 C -270.608594 -165 -280.782812 -160.785547 -288.284375 -153.284375 C -295.785547 -145.782813 -300 -135.608594 -300 -125 L -300 125 C -300 135.608594 -295.785547 145.782813 -288.284375 153.284375 C -280.782812 160.785547 -270.608594 165 -260 165 L 260 165 C 270.608594 165 280.782812 160.785547 288.284375 153.284375 C 295.785547 145.782813 300 135.608594 300 125 L 300 -125 C 300 -135.608594 295.785547 -145.782813 288.284375 -153.284375 C 280.782812 -160.785547 270.608594 -165 260 -165 L -260 -165 " transform="matrix(10,0,0,-10,3000,1650)"/>
<path style=" stroke:none;fill-rule:evenodd;fill:rgb(16.470588%,16.078431%,16.470588%);fill-opacity:1;" d="M 400 3200 C 234.316406 3200 100 3065.683594 100 2900 L 100 400 C 100 234.316406 234.316406 100 400 100 L 5600 100 C 5765.683594 100 5900 234.316406 5900 400 L 5900 2900 C 5900 3065.683594 5765.683594 3200 5600 3200 L 400 3200 M 400 3050 C 317.15625 3050 250 2982.84375 250 2900 L 250 400 C 250 317.15625 317.15625 250 400 250 L 5600 250 C 5682.84375 250 5750 317.15625 5750 400 L 5750 2900 C 5750 2982.84375 5682.84375 3050 5600 3050 L 400 3050 "/>
<path style=" stroke:none;fill-rule:evenodd;fill:rgb(16.470588%,16.078431%,16.470588%);fill-opacity:1;" d="M 2270 2085 C 2270 1927.195312 2207.3125 1775.855469 2095.730469 1664.269531 C 1984.144531 1552.6875 1832.804688 1490 1675 1490 C 1517.195312 1490 1365.855469 1552.6875 1254.269531 1664.269531 C 1142.6875 1775.855469 1080 1927.195312 1080 2085 C 1080 2242.804688 1142.6875 2394.144531 1254.269531 2505.730469 C 1365.855469 2617.3125 1517.195312 2680 1675 2680 C 1832.804688 2680 1984.144531 2617.3125 2095.730469 2505.730469 C 2207.3125 2394.144531 2270 2242.804688 2270 2085 M 2060 2085 C 2060 1982.890625 2019.4375 1884.964844 1947.234375 1812.765625 C 1875.035156 1740.5625 1777.109375 1700 1675 1700 C 1572.890625 1700 1474.964844 1740.5625 1402.765625 1812.765625 C 1330.5625 1884.964844 1290 1982.890625 1290 2085 C 1290 2187.109375 1330.5625 2285.035156 1402.765625 2357.234375 C 1474.964844 2429.4375 1572.890625 2470 1675 2470 C 1777.109375 2470 1875.035156 2429.4375 1947.234375 2357.234375 C 2019.4375 2285.035156 2060 2187.109375 2060 2085 M 4720 2085 C 4720 1927.195312 4657.3125 1775.855469 4545.730469 1664.269531 C 4434.144531 1552.6875 4282.804688 1490 4125 1490 C 3967.195312 1490 3815.855469 1552.6875 3704.269531 1664.269531 C 3592.6875 1775.855469 3530 1927.195312 3530 2085 C 3530 2242.804688 3592.6875 2394.144531 3704.269531 2505.730469 C 3815.855469 2617.3125 3967.195312 2680 4125 2680 C 4282.804688 2680 4434.144531 2617.3125 4545.730469 2505.730469 C 4657.3125 2394.144531 4720 2242.804688 4720 2085 M 4510 2085 C 4510 1982.890625 4469.4375 1884.964844 4397.234375 1812.765625 C 4325.035156 1740.5625 4227.109375 1700 4125 1700 C 4022.890625 1700 3924.964844 1740.5625 3852.765625 1812.765625 C 3780.5625 1884.964844 3740 1982.890625 3740 2085 C 3740 2187.109375 3780.5625 2285.035156 3852.765625 2357.234375 C 3924.964844 2429.4375 4022.890625 2470 4125 2470 C 4227.109375 2470 4325.035156 2429.4375 4397.234375 2357.234375 C 4469.4375 2285.035156 4510 2187.109375 4510 2085 M 3507.640625 2291.566406 C 3485.359375 2224.976562 3474 2155.21875 3474 2085 C 3474 1912.34375 3542.585938 1746.757812 3664.671875 1624.671875 C 3786.757812 1502.585938 3952.34375 1434 4125 1434 C 4264.238281 1434 4397.773438 1400.8125 4496.230469 1341.738281 C 4594.6875 1282.664062 4650 1202.542969 4650 1119 C 4650 1035 4615 1000 4545 1000 C 4331.5 1000 4126.746094 1029.5 3975.777344 1082.011719 C 3824.8125 1134.519531 3740 1205.738281 3740 1280 C 3600 1322 3495 1322 3379.765625 1308 C 3220.640625 1134.0625 2995.746094 1035 2760 1035 C 2645.902344 1035 2543.21875 1104.230469 2500.433594 1210 C 1972.5 1070 1885 965 2375 825 C 2480 790 2480 737.5 2480 720 C 1640 720 1500 1210 1612.605469 1436.996094 C 1633.34375 1435 1654.164062 1434 1675 1434 C 1826.101562 1434 1972.496094 1486.5625 2089.085938 1582.671875 C 2205.679688 1678.785156 2285.207031 1812.460938 2314.039062 1960.785156 C 2375 2347.5 2760 2277.5 3507.640625 2291.5625 "/>
</g>
</svg>
