<?xml version="1.0" encoding="UTF-8"?>
<svg xmlns="http://www.w3.org/2000/svg" xmlns:xlink="http://www.w3.org/1999/xlink" width="600.000000mm" height="330.000000mm" viewBox="0 0 6000 3300" version="1.1">
<g id="surface616">
<path style="fill-rule:evenodd;fill:rgb(94.509804%,94.117647%,91.764706%);fill-opacity:1;stroke-width:0.3;stroke-linecap:butt;stroke-linejoin:miter;stroke:rgb(16.470588%,16.078431%,16.470588%);stroke-opacity:1;stroke-miterlimit:3;" d="M -260 -165 C -270.608594 -165 -280.782812 -160.785547 -288.284375 -153.284375 C -295.785547 -145.782813 -300 -135.608594 -300 -125 L -300 125 C -300 135.608594 -295.785547 145.782813 -288.284375 153.284375 C -280.782812 160.785547 -270.608594 165 -260 165 L 260 165 C 270.608594 165 280.782812 160.785547 288.284375 153.284375 C 295.785547 145.782813 300 135.608594 300 125 L 300 -125 C 300 -135.608594 295.785547 -145.782813 288.284375 -153.284375 C 280.782812 -160.785547 270.608594 -165 260 -165 L -260 -165 " transform="matrix(10,0,0,-10,3000,1650)"/>
<path style=" stroke:none;fill-rule:evenodd;fill:rgb(16.470588%,16.078431%,16.470588%);fill-opacity:1;" d="M 400 3200 C 234.316406 3200 100 3065.683594 100 2900 L 100 400 C 100 234.316406 234.316406 100 400 100 L 5600 100 C 5765.683594 100 5900 234.316406 5900 400 L 5900 2900 C 5900 3065.683594 5765.683594 3200 5600 3200 L 400 3200 M 400 3050 C 317.15625 3050 250 2982.84375 250 2900 L 250 400 C 250 317.15625 317.15625 250 400 250 L 5600 250 C 5682.84375 250 5750 317.15625 5750 400 L 5750 2900 C 5750 2982.84375 5682.84375 3050 5600 3050 L 400 3050 "/>
<path style=" stroke:none;fill-rule:evenodd;fill:rgb(16.470588%,16.078431%,16.470588%);fill-opacity:1;" d="M 1337.5 2268.75 C 1337.5 2164.320312 1378.984375 2064.167969 1452.828125 1990.328125 C 1526.667969 1916.484375 1626.820312 1875 1731.25 1875 C 1835.679688 1875 1935.832031 1916.484375 2009.671875 1990.328125 C 2083.515625 2064.167969 2125 2164.320312 2125 2268.75 L 2125 2312.5 L 3743.75 2312.5 L 3743.75 2268.75 C 3743.75 2164.320312 3785.234375 2064.167969 3859.078125 1990.328125 C 3932.917969 1916.484375 4033.070312 1875 4137.5 1875 C 4241.929688 1875 4342.082031 1916.484375 4415.921875 1990.328125 C 4489.765625 2064.167969 4531.25 2164.320312 4531.25 2268.75 L 4531.25 2312.5 L 5100 2312.5 C 5196.648438 2312.5 5275 2234.148438 5275 2137.5 L 5275 1649.265625 C 5275 1624.875 5271.601562 1600.601562 5264.898438 1577.148438 L 5086.265625 951.921875 C 5064.796875 876.796875 4996.132812 825 4917.996094 825 L 943.75 825 C 919.585938 825 900 844.585938 900 868.75 L 900 956.25 C 900 977.003906 914.582031 994.902344 934.90625 999.097656 L 934.910156 999.097656 C 955.234375 1003.292969 969.816406 1021.191406 969.816406 1041.945312 C 969.816406 1046.957031 968.953125 1051.9375 967.265625 1056.660156 L 740.292969 1692.179688 C 730.171875 1720.515625 725 1750.378906 725 1780.46875 L 725 2225 C 725 2273.324219 764.175781 2312.5 812.5 2312.5 L 1337.5 2312.5 L 1337.5 2268.75 M 949.375 1612.5 L 1473.125 1612.5 C 1509.367188 1612.5 1538.75 1583.117188 1538.75 1546.875 L 1538.75 1065.625 C 1538.75 1029.382812 1509.367188 1000 1473.125 1000 L 1121.25 1000 C 1093.515625 1000 1068.773438 1017.433594 1059.445312 1043.554688 L 887.570312 1524.804688 C 885.042969 1531.886719 883.75 1539.351562 883.75 1546.875 C 883.75 1583.117188 913.128906 1612.5 949.375 1612.5 M 1718.125 1612.5 L 2178 1612.5 C 2214.242188 1612.5 2243.625 1583.117188 2243.625 1546.875 C 2243.625 1540.777344 2242.773438 1534.710938 2241.101562 1528.847656 L 2103.601562 1047.597656 C 2095.550781 1019.421875 2069.800781 1000 2040.5 1000 L 1718.125 1000 C 1681.882812 1000 1652.5 1029.382812 1652.5 1065.625 L 1652.5 1546.875 C 1652.5 1583.117188 1681.882812 1612.5 1718.125 1612.5 M 2428.25 1612.5 L 2869.25 1612.5 C 2905.496094 1612.5 2934.875 1583.117188 2934.875 1546.875 C 2934.875 1540.777344 2934.027344 1534.710938 2932.351562 1528.847656 L 2794.851562 1047.597656 C 2786.800781 1019.421875 2761.050781 1000 2731.75 1000 L 2290.75 1000 C 2254.503906 1000 2225.125 1029.382812 2225.125 1065.625 C 2225.125 1071.722656 2225.972656 1077.789062 2227.648438 1083.652344 L 2365.152344 1564.902344 C 2373.199219 1593.078125 2398.949219 1612.5 2428.25 1612.5 M 3119.5 1612.5 L 3560.5 1612.5 C 3596.746094 1612.5 3626.125 1583.117188 3626.125 1546.875 C 3626.125 1540.777344 3625.277344 1534.710938 3623.601562 1528.847656 L 3486.097656 1047.597656 C 3478.050781 1019.421875 3452.300781 1000 3423 1000 L 2982.007812 1000 C 2945.761719 1000 2916.382812 1029.382812 2916.382812 1065.625 C 2916.382812 1071.722656 2917.230469 1077.789062 2918.90625 1083.652344 L 3056.398438 1564.902344 C 3064.449219 1593.078125 3090.199219 1612.5 3119.5 1612.5 M 3810.75 1612.5 L 4251.75 1612.5 C 4287.996094 1612.5 4317.375 1583.117188 4317.375 1546.875 C 4317.375 1540.777344 4316.527344 1534.710938 4314.851562 1528.847656 L 4177.351562 1047.597656 C 4169.300781 1019.421875 4143.550781 1000 4114.25 1000 L 3673.257812 1000 C 3637.011719 1000 3607.632812 1029.382812 3607.632812 1065.625 C 3607.632812 1071.722656 3608.480469 1077.789062 3610.15625 1083.652344 L 3747.648438 1564.902344 C 3755.699219 1593.078125 3781.449219 1612.5 3810.75 1612.5 M 4502 1612.5 L 4943 1612.5 C 4979.246094 1612.5 5008.625 1583.117188 5008.625 1546.875 C 5008.625 1540.777344 5007.777344 1534.710938 5006.101562 1528.847656 L 4868.601562 1047.597656 C 4860.550781 1019.421875 4834.800781 1000 4805.5 1000 L 4364.5 1000 C 4328.253906 1000 4298.875 1029.382812 4298.875 1065.625 C 4298.875 1071.722656 4299.722656 1077.789062 4301.398438 1083.652344 L 4438.898438 1564.902344 C 4446.949219 1593.078125 4472.699219 1612.5 4502 1612.5 M 4443.75 2268.75 C 4443.75 2099.613281 4306.636719 1962.5 4137.5 1962.5 C 3968.363281 1962.5 3831.25 2099.613281 3831.25 2268.75 C 3831.25 2437.886719 3968.363281 2575 4137.5 2575 C 4306.636719 2575 4443.75 2437.886719 4443.75 2268.75 M 2037.5 2268.75 C 2037.5 2099.613281 1900.386719 1962.5 1731.25 1962.5 C 1562.113281 1962.5 1425 2099.613281 1425 2268.75 C 1425 2437.886719 1562.113281 2575 1731.25 2575 C 1900.386719 2575 2037.5 2437.886719 2037.5 2268.75 "/>
</g>
</svg>
