<?xml version="1.0" encoding="UTF-8"?>
<svg xmlns="http://www.w3.org/2000/svg" xmlns:xlink="http://www.w3.org/1999/xlink" width="600.000000mm" height="450.000000mm" viewBox="0 0 6000 4500" version="1.1">
<g id="surface711">
<path style="fill-rule:evenodd;fill:rgb(94.509804%,94.117647%,91.764706%);fill-opacity:1;stroke-width:0.3;stroke-linecap:butt;stroke-linejoin:miter;stroke:rgb(16.470588%,16.078431%,16.470588%);stroke-opacity:1;stroke-miterlimit:3;" d="M -260 -225 C -270.608594 -225 -280.782812 -220.785547 -288.284375 -213.284375 C -295.785547 -205.782813 -300 -195.608594 -300 -185 L -300 185 C -300 195.608594 -295.785547 205.782813 -288.284375 213.284375 C -280.782812 220.785547 -270.608594 225 -260 225 L 260 225 C 270.608594 225 280.782812 220.785547 288.284375 213.284375 C 295.785547 205.782813 300 195.608594 300 185 L 300 -185 C 300 -195.608594 295.785547 -205.782813 288.284375 -213.284375 C 280.782812 -220.785547 270.608594 -225 260 -225 L -260 -225 " transform="matrix(10,0,0,-10,3000,2250)"/>
<path style=" stroke:none;fill-rule:evenodd;fill:rgb(16.470588%,16.078431%,16.470588%);fill-opacity:1;" d="M 400 4400 C 234.316406 4400 100 4265.683594 100 4100 L 100 400 C 100 234.316406 234.316406 100 400 100 L 5600 100 C 5765.683594 100 5900 234.316406 5900 400 L 5900 4100 C 5900 4265.683594 5765.683594 4400 5600 4400 L 400 4400 M 400 4250 C 317.15625 4250 250 4182.84375 250 4100 L 250 400 C 250 317.15625 317.15625 250 400 250 L 5600 250 C 5682.84375 250 5750 317.15625 5750 400 L 5750 4100 C 5750 4182.84375 5682.84375 4250 5600 4250 L 400 4250 "/>
<path style=" stroke:none;fill-rule:evenodd;fill:rgb(16.470588%,16.078431%,16.470588%);fill-opacity:1;" d="M 1810 4015 C 1771.339844 4015 1740 3983.660156 1740 3945 L 1740 3245 C 1740 3206.339844 1771.339844 3175 1810 3175 L 2020 3175 C 2058.660156 3175 2090 3206.339844 2090 3245 L 2090 3945 C 2090 3983.660156 2058.660156 4015 2020 4015 L 1810 4015 M 2230 4015 C 2191.339844 4015 2160 3983.660156 2160 3945 L 2160 3245 C 2160 3206.339844 2191.339844 3175 2230 3175 L 2440 3175 C 2478.660156 3175 2510 3206.339844 2510 3245 L 2510 3437.5 C 2510 3476.160156 2541.339844 3507.5 2580 3507.5 L 2713 3507.5 C 2748.949219 3507.5 2783.519531 3493.671875 2809.550781 3468.878906 L 2855.171875 3425.429688 C 2894.21875 3388.242188 2946.078125 3367.5 3000 3367.5 C 3053.921875 3367.5 3105.78125 3388.242188 3144.828125 3425.429688 L 3190.449219 3468.878906 C 3216.480469 3493.671875 3251.050781 3507.5 3287 3507.5 L 3420 3507.5 C 3458.660156 3507.5 3490 3476.160156 3490 3437.5 L 3490 3245 C 3490 3206.339844 3521.339844 3175 3560 3175 L 3770 3175 C 3808.660156 3175 3840 3206.339844 3840 3245 L 3840 3945 C 3840 3983.660156 3808.660156 4015 3770 4015 L 3560 4015 C 3521.339844 4015 3490 3983.660156 3490 3945 L 3490 3752.5 C 3490 3713.839844 3458.660156 3682.5 3420 3682.5 L 3287 3682.5 C 3251.050781 3682.5 3216.480469 3696.328125 3190.449219 3721.121094 L 3144.828125 3764.570312 C 3105.78125 3801.757812 3053.921875 3822.5 3000 3822.5 C 2946.078125 3822.5 2894.21875 3801.757812 2855.171875 3764.570312 L 2809.550781 3721.121094 C 2783.519531 3696.328125 2748.949219 3682.5 2713 3682.5 L 2580 3682.5 C 2541.339844 3682.5 2510 3713.839844 2510 3752.5 L 2510 3945 C 2510 3983.660156 2478.660156 4015 2440 4015 L 2230 4015 M 3980 4015 C 3941.339844 4015 3910 3983.660156 3910 3945 L 3910 3245 C 3910 3206.339844 3941.339844 3175 3980 3175 L 4190 3175 C 4228.660156 3175 4260 3206.339844 4260 3245 L 4260 3945 C 4260 3983.660156 4228.660156 4015 4190 4015 L 3980 4015 M 1600 3105 L 1600 2965 L 4400 2965 L 4400 3105 L 1600 3105 M 1740 2895 L 1740 830 C 1740 694.691406 1849.691406 585 1985 585 L 4015 585 C 4150.308594 585 4260 694.691406 4260 830 L 4260 2895 L 1740 2895 "/>
<path style=" stroke:none;fill-rule:evenodd;fill:rgb(96.470588%,47.058824%,15.686275%);fill-opacity:1;" d="M 2055 2615 L 2055 865 L 3945 865 L 3945 2615 L 2055 2615 "/>
</g>
</svg>
