<?xml version="1.0" encoding="UTF-8"?>
<svg xmlns="http://www.w3.org/2000/svg" xmlns:xlink="http://www.w3.org/1999/xlink" width="600.000000mm" height="330.000000mm" viewBox="0 0 6000 3300" version="1.1">
<g id="surface581">
<path style="fill-rule:evenodd;fill:rgb(94.509804%,94.117647%,91.764706%);fill-opacity:1;stroke-width:0.3;stroke-linecap:butt;stroke-linejoin:miter;stroke:rgb(16.470588%,16.078431%,16.470588%);stroke-opacity:1;stroke-miterlimit:3;" d="M -260 -165 C -270.608594 -165 -280.782812 -160.785547 -288.284375 -153.284375 C -295.785547 -145.782813 -300 -135.608594 -300 -125 L -300 125 C -300 135.608594 -295.785547 145.782813 -288.284375 153.284375 C -280.782812 160.785547 -270.608594 165 -260 165 L 260 165 C 270.608594 165 280.782812 160.785547 288.284375 153.284375 C 295.785547 145.782813 300 135.608594 300 125 L 300 -125 C 300 -135.608594 295.785547 -145.782813 288.284375 -153.284375 C 280.782812 -160.785547 270.608594 -165 260 -165 L -260 -165 " transform="matrix(10,0,0,-10,3000,1650)"/>
<path style=" stroke:none;fill-rule:evenodd;fill:rgb(16.470588%,16.078431%,16.470588%);fill-opacity:1;" d="M 400 3200 C 234.316406 3200 100 3065.683594 100 2900 L 100 400 C 100 234.316406 234.316406 100 400 100 L 5600 100 C 5765.683594 100 5900 234.316406 5900 400 L 5900 2900 C 5900 3065.683594 5765.683594 3200 5600 3200 L 400 3200 M 400 3050 C 317.15625 3050 250 2982.84375 250 2900 L 250 400 C 250 317.15625 317.15625 250 400 250 L 5600 250 C 5682.84375 250 5750 317.15625 5750 400 L 5750 2900 C 5750 2982.84375 5682.84375 3050 5600 3050 L 400 3050 "/>
<path style=" stroke:none;fill-rule:evenodd;fill:rgb(16.470588%,16.078431%,16.470588%);fill-opacity:1;" d="M 2100 1065 L 1320.105469 1113.742188 C 1284.703125 1115.957031 1253.902344 1138.753906 1241.449219 1171.96875 L 1042.921875 1701.375 C 1027.765625 1741.792969 1020 1784.609375 1020 1827.777344 L 1020 2325 C 1020 2374.707031 1060.292969 2415 1110 2415 L 1155 2415 C 1155 2307.585938 1197.667969 2204.574219 1273.621094 2128.621094 C 1349.574219 2052.667969 1452.585938 2010 1560 2010 C 1667.414062 2010 1770.425781 2052.667969 1846.378906 2128.621094 C 1922.332031 2204.574219 1965 2307.585938 1965 2415 L 3585 2415 C 3585 2292.667969 3640.292969 2176.890625 3735.441406 2100 L 2100 2100 L 2100 1065 M 1785 1672.5 L 1785 1222.5 L 1330.253906 1250.917969 C 1312.550781 1252.027344 1297.152344 1263.425781 1290.925781 1280.03125 L 1140.074219 1682.304688 C 1138.179688 1687.359375 1137.210938 1692.710938 1137.210938 1698.105469 C 1137.210938 1722.960938 1157.355469 1743.105469 1182.210938 1743.105469 C 1183.964844 1743.105469 1185.722656 1743.003906 1187.46875 1742.796875 L 1785 1672.5 M 1875 2415 C 1875 2241.03125 1733.96875 2100 1560 2100 C 1386.03125 2100 1245 2241.03125 1245 2415 C 1245 2588.96875 1386.03125 2730 1560 2730 C 1733.96875 2730 1875 2588.96875 1875 2415 M 4305 2415 C 4305 2241.03125 4163.96875 2100 3990 2100 C 3816.03125 2100 3675 2241.03125 3675 2415 C 3675 2588.96875 3816.03125 2730 3990 2730 C 4163.96875 2730 4305 2588.96875 4305 2415 M 4620 2415 L 4890 2325 L 4890 2100 L 4244.558594 2100 C 4339.707031 2176.890625 4395 2292.667969 4395 2415 L 4620 2415 M 4890 2010 L 4890 750 L 2280 750 L 2280 2010 L 4890 2010 "/>
</g>
</svg>
