<?xml version="1.0" encoding="UTF-8"?>
<svg xmlns="http://www.w3.org/2000/svg" xmlns:xlink="http://www.w3.org/1999/xlink" width="600.000000mm" height="330.000000mm" viewBox="0 0 6000 3300" version="1.1">
<g id="surface646">
<path style="fill-rule:evenodd;fill:rgb(94.509804%,94.117647%,91.764706%);fill-opacity:1;stroke-width:0.3;stroke-linecap:butt;stroke-linejoin:miter;stroke:rgb(16.470588%,16.078431%,16.470588%);stroke-opacity:1;stroke-miterlimit:3;" d="M -260 -165 C -270.608594 -165 -280.782812 -160.785547 -288.284375 -153.284375 C -295.785547 -145.782813 -300 -135.608594 -300 -125 L -300 125 C -300 135.608594 -295.785547 145.782813 -288.284375 153.284375 C -280.782812 160.785547 -270.608594 165 -260 165 L 260 165 C 270.608594 165 280.782812 160.785547 288.284375 153.284375 C 295.785547 145.782813 300 135.608594 300 125 L 300 -125 C 300 -135.608594 295.785547 -145.782813 288.284375 -153.284375 C 280.782812 -160.785547 270.608594 -165 260 -165 L -260 -165 " transform="matrix(10,0,0,-10,3000,1650)"/>
<path style=" stroke:none;fill-rule:evenodd;fill:rgb(16.470588%,16.078431%,16.470588%);fill-opacity:1;" d="M 400 3200 C 234.316406 3200 100 3065.683594 100 2900 L 100 400 C 100 234.316406 234.316406 100 400 100 L 5600 100 C 5765.683594 100 5900 234.316406 5900 400 L 5900 2900 C 5900 3065.683594 5765.683594 3200 5600 3200 L 400 3200 M 400 3050 C 317.15625 3050 250 2982.84375 250 2900 L 250 400 C 250 317.15625 317.15625 250 400 250 L 5600 250 C 5682.84375 250 5750 317.15625 5750 400 L 5750 2900 C 5750 2982.84375 5682.84375 3050 5600 3050 L 400 3050 "/>
<path style=" stroke:none;fill-rule:evenodd;fill:rgb(16.470588%,16.078431%,16.470588%);fill-opacity:1;" d="M 2705 720 L 2425 720 C 2310.714844 720 2207.902344 789.453125 2165.242188 895.476562 L 1946.722656 1438.542969 C 1897.085938 1426.226562 1846.140625 1420 1795 1420 C 1627.914062 1420 1467.671875 1486.375 1349.523438 1604.523438 C 1231.375 1722.671875 1165 1882.914062 1165 2050 C 1165 2217.085938 1231.375 2377.328125 1349.523438 2495.476562 C 1467.671875 2613.625 1627.914062 2680 1795 2680 C 1962.085938 2680 2122.328125 2613.625 2240.476562 2495.476562 C 2358.625 2377.328125 2425 2217.085938 2425 2050 C 2425 1939.230469 2395.792969 1830.417969 2340.328125 1734.535156 C 2284.863281 1638.652344 2205.09375 1559.089844 2109.070312 1503.871094 L 2199.152344 1280 L 2665.355469 1949.886719 C 2770.046875 2100.316406 2941.726562 2190 3125 2190 L 3490.753906 2190 C 3522.476562 2329.183594 3600.53125 2453.46875 3712.125 2542.492188 C 3823.722656 2631.515625 3962.246094 2680 4105 2680 C 4272.085938 2680 4432.328125 2613.625 4550.476562 2495.476562 C 4668.625 2377.328125 4735 2217.085938 4735 2050 C 4735 1882.914062 4668.625 1722.671875 4550.476562 1604.523438 C 4432.328125 1486.375 4272.085938 1420 4105 1420 C 3948.238281 1420 3797.105469 1478.445312 3681.132812 1583.914062 C 3565.15625 1689.386719 3492.667969 1834.304688 3477.828125 1990.363281 L 3067.394531 2014.632812 C 3063.269531 2014.878906 3059.132812 2015 3055 2015 C 2939.019531 2015 2845 1920.980469 2845 1805 C 2845 1786.660156 2847.402344 1768.398438 2852.144531 1750.683594 L 2875.234375 1664.449219 C 2878.398438 1652.640625 2880 1640.464844 2880 1628.238281 C 2880 1599.644531 2871.246094 1571.738281 2854.910156 1548.265625 L 2636.914062 1235.027344 C 2610.742188 1197.421875 2567.820312 1175 2522.003906 1175 L 2241.402344 1175 L 2327.589844 960.804688 C 2343.589844 921.046875 2382.144531 895 2425 895 L 2705 895 L 2705 720 M 1880.503906 1603.105469 C 1852.320312 1597.714844 1823.691406 1595 1795 1595 C 1674.328125 1595 1558.59375 1642.9375 1473.265625 1728.265625 C 1387.9375 1813.59375 1340 1929.328125 1340 2050 C 1340 2170.671875 1387.9375 2286.40625 1473.265625 2371.734375 C 1558.59375 2457.0625 1674.328125 2505 1795 2505 C 1915.671875 2505 2031.40625 2457.0625 2116.734375 2371.734375 C 2202.0625 2286.40625 2250 2170.671875 2250 2050 C 2250 1895.945312 2172.046875 1752.351562 2042.851562 1668.433594 L 1876.175781 2082.664062 C 1862.84375 2115.796875 1830.714844 2137.5 1795 2137.5 C 1746.675781 2137.5 1707.5 2098.324219 1707.5 2050 C 1707.5 2038.808594 1709.648438 2027.71875 1713.824219 2017.335938 L 1880.503906 1603.105469 M 4245 2190 L 3672.074219 2190 C 3701.671875 2281.527344 3759.519531 2361.320312 3837.300781 2417.917969 C 3915.085938 2474.511719 4008.804688 2505 4105 2505 C 4225.671875 2505 4341.40625 2457.0625 4426.734375 2371.734375 C 4512.0625 2286.40625 4560 2170.671875 4560 2050 C 4560 1929.328125 4512.0625 1813.59375 4426.734375 1728.265625 C 4341.40625 1642.9375 4225.671875 1595 4105 1595 C 3996.480469 1595 3891.539062 1633.785156 3809.101562 1704.355469 C 3726.664062 1774.929688 3672.167969 1872.640625 3655.4375 1979.863281 L 4245 1945 L 4245 2190 M 4595 1175 L 3475 1175 C 3436.339844 1175 3405 1206.339844 3405 1245 C 3405 1267.839844 3416.140625 1289.242188 3434.851562 1302.339844 L 3703.496094 1476.59375 C 3821.171875 1394.195312 3961.347656 1350 4105 1350 L 4595 1350 L 4595 1175 "/>
</g>
</svg>
