<?xml version="1.0" encoding="UTF-8"?>
<svg xmlns="http://www.w3.org/2000/svg" xmlns:xlink="http://www.w3.org/1999/xlink" width="600.000000mm" height="330.000000mm" viewBox="0 0 6000 3300" version="1.1">
<g id="surface736">
<path style="fill-rule:evenodd;fill:rgb(94.509804%,94.117647%,91.764706%);fill-opacity:1;stroke-width:0.3;stroke-linecap:butt;stroke-linejoin:miter;stroke:rgb(16.470588%,16.078431%,16.470588%);stroke-opacity:1;stroke-miterlimit:3;" d="M -260 -165 C -270.608594 -165 -280.782812 -160.785547 -288.284375 -153.284375 C -295.785547 -145.782813 -300 -135.608594 -300 -125 L -300 125 C -300 135.608594 -295.785547 145.782813 -288.284375 153.284375 C -280.782812 160.785547 -270.608594 165 -260 165 L 260 165 C 270.608594 165 280.782812 160.785547 288.284375 153.284375 C 295.785547 145.782813 300 135.608594 300 125 L 300 -125 C 300 -135.608594 295.785547 -145.782813 288.284375 -153.284375 C 280.782812 -160.785547 270.608594 -165 260 -165 L -260 -165 " transform="matrix(10,0,0,-10,3000,1650)"/>
<path style=" stroke:none;fill-rule:evenodd;fill:rgb(16.470588%,16.078431%,16.470588%);fill-opacity:1;" d="M 400 3200 C 234.316406 3200 100 3065.683594 100 2900 L 100 400 C 100 234.316406 234.316406 100 400 100 L 5600 100 C 5765.683594 100 5900 234.316406 5900 400 L 5900 2900 C 5900 3065.683594 5765.683594 3200 5600 3200 L 400 3200 M 400 3050 C 317.15625 3050 250 2982.84375 250 2900 L 250 400 C 250 317.15625 317.15625 250 400 250 L 5600 250 C 5682.84375 250 5750 317.15625 5750 400 L 5750 2900 C 5750 2982.84375 5682.84375 3050 5600 3050 L 400 3050 "/>
<path style=" stroke:none;fill-rule:evenodd;fill:rgb(16.470588%,16.078431%,16.470588%);fill-opacity:1;" d="M 1212.820312 1965 C 1191.234375 2008.511719 1180 2056.425781 1180 2105 C 1180 2225.453125 1248.691406 2335.363281 1356.964844 2388.144531 L 1765.957031 2587.527344 C 1823.28125 2615.476562 1886.222656 2630 1950 2630 L 4190 2630 C 4253.777344 2630 4316.71875 2615.476562 4374.042969 2587.527344 L 4783.035156 2388.144531 C 4891.308594 2335.363281 4960 2225.453125 4960 2105 C 4960 2056.425781 4948.765625 2008.511719 4927.179688 1965 L 4801.523438 1965 C 4835.960938 2003.5 4855 2053.34375 4855 2105 C 4855 2185.304688 4809.203125 2258.574219 4737.023438 2293.765625 L 4328.035156 2493.144531 C 4285.039062 2514.105469 4237.832031 2525 4190 2525 L 1950 2525 C 1902.167969 2525 1854.960938 2514.105469 1811.964844 2493.144531 L 1402.976562 2293.765625 C 1330.796875 2258.574219 1285 2185.304688 1285 2105 C 1285 2053.34375 1304.039062 2003.5 1338.476562 1965 L 1212.820312 1965 M 1635 2105 C 1635 2027.679688 1572.320312 1965 1495 1965 C 1417.679688 1965 1355 2027.679688 1355 2105 C 1355 2182.320312 1417.679688 2245 1495 2245 C 1572.320312 2245 1635 2182.320312 1635 2105 M 2195 2210 C 2195 2074.691406 2085.308594 1965 1950 1965 C 1814.691406 1965 1705 2074.691406 1705 2210 C 1705 2345.308594 1814.691406 2455 1950 2455 C 2085.308594 2455 2195 2345.308594 2195 2210 M 2755 2210 C 2755 2074.691406 2645.308594 1965 2510 1965 C 2374.691406 1965 2265 2074.691406 2265 2210 C 2265 2345.308594 2374.691406 2455 2510 2455 C 2645.308594 2455 2755 2345.308594 2755 2210 M 3315 2210 C 3315 2074.691406 3205.308594 1965 3070 1965 C 2934.691406 1965 2825 2074.691406 2825 2210 C 2825 2345.308594 2934.691406 2455 3070 2455 C 3205.308594 2455 3315 2345.308594 3315 2210 M 3875 2210 C 3875 2074.691406 3765.308594 1965 3630 1965 C 3494.691406 1965 3385 2074.691406 3385 2210 C 3385 2345.308594 3494.691406 2455 3630 2455 C 3765.308594 2455 3875 2345.308594 3875 2210 M 4435 2210 C 4435 2074.691406 4325.308594 1965 4190 1965 C 4054.691406 1965 3945 2074.691406 3945 2210 C 3945 2345.308594 4054.691406 2455 4190 2455 C 4325.308594 2455 4435 2345.308594 4435 2210 M 4785 2105 C 4785 2027.679688 4722.320312 1965 4645 1965 C 4567.679688 1965 4505 2027.679688 4505 2105 C 4505 2182.320312 4567.679688 2245 4645 2245 C 4722.320312 2245 4785 2182.320312 4785 2105 M 4960 1895 L 4960 1195 L 3840 1405 L 2230 1405 L 1103.703125 1723.296875 C 1066.019531 1733.949219 1040 1768.339844 1040 1807.5 C 1040 1855.824219 1079.175781 1895 1127.5 1895 L 4960 1895 M 3000 1335 L 3840 1335 L 3840 1265 L 4400 1160 L 4400 670 L 2720 792.5 L 2720 1195 L 3000 1335 M 2667.5 1090 L 2667.5 880 L 1040 880 L 1040 1020 L 2667.5 1090 "/>
</g>
</svg>
