<?xml version="1.0" encoding="UTF-8"?>
<svg xmlns="http://www.w3.org/2000/svg" xmlns:xlink="http://www.w3.org/1999/xlink" width="600.000000mm" height="600.000000mm" viewBox="0 0 6000 6000" version="1.1">
<g id="surface586">
<path style="fill-rule:evenodd;fill:rgb(94.509804%,94.117647%,91.764706%);fill-opacity:1;stroke-width:0.3;stroke-linecap:butt;stroke-linejoin:miter;stroke:rgb(16.470588%,16.078431%,16.470588%);stroke-opacity:1;stroke-miterlimit:3;" d="M -260 -300 C -270.608594 -300 -280.782812 -295.785547 -288.284375 -288.284375 C -295.785547 -280.782812 -300 -270.608594 -300 -260 L -300 260 C -300 270.608594 -295.785547 280.782812 -288.284375 288.284375 C -280.782812 295.785547 -270.608594 300 -260 300 L 260 300 C 270.608594 300 280.782812 295.785547 288.284375 288.284375 C 295.785547 280.782812 300 270.608594 300 260 L 300 -260 C 300 -270.608594 295.785547 -280.782812 288.284375 -288.284375 C 280.782812 -295.785547 270.608594 -300 260 -300 L -260 -300 " transform="matrix(10,0,0,-10,3000,3000)"/>
<path style=" stroke:none;fill-rule:evenodd;fill:rgb(16.470588%,16.078431%,16.470588%);fill-opacity:1;" d="M 400 5900 C 234.316406 5900 100 5765.683594 100 5600 L 100 400 C 100 234.316406 234.316406 100 400 100 L 5600 100 C 5765.683594 100 5900 234.316406 5900 400 L 5900 5600 C 5900 5765.683594 5765.683594 5900 5600 5900 L 400 5900 M 400 5750 C 317.15625 5750 250 5682.84375 250 5600 L 250 400 C 250 317.15625 317.15625 250 400 250 L 5600 250 C 5682.84375 250 5750 317.15625 5750 400 L 5750 5600 C 5750 5682.84375 5682.84375 5750 5600 5750 L 400 5750 "/>
<path style=" stroke:none;fill-rule:evenodd;fill:rgb(16.470588%,16.078431%,16.470588%);fill-opacity:1;" d="M 2300 865 L 1693.414062 902.910156 C 1665.882812 904.632812 1641.925781 922.363281 1632.238281 948.195312 L 1477.828125 1359.957031 C 1466.039062 1391.394531 1460 1424.695312 1460 1458.273438 L 1460 1845 C 1460 1883.660156 1491.339844 1915 1530 1915 L 1565 1915 C 1565 1741.03125 1706.03125 1600 1880 1600 C 2053.96875 1600 2195 1741.03125 2195 1915 L 3455 1915 C 3455 1819.851562 3498.007812 1729.804688 3572.011719 1670 L 2300 1670 L 2300 865 M 2055 1337.5 L 2055 987.5 L 1701.308594 1009.605469 C 1687.539062 1010.464844 1675.5625 1019.332031 1670.71875 1032.246094 L 1553.390625 1345.125 C 1551.917969 1349.054688 1551.160156 1353.21875 1551.160156 1357.414062 C 1551.160156 1376.746094 1566.832031 1392.414062 1586.160156 1392.414062 C 1587.527344 1392.414062 1588.894531 1392.335938 1590.25 1392.175781 L 2055 1337.5 M 2125 1915 C 2125 1779.691406 2015.308594 1670 1880 1670 C 1744.691406 1670 1635 1779.691406 1635 1915 C 1635 2050.308594 1744.691406 2160 1880 2160 C 2015.308594 2160 2125 2050.308594 2125 1915 M 4015 1915 C 4015 1779.691406 3905.308594 1670 3770 1670 C 3634.691406 1670 3525 1779.691406 3525 1915 C 3525 2050.308594 3634.691406 2160 3770 2160 C 3905.308594 2160 4015 2050.308594 4015 1915 M 4260 1915 L 4470 1845 L 4470 1670 L 3967.988281 1670 C 4041.992188 1729.804688 4085 1819.851562 4085 1915 L 4260 1915 M 4470 1600 L 4470 620 L 2440 620 L 2440 1600 L 4470 1600 "/>
<path style=" stroke:none;fill-rule:evenodd;fill:rgb(16.470588%,16.078431%,16.470588%);fill-opacity:1;" d="M 1670 3705 C 1670 3531.03125 1811.03125 3390 1985 3390 C 2158.96875 3390 2300 3531.03125 2300 3705 L 2300 3740 L 3595 3740 L 3595 3705 C 3595 3531.03125 3736.03125 3390 3910 3390 C 4083.96875 3390 4225 3531.03125 4225 3705 L 4225 3740 L 4680 3740 C 4757.320312 3740 4820 3677.320312 4820 3600 L 4820 3209.410156 C 4820 3189.898438 4817.28125 3170.480469 4811.921875 3151.71875 L 4669.011719 2651.539062 C 4651.839844 2591.4375 4596.902344 2550 4534.398438 2550 L 1355 2550 C 1335.671875 2550 1320 2565.671875 1320 2585 L 1320 2655 C 1320 2671.601562 1331.664062 2685.921875 1347.925781 2689.277344 C 1364.1875 2692.632812 1375.851562 2706.953125 1375.851562 2723.554688 C 1375.851562 2727.566406 1375.164062 2731.546875 1373.8125 2735.328125 L 1192.234375 3243.746094 C 1184.136719 3266.414062 1180 3290.304688 1180 3314.375 L 1180 3670 C 1180 3708.660156 1211.339844 3740 1250 3740 L 1670 3740 L 1670 3705 M 1359.5 3180 L 1778.5 3180 C 1807.496094 3180 1831 3156.496094 1831 3127.5 L 1831 2742.5 C 1831 2713.503906 1807.496094 2690 1778.5 2690 L 1497 2690 C 1474.8125 2690 1455.019531 2703.949219 1447.558594 2724.84375 L 1310.058594 3109.84375 C 1308.035156 3115.507812 1307 3121.480469 1307 3127.5 C 1307 3156.496094 1330.503906 3180 1359.5 3180 M 1974.5 3180 L 2342.398438 3180 C 2371.394531 3180 2394.898438 3156.496094 2394.898438 3127.5 C 2394.898438 3122.621094 2394.21875 3117.765625 2392.878906 3113.078125 L 2282.878906 2728.078125 C 2276.441406 2705.539062 2255.839844 2690 2232.398438 2690 L 1974.5 2690 C 1945.503906 2690 1922 2713.503906 1922 2742.5 L 1922 3127.5 C 1922 3156.496094 1945.503906 3180 1974.5 3180 M 2542.601562 3180 L 2895.398438 3180 C 2924.394531 3180 2947.898438 3156.496094 2947.898438 3127.5 C 2947.898438 3122.621094 2947.21875 3117.765625 2945.878906 3113.078125 L 2835.878906 2728.078125 C 2829.441406 2705.539062 2808.839844 2690 2785.398438 2690 L 2432.601562 2690 C 2403.605469 2690 2380.101562 2713.503906 2380.101562 2742.5 C 2380.101562 2747.378906 2380.78125 2752.234375 2382.121094 2756.921875 L 2492.121094 3141.921875 C 2498.558594 3164.460938 2519.160156 3180 2542.601562 3180 M 3095.601562 3180 L 3448.398438 3180 C 3477.394531 3180 3500.898438 3156.496094 3500.898438 3127.5 C 3500.898438 3122.621094 3500.21875 3117.765625 3498.878906 3113.078125 L 3388.878906 2728.078125 C 3382.441406 2705.539062 3361.839844 2690 3338.398438 2690 L 2985.605469 2690 C 2956.609375 2690 2933.105469 2713.503906 2933.105469 2742.5 C 2933.105469 2747.378906 2933.785156 2752.234375 2935.125 2756.921875 L 3045.121094 3141.921875 C 3051.558594 3164.460938 3072.160156 3180 3095.601562 3180 M 3648.601562 3180 L 4001.398438 3180 C 4030.394531 3180 4053.898438 3156.496094 4053.898438 3127.5 C 4053.898438 3122.621094 4053.21875 3117.765625 4051.878906 3113.078125 L 3941.878906 2728.078125 C 3935.441406 2705.539062 3914.839844 2690 3891.398438 2690 L 3538.605469 2690 C 3509.609375 2690 3486.105469 2713.503906 3486.105469 2742.5 C 3486.105469 2747.378906 3486.785156 2752.234375 3488.125 2756.921875 L 3598.121094 3141.921875 C 3604.558594 3164.460938 3625.160156 3180 3648.601562 3180 M 4201.601562 3180 L 4554.398438 3180 C 4583.394531 3180 4606.898438 3156.496094 4606.898438 3127.5 C 4606.898438 3122.621094 4606.21875 3117.765625 4604.878906 3113.078125 L 4494.878906 2728.078125 C 4488.441406 2705.539062 4467.839844 2690 4444.398438 2690 L 4091.601562 2690 C 4062.605469 2690 4039.101562 2713.503906 4039.101562 2742.5 C 4039.101562 2747.378906 4039.78125 2752.234375 4041.121094 2756.921875 L 4151.121094 3141.921875 C 4157.558594 3164.460938 4178.160156 3180 4201.601562 3180 M 4155 3705 C 4155 3569.691406 4045.308594 3460 3910 3460 C 3774.691406 3460 3665 3569.691406 3665 3705 C 3665 3840.308594 3774.691406 3950 3910 3950 C 4045.308594 3950 4155 3840.308594 4155 3705 M 2230 3705 C 2230 3569.691406 2120.308594 3460 1985 3460 C 1849.691406 3460 1740 3569.691406 1740 3705 C 1740 3840.308594 1849.691406 3950 1985 3950 C 2120.308594 3950 2230 3840.308594 2230 3705 "/>
<path style=" stroke:none;fill-rule:evenodd;fill:rgb(16.470588%,16.078431%,16.470588%);fill-opacity:1;" d="M 1487.5 5230 C 1487.5 5108.496094 1389.003906 5010 1267.5 5010 C 1145.996094 5010 1047.5 5108.496094 1047.5 5230 C 1047.5 5351.503906 1145.996094 5450 1267.5 5450 C 1389.003906 5450 1487.5 5351.503906 1487.5 5230 M 3440 5230 C 3440 5108.496094 3341.503906 5010 3220 5010 C 3098.496094 5010 3000 5108.496094 3000 5230 C 3000 5351.503906 3098.496094 5450 3220 5450 C 3341.503906 5450 3440 5351.503906 3440 5230 M 992.5 5230 L 855 5230 C 824.625 5230 800 5205.375 800 5175 L 800 4919.09375 C 800 4892.207031 819.4375 4869.261719 845.957031 4864.839844 L 1625 4735 L 1993.890625 4366.109375 C 2004.207031 4355.792969 2018.195312 4350 2032.78125 4350 L 3090.707031 4350 C 3103.195312 4350 3115.3125 4354.25 3125.066406 4362.050781 L 3639.359375 4773.484375 C 3652.40625 4783.921875 3660 4799.726562 3660 4816.433594 L 3660 5175 C 3660 5205.375 3635.375 5230 3605 5230 L 3495 5230 C 3495 5078.121094 3371.878906 4955 3220 4955 C 3068.121094 4955 2945 5078.121094 2945 5230 L 1542.5 5230 C 1542.5 5078.121094 1419.378906 4955 1267.5 4955 C 1115.621094 4955 992.5 5078.121094 992.5 5230 M 2505 4790 L 1746.390625 4790 C 1731.203125 4790 1718.890625 4777.6875 1718.890625 4762.5 C 1718.890625 4755.207031 1721.789062 4748.210938 1726.945312 4743.054688 L 1993.890625 4476.109375 C 2004.207031 4465.792969 2018.195312 4460 2032.78125 4460 L 2505 4460 L 2505 4790 M 2587.5 4790 L 2587.5 4460 L 2977.21875 4460 C 2991.804688 4460 3005.796875 4465.792969 3016.109375 4476.109375 L 3236.109375 4696.109375 C 3246.425781 4706.421875 3252.21875 4720.414062 3252.21875 4735 C 3252.21875 4765.375 3227.59375 4790 3197.21875 4790 L 2587.5 4790 "/>
<path style=" stroke:none;fill-rule:evenodd;fill:rgb(16.470588%,16.078431%,16.470588%);fill-opacity:1;" d="M 3770 5230 L 3770 5175 L 3990 5175 L 3990 5120 L 4342.957031 5120 C 4327.816406 5154.695312 4320 5192.144531 4320 5230 L 3770 5230 M 5200 5120 L 5145 5230 L 4870 5230 C 4870 5192.144531 4862.183594 5154.695312 4847.042969 5120 L 5200 5120 M 4815 5230 C 4815 5108.496094 4716.503906 5010 4595 5010 C 4473.496094 5010 4375 5108.496094 4375 5230 C 4375 5351.503906 4473.496094 5450 4595 5450 C 4716.503906 5450 4815 5351.503906 4815 5230 M 5200 5065 L 4815 5065 C 4763.066406 4995.753906 4681.558594 4955 4595 4955 C 4508.441406 4955 4426.933594 4995.753906 4375 5065 L 3990 5065 L 3990 4570 C 3990 4509.25 4039.25 4460 4100 4460 L 5090 4460 C 5150.75 4460 5200 4509.25 5200 4570 L 5200 5065 "/>
</g>
</svg>
