<?xml version="1.0" encoding="UTF-8"?>
<svg xmlns="http://www.w3.org/2000/svg" xmlns:xlink="http://www.w3.org/1999/xlink" width="600.000000mm" height="450.000000mm" viewBox="0 0 6000 4500" version="1.1">
<g id="surface731">
<path style="fill-rule:evenodd;fill:rgb(94.509804%,94.117647%,91.764706%);fill-opacity:1;stroke-width:0.3;stroke-linecap:butt;stroke-linejoin:miter;stroke:rgb(16.470588%,16.078431%,16.470588%);stroke-opacity:1;stroke-miterlimit:3;" d="M -260 -225 C -270.608594 -225 -280.782812 -220.785547 -288.284375 -213.284375 C -295.785547 -205.782813 -300 -195.608594 -300 -185 L -300 185 C -300 195.608594 -295.785547 205.782813 -288.284375 213.284375 C -280.782812 220.785547 -270.608594 225 -260 225 L 260 225 C 270.608594 225 280.782812 220.785547 288.284375 213.284375 C 295.785547 205.782813 300 195.608594 300 185 L 300 -185 C 300 -195.608594 295.785547 -205.782813 288.284375 -213.284375 C 280.782812 -220.785547 270.608594 -225 260 -225 L -260 -225 " transform="matrix(10,0,0,-10,3000,2250)"/>
<path style=" stroke:none;fill-rule:evenodd;fill:rgb(16.470588%,16.078431%,16.470588%);fill-opacity:1;" d="M 400 4400 C 234.316406 4400 100 4265.683594 100 4100 L 100 400 C 100 234.316406 234.316406 100 400 100 L 5600 100 C 5765.683594 100 5900 234.316406 5900 400 L 5900 4100 C 5900 4265.683594 5765.683594 4400 5600 4400 L 400 4400 M 400 4250 C 317.15625 4250 250 4182.84375 250 4100 L 250 400 C 250 317.15625 317.15625 250 400 250 L 5600 250 C 5682.84375 250 5750 317.15625 5750 400 L 5750 4100 C 5750 4182.84375 5682.84375 4250 5600 4250 L 400 4250 "/>
<path style=" stroke:none;fill-rule:evenodd;fill:rgb(16.470588%,16.078431%,16.470588%);fill-opacity:1;" d="M 1280 3700 L 1280 3490 L 1560 3490 L 1560 3350 L 1980 3350 L 1980 3490 L 2610 3490 L 2610 3350 L 4920 3350 L 4920 3490 C 4552.25 3490 4192.488281 3509.867188 3884.804688 3547.167969 C 3577.121094 3584.46875 3334.886719 3637.582031 3187.785156 3700 L 1280 3700 M 1705.089844 3280 C 1593.695312 3280 1486.867188 3235.75 1408.101562 3156.984375 C 1329.335938 3078.21875 1285.089844 2971.390625 1285.089844 2860 C 1285.089844 2858.3125 1285.097656 2856.625 1285.117188 2854.941406 L 1293.390625 2168.863281 C 1293.796875 2135.027344 1297.273438 2101.292969 1303.769531 2068.082031 L 1346.796875 1848.136719 C 1353.582031 1813.457031 1363.636719 1779.496094 1376.820312 1746.710938 L 1580.707031 1239.761719 C 1602.03125 1186.738281 1653.445312 1152 1710.59375 1152 L 2324.320312 1152 C 2305.863281 1081.890625 2267.988281 1018.414062 2215.050781 968.878906 C 2162.113281 919.34375 2096.261719 885.761719 2025.082031 872 L 1840 872 C 1816.804688 872 1798 853.195312 1798 830 C 1798 806.804688 1816.804688 788 1840 788 L 2960 788 C 2983.195312 788 3002 806.804688 3002 830 C 3002 853.195312 2983.195312 872 2960 872 L 2774.917969 872 C 2703.738281 885.761719 2637.886719 919.34375 2584.949219 968.878906 C 2532.011719 1018.414062 2494.136719 1081.890625 2475.679688 1152 L 2820 1152 C 2956.535156 1152 3080.605469 1231.394531 3137.804688 1355.371094 L 3204.160156 1499.199219 C 3510.480469 2163.113281 4140.074219 2619.902344 4866.265625 2705.109375 L 4876.710938 2706.332031 C 4901.394531 2709.230469 4920 2730.148438 4920 2755 L 4920 3210 C 4920 3248.660156 4888.660156 3280 4850 3280 L 1705.089844 3280 M 2229.628906 872 L 2570.371094 872 C 2489.433594 931.445312 2429.714844 1015.304688 2400 1111.230469 C 2370.285156 1015.304688 2310.566406 931.445312 2229.628906 872 M 1770 2580 C 1770 2502.679688 1707.320312 2440 1630 2440 C 1552.679688 2440 1490 2502.679688 1490 2580 C 1490 2657.320312 1552.679688 2720 1630 2720 C 1707.320312 2720 1770 2657.320312 1770 2580 M 2330 2132 C 2330 2054.679688 2267.320312 1992 2190 1992 C 2112.679688 1992 2050 2054.679688 2050 2132 C 2050 2209.320312 2112.679688 2272 2190 2272 C 2267.320312 2272 2330 2209.320312 2330 2132 M 2890 2580 C 2890 2502.679688 2827.320312 2440 2750 2440 C 2672.679688 2440 2610 2502.679688 2610 2580 C 2610 2657.320312 2672.679688 2720 2750 2720 C 2827.320312 2720 2890 2657.320312 2890 2580 M 1626.78125 1371.402344 C 1639.894531 1340.253906 1670.398438 1320 1704.195312 1320 L 2787.804688 1320 C 2821.601562 1320 2852.105469 1340.253906 2865.21875 1371.402344 L 3027.558594 1763.402344 C 3031.902344 1773.722656 3034.140625 1784.804688 3034.140625 1796 C 3034.140625 1842.390625 2996.53125 1880 2950.140625 1880 L 1541.859375 1880 C 1495.46875 1880 1457.859375 1842.390625 1457.859375 1796 C 1457.859375 1784.804688 1460.097656 1773.722656 1464.441406 1763.402344 L 1626.78125 1371.40625 M 3267.996094 1927.667969 C 3344.140625 2022.332031 3428.421875 2110.964844 3519.996094 2192.683594 L 3519.992188 2678.550781 C 3444.453125 2641.839844 3370.96875 2602.527344 3299.75 2560.730469 L 3268 1927.667969 M 3645.992188 2297.203125 C 3717.351562 2352.1875 3792.152344 2403.105469 3869.996094 2449.679688 L 3869.996094 2824.753906 C 3793.835938 2797.796875 3719.105469 2768.371094 3645.992188 2736.546875 L 3646 2297.199219 M 3981.996094 2512.589844 C 4045.742188 2546.136719 4111.148438 2576.824219 4177.996094 2604.546875 L 4177.992188 2918.261719 C 4111.875 2901.382812 4046.503906 2882.714844 3981.992188 2862.289062 L 3982 2512.585938 M 4275.996094 2642.691406 C 4331.230469 2662.808594 4387.273438 2680.921875 4443.996094 2696.992188 L 4443.996094 2975.769531 C 4387.601562 2965.726562 4331.578125 2954.414062 4275.992188 2941.847656 L 4276 2642.6875 M 4527.996094 2719.171875 C 4574.320312 2730.523438 4621.007812 2740.519531 4667.996094 2749.140625 L 4667.992188 3008.726562 C 4621.148438 3003.261719 4574.46875 2996.933594 4527.992188 2989.742188 L 4528 2719.171875 M 4737.992188 2760.941406 C 4775.195312 2766.660156 4812.539062 2771.523438 4849.996094 2775.523438 L 4849.992188 3025.53125 C 4812.589844 3022.980469 4775.25 3019.878906 4737.992188 3016.230469 L 4738 2760.945312 "/>
</g>
</svg>
