<?xml version="1.0" encoding="UTF-8"?>
<svg xmlns="http://www.w3.org/2000/svg" xmlns:xlink="http://www.w3.org/1999/xlink" width="600.000000mm" height="330.000000mm" viewBox="0 0 6000 3300" version="1.1">
<g id="surface671">
<path style="fill-rule:evenodd;fill:rgb(94.509804%,94.117647%,91.764706%);fill-opacity:1;stroke-width:0.3;stroke-linecap:butt;stroke-linejoin:miter;stroke:rgb(16.470588%,16.078431%,16.470588%);stroke-opacity:1;stroke-miterlimit:3;" d="M -260 -165 C -270.608594 -165 -280.782812 -160.785547 -288.284375 -153.284375 C -295.785547 -145.782813 -300 -135.608594 -300 -125 L -300 125 C -300 135.608594 -295.785547 145.782813 -288.284375 153.284375 C -280.782812 160.785547 -270.608594 165 -260 165 L 260 165 C 270.608594 165 280.782812 160.785547 288.284375 153.284375 C 295.785547 145.782813 300 135.608594 300 125 L 300 -125 C 300 -135.608594 295.785547 -145.782813 288.284375 -153.284375 C 280.782812 -160.785547 270.608594 -165 260 -165 L -260 -165 " transform="matrix(10,0,0,-10,3000,1650)"/>
<path style=" stroke:none;fill-rule:evenodd;fill:rgb(16.470588%,16.078431%,16.470588%);fill-opacity:1;" d="M 400 3200 C 234.316406 3200 100 3065.683594 100 2900 L 100 400 C 100 234.316406 234.316406 100 400 100 L 5600 100 C 5765.683594 100 5900 234.316406 5900 400 L 5900 2900 C 5900 3065.683594 5765.683594 3200 5600 3200 L 400 3200 M 400 3050 C 317.15625 3050 250 2982.84375 250 2900 L 250 400 C 250 317.15625 317.15625 250 400 250 L 5600 250 C 5682.84375 250 5750 317.15625 5750 400 L 5750 2900 C 5750 2982.84375 5682.84375 3050 5600 3050 L 400 3050 "/>
<path style=" stroke:none;fill-rule:evenodd;fill:rgb(16.470588%,16.078431%,16.470588%);fill-opacity:1;" d="M 952.5 2460 L 952.5 1987.5 L 1296.339844 1762.5 L 1278.328125 1720.890625 C 1256.34375 1670.101562 1245 1615.34375 1245 1560 C 1245 1518.6875 1251.320312 1477.617188 1263.746094 1438.214844 L 1132.5 1200 L 817.5 1267.5 L 750 1200 L 1020 885 L 1020 750 L 1110 840 C 1263.050781 840 1405.609375 917.789062 1488.425781 1046.496094 L 1712.296875 1398.214844 C 1788.910156 1408.980469 1866.175781 1414.382812 1943.539062 1414.382812 C 2064.492188 1414.382812 2185.078125 1401.175781 2303.164062 1374.996094 L 2304.703125 1374.722656 C 2326.242188 1370.75 2348.097656 1368.75 2370 1368.75 C 2440.890625 1368.75 2510.203125 1389.679688 2569.246094 1428.914062 L 2630.105469 1368.058594 C 2676.523438 1321.640625 2739.476562 1295.566406 2805.117188 1295.566406 C 2917.136719 1295.566406 3015.191406 1370.804688 3044.183594 1479.007812 L 3090 1650 L 2955 1740 L 2918.820312 1534.8125 C 2906.496094 1464.917969 2845.765625 1413.960938 2774.789062 1413.960938 C 2736.003906 1413.960938 2698.804688 1429.367188 2671.375 1456.792969 L 2638.84375 1489.328125 C 2697.558594 1555.257812 2730 1640.464844 2730 1728.75 C 2730 1770.367188 2722.785156 1811.664062 2708.671875 1850.816406 L 2887.5 2146.214844 L 2820 2573.714844 L 2692.296875 2617.5 L 2759.796875 2190 L 2441.28125 1941.46875 L 2482.5 2257.5 L 2280 2640 L 2145 2640 L 2347.5 2257.5 L 2147.988281 1904.515625 C 2043.875 1929.75 1937.128906 1942.5 1830 1942.5 C 1728.253906 1942.5 1626.835938 1930.996094 1527.671875 1908.210938 L 1740 2527.5 L 1717.5 2640 L 1605 2640 L 1627.5 2527.5 L 1357.5 1903.78125 L 1065 2077.5 L 1065 2392.5 L 952.5 2460 "/>
<path style=" stroke:none;fill-rule:evenodd;fill:rgb(16.470588%,16.078431%,16.470588%);fill-opacity:1;" d="M 4080 2280 C 4080 2081.175781 3918.824219 1920 3720 1920 C 3521.175781 1920 3360 2081.175781 3360 2280 C 3360 2478.824219 3521.175781 2640 3720 2640 C 3918.824219 2640 4080 2478.824219 4080 2280 M 3990 2280 C 3990 2130.882812 3869.117188 2010 3720 2010 C 3570.882812 2010 3450 2130.882812 3450 2280 C 3450 2429.117188 3570.882812 2550 3720 2550 C 3869.117188 2550 3990 2429.117188 3990 2280 M 5250 2280 C 5250 2081.175781 5088.824219 1920 4890 1920 C 4691.175781 1920 4530 2081.175781 4530 2280 C 4530 2478.824219 4691.175781 2640 4890 2640 C 5088.824219 2640 5250 2478.824219 5250 2280 M 5160 2280 C 5160 2130.882812 5039.117188 2010 4890 2010 C 4740.882812 2010 4620 2130.882812 4620 2280 C 4620 2429.117188 4740.882812 2550 4890 2550 C 5039.117188 2550 5160 2429.117188 5160 2280 M 3360 2010 L 3360 1470 L 5250 1470 L 5250 2010 L 5160.9375 2010 C 5089.164062 1937.980469 4991.675781 1897.5 4890 1897.5 C 4788.324219 1897.5 4690.835938 1937.980469 4619.0625 2010 L 3990.9375 2010 C 3919.164062 1937.980469 3821.675781 1897.5 3720 1897.5 C 3618.324219 1897.5 3520.835938 1937.980469 3449.0625 2010 L 3360 2010 "/>
<path style=" stroke:none;fill-rule:evenodd;fill:rgb(16.470588%,16.078431%,16.470588%);fill-opacity:1;" d="M 3303.75 2010 L 2775 1852.5 L 2775 1785 L 3303.75 1942.5 L 3303.75 2010 "/>
</g>
</svg>
