<?xml version="1.0" encoding="UTF-8"?>
<svg xmlns="http://www.w3.org/2000/svg" xmlns:xlink="http://www.w3.org/1999/xlink" width="600.000000mm" height="450.000000mm" viewBox="0 0 6000 4500" version="1.1">
<g id="surface641">
<path style="fill-rule:evenodd;fill:rgb(94.509804%,94.117647%,91.764706%);fill-opacity:1;stroke-width:0.3;stroke-linecap:butt;stroke-linejoin:miter;stroke:rgb(16.470588%,16.078431%,16.470588%);stroke-opacity:1;stroke-miterlimit:3;" d="M -260 -225 C -270.608594 -225 -280.782812 -220.785547 -288.284375 -213.284375 C -295.785547 -205.782813 -300 -195.608594 -300 -185 L -300 185 C -300 195.608594 -295.785547 205.782813 -288.284375 213.284375 C -280.782812 220.785547 -270.608594 225 -260 225 L 260 225 C 270.608594 225 280.782812 220.785547 288.284375 213.284375 C 295.785547 205.782813 300 195.608594 300 185 L 300 -185 C 300 -195.608594 295.785547 -205.782813 288.284375 -213.284375 C 280.782812 -220.785547 270.608594 -225 260 -225 L -260 -225 " transform="matrix(10,0,0,-10,3000,2250)"/>
<path style=" stroke:none;fill-rule:evenodd;fill:rgb(16.470588%,16.078431%,16.470588%);fill-opacity:1;" d="M 400 4400 C 234.316406 4400 100 4265.683594 100 4100 L 100 400 C 100 234.316406 234.316406 100 400 100 L 5600 100 C 5765.683594 100 5900 234.316406 5900 400 L 5900 4100 C 5900 4265.683594 5765.683594 4400 5600 4400 L 400 4400 M 400 4250 C 317.15625 4250 250 4182.84375 250 4100 L 250 400 C 250 317.15625 317.15625 250 400 250 L 5600 250 C 5682.84375 250 5750 317.15625 5750 400 L 5750 4100 C 5750 4182.84375 5682.84375 4250 5600 4250 L 400 4250 "/>
<path style=" stroke:none;fill-rule:evenodd;fill:rgb(16.470588%,16.078431%,16.470588%);fill-opacity:1;" d="M 2550 1525 C 2550 1412.28125 2505.222656 1304.183594 2425.519531 1224.480469 C 2345.816406 1144.777344 2237.71875 1100 2125 1100 C 2012.28125 1100 1904.183594 1144.777344 1824.480469 1224.480469 C 1744.777344 1304.183594 1700 1412.28125 1700 1525 C 1700 1637.71875 1744.777344 1745.816406 1824.480469 1825.519531 C 1904.183594 1905.222656 2012.28125 1950 2125 1950 C 2237.71875 1950 2345.816406 1905.222656 2425.519531 1825.519531 C 2505.222656 1745.816406 2550 1637.71875 2550 1525 M 2400 1525 C 2400 1373.121094 2276.878906 1250 2125 1250 C 1973.121094 1250 1850 1373.121094 1850 1525 C 1850 1676.878906 1973.121094 1800 2125 1800 C 2276.878906 1800 2400 1676.878906 2400 1525 M 4300 1525 C 4300 1412.28125 4255.222656 1304.183594 4175.519531 1224.480469 C 4095.816406 1144.777344 3987.71875 1100 3875 1100 C 3762.28125 1100 3654.183594 1144.777344 3574.480469 1224.480469 C 3494.777344 1304.183594 3450 1412.28125 3450 1525 C 3450 1637.71875 3494.777344 1745.816406 3574.480469 1825.519531 C 3654.183594 1905.222656 3762.28125 1950 3875 1950 C 3987.71875 1950 4095.816406 1905.222656 4175.519531 1825.519531 C 4255.222656 1745.816406 4300 1637.71875 4300 1525 M 4150 1525 C 4150 1373.121094 4026.878906 1250 3875 1250 C 3723.121094 1250 3600 1373.121094 3600 1525 C 3600 1676.878906 3723.121094 1800 3875 1800 C 4026.878906 1800 4150 1676.878906 4150 1525 M 3434.03125 1672.546875 C 3418.113281 1624.980469 3410 1575.15625 3410 1525 C 3410 1401.675781 3458.992188 1283.398438 3546.195312 1196.195312 C 3633.398438 1108.992188 3751.675781 1060 3875 1060 C 3974.457031 1060 4069.839844 1036.292969 4140.164062 994.097656 C 4210.492188 951.902344 4250 894.671875 4250 835 C 4250 775 4225 750 4175 750 C 4022.5 750 3876.246094 771.070312 3768.414062 808.578125 C 3660.582031 846.085938 3600 896.957031 3600 950 C 3500 980 3425 980 3342.691406 970 C 3229.027344 845.757812 3068.390625 775 2900 775 C 2818.503906 775 2745.15625 824.449219 2714.59375 900 L 2714.597656 900 C 2337.5 800 2275 725 2625 625 C 2700 600 2700 562.5 2700 550 C 2100 550 2000 900 2080.433594 1062.140625 C 2095.246094 1060.714844 2110.117188 1060 2125 1060 C 2232.929688 1060 2337.496094 1097.542969 2420.777344 1166.195312 C 2504.058594 1234.84375 2560.863281 1330.328125 2581.457031 1436.273438 C 2625 1712.5 2900 1662.5 3434.03125 1672.546875 "/>
<path style=" stroke:none;fill-rule:evenodd;fill:rgb(16.470588%,16.078431%,16.470588%);fill-opacity:1;" d="M 1950 3100 C 1950 3067.542969 1960.527344 3035.964844 1980 3010 L 2010 2970 C 2030.996094 2942.003906 2048.65625 2911.652344 2062.621094 2879.5625 L 2260.382812 2425.121094 C 2280.234375 2379.503906 2325.25 2350 2375 2350 L 3625 2350 C 3674.75 2350 3719.765625 2379.503906 3739.617188 2425.121094 L 3937.378906 2879.5625 C 3951.34375 2911.652344 3969.003906 2942.003906 3990 2970 L 4020 3010 C 4039.472656 3035.964844 4050 3067.542969 4050 3100 L 4050 3425 C 4050 3494.035156 3994.035156 3550 3925 3550 L 2075 3550 C 2005.964844 3550 1950 3494.035156 1950 3425 L 1950 3100 M 2187.5 2900 L 2359.371094 2505.046875 C 2367.3125 2486.800781 2385.320312 2475 2405.21875 2475 L 3594.78125 2475 C 3614.683594 2475 3632.6875 2486.800781 3640.628906 2505.046875 L 3812.5 2900 L 2187.5 2900 M 2375 3175 C 2375 3092.15625 2307.84375 3025 2225 3025 C 2142.15625 3025 2075 3092.15625 2075 3175 C 2075 3257.84375 2142.15625 3325 2225 3325 C 2307.84375 3325 2375 3257.84375 2375 3175 M 3925 3175 C 3925 3092.15625 3857.84375 3025 3775 3025 C 3692.15625 3025 3625 3092.15625 3625 3175 C 3625 3257.84375 3692.15625 3325 3775 3325 C 3857.84375 3325 3925 3257.84375 3925 3175 M 2075 3600 L 2375 3600 L 2375 3875 C 2375 3916.421875 2341.421875 3950 2300 3950 L 2150 3950 C 2108.578125 3950 2075 3916.421875 2075 3875 L 2075 3600 M 3625 3600 L 3925 3600 L 3925 3875 C 3925 3916.421875 3891.421875 3950 3850 3950 L 3700 3950 C 3658.578125 3950 3625 3916.421875 3625 3875 L 3625 3600 "/>
</g>
</svg>
