<?xml version="1.0" encoding="UTF-8"?>
<svg xmlns="http://www.w3.org/2000/svg" xmlns:xlink="http://www.w3.org/1999/xlink" width="600.000000mm" height="450.000000mm" viewBox="0 0 6000 4500" version="1.1">
<g id="surface696">
<path style="fill-rule:evenodd;fill:rgb(94.509804%,94.117647%,91.764706%);fill-opacity:1;stroke-width:0.3;stroke-linecap:butt;stroke-linejoin:miter;stroke:rgb(16.470588%,16.078431%,16.470588%);stroke-opacity:1;stroke-miterlimit:3;" d="M -260 -225 C -270.608594 -225 -280.782812 -220.785547 -288.284375 -213.284375 C -295.785547 -205.782813 -300 -195.608594 -300 -185 L -300 185 C -300 195.608594 -295.785547 205.782813 -288.284375 213.284375 C -280.782812 220.785547 -270.608594 225 -260 225 L 260 225 C 270.608594 225 280.782812 220.785547 288.284375 213.284375 C 295.785547 205.782813 300 195.608594 300 185 L 300 -185 C 300 -195.608594 295.785547 -205.782813 288.284375 -213.284375 C 280.782812 -220.785547 270.608594 -225 260 -225 L -260 -225 " transform="matrix(10,0,0,-10,3000,2250)"/>
<path style=" stroke:none;fill-rule:evenodd;fill:rgb(16.470588%,16.078431%,16.470588%);fill-opacity:1;" d="M 400 4400 C 234.316406 4400 100 4265.683594 100 4100 L 100 400 C 100 234.316406 234.316406 100 400 100 L 5600 100 C 5765.683594 100 5900 234.316406 5900 400 L 5900 4100 C 5900 4265.683594 5765.683594 4400 5600 4400 L 400 4400 M 400 4250 C 317.15625 4250 250 4182.84375 250 4100 L 250 400 C 250 317.15625 317.15625 250 400 250 L 5600 250 C 5682.84375 250 5750 317.15625 5750 400 L 5750 4100 C 5750 4182.84375 5682.84375 4250 5600 4250 L 400 4250 "/>
<path style=" stroke:none;fill-rule:evenodd;fill:rgb(16.470588%,16.078431%,16.470588%);fill-opacity:1;" d="M 1487.5 1530 C 1487.5 1408.496094 1389.003906 1310 1267.5 1310 C 1145.996094 1310 1047.5 1408.496094 1047.5 1530 C 1047.5 1651.503906 1145.996094 1750 1267.5 1750 C 1389.003906 1750 1487.5 1651.503906 1487.5 1530 M 3440 1530 C 3440 1408.496094 3341.503906 1310 3220 1310 C 3098.496094 1310 3000 1408.496094 3000 1530 C 3000 1651.503906 3098.496094 1750 3220 1750 C 3341.503906 1750 3440 1651.503906 3440 1530 M 992.5 1530 L 855 1530 C 824.625 1530 800 1505.375 800 1475 L 800 1219.09375 C 800 1192.207031 819.4375 1169.261719 845.957031 1164.839844 L 1625 1035 L 1993.890625 666.109375 C 2004.207031 655.792969 2018.195312 650 2032.78125 650 L 3090.707031 650 C 3103.195312 650 3115.3125 654.25 3125.066406 662.050781 L 3639.359375 1073.484375 C 3652.40625 1083.921875 3660 1099.726562 3660 1116.433594 L 3660 1475 C 3660 1505.375 3635.375 1530 3605 1530 L 3495 1530 C 3495 1378.121094 3371.878906 1255 3220 1255 C 3068.121094 1255 2945 1378.121094 2945 1530 L 1542.5 1530 C 1542.5 1378.121094 1419.378906 1255 1267.5 1255 C 1115.621094 1255 992.5 1378.121094 992.5 1530 M 2505 1090 L 1746.390625 1090 C 1731.203125 1090 1718.890625 1077.6875 1718.890625 1062.5 C 1718.890625 1055.207031 1721.789062 1048.210938 1726.945312 1043.054688 L 1993.890625 776.109375 C 2004.207031 765.792969 2018.195312 760 2032.78125 760 L 2505 760 L 2505 1090 M 2587.5 1090 L 2587.5 760 L 2977.21875 760 C 2991.804688 760 3005.796875 765.792969 3016.109375 776.109375 L 3236.109375 996.109375 C 3246.425781 1006.421875 3252.21875 1020.414062 3252.21875 1035 C 3252.21875 1065.375 3227.59375 1090 3197.21875 1090 L 2587.5 1090 "/>
<path style=" stroke:none;fill-rule:evenodd;fill:rgb(16.470588%,16.078431%,16.470588%);fill-opacity:1;" d="M 3770 1530 L 3770 1475 L 3990 1475 L 3990 1420 L 4342.957031 1420 C 4327.816406 1454.695312 4320 1492.144531 4320 1530 L 3770 1530 M 5200 1420 L 5145 1530 L 4870 1530 C 4870 1492.144531 4862.183594 1454.695312 4847.042969 1420 L 5200 1420 M 4815 1530 C 4815 1408.496094 4716.503906 1310 4595 1310 C 4473.496094 1310 4375 1408.496094 4375 1530 C 4375 1651.503906 4473.496094 1750 4595 1750 C 4716.503906 1750 4815 1651.503906 4815 1530 M 5200 1365 L 4815 1365 C 4763.066406 1295.753906 4681.558594 1255 4595 1255 C 4508.441406 1255 4426.933594 1295.753906 4375 1365 L 3990 1365 L 3990 870 C 3990 809.25 4039.25 760 4100 760 L 5090 760 C 5150.75 760 5200 809.25 5200 870 L 5200 1365 "/>
<path style=" stroke:none;fill-rule:evenodd;fill:rgb(16.470588%,16.078431%,16.470588%);fill-opacity:1;" d="M 2200 2450 L 1506.757812 2493.328125 C 1475.292969 2495.292969 1447.914062 2515.558594 1436.84375 2545.082031 L 1260.375 3015.667969 C 1246.902344 3051.59375 1240 3089.652344 1240 3128.027344 L 1240 3570 C 1240 3614.183594 1275.816406 3650 1320 3650 L 1360 3650 C 1360 3451.175781 1521.175781 3290 1720 3290 C 1918.824219 3290 2080 3451.175781 2080 3650 L 3520 3650 C 3520 3541.261719 3569.152344 3438.347656 3653.726562 3370 L 2200 3370 L 2200 2450 M 1920 2990 L 1920 2590 L 1515.78125 2615.261719 C 1500.046875 2616.246094 1486.355469 2626.378906 1480.820312 2641.140625 L 1346.734375 2998.71875 C 1345.046875 3003.207031 1344.1875 3007.964844 1344.1875 3012.761719 C 1344.1875 3034.851562 1362.09375 3052.761719 1384.1875 3052.761719 C 1385.746094 3052.761719 1387.308594 3052.671875 1388.859375 3052.488281 L 1920 2990 M 2000 3650 C 2000 3495.359375 1874.640625 3370 1720 3370 C 1565.359375 3370 1440 3495.359375 1440 3650 C 1440 3804.640625 1565.359375 3930 1720 3930 C 1874.640625 3930 2000 3804.640625 2000 3650 M 4160 3650 C 4160 3495.359375 4034.640625 3370 3880 3370 C 3725.359375 3370 3600 3495.359375 3600 3650 C 3600 3804.640625 3725.359375 3930 3880 3930 C 4034.640625 3930 4160 3804.640625 4160 3650 M 4440 3650 L 4680 3570 L 4680 3370 L 4106.273438 3370 C 4190.847656 3438.347656 4240 3541.261719 4240 3650 L 4440 3650 M 4680 3290 L 4680 2170 L 2360 2170 L 2360 3290 L 4680 3290 "/>
</g>
</svg>
