<?xml version="1.0" encoding="UTF-8"?>
<svg xmlns="http://www.w3.org/2000/svg" xmlns:xlink="http://www.w3.org/1999/xlink" width="600.000000mm" height="330.000000mm" viewBox="0 0 6000 3300" version="1.1">
<g id="surface721">
<path style="fill-rule:evenodd;fill:rgb(94.509804%,94.117647%,91.764706%);fill-opacity:1;stroke-width:0.3;stroke-linecap:butt;stroke-linejoin:miter;stroke:rgb(16.470588%,16.078431%,16.470588%);stroke-opacity:1;stroke-miterlimit:3;" d="M -260 -165 C -270.608594 -165 -280.782812 -160.785547 -288.284375 -153.284375 C -295.785547 -145.782813 -300 -135.608594 -300 -125 L -300 125 C -300 135.608594 -295.785547 145.782813 -288.284375 153.284375 C -280.782812 160.785547 -270.608594 165 -260 165 L 260 165 C 270.608594 165 280.782812 160.785547 288.284375 153.284375 C 295.785547 145.782813 300 135.608594 300 125 L 300 -125 C 300 -135.608594 295.785547 -145.782813 288.284375 -153.284375 C 280.782812 -160.785547 270.608594 -165 260 -165 L -260 -165 " transform="matrix(10,0,0,-10,3000,1650)"/>
<path style=" stroke:none;fill-rule:evenodd;fill:rgb(16.470588%,16.078431%,16.470588%);fill-opacity:1;" d="M 400 3200 C 234.316406 3200 100 3065.683594 100 2900 L 100 400 C 100 234.316406 234.316406 100 400 100 L 5600 100 C 5765.683594 100 5900 234.316406 5900 400 L 5900 2900 C 5900 3065.683594 5765.683594 3200 5600 3200 L 400 3200 M 400 3050 C 317.15625 3050 250 2982.84375 250 2900 L 250 400 C 250 317.15625 317.15625 250 400 250 L 5600 250 C 5682.84375 250 5750 317.15625 5750 400 L 5750 2900 C 5750 2982.84375 5682.84375 3050 5600 3050 L 400 3050 "/>
<path style=" stroke:none;fill-rule:evenodd;fill:rgb(16.470588%,16.078431%,16.470588%);fill-opacity:1;" d="M 2220 2430 C 2220 2286.40625 2103.59375 2170 1960 2170 C 1816.40625 2170 1700 2286.40625 1700 2430 C 1700 2573.59375 1816.40625 2690 1960 2690 C 2103.59375 2690 2220 2573.59375 2220 2430 M 4105 2430 C 4105 2286.40625 3988.59375 2170 3845 2170 C 3701.40625 2170 3585 2286.40625 3585 2430 C 3585 2573.59375 3701.40625 2690 3845 2690 C 3988.59375 2690 4105 2573.59375 4105 2430 M 4690 2300 L 4300 2430 L 4170 2430 C 4170 2250.507812 4024.492188 2105 3845 2105 C 3665.507812 2105 3520 2250.507812 3520 2430 L 2285 2430 C 2285 2250.507812 2139.492188 2105 1960 2105 C 1780.507812 2105 1635 2250.507812 1635 2430 L 1375 2430 C 1339.101562 2430 1310 2400.898438 1310 2365 L 1310 1994.398438 C 1310 1967.128906 1327.019531 1942.757812 1352.625 1933.371094 L 1661.101562 1820.261719 C 1686.40625 1810.984375 1708.203125 1794.070312 1723.472656 1771.859375 L 1962.914062 1423.582031 C 1977.683594 1402.09375 2000.449219 1387.421875 2026.117188 1382.835938 L 2350 1325 L 2350 1260 L 1480.386719 1260 C 1454.527344 1260 1429.726562 1249.726562 1411.441406 1231.441406 L 1329.039062 1149.035156 C 1316.847656 1136.847656 1310 1120.3125 1310 1103.074219 L 1310 1026.925781 C 1310 1009.6875 1316.847656 993.152344 1329.039062 980.964844 L 1675.4375 756.375 C 1691.453125 745.699219 1710.269531 740 1729.519531 740 L 3520 740 L 3780 870 L 4625 870 C 4660.898438 870 4690 899.101562 4690 935 L 4690 2300 M 2837.5 2300 C 2819.550781 2300 2805 2285.449219 2805 2267.5 L 2805 1292.5 C 2805 1274.550781 2819.550781 1260 2837.5 1260 L 3357.5 1260 C 3375.449219 1260 3390 1274.550781 3390 1292.5 L 3390 2267.5 C 3390 2285.449219 3375.449219 2300 3357.5 2300 L 2837.5 2300 M 3682.5 1650 C 3664.550781 1650 3650 1635.449219 3650 1617.5 L 3650 1292.5 C 3650 1274.550781 3664.550781 1260 3682.5 1260 L 4137.5 1260 C 4155.449219 1260 4170 1274.550781 4170 1292.5 L 4170 1617.5 C 4170 1635.449219 4155.449219 1650 4137.5 1650 L 3682.5 1650 M 1862.5 1130 C 1844.550781 1130 1830 1115.449219 1830 1097.5 L 1830 902.5 C 1830 884.550781 1844.550781 870 1862.5 870 L 2317.5 870 C 2335.449219 870 2350 884.550781 2350 902.5 L 2350 1097.5 C 2350 1115.449219 2335.449219 1130 2317.5 1130 L 1862.5 1130 M 2317.5 1442 C 2335.449219 1442 2350 1456.550781 2350 1474.5 L 2350 1774.910156 C 2350 1792.300781 2336.3125 1806.609375 2318.941406 1807.378906 L 1816.234375 1829.722656 C 1815.851562 1829.738281 1815.464844 1829.746094 1815.082031 1829.746094 C 1800.722656 1829.746094 1789.082031 1818.105469 1789.082031 1803.746094 C 1789.082031 1798.613281 1790.601562 1793.597656 1793.449219 1789.324219 L 2005.703125 1470.945312 C 2017.761719 1452.863281 2038.054688 1442 2059.789062 1442 L 2317.5 1442 "/>
</g>
</svg>
