<?xml version="1.0" encoding="UTF-8"?>
<svg xmlns="http://www.w3.org/2000/svg" xmlns:xlink="http://www.w3.org/1999/xlink" width="600.000000mm" height="330.000000mm" viewBox="0 0 6000 3300" version="1.1">
<g id="surface2306">
<path style="fill-rule:evenodd;fill:rgb(94.509804%,94.117647%,91.764706%);fill-opacity:1;stroke-width:0.3;stroke-linecap:butt;stroke-linejoin:miter;stroke:rgb(16.470588%,16.078431%,16.470588%);stroke-opacity:1;stroke-miterlimit:3;" d="M -260 -165 C -270.608594 -165 -280.782812 -160.785547 -288.284375 -153.284375 C -295.785547 -145.782813 -300 -135.608594 -300 -125 L -300 125 C -300 135.608594 -295.785547 145.782813 -288.284375 153.284375 C -280.782812 160.785547 -270.608594 165 -260 165 L 260 165 C 270.608594 165 280.782812 160.785547 288.284375 153.284375 C 295.785547 145.782813 300 135.608594 300 125 L 300 -125 C 300 -135.608594 295.785547 -145.782813 288.284375 -153.284375 C 280.782812 -160.785547 270.608594 -165 260 -165 L -260 -165 " transform="matrix(10,0,0,-10,3000,1650)"/>
<path style=" stroke:none;fill-rule:evenodd;fill:rgb(16.470588%,16.078431%,16.470588%);fill-opacity:1;" d="M 400 3200 C 234.316406 3200 100 3065.683594 100 2900 L 100 400 C 100 234.316406 234.316406 100 400 100 L 5600 100 C 5765.683594 100 5900 234.316406 5900 400 L 5900 2900 C 5900 3065.683594 5765.683594 3200 5600 3200 L 400 3200 M 400 3050 C 317.15625 3050 250 2982.84375 250 2900 L 250 400 C 250 317.15625 317.15625 250 400 250 L 5600 250 C 5682.84375 250 5750 317.15625 5750 400 L 5750 2900 C 5750 2982.84375 5682.84375 3050 5600 3050 L 400 3050 "/>
<path style=" stroke:none;fill-rule:evenodd;fill:rgb(16.470588%,16.078431%,16.470588%);fill-opacity:1;" d="M 5500 1650 L 4780 930 L 4330 930 L 4870 1470 L 3000 1470 L 3000 1830 L 4870 1830 L 4330 2370 L 4780 2370 L 5500 1650 "/>
<path style=" stroke:none;fill-rule:evenodd;fill:rgb(16.470588%,16.078431%,16.470588%);fill-opacity:1;" d="M 1025 2200 L 1175 2200 L 1175 2725 C 1175 2766.421875 1141.421875 2800 1100 2800 C 1058.578125 2800 1025 2766.421875 1025 2725 L 1025 2200 M 1225 2200 L 1375 2200 L 1375 2875 C 1375 2916.421875 1341.421875 2950 1300 2950 C 1258.578125 2950 1225 2916.421875 1225 2875 L 1225 2200 M 700.007812 2150 C 728.730469 1958.515625 811.828125 1779.304688 939.421875 1633.664062 L 939.414062 1633.65625 C 881.839844 1569.449219 850 1486.242188 850 1400 L 850 1200 C 850 1006.699219 1006.699219 850 1200 850 C 1330.515625 850 1450.1875 922.621094 1510.453125 1038.386719 L 1718.238281 1437.542969 C 1729.375 1458.933594 1735.1875 1482.691406 1735.1875 1506.804688 C 1735.1875 1546.324219 1719.59375 1584.246094 1691.792969 1612.332031 L 1898.167969 1785.605469 C 1947.703125 1827.199219 2010.316406 1850 2075 1850 C 2100.566406 1850 2126.007812 1846.433594 2150.585938 1839.40625 L 2187.515625 1828.851562 C 2196.453125 1826.296875 2205.703125 1825 2215 1825 C 2244.898438 1825 2273.230469 1838.378906 2292.226562 1861.46875 L 2571.53125 2200.972656 C 2589.9375 2223.347656 2600 2251.417969 2600 2280.386719 C 2600 2317.007812 2583.941406 2351.785156 2556.070312 2375.535156 L 2300 2075 L 2375 2450 L 2279.148438 2464.195312 L 2336.730469 2827.722656 C 2337.242188 2830.957031 2337.5 2834.226562 2337.5 2837.5 C 2337.5 2872.019531 2309.519531 2900 2275 2900 C 2245.082031 2900 2219.355469 2878.796875 2213.648438 2849.425781 L 2142.691406 2484.410156 L 2061.71875 2496.40625 L 2024.730469 2893.300781 C 2021.734375 2925.429688 1994.769531 2950 1962.5 2950 C 1927.980469 2950 1900 2922.019531 1900 2887.5 C 1900 2886.289062 1900.035156 2885.082031 1900.105469 2883.875 L 1950 2025 L 1594.03125 1688.3125 C 1578.875 1667.109375 1570.726562 1641.699219 1570.726562 1615.632812 C 1570.726562 1586.234375 1581.089844 1557.773438 1599.996094 1535.253906 L 1378.304688 1109.386719 C 1375.722656 1104.425781 1370.59375 1101.3125 1365 1101.3125 C 1356.714844 1101.3125 1350 1108.03125 1350 1116.3125 L 1350 1500 C 1350 1513.398438 1355.378906 1526.234375 1364.925781 1535.632812 L 1409.320312 1579.339844 C 1565.480469 1733.042969 1667.488281 1933.3125 1699.992188 2150 L 700 2150 M 1000 1570.15625 L 1035.074219 1535.632812 C 1044.621094 1526.234375 1050 1513.398438 1050 1500 L 1050 1125 C 1050 1111.191406 1038.808594 1100 1025 1100 C 1011.191406 1100 1000 1111.191406 1000 1125 L 1000 1570.15625 M 1400 550 C 1400 439.542969 1310.457031 350 1200 350 C 1089.542969 350 1000 439.542969 1000 550 C 1000 660.457031 1089.542969 750 1200 750 C 1310.457031 750 1400 660.457031 1400 550 M 2250 1575 C 2250 1478.351562 2171.648438 1400 2075 1400 C 1978.351562 1400 1900 1478.351562 1900 1575 C 1900 1671.648438 1978.351562 1750 2075 1750 C 2171.648438 1750 2250 1671.648438 2250 1575 "/>
</g>
</svg>
