<?xml version="1.0" encoding="UTF-8"?>
<svg xmlns="http://www.w3.org/2000/svg" xmlns:xlink="http://www.w3.org/1999/xlink" width="600.000000mm" height="330.000000mm" viewBox="0 0 6000 3300" version="1.1">
<g id="surface2301">
<path style="fill-rule:evenodd;fill:rgb(94.509804%,94.117647%,91.764706%);fill-opacity:1;stroke-width:0.3;stroke-linecap:butt;stroke-linejoin:miter;stroke:rgb(16.470588%,16.078431%,16.470588%);stroke-opacity:1;stroke-miterlimit:3;" d="M -260 -165 C -270.608594 -165 -280.782812 -160.785547 -288.284375 -153.284375 C -295.785547 -145.782813 -300 -135.608594 -300 -125 L -300 125 C -300 135.608594 -295.785547 145.782813 -288.284375 153.284375 C -280.782812 160.785547 -270.608594 165 -260 165 L 260 165 C 270.608594 165 280.782812 160.785547 288.284375 153.284375 C 295.785547 145.782813 300 135.608594 300 125 L 300 -125 C 300 -135.608594 295.785547 -145.782813 288.284375 -153.284375 C 280.782812 -160.785547 270.608594 -165 260 -165 L -260 -165 " transform="matrix(10,0,0,-10,3000,1650)"/>
<path style=" stroke:none;fill-rule:evenodd;fill:rgb(16.470588%,16.078431%,16.470588%);fill-opacity:1;" d="M 400 3200 C 234.316406 3200 100 3065.683594 100 2900 L 100 400 C 100 234.316406 234.316406 100 400 100 L 5600 100 C 5765.683594 100 5900 234.316406 5900 400 L 5900 2900 C 5900 3065.683594 5765.683594 3200 5600 3200 L 400 3200 M 400 3050 C 317.15625 3050 250 2982.84375 250 2900 L 250 400 C 250 317.15625 317.15625 250 400 250 L 5600 250 C 5682.84375 250 5750 317.15625 5750 400 L 5750 2900 C 5750 2982.84375 5682.84375 3050 5600 3050 L 400 3050 "/>
<path style=" stroke:none;fill-rule:evenodd;fill:rgb(16.470588%,16.078431%,16.470588%);fill-opacity:1;" d="M 500 1650 L 1220 930 L 1670 930 L 1130 1470 L 3000 1470 L 3000 1830 L 1130 1830 L 1670 2370 L 1220 2370 L 500 1650 "/>
<path style=" stroke:none;fill-rule:evenodd;fill:rgb(16.470588%,16.078431%,16.470588%);fill-opacity:1;" d="M 3825 2200 L 3975 2200 L 3975 2725 C 3975 2766.421875 3941.421875 2800 3900 2800 C 3858.578125 2800 3825 2766.421875 3825 2725 L 3825 2200 M 4025 2200 L 4175 2200 L 4175 2875 C 4175 2916.421875 4141.421875 2950 4100 2950 C 4058.578125 2950 4025 2916.421875 4025 2875 L 4025 2200 M 3500.007812 2150 C 3528.730469 1958.515625 3611.828125 1779.304688 3739.421875 1633.664062 L 3739.414062 1633.65625 C 3681.839844 1569.449219 3650 1486.242188 3650 1400 L 3650 1200 C 3650 1006.699219 3806.699219 850 4000 850 C 4130.515625 850 4250.1875 922.621094 4310.453125 1038.386719 L 4518.238281 1437.542969 C 4529.375 1458.933594 4535.1875 1482.691406 4535.1875 1506.804688 C 4535.1875 1546.324219 4519.59375 1584.246094 4491.792969 1612.332031 L 4698.167969 1785.605469 C 4747.703125 1827.199219 4810.316406 1850 4875 1850 C 4900.566406 1850 4926.007812 1846.433594 4950.585938 1839.40625 L 4987.515625 1828.851562 C 4996.453125 1826.296875 5005.703125 1825 5015 1825 C 5044.898438 1825 5073.230469 1838.378906 5092.226562 1861.46875 L 5371.53125 2200.972656 C 5389.9375 2223.347656 5400 2251.417969 5400 2280.386719 C 5400 2317.007812 5383.941406 2351.785156 5356.070312 2375.535156 L 5100 2075 L 5175 2450 L 5079.148438 2464.195312 L 5136.730469 2827.722656 C 5137.242188 2830.957031 5137.5 2834.226562 5137.5 2837.5 C 5137.5 2872.019531 5109.519531 2900 5075 2900 C 5045.082031 2900 5019.355469 2878.796875 5013.648438 2849.425781 L 4942.691406 2484.410156 L 4861.71875 2496.40625 L 4824.730469 2893.300781 C 4821.734375 2925.429688 4794.769531 2950 4762.5 2950 C 4727.980469 2950 4700 2922.019531 4700 2887.5 C 4700 2886.289062 4700.035156 2885.082031 4700.105469 2883.875 L 4750 2025 L 4394.03125 1688.3125 C 4378.875 1667.109375 4370.726562 1641.699219 4370.726562 1615.632812 C 4370.726562 1586.234375 4381.089844 1557.773438 4399.996094 1535.253906 L 4178.304688 1109.386719 C 4175.722656 1104.425781 4170.59375 1101.3125 4165 1101.3125 C 4156.714844 1101.3125 4150 1108.03125 4150 1116.3125 L 4150 1500 C 4150 1513.398438 4155.378906 1526.234375 4164.925781 1535.632812 L 4209.320312 1579.339844 C 4365.480469 1733.042969 4467.488281 1933.3125 4499.992188 2150 L 3500 2150 M 3800 1570.15625 L 3835.074219 1535.632812 C 3844.621094 1526.234375 3850 1513.398438 3850 1500 L 3850 1125 C 3850 1111.191406 3838.808594 1100 3825 1100 C 3811.191406 1100 3800 1111.191406 3800 1125 L 3800 1570.15625 M 4200 550 C 4200 439.542969 4110.457031 350 4000 350 C 3889.542969 350 3800 439.542969 3800 550 C 3800 660.457031 3889.542969 750 4000 750 C 4110.457031 750 4200 660.457031 4200 550 M 5050 1575 C 5050 1478.351562 4971.648438 1400 4875 1400 C 4778.351562 1400 4700 1478.351562 4700 1575 C 4700 1671.648438 4778.351562 1750 4875 1750 C 4971.648438 1750 5050 1671.648438 5050 1575 "/>
</g>
</svg>
