<?xml version="1.0" encoding="UTF-8"?>
<svg xmlns="http://www.w3.org/2000/svg" xmlns:xlink="http://www.w3.org/1999/xlink" width="600.000000mm" height="330.000000mm" viewBox="0 0 6000 3300" version="1.1">
<g id="surface2311">
<path style="fill-rule:evenodd;fill:rgb(94.509804%,94.117647%,91.764706%);fill-opacity:1;stroke-width:0.3;stroke-linecap:butt;stroke-linejoin:miter;stroke:rgb(16.470588%,16.078431%,16.470588%);stroke-opacity:1;stroke-miterlimit:3;" d="M -260 -165 C -270.608594 -165 -280.782812 -160.785547 -288.284375 -153.284375 C -295.785547 -145.782813 -300 -135.608594 -300 -125 L -300 125 C -300 135.608594 -295.785547 145.782813 -288.284375 153.284375 C -280.782812 160.785547 -270.608594 165 -260 165 L 260 165 C 270.608594 165 280.782812 160.785547 288.284375 153.284375 C 295.785547 145.782813 300 135.608594 300 125 L 300 -125 C 300 -135.608594 295.785547 -145.782813 288.284375 -153.284375 C 280.782812 -160.785547 270.608594 -165 260 -165 L -260 -165 " transform="matrix(10,0,0,-10,3000,1650)"/>
<path style=" stroke:none;fill-rule:evenodd;fill:rgb(16.470588%,16.078431%,16.470588%);fill-opacity:1;" d="M 400 3200 C 234.316406 3200 100 3065.683594 100 2900 L 100 400 C 100 234.316406 234.316406 100 400 100 L 5600 100 C 5765.683594 100 5900 234.316406 5900 400 L 5900 2900 C 5900 3065.683594 5765.683594 3200 5600 3200 L 400 3200 M 400 3050 C 317.15625 3050 250 2982.84375 250 2900 L 250 400 C 250 317.15625 317.15625 250 400 250 L 5600 250 C 5682.84375 250 5750 317.15625 5750 400 L 5750 2900 C 5750 2982.84375 5682.84375 3050 5600 3050 L 400 3050 "/>
<path style=" stroke:none;fill-rule:evenodd;fill:rgb(16.470588%,16.078431%,16.470588%);fill-opacity:1;" d="M 500 1650 L 1100 1050 L 1475 1050 L 1025 1500 L 2000 1500 L 2000 1800 L 1025 1800 L 1475 2250 L 1100 2250 L 500 1650 "/>
<path style=" stroke:none;fill-rule:evenodd;fill:rgb(16.470588%,16.078431%,16.470588%);fill-opacity:1;" d="M 5500 1650 L 4900 1050 L 4525 1050 L 4975 1500 L 4000 1500 L 4000 1800 L 4975 1800 L 4525 2250 L 4900 2250 L 5500 1650 "/>
<path style=" stroke:none;fill-rule:evenodd;fill:rgb(16.470588%,16.078431%,16.470588%);fill-opacity:1;" d="M 2500 2090 L 2620 2090 L 2620 2510 C 2620 2543.136719 2593.136719 2570 2560 2570 C 2526.863281 2570 2500 2543.136719 2500 2510 L 2500 2090 M 2660 2090 L 2780 2090 L 2780 2630 C 2780 2663.136719 2753.136719 2690 2720 2690 C 2686.863281 2690 2660 2663.136719 2660 2630 L 2660 2090 M 2240.007812 2050 C 2262.984375 1896.8125 2329.460938 1753.441406 2431.539062 1636.929688 L 2431.53125 1636.925781 C 2385.472656 1585.558594 2360 1518.992188 2360 1450 L 2360 1290 C 2360 1135.359375 2485.359375 1010 2640 1010 C 2744.414062 1010 2840.152344 1068.09375 2888.363281 1160.710938 L 3054.589844 1480.035156 C 3063.5 1497.148438 3068.148438 1516.152344 3068.148438 1535.445312 C 3068.148438 1567.058594 3055.675781 1597.394531 3033.433594 1619.863281 L 3198.535156 1758.484375 C 3238.164062 1791.761719 3288.253906 1810 3340 1810 C 3360.453125 1810 3380.804688 1807.148438 3400.46875 1801.527344 L 3430.011719 1793.082031 C 3437.160156 1791.035156 3444.5625 1790 3452 1790 C 3475.917969 1790 3498.582031 1800.703125 3513.78125 1819.175781 L 3737.226562 2090.777344 C 3751.949219 2108.675781 3760 2131.132812 3760 2154.308594 C 3760 2183.605469 3747.152344 2211.425781 3724.855469 2230.425781 L 3520 1990 L 3580 2290 L 3503.316406 2301.355469 L 3549.382812 2592.179688 C 3549.792969 2594.765625 3550 2597.378906 3550 2600 C 3550 2627.613281 3527.613281 2650 3500 2650 C 3476.0625 2650 3455.484375 2633.035156 3450.917969 2609.539062 L 3394.152344 2317.527344 L 3329.375 2327.125 L 3299.785156 2644.640625 C 3297.386719 2670.34375 3275.816406 2690 3250 2690 C 3222.386719 2690 3200 2667.613281 3200 2640 C 3200 2639.03125 3200.027344 2638.066406 3200.085938 2637.101562 L 3240 1950 L 2955.222656 1680.652344 C 2943.097656 1663.6875 2936.582031 1643.359375 2936.582031 1622.507812 C 2936.582031 1598.984375 2944.871094 1576.21875 2959.996094 1558.203125 L 2782.644531 1217.511719 C 2780.578125 1213.539062 2776.476562 1211.050781 2772 1211.050781 C 2765.371094 1211.050781 2760 1216.421875 2760 1223.050781 L 2760 1530 C 2760 1540.71875 2764.300781 1550.988281 2771.941406 1558.507812 L 2807.457031 1593.472656 C 2932.382812 1716.4375 3013.992188 1876.648438 3039.992188 2050 L 2240 2050 M 2480 1586.125 L 2508.058594 1558.507812 C 2515.699219 1550.988281 2520 1540.71875 2520 1530 L 2520 1230 C 2520 1218.953125 2511.046875 1210 2500 1210 C 2488.953125 1210 2480 1218.953125 2480 1230 L 2480 1586.125 M 2800 770 C 2800 681.632812 2728.367188 610 2640 610 C 2551.632812 610 2480 681.632812 2480 770 C 2480 858.367188 2551.632812 930 2640 930 C 2728.367188 930 2800 858.367188 2800 770 M 3480 1590 C 3480 1512.679688 3417.320312 1450 3340 1450 C 3262.679688 1450 3200 1512.679688 3200 1590 C 3200 1667.320312 3262.679688 1730 3340 1730 C 3417.320312 1730 3480 1667.320312 3480 1590 "/>
</g>
</svg>
