<?xml version="1.0" encoding="UTF-8"?>
<svg xmlns="http://www.w3.org/2000/svg" xmlns:xlink="http://www.w3.org/1999/xlink" width="600.000000mm" height="450.000000mm" viewBox="0 0 6000 4500" version="1.1">
<g id="surface2751">
<path style="fill-rule:evenodd;fill:rgb(94.509804%,94.117647%,91.764706%);fill-opacity:1;stroke-width:0.3;stroke-linecap:butt;stroke-linejoin:miter;stroke:rgb(16.470588%,16.078431%,16.470588%);stroke-opacity:1;stroke-miterlimit:3;" d="M -260 -225 C -270.608594 -225 -280.782812 -220.785547 -288.284375 -213.284375 C -295.785547 -205.782813 -300 -195.608594 -300 -185 L -300 185 C -300 195.608594 -295.785547 205.782813 -288.284375 213.284375 C -280.782812 220.785547 -270.608594 225 -260 225 L 260 225 C 270.608594 225 280.782812 220.785547 288.284375 213.284375 C 295.785547 205.782813 300 195.608594 300 185 L 300 -185 C 300 -195.608594 295.785547 -205.782813 288.284375 -213.284375 C 280.782812 -220.785547 270.608594 -225 260 -225 L -260 -225 " transform="matrix(10,0,0,-10,3000,2250)"/>
<path style=" stroke:none;fill-rule:evenodd;fill:rgb(16.470588%,16.078431%,16.470588%);fill-opacity:1;" d="M 400 4400 C 234.316406 4400 100 4265.683594 100 4100 L 100 400 C 100 234.316406 234.316406 100 400 100 L 5600 100 C 5765.683594 100 5900 234.316406 5900 400 L 5900 4100 C 5900 4265.683594 5765.683594 4400 5600 4400 L 400 4400 M 400 4250 C 317.15625 4250 250 4182.84375 250 4100 L 250 400 C 250 317.15625 317.15625 250 400 250 L 5600 250 C 5682.84375 250 5750 317.15625 5750 400 L 5750 4100 C 5750 4182.84375 5682.84375 4250 5600 4250 L 400 4250 "/>
<path style=" stroke:none;fill-rule:evenodd;fill:rgb(16.470588%,16.078431%,16.470588%);fill-opacity:1;" d="M 5040 1100 L 5040 1220 L 4960 1220 L 5231.554688 1763.105469 C 5237.109375 1774.214844 5240 1786.464844 5240 1798.882812 L 5240 2060 C 5240 2148.367188 5168.367188 2220 5080 2220 L 920 2220 C 831.632812 2220 760 2148.367188 760 2060 L 760 1798.882812 C 760 1786.464844 762.890625 1774.214844 768.445312 1763.105469 L 1040 1220 L 960 1220 L 960 1100 L 1680 1100 L 1720 1060 L 2048 1060 L 1604 764 L 2120 420 L 2636 764 L 2192 1060 L 2520 1060 L 2560 1100 L 5040 1100 M 4720 1220 L 4888.449219 1220 L 5067.144531 1577.390625 C 5076.863281 1596.828125 5081.921875 1618.265625 5081.921875 1640 C 5081.921875 1717.320312 5019.242188 1780 4941.921875 1780 L 4720 1780 L 4720 1220 M 4560 1220 C 4604.183594 1220 4640 1255.816406 4640 1300 L 4640 2060 C 4640 2104.183594 4604.183594 2140 4560 2140 L 4240 2140 C 4195.816406 2140 4160 2104.183594 4160 2060 L 4160 1300 C 4160 1255.816406 4195.816406 1220 4240 1220 L 4560 1220 M 4000 1220 C 4044.183594 1220 4080 1255.816406 4080 1300 L 4080 1700 C 4080 1744.183594 4044.183594 1780 4000 1780 L 3440 1780 C 3395.816406 1780 3360 1744.183594 3360 1700 L 3360 1300 C 3360 1255.816406 3395.816406 1220 3440 1220 L 4000 1220 M 3200 1220 C 3244.183594 1220 3280 1255.816406 3280 1300 L 3280 1700 C 3280 1744.183594 3244.183594 1780 3200 1780 L 2640 1780 C 2595.816406 1780 2560 1744.183594 2560 1700 L 2560 1300 C 2560 1255.816406 2595.816406 1220 2640 1220 L 3200 1220 M 2400 1220 C 2444.183594 1220 2480 1255.816406 2480 1300 L 2480 1700 C 2480 1744.183594 2444.183594 1780 2400 1780 L 1840 1780 C 1795.816406 1780 1760 1744.183594 1760 1700 L 1760 1300 C 1760 1255.816406 1795.816406 1220 1840 1220 L 2400 1220 M 1600 1220 C 1644.183594 1220 1680 1255.816406 1680 1300 L 1680 2060 C 1680 2104.183594 1644.183594 2140 1600 2140 L 1440 2140 C 1395.816406 2140 1360 2104.183594 1360 2060 L 1360 1300 C 1360 1255.816406 1395.816406 1220 1440 1220 L 1600 1220 M 1280 1220 L 1280 1780 L 1058.078125 1780 C 980.761719 1780 918.078125 1717.320312 918.078125 1640 C 918.078125 1618.265625 923.140625 1596.828125 932.859375 1577.390625 L 1111.554688 1220 L 1280 1220 M 1560 2300 C 1560 2410.457031 1470.457031 2500 1360 2500 C 1249.542969 2500 1160 2410.457031 1160 2300 L 1560 2300 M 1920 2300 C 1920 2341.507812 1929.230469 2382.496094 1947.019531 2420 L 1612.980469 2420 C 1630.769531 2382.496094 1640 2341.507812 1640 2300 L 1920 2300 M 2400 2300 C 2400 2410.457031 2310.457031 2500 2200 2500 C 2089.542969 2500 2000 2410.457031 2000 2300 L 2400 2300 M 4000 2300 C 4000 2410.457031 3910.457031 2500 3800 2500 C 3689.542969 2500 3600 2410.457031 3600 2300 L 4000 2300 M 4360 2300 C 4360 2341.507812 4369.230469 2382.496094 4387.019531 2420 L 4052.980469 2420 C 4070.769531 2382.496094 4080 2341.507812 4080 2300 L 4360 2300 M 4840 2300 C 4840 2410.457031 4750.457031 2500 4640 2500 C 4529.542969 2500 4440 2410.457031 4440 2300 L 4840 2300 M 2120 1060 L 1676 764 L 2120 468 L 2564 764 L 2120 1060 "/>
<path style=" stroke:none;fill-rule:evenodd;fill:rgb(16.470588%,16.078431%,16.470588%);fill-opacity:1;" d="M 1700 3060 L 2060 2700 L 2285 2700 L 2015 2970 L 4100 2970 L 4100 3150 L 2015 3150 L 2285 3420 L 2060 3420 L 1700 3060 "/>
<path style=" stroke:none;fill-rule:evenodd;fill:rgb(16.470588%,16.078431%,16.470588%);fill-opacity:1;" d="M 4300 3690 L 3940 4050 L 3715 4050 L 3985 3780 L 1900 3780 L 1900 3600 L 3985 3600 L 3715 3330 L 3940 3330 L 4300 3690 "/>
</g>
</svg>
