<?xml version="1.0" encoding="UTF-8"?>
<svg xmlns="http://www.w3.org/2000/svg" xmlns:xlink="http://www.w3.org/1999/xlink" width="600.000000mm" height="450.000000mm" viewBox="0 0 6000 4500" version="1.1">
<g id="surface2756">
<path style="fill-rule:evenodd;fill:rgb(94.509804%,94.117647%,91.764706%);fill-opacity:1;stroke-width:0.3;stroke-linecap:butt;stroke-linejoin:miter;stroke:rgb(16.470588%,16.078431%,16.470588%);stroke-opacity:1;stroke-miterlimit:3;" d="M -260 -225 C -270.608594 -225 -280.782812 -220.785547 -288.284375 -213.284375 C -295.785547 -205.782813 -300 -195.608594 -300 -185 L -300 185 C -300 195.608594 -295.785547 205.782813 -288.284375 213.284375 C -280.782812 220.785547 -270.608594 225 -260 225 L 260 225 C 270.608594 225 280.782812 220.785547 288.284375 213.284375 C 295.785547 205.782813 300 195.608594 300 185 L 300 -185 C 300 -195.608594 295.785547 -205.782813 288.284375 -213.284375 C 280.782812 -220.785547 270.608594 -225 260 -225 L -260 -225 " transform="matrix(10,0,0,-10,3000,2250)"/>
<path style=" stroke:none;fill-rule:evenodd;fill:rgb(16.470588%,16.078431%,16.470588%);fill-opacity:1;" d="M 400 4400 C 234.316406 4400 100 4265.683594 100 4100 L 100 400 C 100 234.316406 234.316406 100 400 100 L 5600 100 C 5765.683594 100 5900 234.316406 5900 400 L 5900 4100 C 5900 4265.683594 5765.683594 4400 5600 4400 L 400 4400 M 400 4250 C 317.15625 4250 250 4182.84375 250 4100 L 250 400 C 250 317.15625 317.15625 250 400 250 L 5600 250 C 5682.84375 250 5750 317.15625 5750 400 L 5750 4100 C 5750 4182.84375 5682.84375 4250 5600 4250 L 400 4250 "/>
<path style=" stroke:none;fill-rule:evenodd;fill:rgb(16.470588%,16.078431%,16.470588%);fill-opacity:1;" d="M 2812.5 500 L 2607.050781 500 C 2497.457031 500 2400.640625 571.378906 2368.230469 676.066406 L 2186.699219 1262.464844 C 2145.816406 1254.175781 2104.210938 1250 2062.5 1250 C 1896.738281 1250 1737.769531 1315.847656 1620.558594 1433.058594 C 1503.347656 1550.269531 1437.5 1709.238281 1437.5 1875 C 1437.5 2040.761719 1503.347656 2199.730469 1620.558594 2316.941406 C 1737.769531 2434.152344 1896.738281 2500 2062.5 2500 C 2228.261719 2500 2387.230469 2434.152344 2504.441406 2316.941406 C 2621.652344 2199.730469 2687.5 2040.761719 2687.5 1875 C 2687.5 1752.203125 2651.328125 1632.128906 2583.5 1529.769531 C 2515.671875 1427.40625 2419.191406 1347.292969 2306.109375 1299.429688 L 2374.488281 1078.546875 L 2958.871094 1944.898438 C 2982.105469 1979.347656 3020.945312 2000 3062.5 2000 L 3325.128906 2000 C 3353.941406 2141.148438 3430.628906 2268.011719 3542.214844 2359.121094 C 3653.804688 2450.234375 3793.441406 2500 3937.5 2500 C 4103.261719 2500 4262.230469 2434.152344 4379.441406 2316.941406 C 4496.652344 2199.730469 4562.5 2040.761719 4562.5 1875 C 4562.5 1709.238281 4496.652344 1550.269531 4379.441406 1433.058594 C 4262.230469 1315.847656 4103.261719 1250 3937.5 1250 C 3871.714844 1250 3806.339844 1260.386719 3743.792969 1280.777344 L 3562.5 875 L 3609.375 750 L 3750 750 L 3750 625 L 3218.75 625 C 3201.492188 625 3187.5 638.992188 3187.5 656.25 C 3187.5 670.703125 3197.410156 683.269531 3211.46875 686.640625 L 3475.875 750 L 3429 875 L 2437.5 875 L 2487.640625 713.035156 C 2503.847656 660.6875 2552.253906 625 2607.050781 625 L 2812.5 625 L 2812.5 500 M 2470.796875 1000 L 3056.496094 1868.339844 L 3382.125 1000 L 2470.796875 1000 M 2149.5 1382.625 C 2120.777344 1377.550781 2091.667969 1375 2062.5 1375 C 1929.890625 1375 1802.714844 1427.679688 1708.945312 1521.445312 C 1615.179688 1615.214844 1562.5 1742.390625 1562.5 1875 C 1562.5 2007.609375 1615.179688 2134.785156 1708.945312 2228.554688 C 1802.714844 2322.320312 1929.890625 2375 2062.5 2375 C 2195.109375 2375 2322.285156 2322.320312 2416.054688 2228.554688 C 2509.820312 2134.785156 2562.5 2007.609375 2562.5 1875 C 2562.5 1778.90625 2534.808594 1684.84375 2482.742188 1604.078125 C 2430.671875 1523.3125 2356.433594 1459.261719 2268.910156 1419.59375 L 2122.203125 1893.484375 C 2114.101562 1919.65625 2089.898438 1937.5 2062.5 1937.5 C 2027.980469 1937.5 2000 1909.519531 2000 1875 C 2000 1868.734375 2000.941406 1862.503906 2002.796875 1856.515625 L 2149.5 1382.628906 M 3437.5 1875 L 3872.371094 1875 L 3680.695312 1445.988281 C 3529.84375 1536.289062 3437.5 1699.183594 3437.5 1875 M 3453.378906 2000 C 3481.089844 2107.328125 3543.679688 2202.40625 3631.3125 2270.285156 C 3718.945312 2338.164062 3826.652344 2375 3937.5 2375 C 4070.109375 2375 4197.285156 2322.320312 4291.054688 2228.554688 C 4384.820312 2134.785156 4437.5 2007.609375 4437.5 1875 C 4437.5 1742.390625 4384.820312 1615.214844 4291.054688 1521.445312 C 4197.285156 1427.679688 4070.109375 1375 3937.5 1375 C 3889.296875 1375 3841.34375 1381.96875 3795.136719 1395.695312 L 4025.8125 1912.003906 C 4029.398438 1920.027344 4031.25 1928.714844 4031.25 1937.5 C 4031.25 1972.019531 4003.269531 2000 3968.75 2000 L 3453.378906 2000 M 3187.5 1875 L 3312.5 1875 C 3312.5 1764.425781 3341.835938 1655.832031 3397.511719 1560.300781 C 3453.1875 1464.765625 3533.210938 1385.714844 3629.417969 1331.207031 L 3500.023438 1041.601562 L 3187.5 1875 "/>
<path style=" stroke:none;fill-rule:evenodd;fill:rgb(16.470588%,16.078431%,16.470588%);fill-opacity:1;" d="M 1700 3060 L 2060 2700 L 2285 2700 L 2015 2970 L 4100 2970 L 4100 3150 L 2015 3150 L 2285 3420 L 2060 3420 L 1700 3060 "/>
<path style=" stroke:none;fill-rule:evenodd;fill:rgb(16.470588%,16.078431%,16.470588%);fill-opacity:1;" d="M 4300 3690 L 3940 4050 L 3715 4050 L 3985 3780 L 1900 3780 L 1900 3600 L 3985 3600 L 3715 3330 L 3940 3330 L 4300 3690 "/>
</g>
</svg>
