<?xml version="1.0" encoding="UTF-8"?>
<svg xmlns="http://www.w3.org/2000/svg" xmlns:xlink="http://www.w3.org/1999/xlink" width="600.000000mm" height="330.000000mm" viewBox="0 0 6000 3300" version="1.1">
<g id="surface3126">
<path style="fill-rule:evenodd;fill:rgb(94.509804%,94.117647%,91.764706%);fill-opacity:1;stroke-width:0.3;stroke-linecap:butt;stroke-linejoin:miter;stroke:rgb(16.470588%,16.078431%,16.470588%);stroke-opacity:1;stroke-miterlimit:3;" d="M -260 -165 C -270.608594 -165 -280.782812 -160.785547 -288.284375 -153.284375 C -295.785547 -145.782813 -300 -135.608594 -300 -125 L -300 125 C -300 135.608594 -295.785547 145.782813 -288.284375 153.284375 C -280.782812 160.785547 -270.608594 165 -260 165 L 260 165 C 270.608594 165 280.782812 160.785547 288.284375 153.284375 C 295.785547 145.782813 300 135.608594 300 125 L 300 -125 C 300 -135.608594 295.785547 -145.782813 288.284375 -153.284375 C 280.782812 -160.785547 270.608594 -165 260 -165 L -260 -165 " transform="matrix(10,0,0,-10,3000,1650)"/>
<path style=" stroke:none;fill-rule:evenodd;fill:rgb(16.470588%,16.078431%,16.470588%);fill-opacity:1;" d="M 400 3200 C 234.316406 3200 100 3065.683594 100 2900 L 100 400 C 100 234.316406 234.316406 100 400 100 L 5600 100 C 5765.683594 100 5900 234.316406 5900 400 L 5900 2900 C 5900 3065.683594 5765.683594 3200 5600 3200 L 400 3200 M 400 3050 C 317.15625 3050 250 2982.84375 250 2900 L 250 400 C 250 317.15625 317.15625 250 400 250 L 5600 250 C 5682.84375 250 5750 317.15625 5750 400 L 5750 2900 C 5750 2982.84375 5682.84375 3050 5600 3050 L 400 3050 "/>
<path style=" stroke:none;fill-rule:evenodd;fill:rgb(16.470588%,16.078431%,16.470588%);fill-opacity:1;" d="M 750 2650 L 750 2450 L 5250 2450 L 5250 2650 L 750 2650 "/>
<path style=" stroke:none;fill-rule:evenodd;fill:rgb(94.509804%,94.117647%,91.764706%);fill-opacity:1;" d="M 3200 2600 L 3200 2500 L 5200 2500 L 5200 2600 L 3200 2600 "/>
<path style=" stroke:none;fill-rule:evenodd;fill:rgb(16.470588%,16.078431%,16.470588%);fill-opacity:1;" d="M 3150 1600 C 3150 1567.542969 3160.527344 1535.964844 3180 1510 L 3210 1470 C 3230.996094 1442.003906 3248.65625 1411.652344 3262.621094 1379.5625 L 3460.382812 925.121094 C 3480.234375 879.503906 3525.25 850 3575 850 L 4825 850 C 4874.75 850 4919.765625 879.503906 4939.617188 925.121094 L 5137.378906 1379.5625 C 5151.34375 1411.652344 5169.003906 1442.003906 5190 1470 L 5220 1510 C 5239.472656 1535.964844 5250 1567.542969 5250 1600 L 5250 1925 C 5250 1994.035156 5194.035156 2050 5125 2050 L 3275 2050 C 3205.964844 2050 3150 1994.035156 3150 1925 L 3150 1600 M 3387.5 1400 L 3559.371094 1005.046875 C 3567.3125 986.800781 3585.320312 975 3605.21875 975 L 4794.78125 975 C 4814.683594 975 4832.6875 986.800781 4840.628906 1005.046875 L 5012.5 1400 L 3387.5 1400 M 3275 2100 L 3575 2100 L 3575 2375 C 3575 2416.421875 3541.421875 2450 3500 2450 L 3350 2450 C 3308.578125 2450 3275 2416.421875 3275 2375 L 3275 2100 M 4825 2100 L 5125 2100 L 5125 2375 C 5125 2416.421875 5091.421875 2450 5050 2450 L 4900 2450 C 4858.578125 2450 4825 2416.421875 4825 2375 L 4825 2100 "/>
<path style=" stroke:none;fill-rule:evenodd;fill:rgb(94.509804%,94.117647%,91.764706%);fill-opacity:1;" d="M 4200 1800.109375 L 3095.867188 2437.582031 L 2965.867188 2212.414062 L 3940 1650 L 2965.867188 1087.585938 L 3095.867188 862.417969 L 4200 1499.890625 L 5304.132812 862.417969 L 5434.132812 1087.585938 L 4460 1650 L 5434.132812 2212.414062 L 5304.132812 2437.582031 L 4200 1800.109375 "/>
<path style=" stroke:none;fill-rule:evenodd;fill:rgb(16.470588%,16.078431%,16.470588%);fill-opacity:1;" d="M 4200 1753.921875 L 3075.867188 2402.941406 L 2985.867188 2247.058594 L 4020 1650 L 2985.867188 1052.941406 L 3075.867188 897.058594 L 4200 1546.078125 L 5324.132812 897.058594 L 5414.132812 1052.941406 L 4380 1650 L 5414.132812 2247.058594 L 5324.132812 2402.941406 L 4200 1753.921875 "/>
</g>
</svg>
