<?xml version="1.0" encoding="UTF-8"?>
<svg xmlns="http://www.w3.org/2000/svg" xmlns:xlink="http://www.w3.org/1999/xlink" width="600.000000mm" height="330.000000mm" viewBox="0 0 6000 3300" version="1.1">
<g id="surface3296">
<path style="fill-rule:evenodd;fill:rgb(94.509804%,94.117647%,91.764706%);fill-opacity:1;stroke-width:0.3;stroke-linecap:butt;stroke-linejoin:miter;stroke:rgb(16.470588%,16.078431%,16.470588%);stroke-opacity:1;stroke-miterlimit:3;" d="M -260 -165 C -270.608594 -165 -280.782812 -160.785547 -288.284375 -153.284375 C -295.785547 -145.782813 -300 -135.608594 -300 -125 L -300 125 C -300 135.608594 -295.785547 145.782813 -288.284375 153.284375 C -280.782812 160.785547 -270.608594 165 -260 165 L 260 165 C 270.608594 165 280.782812 160.785547 288.284375 153.284375 C 295.785547 145.782813 300 135.608594 300 125 L 300 -125 C 300 -135.608594 295.785547 -145.782813 288.284375 -153.284375 C 280.782812 -160.785547 270.608594 -165 260 -165 L -260 -165 " transform="matrix(10,0,0,-10,3000,1650)"/>
<path style=" stroke:none;fill-rule:evenodd;fill:rgb(16.470588%,16.078431%,16.470588%);fill-opacity:1;" d="M 400 3200 C 234.316406 3200 100 3065.683594 100 2900 L 100 400 C 100 234.316406 234.316406 100 400 100 L 5600 100 C 5765.683594 100 5900 234.316406 5900 400 L 5900 2900 C 5900 3065.683594 5765.683594 3200 5600 3200 L 400 3200 M 400 3050 C 317.15625 3050 250 2982.84375 250 2900 L 250 400 C 250 317.15625 317.15625 250 400 250 L 5600 250 C 5682.84375 250 5750 317.15625 5750 400 L 5750 2900 C 5750 2982.84375 5682.84375 3050 5600 3050 L 400 3050 "/>
<path style=" stroke:none;fill-rule:evenodd;fill:rgb(0%,35.686275%,54.901961%);fill-opacity:1;" d="M 2750 2650 L 2750 2550 L 2500 2550 L 2000 834.660156 C 2319.269531 712.585938 2658.191406 650 3000 650 C 3341.808594 650 3680.730469 712.585938 4000 834.660156 L 3500 2550 L 3250 2550 L 3250 2650 L 2750 2650 M 2154.984375 919.6875 C 2427.425781 828.703125 2712.769531 782.316406 3000 782.316406 C 3287.230469 782.316406 3572.574219 828.703125 3845.015625 919.6875 L 3719.074219 1351.746094 C 3487.628906 1272.429688 3244.65625 1231.949219 3000 1231.949219 C 2755.34375 1231.949219 2512.371094 1272.429688 2280.925781 1351.746094 L 2154.984375 919.6875 "/>
<path style=" stroke:none;fill-rule:evenodd;fill:rgb(0%,35.686275%,54.901961%);fill-opacity:1;" d="M 2925 850 L 3075 850 L 3070 1125 L 2925 1125 L 2925 850 "/>
<path style=" stroke:none;fill-rule:evenodd;fill:rgb(0%,35.686275%,54.901961%);fill-opacity:1;" d="M 3422.480469 883.460938 L 3569.726562 912.078125 L 3517.253906 1182.027344 L 3370.007812 1153.40625 L 3422.480469 883.460938 "/>
<path style=" stroke:none;fill-rule:evenodd;fill:rgb(0%,35.686275%,54.901961%);fill-opacity:1;" d="M 2577.519531 883.460938 L 2430.273438 912.078125 L 2482.746094 1182.027344 L 2629.992188 1153.40625 L 2577.519531 883.460938 "/>
</g>
</svg>
