<?xml version="1.0" encoding="UTF-8"?>
<svg xmlns="http://www.w3.org/2000/svg" xmlns:xlink="http://www.w3.org/1999/xlink" width="815.391000mm" height="815.391000mm" viewBox="0 0 8153.91 8153.91" version="1.1">
<g id="surface11">
<path style="fill-rule:evenodd;fill:rgb(94.509804%,94.117647%,91.764706%);fill-opacity:1;stroke-width:0.3;stroke-linecap:butt;stroke-linejoin:miter;stroke:rgb(16.470588%,16.078431%,16.470588%);stroke-opacity:1;stroke-miterlimit:3;" d="M 28.284187 -395.979891 C 20.782625 -403.481063 10.608797 -407.695516 -0.0001875 -407.695516 C -10.608781 -407.695516 -20.783 -403.481063 -28.284172 -395.979891 L -395.979875 -28.284187 C -403.481047 -20.782625 -407.6955 -10.608797 -407.6955 0.0001875 C -407.6955 10.608781 -403.481047 20.783 -395.979875 28.284172 L -28.284172 395.979875 C -20.783 403.481047 -10.608781 407.6955 -0.0001875 407.6955 C 10.608797 407.6955 20.782625 403.481047 28.284187 395.979875 L 395.979891 28.284172 C 403.481063 20.783 407.695516 10.608781 407.695516 0.0001875 C 407.695516 -10.608797 403.481063 -20.782625 395.979891 -28.284187 L 28.284187 -395.979891 " transform="matrix(10,0,0,-10,4076.955,4076.955)"/>
<path style=" stroke:none;fill-rule:evenodd;fill:rgb(16.470588%,16.078431%,16.470588%);fill-opacity:1;" d="M 4289.085938 7966.042969 C 4232.824219 8022.304688 4156.519531 8053.910156 4076.953125 8053.910156 C 3997.390625 8053.910156 3921.082031 8022.304688 3864.824219 7966.042969 L 187.867188 4289.085938 C 131.605469 4232.824219 100 4156.519531 100 4076.953125 C 100 3997.390625 131.605469 3921.082031 187.867188 3864.824219 L 3864.824219 187.867188 C 3921.082031 131.605469 3997.390625 100 4076.953125 100 C 4156.519531 100 4232.824219 131.605469 4289.085938 187.867188 L 7966.042969 3864.824219 C 8022.304688 3921.082031 8053.910156 3997.390625 8053.910156 4076.953125 C 8053.910156 4156.519531 8022.304688 4232.824219 7966.042969 4289.085938 L 4289.085938 7966.042969 "/>
<path style=" stroke:none;fill-rule:evenodd;fill:rgb(94.509804%,94.117647%,91.764706%);fill-opacity:1;" d="M 4183.019531 7859.976562 C 4154.890625 7888.105469 4116.738281 7903.910156 4076.953125 7903.910156 C 4037.171875 7903.910156 3999.019531 7888.105469 3970.890625 7859.976562 L 293.933594 4183.019531 C 265.804688 4154.890625 250 4116.738281 250 4076.953125 C 250 4037.171875 265.804688 3999.019531 293.933594 3970.890625 L 3970.890625 293.933594 C 3999.019531 265.804688 4037.171875 250 4076.953125 250 C 4116.738281 250 4154.890625 265.804688 4183.019531 293.933594 L 7859.976562 3970.890625 C 7888.105469 3999.019531 7903.910156 4037.171875 7903.910156 4076.953125 C 7903.910156 4116.738281 7888.105469 4154.890625 7859.976562 4183.019531 L 4183.019531 7859.976562 "/>
<path style=" stroke:none;fill-rule:evenodd;fill:rgb(16.470588%,16.078431%,16.470588%);fill-opacity:1;" d="M 4076.953125 6452.835938 L 1701.074219 4076.953125 L 4076.953125 1701.074219 L 6452.835938 4076.953125 L 4076.953125 6452.835938 "/>
<path style=" stroke:none;fill-rule:evenodd;fill:rgb(96.862745%,70.980392%,0%);fill-opacity:1;" d="M 4076.953125 6339.695312 L 1814.214844 4076.953125 L 4076.953125 1814.214844 L 6339.695312 4076.953125 L 4076.953125 6339.695312 "/>
</g>
</svg>
