<?xml version="1.0" encoding="UTF-8"?>
<svg xmlns="http://www.w3.org/2000/svg" xmlns:xlink="http://www.w3.org/1999/xlink" width="600.000000mm" height="600.000000mm" viewBox="0 0 6000 6000" version="1.1">
<g id="surface36">
<path style="fill-rule:evenodd;fill:rgb(94.509804%,94.117647%,91.764706%);fill-opacity:1;stroke-width:0.3;stroke-linecap:butt;stroke-linejoin:miter;stroke:rgb(16.470588%,16.078431%,16.470588%);stroke-opacity:1;stroke-miterlimit:3;" d="M -260 -300 C -270.608594 -300 -280.782812 -295.785547 -288.284375 -288.284375 C -295.785547 -280.782812 -300 -270.608594 -300 -260 L -300 260 C -300 270.608594 -295.785547 280.782812 -288.284375 288.284375 C -280.782812 295.785547 -270.608594 300 -260 300 L 260 300 C 270.608594 300 280.782812 295.785547 288.284375 288.284375 C 295.785547 280.782812 300 270.608594 300 260 L 300 -260 C 300 -270.608594 295.785547 -280.782812 288.284375 -288.284375 C 280.782812 -295.785547 270.608594 -300 260 -300 L -260 -300 " transform="matrix(10,0,0,-10,3000,3000)"/>
<path style=" stroke:none;fill-rule:evenodd;fill:rgb(0%,35.686275%,54.901961%);fill-opacity:1;" d="M 400 5850 C 261.929688 5850 150 5738.070312 150 5600 L 150 400 C 150 261.929688 261.929688 150 400 150 L 5600 150 C 5738.070312 150 5850 261.929688 5850 400 L 5850 5600 C 5850 5738.070312 5738.070312 5850 5600 5850 L 400 5850 "/>
<path style=" stroke:none;fill-rule:evenodd;fill:rgb(94.509804%,94.117647%,91.764706%);fill-opacity:1;" d="M 900 2900 C 900 2835.089844 921.054688 2771.929688 960 2720 L 1020 2640 C 1061.996094 2584.003906 1097.316406 2523.304688 1125.246094 2459.125 L 1520.765625 1550.242188 C 1560.46875 1459.007812 1650.5 1400 1750 1400 L 4250 1400 C 4349.5 1400 4439.53125 1459.007812 4479.234375 1550.242188 L 4874.753906 2459.125 C 4902.683594 2523.304688 4938.003906 2584.003906 4980 2640 L 5040 2720 C 5078.945312 2771.929688 5100 2835.089844 5100 2900 L 5100 3550 C 5100 3688.070312 4988.070312 3800 4850 3800 L 1150 3800 C 1011.929688 3800 900 3688.070312 900 3550 L 900 2900 M 1375 2500 L 1718.746094 1710.097656 C 1734.628906 1673.601562 1770.640625 1650 1810.441406 1650 L 4189.5625 1650 C 4229.363281 1650 4265.375 1673.601562 4281.257812 1710.097656 L 4625 2500 L 1375 2500 M 1750 3050 C 1750 2884.316406 1615.683594 2750 1450 2750 C 1284.316406 2750 1150 2884.316406 1150 3050 C 1150 3215.683594 1284.316406 3350 1450 3350 C 1615.683594 3350 1750 3215.683594 1750 3050 M 4850 3050 C 4850 2884.316406 4715.683594 2750 4550 2750 C 4384.316406 2750 4250 2884.316406 4250 3050 C 4250 3215.683594 4384.316406 3350 4550 3350 C 4715.683594 3350 4850 3215.683594 4850 3050 M 1150 3900 L 1750 3900 L 1750 4450 C 1750 4532.84375 1682.84375 4600 1600 4600 L 1300 4600 C 1217.15625 4600 1150 4532.84375 1150 4450 L 1150 3900 M 4250 3900 L 4850 3900 L 4850 4450 C 4850 4532.84375 4782.84375 4600 4700 4600 L 4400 4600 C 4317.15625 4600 4250 4532.84375 4250 4450 L 4250 3900 "/>
</g>
</svg>
