<?xml version="1.0" encoding="UTF-8"?>
<svg xmlns="http://www.w3.org/2000/svg" xmlns:xlink="http://www.w3.org/1999/xlink" width="800.000000mm" height="300.000000mm" viewBox="0 0 8000 3000" version="1.1">
<g id="surface321">
<path style="fill-rule:evenodd;fill:rgb(94.509804%,94.117647%,91.764706%);fill-opacity:1;stroke-width:0.3;stroke-linecap:butt;stroke-linejoin:miter;stroke:rgb(16.470588%,16.078431%,16.470588%);stroke-opacity:1;stroke-miterlimit:3;" d="M -360 -150 C -370.608594 -150 -380.782812 -145.785547 -388.284375 -138.284375 C -395.785547 -130.782813 -400 -120.608594 -400 -110 L -400 110 C -400 120.608594 -395.785547 130.782813 -388.284375 138.284375 C -380.782812 145.785547 -370.608594 150 -360 150 L 360 150 C 370.608594 150 380.782813 145.785547 388.284375 138.284375 C 395.785547 130.782813 400 120.608594 400 110 L 400 -110 C 400 -120.608594 395.785547 -130.782813 388.284375 -138.284375 C 380.782813 -145.785547 370.608594 -150 360 -150 L -360 -150 " transform="matrix(10,0,0,-10,4000,1500)"/>
<path style=" stroke:none;fill-rule:evenodd;fill:rgb(0%,35.686275%,54.901961%);fill-opacity:1;" d="M 400 2850 C 261.929688 2850 150 2738.070312 150 2600 L 150 400 C 150 261.929688 261.929688 150 400 150 L 7600 150 C 7738.070312 150 7850 261.929688 7850 400 L 7850 2600 C 7850 2738.070312 7738.070312 2850 7600 2850 L 400 2850 "/>
<path style=" stroke:none;fill-rule:evenodd;fill:rgb(94.509804%,94.117647%,91.764706%);fill-opacity:1;" d="M 7500 1500 L 5624.863281 420.015625 C 5602.09375 406.902344 5576.277344 400 5550 400 C 5467.15625 400 5400 467.15625 5400 550 C 5400 563.832031 5401.914062 577.601562 5405.6875 590.910156 L 5550 1100 L 500 1100 L 500 1900 L 5550 1900 L 5405.6875 2409.089844 C 5401.914062 2422.398438 5400 2436.167969 5400 2450 C 5400 2532.84375 5467.15625 2600 5550 2600 C 5576.277344 2600 5602.09375 2593.097656 5624.863281 2579.984375 L 7500 1500 "/>
</g>
</svg>
