<?xml version="1.0" encoding="UTF-8"?>
<svg xmlns="http://www.w3.org/2000/svg" xmlns:xlink="http://www.w3.org/1999/xlink" width="600.000000mm" height="600.000000mm" viewBox="0 0 6000 6000" version="1.1">
<g id="surface331">
<path style="fill-rule:evenodd;fill:rgb(94.509804%,94.117647%,91.764706%);fill-opacity:1;stroke-width:0.3;stroke-linecap:butt;stroke-linejoin:miter;stroke:rgb(16.470588%,16.078431%,16.470588%);stroke-opacity:1;stroke-miterlimit:3;" d="M -260 -300 C -270.608594 -300 -280.782812 -295.785547 -288.284375 -288.284375 C -295.785547 -280.782812 -300 -270.608594 -300 -260 L -300 260 C -300 270.608594 -295.785547 280.782812 -288.284375 288.284375 C -280.782812 295.785547 -270.608594 300 -260 300 L 260 300 C 270.608594 300 280.782812 295.785547 288.284375 288.284375 C 295.785547 280.782812 300 270.608594 300 260 L 300 -260 C 300 -270.608594 295.785547 -280.782812 288.284375 -288.284375 C 280.782812 -295.785547 270.608594 -300 260 -300 L -260 -300 " transform="matrix(10,0,0,-10,3000,3000)"/>
<path style=" stroke:none;fill-rule:evenodd;fill:rgb(0%,35.686275%,54.901961%);fill-opacity:1;" d="M 400 5850 C 261.929688 5850 150 5738.070312 150 5600 L 150 400 C 150 261.929688 261.929688 150 400 150 L 5600 150 C 5738.070312 150 5850 261.929688 5850 400 L 5850 5600 C 5850 5738.070312 5738.070312 5850 5600 5850 L 400 5850 "/>
<path style=" stroke:none;fill-rule:evenodd;fill:rgb(94.509804%,94.117647%,91.764706%);fill-opacity:1;" d="M 790 4487.5 L 790 3892.5 L 1300 3892.5 L 1300 4487.5 L 790 4487.5 M 790 3807.5 L 1300 3807.5 L 1300 3510 C 1300 3412.839844 1308.328125 3315.859375 1324.898438 3220.121094 L 822.367188 3133.15625 C 800.828125 3257.617188 790 3383.691406 790 3510 L 790 3807.5 M 1341.472656 3136.78125 C 1384.214844 2946.851562 1459.261719 2765.675781 1563.339844 2601.152344 L 1132.339844 2328.496094 C 997.039062 2542.375 899.480469 2777.90625 843.917969 3024.8125 M 1610.546875 2530.5 C 1722.71875 2371.382812 1861.382812 2232.71875 2020.5 2120.546875 L 1726.648438 1703.710938 C 1519.796875 1849.53125 1339.53125 2029.796875 1193.710938 2236.648438 M 2091.152344 2073.339844 C 2255.675781 1969.261719 2436.851562 1894.214844 2626.78125 1851.472656 L 2514.8125 1353.917969 C 2267.90625 1409.480469 2032.375 1507.039062 1818.496094 1642.339844 M 2710.121094 1834.898438 C 2805.859375 1818.328125 2902.839844 1810 3000 1810 C 3097.160156 1810 3194.140625 1818.328125 3289.878906 1834.898438 L 3376.84375 1332.367188 C 3252.382812 1310.828125 3126.308594 1300 3000 1300 C 2873.691406 1300 2747.617188 1310.828125 2623.15625 1332.367188 M 3373.21875 1851.472656 C 3563.148438 1894.214844 3744.324219 1969.261719 3908.847656 2073.339844 L 4181.503906 1642.339844 C 3967.625 1507.039062 3732.09375 1409.480469 3485.1875 1353.917969 M 3979.5 2120.546875 C 4138.617188 2232.71875 4277.28125 2371.382812 4389.453125 2530.5 L 4806.289062 2236.648438 C 4660.46875 2029.796875 4480.203125 1849.53125 4273.351562 1703.710938 M 4436.660156 2601.152344 C 4540.738281 2765.675781 4615.785156 2946.851562 4658.527344 3136.78125 L 5156.082031 3024.8125 C 5100.519531 2777.90625 5002.960938 2542.375 4867.660156 2328.496094 M 5210 3807.5 L 5210 3510 C 5210 3383.691406 5199.171875 3257.617188 5177.632812 3133.15625 L 4675.101562 3220.121094 C 4691.671875 3315.859375 4700 3412.839844 4700 3510 L 4700 3807.5 L 5210 3807.5 M 5210 4487.5 L 5210 3892.5 L 4700 3892.5 L 4700 4487.5 L 5210 4487.5 M 790 4572.5 L 5210 4572.5 L 5210 4700 L 790 4700 L 790 4572.5 "/>
</g>
</svg>
