<?xml version="1.0" encoding="UTF-8"?>
<svg xmlns="http://www.w3.org/2000/svg" xmlns:xlink="http://www.w3.org/1999/xlink" width="750.000000mm" height="750.000000mm" viewBox="0 0 7500 7500" version="1.1">
<g id="surface371">
<path style="fill-rule:evenodd;fill:rgb(94.509804%,94.117647%,91.764706%);fill-opacity:1;stroke-width:0.3;stroke-linecap:butt;stroke-linejoin:miter;stroke:rgb(16.470588%,16.078431%,16.470588%);stroke-opacity:1;stroke-miterlimit:3;" d="M -325 -375 C -338.260938 -375 -350.978516 -369.732031 -360.355469 -360.355469 C -369.732031 -350.978516 -375 -338.260938 -375 -325 L -375 325 C -375 338.260938 -369.732031 350.978516 -360.355469 360.355469 C -350.978516 369.732031 -338.260938 375 -325 375 L 325 375 C 338.260938 375 350.978516 369.732031 360.355469 360.355469 C 369.732031 350.978516 375 338.260938 375 325 L 375 -325 C 375 -338.260938 369.732031 -350.978516 360.355469 -360.355469 C 350.978516 -369.732031 338.260938 -375 325 -375 L -325 -375 " transform="matrix(10,0,0,-10,3750,3750)"/>
<path style=" stroke:none;fill-rule:evenodd;fill:rgb(0%,35.686275%,54.901961%);fill-opacity:1;" d="M 500 7350 C 306.699219 7350 150 7193.300781 150 7000 L 150 500 C 150 306.699219 306.699219 150 500 150 L 7000 150 C 7193.300781 150 7350 306.699219 7350 500 L 7350 7000 C 7350 7193.300781 7193.300781 7350 7000 7350 L 500 7350 "/>
<path style=" stroke:none;fill-rule:evenodd;fill:rgb(94.509804%,94.117647%,91.764706%);fill-opacity:1;" d="M 550 6450 L 3750 907.4375 L 6950 6450 L 550 6450 "/>
<path style=" stroke:none;fill-rule:evenodd;fill:rgb(16.470588%,16.078431%,16.470588%);fill-opacity:1;" d="M 1200 6150 L 1837.5 5050 L 2332.5 5050 L 1860 6150 L 1200 6150 M 2310 6150 L 2670 5050 L 2872.785156 5050 L 2576.453125 5595.777344 L 2646.757812 5633.949219 C 2702.414062 5664.171875 2764.746094 5680 2828.078125 5680 C 2915.714844 5680 3000.65625 5649.710938 3068.519531 5594.257812 L 2970 6150 L 2310 6150 M 3420 6150 L 3502.5 5050 L 3997.5 5050 L 4080 6150 L 3420 6150 M 4530 6150 L 4398.617188 5408.859375 L 4561.296875 5708.476562 L 4631.601562 5670.304688 C 4691.703125 5637.671875 4741.886719 5589.421875 4776.855469 5530.644531 C 4811.824219 5471.871094 4830.28125 5404.746094 4830.28125 5336.355469 C 4830.28125 5273.023438 4814.449219 5210.691406 4784.230469 5155.035156 L 4727.199219 5050 L 4830 5050 L 5190 6150 L 4530 6150 M 5640 6150 L 5167.5 5050 L 5662.5 5050 L 6300 6150 L 5640 6150 "/>
<path style=" stroke:none;fill-rule:evenodd;fill:rgb(16.470588%,16.078431%,16.470588%);fill-opacity:1;" d="M 3800 4138.691406 L 3091.722656 5443.148438 C 3039.238281 5539.808594 2938.070312 5600 2828.078125 5600 C 2778.078125 5600 2728.871094 5587.503906 2684.929688 5563.644531 L 3481.824219 4095.976562 C 3493.75 4074.007812 3500 4049.402344 3500 4024.402344 L 3500 3987.5 L 4100 3987.5 L 4100 4024.402344 C 4100 4049.402344 4106.25 4074.007812 4118.175781 4095.976562 L 4713.925781 5193.207031 C 4737.78125 5237.148438 4750.28125 5286.355469 4750.28125 5336.355469 C 4750.28125 5446.34375 4690.089844 5547.515625 4593.425781 5600 L 3800 4138.691406 M 4100 3042.371094 L 4100 3912.5 L 3500 3912.5 L 3500 3192.902344 L 3110.3125 3792.96875 C 3061.902344 3867.515625 2979.050781 3912.5 2890.164062 3912.5 C 2839.414062 3912.5 2789.753906 3897.789062 2747.195312 3870.152344 L 3485.5 2733.261719 C 3554.660156 2626.761719 3673.015625 2562.5 3800 2562.5 C 3888.164062 2562.5 3973.507812 2593.5625 4041.046875 2650.234375 L 4544.628906 3072.785156 C 4595.574219 3115.539062 4625 3178.636719 4625 3245.148438 L 4625 3612.5 C 4625 3757.476562 4507.476562 3875 4362.5 3875 L 4362.5 3262.636719 L 4100 3042.371094 M 3950 2150 C 3950 1984.316406 3815.683594 1850 3650 1850 C 3484.316406 1850 3350 1984.316406 3350 2150 C 3350 2315.683594 3484.316406 2450 3650 2450 C 3815.683594 2450 3950 2315.683594 3950 2150 "/>
</g>
</svg>
