<?xml version="1.0" encoding="UTF-8"?>
<svg xmlns="http://www.w3.org/2000/svg" xmlns:xlink="http://www.w3.org/1999/xlink" width="750.000000mm" height="750.000000mm" viewBox="0 0 7500 7500" version="1.1">
<g id="surface376">
<path style="fill-rule:evenodd;fill:rgb(94.509804%,94.117647%,91.764706%);fill-opacity:1;stroke-width:0.3;stroke-linecap:butt;stroke-linejoin:miter;stroke:rgb(16.470588%,16.078431%,16.470588%);stroke-opacity:1;stroke-miterlimit:3;" d="M -325 -375 C -338.260938 -375 -350.978516 -369.732031 -360.355469 -360.355469 C -369.732031 -350.978516 -375 -338.260938 -375 -325 L -375 325 C -375 338.260938 -369.732031 350.978516 -360.355469 360.355469 C -350.978516 369.732031 -338.260938 375 -325 375 L 325 375 C 338.260938 375 350.978516 369.732031 360.355469 360.355469 C 369.732031 350.978516 375 338.260938 375 325 L 375 -325 C 375 -338.260938 369.732031 -350.978516 360.355469 -360.355469 C 350.978516 -369.732031 338.260938 -375 325 -375 L -325 -375 " transform="matrix(10,0,0,-10,3750,3750)"/>
<path style=" stroke:none;fill-rule:evenodd;fill:rgb(0%,35.686275%,54.901961%);fill-opacity:1;" d="M 500 7350 C 306.699219 7350 150 7193.300781 150 7000 L 150 500 C 150 306.699219 306.699219 150 500 150 L 7000 150 C 7193.300781 150 7350 306.699219 7350 500 L 7350 7000 C 7350 7193.300781 7193.300781 7350 7000 7350 L 500 7350 "/>
<path style=" stroke:none;fill-rule:evenodd;fill:rgb(94.509804%,94.117647%,91.764706%);fill-opacity:1;" d="M 550 6450 L 3750 907.4375 L 6950 6450 L 550 6450 "/>
<path style=" stroke:none;fill-rule:evenodd;fill:rgb(16.470588%,16.078431%,16.470588%);fill-opacity:1;" d="M 1200 6150 L 1837.5 5050 L 2332.5 5050 L 1860 6150 L 1200 6150 M 2310 6150 L 2670 5050 L 2772.800781 5050 L 2715.769531 5155.035156 C 2685.550781 5210.691406 2669.71875 5273.023438 2669.71875 5336.355469 C 2669.71875 5404.746094 2688.175781 5471.871094 2723.144531 5530.644531 C 2758.113281 5589.421875 2808.296875 5637.671875 2868.398438 5670.304688 L 2938.703125 5708.476562 L 3101.382812 5408.859375 L 2970 6150 L 2310 6150 M 3420 6150 L 3502.5 5050 L 3997.5 5050 L 4080 6150 L 3420 6150 M 4530 6150 L 4431.480469 5594.257812 C 4499.34375 5649.710938 4584.285156 5680 4671.921875 5680 C 4735.253906 5680 4797.585938 5664.171875 4853.242188 5633.949219 L 4923.546875 5595.777344 L 4627.214844 5050 L 4830 5050 L 5190 6150 L 4530 6150 M 5640 6150 L 5167.5 5050 L 5662.5 5050 L 6300 6150 L 5640 6150 "/>
<path style=" stroke:none;fill-rule:evenodd;fill:rgb(16.470588%,16.078431%,16.470588%);fill-opacity:1;" d="M 3700 4138.691406 L 4408.277344 5443.148438 C 4460.761719 5539.808594 4561.929688 5600 4671.921875 5600 C 4721.921875 5600 4771.128906 5587.503906 4815.070312 5563.644531 L 4018.175781 4095.976562 C 4006.25 4074.007812 4000 4049.402344 4000 4024.402344 L 4000 3987.5 L 3400 3987.5 L 3400 4024.402344 C 3400 4049.402344 3393.75 4074.007812 3381.824219 4095.976562 L 2786.074219 5193.207031 C 2762.21875 5237.148438 2749.71875 5286.355469 2749.71875 5336.355469 C 2749.71875 5446.34375 2809.910156 5547.515625 2906.574219 5600 L 3700 4138.691406 M 3400 3042.371094 L 3400 3912.5 L 4000 3912.5 L 4000 3192.902344 L 4389.6875 3792.96875 C 4438.097656 3867.515625 4520.949219 3912.5 4609.835938 3912.5 C 4660.585938 3912.5 4710.246094 3897.789062 4752.804688 3870.152344 L 4014.5 2733.261719 C 3945.339844 2626.761719 3826.984375 2562.5 3700 2562.5 C 3611.835938 2562.5 3526.492188 2593.5625 3458.953125 2650.234375 L 2955.371094 3072.785156 C 2904.425781 3115.539062 2875 3178.636719 2875 3245.148438 L 2875 3612.5 C 2875 3757.476562 2992.523438 3875 3137.5 3875 L 3137.5 3262.636719 L 3400 3042.371094 M 3550 2150 C 3550 1984.316406 3684.316406 1850 3850 1850 C 4015.683594 1850 4150 1984.316406 4150 2150 C 4150 2315.683594 4015.683594 2450 3850 2450 C 3684.316406 2450 3550 2315.683594 3550 2150 "/>
</g>
</svg>
