<?xml version="1.0" encoding="UTF-8"?>
<svg xmlns="http://www.w3.org/2000/svg" xmlns:xlink="http://www.w3.org/1999/xlink" width="600.000000mm" height="600.000000mm" viewBox="0 0 6000 6000" version="1.1">
<g id="surface386">
<path style="fill-rule:evenodd;fill:rgb(94.509804%,94.117647%,91.764706%);fill-opacity:1;stroke-width:0.3;stroke-linecap:butt;stroke-linejoin:miter;stroke:rgb(16.470588%,16.078431%,16.470588%);stroke-opacity:1;stroke-miterlimit:3;" d="M -260 -300 C -270.608594 -300 -280.782812 -295.785547 -288.284375 -288.284375 C -295.785547 -280.782812 -300 -270.608594 -300 -260 L -300 260 C -300 270.608594 -295.785547 280.782812 -288.284375 288.284375 C -280.782812 295.785547 -270.608594 300 -260 300 L 260 300 C 270.608594 300 280.782812 295.785547 288.284375 288.284375 C 295.785547 280.782812 300 270.608594 300 260 L 300 -260 C 300 -270.608594 295.785547 -280.782812 288.284375 -288.284375 C 280.782812 -295.785547 270.608594 -300 260 -300 L -260 -300 " transform="matrix(10,0,0,-10,3000,3000)"/>
<path style=" stroke:none;fill-rule:evenodd;fill:rgb(0%,35.686275%,54.901961%);fill-opacity:1;" d="M 400 5850 C 261.929688 5850 150 5738.070312 150 5600 L 150 400 C 150 261.929688 261.929688 150 400 150 L 5600 150 C 5738.070312 150 5850 261.929688 5850 400 L 5850 5600 C 5850 5738.070312 5738.070312 5850 5600 5850 L 400 5850 "/>
<path style=" stroke:none;fill-rule:evenodd;fill:rgb(94.509804%,94.117647%,91.764706%);fill-opacity:1;" d="M 440 5160 L 3000 725.949219 L 5560 5160 L 440 5160 "/>
<path style=" stroke:none;fill-rule:evenodd;fill:rgb(16.470588%,16.078431%,16.470588%);fill-opacity:1;" d="M 960 4920 L 1099.089844 4680 L 1591.089844 4680 L 1488 4920 L 960 4920 M 1848 4920 L 1926.546875 4680 L 2418.546875 4680 L 2376 4920 L 1848 4920 M 2736 4920 L 2754 4680 L 3246 4680 L 3264 4920 L 2745 4920 M 3624 4920 L 3581.453125 4680 L 4073.453125 4680 L 4152 4920 L 3624 4920 M 4512 4920 L 4408.910156 4680 L 4900.910156 4680 L 5040 4920 L 4512 4920 "/>
<path style=" stroke:none;fill-rule:evenodd;fill:rgb(16.470588%,16.078431%,16.470588%);fill-opacity:1;" d="M 3180 2530 L 3377.230469 2530 C 3482.441406 2530 3575.382812 2598.523438 3606.496094 2699.027344 L 3780.769531 3261.964844 C 3820.015625 3254.007812 3859.957031 3250 3900 3250 C 4059.128906 3250 4211.742188 3313.214844 4324.265625 3425.734375 C 4436.785156 3538.257812 4500 3690.871094 4500 3850 C 4500 4009.128906 4436.785156 4161.742188 4324.265625 4274.265625 C 4211.742188 4386.785156 4059.128906 4450 3900 4450 C 3740.871094 4450 3588.257812 4386.785156 3475.734375 4274.265625 C 3363.214844 4161.742188 3300 4009.128906 3300 3850 C 3300 3732.117188 3334.726562 3616.84375 3399.839844 3518.578125 C 3464.957031 3420.308594 3557.578125 3343.402344 3666.136719 3297.453125 L 3600.492188 3085.40625 L 3039.484375 3917.101562 C 3017.175781 3950.175781 2979.890625 3970 2940 3970 L 2687.878906 3970 C 2660.21875 4105.503906 2586.597656 4227.292969 2479.472656 4314.757812 C 2372.347656 4402.226562 2238.296875 4450 2100 4450 C 1940.871094 4450 1788.257812 4386.785156 1675.734375 4274.265625 C 1563.214844 4161.742188 1500 4009.128906 1500 3850 C 1500 3690.871094 1563.214844 3538.257812 1675.734375 3425.734375 C 1788.257812 3313.214844 1940.871094 3250 2100 3250 C 2163.15625 3250 2225.914062 3259.972656 2285.957031 3279.542969 L 2460 2890 L 2415 2770 L 2280 2770 L 2280 2650 L 2790 2650 C 2806.570312 2650 2820 2663.429688 2820 2680 C 2820 2693.875 2810.484375 2705.941406 2796.992188 2709.175781 L 2543.160156 2770 L 2588.160156 2890 L 3540 2890 L 3491.863281 2734.511719 C 3476.308594 2684.261719 3429.835938 2650 3377.230469 2650 L 3180 2650 L 3180 2530 M 3508.035156 3010 L 2945.761719 3843.605469 L 2633.160156 3010 L 3508.035156 3010 M 3816.480469 3377.320312 C 3844.054688 3372.449219 3872 3370 3900 3370 C 4027.304688 3370 4149.394531 3420.570312 4239.410156 3510.589844 C 4329.429688 3600.605469 4380 3722.695312 4380 3850 C 4380 3977.304688 4329.429688 4099.394531 4239.410156 4189.410156 C 4149.394531 4279.429688 4027.304688 4330 3900 4330 C 3772.695312 4330 3650.605469 4279.429688 3560.589844 4189.410156 C 3470.570312 4099.394531 3420 3977.304688 3420 3850 C 3420 3757.75 3446.582031 3667.453125 3496.570312 3589.917969 C 3546.554688 3512.382812 3617.824219 3450.890625 3701.847656 3412.808594 L 3842.683594 3867.742188 C 3850.460938 3892.871094 3873.699219 3910 3900 3910 C 3933.136719 3910 3960 3883.136719 3960 3850 C 3960 3843.984375 3959.09375 3838.003906 3957.316406 3832.257812 L 3816.480469 3377.320312 M 2580 3850 L 2162.523438 3850 L 2346.53125 3438.148438 C 2491.351562 3524.835938 2580 3681.214844 2580 3850 M 2564.757812 3970 C 2538.15625 4073.035156 2478.066406 4164.308594 2393.9375 4229.472656 C 2309.8125 4294.636719 2206.414062 4330 2100 4330 C 1972.695312 4330 1850.605469 4279.429688 1760.589844 4189.410156 C 1670.570312 4099.394531 1620 3977.304688 1620 3850 C 1620 3722.695312 1670.570312 3600.605469 1760.589844 3510.589844 C 1850.605469 3420.570312 1972.695312 3370 2100 3370 C 2146.277344 3370 2192.308594 3376.691406 2236.667969 3389.867188 L 2015.21875 3885.523438 C 2011.777344 3893.226562 2010 3901.566406 2010 3910 C 2010 3943.136719 2036.863281 3970 2070 3970 L 2564.757812 3970 M 2820 3850 L 2700 3850 C 2700 3743.851562 2671.839844 3639.597656 2618.390625 3547.886719 C 2564.941406 3456.175781 2488.117188 3380.285156 2395.761719 3327.960938 L 2519.976562 3049.9375 L 2820 3850 "/>
</g>
</svg>
