<?xml version="1.0" encoding="UTF-8"?>
<svg xmlns="http://www.w3.org/2000/svg" xmlns:xlink="http://www.w3.org/1999/xlink" width="600.000000mm" height="600.000000mm" viewBox="0 0 6000 6000" version="1.1">
<g id="surface381">
<path style="fill-rule:evenodd;fill:rgb(94.509804%,94.117647%,91.764706%);fill-opacity:1;stroke-width:0.3;stroke-linecap:butt;stroke-linejoin:miter;stroke:rgb(16.470588%,16.078431%,16.470588%);stroke-opacity:1;stroke-miterlimit:3;" d="M -260 -300 C -270.608594 -300 -280.782812 -295.785547 -288.284375 -288.284375 C -295.785547 -280.782812 -300 -270.608594 -300 -260 L -300 260 C -300 270.608594 -295.785547 280.782812 -288.284375 288.284375 C -280.782812 295.785547 -270.608594 300 -260 300 L 260 300 C 270.608594 300 280.782812 295.785547 288.284375 288.284375 C 295.785547 280.782812 300 270.608594 300 260 L 300 -260 C 300 -270.608594 295.785547 -280.782812 288.284375 -288.284375 C 280.782812 -295.785547 270.608594 -300 260 -300 L -260 -300 " transform="matrix(10,0,0,-10,3000,3000)"/>
<path style=" stroke:none;fill-rule:evenodd;fill:rgb(0%,35.686275%,54.901961%);fill-opacity:1;" d="M 400 5850 C 261.929688 5850 150 5738.070312 150 5600 L 150 400 C 150 261.929688 261.929688 150 400 150 L 5600 150 C 5738.070312 150 5850 261.929688 5850 400 L 5850 5600 C 5850 5738.070312 5738.070312 5850 5600 5850 L 400 5850 "/>
<path style=" stroke:none;fill-rule:evenodd;fill:rgb(94.509804%,94.117647%,91.764706%);fill-opacity:1;" d="M 440 5160 L 3000 725.949219 L 5560 5160 L 440 5160 "/>
<path style=" stroke:none;fill-rule:evenodd;fill:rgb(16.470588%,16.078431%,16.470588%);fill-opacity:1;" d="M 960 4920 L 1099.089844 4680 L 1591.089844 4680 L 1488 4920 L 960 4920 M 1848 4920 L 1926.546875 4680 L 2418.546875 4680 L 2376 4920 L 1848 4920 M 2736 4920 L 2754 4680 L 3246 4680 L 3264 4920 L 2745 4920 M 3624 4920 L 3581.453125 4680 L 4073.453125 4680 L 4152 4920 L 3624 4920 M 4512 4920 L 4408.910156 4680 L 4900.910156 4680 L 5040 4920 L 4512 4920 "/>
<path style=" stroke:none;fill-rule:evenodd;fill:rgb(16.470588%,16.078431%,16.470588%);fill-opacity:1;" d="M 2820 2530 L 2622.769531 2530 C 2517.558594 2530 2424.617188 2598.523438 2393.503906 2699.027344 L 2219.230469 3261.964844 C 2179.984375 3254.007812 2140.042969 3250 2100 3250 C 1940.871094 3250 1788.257812 3313.214844 1675.734375 3425.734375 C 1563.214844 3538.257812 1500 3690.871094 1500 3850 C 1500 4009.128906 1563.214844 4161.742188 1675.734375 4274.265625 C 1788.257812 4386.785156 1940.871094 4450 2100 4450 C 2259.128906 4450 2411.742188 4386.785156 2524.265625 4274.265625 C 2636.785156 4161.742188 2700 4009.128906 2700 3850 C 2700 3732.117188 2665.273438 3616.84375 2600.160156 3518.578125 C 2535.042969 3420.308594 2442.421875 3343.402344 2333.863281 3297.453125 L 2399.507812 3085.40625 L 2960.515625 3917.101562 C 2982.824219 3950.175781 3020.109375 3970 3060 3970 L 3312.121094 3970 C 3339.78125 4105.503906 3413.402344 4227.292969 3520.527344 4314.757812 C 3627.652344 4402.226562 3761.703125 4450 3900 4450 C 4059.128906 4450 4211.742188 4386.785156 4324.265625 4274.265625 C 4436.785156 4161.742188 4500 4009.128906 4500 3850 C 4500 3690.871094 4436.785156 3538.257812 4324.265625 3425.734375 C 4211.742188 3313.214844 4059.128906 3250 3900 3250 C 3836.84375 3250 3774.085938 3259.972656 3714.042969 3279.542969 L 3540 2890 L 3585 2770 L 3720 2770 L 3720 2650 L 3210 2650 C 3193.429688 2650 3180 2663.429688 3180 2680 C 3180 2693.875 3189.515625 2705.941406 3203.007812 2709.175781 L 3456.839844 2770 L 3411.839844 2890 L 2460 2890 L 2508.136719 2734.511719 C 2523.691406 2684.261719 2570.164062 2650 2622.769531 2650 L 2820 2650 L 2820 2530 M 2491.964844 3010 L 3054.238281 3843.605469 L 3366.839844 3010 L 2491.964844 3010 M 2183.519531 3377.320312 C 2155.945312 3372.449219 2128 3370 2100 3370 C 1972.695312 3370 1850.605469 3420.570312 1760.589844 3510.589844 C 1670.570312 3600.605469 1620 3722.695312 1620 3850 C 1620 3977.304688 1670.570312 4099.394531 1760.589844 4189.410156 C 1850.605469 4279.429688 1972.695312 4330 2100 4330 C 2227.304688 4330 2349.394531 4279.429688 2439.410156 4189.410156 C 2529.429688 4099.394531 2580 3977.304688 2580 3850 C 2580 3757.75 2553.417969 3667.453125 2503.429688 3589.917969 C 2453.445312 3512.382812 2382.175781 3450.890625 2298.152344 3412.808594 L 2157.316406 3867.742188 C 2149.539062 3892.871094 2126.300781 3910 2100 3910 C 2066.863281 3910 2040 3883.136719 2040 3850 C 2040 3843.984375 2040.90625 3838.003906 2042.683594 3832.257812 L 2183.519531 3377.320312 M 3420 3850 L 3837.476562 3850 L 3653.46875 3438.148438 C 3508.648438 3524.835938 3420 3681.214844 3420 3850 M 3435.242188 3970 C 3461.84375 4073.035156 3521.933594 4164.308594 3606.0625 4229.472656 C 3690.1875 4294.636719 3793.585938 4330 3900 4330 C 4027.304688 4330 4149.394531 4279.429688 4239.410156 4189.410156 C 4329.429688 4099.394531 4380 3977.304688 4380 3850 C 4380 3722.695312 4329.429688 3600.605469 4239.410156 3510.589844 C 4149.394531 3420.570312 4027.304688 3370 3900 3370 C 3853.722656 3370 3807.691406 3376.691406 3763.332031 3389.867188 L 3984.78125 3885.523438 C 3988.222656 3893.226562 3990 3901.566406 3990 3910 C 3990 3943.136719 3963.136719 3970 3930 3970 L 3435.242188 3970 M 3180 3850 L 3300 3850 C 3300 3743.851562 3328.160156 3639.597656 3381.609375 3547.886719 C 3435.058594 3456.175781 3511.882812 3380.285156 3604.238281 3327.960938 L 3480.023438 3049.9375 L 3180 3850 "/>
</g>
</svg>
