<?xml version="1.0" encoding="UTF-8"?>
<svg xmlns="http://www.w3.org/2000/svg" xmlns:xlink="http://www.w3.org/1999/xlink" width="600.000000mm" height="600.000000mm" viewBox="0 0 6000 6000" version="1.1">
<g id="surface391">
<path style="fill-rule:evenodd;fill:rgb(94.509804%,94.117647%,91.764706%);fill-opacity:1;stroke-width:0.3;stroke-linecap:butt;stroke-linejoin:miter;stroke:rgb(16.470588%,16.078431%,16.470588%);stroke-opacity:1;stroke-miterlimit:3;" d="M -260 -300 C -270.608594 -300 -280.782812 -295.785547 -288.284375 -288.284375 C -295.785547 -280.782812 -300 -270.608594 -300 -260 L -300 260 C -300 270.608594 -295.785547 280.782812 -288.284375 288.284375 C -280.782812 295.785547 -270.608594 300 -260 300 L 260 300 C 270.608594 300 280.782812 295.785547 288.284375 288.284375 C 295.785547 280.782812 300 270.608594 300 260 L 300 -260 C 300 -270.608594 295.785547 -280.782812 288.284375 -288.284375 C 280.782812 -295.785547 270.608594 -300 260 -300 L -260 -300 " transform="matrix(10,0,0,-10,3000,3000)"/>
<path style=" stroke:none;fill-rule:evenodd;fill:rgb(0%,35.686275%,54.901961%);fill-opacity:1;" d="M 400 5850 C 261.929688 5850 150 5738.070312 150 5600 L 150 400 C 150 261.929688 261.929688 150 400 150 L 5600 150 C 5738.070312 150 5850 261.929688 5850 400 L 5850 5600 C 5850 5738.070312 5738.070312 5850 5600 5850 L 400 5850 "/>
<path style=" stroke:none;fill-rule:evenodd;fill:rgb(94.509804%,94.117647%,91.764706%);fill-opacity:1;" d="M 1214.285156 5500 L 1214.285156 5142.855469 L 1928.570312 5142.855469 L 1928.570312 4607.144531 L 2642.855469 4607.144531 L 2642.855469 4071.429688 L 3357.144531 4071.429688 L 3357.144531 3535.714844 L 4071.429688 3535.714844 L 4071.429688 3000 L 4785.714844 3000 L 4785.714844 2464.285156 L 5500 2464.285156 L 5500 2642.855469 L 4964.285156 2642.855469 L 4964.285156 3178.570312 L 4250 3178.570312 L 4250 3714.285156 L 3535.714844 3714.285156 L 3535.714844 4250 L 2821.429688 4250 L 2821.429688 4785.714844 L 2107.144531 4785.714844 L 2107.144531 5321.429688 L 1392.855469 5321.429688 L 1392.855469 5500 L 1214.285156 5500 "/>
<path style=" stroke:none;fill-rule:evenodd;fill:rgb(94.509804%,94.117647%,91.764706%);fill-opacity:1;" d="M 2151.785156 2776.785156 L 2776.785156 2776.785156 L 2880.390625 3331.304688 L 3133.929688 3584.84375 C 3192.53125 3643.449219 3225.457031 3722.933594 3225.457031 3805.8125 C 3225.457031 3888.695312 3192.53125 3968.179688 3133.929688 4026.785156 L 2633.1875 3526.046875 C 2610.304688 3503.160156 2594.066406 3474.484375 2586.21875 3443.085938 L 2464.285156 2955.355469 L 2464.285156 4250 C 2464.285156 4422.589844 2324.375 4562.5 2151.785156 4562.5 L 2151.785156 2776.785156 M 2151.785156 2687.5 L 2151.785156 2332.371094 L 1939.933594 2462.738281 C 1897.71875 2488.71875 1849.121094 2502.472656 1799.550781 2502.472656 C 1706.535156 2502.472656 1620.179688 2454.21875 1571.429688 2375 L 2151.785156 2017.855469 L 2151.785156 1705.355469 C 2151.785156 1532.769531 2291.695312 1392.855469 2464.285156 1392.855469 C 2572.617188 1392.855469 2673.222656 1448.964844 2730.15625 1541.132812 L 3265.695312 2408.132812 C 3291.824219 2450.4375 3305.664062 2499.175781 3305.664062 2548.898438 C 3305.664062 2641.753906 3257.570312 2727.988281 3178.570312 2776.785156 L 2776.785156 2126.324219 L 2776.785156 2687.5 L 2151.785156 2687.5 M 2598.214844 991.070312 C 2598.214844 818.484375 2458.304688 678.570312 2285.714844 678.570312 C 2113.125 678.570312 1973.214844 818.484375 1973.214844 991.070312 C 1973.214844 1163.660156 2113.125 1303.570312 2285.714844 1303.570312 C 2458.304688 1303.570312 2598.214844 1163.660156 2598.214844 991.070312 "/>
</g>
</svg>
