<?xml version="1.0" encoding="UTF-8"?>
<svg xmlns="http://www.w3.org/2000/svg" xmlns:xlink="http://www.w3.org/1999/xlink" width="600.000000mm" height="600.000000mm" viewBox="0 0 6000 6000" version="1.1">
<g id="surface401">
<path style="fill-rule:evenodd;fill:rgb(94.509804%,94.117647%,91.764706%);fill-opacity:1;stroke-width:0.3;stroke-linecap:butt;stroke-linejoin:miter;stroke:rgb(16.470588%,16.078431%,16.470588%);stroke-opacity:1;stroke-miterlimit:3;" d="M -260 -300 C -270.608594 -300 -280.782812 -295.785547 -288.284375 -288.284375 C -295.785547 -280.782812 -300 -270.608594 -300 -260 L -300 260 C -300 270.608594 -295.785547 280.782812 -288.284375 288.284375 C -280.782812 295.785547 -270.608594 300 -260 300 L 260 300 C 270.608594 300 280.782812 295.785547 288.284375 288.284375 C 295.785547 280.782812 300 270.608594 300 260 L 300 -260 C 300 -270.608594 295.785547 -280.782812 288.284375 -288.284375 C 280.782812 -295.785547 270.608594 -300 260 -300 L -260 -300 " transform="matrix(10,0,0,-10,3000,3000)"/>
<path style=" stroke:none;fill-rule:evenodd;fill:rgb(0%,35.686275%,54.901961%);fill-opacity:1;" d="M 400 5850 C 261.929688 5850 150 5738.070312 150 5600 L 150 400 C 150 261.929688 261.929688 150 400 150 L 5600 150 C 5738.070312 150 5850 261.929688 5850 400 L 5850 5600 C 5850 5738.070312 5738.070312 5850 5600 5850 L 400 5850 "/>
<path style=" stroke:none;fill-rule:evenodd;fill:rgb(94.509804%,94.117647%,91.764706%);fill-opacity:1;" d="M 4785.714844 5500 L 4785.714844 5142.855469 L 4071.429688 5142.855469 L 4071.429688 4607.144531 L 3357.144531 4607.144531 L 3357.144531 4071.429688 L 2642.855469 4071.429688 L 2642.855469 3535.714844 L 1928.570312 3535.714844 L 1928.570312 3000 L 1214.285156 3000 L 1214.285156 2464.285156 L 500 2464.285156 L 500 2642.855469 L 1035.714844 2642.855469 L 1035.714844 3178.570312 L 1750 3178.570312 L 1750 3714.285156 L 2464.285156 3714.285156 L 2464.285156 4250 L 3178.570312 4250 L 3178.570312 4785.714844 L 3892.855469 4785.714844 L 3892.855469 5321.429688 L 4607.144531 5321.429688 L 4607.144531 5500 L 4785.714844 5500 "/>
<path style=" stroke:none;fill-rule:evenodd;fill:rgb(94.509804%,94.117647%,91.764706%);fill-opacity:1;" d="M 3848.214844 2776.785156 L 3848.214844 4250 C 3848.214844 4422.589844 3708.304688 4562.5 3535.714844 4562.5 L 3535.714844 2906.226562 L 3133.929688 3308.011719 L 3133.929688 3714.285156 C 3133.929688 3886.875 2994.015625 4026.785156 2821.429688 4026.785156 L 2821.429688 3252.539062 C 2821.429688 3205.179688 2840.242188 3159.757812 2873.730469 3126.269531 L 3223.214844 2776.785156 L 3848.214844 2776.785156 M 3848.214844 2687.5 L 3223.214844 2687.5 L 3223.214844 2029.945312 L 2875.40625 2565.527344 C 2826.003906 2641.597656 2741.464844 2687.5 2650.761719 2687.5 C 2598.976562 2687.5 2548.304688 2672.488281 2504.875 2644.285156 L 3198.746094 1575.816406 C 3272.847656 1461.710938 3399.660156 1392.855469 3535.714844 1392.855469 C 3630.175781 1392.855469 3721.617188 1426.140625 3793.976562 1486.855469 L 4304.191406 1918.890625 C 4354.738281 1961.300781 4383.929688 2023.902344 4383.929688 2089.882812 L 4383.929688 2375 C 4383.929688 2522.933594 4264.003906 2642.855469 4116.070312 2642.855469 L 4116.070312 2106.789062 L 3848.214844 1882.03125 L 3848.214844 2687.5 M 3848.214844 991.070312 C 3848.214844 818.484375 3708.304688 678.570312 3535.714844 678.570312 C 3363.125 678.570312 3223.214844 818.484375 3223.214844 991.070312 C 3223.214844 1163.660156 3363.125 1303.570312 3535.714844 1303.570312 C 3708.304688 1303.570312 3848.214844 1163.660156 3848.214844 991.070312 "/>
</g>
</svg>
