<?xml version="1.0" encoding="UTF-8"?>
<svg xmlns="http://www.w3.org/2000/svg" xmlns:xlink="http://www.w3.org/1999/xlink" width="600.000000mm" height="600.000000mm" viewBox="0 0 6000 6000" version="1.1">
<g id="surface396">
<path style="fill-rule:evenodd;fill:rgb(94.509804%,94.117647%,91.764706%);fill-opacity:1;stroke-width:0.3;stroke-linecap:butt;stroke-linejoin:miter;stroke:rgb(16.470588%,16.078431%,16.470588%);stroke-opacity:1;stroke-miterlimit:3;" d="M -260 -300 C -270.608594 -300 -280.782812 -295.785547 -288.284375 -288.284375 C -295.785547 -280.782812 -300 -270.608594 -300 -260 L -300 260 C -300 270.608594 -295.785547 280.782812 -288.284375 288.284375 C -280.782812 295.785547 -270.608594 300 -260 300 L 260 300 C 270.608594 300 280.782812 295.785547 288.284375 288.284375 C 295.785547 280.782812 300 270.608594 300 260 L 300 -260 C 300 -270.608594 295.785547 -280.782812 288.284375 -288.284375 C 280.782812 -295.785547 270.608594 -300 260 -300 L -260 -300 " transform="matrix(10,0,0,-10,3000,3000)"/>
<path style=" stroke:none;fill-rule:evenodd;fill:rgb(0%,35.686275%,54.901961%);fill-opacity:1;" d="M 400 5850 C 261.929688 5850 150 5738.070312 150 5600 L 150 400 C 150 261.929688 261.929688 150 400 150 L 5600 150 C 5738.070312 150 5850 261.929688 5850 400 L 5850 5600 C 5850 5738.070312 5738.070312 5850 5600 5850 L 400 5850 "/>
<path style=" stroke:none;fill-rule:evenodd;fill:rgb(94.509804%,94.117647%,91.764706%);fill-opacity:1;" d="M 600 5400 L 5400 3800 L 5400 5400 L 600 5400 "/>
<path style=" stroke:none;fill-rule:evenodd;fill:rgb(94.509804%,94.117647%,91.764706%);fill-opacity:1;" d="M 2121.652344 3322.78125 C 2128.105469 3573.019531 2232.046875 3810.839844 2411.316406 3985.550781 C 2590.589844 4160.257812 2831.011719 4258.03125 3081.332031 4258.03125 C 3335.941406 4258.03125 3580.121094 4156.890625 3760.15625 3976.855469 C 3940.191406 3796.820312 4041.332031 3552.640625 4041.332031 3298.03125 C 4041.332031 3046.433594 3942.558594 2804.886719 3766.265625 2625.375 C 3589.972656 2445.867188 3350.253906 2342.742188 3098.695312 2338.191406 L 3153.050781 2501.253906 C 3352.003906 2519.160156 3537.058594 2610.851562 3671.828125 2758.296875 C 3806.601562 2905.742188 3881.332031 3098.273438 3881.332031 3298.03125 C 3881.332031 3510.207031 3797.046875 3713.6875 3647.019531 3863.71875 C 3496.988281 4013.746094 3293.507812 4098.03125 3081.332031 4098.03125 C 2869.160156 4098.03125 2665.675781 4013.746094 2515.648438 3863.71875 C 2365.617188 3713.6875 2281.332031 3510.207031 2281.332031 3298.03125 C 2281.332031 3288.480469 2281.503906 3278.929688 2281.847656 3269.382812 L 2121.652344 3322.78125 M 2448.878906 2665.578125 L 1761.875 2894.578125 C 1631.207031 2938.136719 1543.070312 3060.417969 1543.070312 3198.15625 C 1543.070312 3209.859375 1543.710938 3221.550781 1544.992188 3233.183594 L 1712.960938 4758.527344 C 1875.15625 4740.667969 1997.9375 4603.625 1997.9375 4440.449219 C 1997.9375 4432.40625 1997.632812 4424.367188 1997.027344 4416.347656 L 1911.777344 3287.847656 C 1911.625 3285.84375 1911.550781 3283.832031 1911.550781 3281.820312 C 1911.550781 3247.386719 1933.582031 3216.816406 1966.25 3205.925781 L 2828.351562 2918.558594 C 2942.6875 2880.449219 3019.808594 2773.449219 3019.808594 2652.929688 C 3019.808594 2622.832031 3014.957031 2592.933594 3005.4375 2564.382812 L 2651.261719 1501.859375 C 2613.152344 1387.523438 2506.152344 1310.402344 2385.632812 1310.402344 C 2230.992188 1310.402344 2105.632812 1435.761719 2105.632812 1590.402344 C 2105.632812 1620.496094 2110.484375 1650.394531 2120 1678.945312 L 2284.4375 2172.261719 L 1791.125 2336.699219 C 1676.789062 2374.8125 1599.667969 2481.8125 1599.667969 2602.332031 C 1599.667969 2632.425781 1604.519531 2662.324219 1614.035156 2690.875 L 2372.980469 2437.894531 L 2448.878906 2665.578125 M 2423.578125 818.808594 C 2380.023438 688.136719 2257.738281 600 2120 600 C 1943.269531 600 1800 743.269531 1800 920 C 1800 1096.730469 1943.269531 1240 2120 1240 C 2296.730469 1240 2440 1096.730469 2440 920 C 2440 885.605469 2434.453125 851.4375 2423.578125 818.808594 "/>
</g>
</svg>
