<?xml version="1.0" encoding="UTF-8"?>
<svg xmlns="http://www.w3.org/2000/svg" xmlns:xlink="http://www.w3.org/1999/xlink" width="600.000000mm" height="600.000000mm" viewBox="0 0 6000 6000" version="1.1">
<g id="surface406">
<path style="fill-rule:evenodd;fill:rgb(94.509804%,94.117647%,91.764706%);fill-opacity:1;stroke-width:0.3;stroke-linecap:butt;stroke-linejoin:miter;stroke:rgb(16.470588%,16.078431%,16.470588%);stroke-opacity:1;stroke-miterlimit:3;" d="M -260 -300 C -270.608594 -300 -280.782812 -295.785547 -288.284375 -288.284375 C -295.785547 -280.782812 -300 -270.608594 -300 -260 L -300 260 C -300 270.608594 -295.785547 280.782812 -288.284375 288.284375 C -280.782812 295.785547 -270.608594 300 -260 300 L 260 300 C 270.608594 300 280.782812 295.785547 288.284375 288.284375 C 295.785547 280.782812 300 270.608594 300 260 L 300 -260 C 300 -270.608594 295.785547 -280.782812 288.284375 -288.284375 C 280.782812 -295.785547 270.608594 -300 260 -300 L -260 -300 " transform="matrix(10,0,0,-10,3000,3000)"/>
<path style=" stroke:none;fill-rule:evenodd;fill:rgb(0%,35.686275%,54.901961%);fill-opacity:1;" d="M 400 5850 C 261.929688 5850 150 5738.070312 150 5600 L 150 400 C 150 261.929688 261.929688 150 400 150 L 5600 150 C 5738.070312 150 5850 261.929688 5850 400 L 5850 5600 C 5850 5738.070312 5738.070312 5850 5600 5850 L 400 5850 "/>
<path style=" stroke:none;fill-rule:evenodd;fill:rgb(94.509804%,94.117647%,91.764706%);fill-opacity:1;" d="M 5400 5400 L 600 3800 L 600 5400 L 5400 5400 "/>
<path style=" stroke:none;fill-rule:evenodd;fill:rgb(94.509804%,94.117647%,91.764706%);fill-opacity:1;" d="M 2899.652344 2993.214844 C 2784.246094 3155.648438 2722.246094 3349.96875 2722.246094 3549.226562 C 2722.246094 3803.832031 2823.386719 4048.011719 3003.421875 4228.046875 C 3183.457031 4408.082031 3427.636719 4509.226562 3682.246094 4509.226562 C 3936.855469 4509.226562 4181.035156 4408.082031 4361.070312 4228.046875 C 4541.101562 4048.011719 4642.246094 3803.832031 4642.246094 3549.226562 C 4642.246094 3253.164062 4505.640625 2973.660156 4272.042969 2791.769531 L 4217.6875 2954.832031 C 4386.09375 3106.539062 4482.246094 3322.5625 4482.246094 3549.226562 C 4482.246094 3761.398438 4397.960938 3964.882812 4247.929688 4114.910156 C 4097.902344 4264.941406 3894.417969 4349.226562 3682.246094 4349.226562 C 3470.074219 4349.226562 3266.589844 4264.941406 3116.5625 4114.910156 C 2966.53125 3964.882812 2882.246094 3761.398438 2882.246094 3549.226562 C 2882.246094 3366.3125 2944.929688 3188.921875 3059.847656 3046.613281 L 2899.652344 2993.214844 M 3555.753906 2663.789062 L 2868.753906 2434.789062 C 2836.125 2423.910156 2801.957031 2418.367188 2767.5625 2418.367188 C 2654.402344 2418.367188 2549.660156 2478.128906 2492.082031 2575.542969 L 1711.253906 3896.601562 C 1760.566406 3925.746094 1816.796875 3941.121094 1874.078125 3941.121094 C 1983.332031 3941.121094 2085.03125 3885.382812 2143.8125 3793.292969 L 2752.710938 2839.34375 C 2767.40625 2816.320312 2792.832031 2802.386719 2820.144531 2802.386719 C 2828.746094 2802.386719 2837.285156 2803.773438 2845.445312 2806.492188 L 3707.542969 3093.859375 C 3736.09375 3103.375 3765.992188 3108.226562 3796.089844 3108.226562 C 3916.609375 3108.226562 4023.605469 3031.105469 4061.71875 2916.769531 L 4415.894531 1854.246094 C 4425.410156 1825.695312 4430.261719 1795.796875 4430.261719 1765.703125 C 4430.261719 1611.0625 4304.902344 1485.703125 4150.261719 1485.703125 C 4029.742188 1485.703125 3922.742188 1562.824219 3884.632812 1677.160156 L 3720.191406 2170.472656 L 3226.878906 2006.035156 C 3198.328125 1996.519531 3168.429688 1991.664062 3138.335938 1991.664062 C 3017.8125 1991.664062 2910.816406 2068.785156 2872.703125 2183.121094 L 3631.648438 2436.105469 L 3555.753906 2663.789062 M 4643.578125 1171.191406 C 4654.453125 1138.5625 4660 1104.394531 4660 1070 C 4660 893.269531 4516.730469 750 4340 750 C 4163.269531 750 4020 893.269531 4020 1070 C 4020 1246.730469 4163.269531 1390 4340 1390 C 4477.738281 1390 4600.023438 1301.863281 4643.578125 1171.191406 "/>
</g>
</svg>
