<?xml version="1.0" encoding="UTF-8"?>
<svg xmlns="http://www.w3.org/2000/svg" xmlns:xlink="http://www.w3.org/1999/xlink" width="600.000000mm" height="900.000000mm" viewBox="0 0 6000 9000" version="1.1">
<g id="surface416">
<path style="fill-rule:evenodd;fill:rgb(94.509804%,94.117647%,91.764706%);fill-opacity:1;stroke-width:0.3;stroke-linecap:butt;stroke-linejoin:miter;stroke:rgb(16.470588%,16.078431%,16.470588%);stroke-opacity:1;stroke-miterlimit:3;" d="M -260 -450 C -270.608594 -450 -280.782812 -445.785547 -288.284375 -438.284375 C -295.785547 -430.782813 -300 -420.608594 -300 -410 L -300 410 C -300 420.608594 -295.785547 430.782812 -288.284375 438.284375 C -280.782812 445.785547 -270.608594 450 -260 450 L 260 450 C 270.608594 450 280.782812 445.785547 288.284375 438.284375 C 295.785547 430.782812 300 420.608594 300 410 L 300 -410 C 300 -420.608594 295.785547 -430.782813 288.284375 -438.284375 C 280.782812 -445.785547 270.608594 -450 260 -450 L -260 -450 " transform="matrix(10,0,0,-10,3000,4500)"/>
<path style=" stroke:none;fill-rule:evenodd;fill:rgb(0%,35.686275%,54.901961%);fill-opacity:1;" d="M 2600 8850 L 400 8850 C 261.929688 8850 150 8738.070312 150 8600 L 150 400 C 150 261.929688 261.929688 150 400 150 L 5600 150 C 5738.070312 150 5850 261.929688 5850 400 L 5850 8600 C 5850 8738.070312 5738.070312 8850 5600 8850 L 3400 8850 L 3400 4600 L 4400 4600 L 4400 3600 L 3250 3600 L 3250 2450 L 2750 2450 L 2750 3600 L 1600 3600 L 1600 4600 L 2600 4600 L 2600 8850 "/>
<path style=" stroke:none;fill-rule:evenodd;fill:rgb(73.333333%,11.764706%,6.27451%);fill-opacity:1;" d="M 1700 4500 L 1700 3700 L 4300 3700 L 4300 4500 L 1700 4500 "/>
<path style=" stroke:none;fill-rule:evenodd;fill:rgb(94.509804%,94.117647%,91.764706%);fill-opacity:1;" d="M 2850 550 L 2685.640625 550 C 2597.964844 550 2520.511719 607.101562 2494.585938 690.855469 L 2349.359375 1159.972656 C 2316.65625 1153.339844 2283.371094 1150 2250 1150 C 2117.390625 1150 1990.214844 1202.679688 1896.445312 1296.445312 C 1802.679688 1390.214844 1750 1517.390625 1750 1650 C 1750 1782.609375 1802.679688 1909.785156 1896.445312 2003.554688 C 1990.214844 2097.320312 2117.390625 2150 2250 2150 C 2382.609375 2150 2509.785156 2097.320312 2603.554688 2003.554688 C 2697.320312 1909.785156 2750 1782.609375 2750 1650 C 2750 1551.765625 2721.0625 1455.703125 2666.800781 1373.8125 C 2612.535156 1291.925781 2535.351562 1227.835938 2444.886719 1189.542969 L 2499.589844 1012.839844 L 2967.097656 1705.917969 C 2985.6875 1733.480469 3016.757812 1750 3050 1750 L 3260.101562 1750 C 3283.152344 1862.917969 3344.5 1964.410156 3433.773438 2037.296875 C 3523.042969 2110.1875 3634.753906 2150 3750 2150 C 3882.609375 2150 4009.785156 2097.320312 4103.554688 2003.554688 C 4197.320312 1909.785156 4250 1782.609375 4250 1650 C 4250 1517.390625 4197.320312 1390.214844 4103.554688 1296.445312 C 4009.785156 1202.679688 3882.609375 1150 3750 1150 C 3697.371094 1150 3645.070312 1158.308594 3595.035156 1174.621094 L 3450 850 L 3487.5 750 L 3600 750 L 3600 650 L 3175 650 C 3161.191406 650 3150 661.191406 3150 675 C 3150 686.5625 3157.929688 696.617188 3169.175781 699.3125 L 3380.699219 750 L 3343.199219 850 L 2550 850 L 2590.113281 720.425781 C 2603.078125 678.550781 2641.804688 650 2685.640625 650 L 2850 650 L 2850 550 M 2576.636719 950 L 3045.199219 1644.671875 L 3305.699219 950 L 2576.636719 950 M 2319.597656 1256.101562 C 2296.621094 1252.042969 2273.332031 1250 2250 1250 C 2143.914062 1250 2042.171875 1292.144531 1967.15625 1367.15625 C 1892.144531 1442.171875 1850 1543.914062 1850 1650 C 1850 1756.085938 1892.144531 1857.828125 1967.15625 1932.84375 C 2042.171875 2007.855469 2143.914062 2050 2250 2050 C 2356.085938 2050 2457.828125 2007.855469 2532.84375 1932.84375 C 2607.855469 1857.828125 2650 1756.085938 2650 1650 C 2650 1573.125 2627.847656 1497.875 2586.191406 1433.261719 C 2544.539062 1368.652344 2485.144531 1317.410156 2415.125 1285.675781 L 2297.761719 1664.785156 C 2291.28125 1685.722656 2271.917969 1700 2250 1700 C 2222.386719 1700 2200 1677.613281 2200 1650 C 2200 1644.988281 2200.753906 1640.003906 2202.238281 1635.214844 L 2319.601562 1256.101562 M 3350 1650 L 3697.898438 1650 L 3544.558594 1306.789062 C 3423.875 1379.03125 3350 1509.347656 3350 1650 M 3362.703125 1750 C 3384.871094 1835.863281 3434.945312 1911.921875 3505.050781 1966.226562 C 3575.15625 2020.53125 3661.320312 2050 3750 2050 C 3856.085938 2050 3957.828125 2007.855469 4032.84375 1932.84375 C 4107.855469 1857.828125 4150 1756.085938 4150 1650 C 4150 1543.914062 4107.855469 1442.171875 4032.84375 1367.15625 C 3957.828125 1292.144531 3856.085938 1250 3750 1250 C 3711.4375 1250 3673.078125 1255.578125 3636.109375 1266.554688 L 3820.652344 1679.605469 C 3823.519531 1686.019531 3825 1692.972656 3825 1700 C 3825 1727.613281 3802.613281 1750 3775 1750 L 3362.703125 1750 M 3150 1650 L 3250 1650 C 3250 1561.542969 3273.46875 1474.667969 3318.007812 1398.238281 C 3362.550781 1321.8125 3426.566406 1258.570312 3503.535156 1214.964844 L 3400.019531 983.28125 L 3150 1650 "/>
</g>
</svg>
