<?xml version="1.0" encoding="UTF-8"?>
<svg xmlns="http://www.w3.org/2000/svg" xmlns:xlink="http://www.w3.org/1999/xlink" width="600.000000mm" height="600.000000mm" viewBox="0 0 6000 6000" version="1.1">
<g id="surface626">
<path style="fill-rule:evenodd;fill:rgb(94.509804%,94.117647%,91.764706%);fill-opacity:1;stroke-width:0.3;stroke-linecap:butt;stroke-linejoin:miter;stroke:rgb(16.470588%,16.078431%,16.470588%);stroke-opacity:1;stroke-miterlimit:3;" d="M -260 -300 C -270.608594 -300 -280.782812 -295.785547 -288.284375 -288.284375 C -295.785547 -280.782812 -300 -270.608594 -300 -260 L -300 260 C -300 270.608594 -295.785547 280.782812 -288.284375 288.284375 C -280.782812 295.785547 -270.608594 300 -260 300 L 260 300 C 270.608594 300 280.782812 295.785547 288.284375 288.284375 C 295.785547 280.782812 300 270.608594 300 260 L 300 -260 C 300 -270.608594 295.785547 -280.782812 288.284375 -288.284375 C 280.782812 -295.785547 270.608594 -300 260 -300 L -260 -300 " transform="matrix(10,0,0,-10,3000,3000)"/>
<path style=" stroke:none;fill-rule:evenodd;fill:rgb(0%,35.686275%,54.901961%);fill-opacity:1;" d="M 400 5850 C 261.929688 5850 150 5738.070312 150 5600 L 150 400 C 150 261.929688 261.929688 150 400 150 L 5600 150 C 5738.070312 150 5850 261.929688 5850 400 L 5850 5600 C 5850 5738.070312 5738.070312 5850 5600 5850 L 400 5850 "/>
<path style=" stroke:none;fill-rule:evenodd;fill:rgb(94.509804%,94.117647%,91.764706%);fill-opacity:1;" d="M 900 5100 L 900 900 L 5100 900 L 5100 5100 L 900 5100 "/>
<path style=" stroke:none;fill-rule:evenodd;fill:rgb(16.470588%,16.078431%,16.470588%);fill-opacity:1;" d="M 3000 1125 L 4950 1875 L 4950 2325 L 3000 1575 L 1050 2325 L 1050 1875 L 3000 1125 "/>
<path style=" stroke:none;fill-rule:evenodd;fill:rgb(16.470588%,16.078431%,16.470588%);fill-opacity:1;" d="M 1500 4875 L 1500 4710 L 1740 4710 L 1740 4575 L 2100 4575 L 2100 4710 L 2850 4710 L 2850 4575 L 3210 4575 L 3210 4710 L 3637.5 4710 L 3637.5 4125 L 4800 4125 L 4800 4875 L 1500 4875 "/>
<path style=" stroke:none;fill-rule:evenodd;fill:rgb(16.470588%,16.078431%,16.470588%);fill-opacity:1;" d="M 1859.210938 4515 C 1660.824219 4515 1500 4354.175781 1500 4155.789062 L 1500 4150.25 C 1500 4148.683594 1500.011719 4147.117188 1500.03125 4145.550781 L 1507.949219 3540.574219 C 1508.3125 3512.945312 1510.902344 3485.390625 1515.699219 3458.179688 L 1547.367188 3278.578125 C 1553.597656 3243.261719 1563.507812 3208.699219 1576.9375 3175.453125 L 1756.460938 2731.125 C 1768.261719 2701.914062 1787.054688 2676.046875 1811.1875 2655.796875 L 1811.191406 2655.800781 C 1889.8125 2589.828125 2090.132812 2508.148438 2408.75 2493.632812 L 2408.753906 2493.628906 C 2375.785156 2368.386719 2273.96875 2273.113281 2146.8125 2248.527344 L 1984.804688 2248.53125 C 1964.5 2248.53125 1948.039062 2232.070312 1948.039062 2211.765625 C 1948.039062 2191.460938 1964.5 2175 1984.804688 2175 L 2965.199219 2175 C 2985.503906 2175 3001.964844 2191.460938 3001.964844 2211.765625 C 3001.964844 2232.070312 2985.503906 2248.53125 2965.199219 2248.53125 L 2803.191406 2248.527344 C 2676.035156 2273.113281 2574.214844 2368.386719 2541.25 2493.628906 L 2541.25 2493.632812 C 2859.871094 2508.148438 3060.191406 2589.828125 3138.8125 2655.800781 L 3138.8125 2655.796875 C 3162.945312 2676.046875 3181.738281 2701.914062 3193.539062 2731.125 L 3373.0625 3175.453125 C 3386.496094 3208.699219 3396.40625 3243.261719 3402.632812 3278.578125 L 3434.300781 3458.179688 C 3439.097656 3485.390625 3441.6875 3512.945312 3442.050781 3540.574219 L 3449.96875 4145.550781 C 3449.988281 4147.117188 3450 4148.683594 3450 4150.25 L 3450 4155.789062 C 3450 4354.175781 3289.175781 4515 3090.789062 4515 L 1859.210938 4515 M 1980 4125 C 1980 4058.726562 1926.273438 4005 1860 4005 C 1793.726562 4005 1740 4058.726562 1740 4125 C 1740 4191.273438 1793.726562 4245 1860 4245 C 1926.273438 4245 1980 4191.273438 1980 4125 M 3210 4125 C 3210 4058.726562 3156.273438 4005 3090 4005 C 3023.726562 4005 2970 4058.726562 2970 4125 C 2970 4191.273438 3023.726562 4245 3090 4245 C 3156.273438 4245 3210 4191.273438 3210 4125 M 2595 3675 C 2595 3608.726562 2541.273438 3555 2475 3555 C 2408.726562 3555 2355 3608.726562 2355 3675 C 2355 3741.273438 2408.726562 3795 2475 3795 C 2541.273438 3795 2595 3741.273438 2595 3675 M 2077.304688 3253.484375 L 1801.777344 3277.589844 C 1799.546875 3277.785156 1797.308594 3277.882812 1795.066406 3277.882812 C 1752.554688 3277.882812 1718.09375 3243.421875 1718.09375 3200.910156 C 1718.09375 3191.027344 1719.996094 3181.238281 1723.699219 3172.074219 L 1839.652344 2885.074219 C 1858.335938 2838.832031 1894.242188 2801.648438 1939.804688 2781.363281 L 1939.804688 2781.359375 C 2033.566406 2739.621094 2244.082031 2687.75 2475 2687.75 C 2705.921875 2687.75 2916.433594 2739.621094 3010.195312 2781.359375 L 3010.199219 2781.363281 C 3055.757812 2801.648438 3091.667969 2838.832031 3110.351562 2885.074219 L 3226.304688 3172.074219 C 3230.007812 3181.238281 3231.910156 3191.027344 3231.910156 3200.910156 C 3231.910156 3243.421875 3197.445312 3277.882812 3154.933594 3277.882812 C 3152.695312 3277.882812 3150.457031 3277.785156 3148.226562 3277.589844 L 2872.699219 3253.484375 C 2770.453125 3244.539062 2603.289062 3239.398438 2475 3239.398438 C 2346.710938 3239.398438 2179.546875 3244.539062 2077.304688 3253.484375 M 2325.863281 2248.53125 L 2624.140625 2248.527344 C 2553.289062 2300.566406 2501.011719 2373.96875 2475 2457.941406 C 2448.992188 2373.96875 2396.714844 2300.566406 2325.863281 2248.527344 "/>
</g>
</svg>
