<?xml version="1.0" encoding="UTF-8"?>
<svg xmlns="http://www.w3.org/2000/svg" xmlns:xlink="http://www.w3.org/1999/xlink" width="600.000000mm" height="600.000000mm" viewBox="0 0 6000 6000" version="1.1">
<g id="surface646">
<path style="fill-rule:evenodd;fill:rgb(94.509804%,94.117647%,91.764706%);fill-opacity:1;stroke-width:0.3;stroke-linecap:butt;stroke-linejoin:miter;stroke:rgb(16.470588%,16.078431%,16.470588%);stroke-opacity:1;stroke-miterlimit:3;" d="M -260 -300 C -270.608594 -300 -280.782812 -295.785547 -288.284375 -288.284375 C -295.785547 -280.782812 -300 -270.608594 -300 -260 L -300 260 C -300 270.608594 -295.785547 280.782812 -288.284375 288.284375 C -280.782812 295.785547 -270.608594 300 -260 300 L 260 300 C 270.608594 300 280.782812 295.785547 288.284375 288.284375 C 295.785547 280.782812 300 270.608594 300 260 L 300 -260 C 300 -270.608594 295.785547 -280.782812 288.284375 -288.284375 C 280.782812 -295.785547 270.608594 -300 260 -300 L -260 -300 " transform="matrix(10,0,0,-10,3000,3000)"/>
<path style=" stroke:none;fill-rule:evenodd;fill:rgb(0%,35.686275%,54.901961%);fill-opacity:1;" d="M 400 5850 C 261.929688 5850 150 5738.070312 150 5600 L 150 400 C 150 261.929688 261.929688 150 400 150 L 5600 150 C 5738.070312 150 5850 261.929688 5850 400 L 5850 5600 C 5850 5738.070312 5738.070312 5850 5600 5850 L 400 5850 "/>
<path style=" stroke:none;fill-rule:evenodd;fill:rgb(94.509804%,94.117647%,91.764706%);fill-opacity:1;" d="M 900 5100 L 900 900 L 5100 900 L 5100 5100 L 900 5100 "/>
<path style=" stroke:none;fill-rule:evenodd;fill:rgb(16.470588%,16.078431%,16.470588%);fill-opacity:1;" d="M 2325 4350 C 2325 4184.316406 2190.683594 4050 2025 4050 C 1859.316406 4050 1725 4184.316406 1725 4350 C 1725 4515.683594 1859.316406 4650 2025 4650 C 2190.683594 4650 2325 4515.683594 2325 4350 M 3862.5 4350 C 3862.5 4184.316406 3728.183594 4050 3562.5 4050 C 3396.816406 4050 3262.5 4184.316406 3262.5 4350 C 3262.5 4515.683594 3396.816406 4650 3562.5 4650 C 3728.183594 4650 3862.5 4515.683594 3862.5 4350 M 4762.5 1875 C 4824.632812 1875 4875 1824.632812 4875 1762.5 C 4875 1700.367188 4824.632812 1650 4762.5 1650 L 4463.316406 1650 C 4418.3125 1650 4377.640625 1676.820312 4359.914062 1718.183594 L 4196.28125 2100 L 1387.5 2100 C 1325.367188 2100 1275 2150.367188 1275 2212.5 C 1275 2227.921875 1278.171875 2243.179688 1284.316406 2257.324219 L 1743.632812 3314.648438 C 1779.332031 3396.832031 1860.394531 3450 1950 3450 L 3637.5 3450 L 3637.5 3600 C 3637.5 3662.132812 3587.132812 3712.5 3525 3712.5 L 1837.5 3712.5 C 1775.367188 3712.5 1725 3762.867188 1725 3825 C 1725 3887.132812 1775.367188 3937.5 1837.5 3937.5 L 3525 3937.5 C 3711.394531 3937.5 3862.5 3786.394531 3862.5 3600 L 3862.5 3473.089844 C 3862.5 3457.855469 3865.59375 3442.777344 3871.597656 3428.773438 L 4537.5 1875 L 4762.5 1875 "/>
</g>
</svg>
