<?xml version="1.0" encoding="UTF-8"?>
<svg xmlns="http://www.w3.org/2000/svg" xmlns:xlink="http://www.w3.org/1999/xlink" width="600.000000mm" height="600.000000mm" viewBox="0 0 6000 6000" version="1.1">
<g id="surface541">
<path style="fill-rule:evenodd;fill:rgb(94.509804%,94.117647%,91.764706%);fill-opacity:1;stroke-width:0.3;stroke-linecap:butt;stroke-linejoin:miter;stroke:rgb(16.470588%,16.078431%,16.470588%);stroke-opacity:1;stroke-miterlimit:3;" d="M -260 -300 C -270.608594 -300 -280.782812 -295.785547 -288.284375 -288.284375 C -295.785547 -280.782812 -300 -270.608594 -300 -260 L -300 260 C -300 270.608594 -295.785547 280.782812 -288.284375 288.284375 C -280.782812 295.785547 -270.608594 300 -260 300 L 260 300 C 270.608594 300 280.782812 295.785547 288.284375 288.284375 C 295.785547 280.782812 300 270.608594 300 260 L 300 -260 C 300 -270.608594 295.785547 -280.782812 288.284375 -288.284375 C 280.782812 -295.785547 270.608594 -300 260 -300 L -260 -300 " transform="matrix(10,0,0,-10,3000,3000)"/>
<path style=" stroke:none;fill-rule:evenodd;fill:rgb(0%,35.686275%,54.901961%);fill-opacity:1;" d="M 400 5850 C 261.929688 5850 150 5738.070312 150 5600 L 150 400 C 150 261.929688 261.929688 150 400 150 L 5600 150 C 5738.070312 150 5850 261.929688 5850 400 L 5850 5600 C 5850 5738.070312 5738.070312 5850 5600 5850 L 400 5850 "/>
<path style=" stroke:none;fill-rule:evenodd;fill:rgb(94.509804%,94.117647%,91.764706%);fill-opacity:1;" d="M 900 5100 L 900 900 L 5100 900 L 5100 5100 L 900 5100 "/>
<path style=" stroke:none;fill-rule:evenodd;fill:rgb(16.470588%,16.078431%,16.470588%);fill-opacity:1;" d="M 1920 2820 L 1920 2730 L 2055 2730 L 2945.671875 1413.355469 L 2835.457031 1250.425781 L 2910 1200 L 3000 1333.042969 L 3090 1200 L 3164.542969 1250.425781 L 3054.328125 1413.355469 L 3945 2730 L 4080 2730 L 4080 2820 L 1920 2820 M 2595 2730 L 3000 2131.304688 L 3405 2730 L 2595 2730 "/>
<path style=" stroke:none;fill-rule:evenodd;fill:rgb(16.470588%,16.078431%,16.470588%);fill-opacity:1;" d="M 1635 4590 L 2895 4590 C 2895 4445.023438 3012.523438 4327.5 3157.5 4327.5 C 3302.476562 4327.5 3420 4445.023438 3420 4590 L 4102.5 4590 C 4128.023438 4590 4149.851562 4571.640625 4154.222656 4546.496094 L 4259.222656 3942.746094 C 4259.742188 3939.773438 4260 3936.765625 4260 3933.75 C 4260 3930.734375 4259.742188 3927.726562 4259.222656 3924.753906 L 4154.222656 3321.003906 C 4149.851562 3295.859375 4128.023438 3277.5 4102.5 3277.5 L 2107.5 3277.5 C 2081.976562 3277.5 2060.148438 3295.859375 2055.777344 3321.003906 L 1950.777344 3924.753906 C 1950.257812 3927.726562 1950 3930.734375 1950 3933.75 C 1950 3937.074219 1950.316406 3940.394531 1950.945312 3943.660156 L 2055 4485 L 1635 4485 L 1635 4590 M 3367.5 4590 C 3367.5 4474.019531 3273.480469 4380 3157.5 4380 C 3041.519531 4380 2947.5 4474.019531 2947.5 4590 C 2947.5 4705.980469 3041.519531 4800 3157.5 4800 C 3273.480469 4800 3367.5 4705.980469 3367.5 4590 M 2317.5 4485 C 2303.003906 4485 2291.25 4473.246094 2291.25 4458.75 L 2291.25 3513.75 C 2291.25 3499.253906 2303.003906 3487.5 2317.5 3487.5 L 2737.5 3487.5 C 2751.996094 3487.5 2763.75 3499.253906 2763.75 3513.75 L 2763.75 4458.75 C 2763.75 4473.246094 2751.996094 4485 2737.5 4485 L 2317.5 4485 M 3367.5 3828.75 C 3353.003906 3828.75 3341.25 3816.996094 3341.25 3802.5 L 3341.25 3513.75 C 3341.25 3499.253906 3353.003906 3487.5 3367.5 3487.5 L 3945 3487.5 C 3959.496094 3487.5 3971.25 3499.253906 3971.25 3513.75 L 3971.25 3802.5 C 3971.25 3816.996094 3959.496094 3828.75 3945 3828.75 L 3367.5 3828.75 "/>
</g>
</svg>
