<?xml version="1.0" encoding="UTF-8"?>
<svg xmlns="http://www.w3.org/2000/svg" xmlns:xlink="http://www.w3.org/1999/xlink" width="600.000000mm" height="600.000000mm" viewBox="0 0 6000 6000" version="1.1">
<g id="surface571">
<path style="fill-rule:evenodd;fill:rgb(94.509804%,94.117647%,91.764706%);fill-opacity:1;stroke-width:0.3;stroke-linecap:butt;stroke-linejoin:miter;stroke:rgb(16.470588%,16.078431%,16.470588%);stroke-opacity:1;stroke-miterlimit:3;" d="M -260 -300 C -270.608594 -300 -280.782812 -295.785547 -288.284375 -288.284375 C -295.785547 -280.782812 -300 -270.608594 -300 -260 L -300 260 C -300 270.608594 -295.785547 280.782812 -288.284375 288.284375 C -280.782812 295.785547 -270.608594 300 -260 300 L 260 300 C 270.608594 300 280.782812 295.785547 288.284375 288.284375 C 295.785547 280.782812 300 270.608594 300 260 L 300 -260 C 300 -270.608594 295.785547 -280.782812 288.284375 -288.284375 C 280.782812 -295.785547 270.608594 -300 260 -300 L -260 -300 " transform="matrix(10,0,0,-10,3000,3000)"/>
<path style=" stroke:none;fill-rule:evenodd;fill:rgb(0%,35.686275%,54.901961%);fill-opacity:1;" d="M 400 5850 C 261.929688 5850 150 5738.070312 150 5600 L 150 400 C 150 261.929688 261.929688 150 400 150 L 5600 150 C 5738.070312 150 5850 261.929688 5850 400 L 5850 5600 C 5850 5738.070312 5738.070312 5850 5600 5850 L 400 5850 "/>
<path style=" stroke:none;fill-rule:evenodd;fill:rgb(94.509804%,94.117647%,91.764706%);fill-opacity:1;" d="M 900 5100 L 900 900 L 5100 900 L 5100 5100 L 900 5100 "/>
<path style=" stroke:none;fill-rule:evenodd;fill:rgb(16.470588%,16.078431%,16.470588%);fill-opacity:1;" d="M 4837.570312 3507.140625 C 4911.625 3348.332031 4950 3175.226562 4950 3000 C 4950 2824.773438 4911.625 2651.667969 4837.570312 2492.859375 L 4701.625 2556.25 C 4766.421875 2695.210938 4800 2846.675781 4800 3000 C 4800 3153.324219 4766.421875 3304.789062 4701.625 3443.75 L 4837.570312 3507.140625 M 4565.675781 3380.355469 C 4621.21875 3261.25 4650 3131.421875 4650 3000 C 4650 2868.578125 4621.21875 2738.75 4565.675781 2619.644531 L 4429.730469 2683.035156 C 4476.015625 2782.292969 4500 2890.480469 4500 3000 C 4500 3109.519531 4476.015625 3217.707031 4429.730469 3316.964844 L 4565.675781 3380.355469 M 4293.785156 3253.570312 C 4330.8125 3174.164062 4350 3087.613281 4350 3000 C 4350 2912.386719 4330.8125 2825.835938 4293.785156 2746.429688 L 4157.839844 2809.820312 C 4185.609375 2869.375 4200 2934.289062 4200 3000 C 4200 3065.710938 4185.609375 3130.625 4157.839844 3190.179688 L 4293.785156 3253.570312 M 4040.304688 1835.644531 C 4328.039062 1907.386719 4579.019531 2083.125 4744.84375 2328.96875 L 4620.488281 2412.847656 C 4475.394531 2197.734375 4255.785156 2043.960938 4004.019531 1981.191406 L 4040.308594 1835.644531 M 3967.730469 2126.734375 C 4183.53125 2180.539062 4371.765625 2312.34375 4496.132812 2496.726562 L 4371.777344 2580.605469 C 4268.136719 2426.953125 4111.273438 2317.117188 3931.441406 2272.277344 L 3967.730469 2126.734375 M 3895.152344 2417.824219 C 4039.019531 2453.691406 4164.511719 2541.5625 4247.421875 2664.484375 L 4123.066406 2748.363281 C 4060.882812 2656.171875 3966.765625 2590.269531 3858.863281 2563.367188 L 3895.152344 2417.824219 M 3854.585938 1804.566406 C 3819.808594 1801.523438 3784.914062 1800 3750 1800 L 3096 1800 L 3084 1950 L 3750 1950 C 3780.546875 1950 3811.082031 1951.332031 3841.511719 1953.996094 L 3854.585938 1804.566406 M 3828.441406 2103.425781 C 3802.355469 2101.144531 3776.183594 2100 3750 2100 L 3072 2100 L 3060 2250 L 3750 2250 C 3771.820312 2250 3793.628906 2250.953125 3815.367188 2252.855469 L 3828.441406 2103.425781 M 3802.292969 2402.28125 C 3784.902344 2400.761719 3767.457031 2400 3750 2400 L 3048 2400 L 3036 2550 L 3750 2550 C 3763.09375 2550 3776.179688 2550.570312 3789.21875 2551.710938 L 3802.292969 2402.28125 M 4040.304688 4164.355469 C 4328.039062 4092.613281 4579.019531 3916.875 4744.84375 3671.03125 L 4620.488281 3587.152344 C 4475.394531 3802.265625 4255.785156 3956.039062 4004.019531 4018.808594 L 4040.308594 4164.355469 M 3967.730469 3873.265625 C 4183.53125 3819.460938 4371.765625 3687.65625 4496.132812 3503.273438 L 4371.777344 3419.394531 C 4268.136719 3573.046875 4111.273438 3682.882812 3931.441406 3727.722656 L 3967.730469 3873.265625 M 3895.152344 3582.175781 C 4039.019531 3546.308594 4164.511719 3458.4375 4247.421875 3335.515625 L 4123.066406 3251.636719 C 4060.882812 3343.828125 3966.765625 3409.730469 3858.863281 3436.632812 L 3895.152344 3582.175781 M 3854.585938 4195.433594 C 3819.808594 4198.476562 3784.914062 4200 3750 4200 L 3096 4200 L 3084 4050 L 3750 4050 C 3780.546875 4050 3811.082031 4048.667969 3841.511719 4046.003906 L 3854.585938 4195.433594 M 3828.441406 3896.574219 C 3802.355469 3898.855469 3776.183594 3900 3750 3900 L 3072 3900 L 3060 3750 L 3750 3750 C 3771.820312 3750 3793.628906 3749.046875 3815.367188 3747.144531 L 3828.441406 3896.574219 M 3802.292969 3597.71875 C 3784.902344 3599.238281 3767.457031 3600 3750 3600 L 3048 3600 L 3036 3450 L 3750 3450 C 3763.09375 3450 3776.179688 3449.429688 3789.21875 3448.289062 L 3802.292969 3597.71875 M 1162.429688 3507.140625 C 1088.375 3348.332031 1050 3175.226562 1050 3000 C 1050 2824.773438 1088.375 2651.667969 1162.429688 2492.859375 L 1298.375 2556.25 C 1233.578125 2695.210938 1200 2846.675781 1200 3000 C 1200 3153.324219 1233.578125 3304.789062 1298.375 3443.75 L 1162.429688 3507.140625 M 1434.324219 3380.355469 C 1378.78125 3261.25 1350 3131.421875 1350 3000 C 1350 2868.578125 1378.78125 2738.75 1434.324219 2619.644531 L 1570.269531 2683.035156 C 1523.984375 2782.292969 1500 2890.480469 1500 3000 C 1500 3109.519531 1523.984375 3217.707031 1570.269531 3316.964844 L 1434.324219 3380.355469 M 1706.214844 3253.570312 C 1669.1875 3174.164062 1650 3087.613281 1650 3000 C 1650 2912.386719 1669.1875 2825.835938 1706.214844 2746.429688 L 1842.160156 2809.820312 C 1814.390625 2869.375 1800 2934.289062 1800 3000 C 1800 3065.710938 1814.390625 3130.625 1842.160156 3190.179688 L 1706.214844 3253.570312 M 1959.695312 1835.644531 C 1671.960938 1907.386719 1420.980469 2083.125 1255.15625 2328.96875 L 1379.511719 2412.847656 C 1524.605469 2197.734375 1744.214844 2043.960938 1995.980469 1981.191406 L 1959.691406 1835.644531 M 2032.269531 2126.734375 C 1816.46875 2180.539062 1628.234375 2312.34375 1503.867188 2496.726562 L 1628.222656 2580.605469 C 1731.863281 2426.953125 1888.726562 2317.117188 2068.558594 2272.277344 L 2032.269531 2126.734375 M 2104.847656 2417.824219 C 1960.980469 2453.691406 1835.488281 2541.5625 1752.578125 2664.484375 L 1876.933594 2748.363281 C 1939.117188 2656.171875 2033.234375 2590.269531 2141.136719 2563.367188 L 2104.847656 2417.824219 M 2145.414062 1804.566406 C 2180.191406 1801.523438 2215.085938 1800 2250 1800 L 2904 1800 L 2916 1950 L 2250 1950 C 2219.453125 1950 2188.917969 1951.332031 2158.488281 1953.996094 L 2145.414062 1804.566406 M 2171.558594 2103.425781 C 2197.644531 2101.144531 2223.816406 2100 2250 2100 L 2928 2100 L 2940 2250 L 2250 2250 C 2228.179688 2250 2206.371094 2250.953125 2184.632812 2252.855469 L 2171.558594 2103.425781 M 2197.707031 2402.28125 C 2215.097656 2400.761719 2232.542969 2400 2250 2400 L 2952 2400 L 2964 2550 L 2250 2550 C 2236.90625 2550 2223.820312 2550.570312 2210.78125 2551.710938 L 2197.707031 2402.28125 M 1959.695312 4164.355469 C 1671.960938 4092.613281 1420.980469 3916.875 1255.15625 3671.03125 L 1379.511719 3587.152344 C 1524.605469 3802.265625 1744.214844 3956.039062 1995.980469 4018.808594 L 1959.691406 4164.355469 M 2032.269531 3873.265625 C 1816.46875 3819.460938 1628.234375 3687.65625 1503.867188 3503.273438 L 1628.222656 3419.394531 C 1731.863281 3573.046875 1888.726562 3682.882812 2068.558594 3727.722656 L 2032.269531 3873.265625 M 2104.847656 3582.175781 C 1960.980469 3546.308594 1835.488281 3458.4375 1752.578125 3335.515625 L 1876.933594 3251.636719 C 1939.117188 3343.828125 2033.234375 3409.730469 2141.136719 3436.632812 L 2104.847656 3582.175781 M 2145.414062 4195.433594 C 2180.191406 4198.476562 2215.085938 4200 2250 4200 L 2904 4200 L 2916 4050 L 2250 4050 C 2219.453125 4050 2188.917969 4048.667969 2158.488281 4046.003906 L 2145.414062 4195.433594 M 2171.558594 3896.574219 C 2197.644531 3898.855469 2223.816406 3900 2250 3900 L 2928 3900 L 2940 3750 L 2250 3750 C 2228.179688 3750 2206.371094 3749.046875 2184.632812 3747.144531 L 2171.558594 3896.574219 M 2197.707031 3597.71875 C 2215.097656 3599.238281 2232.542969 3600 2250 3600 L 2952 3600 L 2964 3450 L 2250 3450 C 2236.90625 3450 2223.820312 3449.429688 2210.78125 3448.289062 L 2197.707031 3597.71875 "/>
</g>
</svg>
