<?xml version="1.0" encoding="UTF-8"?>
<svg xmlns="http://www.w3.org/2000/svg" xmlns:xlink="http://www.w3.org/1999/xlink" width="600.000000mm" height="600.000000mm" viewBox="0 0 6000 6000" version="1.1">
<g id="surface561">
<path style="fill-rule:evenodd;fill:rgb(94.509804%,94.117647%,91.764706%);fill-opacity:1;stroke-width:0.3;stroke-linecap:butt;stroke-linejoin:miter;stroke:rgb(16.470588%,16.078431%,16.470588%);stroke-opacity:1;stroke-miterlimit:3;" d="M -260 -300 C -270.608594 -300 -280.782812 -295.785547 -288.284375 -288.284375 C -295.785547 -280.782812 -300 -270.608594 -300 -260 L -300 260 C -300 270.608594 -295.785547 280.782812 -288.284375 288.284375 C -280.782812 295.785547 -270.608594 300 -260 300 L 260 300 C 270.608594 300 280.782812 295.785547 288.284375 288.284375 C 295.785547 280.782812 300 270.608594 300 260 L 300 -260 C 300 -270.608594 295.785547 -280.782812 288.284375 -288.284375 C 280.782812 -295.785547 270.608594 -300 260 -300 L -260 -300 " transform="matrix(10,0,0,-10,3000,3000)"/>
<path style=" stroke:none;fill-rule:evenodd;fill:rgb(0%,35.686275%,54.901961%);fill-opacity:1;" d="M 400 5850 C 261.929688 5850 150 5738.070312 150 5600 L 150 400 C 150 261.929688 261.929688 150 400 150 L 5600 150 C 5738.070312 150 5850 261.929688 5850 400 L 5850 5600 C 5850 5738.070312 5738.070312 5850 5600 5850 L 400 5850 "/>
<path style=" stroke:none;fill-rule:evenodd;fill:rgb(94.509804%,94.117647%,91.764706%);fill-opacity:1;" d="M 900 5100 L 900 900 L 5100 900 L 5100 5100 L 900 5100 "/>
<path style=" stroke:none;fill-rule:evenodd;fill:rgb(16.470588%,16.078431%,16.470588%);fill-opacity:1;" d="M 1050 4480.949219 C 1098.996094 4493.597656 1149.398438 4500 1200 4500 C 1305.320312 4500 1408.789062 4472.277344 1500 4419.617188 L 1500 4419.613281 C 1591.210938 4366.953125 1694.679688 4339.230469 1800 4339.230469 C 1905.320312 4339.230469 2008.789062 4366.953125 2100 4419.613281 L 2100 4419.617188 C 2191.210938 4472.277344 2294.679688 4500 2400 4500 C 2505.320312 4500 2608.789062 4472.277344 2700 4419.617188 L 2700 4419.613281 C 2791.210938 4366.953125 2894.679688 4339.230469 3000 4339.230469 C 3105.320312 4339.230469 3208.789062 4366.953125 3300 4419.613281 L 3300 4419.617188 C 3391.210938 4472.277344 3494.679688 4500 3600 4500 C 3705.320312 4500 3808.789062 4472.277344 3900 4419.617188 L 3900 4419.613281 C 3991.210938 4366.953125 4094.679688 4339.230469 4200 4339.230469 C 4305.320312 4339.230469 4408.789062 4366.953125 4500 4419.613281 L 4500 4419.617188 C 4591.210938 4472.277344 4694.679688 4500 4800 4500 C 4850.601562 4500 4901.003906 4493.597656 4950 4480.949219 L 4950 4180.949219 C 4901.003906 4193.597656 4850.601562 4200 4800 4200 C 4694.679688 4200 4591.210938 4172.277344 4500 4119.617188 L 4500 4119.613281 C 4408.789062 4066.953125 4305.320312 4039.230469 4200 4039.230469 C 4094.679688 4039.230469 3991.210938 4066.953125 3900 4119.613281 L 3900 4119.617188 C 3808.789062 4172.277344 3705.320312 4200 3600 4200 C 3494.679688 4200 3391.210938 4172.277344 3300 4119.617188 L 3300 4119.613281 C 3208.789062 4066.953125 3105.320312 4039.230469 3000 4039.230469 C 2894.679688 4039.230469 2791.210938 4066.953125 2700 4119.613281 L 2700 4119.617188 C 2608.789062 4172.277344 2505.320312 4200 2400 4200 C 2294.679688 4200 2191.210938 4172.277344 2100 4119.617188 L 2100 4119.613281 C 2008.789062 4066.953125 1905.320312 4039.230469 1800 4039.230469 C 1694.679688 4039.230469 1591.210938 4066.953125 1500 4119.613281 L 1500 4119.617188 C 1408.789062 4172.277344 1305.320312 4200 1200 4200 C 1149.398438 4200 1098.996094 4193.597656 1050 4180.949219 L 1050 4480.945312 M 1050 4030.949219 C 1098.996094 4043.597656 1149.398438 4050 1200 4050 C 1305.320312 4050 1408.789062 4022.277344 1500 3969.617188 L 1500 3969.613281 C 1591.210938 3916.953125 1694.679688 3889.230469 1800 3889.230469 C 1905.320312 3889.230469 2008.789062 3916.953125 2100 3969.613281 L 2100 3969.617188 C 2191.210938 4022.277344 2294.679688 4050 2400 4050 C 2505.320312 4050 2608.789062 4022.277344 2700 3969.617188 L 2700 3969.613281 C 2791.210938 3916.953125 2894.679688 3889.230469 3000 3889.230469 C 3105.320312 3889.230469 3208.789062 3916.953125 3300 3969.613281 L 3300 3969.617188 C 3391.210938 4022.277344 3494.679688 4050 3600 4050 C 3705.320312 4050 3808.789062 4022.277344 3900 3969.617188 L 3900 3969.613281 C 3991.210938 3916.953125 4094.679688 3889.230469 4200 3889.230469 C 4305.320312 3889.230469 4408.789062 3916.953125 4500 3969.613281 L 4500 3969.617188 C 4591.210938 4022.277344 4694.679688 4050 4800 4050 C 4850.601562 4050 4901.003906 4043.597656 4950 4030.949219 L 4950 3730.949219 C 4901.003906 3743.597656 4850.601562 3750 4800 3750 C 4694.679688 3750 4591.210938 3722.277344 4500 3669.617188 L 4500 3669.613281 C 4408.789062 3616.953125 4305.320312 3589.230469 4200 3589.230469 C 4094.679688 3589.230469 3991.210938 3616.953125 3900 3669.613281 L 3900 3669.617188 C 3808.789062 3722.277344 3705.320312 3750 3600 3750 C 3494.679688 3750 3391.210938 3722.277344 3300 3669.617188 L 3300 3669.613281 C 3208.789062 3616.953125 3105.320312 3589.230469 3000 3589.230469 C 2894.679688 3589.230469 2791.210938 3616.953125 2700 3669.613281 L 2700 3669.617188 C 2608.789062 3722.277344 2505.320312 3750 2400 3750 C 2294.679688 3750 2191.210938 3722.277344 2100 3669.617188 L 2100 3669.613281 C 2008.789062 3616.953125 1905.320312 3589.230469 1800 3589.230469 C 1694.679688 3589.230469 1591.210938 3616.953125 1500 3669.613281 L 1500 3669.617188 C 1408.789062 3722.277344 1305.320312 3750 1200 3750 C 1149.398438 3750 1098.996094 3743.597656 1050 3730.949219 L 1050 4030.945312 M 1050 3580.949219 C 1098.996094 3593.597656 1149.398438 3600 1200 3600 C 1305.320312 3600 1408.789062 3572.277344 1500 3519.617188 L 1500 3519.613281 C 1591.210938 3466.953125 1694.679688 3439.230469 1800 3439.230469 C 1905.320312 3439.230469 2008.789062 3466.953125 2100 3519.613281 L 2100 3519.617188 C 2191.210938 3572.277344 2294.679688 3600 2400 3600 C 2505.320312 3600 2608.789062 3572.277344 2700 3519.617188 L 2700 3519.613281 C 2791.210938 3466.953125 2894.679688 3439.230469 3000 3439.230469 C 3105.320312 3439.230469 3208.789062 3466.953125 3300 3519.613281 L 3300 3519.617188 C 3391.210938 3572.277344 3494.679688 3600 3600 3600 C 3705.320312 3600 3808.789062 3572.277344 3900 3519.617188 L 3900 3519.613281 C 3991.210938 3466.953125 4094.679688 3439.230469 4200 3439.230469 C 4305.320312 3439.230469 4408.789062 3466.953125 4500 3519.613281 L 4500 3519.617188 C 4591.210938 3572.277344 4694.679688 3600 4800 3600 C 4850.601562 3600 4901.003906 3593.597656 4950 3580.949219 L 4950 3280.949219 C 4901.003906 3293.597656 4850.601562 3300 4800 3300 C 4694.679688 3300 4591.210938 3272.277344 4500 3219.617188 L 4500 3219.613281 C 4408.789062 3166.953125 4305.320312 3139.230469 4200 3139.230469 C 4094.679688 3139.230469 3991.210938 3166.953125 3900 3219.613281 L 3900 3219.617188 C 3808.789062 3272.277344 3705.320312 3300 3600 3300 C 3494.679688 3300 3391.210938 3272.277344 3300 3219.617188 L 3300 3219.613281 C 3208.789062 3166.953125 3105.320312 3139.230469 3000 3139.230469 C 2894.679688 3139.230469 2791.210938 3166.953125 2700 3219.613281 L 2700 3219.617188 C 2608.789062 3272.277344 2505.320312 3300 2400 3300 C 2294.679688 3300 2191.210938 3272.277344 2100 3219.617188 L 2100 3219.613281 C 2008.789062 3166.953125 1905.320312 3139.230469 1800 3139.230469 C 1694.679688 3139.230469 1591.210938 3166.953125 1500 3219.613281 L 1500 3219.617188 C 1408.789062 3272.277344 1305.320312 3300 1200 3300 C 1149.398438 3300 1098.996094 3293.597656 1050 3280.949219 L 1050 3580.945312 "/>
<path style=" stroke:none;fill-rule:evenodd;fill:rgb(16.470588%,16.078431%,16.470588%);fill-opacity:1;" d="M 4050 2286.1875 L 4313.605469 2549.789062 C 4397.996094 2634.179688 4512.453125 2681.59375 4631.800781 2681.59375 C 4751.148438 2681.59375 4865.609375 2634.179688 4950 2549.789062 L 4262.132812 1861.921875 C 4205.871094 1805.660156 4129.566406 1774.054688 4050 1774.054688 C 3970.433594 1774.054688 3894.128906 1805.660156 3837.867188 1861.921875 L 3000 2699.789062 L 1050 2700 C 1050 2799.945312 1083.273438 2897.046875 1144.566406 2975.984375 C 1205.863281 3054.925781 1291.695312 3111.214844 1388.527344 3135.972656 L 1500 3069.613281 C 1591.210938 3016.953125 1694.679688 2989.230469 1800 2989.230469 C 1905.320312 2989.230469 2008.789062 3016.953125 2100 3069.613281 L 2100 3069.617188 C 2191.210938 3122.277344 2294.679688 3150 2400 3150 C 2505.320312 3150 2608.789062 3122.277344 2700 3069.617188 L 2700 3069.613281 C 2791.210938 3016.953125 2894.679688 2989.230469 3000 2989.230469 C 3097.03125 2989.230469 3192.617188 3012.761719 3278.558594 3057.8125 L 4050 2286.1875 M 3150 2100 C 3150 1980.652344 3102.589844 1866.191406 3018.199219 1781.800781 C 2933.808594 1697.410156 2819.347656 1650 2700 1650 C 2580.652344 1650 2466.191406 1697.410156 2381.800781 1781.800781 C 2297.410156 1866.191406 2250 1980.652344 2250 2100 C 2250 2219.347656 2297.410156 2333.808594 2381.800781 2418.199219 C 2466.191406 2502.589844 2580.652344 2550 2700 2550 C 2819.347656 2550 2933.808594 2502.589844 3018.199219 2418.199219 C 3102.589844 2333.808594 3150 2219.347656 3150 2100 "/>
</g>
</svg>
