<?xml version="1.0" encoding="UTF-8"?>
<svg xmlns="http://www.w3.org/2000/svg" xmlns:xlink="http://www.w3.org/1999/xlink" width="600.000000mm" height="600.000000mm" viewBox="0 0 6000 6000" version="1.1">
<g id="surface531">
<path style="fill-rule:evenodd;fill:rgb(94.509804%,94.117647%,91.764706%);fill-opacity:1;stroke-width:0.3;stroke-linecap:butt;stroke-linejoin:miter;stroke:rgb(16.470588%,16.078431%,16.470588%);stroke-opacity:1;stroke-miterlimit:3;" d="M -260 -300 C -270.608594 -300 -280.782812 -295.785547 -288.284375 -288.284375 C -295.785547 -280.782812 -300 -270.608594 -300 -260 L -300 260 C -300 270.608594 -295.785547 280.782812 -288.284375 288.284375 C -280.782812 295.785547 -270.608594 300 -260 300 L 260 300 C 270.608594 300 280.782812 295.785547 288.284375 288.284375 C 295.785547 280.782812 300 270.608594 300 260 L 300 -260 C 300 -270.608594 295.785547 -280.782812 288.284375 -288.284375 C 280.782812 -295.785547 270.608594 -300 260 -300 L -260 -300 " transform="matrix(10,0,0,-10,3000,3000)"/>
<path style=" stroke:none;fill-rule:evenodd;fill:rgb(0%,35.686275%,54.901961%);fill-opacity:1;" d="M 400 5850 C 261.929688 5850 150 5738.070312 150 5600 L 150 400 C 150 261.929688 261.929688 150 400 150 L 5600 150 C 5738.070312 150 5850 261.929688 5850 400 L 5850 5600 C 5850 5738.070312 5738.070312 5850 5600 5850 L 400 5850 "/>
<path style=" stroke:none;fill-rule:evenodd;fill:rgb(94.509804%,94.117647%,91.764706%);fill-opacity:1;" d="M 900 5100 L 900 900 L 5100 900 L 5100 5100 L 900 5100 "/>
<path style=" stroke:none;fill-rule:evenodd;fill:rgb(16.470588%,16.078431%,16.470588%);fill-opacity:1;" d="M 2025 4800 L 3975 4800 L 3975 4650 L 3675 4650 C 3592.15625 4650 3525 4582.84375 3525 4500 L 3525 2625 L 2175 2625 L 2175 2775 L 2325 2775 C 2407.84375 2775 2475 2842.15625 2475 2925 L 2475 4500 C 2475 4582.84375 2407.84375 4650 2325 4650 L 2025 4650 L 2025 4800 M 3525 1800 C 3525 1660.761719 3469.6875 1527.226562 3371.230469 1428.769531 C 3272.773438 1330.3125 3139.238281 1275 3000 1275 C 2860.761719 1275 2727.226562 1330.3125 2628.769531 1428.769531 C 2530.3125 1527.226562 2475 1660.761719 2475 1800 C 2475 1939.238281 2530.3125 2072.773438 2628.769531 2171.230469 C 2727.226562 2269.6875 2860.761719 2325 3000 2325 C 3139.238281 2325 3272.773438 2269.6875 3371.230469 2171.230469 C 3469.6875 2072.773438 3525 1939.238281 3525 1800 "/>
</g>
</svg>
