<?xml version="1.0" encoding="UTF-8"?>
<svg xmlns="http://www.w3.org/2000/svg" xmlns:xlink="http://www.w3.org/1999/xlink" width="600.000000mm" height="600.000000mm" viewBox="0 0 6000 6000" version="1.1">
<g id="surface621">
<path style="fill-rule:evenodd;fill:rgb(94.509804%,94.117647%,91.764706%);fill-opacity:1;stroke-width:0.3;stroke-linecap:butt;stroke-linejoin:miter;stroke:rgb(16.470588%,16.078431%,16.470588%);stroke-opacity:1;stroke-miterlimit:3;" d="M -260 -300 C -270.608594 -300 -280.782812 -295.785547 -288.284375 -288.284375 C -295.785547 -280.782812 -300 -270.608594 -300 -260 L -300 260 C -300 270.608594 -295.785547 280.782812 -288.284375 288.284375 C -280.782812 295.785547 -270.608594 300 -260 300 L 260 300 C 270.608594 300 280.782812 295.785547 288.284375 288.284375 C 295.785547 280.782812 300 270.608594 300 260 L 300 -260 C 300 -270.608594 295.785547 -280.782812 288.284375 -288.284375 C 280.782812 -295.785547 270.608594 -300 260 -300 L -260 -300 " transform="matrix(10,0,0,-10,3000,3000)"/>
<path style=" stroke:none;fill-rule:evenodd;fill:rgb(0%,35.686275%,54.901961%);fill-opacity:1;" d="M 400 5850 C 261.929688 5850 150 5738.070312 150 5600 L 150 400 C 150 261.929688 261.929688 150 400 150 L 5600 150 C 5738.070312 150 5850 261.929688 5850 400 L 5850 5600 C 5850 5738.070312 5738.070312 5850 5600 5850 L 400 5850 "/>
<path style=" stroke:none;fill-rule:evenodd;fill:rgb(94.509804%,94.117647%,91.764706%);fill-opacity:1;" d="M 900 5100 L 900 900 L 5100 900 L 5100 5100 L 900 5100 "/>
<path style=" stroke:none;fill-rule:evenodd;fill:rgb(16.470588%,16.078431%,16.470588%);fill-opacity:1;" d="M 3150 2224.265625 C 3237.734375 2193.246094 3313.695312 2135.789062 3367.421875 2059.808594 C 3421.148438 1983.828125 3450 1893.058594 3450 1800 C 3450 1680.652344 3402.589844 1566.191406 3318.199219 1481.800781 C 3233.808594 1397.410156 3119.347656 1350 3000 1350 C 2880.652344 1350 2766.191406 1397.410156 2681.800781 1481.800781 C 2597.410156 1566.191406 2550 1680.652344 2550 1800 C 2550 1893.058594 2578.851562 1983.828125 2632.578125 2059.808594 C 2686.304688 2135.789062 2762.265625 2193.246094 2850 2224.265625 L 2850 2550 L 2400 2550 L 2400 2850 L 2850 2850 L 2851.410156 4339.785156 C 2519.492188 4293.921875 2227.34375 4097.363281 2059.808594 3807.179688 L 2209.808594 3720.574219 L 1650 3397.371094 L 1650 4043.78125 L 1800 3957.179688 C 2047.519531 4385.898438 2504.957031 4650 3000 4650 C 3495.042969 4650 3952.480469 4385.898438 4200 3957.179688 L 4350 4043.78125 L 4350 3397.371094 L 3790.191406 3720.574219 L 3941.453125 3804.988281 C 3774.148438 4096.332031 3481.386719 4293.800781 3148.589844 4339.785156 L 3150 2850 L 3600 2850 L 3600 2550 L 3150 2550 L 3150 2250 M 3225 1800 C 3225 1675.734375 3124.265625 1575 3000 1575 C 2875.734375 1575 2775 1675.734375 2775 1800 C 2775 1924.265625 2875.734375 2025 3000 2025 C 3124.265625 2025 3225 1924.265625 3225 1800 "/>
</g>
</svg>
