<?xml version="1.0" encoding="UTF-8"?>
<svg xmlns="http://www.w3.org/2000/svg" xmlns:xlink="http://www.w3.org/1999/xlink" width="600.000000mm" height="600.000000mm" viewBox="0 0 6000 6000" version="1.1">
<g id="surface591">
<path style="fill-rule:evenodd;fill:rgb(94.509804%,94.117647%,91.764706%);fill-opacity:1;stroke-width:0.3;stroke-linecap:butt;stroke-linejoin:miter;stroke:rgb(16.470588%,16.078431%,16.470588%);stroke-opacity:1;stroke-miterlimit:3;" d="M -260 -300 C -270.608594 -300 -280.782812 -295.785547 -288.284375 -288.284375 C -295.785547 -280.782812 -300 -270.608594 -300 -260 L -300 260 C -300 270.608594 -295.785547 280.782812 -288.284375 288.284375 C -280.782812 295.785547 -270.608594 300 -260 300 L 260 300 C 270.608594 300 280.782812 295.785547 288.284375 288.284375 C 295.785547 280.782812 300 270.608594 300 260 L 300 -260 C 300 -270.608594 295.785547 -280.782812 288.284375 -288.284375 C 280.782812 -295.785547 270.608594 -300 260 -300 L -260 -300 " transform="matrix(10,0,0,-10,3000,3000)"/>
<path style=" stroke:none;fill-rule:evenodd;fill:rgb(0%,35.686275%,54.901961%);fill-opacity:1;" d="M 400 5850 C 261.929688 5850 150 5738.070312 150 5600 L 150 400 C 150 261.929688 261.929688 150 400 150 L 5600 150 C 5738.070312 150 5850 261.929688 5850 400 L 5850 5600 C 5850 5738.070312 5738.070312 5850 5600 5850 L 400 5850 "/>
<path style=" stroke:none;fill-rule:evenodd;fill:rgb(94.509804%,94.117647%,91.764706%);fill-opacity:1;" d="M 900 5100 L 900 900 L 5100 900 L 5100 5100 L 900 5100 "/>
<path style=" stroke:none;fill-rule:evenodd;fill:rgb(16.470588%,16.078431%,16.470588%);fill-opacity:1;" d="M 3900 2100 C 3616.71875 1722.292969 3172.136719 1500 2700 1500 C 2302.175781 1500 1920.644531 1658.035156 1639.339844 1939.339844 C 1358.035156 2220.644531 1200 2602.175781 1200 3000 C 1200 3397.824219 1358.035156 3779.355469 1639.339844 4060.660156 C 1920.644531 4341.964844 2302.175781 4500 2700 4500 C 3183.640625 4500 3637.609375 4266.804688 3919.304688 3873.667969 L 3824.148438 3813.292969 C 3563.234375 4173.9375 3145.128906 4387.5 2700 4387.5 C 2332.011719 4387.5 1979.097656 4241.316406 1718.890625 3981.109375 C 1458.683594 3720.902344 1312.5 3367.988281 1312.5 3000 C 1312.5 2632.011719 1458.683594 2279.097656 1718.890625 2018.890625 C 1979.097656 1758.683594 2332.011719 1612.5 2700 1612.5 C 3106.414062 1612.5 3492.390625 1790.683594 3756.007812 2100 L 3900 2100 "/>
<path style=" stroke:none;fill-rule:evenodd;fill:rgb(16.470588%,16.078431%,16.470588%);fill-opacity:1;" d="M 2475 2437.5 L 1825.085938 2478.117188 C 1795.585938 2479.960938 1769.921875 2498.960938 1759.542969 2526.640625 L 1594.101562 2967.8125 C 1581.46875 3001.496094 1575 3037.175781 1575 3073.148438 L 1575 3487.5 C 1575 3528.921875 1608.578125 3562.5 1650 3562.5 L 1687.5 3562.5 C 1687.5 3376.105469 1838.605469 3225 2025 3225 C 2211.394531 3225 2362.5 3376.105469 2362.5 3562.5 L 3712.5 3562.5 C 3712.5 3460.554688 3758.578125 3364.074219 3837.867188 3300 L 2475 3300 L 2475 2437.5 M 2212.5 2943.75 L 2212.5 2568.75 L 1833.542969 2592.433594 C 1818.792969 2593.355469 1805.960938 2602.855469 1800.769531 2616.691406 L 1675.0625 2951.921875 C 1673.484375 2956.132812 1672.675781 2960.59375 1672.675781 2965.089844 C 1672.675781 2985.800781 1689.464844 3002.589844 1710.175781 3002.589844 C 1711.636719 3002.589844 1713.101562 3002.503906 1714.554688 3002.332031 L 2212.5 2943.75 M 2287.5 3562.5 C 2287.5 3417.523438 2169.976562 3300 2025 3300 C 1880.023438 3300 1762.5 3417.523438 1762.5 3562.5 C 1762.5 3707.476562 1880.023438 3825 2025 3825 C 2169.976562 3825 2287.5 3707.476562 2287.5 3562.5 M 4312.5 3562.5 C 4312.5 3417.523438 4194.976562 3300 4050 3300 C 3905.023438 3300 3787.5 3417.523438 3787.5 3562.5 C 3787.5 3707.476562 3905.023438 3825 4050 3825 C 4194.976562 3825 4312.5 3707.476562 4312.5 3562.5 M 4575 3562.5 L 4800 3487.5 L 4800 3300 L 4262.132812 3300 C 4341.421875 3364.074219 4387.5 3460.554688 4387.5 3562.5 L 4575 3562.5 M 4800 3225 L 4800 2175 L 2625 2175 L 2625 3225 L 4800 3225 "/>
</g>
</svg>
