<?xml version="1.0" encoding="UTF-8"?>
<svg xmlns="http://www.w3.org/2000/svg" xmlns:xlink="http://www.w3.org/1999/xlink" width="600.000000mm" height="600.000000mm" viewBox="0 0 6000 6000" version="1.1">
<g id="surface436">
<path style="fill-rule:evenodd;fill:rgb(94.509804%,94.117647%,91.764706%);fill-opacity:1;stroke-width:0.3;stroke-linecap:butt;stroke-linejoin:miter;stroke:rgb(16.470588%,16.078431%,16.470588%);stroke-opacity:1;stroke-miterlimit:3;" d="M -260 -300 C -270.608594 -300 -280.782812 -295.785547 -288.284375 -288.284375 C -295.785547 -280.782812 -300 -270.608594 -300 -260 L -300 260 C -300 270.608594 -295.785547 280.782812 -288.284375 288.284375 C -280.782812 295.785547 -270.608594 300 -260 300 L 260 300 C 270.608594 300 280.782812 295.785547 288.284375 288.284375 C 295.785547 280.782812 300 270.608594 300 260 L 300 -260 C 300 -270.608594 295.785547 -280.782812 288.284375 -288.284375 C 280.782812 -295.785547 270.608594 -300 260 -300 L -260 -300 " transform="matrix(10,0,0,-10,3000,3000)"/>
<path style=" stroke:none;fill-rule:evenodd;fill:rgb(0%,35.686275%,54.901961%);fill-opacity:1;" d="M 400 5850 C 261.929688 5850 150 5738.070312 150 5600 L 150 400 C 150 261.929688 261.929688 150 400 150 L 5600 150 C 5738.070312 150 5850 261.929688 5850 400 L 5850 5600 C 5850 5738.070312 5738.070312 5850 5600 5850 L 400 5850 "/>
<path style=" stroke:none;fill-rule:evenodd;fill:rgb(94.509804%,94.117647%,91.764706%);fill-opacity:1;" d="M 900 5100 L 900 900 L 5100 900 L 5100 5100 L 900 5100 "/>
<path style=" stroke:none;fill-rule:evenodd;fill:rgb(16.470588%,16.078431%,16.470588%);fill-opacity:1;" d="M 2062.5 4710 L 3615 4710 L 3615 1942.5 C 3615 1830.664062 3524.335938 1740 3412.5 1740 L 2265 1740 C 2153.164062 1740 2062.5 1830.664062 2062.5 1942.5 L 2062.5 2077.5 L 1761.605469 2241.625 C 1718.234375 2265.28125 1691.25 2310.738281 1691.25 2360.140625 L 1691.25 2921.25 C 1556.984375 2921.25 1428.21875 2974.585938 1333.277344 3069.527344 C 1238.335938 3164.46875 1185 3293.234375 1185 3427.5 L 1185 4372.5 C 1185 4558.894531 1336.105469 4710 1522.5 4710 C 1708.894531 4710 1860 4558.894531 1860 4372.5 L 1860 3090 L 2062.5 3090 L 2062.5 4710 M 2062.5 2269.722656 L 1895.175781 2360.984375 C 1873.492188 2372.8125 1860 2395.542969 1860 2420.242188 L 1860 2921.25 L 2062.5 2921.25 L 2062.5 2269.722656 M 1691.25 3090 C 1504.855469 3090 1353.75 3241.105469 1353.75 3427.5 L 1353.75 4372.5 C 1353.75 4465.699219 1429.300781 4541.25 1522.5 4541.25 C 1615.699219 4541.25 1691.25 4465.699219 1691.25 4372.5 L 1691.25 3090 M 2332.5 2820 C 2332.5 2857.277344 2362.722656 2887.5 2400 2887.5 L 3277.5 2887.5 C 3314.777344 2887.5 3345 2857.277344 3345 2820 L 3345 2077.5 C 3345 2040.222656 3314.777344 2010 3277.5 2010 L 2400 2010 C 2362.722656 2010 2332.5 2040.222656 2332.5 2077.5 L 2332.5 2820 "/>
<path style=" stroke:none;fill-rule:evenodd;fill:rgb(0%,35.686275%,54.901961%);fill-opacity:1;" d="M 3615 4260 L 4515 4260 L 4515 1492.5 C 4515 1380.664062 4424.335938 1290 4312.5 1290 L 3165 1290 C 3053.164062 1290 2962.5 1380.664062 2962.5 1492.5 L 2962.5 1627.5 L 2756.25 1740 L 3412.5 1740 C 3524.335938 1740 3615 1830.664062 3615 1942.5 L 3615 4260 M 3615 2437.5 L 4177.5 2437.5 C 4214.777344 2437.5 4245 2407.277344 4245 2370 L 4245 1627.5 C 4245 1590.222656 4214.777344 1560 4177.5 1560 L 3300 1560 C 3262.722656 1560 3232.5 1590.222656 3232.5 1627.5 L 3232.5 1740 L 3412.5 1740 C 3524.335938 1740 3615 1830.664062 3615 1942.5 L 3615 2437.5 "/>
</g>
</svg>
