<?xml version="1.0" encoding="UTF-8"?>
<svg xmlns="http://www.w3.org/2000/svg" xmlns:xlink="http://www.w3.org/1999/xlink" width="600.000000mm" height="600.000000mm" viewBox="0 0 6000 6000" version="1.1">
<g id="surface496">
<path style="fill-rule:evenodd;fill:rgb(94.509804%,94.117647%,91.764706%);fill-opacity:1;stroke-width:0.3;stroke-linecap:butt;stroke-linejoin:miter;stroke:rgb(16.470588%,16.078431%,16.470588%);stroke-opacity:1;stroke-miterlimit:3;" d="M -260 -300 C -270.608594 -300 -280.782812 -295.785547 -288.284375 -288.284375 C -295.785547 -280.782812 -300 -270.608594 -300 -260 L -300 260 C -300 270.608594 -295.785547 280.782812 -288.284375 288.284375 C -280.782812 295.785547 -270.608594 300 -260 300 L 260 300 C 270.608594 300 280.782812 295.785547 288.284375 288.284375 C 295.785547 280.782812 300 270.608594 300 260 L 300 -260 C 300 -270.608594 295.785547 -280.782812 288.284375 -288.284375 C 280.782812 -295.785547 270.608594 -300 260 -300 L -260 -300 " transform="matrix(10,0,0,-10,3000,3000)"/>
<path style=" stroke:none;fill-rule:evenodd;fill:rgb(0%,35.686275%,54.901961%);fill-opacity:1;" d="M 400 5850 C 261.929688 5850 150 5738.070312 150 5600 L 150 400 C 150 261.929688 261.929688 150 400 150 L 5600 150 C 5738.070312 150 5850 261.929688 5850 400 L 5850 5600 C 5850 5738.070312 5738.070312 5850 5600 5850 L 400 5850 "/>
<path style=" stroke:none;fill-rule:evenodd;fill:rgb(94.509804%,94.117647%,91.764706%);fill-opacity:1;" d="M 900 5100 L 900 900 L 5100 900 L 5100 5100 L 900 5100 "/>
<path style=" stroke:none;fill-rule:evenodd;fill:rgb(16.470588%,16.078431%,16.470588%);fill-opacity:1;" d="M 2948.460938 3294.484375 L 2712.363281 3045.0625 L 1201.070312 4474.660156 C 1200.359375 4483.089844 1200 4491.542969 1200 4500 C 1200 4665.683594 1334.316406 4800 1500 4800 C 1508.457031 4800 1516.910156 4799.640625 1525.339844 4798.929688 L 2948.460938 3294.484375 M 3284.695312 2939.039062 L 3589.355469 2616.964844 C 3672.410156 2529.164062 3787.296875 2478.460938 3908.140625 2476.28125 L 3983.125 2474.925781 C 4125.914062 2472.347656 4259.003906 2402.144531 4341.757812 2285.746094 L 4791.675781 1652.910156 C 4797.089844 1645.296875 4800 1636.183594 4800 1626.835938 C 4800 1601.984375 4779.851562 1581.835938 4755 1581.835938 C 4743.066406 1581.835938 4731.621094 1586.578125 4723.179688 1595.015625 L 4165.917969 2152.28125 C 4157.480469 2160.71875 4146.035156 2165.460938 4134.097656 2165.460938 C 4109.246094 2165.460938 4089.097656 2145.3125 4089.097656 2120.460938 C 4089.097656 2108.523438 4093.839844 2097.078125 4102.277344 2088.640625 L 4659.539062 1531.378906 C 4667.976562 1522.941406 4672.71875 1511.492188 4672.71875 1499.558594 C 4672.71875 1474.707031 4652.570312 1454.558594 4627.71875 1454.558594 C 4615.785156 1454.558594 4604.339844 1459.300781 4595.898438 1467.738281 L 4038.640625 2025 C 4030.203125 2033.4375 4018.753906 2038.179688 4006.820312 2038.179688 C 3981.96875 2038.179688 3961.820312 2018.03125 3961.820312 1993.179688 C 3961.820312 1981.246094 3966.5625 1969.796875 3975 1961.359375 L 4532.261719 1404.101562 C 4540.699219 1395.660156 4545.441406 1384.214844 4545.441406 1372.28125 C 4545.441406 1347.429688 4525.292969 1327.28125 4500.441406 1327.28125 C 4488.507812 1327.28125 4477.058594 1332.023438 4468.621094 1340.460938 L 3911.359375 1897.722656 C 3902.921875 1906.160156 3891.476562 1910.902344 3879.539062 1910.902344 C 3854.6875 1910.902344 3834.539062 1890.753906 3834.539062 1865.902344 C 3834.539062 1853.964844 3839.28125 1842.519531 3847.71875 1834.082031 L 4404.984375 1276.820312 C 4413.421875 1268.378906 4418.164062 1256.933594 4418.164062 1245 C 4418.164062 1220.148438 4398.015625 1200 4373.164062 1200 C 4363.816406 1200 4354.703125 1202.910156 4347.089844 1208.324219 L 3714.253906 1658.242188 C 3597.855469 1740.996094 3527.652344 1874.085938 3525.074219 2016.875 L 3523.71875 2091.859375 C 3521.539062 2212.703125 3470.835938 2327.589844 3383.035156 2410.644531 L 3054.484375 2721.433594 L 3284.695312 2939.039062 M 2388.441406 2929.429688 L 2442.691406 2875.183594 C 2470.824219 2847.054688 2508.976562 2831.25 2548.757812 2831.25 C 2589.984375 2831.25 2629.394531 2848.21875 2657.726562 2878.171875 L 4474.660156 4798.929688 C 4483.089844 4799.640625 4491.542969 4800 4500 4800 C 4665.683594 4800 4800 4665.683594 4800 4500 C 4800 4491.542969 4799.640625 4483.089844 4798.929688 4474.660156 L 2962.5 2737.5 L 1468.9375 1243.933594 C 1440.804688 1215.804688 1402.652344 1200 1362.871094 1200 C 1280.027344 1200 1212.871094 1267.15625 1212.871094 1350 C 1212.871094 1608.585938 1315.59375 1856.582031 1498.441406 2039.429688 L 2388.441406 2929.429688 "/>
</g>
</svg>
