<?xml version="1.0" encoding="UTF-8"?>
<svg xmlns="http://www.w3.org/2000/svg" xmlns:xlink="http://www.w3.org/1999/xlink" width="600.000000mm" height="600.000000mm" viewBox="0 0 6000 6000" version="1.1">
<g id="surface551">
<path style="fill-rule:evenodd;fill:rgb(94.509804%,94.117647%,91.764706%);fill-opacity:1;stroke-width:0.3;stroke-linecap:butt;stroke-linejoin:miter;stroke:rgb(16.470588%,16.078431%,16.470588%);stroke-opacity:1;stroke-miterlimit:3;" d="M -260 -300 C -270.608594 -300 -280.782812 -295.785547 -288.284375 -288.284375 C -295.785547 -280.782812 -300 -270.608594 -300 -260 L -300 260 C -300 270.608594 -295.785547 280.782812 -288.284375 288.284375 C -280.782812 295.785547 -270.608594 300 -260 300 L 260 300 C 270.608594 300 280.782812 295.785547 288.284375 288.284375 C 295.785547 280.782812 300 270.608594 300 260 L 300 -260 C 300 -270.608594 295.785547 -280.782812 288.284375 -288.284375 C 280.782812 -295.785547 270.608594 -300 260 -300 L -260 -300 " transform="matrix(10,0,0,-10,3000,3000)"/>
<path style=" stroke:none;fill-rule:evenodd;fill:rgb(0%,35.686275%,54.901961%);fill-opacity:1;" d="M 400 5850 C 261.929688 5850 150 5738.070312 150 5600 L 150 400 C 150 261.929688 261.929688 150 400 150 L 5600 150 C 5738.070312 150 5850 261.929688 5850 400 L 5850 5600 C 5850 5738.070312 5738.070312 5850 5600 5850 L 400 5850 "/>
<path style=" stroke:none;fill-rule:evenodd;fill:rgb(94.509804%,94.117647%,91.764706%);fill-opacity:1;" d="M 900 5100 L 900 900 L 5100 900 L 5100 5100 L 900 5100 "/>
<path style=" stroke:none;fill-rule:evenodd;fill:rgb(16.470588%,16.078431%,16.470588%);fill-opacity:1;" d="M 2370 2715 C 2370 2599.019531 2275.980469 2505 2160 2505 C 2044.019531 2505 1950 2599.019531 1950 2715 C 1950 2830.980469 2044.019531 2925 2160 2925 C 2275.980469 2925 2370 2830.980469 2370 2715 M 3892.5 2715 C 3892.5 2599.019531 3798.480469 2505 3682.5 2505 C 3566.519531 2505 3472.5 2599.019531 3472.5 2715 C 3472.5 2830.980469 3566.519531 2925 3682.5 2925 C 3798.480469 2925 3892.5 2830.980469 3892.5 2715 M 4365 2610 L 4050 2715 L 3945 2715 C 3945 2570.023438 3827.476562 2452.5 3682.5 2452.5 C 3537.523438 2452.5 3420 2570.023438 3420 2715 L 2422.5 2715 C 2422.5 2570.023438 2304.976562 2452.5 2160 2452.5 C 2015.023438 2452.5 1897.5 2570.023438 1897.5 2715 L 1687.5 2715 C 1658.503906 2715 1635 2691.496094 1635 2662.5 L 1635 2363.167969 C 1635 2341.144531 1648.746094 2321.460938 1669.425781 2313.878906 L 1918.582031 2222.519531 C 1939.019531 2215.023438 1956.625 2201.363281 1968.957031 2183.421875 L 2162.351562 1902.125 C 2174.28125 1884.769531 2192.667969 1872.917969 2213.402344 1869.214844 L 2475 1822.5 L 2475 1770 L 1772.617188 1770 C 1751.734375 1770 1731.703125 1761.703125 1716.933594 1746.933594 L 1650.375 1680.375 C 1640.53125 1670.53125 1635 1657.175781 1635 1643.253906 L 1635 1581.746094 C 1635 1567.824219 1640.53125 1554.46875 1650.375 1544.625 L 1930.160156 1363.226562 C 1943.097656 1354.601562 1958.296875 1350 1973.84375 1350 L 3420 1350 L 3630 1455 L 4312.5 1455 C 4341.496094 1455 4365 1478.503906 4365 1507.5 L 4365 2610 M 2868.75 2610 C 2854.253906 2610 2842.5 2598.246094 2842.5 2583.75 L 2842.5 1796.25 C 2842.5 1781.753906 2854.253906 1770 2868.75 1770 L 3288.75 1770 C 3303.246094 1770 3315 1781.753906 3315 1796.25 L 3315 2583.75 C 3315 2598.246094 3303.246094 2610 3288.75 2610 L 2868.75 2610 M 3551.25 2085 C 3536.753906 2085 3525 2073.246094 3525 2058.75 L 3525 1796.25 C 3525 1781.753906 3536.753906 1770 3551.25 1770 L 3918.75 1770 C 3933.246094 1770 3945 1781.753906 3945 1796.25 L 3945 2058.75 C 3945 2073.246094 3933.246094 2085 3918.75 2085 L 3551.25 2085 M 2081.25 1665 C 2066.753906 1665 2055 1653.246094 2055 1638.75 L 2055 1481.25 C 2055 1466.753906 2066.753906 1455 2081.25 1455 L 2448.75 1455 C 2463.246094 1455 2475 1466.753906 2475 1481.25 L 2475 1638.75 C 2475 1653.246094 2463.246094 1665 2448.75 1665 L 2081.25 1665 M 2448.75 1917 C 2463.246094 1917 2475 1928.753906 2475 1943.25 L 2475 2185.890625 C 2475 2199.933594 2463.945312 2211.492188 2449.914062 2212.113281 L 2043.882812 2230.160156 C 2043.570312 2230.175781 2043.261719 2230.183594 2042.949219 2230.183594 C 2031.351562 2230.183594 2021.949219 2220.78125 2021.949219 2209.183594 C 2021.949219 2205.035156 2023.175781 2200.984375 2025.476562 2197.535156 L 2196.914062 1940.378906 C 2206.652344 1925.773438 2223.042969 1917 2240.597656 1917 L 2448.75 1917 "/>
<path style=" stroke:none;fill-rule:evenodd;fill:rgb(16.470588%,16.078431%,16.470588%);fill-opacity:1;" d="M 1635 4590 L 2895 4590 C 2895 4445.023438 3012.523438 4327.5 3157.5 4327.5 C 3302.476562 4327.5 3420 4445.023438 3420 4590 L 4102.5 4590 C 4128.023438 4590 4149.851562 4571.640625 4154.222656 4546.496094 L 4259.222656 3942.746094 C 4259.742188 3939.773438 4260 3936.765625 4260 3933.75 C 4260 3930.734375 4259.742188 3927.726562 4259.222656 3924.753906 L 4154.222656 3321.003906 C 4149.851562 3295.859375 4128.023438 3277.5 4102.5 3277.5 L 2107.5 3277.5 C 2081.976562 3277.5 2060.148438 3295.859375 2055.777344 3321.003906 L 1950.777344 3924.753906 C 1950.257812 3927.726562 1950 3930.734375 1950 3933.75 C 1950 3937.074219 1950.316406 3940.394531 1950.945312 3943.660156 L 2055 4485 L 1635 4485 L 1635 4590 M 3367.5 4590 C 3367.5 4474.019531 3273.480469 4380 3157.5 4380 C 3041.519531 4380 2947.5 4474.019531 2947.5 4590 C 2947.5 4705.980469 3041.519531 4800 3157.5 4800 C 3273.480469 4800 3367.5 4705.980469 3367.5 4590 M 2317.5 4485 C 2303.003906 4485 2291.25 4473.246094 2291.25 4458.75 L 2291.25 3513.75 C 2291.25 3499.253906 2303.003906 3487.5 2317.5 3487.5 L 2737.5 3487.5 C 2751.996094 3487.5 2763.75 3499.253906 2763.75 3513.75 L 2763.75 4458.75 C 2763.75 4473.246094 2751.996094 4485 2737.5 4485 L 2317.5 4485 M 3367.5 3828.75 C 3353.003906 3828.75 3341.25 3816.996094 3341.25 3802.5 L 3341.25 3513.75 C 3341.25 3499.253906 3353.003906 3487.5 3367.5 3487.5 L 3945 3487.5 C 3959.496094 3487.5 3971.25 3499.253906 3971.25 3513.75 L 3971.25 3802.5 C 3971.25 3816.996094 3959.496094 3828.75 3945 3828.75 L 3367.5 3828.75 "/>
</g>
</svg>
