<?xml version="1.0" encoding="UTF-8"?>
<svg xmlns="http://www.w3.org/2000/svg" xmlns:xlink="http://www.w3.org/1999/xlink" width="600.000000mm" height="600.000000mm" viewBox="0 0 6000 6000" version="1.1">
<g id="surface631">
<path style="fill-rule:evenodd;fill:rgb(94.509804%,94.117647%,91.764706%);fill-opacity:1;stroke-width:0.3;stroke-linecap:butt;stroke-linejoin:miter;stroke:rgb(16.470588%,16.078431%,16.470588%);stroke-opacity:1;stroke-miterlimit:3;" d="M -260 -300 C -270.608594 -300 -280.782812 -295.785547 -288.284375 -288.284375 C -295.785547 -280.782812 -300 -270.608594 -300 -260 L -300 260 C -300 270.608594 -295.785547 280.782812 -288.284375 288.284375 C -280.782812 295.785547 -270.608594 300 -260 300 L 260 300 C 270.608594 300 280.782812 295.785547 288.284375 288.284375 C 295.785547 280.782812 300 270.608594 300 260 L 300 -260 C 300 -270.608594 295.785547 -280.782812 288.284375 -288.284375 C 280.782812 -295.785547 270.608594 -300 260 -300 L -260 -300 " transform="matrix(10,0,0,-10,3000,3000)"/>
<path style=" stroke:none;fill-rule:evenodd;fill:rgb(0%,35.686275%,54.901961%);fill-opacity:1;" d="M 400 5850 C 261.929688 5850 150 5738.070312 150 5600 L 150 400 C 150 261.929688 261.929688 150 400 150 L 5600 150 C 5738.070312 150 5850 261.929688 5850 400 L 5850 5600 C 5850 5738.070312 5738.070312 5850 5600 5850 L 400 5850 "/>
<path style=" stroke:none;fill-rule:evenodd;fill:rgb(94.509804%,94.117647%,91.764706%);fill-opacity:1;" d="M 900 5100 L 900 900 L 5100 900 L 5100 5100 L 900 5100 "/>
<path style=" stroke:none;fill-rule:evenodd;fill:rgb(16.470588%,16.078431%,16.470588%);fill-opacity:1;" d="M 1920 4080 C 1920 3930.882812 1799.117188 3810 1650 3810 C 1500.882812 3810 1380 3930.882812 1380 4080 C 1380 4229.117188 1500.882812 4350 1650 4350 C 1799.117188 4350 1920 4229.117188 1920 4080 M 4620 4080 C 4620 3930.882812 4499.117188 3810 4350 3810 C 4200.882812 3810 4080 3930.882812 4080 4080 C 4080 4229.117188 4200.882812 4350 4350 4350 C 4499.117188 4350 4620 4229.117188 4620 4080 M 1050 4350 C 1199.117188 4350 1320 4229.117188 1320 4080 C 1320 3930.882812 1199.117188 3810 1050 3810 L 1050 4350 M 4950 4350 C 4800.882812 4350 4680 4229.117188 4680 4080 C 4680 3930.882812 4800.882812 3810 4950 3810 L 4950 4350 M 1050 3750 L 1050 3300 L 4950 3300 L 4950 3750 L 1050 3750 "/>
<path style=" stroke:none;fill-rule:evenodd;fill:rgb(16.470588%,16.078431%,16.470588%);fill-opacity:1;" d="M 2490 2970 C 2490 2820.882812 2610.882812 2700 2760 2700 C 2909.117188 2700 3030 2820.882812 3030 2970 C 3030 3119.117188 2909.117188 3240 2760 3240 C 2610.882812 3240 2490 3119.117188 2490 2970 M 3097.5 2970 L 3266.25 2970 C 3303.527344 2970 3333.75 2939.777344 3333.75 2902.5 L 3333.75 2588.429688 C 3333.75 2555.433594 3309.894531 2527.273438 3277.347656 2521.847656 L 2321.25 2362.5 L 1868.519531 1909.769531 C 1855.859375 1897.113281 1838.691406 1890 1820.789062 1890 L 1050 1890 L 1050 2025 L 1140 2025 L 1140 2430 L 1050 2430 L 1050 2970 L 2422.5 2970 C 2422.5 2783.605469 2573.605469 2632.5 2760 2632.5 C 2946.394531 2632.5 3097.5 2783.605469 3097.5 2970 M 1241.25 2430 L 2172.269531 2430 C 2190.910156 2430 2206.019531 2414.890625 2206.019531 2396.25 C 2206.019531 2387.300781 2202.464844 2378.714844 2196.136719 2372.386719 L 1868.519531 2044.769531 C 1855.859375 2032.113281 1838.691406 2025 1820.789062 2025 L 1241.25 2025 L 1241.25 2430 "/>
<path style=" stroke:none;fill-rule:evenodd;fill:rgb(16.470588%,16.078431%,16.470588%);fill-opacity:1;" d="M 3903.75 2970 C 3903.75 2820.882812 4024.632812 2700 4173.75 2700 C 4322.867188 2700 4443.75 2820.882812 4443.75 2970 C 4443.75 3119.117188 4322.867188 3240 4173.75 3240 C 4024.632812 3240 3903.75 3119.117188 3903.75 2970 M 4950 2970 L 4950 2430 L 4201.707031 2430 C 4164.429688 2430 4134.207031 2399.777344 4134.207031 2362.5 C 4134.207031 2344.597656 4141.320312 2327.429688 4153.976562 2314.769531 L 4423.976562 2044.769531 C 4436.636719 2032.113281 4453.804688 2025 4471.707031 2025 L 4950 2025 L 4950 1890 L 4332.425781 1890 C 4317.097656 1890 4302.226562 1895.214844 4290.257812 1904.792969 L 3659.082031 2409.730469 C 3643.070312 2422.539062 3633.75 2441.933594 3633.75 2462.4375 L 3633.75 2902.5 C 3633.75 2939.777344 3663.972656 2970 3701.25 2970 L 3836.25 2970 C 3836.25 2783.605469 3987.355469 2632.5 4173.75 2632.5 C 4360.144531 2632.5 4511.25 2783.605469 4511.25 2970 L 4950 2970 "/>
</g>
</svg>
