<?xml version="1.0" encoding="UTF-8"?>
<svg xmlns="http://www.w3.org/2000/svg" xmlns:xlink="http://www.w3.org/1999/xlink" width="600.000000mm" height="600.000000mm" viewBox="0 0 6000 6000" version="1.1">
<g id="surface556">
<path style="fill-rule:evenodd;fill:rgb(94.509804%,94.117647%,91.764706%);fill-opacity:1;stroke-width:0.3;stroke-linecap:butt;stroke-linejoin:miter;stroke:rgb(16.470588%,16.078431%,16.470588%);stroke-opacity:1;stroke-miterlimit:3;" d="M -260 -300 C -270.608594 -300 -280.782812 -295.785547 -288.284375 -288.284375 C -295.785547 -280.782812 -300 -270.608594 -300 -260 L -300 260 C -300 270.608594 -295.785547 280.782812 -288.284375 288.284375 C -280.782812 295.785547 -270.608594 300 -260 300 L 260 300 C 270.608594 300 280.782812 295.785547 288.284375 288.284375 C 295.785547 280.782812 300 270.608594 300 260 L 300 -260 C 300 -270.608594 295.785547 -280.782812 288.284375 -288.284375 C 280.782812 -295.785547 270.608594 -300 260 -300 L -260 -300 " transform="matrix(10,0,0,-10,3000,3000)"/>
<path style=" stroke:none;fill-rule:evenodd;fill:rgb(0%,35.686275%,54.901961%);fill-opacity:1;" d="M 400 5850 C 261.929688 5850 150 5738.070312 150 5600 L 150 400 C 150 261.929688 261.929688 150 400 150 L 5600 150 C 5738.070312 150 5850 261.929688 5850 400 L 5850 5600 C 5850 5738.070312 5738.070312 5850 5600 5850 L 400 5850 "/>
<path style=" stroke:none;fill-rule:evenodd;fill:rgb(94.509804%,94.117647%,91.764706%);fill-opacity:1;" d="M 900 5100 L 900 900 L 5100 900 L 5100 5100 L 900 5100 "/>
<path style=" stroke:none;fill-rule:evenodd;fill:rgb(16.470588%,16.078431%,16.470588%);fill-opacity:1;" d="M 2280 3720 C 2280 3587.453125 2172.546875 3480 2040 3480 C 1907.453125 3480 1800 3587.453125 1800 3720 C 1800 3852.546875 1907.453125 3960 2040 3960 C 2172.546875 3960 2280 3852.546875 2280 3720 M 4020 3720 C 4020 3587.453125 3912.546875 3480 3780 3480 C 3647.453125 3480 3540 3587.453125 3540 3720 C 3540 3852.546875 3647.453125 3960 3780 3960 C 3912.546875 3960 4020 3852.546875 4020 3720 M 4560 3600 L 4200 3720 L 4080 3720 C 4080 3554.316406 3945.683594 3420 3780 3420 C 3614.316406 3420 3480 3554.316406 3480 3720 L 2340 3720 C 2340 3554.316406 2205.683594 3420 2040 3420 C 1874.316406 3420 1740 3554.316406 1740 3720 L 1500 3720 C 1466.863281 3720 1440 3693.136719 1440 3660 L 1440 3317.90625 C 1440 3292.734375 1455.710938 3270.238281 1479.34375 3261.574219 L 1764.09375 3157.167969 C 1787.453125 3148.601562 1807.574219 3132.988281 1821.667969 3112.484375 L 2042.691406 2791 C 2056.324219 2771.164062 2077.339844 2757.621094 2101.03125 2753.386719 L 2400 2700 L 2400 2640 L 1597.277344 2640 C 1573.410156 2640 1550.515625 2630.519531 1533.636719 2613.640625 L 1457.574219 2537.570312 C 1446.320312 2526.320312 1440 2511.058594 1440 2495.144531 L 1440 2424.855469 C 1440 2408.941406 1446.320312 2393.679688 1457.574219 2382.429688 L 1777.324219 2175.117188 C 1792.109375 2165.257812 1809.480469 2160 1827.25 2160 L 3480 2160 L 3720 2280 L 4500 2280 C 4533.136719 2280 4560 2306.863281 4560 2340 L 4560 3600 M 2850 3600 C 2833.429688 3600 2820 3586.570312 2820 3570 L 2820 2670 C 2820 2653.429688 2833.429688 2640 2850 2640 L 3330 2640 C 3346.570312 2640 3360 2653.429688 3360 2670 L 3360 3570 C 3360 3586.570312 3346.570312 3600 3330 3600 L 2850 3600 M 3630 3000 C 3613.429688 3000 3600 2986.570312 3600 2970 L 3600 2670 C 3600 2653.429688 3613.429688 2640 3630 2640 L 4050 2640 C 4066.570312 2640 4080 2653.429688 4080 2670 L 4080 2970 C 4080 2986.570312 4066.570312 3000 4050 3000 L 3630 3000 M 1950 2520 C 1933.429688 2520 1920 2506.570312 1920 2490 L 1920 2310 C 1920 2293.429688 1933.429688 2280 1950 2280 L 2370 2280 C 2386.570312 2280 2400 2293.429688 2400 2310 L 2400 2490 C 2400 2506.570312 2386.570312 2520 2370 2520 L 1950 2520 M 2370 2808 C 2386.570312 2808 2400 2821.429688 2400 2838 L 2400 3115.300781 C 2400 3131.351562 2387.367188 3144.558594 2371.332031 3145.273438 L 1907.296875 3165.898438 C 1906.941406 3165.914062 1906.585938 3165.921875 1906.230469 3165.921875 C 1892.976562 3165.921875 1882.230469 3155.175781 1882.230469 3141.921875 C 1882.230469 3137.183594 1883.632812 3132.550781 1886.261719 3128.609375 L 2082.1875 2834.71875 C 2093.316406 2818.027344 2112.050781 2808 2132.113281 2808 L 2370 2808 "/>
</g>
</svg>
