<?xml version="1.0" encoding="UTF-8"?>
<svg xmlns="http://www.w3.org/2000/svg" xmlns:xlink="http://www.w3.org/1999/xlink" width="600.000000mm" height="600.000000mm" viewBox="0 0 6000 6000" version="1.1">
<g id="surface486">
<path style="fill-rule:evenodd;fill:rgb(94.509804%,94.117647%,91.764706%);fill-opacity:1;stroke-width:0.3;stroke-linecap:butt;stroke-linejoin:miter;stroke:rgb(16.470588%,16.078431%,16.470588%);stroke-opacity:1;stroke-miterlimit:3;" d="M -260 -300 C -270.608594 -300 -280.782812 -295.785547 -288.284375 -288.284375 C -295.785547 -280.782812 -300 -270.608594 -300 -260 L -300 260 C -300 270.608594 -295.785547 280.782812 -288.284375 288.284375 C -280.782812 295.785547 -270.608594 300 -260 300 L 260 300 C 270.608594 300 280.782812 295.785547 288.284375 288.284375 C 295.785547 280.782812 300 270.608594 300 260 L 300 -260 C 300 -270.608594 295.785547 -280.782812 288.284375 -288.284375 C 280.782812 -295.785547 270.608594 -300 260 -300 L -260 -300 " transform="matrix(10,0,0,-10,3000,3000)"/>
<path style=" stroke:none;fill-rule:evenodd;fill:rgb(0%,35.686275%,54.901961%);fill-opacity:1;" d="M 400 5850 C 261.929688 5850 150 5738.070312 150 5600 L 150 400 C 150 261.929688 261.929688 150 400 150 L 5600 150 C 5738.070312 150 5850 261.929688 5850 400 L 5850 5600 C 5850 5738.070312 5738.070312 5850 5600 5850 L 400 5850 "/>
<path style=" stroke:none;fill-rule:evenodd;fill:rgb(94.509804%,94.117647%,91.764706%);fill-opacity:1;" d="M 900 5100 L 900 900 L 5100 900 L 5100 5100 L 900 5100 "/>
<path style=" stroke:none;fill-rule:evenodd;fill:rgb(16.470588%,16.078431%,16.470588%);fill-opacity:1;" d="M 4800 4050 L 4800 3675 L 4425 3675 C 4300.734375 3675 4200 3574.265625 4200 3450 L 4200 3412.5 C 4200 3253.371094 4136.785156 3100.757812 4024.265625 2988.234375 C 3911.742188 2875.714844 3759.128906 2812.5 3600 2812.5 L 3426.183594 2812.5 C 3384.617188 2651.507812 3290.730469 2508.894531 3159.28125 2407.074219 C 3027.828125 2305.253906 2866.273438 2250 2700 2250 L 2062.5 2250 L 2062.5 2475 L 1350 2475 C 1267.15625 2475 1200 2542.15625 1200 2625 C 1200 2707.84375 1267.15625 2775 1350 2775 L 2062.5 2775 L 2062.5 3225 L 1350 3225 C 1267.15625 3225 1200 3292.15625 1200 3375 C 1200 3457.84375 1267.15625 3525 1350 3525 L 2062.5 3525 L 2062.5 3750 L 2700 3750 C 2866.273438 3750 3027.828125 3694.746094 3159.28125 3592.925781 C 3290.730469 3491.105469 3384.617188 3348.492188 3426.183594 3187.5 L 3600 3187.5 C 3724.265625 3187.5 3825 3288.234375 3825 3412.5 L 3825 3450 C 3825 3609.128906 3888.214844 3761.742188 4000.734375 3874.265625 C 4113.257812 3986.785156 4265.871094 4050 4425 4050 L 4800 4050 "/>
</g>
</svg>
