<?xml version="1.0" encoding="UTF-8"?>
<svg xmlns="http://www.w3.org/2000/svg" xmlns:xlink="http://www.w3.org/1999/xlink" width="600.000000mm" height="600.000000mm" viewBox="0 0 6000 6000" version="1.1">
<g id="surface431">
<path style="fill-rule:evenodd;fill:rgb(94.509804%,94.117647%,91.764706%);fill-opacity:1;stroke-width:0.3;stroke-linecap:butt;stroke-linejoin:miter;stroke:rgb(16.470588%,16.078431%,16.470588%);stroke-opacity:1;stroke-miterlimit:3;" d="M -260 -300 C -270.608594 -300 -280.782812 -295.785547 -288.284375 -288.284375 C -295.785547 -280.782812 -300 -270.608594 -300 -260 L -300 260 C -300 270.608594 -295.785547 280.782812 -288.284375 288.284375 C -280.782812 295.785547 -270.608594 300 -260 300 L 260 300 C 270.608594 300 280.782812 295.785547 288.284375 288.284375 C 295.785547 280.782812 300 270.608594 300 260 L 300 -260 C 300 -270.608594 295.785547 -280.782812 288.284375 -288.284375 C 280.782812 -295.785547 270.608594 -300 260 -300 L -260 -300 " transform="matrix(10,0,0,-10,3000,3000)"/>
<path style=" stroke:none;fill-rule:evenodd;fill:rgb(0%,35.686275%,54.901961%);fill-opacity:1;" d="M 400 5850 C 261.929688 5850 150 5738.070312 150 5600 L 150 400 C 150 261.929688 261.929688 150 400 150 L 5600 150 C 5738.070312 150 5850 261.929688 5850 400 L 5850 5600 C 5850 5738.070312 5738.070312 5850 5600 5850 L 400 5850 "/>
<path style=" stroke:none;fill-rule:evenodd;fill:rgb(94.509804%,94.117647%,91.764706%);fill-opacity:1;" d="M 900 5100 L 900 900 L 5100 900 L 5100 5100 L 900 5100 "/>
<path style=" stroke:none;fill-rule:evenodd;fill:rgb(16.470588%,16.078431%,16.470588%);fill-opacity:1;" d="M 2475 4650 L 4200 4650 L 4200 1575 C 4200 1450.734375 4099.265625 1350 3975 1350 L 2700 1350 C 2575.734375 1350 2475 1450.734375 2475 1575 L 2475 1725 L 2140.671875 1907.363281 C 2092.484375 1933.648438 2062.5 1984.15625 2062.5 2039.046875 L 2062.5 2662.5 C 1913.316406 2662.5 1770.242188 2721.761719 1664.753906 2827.253906 C 1559.261719 2932.742188 1500 3075.816406 1500 3225 L 1500 4275 C 1500 4374.457031 1539.507812 4469.839844 1609.835938 4540.164062 C 1680.160156 4610.492188 1775.542969 4650 1875 4650 C 1974.457031 4650 2069.839844 4610.492188 2140.164062 4540.164062 C 2210.492188 4469.839844 2250 4374.457031 2250 4275 L 2250 2850 L 2475 2850 L 2475 4650 M 2475 1938.578125 L 2289.085938 2039.988281 C 2264.992188 2053.128906 2250 2078.382812 2250 2105.828125 L 2250 2662.5 L 2475 2662.5 L 2475 1938.578125 M 2062.5 2850 C 1963.042969 2850 1867.660156 2889.507812 1797.335938 2959.835938 C 1727.007812 3030.160156 1687.5 3125.542969 1687.5 3225 L 1687.5 4275 C 1687.5 4378.554688 1771.445312 4462.5 1875 4462.5 C 1978.554688 4462.5 2062.5 4378.554688 2062.5 4275 L 2062.5 2850 M 2775 2550 C 2775 2591.421875 2808.578125 2625 2850 2625 L 3825 2625 C 3866.421875 2625 3900 2591.421875 3900 2550 L 3900 1725 C 3900 1683.578125 3866.421875 1650 3825 1650 L 2850 1650 C 2808.578125 1650 2775 1683.578125 2775 1725 L 2775 2550 "/>
</g>
</svg>
