<?xml version="1.0" encoding="UTF-8"?>
<svg xmlns="http://www.w3.org/2000/svg" xmlns:xlink="http://www.w3.org/1999/xlink" width="600.000000mm" height="600.000000mm" viewBox="0 0 6000 6000" version="1.1">
<g id="surface491">
<path style="fill-rule:evenodd;fill:rgb(94.509804%,94.117647%,91.764706%);fill-opacity:1;stroke-width:0.3;stroke-linecap:butt;stroke-linejoin:miter;stroke:rgb(16.470588%,16.078431%,16.470588%);stroke-opacity:1;stroke-miterlimit:3;" d="M -260 -300 C -270.608594 -300 -280.782812 -295.785547 -288.284375 -288.284375 C -295.785547 -280.782812 -300 -270.608594 -300 -260 L -300 260 C -300 270.608594 -295.785547 280.782812 -288.284375 288.284375 C -280.782812 295.785547 -270.608594 300 -260 300 L 260 300 C 270.608594 300 280.782812 295.785547 288.284375 288.284375 C 295.785547 280.782812 300 270.608594 300 260 L 300 -260 C 300 -270.608594 295.785547 -280.782812 288.284375 -288.284375 C 280.782812 -295.785547 270.608594 -300 260 -300 L -260 -300 " transform="matrix(10,0,0,-10,3000,3000)"/>
<path style=" stroke:none;fill-rule:evenodd;fill:rgb(0%,35.686275%,54.901961%);fill-opacity:1;" d="M 400 5850 C 261.929688 5850 150 5738.070312 150 5600 L 150 400 C 150 261.929688 261.929688 150 400 150 L 5600 150 C 5738.070312 150 5850 261.929688 5850 400 L 5850 5600 C 5850 5738.070312 5738.070312 5850 5600 5850 L 400 5850 "/>
<path style=" stroke:none;fill-rule:evenodd;fill:rgb(94.509804%,94.117647%,91.764706%);fill-opacity:1;" d="M 900 5100 L 900 900 L 5100 900 L 5100 5100 L 900 5100 "/>
<path style=" stroke:none;fill-rule:evenodd;fill:rgb(16.470588%,16.078431%,16.470588%);fill-opacity:1;" d="M 4800 3975 L 4500 3975 L 4500 3675 L 1500 3675 L 1500 3975 L 1200 3975 L 1200 2625 C 1235.410156 2577.785156 1290.984375 2550 1350 2550 C 1409.015625 2550 1464.589844 2577.785156 1500 2625 L 1500 3225 L 3900 3225 C 4059.128906 3225 4211.742188 3161.785156 4324.265625 3049.265625 C 4436.785156 2936.742188 4500 2784.128906 4500 2625 L 4500 1875 C 4535.410156 1827.785156 4590.984375 1800 4650 1800 C 4709.015625 1800 4764.589844 1827.785156 4800 1875 L 4800 3975 M 3487.5 3150 L 1687.5 3150 C 1625.367188 3150 1575 3099.632812 1575 3037.5 C 1575 3001.496094 1592.230469 2967.667969 1621.355469 2946.5 C 1725.609375 2870.71875 1842.921875 2814.78125 1967.429688 2781.484375 L 1967.433594 2781.484375 C 2169.683594 2727.394531 2378.140625 2700 2587.5 2700 C 2796.859375 2700 3005.316406 2727.394531 3207.566406 2781.484375 L 3207.570312 2781.484375 C 3332.078125 2814.78125 3449.390625 2870.71875 3553.644531 2946.5 C 3582.769531 2967.667969 3600 3001.496094 3600 3037.5 C 3600 3099.632812 3549.632812 3150 3487.5 3150 M 4384.109375 2440.890625 C 4429.269531 2486.054688 4437.382812 2564.566406 4406.660156 2659.160156 C 4375.9375 2753.75 4308.894531 2856.671875 4220.285156 2945.285156 C 4131.671875 3033.894531 4028.75 3100.9375 3934.160156 3131.660156 C 3839.566406 3162.382812 3761.054688 3154.269531 3715.890625 3109.109375 C 3670.730469 3063.945312 3662.617188 2985.433594 3693.339844 2890.839844 C 3724.0625 2796.25 3791.105469 2693.328125 3879.714844 2604.714844 C 3968.328125 2516.105469 4071.25 2449.0625 4165.839844 2418.339844 C 4260.433594 2387.617188 4338.945312 2395.730469 4384.109375 2440.890625 "/>
</g>
</svg>
