<?xml version="1.0" encoding="UTF-8"?>
<svg xmlns="http://www.w3.org/2000/svg" xmlns:xlink="http://www.w3.org/1999/xlink" width="600.000000mm" height="600.000000mm" viewBox="0 0 6000 6000" version="1.1">
<g id="surface596">
<path style="fill-rule:evenodd;fill:rgb(94.509804%,94.117647%,91.764706%);fill-opacity:1;stroke-width:0.3;stroke-linecap:butt;stroke-linejoin:miter;stroke:rgb(16.470588%,16.078431%,16.470588%);stroke-opacity:1;stroke-miterlimit:3;" d="M -260 -300 C -270.608594 -300 -280.782812 -295.785547 -288.284375 -288.284375 C -295.785547 -280.782812 -300 -270.608594 -300 -260 L -300 260 C -300 270.608594 -295.785547 280.782812 -288.284375 288.284375 C -280.782812 295.785547 -270.608594 300 -260 300 L 260 300 C 270.608594 300 280.782812 295.785547 288.284375 288.284375 C 295.785547 280.782812 300 270.608594 300 260 L 300 -260 C 300 -270.608594 295.785547 -280.782812 288.284375 -288.284375 C 280.782812 -295.785547 270.608594 -300 260 -300 L -260 -300 " transform="matrix(10,0,0,-10,3000,3000)"/>
<path style=" stroke:none;fill-rule:evenodd;fill:rgb(0%,35.686275%,54.901961%);fill-opacity:1;" d="M 400 5850 C 261.929688 5850 150 5738.070312 150 5600 L 150 400 C 150 261.929688 261.929688 150 400 150 L 5600 150 C 5738.070312 150 5850 261.929688 5850 400 L 5850 5600 C 5850 5738.070312 5738.070312 5850 5600 5850 L 400 5850 "/>
<path style=" stroke:none;fill-rule:evenodd;fill:rgb(94.509804%,94.117647%,91.764706%);fill-opacity:1;" d="M 900 5100 L 900 900 L 5100 900 L 5100 5100 L 900 5100 "/>
<path style=" stroke:none;fill-rule:evenodd;fill:rgb(16.470588%,16.078431%,16.470588%);fill-opacity:1;" d="M 2100 2100 C 2383.28125 1722.292969 2827.863281 1500 3300 1500 C 3697.824219 1500 4079.355469 1658.035156 4360.660156 1939.339844 C 4641.964844 2220.644531 4800 2602.175781 4800 3000 C 4800 3397.824219 4641.964844 3779.355469 4360.660156 4060.660156 C 4079.355469 4341.964844 3697.824219 4500 3300 4500 C 2816.359375 4500 2362.390625 4266.804688 2080.695312 3873.667969 L 2175.851562 3813.292969 C 2436.765625 4173.9375 2854.871094 4387.5 3300 4387.5 C 3667.988281 4387.5 4020.902344 4241.316406 4281.109375 3981.109375 C 4541.316406 3720.902344 4687.5 3367.988281 4687.5 3000 C 4687.5 2632.011719 4541.316406 2279.097656 4281.109375 2018.890625 C 4020.902344 1758.683594 3667.988281 1612.5 3300 1612.5 C 2893.585938 1612.5 2507.609375 1790.683594 2243.992188 2100 L 2100 2100 "/>
<path style=" stroke:none;fill-rule:evenodd;fill:rgb(16.470588%,16.078431%,16.470588%);fill-opacity:1;" d="M 3525 2437.5 L 4174.914062 2478.117188 C 4204.414062 2479.960938 4230.078125 2498.960938 4240.457031 2526.640625 L 4405.898438 2967.8125 C 4418.53125 3001.496094 4425 3037.175781 4425 3073.148438 L 4425 3487.5 C 4425 3528.921875 4391.421875 3562.5 4350 3562.5 L 4312.5 3562.5 C 4312.5 3376.105469 4161.394531 3225 3975 3225 C 3788.605469 3225 3637.5 3376.105469 3637.5 3562.5 L 2287.5 3562.5 C 2287.5 3460.554688 2241.421875 3364.074219 2162.132812 3300 L 3525 3300 L 3525 2437.5 M 3787.5 2943.75 L 3787.5 2568.75 L 4166.457031 2592.433594 C 4181.207031 2593.355469 4194.039062 2602.855469 4199.230469 2616.691406 L 4324.9375 2951.921875 C 4326.515625 2956.132812 4327.324219 2960.59375 4327.324219 2965.089844 C 4327.324219 2985.800781 4310.535156 3002.589844 4289.824219 3002.589844 C 4288.363281 3002.589844 4286.898438 3002.503906 4285.445312 3002.332031 L 3787.5 2943.75 M 3712.5 3562.5 C 3712.5 3417.523438 3830.023438 3300 3975 3300 C 4119.976562 3300 4237.5 3417.523438 4237.5 3562.5 C 4237.5 3707.476562 4119.976562 3825 3975 3825 C 3830.023438 3825 3712.5 3707.476562 3712.5 3562.5 M 1687.5 3562.5 C 1687.5 3417.523438 1805.023438 3300 1950 3300 C 2094.976562 3300 2212.5 3417.523438 2212.5 3562.5 C 2212.5 3707.476562 2094.976562 3825 1950 3825 C 1805.023438 3825 1687.5 3707.476562 1687.5 3562.5 M 1425 3562.5 L 1200 3487.5 L 1200 3300 L 1737.867188 3300 C 1658.578125 3364.074219 1612.5 3460.554688 1612.5 3562.5 L 1425 3562.5 M 1200 3225 L 1200 2175 L 3375 2175 L 3375 3225 L 1200 3225 "/>
</g>
</svg>
