<?xml version="1.0" encoding="UTF-8"?>
<svg xmlns="http://www.w3.org/2000/svg" xmlns:xlink="http://www.w3.org/1999/xlink" width="600.000000mm" height="600.000000mm" viewBox="0 0 6000 6000" version="1.1">
<g id="surface586">
<path style="fill-rule:evenodd;fill:rgb(94.509804%,94.117647%,91.764706%);fill-opacity:1;stroke-width:0.3;stroke-linecap:butt;stroke-linejoin:miter;stroke:rgb(16.470588%,16.078431%,16.470588%);stroke-opacity:1;stroke-miterlimit:3;" d="M -260 -300 C -270.608594 -300 -280.782812 -295.785547 -288.284375 -288.284375 C -295.785547 -280.782812 -300 -270.608594 -300 -260 L -300 260 C -300 270.608594 -295.785547 280.782812 -288.284375 288.284375 C -280.782812 295.785547 -270.608594 300 -260 300 L 260 300 C 270.608594 300 280.782812 295.785547 288.284375 288.284375 C 295.785547 280.782812 300 270.608594 300 260 L 300 -260 C 300 -270.608594 295.785547 -280.782812 288.284375 -288.284375 C 280.782812 -295.785547 270.608594 -300 260 -300 L -260 -300 " transform="matrix(10,0,0,-10,3000,3000)"/>
<path style=" stroke:none;fill-rule:evenodd;fill:rgb(0%,35.686275%,54.901961%);fill-opacity:1;" d="M 400 5850 C 261.929688 5850 150 5738.070312 150 5600 L 150 400 C 150 261.929688 261.929688 150 400 150 L 5600 150 C 5738.070312 150 5850 261.929688 5850 400 L 5850 5600 C 5850 5738.070312 5738.070312 5850 5600 5850 L 400 5850 "/>
<path style=" stroke:none;fill-rule:evenodd;fill:rgb(94.509804%,94.117647%,91.764706%);fill-opacity:1;" d="M 900 5100 L 900 900 L 5100 900 L 5100 5100 L 900 5100 "/>
<path style=" stroke:none;fill-rule:evenodd;fill:rgb(16.470588%,16.078431%,16.470588%);fill-opacity:1;" d="M 1200 1950 C 1200 1830.652344 1247.410156 1716.191406 1331.800781 1631.800781 C 1416.191406 1547.410156 1530.652344 1500 1650 1500 L 4350 1500 C 4469.347656 1500 4583.808594 1547.410156 4668.199219 1631.800781 C 4752.589844 1716.191406 4800 1830.652344 4800 1950 L 1200 1950 M 1260 3840 L 1260 2160 L 1920 2160 C 2055.261719 2160 2184.980469 2213.730469 2280.625 2309.375 C 2376.269531 2405.019531 2430 2534.738281 2430 2670 C 2430 2805.261719 2376.269531 2934.980469 2280.625 3030.625 C 2184.980469 3126.269531 2055.261719 3180 1920 3180 L 1515 3180 L 1515 3840 L 1260 3840 M 1515 2940 L 1905 2940 C 2054.117188 2940 2175 2819.117188 2175 2670 C 2175 2520.882812 2054.117188 2400 1905 2400 L 1515 2400 L 1515 2940 M 2580 3120 L 2580 2880 L 2820 2880 L 2820 2640 L 3060 2640 L 3060 2880 L 3300 2880 L 3300 3120 L 3060 3120 L 3060 3360 L 2820 3360 L 2820 3120 L 2580 3120 M 3570 3840 L 3570 2160 L 4260 2160 C 4387.304688 2160 4509.394531 2210.570312 4599.410156 2300.589844 C 4689.429688 2390.605469 4740 2512.695312 4740 2640 C 4740 2740.34375 4708.550781 2838.167969 4650.078125 2919.714844 C 4591.601562 3001.261719 4509.042969 3062.429688 4414 3094.625 L 4800 3840 L 4500 3840 L 4155 3120 L 3825 3120 L 3825 3840 L 3570 3840 M 3825 2895 L 3825 2385 L 4245 2385 C 4385.832031 2385 4500 2499.167969 4500 2640 C 4500 2780.832031 4385.832031 2895 4245 2895 L 3825 2895 M 1200 4050 C 1200 4169.347656 1247.410156 4283.808594 1331.800781 4368.199219 C 1416.191406 4452.589844 1530.652344 4500 1650 4500 L 4350 4500 C 4469.347656 4500 4583.808594 4452.589844 4668.199219 4368.199219 C 4752.589844 4283.808594 4800 4169.347656 4800 4050 L 1200 4050 "/>
</g>
</svg>
