<?xml version="1.0" encoding="UTF-8"?>
<svg xmlns="http://www.w3.org/2000/svg" xmlns:xlink="http://www.w3.org/1999/xlink" width="600.000000mm" height="600.000000mm" viewBox="0 0 6000 6000" version="1.1">
<g id="surface481">
<path style="fill-rule:evenodd;fill:rgb(94.509804%,94.117647%,91.764706%);fill-opacity:1;stroke-width:0.3;stroke-linecap:butt;stroke-linejoin:miter;stroke:rgb(16.470588%,16.078431%,16.470588%);stroke-opacity:1;stroke-miterlimit:3;" d="M -260 -300 C -270.608594 -300 -280.782812 -295.785547 -288.284375 -288.284375 C -295.785547 -280.782812 -300 -270.608594 -300 -260 L -300 260 C -300 270.608594 -295.785547 280.782812 -288.284375 288.284375 C -280.782812 295.785547 -270.608594 300 -260 300 L 260 300 C 270.608594 300 280.782812 295.785547 288.284375 288.284375 C 295.785547 280.782812 300 270.608594 300 260 L 300 -260 C 300 -270.608594 295.785547 -280.782812 288.284375 -288.284375 C 280.782812 -295.785547 270.608594 -300 260 -300 L -260 -300 " transform="matrix(10,0,0,-10,3000,3000)"/>
<path style=" stroke:none;fill-rule:evenodd;fill:rgb(0%,35.686275%,54.901961%);fill-opacity:1;" d="M 400 5850 C 261.929688 5850 150 5738.070312 150 5600 L 150 400 C 150 261.929688 261.929688 150 400 150 L 5600 150 C 5738.070312 150 5850 261.929688 5850 400 L 5850 5600 C 5850 5738.070312 5738.070312 5850 5600 5850 L 400 5850 "/>
<path style=" stroke:none;fill-rule:evenodd;fill:rgb(94.509804%,94.117647%,91.764706%);fill-opacity:1;" d="M 900 5100 L 900 900 L 5100 900 L 5100 5100 L 900 5100 "/>
<path style=" stroke:none;fill-rule:evenodd;fill:rgb(16.470588%,16.078431%,16.470588%);fill-opacity:1;" d="M 2625 4800 L 4350 4800 L 4350 1725 C 4350 1600.734375 4249.265625 1500 4125 1500 L 2850 1500 C 2725.734375 1500 2625 1600.734375 2625 1725 L 2625 2812.5 L 2100 2812.5 L 2100 2313.09375 C 2180.496094 2292.308594 2251.804688 2245.363281 2302.714844 2179.640625 C 2353.625 2113.914062 2381.25 2033.136719 2381.25 1950 L 2381.25 1631.25 L 2268.75 1631.25 L 2268.75 1275 C 2268.75 1233.578125 2235.171875 1200 2193.75 1200 C 2152.328125 1200 2118.75 1233.578125 2118.75 1275 L 2118.75 1631.25 L 1893.75 1631.25 L 1893.75 1275 C 1893.75 1233.578125 1860.171875 1200 1818.75 1200 C 1777.328125 1200 1743.75 1233.578125 1743.75 1275 L 1743.75 1631.25 L 1631.25 1631.25 L 1631.25 1950 C 1631.25 2033.136719 1658.875 2113.914062 1709.785156 2179.640625 C 1760.695312 2245.363281 1832.003906 2292.308594 1912.5 2313.09375 L 1912.5 2812.5 C 1763.316406 2812.5 1620.242188 2871.761719 1514.753906 2977.253906 C 1409.261719 3082.742188 1350 3225.816406 1350 3375 L 1350 4425 C 1350 4524.457031 1389.507812 4619.839844 1459.835938 4690.164062 C 1530.160156 4760.492188 1625.542969 4800 1725 4800 C 1824.457031 4800 1919.839844 4760.492188 1990.164062 4690.164062 C 2060.492188 4619.839844 2100 4524.457031 2100 4425 L 2100 3000 L 2625 3000 L 2625 4800 M 1912.5 3000 C 1813.042969 3000 1717.660156 3039.507812 1647.335938 3109.835938 C 1577.007812 3180.160156 1537.5 3275.542969 1537.5 3375 L 1537.5 4425 C 1537.5 4528.554688 1621.445312 4612.5 1725 4612.5 C 1828.554688 4612.5 1912.5 4528.554688 1912.5 4425 L 1912.5 3000 M 2925 2700 C 2925 2741.421875 2958.578125 2775 3000 2775 L 3975 2775 C 4016.421875 2775 4050 2741.421875 4050 2700 L 4050 1875 C 4050 1833.578125 4016.421875 1800 3975 1800 L 3000 1800 C 2958.578125 1800 2925 1833.578125 2925 1875 L 2925 2700 "/>
</g>
</svg>
