<?xml version="1.0" encoding="UTF-8"?>
<svg xmlns="http://www.w3.org/2000/svg" xmlns:xlink="http://www.w3.org/1999/xlink" width="600.000000mm" height="600.000000mm" viewBox="0 0 6000 6000" version="1.1">
<g id="surface661">
<path style="fill-rule:evenodd;fill:rgb(94.509804%,94.117647%,91.764706%);fill-opacity:1;stroke-width:0.3;stroke-linecap:butt;stroke-linejoin:miter;stroke:rgb(16.470588%,16.078431%,16.470588%);stroke-opacity:1;stroke-miterlimit:3;" d="M -260 -300 C -270.608594 -300 -280.782812 -295.785547 -288.284375 -288.284375 C -295.785547 -280.782812 -300 -270.608594 -300 -260 L -300 260 C -300 270.608594 -295.785547 280.782812 -288.284375 288.284375 C -280.782812 295.785547 -270.608594 300 -260 300 L 260 300 C 270.608594 300 280.782812 295.785547 288.284375 288.284375 C 295.785547 280.782812 300 270.608594 300 260 L 300 -260 C 300 -270.608594 295.785547 -280.782812 288.284375 -288.284375 C 280.782812 -295.785547 270.608594 -300 260 -300 L -260 -300 " transform="matrix(10,0,0,-10,3000,3000)"/>
<path style=" stroke:none;fill-rule:evenodd;fill:rgb(0%,35.686275%,54.901961%);fill-opacity:1;" d="M 400 5850 C 261.929688 5850 150 5738.070312 150 5600 L 150 400 C 150 261.929688 261.929688 150 400 150 L 5600 150 C 5738.070312 150 5850 261.929688 5850 400 L 5850 5600 C 5850 5738.070312 5738.070312 5850 5600 5850 L 400 5850 "/>
<path style=" stroke:none;fill-rule:evenodd;fill:rgb(94.509804%,94.117647%,91.764706%);fill-opacity:1;" d="M 900 5100 L 900 900 L 5100 900 L 5100 5100 L 900 5100 "/>
<path style=" stroke:none;fill-rule:evenodd;fill:rgb(16.470588%,16.078431%,16.470588%);fill-opacity:1;" d="M 1670 3455 C 1670 3281.03125 1811.03125 3140 1985 3140 C 2158.96875 3140 2300 3281.03125 2300 3455 L 2300 3490 L 3595 3490 L 3595 3455 C 3595 3281.03125 3736.03125 3140 3910 3140 C 4083.96875 3140 4225 3281.03125 4225 3455 L 4225 3490 L 4680 3490 C 4757.320312 3490 4820 3427.320312 4820 3350 L 4820 2959.410156 C 4820 2939.898438 4817.28125 2920.480469 4811.921875 2901.71875 L 4669.011719 2401.539062 C 4651.839844 2341.4375 4596.902344 2300 4534.398438 2300 L 1355 2300 C 1335.671875 2300 1320 2315.671875 1320 2335 L 1320 2405 C 1320 2421.601562 1331.664062 2435.921875 1347.925781 2439.277344 C 1364.1875 2442.632812 1375.851562 2456.953125 1375.851562 2473.554688 C 1375.851562 2477.566406 1375.164062 2481.546875 1373.8125 2485.328125 L 1192.234375 2993.746094 C 1184.136719 3016.414062 1180 3040.304688 1180 3064.375 L 1180 3420 C 1180 3458.660156 1211.339844 3490 1250 3490 L 1670 3490 L 1670 3455 M 1359.5 2930 L 1778.5 2930 C 1807.496094 2930 1831 2906.496094 1831 2877.5 L 1831 2492.5 C 1831 2463.503906 1807.496094 2440 1778.5 2440 L 1497 2440 C 1474.8125 2440 1455.019531 2453.949219 1447.558594 2474.84375 L 1310.058594 2859.84375 C 1308.035156 2865.507812 1307 2871.480469 1307 2877.5 C 1307 2906.496094 1330.503906 2930 1359.5 2930 M 1974.5 2930 L 2342.398438 2930 C 2371.394531 2930 2394.898438 2906.496094 2394.898438 2877.5 C 2394.898438 2872.621094 2394.21875 2867.765625 2392.878906 2863.078125 L 2282.878906 2478.078125 C 2276.441406 2455.539062 2255.839844 2440 2232.398438 2440 L 1974.5 2440 C 1945.503906 2440 1922 2463.503906 1922 2492.5 L 1922 2877.5 C 1922 2906.496094 1945.503906 2930 1974.5 2930 M 2542.601562 2930 L 2895.398438 2930 C 2924.394531 2930 2947.898438 2906.496094 2947.898438 2877.5 C 2947.898438 2872.621094 2947.21875 2867.765625 2945.878906 2863.078125 L 2835.878906 2478.078125 C 2829.441406 2455.539062 2808.839844 2440 2785.398438 2440 L 2432.601562 2440 C 2403.605469 2440 2380.101562 2463.503906 2380.101562 2492.5 C 2380.101562 2497.378906 2380.78125 2502.234375 2382.121094 2506.921875 L 2492.121094 2891.921875 C 2498.558594 2914.460938 2519.160156 2930 2542.601562 2930 M 3095.601562 2930 L 3448.398438 2930 C 3477.394531 2930 3500.898438 2906.496094 3500.898438 2877.5 C 3500.898438 2872.621094 3500.21875 2867.765625 3498.878906 2863.078125 L 3388.878906 2478.078125 C 3382.441406 2455.539062 3361.839844 2440 3338.398438 2440 L 2985.605469 2440 C 2956.609375 2440 2933.105469 2463.503906 2933.105469 2492.5 C 2933.105469 2497.378906 2933.785156 2502.234375 2935.125 2506.921875 L 3045.121094 2891.921875 C 3051.558594 2914.460938 3072.160156 2930 3095.601562 2930 M 3648.601562 2930 L 4001.398438 2930 C 4030.394531 2930 4053.898438 2906.496094 4053.898438 2877.5 C 4053.898438 2872.621094 4053.21875 2867.765625 4051.878906 2863.078125 L 3941.878906 2478.078125 C 3935.441406 2455.539062 3914.839844 2440 3891.398438 2440 L 3538.605469 2440 C 3509.609375 2440 3486.105469 2463.503906 3486.105469 2492.5 C 3486.105469 2497.378906 3486.785156 2502.234375 3488.125 2506.921875 L 3598.121094 2891.921875 C 3604.558594 2914.460938 3625.160156 2930 3648.601562 2930 M 4201.601562 2930 L 4554.398438 2930 C 4583.394531 2930 4606.898438 2906.496094 4606.898438 2877.5 C 4606.898438 2872.621094 4606.21875 2867.765625 4604.878906 2863.078125 L 4494.878906 2478.078125 C 4488.441406 2455.539062 4467.839844 2440 4444.398438 2440 L 4091.601562 2440 C 4062.605469 2440 4039.101562 2463.503906 4039.101562 2492.5 C 4039.101562 2497.378906 4039.78125 2502.234375 4041.121094 2506.921875 L 4151.121094 2891.921875 C 4157.558594 2914.460938 4178.160156 2930 4201.601562 2930 M 4155 3455 C 4155 3319.691406 4045.308594 3210 3910 3210 C 3774.691406 3210 3665 3319.691406 3665 3455 C 3665 3590.308594 3774.691406 3700 3910 3700 C 4045.308594 3700 4155 3590.308594 4155 3455 M 2230 3455 C 2230 3319.691406 2120.308594 3210 1985 3210 C 1849.691406 3210 1740 3319.691406 1740 3455 C 1740 3590.308594 1849.691406 3700 1985 3700 C 2120.308594 3700 2230 3590.308594 2230 3455 "/>
</g>
</svg>
