<?xml version="1.0" encoding="UTF-8"?>
<svg xmlns="http://www.w3.org/2000/svg" xmlns:xlink="http://www.w3.org/1999/xlink" width="600.000000mm" height="600.000000mm" viewBox="0 0 6000 6000" version="1.1">
<g id="surface716">
<path style="fill-rule:evenodd;fill:rgb(94.509804%,94.117647%,91.764706%);fill-opacity:1;stroke-width:0.3;stroke-linecap:butt;stroke-linejoin:miter;stroke:rgb(16.470588%,16.078431%,16.470588%);stroke-opacity:1;stroke-miterlimit:3;" d="M -260 -300 C -270.608594 -300 -280.782812 -295.785547 -288.284375 -288.284375 C -295.785547 -280.782812 -300 -270.608594 -300 -260 L -300 260 C -300 270.608594 -295.785547 280.782812 -288.284375 288.284375 C -280.782812 295.785547 -270.608594 300 -260 300 L 260 300 C 270.608594 300 280.782812 295.785547 288.284375 288.284375 C 295.785547 280.782812 300 270.608594 300 260 L 300 -260 C 300 -270.608594 295.785547 -280.782812 288.284375 -288.284375 C 280.782812 -295.785547 270.608594 -300 260 -300 L -260 -300 " transform="matrix(10,0,0,-10,3000,3000)"/>
<path style=" stroke:none;fill-rule:evenodd;fill:rgb(0%,35.686275%,54.901961%);fill-opacity:1;" d="M 400 5850 C 261.929688 5850 150 5738.070312 150 5600 L 150 400 C 150 261.929688 261.929688 150 400 150 L 5600 150 C 5738.070312 150 5850 261.929688 5850 400 L 5850 5600 C 5850 5738.070312 5738.070312 5850 5600 5850 L 400 5850 "/>
<path style=" stroke:none;fill-rule:evenodd;fill:rgb(94.509804%,94.117647%,91.764706%);fill-opacity:1;" d="M 1000 5600 L 1000 400 L 5000 400 L 5000 5600 L 1000 5600 "/>
<path style=" stroke:none;fill-rule:evenodd;fill:rgb(16.470588%,16.078431%,16.470588%);fill-opacity:1;" d="M 1425 5450 L 1425 4450 L 1625 4450 L 1625 5450 L 1425 5450 M 1425 4150 L 1425 3150 L 1625 3150 L 1625 4150 L 1425 4150 M 1425 2850 L 1425 1850 L 1625 1850 L 1625 2850 L 1425 2850 M 1425 1550 L 1425 550 L 1625 550 L 1625 1550 L 1425 1550 "/>
<path style=" stroke:none;fill-rule:evenodd;fill:rgb(16.470588%,16.078431%,16.470588%);fill-opacity:1;" d="M 3025 4340 L 3025 3680 L 3325 3680 L 3325 4340 L 3025 4340 M 3025 3330 L 3025 2670 L 3325 2670 L 3325 3330 L 3025 3330 M 3025 2320 L 3025 1660 L 3325 1660 L 3325 2320 L 3025 2320 "/>
<path style=" stroke:none;fill-rule:evenodd;fill:rgb(16.470588%,16.078431%,16.470588%);fill-opacity:1;" d="M 3025 5450 L 3025 4750 L 4275 4100 L 4275 1900 L 3025 1250 L 3025 550 L 3325 550 L 3325 1067.863281 L 4575 1717.863281 L 4575 4282.136719 L 3325 4932.136719 L 3325 5450 L 3025 5450 "/>
</g>
</svg>
