<?xml version="1.0" encoding="UTF-8"?>
<svg xmlns="http://www.w3.org/2000/svg" xmlns:xlink="http://www.w3.org/1999/xlink" width="600.000000mm" height="900.000000mm" viewBox="0 0 6000 9000" version="1.1">
<g id="surface721">
<path style="fill-rule:evenodd;fill:rgb(94.509804%,94.117647%,91.764706%);fill-opacity:1;stroke-width:0.3;stroke-linecap:butt;stroke-linejoin:miter;stroke:rgb(16.470588%,16.078431%,16.470588%);stroke-opacity:1;stroke-miterlimit:3;" d="M -260 -450 C -270.608594 -450 -280.782812 -445.785547 -288.284375 -438.284375 C -295.785547 -430.782813 -300 -420.608594 -300 -410 L -300 410 C -300 420.608594 -295.785547 430.782812 -288.284375 438.284375 C -280.782812 445.785547 -270.608594 450 -260 450 L 260 450 C 270.608594 450 280.782812 445.785547 288.284375 438.284375 C 295.785547 430.782812 300 420.608594 300 410 L 300 -410 C 300 -420.608594 295.785547 -430.782813 288.284375 -438.284375 C 280.782812 -445.785547 270.608594 -450 260 -450 L -260 -450 " transform="matrix(10,0,0,-10,3000,4500)"/>
<path style=" stroke:none;fill-rule:evenodd;fill:rgb(0%,35.686275%,54.901961%);fill-opacity:1;" d="M 400 8850 C 261.929688 8850 150 8738.070312 150 8600 L 150 400 C 150 261.929688 261.929688 150 400 150 L 5600 150 C 5738.070312 150 5850 261.929688 5850 400 L 5850 8600 C 5850 8738.070312 5738.070312 8850 5600 8850 L 400 8850 "/>
<path style=" stroke:none;fill-rule:evenodd;fill:rgb(94.509804%,94.117647%,91.764706%);fill-opacity:1;" d="M 4550 8250 L 4550 3850 L 5000 3850 L 5000 750 L 3500 750 L 3500 3850 L 3950 3850 L 3950 5589.171875 C 3410.515625 4453.765625 2538.644531 3509.171875 1450 2880.640625 L 1000 3660.066406 C 1805.703125 4125.238281 2474.761719 4794.296875 2939.933594 5600 C 3405.105469 6405.703125 3650 7319.65625 3650 8250 L 4550 8250 "/>
<path style=" stroke:none;fill-rule:evenodd;fill:rgb(73.333333%,11.764706%,6.27451%);fill-opacity:1;" d="M 3575 825 L 4925 825 L 4925 3775 L 3575 3775 L 3575 825 M 4050 900 L 4450 900 L 4450 3700 L 4050 3700 L 4050 900 M 3650 900 L 4850 900 L 4850 1300 L 3650 1300 L 3650 900 M 3650 1700 L 4850 1700 L 4850 2100 L 3650 2100 L 3650 1700 M 3650 2500 L 4850 2500 L 4850 2900 L 3650 2900 L 3650 2500 M 3650 3300 L 4850 3300 L 4850 3700 L 3650 3700 L 3650 3300 "/>
</g>
</svg>
