<?xml version="1.0" encoding="UTF-8"?>
<svg xmlns="http://www.w3.org/2000/svg" xmlns:xlink="http://www.w3.org/1999/xlink" width="400.000000mm" height="250.000000mm" viewBox="0 0 40000 25000" version="1.1">
<g id="surface951">
<path style="fill-rule:evenodd;fill:rgb(94.509804%,94.117647%,91.764706%);fill-opacity:1;stroke-width:0.3;stroke-linecap:butt;stroke-linejoin:miter;stroke:rgb(16.470588%,16.078431%,16.470588%);stroke-opacity:1;stroke-miterlimit:3;" d="M -160 -125 C -170.608672 -125 -180.782813 -120.785742 -188.284258 -113.284258 C -195.785742 -105.782813 -200 -95.608672 -200 -85 L -200 85 C -200 95.608672 -195.785742 105.782813 -188.284258 113.284258 C -180.782813 120.785742 -170.608672 125 -160 125 L 160 125 C 170.608672 125 180.782813 120.785742 188.284258 113.284258 C 195.785742 105.782813 200 95.608672 200 85 L 200 -85 C 200 -95.608672 195.785742 -105.782813 188.284258 -113.284258 C 180.782813 -120.785742 170.608672 -125 160 -125 L -160 -125 " transform="matrix(100,0,0,-100,20000,12500)"/>
<path style=" stroke:none;fill-rule:evenodd;fill:rgb(0%,35.686275%,54.901961%);fill-opacity:1;" d="M 4000 23500 C 3336.957031 23500 2701.074219 23236.609375 2232.234375 22767.765625 C 1763.390625 22298.925781 1500 21663.042969 1500 21000 L 1500 4000 C 1500 3336.957031 1763.390625 2701.074219 2232.234375 2232.234375 C 2701.074219 1763.390625 3336.957031 1500 4000 1500 L 36000 1500 C 36663.042969 1500 37298.925781 1763.390625 37767.765625 2232.234375 C 38236.609375 2701.074219 38500 3336.957031 38500 4000 L 38500 21000 C 38500 21663.042969 38236.609375 22298.925781 37767.765625 22767.765625 C 37298.925781 23236.609375 36663.042969 23500 36000 23500 L 4000 23500 "/>
<path style=" stroke:none;fill-rule:nonzero;fill:rgb(94.509804%,94.117647%,91.764706%);fill-opacity:1;" d="M 14480 16260 L 14480 14560 L 12900 14560 L 12900 11740 L 11060 11740 L 10840 14560 L 7280 14560 L 12380 5500 L 10280 5500 L 5280 14320 L 5280 16260 L 10840 16260 L 10840 19500 L 12900 19500 L 12900 16260 Z M 23560 7140 L 23560 5500 L 16640 5500 L 16640 12560 L 18180 12560 C 18680 12400 19120 12320 19500 12320 C 21060 12320 22060 13120 22060 15140 C 22060 17140 20840 17880 19160 17880 C 18280 17880 17180 17600 16660 17360 L 16000 18900 C 16600 19180 17820 19640 19340 19640 C 21800 19640 24160 18280 24160 15000 C 24160 12520 22700 10720 20140 10720 C 19660 10720 19100 10800 18620 10940 L 18620 7140 Z M 31780 6880 C 32300 6880 32800 6960 33480 7220 L 34080 5820 C 33560 5580 32840 5300 31640 5300 C 28160 5300 26200 9100 26200 13620 C 26200 16960 27240 19700 30520 19700 C 32880 19700 34720 18100 34720 14900 C 34720 11980 33080 10520 31120 10520 C 30020 10520 29040 11080 28300 11860 C 28680 8940 29960 6880 31780 6880 Z M 30720 12180 C 31880 12180 32740 12860 32740 15060 C 32740 16960 31980 18000 30540 18000 C 29060 18000 28200 16860 28200 13700 L 28200 13500 C 28800 12800 29660 12180 30720 12180 Z M 30720 12180 "/>
</g>
</svg>
