<?xml version="1.0" encoding="UTF-8"?>
<svg xmlns="http://www.w3.org/2000/svg" xmlns:xlink="http://www.w3.org/1999/xlink" width="400.000000mm" height="250.000000mm" viewBox="0 0 40000 25000" version="1.1">
<g id="surface941">
<path style="fill-rule:evenodd;fill:rgb(94.509804%,94.117647%,91.764706%);fill-opacity:1;stroke-width:0.3;stroke-linecap:butt;stroke-linejoin:miter;stroke:rgb(16.470588%,16.078431%,16.470588%);stroke-opacity:1;stroke-miterlimit:3;" d="M -160 -125 C -170.608672 -125 -180.782813 -120.785742 -188.284258 -113.284258 C -195.785742 -105.782813 -200 -95.608672 -200 -85 L -200 85 C -200 95.608672 -195.785742 105.782813 -188.284258 113.284258 C -180.782813 120.785742 -170.608672 125 -160 125 L 160 125 C 170.608672 125 180.782813 120.785742 188.284258 113.284258 C 195.785742 105.782813 200 95.608672 200 85 L 200 -85 C 200 -95.608672 195.785742 -105.782813 188.284258 -113.284258 C 180.782813 -120.785742 170.608672 -125 160 -125 L -160 -125 " transform="matrix(100,0,0,-100,20000,12500)"/>
<path style=" stroke:none;fill-rule:evenodd;fill:rgb(0%,35.686275%,54.901961%);fill-opacity:1;" d="M 4000 23500 C 3336.957031 23500 2701.074219 23236.609375 2232.234375 22767.765625 C 1763.390625 22298.925781 1500 21663.042969 1500 21000 L 1500 4000 C 1500 3336.957031 1763.390625 2701.074219 2232.234375 2232.234375 C 2701.074219 1763.390625 3336.957031 1500 4000 1500 L 36000 1500 C 36663.042969 1500 37298.925781 1763.390625 37767.765625 2232.234375 C 38236.609375 2701.074219 38500 3336.957031 38500 4000 L 38500 21000 C 38500 21663.042969 38236.609375 22298.925781 37767.765625 22767.765625 C 37298.925781 23236.609375 36663.042969 23500 36000 23500 L 4000 23500 "/>
<path style=" stroke:none;fill-rule:nonzero;fill:rgb(94.509804%,94.117647%,91.764706%);fill-opacity:1;" d="M 14770 7040 C 16030 7040 17130 7440 17130 9120 C 17130 12500 11350 12920 11350 18260 L 11350 19500 L 19090 19500 L 19090 17720 L 13450 17720 C 13450 14060 19210 13560 19210 8960 C 19210 6680 17590 5300 14870 5300 C 13250 5300 11970 6000 11150 6600 L 12010 8000 C 12910 7440 13690 7040 14770 7040 Z M 28850 15300 C 28850 12840 27310 12020 25950 11820 C 27250 11580 28490 10440 28490 8840 C 28490 6040 26370 5300 24570 5300 C 23090 5300 21850 5820 20850 6540 L 21710 7860 C 22570 7300 23470 7020 24330 7020 C 25170 7020 26490 7100 26490 8940 C 26490 10380 25510 11120 24130 11120 L 23710 11120 L 23710 12740 L 24250 12740 C 25610 12740 26790 13160 26790 15300 C 26790 17180 25290 17920 23930 17920 C 22790 17920 21930 17440 21470 17140 L 20590 18560 C 21290 19040 22310 19640 24070 19640 C 26590 19640 28850 18180 28850 15300 Z M 28850 15300 "/>
</g>
</svg>
