<?xml version="1.0" encoding="UTF-8"?>
<svg xmlns="http://www.w3.org/2000/svg" xmlns:xlink="http://www.w3.org/1999/xlink" width="400.000000mm" height="250.000000mm" viewBox="0 0 40000 25000" version="1.1">
<g id="surface961">
<path style="fill-rule:evenodd;fill:rgb(94.509804%,94.117647%,91.764706%);fill-opacity:1;stroke-width:0.3;stroke-linecap:butt;stroke-linejoin:miter;stroke:rgb(16.470588%,16.078431%,16.470588%);stroke-opacity:1;stroke-miterlimit:3;" d="M -75 -125 C -108.15207 -125 -139.946289 -111.830391 -163.388359 -88.388359 C -186.830391 -64.946289 -200 -33.15207 -200 0 C -200 33.15207 -186.830391 64.946289 -163.388359 88.388359 C -139.946289 111.830391 -108.15207 125 -75 125 L 75 125 C 108.15207 125 139.946289 111.830391 163.388359 88.388359 C 186.830391 64.946289 200 33.15207 200 0 C 200 -33.15207 186.830391 -64.946289 163.388359 -88.388359 C 139.946289 -111.830391 108.15207 -125 75 -125 L -75 -125 " transform="matrix(100,0,0,-100,20000,12500)"/>
<path style=" stroke:none;fill-rule:nonzero;fill:rgb(16.470588%,16.078431%,16.470588%);fill-opacity:1;" d="M 10690 15300 C 10690 12860 9370 12060 8230 11820 C 9310 11520 10390 10480 10390 8840 C 10390 6040 8710 5300 7090 5300 C 5910 5300 4870 5760 3970 6480 L 4810 7800 C 5570 7220 6270 7020 6910 7020 C 7510 7020 8470 7100 8470 8940 C 8470 10460 7750 11120 6750 11120 L 6250 11120 L 6250 12740 L 6850 12740 C 7850 12740 8710 13060 8710 15300 C 8710 17280 7690 17920 6590 17920 C 5770 17920 5050 17640 4610 17280 L 3750 18680 C 4350 19160 5370 19640 6790 19640 C 8890 19640 10690 18260 10690 15300 Z M 11990 15900 C 11990 18440 13470 19700 15670 19700 C 17890 19700 19350 18460 19350 15900 C 19350 13880 18190 12980 17050 12200 C 17710 11760 18950 10660 18950 8760 C 18950 6020 17310 5300 15670 5300 C 14030 5300 12390 6020 12390 8780 C 12390 10400 13210 11400 14070 12100 C 13230 12620 11990 13660 11990 15900 Z M 17350 15900 C 17350 17220 16930 18140 15670 18140 C 14410 18140 13990 17280 13990 15900 C 13990 14080 14430 13360 15070 12860 C 16510 13820 17350 14120 17350 15900 Z M 14270 8800 C 14270 7580 14610 6840 15670 6840 C 16750 6840 17070 7580 17070 8800 C 17070 10340 16590 11060 16070 11520 C 14670 10480 14270 9940 14270 8800 Z M 20550 15900 C 20550 18440 22030 19700 24230 19700 C 26450 19700 27910 18460 27910 15900 C 27910 13880 26750 12980 25610 12200 C 26270 11760 27510 10660 27510 8760 C 27510 6020 25870 5300 24230 5300 C 22590 5300 20950 6020 20950 8780 C 20950 10400 21770 11400 22630 12100 C 21790 12620 20550 13660 20550 15900 Z M 25910 15900 C 25910 17220 25490 18140 24230 18140 C 22970 18140 22550 17280 22550 15900 C 22550 14080 22990 13360 23630 12860 C 25070 13820 25910 14120 25910 15900 Z M 22830 8800 C 22830 7580 23170 6840 24230 6840 C 25310 6840 25630 7580 25630 8800 C 25630 10340 25150 11060 24630 11520 C 23230 10480 22830 9940 22830 8800 Z M 35770 7140 L 35770 5500 L 29910 5500 L 29910 12560 L 31330 12560 C 31730 12400 32090 12340 32350 12340 C 33510 12340 34250 13020 34250 15140 C 34250 17240 33330 17880 32090 17880 C 31450 17880 30550 17640 30030 17360 L 29430 18880 C 29930 19180 31130 19640 32230 19640 C 34270 19640 36250 18440 36250 15000 C 36250 12360 35010 10720 32970 10720 C 32650 10720 32170 10800 31810 10920 L 31810 7140 Z M 35770 7140 "/>
</g>
</svg>
