<?xml version="1.0" encoding="UTF-8"?>
<svg xmlns="http://www.w3.org/2000/svg" xmlns:xlink="http://www.w3.org/1999/xlink" width="400.000000mm" height="250.000000mm" viewBox="0 0 40000 25000" version="1.1">
<g id="surface981">
<path style="fill-rule:evenodd;fill:rgb(94.509804%,94.117647%,91.764706%);fill-opacity:1;stroke-width:0.3;stroke-linecap:butt;stroke-linejoin:miter;stroke:rgb(16.470588%,16.078431%,16.470588%);stroke-opacity:1;stroke-miterlimit:3;" d="M -160 -125 C -170.608672 -125 -180.782813 -120.785742 -188.284258 -113.284258 C -195.785742 -105.782813 -200 -95.608672 -200 -85 L -200 85 C -200 95.608672 -195.785742 105.782813 -188.284258 113.284258 C -180.782813 120.785742 -170.608672 125 -160 125 L 160 125 C 170.608672 125 180.782813 120.785742 188.284258 113.284258 C 195.785742 105.782813 200 95.608672 200 85 L 200 -85 C 200 -95.608672 195.785742 -105.782813 188.284258 -113.284258 C 180.782813 -120.785742 170.608672 -125 160 -125 L -160 -125 " transform="matrix(100,0,0,-100,20000,12500)"/>
<path style=" stroke:none;fill-rule:evenodd;fill:rgb(73.333333%,11.764706%,6.27451%);fill-opacity:1;" d="M 4000 23500 C 3336.957031 23500 2701.074219 23236.609375 2232.234375 22767.765625 C 1763.390625 22298.925781 1500 21663.042969 1500 21000 L 1500 4000 C 1500 3336.957031 1763.390625 2701.074219 2232.234375 2232.234375 C 2701.074219 1763.390625 3336.957031 1500 4000 1500 L 36000 1500 C 36663.042969 1500 37298.925781 1763.390625 37767.765625 2232.234375 C 38236.609375 2701.074219 38500 3336.957031 38500 4000 L 38500 21000 C 38500 21663.042969 38236.609375 22298.925781 37767.765625 22767.765625 C 37298.925781 23236.609375 36663.042969 23500 36000 23500 L 4000 23500 "/>
<path style=" stroke:none;fill-rule:nonzero;fill:rgb(94.509804%,94.117647%,91.764706%);fill-opacity:1;" d="M 12470 12440 C 12470 16740 11110 17800 9410 17800 L 7790 17800 L 7790 7200 L 9430 7200 C 10990 7200 12470 7880 12470 12440 Z M 14670 12440 C 14670 6540 12030 5500 9010 5500 L 5630 5500 L 5630 19500 L 9250 19500 C 12010 19500 14670 18400 14670 12440 Z M 20290 7040 C 21550 7040 22650 7440 22650 9120 C 22650 12500 16870 12920 16870 18260 L 16870 19500 L 24610 19500 L 24610 17720 L 18970 17720 C 18970 14060 24730 13560 24730 8960 C 24730 6680 23110 5300 20390 5300 C 18770 5300 17490 6000 16670 6600 L 17530 8000 C 18430 7440 19210 7040 20290 7040 Z M 34370 15300 C 34370 12840 32830 12020 31470 11820 C 32770 11580 34010 10440 34010 8840 C 34010 6040 31890 5300 30090 5300 C 28610 5300 27370 5820 26370 6540 L 27230 7860 C 28090 7300 28990 7020 29850 7020 C 30690 7020 32010 7100 32010 8940 C 32010 10380 31030 11120 29650 11120 L 29230 11120 L 29230 12740 L 29770 12740 C 31130 12740 32310 13160 32310 15300 C 32310 17180 30810 17920 29450 17920 C 28310 17920 27450 17440 26990 17140 L 26110 18560 C 26810 19040 27830 19640 29590 19640 C 32110 19640 34370 18180 34370 15300 Z M 34370 15300 "/>
</g>
</svg>
