<?xml version="1.0" encoding="UTF-8"?>
<svg xmlns="http://www.w3.org/2000/svg" xmlns:xlink="http://www.w3.org/1999/xlink" width="400.000000mm" height="250.000000mm" viewBox="0 0 40000 25000" version="1.1">
<g id="surface1001">
<path style="fill-rule:evenodd;fill:rgb(94.509804%,94.117647%,91.764706%);fill-opacity:1;stroke-width:0.3;stroke-linecap:butt;stroke-linejoin:miter;stroke:rgb(16.470588%,16.078431%,16.470588%);stroke-opacity:1;stroke-miterlimit:3;" d="M -160 -125 C -170.608672 -125 -180.782813 -120.785742 -188.284258 -113.284258 C -195.785742 -105.782813 -200 -95.608672 -200 -85 L -200 85 C -200 95.608672 -195.785742 105.782813 -188.284258 113.284258 C -180.782813 120.785742 -170.608672 125 -160 125 L 160 125 C 170.608672 125 180.782813 120.785742 188.284258 113.284258 C 195.785742 105.782813 200 95.608672 200 85 L 200 -85 C 200 -95.608672 195.785742 -105.782813 188.284258 -113.284258 C 180.782813 -120.785742 170.608672 -125 160 -125 L -160 -125 " transform="matrix(100,0,0,-100,20000,12500)"/>
<path style=" stroke:none;fill-rule:evenodd;fill:rgb(73.333333%,11.764706%,6.27451%);fill-opacity:1;" d="M 4000 23500 C 3336.957031 23500 2701.074219 23236.609375 2232.234375 22767.765625 C 1763.390625 22298.925781 1500 21663.042969 1500 21000 L 1500 4000 C 1500 3336.957031 1763.390625 2701.074219 2232.234375 2232.234375 C 2701.074219 1763.390625 3336.957031 1500 4000 1500 L 36000 1500 C 36663.042969 1500 37298.925781 1763.390625 37767.765625 2232.234375 C 38236.609375 2701.074219 38500 3336.957031 38500 4000 L 38500 21000 C 38500 21663.042969 38236.609375 22298.925781 37767.765625 22767.765625 C 37298.925781 23236.609375 36663.042969 23500 36000 23500 L 4000 23500 "/>
<path style=" stroke:none;fill-rule:nonzero;fill:rgb(94.509804%,94.117647%,91.764706%);fill-opacity:1;" d="M 13730 9560 C 13730 6640 12190 5500 8910 5500 L 5290 5500 L 5290 19500 L 7450 19500 L 7450 13840 L 9050 13840 L 12130 19500 L 14530 19500 L 11230 13540 C 12610 13020 13730 11800 13730 9560 Z M 11530 9560 C 11530 11660 10610 12220 9150 12220 L 7450 12220 L 7450 7080 L 9130 7080 C 10590 7080 11530 7640 11530 9560 Z M 23550 7140 L 23550 5500 L 16630 5500 L 16630 12560 L 18170 12560 C 18670 12400 19110 12320 19490 12320 C 21050 12320 22050 13120 22050 15140 C 22050 17140 20830 17880 19150 17880 C 18270 17880 17170 17600 16650 17360 L 15990 18900 C 16590 19180 17810 19640 19330 19640 C 21790 19640 24150 18280 24150 15000 C 24150 12520 22690 10720 20130 10720 C 19650 10720 19090 10800 18610 10940 L 18610 7140 Z M 31770 6880 C 32290 6880 32790 6960 33470 7220 L 34070 5820 C 33550 5580 32830 5300 31630 5300 C 28150 5300 26190 9100 26190 13620 C 26190 16960 27230 19700 30510 19700 C 32870 19700 34710 18100 34710 14900 C 34710 11980 33070 10520 31110 10520 C 30010 10520 29030 11080 28290 11860 C 28670 8940 29950 6880 31770 6880 Z M 30710 12180 C 31870 12180 32730 12860 32730 15060 C 32730 16960 31970 18000 30530 18000 C 29050 18000 28190 16860 28190 13700 L 28190 13500 C 28790 12800 29650 12180 30710 12180 Z M 30710 12180 "/>
</g>
</svg>
