<?xml version="1.0" encoding="UTF-8"?>
<svg xmlns="http://www.w3.org/2000/svg" xmlns:xlink="http://www.w3.org/1999/xlink" width="400.000000mm" height="250.000000mm" viewBox="0 0 40000 25000" version="1.1">
<g id="surface1021">
<path style="fill-rule:evenodd;fill:rgb(94.509804%,94.117647%,91.764706%);fill-opacity:1;stroke-width:0.3;stroke-linecap:butt;stroke-linejoin:miter;stroke:rgb(16.470588%,16.078431%,16.470588%);stroke-opacity:1;stroke-miterlimit:3;" d="M -160 -125 C -170.608672 -125 -180.782813 -120.785742 -188.284258 -113.284258 C -195.785742 -105.782813 -200 -95.608672 -200 -85 L -200 85 C -200 95.608672 -195.785742 105.782813 -188.284258 113.284258 C -180.782813 120.785742 -170.608672 125 -160 125 L 160 125 C 170.608672 125 180.782813 120.785742 188.284258 113.284258 C 195.785742 105.782813 200 95.608672 200 85 L 200 -85 C 200 -95.608672 195.785742 -105.782813 188.284258 -113.284258 C 180.782813 -120.785742 170.608672 -125 160 -125 L -160 -125 " transform="matrix(100,0,0,-100,20000,12500)"/>
<path style=" stroke:none;fill-rule:evenodd;fill:rgb(0%,54.901961%,15.294118%);fill-opacity:1;" d="M 4000 23500 C 3336.957031 23500 2701.074219 23236.609375 2232.234375 22767.765625 C 1763.390625 22298.925781 1500 21663.042969 1500 21000 L 1500 4000 C 1500 3336.957031 1763.390625 2701.074219 2232.234375 2232.234375 C 2701.074219 1763.390625 3336.957031 1500 4000 1500 L 36000 1500 C 36663.042969 1500 37298.925781 1763.390625 37767.765625 2232.234375 C 38236.609375 2701.074219 38500 3336.957031 38500 4000 L 38500 21000 C 38500 21663.042969 38236.609375 22298.925781 37767.765625 22767.765625 C 37298.925781 23236.609375 36663.042969 23500 36000 23500 L 4000 23500 "/>
<path style=" stroke:none;fill-rule:nonzero;fill:rgb(94.509804%,94.117647%,91.764706%);fill-opacity:1;" d="M 10720 19500 L 10720 17800 L 6300 17800 L 6300 13120 L 10220 13120 L 10220 11420 L 6300 11420 L 6300 7200 L 10720 7200 L 10720 5500 L 4220 5500 L 4220 19500 Z M 18900 7140 L 18900 5500 L 13040 5500 L 13040 12560 L 14460 12560 C 14860 12400 15220 12340 15480 12340 C 16640 12340 17380 13020 17380 15140 C 17380 17240 16460 17880 15220 17880 C 14580 17880 13680 17640 13160 17360 L 12560 18880 C 13060 19180 14260 19640 15360 19640 C 17400 19640 19380 18440 19380 15000 C 19380 12360 18140 10720 16100 10720 C 15780 10720 15300 10800 14940 10920 L 14940 7140 Z M 27200 7520 L 27200 5600 L 20520 5600 L 20520 7300 L 25400 7300 L 21700 19500 L 23720 19500 Z M 33800 12520 C 33800 17200 33380 18100 32240 18100 C 31060 18100 30680 16920 30680 12520 C 30680 8040 31120 6900 32240 6900 C 33340 6900 33800 7840 33800 12520 Z M 35780 12520 C 35780 7280 34800 5300 32240 5300 C 29660 5300 28680 7280 28680 12520 C 28680 17760 29660 19700 32240 19700 C 34800 19700 35780 17760 35780 12520 Z M 35780 12520 "/>
</g>
</svg>
