<?xml version="1.0" encoding="UTF-8"?>
<svg xmlns="http://www.w3.org/2000/svg" xmlns:xlink="http://www.w3.org/1999/xlink" width="400.000000mm" height="250.000000mm" viewBox="0 0 40000 25000" version="1.1">
<g id="surface1011">
<path style="fill-rule:evenodd;fill:rgb(94.509804%,94.117647%,91.764706%);fill-opacity:1;stroke-width:0.3;stroke-linecap:butt;stroke-linejoin:miter;stroke:rgb(16.470588%,16.078431%,16.470588%);stroke-opacity:1;stroke-miterlimit:3;" d="M -160 -125 C -170.608672 -125 -180.782813 -120.785742 -188.284258 -113.284258 C -195.785742 -105.782813 -200 -95.608672 -200 -85 L -200 85 C -200 95.608672 -195.785742 105.782813 -188.284258 113.284258 C -180.782813 120.785742 -170.608672 125 -160 125 L 160 125 C 170.608672 125 180.782813 120.785742 188.284258 113.284258 C 195.785742 105.782813 200 95.608672 200 85 L 200 -85 C 200 -95.608672 195.785742 -105.782813 188.284258 -113.284258 C 180.782813 -120.785742 170.608672 -125 160 -125 L -160 -125 " transform="matrix(100,0,0,-100,20000,12500)"/>
<path style=" stroke:none;fill-rule:evenodd;fill:rgb(0%,54.901961%,15.294118%);fill-opacity:1;" d="M 4000 23500 C 3336.957031 23500 2701.074219 23236.609375 2232.234375 22767.765625 C 1763.390625 22298.925781 1500 21663.042969 1500 21000 L 1500 4000 C 1500 3336.957031 1763.390625 2701.074219 2232.234375 2232.234375 C 2701.074219 1763.390625 3336.957031 1500 4000 1500 L 36000 1500 C 36663.042969 1500 37298.925781 1763.390625 37767.765625 2232.234375 C 38236.609375 2701.074219 38500 3336.957031 38500 4000 L 38500 21000 C 38500 21663.042969 38236.609375 22298.925781 37767.765625 22767.765625 C 37298.925781 23236.609375 36663.042969 23500 36000 23500 L 4000 23500 "/>
<path style=" stroke:none;fill-rule:nonzero;fill:rgb(94.509804%,94.117647%,91.764706%);fill-opacity:1;" d="M 13570 19500 L 13570 17800 L 8010 17800 L 8010 13120 L 12950 13120 L 12950 11420 L 8010 11420 L 8010 7200 L 13570 7200 L 13570 5500 L 5850 5500 L 5850 19500 Z M 19090 7040 C 20350 7040 21450 7440 21450 9120 C 21450 12500 15670 12920 15670 18260 L 15670 19500 L 23410 19500 L 23410 17720 L 17770 17720 C 17770 14060 23530 13560 23530 8960 C 23530 6680 21910 5300 19190 5300 C 17570 5300 16290 6000 15470 6600 L 16330 8000 C 17230 7440 18010 7040 19090 7040 Z M 32050 12520 C 32050 16900 31450 18100 29870 18100 C 28290 18100 27690 16620 27690 12520 C 27690 8340 28330 6900 29870 6900 C 31410 6900 32050 8140 32050 12520 Z M 34150 12520 C 34150 7640 32930 5300 29870 5300 C 26810 5300 25590 7640 25590 12520 C 25590 17400 26810 19700 29870 19700 C 32930 19700 34150 17400 34150 12520 Z M 34150 12520 "/>
</g>
</svg>
