<?xml version="1.0" encoding="UTF-8"?>
<svg xmlns="http://www.w3.org/2000/svg" xmlns:xlink="http://www.w3.org/1999/xlink" width="1050.000000mm" height="350.000000mm" viewBox="0 0 10500 3500" version="1.1">
<g id="surface1416">
<path style="fill-rule:evenodd;fill:rgb(96.862745%,70.980392%,0%);fill-opacity:1;stroke-width:0.3;stroke-linecap:butt;stroke-linejoin:miter;stroke:rgb(16.470588%,16.078431%,16.470588%);stroke-opacity:1;stroke-miterlimit:3;" d="M -485 -175 C -495.608594 -175 -505.782812 -170.785547 -513.284375 -163.284375 C -520.785547 -155.782813 -525 -145.608594 -525 -135 L -525 135 C -525 145.608594 -520.785547 155.782813 -513.284375 163.284375 C -505.782812 170.785547 -495.608594 175 -485 175 L 485 175 C 495.608594 175 505.782813 170.785547 513.284375 163.284375 C 520.785547 155.782813 525 145.608594 525 135 L 525 -135 C 525 -145.608594 520.785547 -155.782813 513.284375 -163.284375 C 505.782813 -170.785547 495.608594 -175 485 -175 L -485 -175 " transform="matrix(10,0,0,-10,5250,1750)"/>
<path style=" stroke:none;fill-rule:evenodd;fill:rgb(16.470588%,16.078431%,16.470588%);fill-opacity:1;" d="M 400 3400 C 234.316406 3400 100 3265.683594 100 3100 L 100 400 C 100 234.316406 234.316406 100 400 100 L 10100 100 C 10265.683594 100 10400 234.316406 10400 400 L 10400 3100 C 10400 3265.683594 10265.683594 3400 10100 3400 L 400 3400 M 400 3250 C 317.15625 3250 250 3182.84375 250 3100 L 250 400 C 250 317.15625 317.15625 250 400 250 L 10100 250 C 10182.84375 250 10250 317.15625 10250 400 L 10250 3100 C 10250 3182.84375 10182.84375 3250 10100 3250 L 400 3250 "/>
<path style=" stroke:none;fill-rule:evenodd;fill:rgb(0%,35.686275%,54.901961%);fill-opacity:1;" d="M 4250 3000 L 4296.152344 2980.769531 C 4344.902344 2960.457031 4397.191406 2950 4450 2950 C 4502.808594 2950 4555.097656 2960.457031 4603.847656 2980.769531 L 4696.152344 3019.230469 C 4744.902344 3039.542969 4797.191406 3050 4850 3050 C 4902.808594 3050 4955.097656 3039.542969 5003.847656 3019.230469 L 5096.152344 2980.769531 C 5144.902344 2960.457031 5197.191406 2950 5250 2950 C 5302.808594 2950 5355.097656 2960.457031 5403.847656 2980.769531 L 5496.152344 3019.230469 C 5544.902344 3039.542969 5597.191406 3050 5650 3050 C 5702.808594 3050 5755.097656 3039.542969 5803.847656 3019.230469 L 5896.152344 2980.769531 C 5944.902344 2960.457031 5997.191406 2950 6050 2950 C 6102.808594 2950 6155.097656 2960.457031 6203.847656 2980.769531 L 6250 3000 L 6250 2900 L 6203.847656 2880.769531 C 6155.097656 2860.457031 6102.808594 2850 6050 2850 C 5997.191406 2850 5944.902344 2860.457031 5896.152344 2880.769531 L 5803.847656 2919.230469 C 5755.097656 2939.542969 5702.808594 2950 5650 2950 C 5597.191406 2950 5544.902344 2939.542969 5496.152344 2919.230469 L 5403.847656 2880.769531 C 5355.097656 2860.457031 5302.808594 2850 5250 2850 C 5197.191406 2850 5144.902344 2860.457031 5096.152344 2880.769531 L 5003.847656 2919.230469 C 4955.097656 2939.542969 4902.808594 2950 4850 2950 C 4797.191406 2950 4744.902344 2939.542969 4696.152344 2919.230469 L 4603.847656 2880.769531 C 4555.097656 2860.457031 4502.808594 2850 4450 2850 C 4397.191406 2850 4344.902344 2860.457031 4296.152344 2880.769531 L 4250 2900 L 4250 3000 "/>
<path style=" stroke:none;fill-rule:evenodd;fill:rgb(0%,35.686275%,54.901961%);fill-opacity:1;" d="M 4250 2800 L 4296.152344 2780.769531 C 4344.902344 2760.457031 4397.191406 2750 4450 2750 C 4502.808594 2750 4555.097656 2760.457031 4603.847656 2780.769531 L 4696.152344 2819.230469 C 4744.902344 2839.542969 4797.191406 2850 4850 2850 C 4902.808594 2850 4955.097656 2839.542969 5003.847656 2819.230469 L 5096.152344 2780.769531 C 5144.902344 2760.457031 5197.191406 2750 5250 2750 C 5302.808594 2750 5355.097656 2760.457031 5403.847656 2780.769531 L 5496.152344 2819.230469 C 5544.902344 2839.542969 5597.191406 2850 5650 2850 C 5702.808594 2850 5755.097656 2839.542969 5803.847656 2819.230469 L 5896.152344 2780.769531 C 5944.902344 2760.457031 5997.191406 2750 6050 2750 C 6102.808594 2750 6155.097656 2760.457031 6203.847656 2780.769531 L 6250 2800 L 6250 2700 L 6203.847656 2680.769531 C 6155.097656 2660.457031 6102.808594 2650 6050 2650 C 5997.191406 2650 5944.902344 2660.457031 5896.152344 2680.769531 L 5803.847656 2719.230469 C 5755.097656 2739.542969 5702.808594 2750 5650 2750 C 5597.191406 2750 5544.902344 2739.542969 5496.152344 2719.230469 L 5403.847656 2680.769531 C 5355.097656 2660.457031 5302.808594 2650 5250 2650 C 5197.191406 2650 5144.902344 2660.457031 5096.152344 2680.769531 L 5003.847656 2719.230469 C 4955.097656 2739.542969 4902.808594 2750 4850 2750 C 4797.191406 2750 4744.902344 2739.542969 4696.152344 2719.230469 L 4603.847656 2680.769531 C 4555.097656 2660.457031 4502.808594 2650 4450 2650 C 4397.191406 2650 4344.902344 2660.457031 4296.152344 2680.769531 L 4250 2700 L 4250 2800 "/>
<path style=" stroke:none;fill-rule:evenodd;fill:rgb(16.470588%,16.078431%,16.470588%);fill-opacity:1;" d="M 4400 2550 C 4372.386719 2550 4350 2527.613281 4350 2500 L 4350 2000 C 4350 1972.386719 4372.386719 1950 4400 1950 L 4550 1950 C 4577.613281 1950 4600 1972.386719 4600 2000 L 4600 2500 C 4600 2527.613281 4577.613281 2550 4550 2550 L 4400 2550 M 4700 2550 C 4672.386719 2550 4650 2527.613281 4650 2500 L 4650 2000 C 4650 1972.386719 4672.386719 1950 4700 1950 L 4850 1950 C 4877.613281 1950 4900 1972.386719 4900 2000 L 4900 2137.5 C 4900 2165.113281 4922.386719 2187.5 4950 2187.5 L 5045 2187.5 C 5070.675781 2187.5 5095.371094 2177.621094 5113.964844 2159.914062 L 5146.550781 2128.878906 C 5174.441406 2102.316406 5211.484375 2087.5 5250 2087.5 C 5288.515625 2087.5 5325.558594 2102.316406 5353.449219 2128.878906 L 5386.035156 2159.914062 C 5404.628906 2177.621094 5429.324219 2187.5 5455 2187.5 L 5550 2187.5 C 5577.613281 2187.5 5600 2165.113281 5600 2137.5 L 5600 2000 C 5600 1972.386719 5622.386719 1950 5650 1950 L 5800 1950 C 5827.613281 1950 5850 1972.386719 5850 2000 L 5850 2500 C 5850 2527.613281 5827.613281 2550 5800 2550 L 5650 2550 C 5622.386719 2550 5600 2527.613281 5600 2500 L 5600 2362.5 C 5600 2334.886719 5577.613281 2312.5 5550 2312.5 L 5455 2312.5 C 5429.324219 2312.5 5404.628906 2322.378906 5386.035156 2340.085938 L 5353.449219 2371.121094 C 5325.558594 2397.683594 5288.515625 2412.5 5250 2412.5 C 5211.484375 2412.5 5174.441406 2397.683594 5146.550781 2371.121094 L 5113.964844 2340.085938 C 5095.371094 2322.378906 5070.675781 2312.5 5045 2312.5 L 4950 2312.5 C 4922.386719 2312.5 4900 2334.886719 4900 2362.5 L 4900 2500 C 4900 2527.613281 4877.613281 2550 4850 2550 L 4700 2550 M 5950 2550 C 5922.386719 2550 5900 2527.613281 5900 2500 L 5900 2000 C 5900 1972.386719 5922.386719 1950 5950 1950 L 6100 1950 C 6127.613281 1950 6150 1972.386719 6150 2000 L 6150 2500 C 6150 2527.613281 6127.613281 2550 6100 2550 L 5950 2550 M 4250 1900 L 4250 1600 L 4515.152344 1600 C 4711.414062 1728.199219 4975.234375 1800 5250 1800 C 5524.765625 1800 5788.585938 1728.199219 5984.847656 1600 L 6250 1600 L 6250 1900 L 4250 1900 M 6250 1100 C 6250 927.609375 6144.644531 762.277344 5957.105469 640.378906 C 5769.570312 518.480469 5515.214844 450 5250 450 C 4984.785156 450 4730.429688 518.480469 4542.894531 640.378906 C 4355.355469 762.277344 4250 927.609375 4250 1100 C 4250 1272.390625 4355.355469 1437.722656 4542.894531 1559.621094 C 4730.429688 1681.519531 4984.785156 1750 5250 1750 C 5515.214844 1750 5769.570312 1681.519531 5957.105469 1559.621094 C 6144.644531 1437.722656 6250 1272.390625 6250 1100 "/>
<path style=" stroke:none;fill-rule:evenodd;fill:rgb(96.470588%,47.058824%,15.686275%);fill-opacity:1;" d="M 6100 1100 C 6100 960.761719 6010.445312 827.226562 5851.039062 728.769531 C 5691.636719 630.3125 5475.433594 575 5250 575 C 5024.566406 575 4808.363281 630.3125 4648.960938 728.769531 C 4489.554688 827.226562 4400 960.761719 4400 1100 C 4400 1239.238281 4489.554688 1372.773438 4648.960938 1471.230469 C 4808.363281 1569.6875 5024.566406 1625 5250 1625 C 5475.433594 1625 5691.636719 1569.6875 5851.039062 1471.230469 C 6010.445312 1372.773438 6100 1239.238281 6100 1100 "/>
</g>
</svg>
