<?xml version="1.0" encoding="UTF-8"?>
<svg xmlns="http://www.w3.org/2000/svg" xmlns:xlink="http://www.w3.org/1999/xlink" width="1050.000000mm" height="350.000000mm" viewBox="0 0 10500 3500" version="1.1">
<g id="surface1406">
<path style="fill-rule:evenodd;fill:rgb(96.862745%,70.980392%,0%);fill-opacity:1;stroke-width:0.3;stroke-linecap:butt;stroke-linejoin:miter;stroke:rgb(16.470588%,16.078431%,16.470588%);stroke-opacity:1;stroke-miterlimit:3;" d="M -485 -175 C -495.608594 -175 -505.782812 -170.785547 -513.284375 -163.284375 C -520.785547 -155.782813 -525 -145.608594 -525 -135 L -525 135 C -525 145.608594 -520.785547 155.782813 -513.284375 163.284375 C -505.782812 170.785547 -495.608594 175 -485 175 L 485 175 C 495.608594 175 505.782813 170.785547 513.284375 163.284375 C 520.785547 155.782813 525 145.608594 525 135 L 525 -135 C 525 -145.608594 520.785547 -155.782813 513.284375 -163.284375 C 505.782813 -170.785547 495.608594 -175 485 -175 L -485 -175 " transform="matrix(10,0,0,-10,5250,1750)"/>
<path style=" stroke:none;fill-rule:evenodd;fill:rgb(16.470588%,16.078431%,16.470588%);fill-opacity:1;" d="M 400 3400 C 234.316406 3400 100 3265.683594 100 3100 L 100 400 C 100 234.316406 234.316406 100 400 100 L 10100 100 C 10265.683594 100 10400 234.316406 10400 400 L 10400 3100 C 10400 3265.683594 10265.683594 3400 10100 3400 L 400 3400 M 400 3250 C 317.15625 3250 250 3182.84375 250 3100 L 250 400 C 250 317.15625 317.15625 250 400 250 L 10100 250 C 10182.84375 250 10250 317.15625 10250 400 L 10250 3100 C 10250 3182.84375 10182.84375 3250 10100 3250 L 400 3250 "/>
<path style=" stroke:none;fill-rule:evenodd;fill:rgb(16.470588%,16.078431%,16.470588%);fill-opacity:1;" d="M 5055 710 L 4841.332031 710 C 4727.355469 710 4626.667969 784.234375 4592.960938 893.109375 L 4404.164062 1502.964844 C 4361.652344 1494.34375 4318.378906 1490 4275 1490 C 4102.609375 1490 3937.277344 1558.480469 3815.378906 1680.378906 C 3693.480469 1802.277344 3625 1967.609375 3625 2140 C 3625 2312.390625 3693.480469 2477.722656 3815.378906 2599.621094 C 3937.277344 2721.519531 4102.609375 2790 4275 2790 C 4447.390625 2790 4612.722656 2721.519531 4734.621094 2599.621094 C 4856.519531 2477.722656 4925 2312.390625 4925 2140 C 4925 2012.292969 4887.378906 1887.414062 4816.839844 1780.957031 C 4746.296875 1674.503906 4645.957031 1591.183594 4528.351562 1541.40625 L 4599.46875 1311.6875 L 5207.226562 2212.695312 C 5231.390625 2248.523438 5271.78125 2270 5315 2270 L 5588.132812 2270 C 5618.097656 2416.796875 5697.851562 2548.730469 5813.902344 2643.488281 C 5929.957031 2738.242188 6075.179688 2790 6225 2790 C 6397.390625 2790 6562.722656 2721.519531 6684.621094 2599.621094 C 6806.519531 2477.722656 6875 2312.390625 6875 2140 C 6875 1967.609375 6806.519531 1802.277344 6684.621094 1680.378906 C 6562.722656 1558.480469 6397.390625 1490 6225 1490 C 6156.582031 1490 6088.59375 1500.800781 6023.542969 1522.007812 L 5835 1100 L 5883.75 970 L 6030 970 L 6030 840 L 5477.5 840 C 5459.550781 840 5445 854.550781 5445 872.5 C 5445 887.53125 5455.308594 900.601562 5469.925781 904.105469 L 5744.910156 970 L 5696.160156 1100 L 4665 1100 L 4717.148438 931.554688 C 4734 877.117188 4784.34375 840 4841.332031 840 L 5055 840 L 5055 710 M 4699.628906 1230 L 5308.757812 2133.074219 L 5647.410156 1230 L 4699.628906 1230 M 4365.476562 1627.933594 C 4335.609375 1622.652344 4305.332031 1620 4275 1620 C 4137.085938 1620 4004.824219 1674.785156 3907.304688 1772.304688 C 3809.785156 1869.824219 3755 2002.085938 3755 2140 C 3755 2277.914062 3809.785156 2410.175781 3907.304688 2507.695312 C 4004.824219 2605.214844 4137.085938 2660 4275 2660 C 4412.914062 2660 4545.175781 2605.214844 4642.695312 2507.695312 C 4740.214844 2410.175781 4795 2277.914062 4795 2140 C 4795 2040.0625 4766.199219 1942.238281 4712.050781 1858.242188 C 4657.898438 1774.246094 4580.691406 1707.632812 4489.664062 1666.375 L 4337.09375 2159.222656 C 4328.667969 2186.441406 4303.492188 2205 4275 2205 C 4239.101562 2205 4210 2175.898438 4210 2140 C 4210 2133.484375 4210.980469 2127.003906 4212.90625 2120.777344 L 4365.480469 1627.933594 M 5705 2140 L 6157.265625 2140 L 5957.925781 1693.828125 C 5801.035156 1787.738281 5705 1957.152344 5705 2140 M 5721.511719 2270 C 5750.332031 2381.621094 5815.429688 2480.5 5906.566406 2551.097656 C 5997.703125 2621.691406 6109.71875 2660 6225 2660 C 6362.914062 2660 6495.175781 2605.214844 6592.695312 2507.695312 C 6690.214844 2410.175781 6745 2277.914062 6745 2140 C 6745 2002.085938 6690.214844 1869.824219 6592.695312 1772.304688 C 6495.175781 1674.785156 6362.914062 1620 6225 1620 C 6174.867188 1620 6125 1627.25 6076.941406 1641.523438 L 6316.847656 2178.484375 C 6320.574219 2186.828125 6322.5 2195.863281 6322.5 2205 C 6322.5 2240.898438 6293.398438 2270 6257.5 2270 L 5721.511719 2270 M 5445 2140 L 5575 2140 C 5575 2025.003906 5605.507812 1912.066406 5663.410156 1812.710938 C 5721.3125 1713.355469 5804.539062 1631.140625 5904.59375 1574.457031 L 5770.027344 1273.265625 L 5445 2140 "/>
</g>
</svg>
