<?xml version="1.0" encoding="UTF-8"?>
<svg xmlns="http://www.w3.org/2000/svg" xmlns:xlink="http://www.w3.org/1999/xlink" width="600.000000mm" height="900.000000mm" viewBox="0 0 6000 9000" version="1.1">
<g id="surface1566">
<path style="fill-rule:evenodd;fill:rgb(96.862745%,70.980392%,0%);fill-opacity:1;stroke-width:0.3;stroke-linecap:butt;stroke-linejoin:miter;stroke:rgb(16.470588%,16.078431%,16.470588%);stroke-opacity:1;stroke-miterlimit:3;" d="M -260 -450 C -270.608594 -450 -280.782812 -445.785547 -288.284375 -438.284375 C -295.785547 -430.782813 -300 -420.608594 -300 -410 L -300 410 C -300 420.608594 -295.785547 430.782812 -288.284375 438.284375 C -280.782812 445.785547 -270.608594 450 -260 450 L 260 450 C 270.608594 450 280.782812 445.785547 288.284375 438.284375 C 295.785547 430.782812 300 420.608594 300 410 L 300 -410 C 300 -420.608594 295.785547 -430.782813 288.284375 -438.284375 C 280.782812 -445.785547 270.608594 -450 260 -450 L -260 -450 " transform="matrix(10,0,0,-10,3000,4500)"/>
<path style=" stroke:none;fill-rule:evenodd;fill:rgb(16.470588%,16.078431%,16.470588%);fill-opacity:1;" d="M 400 8900 C 234.316406 8900 100 8765.683594 100 8600 L 100 400 C 100 234.316406 234.316406 100 400 100 L 5600 100 C 5765.683594 100 5900 234.316406 5900 400 L 5900 8600 C 5900 8765.683594 5765.683594 8900 5600 8900 L 400 8900 M 400 8750 C 317.15625 8750 250 8682.84375 250 8600 L 250 400 C 250 317.15625 317.15625 250 400 250 L 5600 250 C 5682.84375 250 5750 317.15625 5750 400 L 5750 8600 C 5750 8682.84375 5682.84375 8750 5600 8750 L 400 8750 "/>
<path style=" stroke:none;fill-rule:evenodd;fill:rgb(16.470588%,16.078431%,16.470588%);fill-opacity:1;" d="M 2000 1650 L 1133.449219 1704.160156 C 1094.117188 1706.617188 1059.894531 1731.949219 1046.054688 1768.851562 L 825.46875 2357.082031 C 808.625 2401.992188 800 2449.566406 800 2497.53125 L 800 3050 C 800 3105.226562 844.773438 3150 900 3150 L 950 3150 C 950 3030.652344 997.410156 2916.191406 1081.800781 2831.800781 C 1166.191406 2747.410156 1280.652344 2700 1400 2700 C 1519.347656 2700 1633.808594 2747.410156 1718.199219 2831.800781 C 1802.589844 2916.191406 1850 3030.652344 1850 3150 L 3650 3150 C 3650 3014.074219 3711.4375 2885.433594 3817.15625 2800 L 2000 2800 L 2000 1650 M 1650 2325 L 1650 1825 L 1144.726562 1856.578125 C 1125.058594 1857.804688 1107.945312 1870.472656 1101.027344 1888.921875 L 933.414062 2335.894531 C 931.308594 2341.507812 930.230469 2347.457031 930.230469 2353.453125 C 930.230469 2381.066406 952.617188 2403.453125 980.230469 2403.453125 C 982.183594 2403.453125 984.136719 2403.335938 986.074219 2403.109375 L 1650 2325 M 1750 3150 C 1750 2956.699219 1593.300781 2800 1400 2800 C 1206.699219 2800 1050 2956.699219 1050 3150 C 1050 3343.300781 1206.699219 3500 1400 3500 C 1593.300781 3500 1750 3343.300781 1750 3150 M 4450 3150 C 4450 2956.699219 4293.300781 2800 4100 2800 C 3906.699219 2800 3750 2956.699219 3750 3150 C 3750 3343.300781 3906.699219 3500 4100 3500 C 4293.300781 3500 4450 3343.300781 4450 3150 M 4800 3150 L 5100 3050 L 5100 2800 L 4382.84375 2800 C 4488.5625 2885.433594 4550 3014.074219 4550 3150 L 4800 3150 M 5100 2700 L 5100 1300 L 2200 1300 L 2200 2700 L 5100 2700 "/>
<path style=" stroke:none;fill-rule:evenodd;fill:rgb(16.470588%,16.078431%,16.470588%);fill-opacity:1;" d="M 4300 8100 L 4300 6400 C 4300 6134.785156 4194.644531 5880.429688 4007.105469 5692.894531 C 3819.570312 5505.355469 3565.214844 5400 3300 5400 L 2400 5400 L 3100 4700 L 2600 4700 L 1700 5600 L 2600 6500 L 3100 6500 L 2400 5800 L 3300 5800 C 3459.128906 5800 3611.742188 5863.214844 3724.265625 5975.734375 C 3836.785156 6088.257812 3900 6240.871094 3900 6400 L 3900 8100 L 4300 8100 "/>
</g>
</svg>
