<?xml version="1.0" encoding="UTF-8"?>
<svg xmlns="http://www.w3.org/2000/svg" xmlns:xlink="http://www.w3.org/1999/xlink" width="600.000000mm" height="900.000000mm" viewBox="0 0 6000 9000" version="1.1">
<g id="surface1786">
<path style="fill-rule:evenodd;fill:rgb(96.862745%,70.980392%,0%);fill-opacity:1;stroke-width:0.3;stroke-linecap:butt;stroke-linejoin:miter;stroke:rgb(16.470588%,16.078431%,16.470588%);stroke-opacity:1;stroke-miterlimit:3;" d="M -260 -450 C -270.608594 -450 -280.782812 -445.785547 -288.284375 -438.284375 C -295.785547 -430.782813 -300 -420.608594 -300 -410 L -300 410 C -300 420.608594 -295.785547 430.782812 -288.284375 438.284375 C -280.782812 445.785547 -270.608594 450 -260 450 L 260 450 C 270.608594 450 280.782812 445.785547 288.284375 438.284375 C 295.785547 430.782812 300 420.608594 300 410 L 300 -410 C 300 -420.608594 295.785547 -430.782813 288.284375 -438.284375 C 280.782812 -445.785547 270.608594 -450 260 -450 L -260 -450 " transform="matrix(10,0,0,-10,3000,4500)"/>
<path style=" stroke:none;fill-rule:evenodd;fill:rgb(16.470588%,16.078431%,16.470588%);fill-opacity:1;" d="M 400 8900 C 234.316406 8900 100 8765.683594 100 8600 L 100 400 C 100 234.316406 234.316406 100 400 100 L 5600 100 C 5765.683594 100 5900 234.316406 5900 400 L 5900 8600 C 5900 8765.683594 5765.683594 8900 5600 8900 L 400 8900 M 400 8750 C 317.15625 8750 250 8682.84375 250 8600 L 250 400 C 250 317.15625 317.15625 250 400 250 L 5600 250 C 5682.84375 250 5750 317.15625 5750 400 L 5750 8600 C 5750 8682.84375 5682.84375 8750 5600 8750 L 400 8750 "/>
<path style=" stroke:none;fill-rule:evenodd;fill:rgb(16.470588%,16.078431%,16.470588%);fill-opacity:1;" d="M 1810 4090 C 1771.339844 4090 1740 4058.660156 1740 4020 L 1740 3320 C 1740 3281.339844 1771.339844 3250 1810 3250 L 2020 3250 C 2058.660156 3250 2090 3281.339844 2090 3320 L 2090 4020 C 2090 4058.660156 2058.660156 4090 2020 4090 L 1810 4090 M 2230 4090 C 2191.339844 4090 2160 4058.660156 2160 4020 L 2160 3320 C 2160 3281.339844 2191.339844 3250 2230 3250 L 2440 3250 C 2478.660156 3250 2510 3281.339844 2510 3320 L 2510 3512.5 C 2510 3551.160156 2541.339844 3582.5 2580 3582.5 L 2713 3582.5 C 2748.949219 3582.5 2783.519531 3568.671875 2809.550781 3543.878906 L 2855.171875 3500.429688 C 2894.21875 3463.242188 2946.078125 3442.5 3000 3442.5 C 3053.921875 3442.5 3105.78125 3463.242188 3144.828125 3500.429688 L 3190.449219 3543.878906 C 3216.480469 3568.671875 3251.050781 3582.5 3287 3582.5 L 3420 3582.5 C 3458.660156 3582.5 3490 3551.160156 3490 3512.5 L 3490 3320 C 3490 3281.339844 3521.339844 3250 3560 3250 L 3770 3250 C 3808.660156 3250 3840 3281.339844 3840 3320 L 3840 4020 C 3840 4058.660156 3808.660156 4090 3770 4090 L 3560 4090 C 3521.339844 4090 3490 4058.660156 3490 4020 L 3490 3827.5 C 3490 3788.839844 3458.660156 3757.5 3420 3757.5 L 3287 3757.5 C 3251.050781 3757.5 3216.480469 3771.328125 3190.449219 3796.121094 L 3144.828125 3839.570312 C 3105.78125 3876.757812 3053.921875 3897.5 3000 3897.5 C 2946.078125 3897.5 2894.21875 3876.757812 2855.171875 3839.570312 L 2809.550781 3796.121094 C 2783.519531 3771.328125 2748.949219 3757.5 2713 3757.5 L 2580 3757.5 C 2541.339844 3757.5 2510 3788.839844 2510 3827.5 L 2510 4020 C 2510 4058.660156 2478.660156 4090 2440 4090 L 2230 4090 M 3980 4090 C 3941.339844 4090 3910 4058.660156 3910 4020 L 3910 3320 C 3910 3281.339844 3941.339844 3250 3980 3250 L 4190 3250 C 4228.660156 3250 4260 3281.339844 4260 3320 L 4260 4020 C 4260 4058.660156 4228.660156 4090 4190 4090 L 3980 4090 M 1600 3180 L 1600 3040 L 4400 3040 L 4400 3180 L 1600 3180 M 1740 2970 L 1740 905 C 1740 769.691406 1849.691406 660 1985 660 L 4015 660 C 4150.308594 660 4260 769.691406 4260 905 L 4260 2970 L 1740 2970 "/>
<path style=" stroke:none;fill-rule:evenodd;fill:rgb(96.470588%,47.058824%,15.686275%);fill-opacity:1;" d="M 2055 2690 L 2055 940 L 3945 940 L 3945 2690 L 2055 2690 "/>
<path style=" stroke:none;fill-rule:evenodd;fill:rgb(16.470588%,16.078431%,16.470588%);fill-opacity:1;" d="M 3000 4700 L 2100 5600 L 2100 6100 L 2800 5400 L 2800 8100 L 3200 8100 L 3200 5400 L 3900 6100 L 3900 5600 L 3000 4700 "/>
</g>
</svg>
