<?xml version="1.0" encoding="UTF-8"?>
<svg xmlns="http://www.w3.org/2000/svg" xmlns:xlink="http://www.w3.org/1999/xlink" width="600.000000mm" height="900.000000mm" viewBox="0 0 6000 9000" version="1.1">
<g id="surface1781">
<path style="fill-rule:evenodd;fill:rgb(96.862745%,70.980392%,0%);fill-opacity:1;stroke-width:0.3;stroke-linecap:butt;stroke-linejoin:miter;stroke:rgb(16.470588%,16.078431%,16.470588%);stroke-opacity:1;stroke-miterlimit:3;" d="M -260 -450 C -270.608594 -450 -280.782812 -445.785547 -288.284375 -438.284375 C -295.785547 -430.782813 -300 -420.608594 -300 -410 L -300 410 C -300 420.608594 -295.785547 430.782812 -288.284375 438.284375 C -280.782812 445.785547 -270.608594 450 -260 450 L 260 450 C 270.608594 450 280.782812 445.785547 288.284375 438.284375 C 295.785547 430.782812 300 420.608594 300 410 L 300 -410 C 300 -420.608594 295.785547 -430.782813 288.284375 -438.284375 C 280.782812 -445.785547 270.608594 -450 260 -450 L -260 -450 " transform="matrix(10,0,0,-10,3000,4500)"/>
<path style=" stroke:none;fill-rule:evenodd;fill:rgb(16.470588%,16.078431%,16.470588%);fill-opacity:1;" d="M 400 8900 C 234.316406 8900 100 8765.683594 100 8600 L 100 400 C 100 234.316406 234.316406 100 400 100 L 5600 100 C 5765.683594 100 5900 234.316406 5900 400 L 5900 8600 C 5900 8765.683594 5765.683594 8900 5600 8900 L 400 8900 M 400 8750 C 317.15625 8750 250 8682.84375 250 8600 L 250 400 C 250 317.15625 317.15625 250 400 250 L 5600 250 C 5682.84375 250 5750 317.15625 5750 400 L 5750 8600 C 5750 8682.84375 5682.84375 8750 5600 8750 L 400 8750 "/>
<path style=" stroke:none;fill-rule:evenodd;fill:rgb(16.470588%,16.078431%,16.470588%);fill-opacity:1;" d="M 2775 1200 L 2528.460938 1200 C 2396.949219 1200 2280.769531 1285.652344 2241.878906 1411.28125 L 2024.039062 2114.957031 C 1974.980469 2105.011719 1925.054688 2100 1875 2100 C 1676.085938 2100 1485.320312 2179.019531 1344.667969 2319.667969 C 1204.019531 2460.320312 1125 2651.085938 1125 2850 C 1125 3048.914062 1204.019531 3239.679688 1344.667969 3380.332031 C 1485.320312 3520.980469 1676.085938 3600 1875 3600 C 2073.914062 3600 2264.679688 3520.980469 2405.332031 3380.332031 C 2545.980469 3239.679688 2625 3048.914062 2625 2850 C 2625 2702.644531 2581.59375 2558.554688 2500.199219 2435.722656 C 2418.804688 2312.886719 2303.027344 2216.75 2167.328125 2159.316406 L 2249.386719 1894.257812 L 2950.644531 2933.878906 C 2978.527344 2975.21875 3025.132812 3000 3075 3000 L 3390.152344 3000 C 3424.726562 3169.378906 3516.753906 3321.613281 3650.660156 3430.949219 C 3784.5625 3540.28125 3952.128906 3600 4125 3600 C 4323.914062 3600 4514.679688 3520.980469 4655.332031 3380.332031 C 4795.980469 3239.679688 4875 3048.914062 4875 2850 C 4875 2651.085938 4795.980469 2460.320312 4655.332031 2319.667969 C 4514.679688 2179.019531 4323.914062 2100 4125 2100 C 4046.054688 2100 3967.609375 2112.464844 3892.550781 2136.929688 L 3675 1650 L 3731.25 1500 L 3900 1500 L 3900 1350 L 3262.5 1350 C 3241.789062 1350 3225 1366.789062 3225 1387.5 C 3225 1404.84375 3236.894531 1419.925781 3253.761719 1423.96875 L 3571.050781 1500 L 3514.800781 1650 L 2325 1650 L 2385.167969 1455.640625 C 2404.613281 1392.828125 2462.703125 1350 2528.460938 1350 L 2775 1350 L 2775 1200 M 2364.953125 1800 L 3067.796875 2842.007812 L 3458.550781 1800 L 2364.953125 1800 M 1979.398438 2259.152344 C 1944.933594 2253.0625 1910 2250 1875 2250 C 1715.871094 2250 1563.257812 2313.214844 1450.734375 2425.734375 C 1338.214844 2538.257812 1275 2690.871094 1275 2850 C 1275 3009.128906 1338.214844 3161.742188 1450.734375 3274.265625 C 1563.257812 3386.785156 1715.871094 3450 1875 3450 C 2034.128906 3450 2186.742188 3386.785156 2299.265625 3274.265625 C 2411.785156 3161.742188 2475 3009.128906 2475 2850 C 2475 2734.6875 2441.769531 2621.816406 2379.289062 2524.894531 C 2316.808594 2427.976562 2227.71875 2351.113281 2122.691406 2303.511719 L 1946.644531 2872.179688 C 1936.921875 2903.585938 1907.878906 2925 1875 2925 C 1833.578125 2925 1800 2891.421875 1800 2850 C 1800 2842.480469 1801.128906 2835.003906 1803.355469 2827.820312 L 1979.398438 2259.152344 M 3525 2850 L 4046.847656 2850 L 3816.835938 2335.183594 C 3635.808594 2443.542969 3525 2639.019531 3525 2850 M 3544.050781 3000 C 3577.308594 3128.792969 3652.417969 3242.886719 3757.578125 3324.339844 C 3862.734375 3405.796875 3991.984375 3450 4125 3450 C 4284.128906 3450 4436.742188 3386.785156 4549.265625 3274.265625 C 4661.785156 3161.742188 4725 3009.128906 4725 2850 C 4725 2690.871094 4661.785156 2538.257812 4549.265625 2425.734375 C 4436.742188 2313.214844 4284.128906 2250 4125 2250 C 4067.15625 2250 4009.613281 2258.363281 3954.164062 2274.835938 L 4230.976562 2894.40625 C 4235.277344 2904.03125 4237.5 2914.457031 4237.5 2925 C 4237.5 2966.421875 4203.921875 3000 4162.5 3000 L 3544.054688 3000 M 3225 2850 L 3375 2850 C 3375 2717.3125 3410.203125 2587 3477.011719 2472.359375 C 3543.824219 2357.71875 3639.851562 2262.855469 3755.300781 2197.449219 L 3600.03125 1849.921875 L 3225 2850 "/>
<path style=" stroke:none;fill-rule:evenodd;fill:rgb(16.470588%,16.078431%,16.470588%);fill-opacity:1;" d="M 3000 4700 L 2100 5600 L 2100 6100 L 2800 5400 L 2800 8100 L 3200 8100 L 3200 5400 L 3900 6100 L 3900 5600 L 3000 4700 "/>
</g>
</svg>
