<?xml version="1.0" encoding="UTF-8"?>
<svg xmlns="http://www.w3.org/2000/svg" xmlns:xlink="http://www.w3.org/1999/xlink" width="600.000000mm" height="900.000000mm" viewBox="0 0 6000 9000" version="1.1">
<g id="surface1421">
<path style="fill-rule:evenodd;fill:rgb(96.862745%,70.980392%,0%);fill-opacity:1;stroke-width:0.3;stroke-linecap:butt;stroke-linejoin:miter;stroke:rgb(16.470588%,16.078431%,16.470588%);stroke-opacity:1;stroke-miterlimit:3;" d="M -260 -450 C -270.608594 -450 -280.782812 -445.785547 -288.284375 -438.284375 C -295.785547 -430.782813 -300 -420.608594 -300 -410 L -300 410 C -300 420.608594 -295.785547 430.782812 -288.284375 438.284375 C -280.782812 445.785547 -270.608594 450 -260 450 L 260 450 C 270.608594 450 280.782812 445.785547 288.284375 438.284375 C 295.785547 430.782812 300 420.608594 300 410 L 300 -410 C 300 -420.608594 295.785547 -430.782813 288.284375 -438.284375 C 280.782812 -445.785547 270.608594 -450 260 -450 L -260 -450 " transform="matrix(10,0,0,-10,3000,4500)"/>
<path style=" stroke:none;fill-rule:evenodd;fill:rgb(16.470588%,16.078431%,16.470588%);fill-opacity:1;" d="M 400 8900 C 234.316406 8900 100 8765.683594 100 8600 L 100 400 C 100 234.316406 234.316406 100 400 100 L 5600 100 C 5765.683594 100 5900 234.316406 5900 400 L 5900 8600 C 5900 8765.683594 5765.683594 8900 5600 8900 L 400 8900 M 400 8750 C 317.15625 8750 250 8682.84375 250 8600 L 250 400 C 250 317.15625 317.15625 250 400 250 L 5600 250 C 5682.84375 250 5750 317.15625 5750 400 L 5750 8600 C 5750 8682.84375 5682.84375 8750 5600 8750 L 400 8750 "/>
<path style=" stroke:none;fill-rule:evenodd;fill:rgb(16.470588%,16.078431%,16.470588%);fill-opacity:1;" d="M 1300 4500 L 2200 3600 L 2700 3600 L 2000 4300 L 4700 4300 L 4700 4700 L 2000 4700 L 2700 5400 L 2200 5400 L 1300 4500 "/>
</g>
</svg>
