<?xml version="1.0" encoding="UTF-8"?>
<svg xmlns="http://www.w3.org/2000/svg" xmlns:xlink="http://www.w3.org/1999/xlink" width="600.000000mm" height="900.000000mm" viewBox="0 0 6000 9000" version="1.1">
<g id="surface1726">
<path style="fill-rule:evenodd;fill:rgb(96.862745%,70.980392%,0%);fill-opacity:1;stroke-width:0.3;stroke-linecap:butt;stroke-linejoin:miter;stroke:rgb(16.470588%,16.078431%,16.470588%);stroke-opacity:1;stroke-miterlimit:3;" d="M -260 -450 C -270.608594 -450 -280.782812 -445.785547 -288.284375 -438.284375 C -295.785547 -430.782813 -300 -420.608594 -300 -410 L -300 410 C -300 420.608594 -295.785547 430.782812 -288.284375 438.284375 C -280.782812 445.785547 -270.608594 450 -260 450 L 260 450 C 270.608594 450 280.782812 445.785547 288.284375 438.284375 C 295.785547 430.782812 300 420.608594 300 410 L 300 -410 C 300 -420.608594 295.785547 -430.782813 288.284375 -438.284375 C 280.782812 -445.785547 270.608594 -450 260 -450 L -260 -450 " transform="matrix(10,0,0,-10,3000,4500)"/>
<path style=" stroke:none;fill-rule:evenodd;fill:rgb(16.470588%,16.078431%,16.470588%);fill-opacity:1;" d="M 400 8900 C 234.316406 8900 100 8765.683594 100 8600 L 100 400 C 100 234.316406 234.316406 100 400 100 L 5600 100 C 5765.683594 100 5900 234.316406 5900 400 L 5900 8600 C 5900 8765.683594 5765.683594 8900 5600 8900 L 400 8900 M 400 8750 C 317.15625 8750 250 8682.84375 250 8600 L 250 400 C 250 317.15625 317.15625 250 400 250 L 5600 250 C 5682.84375 250 5750 317.15625 5750 400 L 5750 8600 C 5750 8682.84375 5682.84375 8750 5600 8750 L 400 8750 "/>
<path style=" stroke:none;fill-rule:evenodd;fill:rgb(16.470588%,16.078431%,16.470588%);fill-opacity:1;" d="M 4000 1650 L 4866.550781 1704.160156 C 4905.882812 1706.617188 4940.105469 1731.949219 4953.945312 1768.851562 L 5174.53125 2357.082031 C 5191.375 2401.992188 5200 2449.566406 5200 2497.53125 L 5200 3050 C 5200 3105.226562 5155.226562 3150 5100 3150 L 5050 3150 C 5050 3030.652344 5002.589844 2916.191406 4918.199219 2831.800781 C 4833.808594 2747.410156 4719.347656 2700 4600 2700 C 4480.652344 2700 4366.191406 2747.410156 4281.800781 2831.800781 C 4197.410156 2916.191406 4150 3030.652344 4150 3150 L 2350 3150 C 2350 3014.074219 2288.5625 2885.433594 2182.84375 2800 L 4000 2800 L 4000 1650 M 4350 2325 L 4350 1825 L 4855.273438 1856.578125 C 4874.941406 1857.804688 4892.054688 1870.472656 4898.972656 1888.921875 L 5066.585938 2335.894531 C 5068.691406 2341.507812 5069.769531 2347.457031 5069.769531 2353.453125 C 5069.769531 2381.066406 5047.382812 2403.453125 5019.769531 2403.453125 C 5017.816406 2403.453125 5015.863281 2403.335938 5013.925781 2403.109375 L 4350 2325 M 4250 3150 C 4250 2956.699219 4406.699219 2800 4600 2800 C 4793.300781 2800 4950 2956.699219 4950 3150 C 4950 3343.300781 4793.300781 3500 4600 3500 C 4406.699219 3500 4250 3343.300781 4250 3150 M 1550 3150 C 1550 2956.699219 1706.699219 2800 1900 2800 C 2093.300781 2800 2250 2956.699219 2250 3150 C 2250 3343.300781 2093.300781 3500 1900 3500 C 1706.699219 3500 1550 3343.300781 1550 3150 M 1200 3150 L 900 3050 L 900 2800 L 1617.15625 2800 C 1511.4375 2885.433594 1450 3014.074219 1450 3150 L 1200 3150 M 900 2700 L 900 1300 L 3800 1300 L 3800 2700 L 900 2700 "/>
<path style=" stroke:none;fill-rule:evenodd;fill:rgb(16.470588%,16.078431%,16.470588%);fill-opacity:1;" d="M 1700 8100 L 1700 6400 C 1700 6134.785156 1805.355469 5880.429688 1992.894531 5692.894531 C 2180.429688 5505.355469 2434.785156 5400 2700 5400 L 3600 5400 L 2900 4700 L 3400 4700 L 4300 5600 L 3400 6500 L 2900 6500 L 3600 5800 L 2700 5800 C 2540.871094 5800 2388.257812 5863.214844 2275.734375 5975.734375 C 2163.214844 6088.257812 2100 6240.871094 2100 6400 L 2100 8100 L 1700 8100 "/>
</g>
</svg>
