<?xml version="1.0" encoding="UTF-8"?>
<svg xmlns="http://www.w3.org/2000/svg" xmlns:xlink="http://www.w3.org/1999/xlink" width="600.000000mm" height="450.000000mm" viewBox="0 0 6000 4500" version="1.1">
<g id="surface1841">
<path style="fill-rule:evenodd;fill:rgb(96.862745%,70.980392%,0%);fill-opacity:1;stroke-width:0.3;stroke-linecap:butt;stroke-linejoin:miter;stroke:rgb(16.470588%,16.078431%,16.470588%);stroke-opacity:1;stroke-miterlimit:3;" d="M -260 -225 C -270.608594 -225 -280.782812 -220.785547 -288.284375 -213.284375 C -295.785547 -205.782813 -300 -195.608594 -300 -185 L -300 185 C -300 195.608594 -295.785547 205.782813 -288.284375 213.284375 C -280.782812 220.785547 -270.608594 225 -260 225 L 260 225 C 270.608594 225 280.782812 220.785547 288.284375 213.284375 C 295.785547 205.782813 300 195.608594 300 185 L 300 -185 C 300 -195.608594 295.785547 -205.782813 288.284375 -213.284375 C 280.782812 -220.785547 270.608594 -225 260 -225 L -260 -225 " transform="matrix(10,0,0,-10,3000,2250)"/>
<path style=" stroke:none;fill-rule:evenodd;fill:rgb(16.470588%,16.078431%,16.470588%);fill-opacity:1;" d="M 400 4400 C 234.316406 4400 100 4265.683594 100 4100 L 100 400 C 100 234.316406 234.316406 100 400 100 L 5600 100 C 5765.683594 100 5900 234.316406 5900 400 L 5900 4100 C 5900 4265.683594 5765.683594 4400 5600 4400 L 400 4400 M 400 4250 C 317.15625 4250 250 4182.84375 250 4100 L 250 400 C 250 317.15625 317.15625 250 400 250 L 5600 250 C 5682.84375 250 5750 317.15625 5750 400 L 5750 4100 C 5750 4182.84375 5682.84375 4250 5600 4250 L 400 4250 "/>
<path style=" stroke:none;fill-rule:evenodd;fill:rgb(16.470588%,16.078431%,16.470588%);fill-opacity:1;" d="M 2000 1600 L 1133.449219 1654.160156 C 1094.117188 1656.617188 1059.894531 1681.949219 1046.054688 1718.851562 L 825.46875 2307.082031 C 808.625 2351.992188 800 2399.566406 800 2447.53125 L 800 3000 C 800 3055.226562 844.773438 3100 900 3100 L 950 3100 C 950 2980.652344 997.410156 2866.191406 1081.800781 2781.800781 C 1166.191406 2697.410156 1280.652344 2650 1400 2650 C 1519.347656 2650 1633.808594 2697.410156 1718.199219 2781.800781 C 1802.589844 2866.191406 1850 2980.652344 1850 3100 L 3650 3100 C 3650 2964.074219 3711.4375 2835.433594 3817.15625 2750 L 2000 2750 L 2000 1600 M 1650 2275 L 1650 1775 L 1144.726562 1806.578125 C 1125.058594 1807.804688 1107.945312 1820.472656 1101.027344 1838.921875 L 933.414062 2285.894531 C 931.308594 2291.507812 930.230469 2297.457031 930.230469 2303.453125 C 930.230469 2331.066406 952.617188 2353.453125 980.230469 2353.453125 C 982.183594 2353.453125 984.136719 2353.335938 986.074219 2353.109375 L 1650 2275 M 1750 3100 C 1750 2906.699219 1593.300781 2750 1400 2750 C 1206.699219 2750 1050 2906.699219 1050 3100 C 1050 3293.300781 1206.699219 3450 1400 3450 C 1593.300781 3450 1750 3293.300781 1750 3100 M 4450 3100 C 4450 2906.699219 4293.300781 2750 4100 2750 C 3906.699219 2750 3750 2906.699219 3750 3100 C 3750 3293.300781 3906.699219 3450 4100 3450 C 4293.300781 3450 4450 3293.300781 4450 3100 M 4800 3100 L 5100 3000 L 5100 2750 L 4382.84375 2750 C 4488.5625 2835.433594 4550 2964.074219 4550 3100 L 4800 3100 M 5100 2650 L 5100 1250 L 2200 1250 L 2200 2650 L 5100 2650 "/>
</g>
</svg>
