<?xml version="1.0" encoding="UTF-8"?>
<svg xmlns="http://www.w3.org/2000/svg" xmlns:xlink="http://www.w3.org/1999/xlink" width="600.000000mm" height="450.000000mm" viewBox="0 0 6000 4500" version="1.1">
<g id="surface1846">
<path style="fill-rule:evenodd;fill:rgb(96.862745%,70.980392%,0%);fill-opacity:1;stroke-width:0.3;stroke-linecap:butt;stroke-linejoin:miter;stroke:rgb(16.470588%,16.078431%,16.470588%);stroke-opacity:1;stroke-miterlimit:3;" d="M -260 -225 C -270.608594 -225 -280.782812 -220.785547 -288.284375 -213.284375 C -295.785547 -205.782813 -300 -195.608594 -300 -185 L -300 185 C -300 195.608594 -295.785547 205.782813 -288.284375 213.284375 C -280.782812 220.785547 -270.608594 225 -260 225 L 260 225 C 270.608594 225 280.782812 220.785547 288.284375 213.284375 C 295.785547 205.782813 300 195.608594 300 185 L 300 -185 C 300 -195.608594 295.785547 -205.782813 288.284375 -213.284375 C 280.782812 -220.785547 270.608594 -225 260 -225 L -260 -225 " transform="matrix(10,0,0,-10,3000,2250)"/>
<path style=" stroke:none;fill-rule:evenodd;fill:rgb(16.470588%,16.078431%,16.470588%);fill-opacity:1;" d="M 400 4400 C 234.316406 4400 100 4265.683594 100 4100 L 100 400 C 100 234.316406 234.316406 100 400 100 L 5600 100 C 5765.683594 100 5900 234.316406 5900 400 L 5900 4100 C 5900 4265.683594 5765.683594 4400 5600 4400 L 400 4400 M 400 4250 C 317.15625 4250 250 4182.84375 250 4100 L 250 400 C 250 317.15625 317.15625 250 400 250 L 5600 250 C 5682.84375 250 5750 317.15625 5750 400 L 5750 4100 C 5750 4182.84375 5682.84375 4250 5600 4250 L 400 4250 "/>
<path style=" stroke:none;fill-rule:evenodd;fill:rgb(16.470588%,16.078431%,16.470588%);fill-opacity:1;" d="M 2775 1100 L 2528.460938 1100 C 2396.949219 1100 2280.769531 1185.652344 2241.878906 1311.28125 L 2024.039062 2014.957031 C 1974.980469 2005.011719 1925.054688 2000 1875 2000 C 1676.085938 2000 1485.320312 2079.019531 1344.667969 2219.667969 C 1204.019531 2360.320312 1125 2551.085938 1125 2750 C 1125 2948.914062 1204.019531 3139.679688 1344.667969 3280.332031 C 1485.320312 3420.980469 1676.085938 3500 1875 3500 C 2073.914062 3500 2264.679688 3420.980469 2405.332031 3280.332031 C 2545.980469 3139.679688 2625 2948.914062 2625 2750 C 2625 2602.644531 2581.59375 2458.554688 2500.199219 2335.722656 C 2418.804688 2212.886719 2303.027344 2116.75 2167.328125 2059.316406 L 2249.386719 1794.257812 L 2950.644531 2833.878906 C 2978.527344 2875.21875 3025.132812 2900 3075 2900 L 3390.152344 2900 C 3424.726562 3069.378906 3516.753906 3221.613281 3650.660156 3330.949219 C 3784.5625 3440.28125 3952.128906 3500 4125 3500 C 4323.914062 3500 4514.679688 3420.980469 4655.332031 3280.332031 C 4795.980469 3139.679688 4875 2948.914062 4875 2750 C 4875 2551.085938 4795.980469 2360.320312 4655.332031 2219.667969 C 4514.679688 2079.019531 4323.914062 2000 4125 2000 C 4046.054688 2000 3967.609375 2012.464844 3892.550781 2036.929688 L 3675 1550 L 3731.25 1400 L 3900 1400 L 3900 1250 L 3262.5 1250 C 3241.789062 1250 3225 1266.789062 3225 1287.5 C 3225 1304.84375 3236.894531 1319.925781 3253.761719 1323.96875 L 3571.050781 1400 L 3514.800781 1550 L 2325 1550 L 2385.167969 1355.640625 C 2404.613281 1292.828125 2462.703125 1250 2528.460938 1250 L 2775 1250 L 2775 1100 M 2364.953125 1700 L 3067.796875 2742.007812 L 3458.550781 1700 L 2364.953125 1700 M 1979.398438 2159.152344 C 1944.933594 2153.0625 1910 2150 1875 2150 C 1715.871094 2150 1563.257812 2213.214844 1450.734375 2325.734375 C 1338.214844 2438.257812 1275 2590.871094 1275 2750 C 1275 2909.128906 1338.214844 3061.742188 1450.734375 3174.265625 C 1563.257812 3286.785156 1715.871094 3350 1875 3350 C 2034.128906 3350 2186.742188 3286.785156 2299.265625 3174.265625 C 2411.785156 3061.742188 2475 2909.128906 2475 2750 C 2475 2634.6875 2441.769531 2521.816406 2379.289062 2424.894531 C 2316.808594 2327.976562 2227.71875 2251.113281 2122.691406 2203.511719 L 1946.644531 2772.179688 C 1936.921875 2803.585938 1907.878906 2825 1875 2825 C 1833.578125 2825 1800 2791.421875 1800 2750 C 1800 2742.480469 1801.128906 2735.003906 1803.355469 2727.820312 L 1979.398438 2159.152344 M 3525 2750 L 4046.847656 2750 L 3816.835938 2235.183594 C 3635.808594 2343.542969 3525 2539.019531 3525 2750 M 3544.050781 2900 C 3577.308594 3028.792969 3652.417969 3142.886719 3757.578125 3224.339844 C 3862.734375 3305.796875 3991.984375 3350 4125 3350 C 4284.128906 3350 4436.742188 3286.785156 4549.265625 3174.265625 C 4661.785156 3061.742188 4725 2909.128906 4725 2750 C 4725 2590.871094 4661.785156 2438.257812 4549.265625 2325.734375 C 4436.742188 2213.214844 4284.128906 2150 4125 2150 C 4067.15625 2150 4009.613281 2158.363281 3954.164062 2174.835938 L 4230.976562 2794.40625 C 4235.277344 2804.03125 4237.5 2814.457031 4237.5 2825 C 4237.5 2866.421875 4203.921875 2900 4162.5 2900 L 3544.054688 2900 M 3225 2750 L 3375 2750 C 3375 2617.3125 3410.203125 2487 3477.011719 2372.359375 C 3543.824219 2257.71875 3639.851562 2162.855469 3755.300781 2097.449219 L 3600.03125 1749.921875 L 3225 2750 "/>
</g>
</svg>
