<?xml version="1.0" encoding="UTF-8"?>
<svg xmlns="http://www.w3.org/2000/svg" xmlns:xlink="http://www.w3.org/1999/xlink" width="600.000000mm" height="900.000000mm" viewBox="0 0 6000 9000" version="1.1">
<g id="surface1621">
<path style="fill-rule:evenodd;fill:rgb(96.862745%,70.980392%,0%);fill-opacity:1;stroke-width:0.3;stroke-linecap:butt;stroke-linejoin:miter;stroke:rgb(16.470588%,16.078431%,16.470588%);stroke-opacity:1;stroke-miterlimit:3;" d="M -260 -450 C -270.608594 -450 -280.782812 -445.785547 -288.284375 -438.284375 C -295.785547 -430.782813 -300 -420.608594 -300 -410 L -300 410 C -300 420.608594 -295.785547 430.782812 -288.284375 438.284375 C -280.782812 445.785547 -270.608594 450 -260 450 L 260 450 C 270.608594 450 280.782812 445.785547 288.284375 438.284375 C 295.785547 430.782812 300 420.608594 300 410 L 300 -410 C 300 -420.608594 295.785547 -430.782813 288.284375 -438.284375 C 280.782812 -445.785547 270.608594 -450 260 -450 L -260 -450 " transform="matrix(10,0,0,-10,3000,4500)"/>
<path style=" stroke:none;fill-rule:evenodd;fill:rgb(16.470588%,16.078431%,16.470588%);fill-opacity:1;" d="M 400 8900 C 234.316406 8900 100 8765.683594 100 8600 L 100 400 C 100 234.316406 234.316406 100 400 100 L 5600 100 C 5765.683594 100 5900 234.316406 5900 400 L 5900 8600 C 5900 8765.683594 5765.683594 8900 5600 8900 L 400 8900 M 400 8750 C 317.15625 8750 250 8682.84375 250 8600 L 250 400 C 250 317.15625 317.15625 250 400 250 L 5600 250 C 5682.84375 250 5750 317.15625 5750 400 L 5750 8600 C 5750 8682.84375 5682.84375 8750 5600 8750 L 400 8750 "/>
<path style=" stroke:none;fill-rule:evenodd;fill:rgb(16.470588%,16.078431%,16.470588%);fill-opacity:1;" d="M 3225 1200 L 3471.539062 1200 C 3603.050781 1200 3719.230469 1285.652344 3758.121094 1411.28125 L 3975.960938 2114.957031 C 4025.019531 2105.011719 4074.945312 2100 4125 2100 C 4323.914062 2100 4514.679688 2179.019531 4655.332031 2319.667969 C 4795.980469 2460.320312 4875 2651.085938 4875 2850 C 4875 3048.914062 4795.980469 3239.679688 4655.332031 3380.332031 C 4514.679688 3520.980469 4323.914062 3600 4125 3600 C 3926.085938 3600 3735.320312 3520.980469 3594.667969 3380.332031 C 3454.019531 3239.679688 3375 3048.914062 3375 2850 C 3375 2702.644531 3418.40625 2558.554688 3499.800781 2435.722656 C 3581.195312 2312.886719 3696.972656 2216.75 3832.671875 2159.316406 L 3750.613281 1894.257812 L 3049.355469 2933.878906 C 3021.472656 2975.21875 2974.867188 3000 2925 3000 L 2609.847656 3000 C 2575.273438 3169.378906 2483.246094 3321.613281 2349.339844 3430.949219 C 2215.4375 3540.28125 2047.871094 3600 1875 3600 C 1676.085938 3600 1485.320312 3520.980469 1344.667969 3380.332031 C 1204.019531 3239.679688 1125 3048.914062 1125 2850 C 1125 2651.085938 1204.019531 2460.320312 1344.667969 2319.667969 C 1485.320312 2179.019531 1676.085938 2100 1875 2100 C 1953.945312 2100 2032.390625 2112.464844 2107.449219 2136.929688 L 2325 1650 L 2268.75 1500 L 2100 1500 L 2100 1350 L 2737.5 1350 C 2758.210938 1350 2775 1366.789062 2775 1387.5 C 2775 1404.84375 2763.105469 1419.925781 2746.238281 1423.96875 L 2428.949219 1500 L 2485.199219 1650 L 3675 1650 L 3614.832031 1455.640625 C 3595.386719 1392.828125 3537.296875 1350 3471.539062 1350 L 3225 1350 L 3225 1200 M 3635.046875 1800 L 2932.203125 2842.007812 L 2541.449219 1800 L 3635.046875 1800 M 4020.601562 2259.152344 C 4055.066406 2253.0625 4090 2250 4125 2250 C 4284.128906 2250 4436.742188 2313.214844 4549.265625 2425.734375 C 4661.785156 2538.257812 4725 2690.871094 4725 2850 C 4725 3009.128906 4661.785156 3161.742188 4549.265625 3274.265625 C 4436.742188 3386.785156 4284.128906 3450 4125 3450 C 3965.871094 3450 3813.257812 3386.785156 3700.734375 3274.265625 C 3588.214844 3161.742188 3525 3009.128906 3525 2850 C 3525 2734.6875 3558.230469 2621.816406 3620.710938 2524.894531 C 3683.191406 2427.976562 3772.28125 2351.113281 3877.308594 2303.511719 L 4053.355469 2872.179688 C 4063.078125 2903.585938 4092.121094 2925 4125 2925 C 4166.421875 2925 4200 2891.421875 4200 2850 C 4200 2842.480469 4198.871094 2835.003906 4196.644531 2827.820312 L 4020.601562 2259.152344 M 2475 2850 L 1953.152344 2850 L 2183.164062 2335.183594 C 2364.191406 2443.542969 2475 2639.019531 2475 2850 M 2455.949219 3000 C 2422.691406 3128.792969 2347.582031 3242.886719 2242.421875 3324.339844 C 2137.265625 3405.796875 2008.015625 3450 1875 3450 C 1715.871094 3450 1563.257812 3386.785156 1450.734375 3274.265625 C 1338.214844 3161.742188 1275 3009.128906 1275 2850 C 1275 2690.871094 1338.214844 2538.257812 1450.734375 2425.734375 C 1563.257812 2313.214844 1715.871094 2250 1875 2250 C 1932.84375 2250 1990.386719 2258.363281 2045.835938 2274.835938 L 1769.023438 2894.40625 C 1764.722656 2904.03125 1762.5 2914.457031 1762.5 2925 C 1762.5 2966.421875 1796.078125 3000 1837.5 3000 L 2455.945312 3000 M 2775 2850 L 2625 2850 C 2625 2717.3125 2589.796875 2587 2522.988281 2472.359375 C 2456.175781 2357.71875 2360.148438 2262.855469 2244.699219 2197.449219 L 2399.96875 1849.921875 L 2775 2850 "/>
<path style=" stroke:none;fill-rule:evenodd;fill:rgb(16.470588%,16.078431%,16.470588%);fill-opacity:1;" d="M 4700 6625 L 3800 5725 L 3300 5725 L 4000 6425 L 1300 6425 L 1300 6825 L 4000 6825 L 3300 7525 L 3800 7525 L 4700 6625 "/>
</g>
</svg>
