<?xml version="1.0" encoding="UTF-8"?>
<svg xmlns="http://www.w3.org/2000/svg" xmlns:xlink="http://www.w3.org/1999/xlink" width="600.000000mm" height="900.000000mm" viewBox="0 0 6000 9000" version="1.1">
<g id="surface1576">
<path style="fill-rule:evenodd;fill:rgb(96.862745%,70.980392%,0%);fill-opacity:1;stroke-width:0.3;stroke-linecap:butt;stroke-linejoin:miter;stroke:rgb(16.470588%,16.078431%,16.470588%);stroke-opacity:1;stroke-miterlimit:3;" d="M -260 -450 C -270.608594 -450 -280.782812 -445.785547 -288.284375 -438.284375 C -295.785547 -430.782813 -300 -420.608594 -300 -410 L -300 410 C -300 420.608594 -295.785547 430.782812 -288.284375 438.284375 C -280.782812 445.785547 -270.608594 450 -260 450 L 260 450 C 270.608594 450 280.782812 445.785547 288.284375 438.284375 C 295.785547 430.782812 300 420.608594 300 410 L 300 -410 C 300 -420.608594 295.785547 -430.782813 288.284375 -438.284375 C 280.782812 -445.785547 270.608594 -450 260 -450 L -260 -450 " transform="matrix(10,0,0,-10,3000,4500)"/>
<path style=" stroke:none;fill-rule:evenodd;fill:rgb(16.470588%,16.078431%,16.470588%);fill-opacity:1;" d="M 400 8900 C 234.316406 8900 100 8765.683594 100 8600 L 100 400 C 100 234.316406 234.316406 100 400 100 L 5600 100 C 5765.683594 100 5900 234.316406 5900 400 L 5900 8600 C 5900 8765.683594 5765.683594 8900 5600 8900 L 400 8900 M 400 8750 C 317.15625 8750 250 8682.84375 250 8600 L 250 400 C 250 317.15625 317.15625 250 400 250 L 5600 250 C 5682.84375 250 5750 317.15625 5750 400 L 5750 8600 C 5750 8682.84375 5682.84375 8750 5600 8750 L 400 8750 "/>
<path style=" stroke:none;fill-rule:evenodd;fill:rgb(0%,35.686275%,54.901961%);fill-opacity:1;" d="M 1600 4180 L 1664.617188 4153.078125 C 1732.863281 4124.640625 1806.066406 4110 1880 4110 C 1953.933594 4110 2027.136719 4124.640625 2095.382812 4153.078125 L 2224.617188 4206.921875 C 2292.863281 4235.359375 2366.066406 4250 2440 4250 C 2513.933594 4250 2587.136719 4235.359375 2655.382812 4206.921875 L 2784.617188 4153.078125 C 2852.863281 4124.640625 2926.066406 4110 3000 4110 C 3073.933594 4110 3147.136719 4124.640625 3215.382812 4153.078125 L 3344.617188 4206.921875 C 3412.863281 4235.359375 3486.066406 4250 3560 4250 C 3633.933594 4250 3707.136719 4235.359375 3775.382812 4206.921875 L 3904.617188 4153.078125 C 3972.863281 4124.640625 4046.066406 4110 4120 4110 C 4193.933594 4110 4267.136719 4124.640625 4335.382812 4153.078125 L 4400 4180 L 4400 4040 L 4335.382812 4013.078125 C 4267.136719 3984.640625 4193.933594 3970 4120 3970 C 4046.066406 3970 3972.863281 3984.640625 3904.617188 4013.078125 L 3775.382812 4066.921875 C 3707.136719 4095.359375 3633.933594 4110 3560 4110 C 3486.066406 4110 3412.863281 4095.359375 3344.617188 4066.921875 L 3215.382812 4013.078125 C 3147.136719 3984.640625 3073.933594 3970 3000 3970 C 2926.066406 3970 2852.863281 3984.640625 2784.617188 4013.078125 L 2655.382812 4066.921875 C 2587.136719 4095.359375 2513.933594 4110 2440 4110 C 2366.066406 4110 2292.863281 4095.359375 2224.617188 4066.921875 L 2095.382812 4013.078125 C 2027.136719 3984.640625 1953.933594 3970 1880 3970 C 1806.066406 3970 1732.863281 3984.640625 1664.617188 4013.078125 L 1600 4040 L 1600 4180 "/>
<path style=" stroke:none;fill-rule:evenodd;fill:rgb(0%,35.686275%,54.901961%);fill-opacity:1;" d="M 1600 3900 L 1664.617188 3873.078125 C 1732.863281 3844.640625 1806.066406 3830 1880 3830 C 1953.933594 3830 2027.136719 3844.640625 2095.382812 3873.078125 L 2224.617188 3926.921875 C 2292.863281 3955.359375 2366.066406 3970 2440 3970 C 2513.933594 3970 2587.136719 3955.359375 2655.382812 3926.921875 L 2784.617188 3873.078125 C 2852.863281 3844.640625 2926.066406 3830 3000 3830 C 3073.933594 3830 3147.136719 3844.640625 3215.382812 3873.078125 L 3344.617188 3926.921875 C 3412.863281 3955.359375 3486.066406 3970 3560 3970 C 3633.933594 3970 3707.136719 3955.359375 3775.382812 3926.921875 L 3904.617188 3873.078125 C 3972.863281 3844.640625 4046.066406 3830 4120 3830 C 4193.933594 3830 4267.136719 3844.640625 4335.382812 3873.078125 L 4400 3900 L 4400 3760 L 4335.382812 3733.078125 C 4267.136719 3704.640625 4193.933594 3690 4120 3690 C 4046.066406 3690 3972.863281 3704.640625 3904.617188 3733.078125 L 3775.382812 3786.921875 C 3707.136719 3815.359375 3633.933594 3830 3560 3830 C 3486.066406 3830 3412.863281 3815.359375 3344.617188 3786.921875 L 3215.382812 3733.078125 C 3147.136719 3704.640625 3073.933594 3690 3000 3690 C 2926.066406 3690 2852.863281 3704.640625 2784.617188 3733.078125 L 2655.382812 3786.921875 C 2587.136719 3815.359375 2513.933594 3830 2440 3830 C 2366.066406 3830 2292.863281 3815.359375 2224.617188 3786.921875 L 2095.382812 3733.078125 C 2027.136719 3704.640625 1953.933594 3690 1880 3690 C 1806.066406 3690 1732.863281 3704.640625 1664.617188 3733.078125 L 1600 3760 L 1600 3900 "/>
<path style=" stroke:none;fill-rule:evenodd;fill:rgb(16.470588%,16.078431%,16.470588%);fill-opacity:1;" d="M 1810 3550 C 1771.339844 3550 1740 3518.660156 1740 3480 L 1740 2780 C 1740 2741.339844 1771.339844 2710 1810 2710 L 2020 2710 C 2058.660156 2710 2090 2741.339844 2090 2780 L 2090 3480 C 2090 3518.660156 2058.660156 3550 2020 3550 L 1810 3550 M 2230 3550 C 2191.339844 3550 2160 3518.660156 2160 3480 L 2160 2780 C 2160 2741.339844 2191.339844 2710 2230 2710 L 2440 2710 C 2478.660156 2710 2510 2741.339844 2510 2780 L 2510 2972.5 C 2510 3011.160156 2541.339844 3042.5 2580 3042.5 L 2713 3042.5 C 2748.949219 3042.5 2783.519531 3028.671875 2809.550781 3003.878906 L 2855.171875 2960.429688 C 2894.21875 2923.242188 2946.078125 2902.5 3000 2902.5 C 3053.921875 2902.5 3105.78125 2923.242188 3144.828125 2960.429688 L 3190.449219 3003.878906 C 3216.480469 3028.671875 3251.050781 3042.5 3287 3042.5 L 3420 3042.5 C 3458.660156 3042.5 3490 3011.160156 3490 2972.5 L 3490 2780 C 3490 2741.339844 3521.339844 2710 3560 2710 L 3770 2710 C 3808.660156 2710 3840 2741.339844 3840 2780 L 3840 3480 C 3840 3518.660156 3808.660156 3550 3770 3550 L 3560 3550 C 3521.339844 3550 3490 3518.660156 3490 3480 L 3490 3287.5 C 3490 3248.839844 3458.660156 3217.5 3420 3217.5 L 3287 3217.5 C 3251.050781 3217.5 3216.480469 3231.328125 3190.449219 3256.121094 L 3144.828125 3299.570312 C 3105.78125 3336.757812 3053.921875 3357.5 3000 3357.5 C 2946.078125 3357.5 2894.21875 3336.757812 2855.171875 3299.570312 L 2809.550781 3256.121094 C 2783.519531 3231.328125 2748.949219 3217.5 2713 3217.5 L 2580 3217.5 C 2541.339844 3217.5 2510 3248.839844 2510 3287.5 L 2510 3480 C 2510 3518.660156 2478.660156 3550 2440 3550 L 2230 3550 M 3980 3550 C 3941.339844 3550 3910 3518.660156 3910 3480 L 3910 2780 C 3910 2741.339844 3941.339844 2710 3980 2710 L 4190 2710 C 4228.660156 2710 4260 2741.339844 4260 2780 L 4260 3480 C 4260 3518.660156 4228.660156 3550 4190 3550 L 3980 3550 M 1600 2640 L 1600 2220 L 1971.214844 2220 C 2245.980469 2399.476562 2615.328125 2500 3000 2500 C 3384.671875 2500 3754.019531 2399.476562 4028.785156 2220 L 4400 2220 L 4400 2640 L 1600 2640 M 4400 1520 C 4400 1278.652344 4252.5 1047.191406 3989.949219 876.53125 C 3727.398438 705.875 3371.304688 610 3000 610 C 2628.695312 610 2272.601562 705.875 2010.050781 876.53125 C 1747.5 1047.191406 1600 1278.652344 1600 1520 C 1600 1761.347656 1747.5 1992.808594 2010.050781 2163.46875 C 2272.601562 2334.125 2628.695312 2430 3000 2430 C 3371.304688 2430 3727.398438 2334.125 3989.949219 2163.46875 C 4252.5 1992.808594 4400 1761.347656 4400 1520 "/>
<path style=" stroke:none;fill-rule:evenodd;fill:rgb(96.470588%,47.058824%,15.686275%);fill-opacity:1;" d="M 4190 1520 C 4190 1325.066406 4064.625 1138.117188 3841.457031 1000.277344 C 3618.289062 862.4375 3315.609375 785 3000 785 C 2684.390625 785 2381.710938 862.4375 2158.542969 1000.277344 C 1935.375 1138.117188 1810 1325.066406 1810 1520 C 1810 1714.933594 1935.375 1901.882812 2158.542969 2039.722656 C 2381.710938 2177.5625 2684.390625 2255 3000 2255 C 3315.609375 2255 3618.289062 2177.5625 3841.457031 2039.722656 C 4064.625 1901.882812 4190 1714.933594 4190 1520 "/>
<path style=" stroke:none;fill-rule:evenodd;fill:rgb(16.470588%,16.078431%,16.470588%);fill-opacity:1;" d="M 4300 8100 L 4300 6400 C 4300 6134.785156 4194.644531 5880.429688 4007.105469 5692.894531 C 3819.570312 5505.355469 3565.214844 5400 3300 5400 L 2400 5400 L 3100 4700 L 2600 4700 L 1700 5600 L 2600 6500 L 3100 6500 L 2400 5800 L 3300 5800 C 3459.128906 5800 3611.742188 5863.214844 3724.265625 5975.734375 C 3836.785156 6088.257812 3900 6240.871094 3900 6400 L 3900 8100 L 4300 8100 "/>
</g>
</svg>
