<?xml version="1.0" encoding="UTF-8"?>
<svg xmlns="http://www.w3.org/2000/svg" xmlns:xlink="http://www.w3.org/1999/xlink" width="1250.000000mm" height="350.000000mm" viewBox="0 0 12500 3500" version="1.1">
<g id="surface1906">
<path style=" stroke:none;fill-rule:evenodd;fill:rgb(96.862745%,70.980392%,0%);fill-opacity:1;" d="M 12100 0 C 12206.085938 0 12307.828125 42.144531 12382.84375 117.15625 C 12457.855469 192.171875 12500 293.914062 12500 400 L 12500 3100 C 12500 3206.085938 12457.855469 3307.828125 12382.84375 3382.84375 C 12307.828125 3457.855469 12206.085938 3500 12100 3500 L 2950 3500 C 2732.335938 3500 2518.503906 3442.703125 2330 3333.871094 L 200 2096.410156 C 76.238281 2024.957031 0 1892.90625 0 1750 C 0 1679.785156 18.484375 1610.808594 53.589844 1550 C 88.695312 1489.191406 139.191406 1438.695312 200 1403.589844 L 2330 166.128906 C 2518.503906 57.296875 2732.335938 0 2950 0 L 12100 0 "/>
<path style=" stroke:none;fill-rule:evenodd;fill:rgb(16.470588%,16.078431%,16.470588%);fill-opacity:1;" d="M 12100 100 C 12265.683594 100 12400 234.316406 12400 400 L 12400 3100 C 12400 3265.683594 12265.683594 3400 12100 3400 L 2950 3400 C 2749.886719 3400 2553.300781 3347.324219 2380 3247.269531 L 250 2009.808594 C 157.179688 1956.21875 100 1857.179688 100 1750 C 100 1642.820312 157.179688 1543.78125 250 1490.191406 L 2380 252.730469 C 2553.300781 152.675781 2749.886719 100 2950 100 L 12100 100 M 12100 250 C 12182.84375 250 12250 317.15625 12250 400 L 12250 3100 C 12250 3182.84375 12182.84375 3250 12100 3250 L 2950 3250 C 2776.21875 3250 2605.5 3204.253906 2455 3117.363281 L 325 1879.902344 C 278.589844 1853.109375 250 1803.589844 250 1750 C 250 1696.410156 278.589844 1646.890625 325 1620.097656 L 2455 382.636719 C 2605.5 295.746094 2776.21875 250 2950 250 L 12100 250 "/>
<path style=" stroke:none;fill-rule:evenodd;fill:rgb(0%,35.686275%,54.901961%);fill-opacity:1;" d="M 5950 3000 L 5996.152344 2980.769531 C 6044.902344 2960.457031 6097.191406 2950 6150 2950 C 6202.808594 2950 6255.097656 2960.457031 6303.847656 2980.769531 L 6396.152344 3019.230469 C 6444.902344 3039.542969 6497.191406 3050 6550 3050 C 6602.808594 3050 6655.097656 3039.542969 6703.847656 3019.230469 L 6796.152344 2980.769531 C 6844.902344 2960.457031 6897.191406 2950 6950 2950 C 7002.808594 2950 7055.097656 2960.457031 7103.847656 2980.769531 L 7196.152344 3019.230469 C 7244.902344 3039.542969 7297.191406 3050 7350 3050 C 7402.808594 3050 7455.097656 3039.542969 7503.847656 3019.230469 L 7596.152344 2980.769531 C 7644.902344 2960.457031 7697.191406 2950 7750 2950 C 7802.808594 2950 7855.097656 2960.457031 7903.847656 2980.769531 L 7950 3000 L 7950 2900 L 7903.847656 2880.769531 C 7855.097656 2860.457031 7802.808594 2850 7750 2850 C 7697.191406 2850 7644.902344 2860.457031 7596.152344 2880.769531 L 7503.847656 2919.230469 C 7455.097656 2939.542969 7402.808594 2950 7350 2950 C 7297.191406 2950 7244.902344 2939.542969 7196.152344 2919.230469 L 7103.847656 2880.769531 C 7055.097656 2860.457031 7002.808594 2850 6950 2850 C 6897.191406 2850 6844.902344 2860.457031 6796.152344 2880.769531 L 6703.847656 2919.230469 C 6655.097656 2939.542969 6602.808594 2950 6550 2950 C 6497.191406 2950 6444.902344 2939.542969 6396.152344 2919.230469 L 6303.847656 2880.769531 C 6255.097656 2860.457031 6202.808594 2850 6150 2850 C 6097.191406 2850 6044.902344 2860.457031 5996.152344 2880.769531 L 5950 2900 L 5950 3000 "/>
<path style=" stroke:none;fill-rule:evenodd;fill:rgb(0%,35.686275%,54.901961%);fill-opacity:1;" d="M 5950 2800 L 5996.152344 2780.769531 C 6044.902344 2760.457031 6097.191406 2750 6150 2750 C 6202.808594 2750 6255.097656 2760.457031 6303.847656 2780.769531 L 6396.152344 2819.230469 C 6444.902344 2839.542969 6497.191406 2850 6550 2850 C 6602.808594 2850 6655.097656 2839.542969 6703.847656 2819.230469 L 6796.152344 2780.769531 C 6844.902344 2760.457031 6897.191406 2750 6950 2750 C 7002.808594 2750 7055.097656 2760.457031 7103.847656 2780.769531 L 7196.152344 2819.230469 C 7244.902344 2839.542969 7297.191406 2850 7350 2850 C 7402.808594 2850 7455.097656 2839.542969 7503.847656 2819.230469 L 7596.152344 2780.769531 C 7644.902344 2760.457031 7697.191406 2750 7750 2750 C 7802.808594 2750 7855.097656 2760.457031 7903.847656 2780.769531 L 7950 2800 L 7950 2700 L 7903.847656 2680.769531 C 7855.097656 2660.457031 7802.808594 2650 7750 2650 C 7697.191406 2650 7644.902344 2660.457031 7596.152344 2680.769531 L 7503.847656 2719.230469 C 7455.097656 2739.542969 7402.808594 2750 7350 2750 C 7297.191406 2750 7244.902344 2739.542969 7196.152344 2719.230469 L 7103.847656 2680.769531 C 7055.097656 2660.457031 7002.808594 2650 6950 2650 C 6897.191406 2650 6844.902344 2660.457031 6796.152344 2680.769531 L 6703.847656 2719.230469 C 6655.097656 2739.542969 6602.808594 2750 6550 2750 C 6497.191406 2750 6444.902344 2739.542969 6396.152344 2719.230469 L 6303.847656 2680.769531 C 6255.097656 2660.457031 6202.808594 2650 6150 2650 C 6097.191406 2650 6044.902344 2660.457031 5996.152344 2680.769531 L 5950 2700 L 5950 2800 "/>
<path style=" stroke:none;fill-rule:evenodd;fill:rgb(16.470588%,16.078431%,16.470588%);fill-opacity:1;" d="M 6100 2550 C 6072.386719 2550 6050 2527.613281 6050 2500 L 6050 2000 C 6050 1972.386719 6072.386719 1950 6100 1950 L 6250 1950 C 6277.613281 1950 6300 1972.386719 6300 2000 L 6300 2500 C 6300 2527.613281 6277.613281 2550 6250 2550 L 6100 2550 M 6400 2550 C 6372.386719 2550 6350 2527.613281 6350 2500 L 6350 2000 C 6350 1972.386719 6372.386719 1950 6400 1950 L 6550 1950 C 6577.613281 1950 6600 1972.386719 6600 2000 L 6600 2137.5 C 6600 2165.113281 6622.386719 2187.5 6650 2187.5 L 6745 2187.5 C 6770.675781 2187.5 6795.371094 2177.621094 6813.964844 2159.914062 L 6846.550781 2128.878906 C 6874.441406 2102.316406 6911.484375 2087.5 6950 2087.5 C 6988.515625 2087.5 7025.558594 2102.316406 7053.449219 2128.878906 L 7086.035156 2159.914062 C 7104.628906 2177.621094 7129.324219 2187.5 7155 2187.5 L 7250 2187.5 C 7277.613281 2187.5 7300 2165.113281 7300 2137.5 L 7300 2000 C 7300 1972.386719 7322.386719 1950 7350 1950 L 7500 1950 C 7527.613281 1950 7550 1972.386719 7550 2000 L 7550 2500 C 7550 2527.613281 7527.613281 2550 7500 2550 L 7350 2550 C 7322.386719 2550 7300 2527.613281 7300 2500 L 7300 2362.5 C 7300 2334.886719 7277.613281 2312.5 7250 2312.5 L 7155 2312.5 C 7129.324219 2312.5 7104.628906 2322.378906 7086.035156 2340.085938 L 7053.449219 2371.121094 C 7025.558594 2397.683594 6988.515625 2412.5 6950 2412.5 C 6911.484375 2412.5 6874.441406 2397.683594 6846.550781 2371.121094 L 6813.964844 2340.085938 C 6795.371094 2322.378906 6770.675781 2312.5 6745 2312.5 L 6650 2312.5 C 6622.386719 2312.5 6600 2334.886719 6600 2362.5 L 6600 2500 C 6600 2527.613281 6577.613281 2550 6550 2550 L 6400 2550 M 7650 2550 C 7622.386719 2550 7600 2527.613281 7600 2500 L 7600 2000 C 7600 1972.386719 7622.386719 1950 7650 1950 L 7800 1950 C 7827.613281 1950 7850 1972.386719 7850 2000 L 7850 2500 C 7850 2527.613281 7827.613281 2550 7800 2550 L 7650 2550 M 5950 1900 L 5950 1600 L 6215.152344 1600 C 6411.414062 1728.199219 6675.234375 1800 6950 1800 C 7224.765625 1800 7488.585938 1728.199219 7684.847656 1600 L 7950 1600 L 7950 1900 L 5950 1900 M 7950 1100 C 7950 927.609375 7844.644531 762.277344 7657.105469 640.378906 C 7469.570312 518.480469 7215.214844 450 6950 450 C 6684.785156 450 6430.429688 518.480469 6242.894531 640.378906 C 6055.355469 762.277344 5950 927.609375 5950 1100 C 5950 1272.390625 6055.355469 1437.722656 6242.894531 1559.621094 C 6430.429688 1681.519531 6684.785156 1750 6950 1750 C 7215.214844 1750 7469.570312 1681.519531 7657.105469 1559.621094 C 7844.644531 1437.722656 7950 1272.390625 7950 1100 "/>
<path style=" stroke:none;fill-rule:evenodd;fill:rgb(96.470588%,47.058824%,15.686275%);fill-opacity:1;" d="M 7800 1100 C 7800 960.761719 7710.445312 827.226562 7551.039062 728.769531 C 7391.636719 630.3125 7175.433594 575 6950 575 C 6724.566406 575 6508.363281 630.3125 6348.960938 728.769531 C 6189.554688 827.226562 6100 960.761719 6100 1100 C 6100 1239.238281 6189.554688 1372.773438 6348.960938 1471.230469 C 6508.363281 1569.6875 6724.566406 1625 6950 1625 C 7175.433594 1625 7391.636719 1569.6875 7551.039062 1471.230469 C 7710.445312 1372.773438 7800 1239.238281 7800 1100 "/>
</g>
</svg>
