<?xml version="1.0" encoding="UTF-8"?>
<svg xmlns="http://www.w3.org/2000/svg" xmlns:xlink="http://www.w3.org/1999/xlink" width="1250.000000mm" height="350.000000mm" viewBox="0 0 12500 3500" version="1.1">
<g id="surface1896">
<path style=" stroke:none;fill-rule:evenodd;fill:rgb(96.862745%,70.980392%,0%);fill-opacity:1;" d="M 12100 0 C 12206.085938 0 12307.828125 42.144531 12382.84375 117.15625 C 12457.855469 192.171875 12500 293.914062 12500 400 L 12500 3100 C 12500 3206.085938 12457.855469 3307.828125 12382.84375 3382.84375 C 12307.828125 3457.855469 12206.085938 3500 12100 3500 L 2950 3500 C 2732.335938 3500 2518.503906 3442.703125 2330 3333.871094 L 200 2096.410156 C 76.238281 2024.957031 0 1892.90625 0 1750 C 0 1679.785156 18.484375 1610.808594 53.589844 1550 C 88.695312 1489.191406 139.191406 1438.695312 200 1403.589844 L 2330 166.128906 C 2518.503906 57.296875 2732.335938 0 2950 0 L 12100 0 "/>
<path style=" stroke:none;fill-rule:evenodd;fill:rgb(16.470588%,16.078431%,16.470588%);fill-opacity:1;" d="M 12100 100 C 12265.683594 100 12400 234.316406 12400 400 L 12400 3100 C 12400 3265.683594 12265.683594 3400 12100 3400 L 2950 3400 C 2749.886719 3400 2553.300781 3347.324219 2380 3247.269531 L 250 2009.808594 C 157.179688 1956.21875 100 1857.179688 100 1750 C 100 1642.820312 157.179688 1543.78125 250 1490.191406 L 2380 252.730469 C 2553.300781 152.675781 2749.886719 100 2950 100 L 12100 100 M 12100 250 C 12182.84375 250 12250 317.15625 12250 400 L 12250 3100 C 12250 3182.84375 12182.84375 3250 12100 3250 L 2950 3250 C 2776.21875 3250 2605.5 3204.253906 2455 3117.363281 L 325 1879.902344 C 278.589844 1853.109375 250 1803.589844 250 1750 C 250 1696.410156 278.589844 1646.890625 325 1620.097656 L 2455 382.636719 C 2605.5 295.746094 2776.21875 250 2950 250 L 12100 250 "/>
<path style=" stroke:none;fill-rule:evenodd;fill:rgb(16.470588%,16.078431%,16.470588%);fill-opacity:1;" d="M 6755 710 L 6541.332031 710 C 6427.355469 710 6326.667969 784.234375 6292.960938 893.109375 L 6104.164062 1502.964844 C 6061.652344 1494.34375 6018.378906 1490 5975 1490 C 5802.609375 1490 5637.277344 1558.480469 5515.378906 1680.378906 C 5393.480469 1802.277344 5325 1967.609375 5325 2140 C 5325 2312.390625 5393.480469 2477.722656 5515.378906 2599.621094 C 5637.277344 2721.519531 5802.609375 2790 5975 2790 C 6147.390625 2790 6312.722656 2721.519531 6434.621094 2599.621094 C 6556.519531 2477.722656 6625 2312.390625 6625 2140 C 6625 2012.292969 6587.378906 1887.414062 6516.839844 1780.957031 C 6446.296875 1674.503906 6345.957031 1591.183594 6228.351562 1541.40625 L 6299.46875 1311.6875 L 6907.226562 2212.695312 C 6931.390625 2248.523438 6971.78125 2270 7015 2270 L 7288.132812 2270 C 7318.097656 2416.796875 7397.851562 2548.730469 7513.902344 2643.488281 C 7629.957031 2738.242188 7775.179688 2790 7925 2790 C 8097.390625 2790 8262.722656 2721.519531 8384.621094 2599.621094 C 8506.519531 2477.722656 8575 2312.390625 8575 2140 C 8575 1967.609375 8506.519531 1802.277344 8384.621094 1680.378906 C 8262.722656 1558.480469 8097.390625 1490 7925 1490 C 7856.582031 1490 7788.59375 1500.800781 7723.542969 1522.007812 L 7535 1100 L 7583.75 970 L 7730 970 L 7730 840 L 7177.5 840 C 7159.550781 840 7145 854.550781 7145 872.5 C 7145 887.53125 7155.308594 900.601562 7169.925781 904.105469 L 7444.910156 970 L 7396.160156 1100 L 6365 1100 L 6417.148438 931.554688 C 6434 877.117188 6484.34375 840 6541.332031 840 L 6755 840 L 6755 710 M 6399.628906 1230 L 7008.757812 2133.074219 L 7347.410156 1230 L 6399.628906 1230 M 6065.476562 1627.933594 C 6035.609375 1622.652344 6005.332031 1620 5975 1620 C 5837.085938 1620 5704.824219 1674.785156 5607.304688 1772.304688 C 5509.785156 1869.824219 5455 2002.085938 5455 2140 C 5455 2277.914062 5509.785156 2410.175781 5607.304688 2507.695312 C 5704.824219 2605.214844 5837.085938 2660 5975 2660 C 6112.914062 2660 6245.175781 2605.214844 6342.695312 2507.695312 C 6440.214844 2410.175781 6495 2277.914062 6495 2140 C 6495 2040.0625 6466.199219 1942.238281 6412.050781 1858.242188 C 6357.898438 1774.246094 6280.691406 1707.632812 6189.664062 1666.375 L 6037.09375 2159.222656 C 6028.667969 2186.441406 6003.492188 2205 5975 2205 C 5939.101562 2205 5910 2175.898438 5910 2140 C 5910 2133.484375 5910.980469 2127.003906 5912.90625 2120.777344 L 6065.480469 1627.933594 M 7405 2140 L 7857.265625 2140 L 7657.925781 1693.828125 C 7501.035156 1787.738281 7405 1957.152344 7405 2140 M 7421.511719 2270 C 7450.332031 2381.621094 7515.429688 2480.5 7606.566406 2551.097656 C 7697.703125 2621.691406 7809.71875 2660 7925 2660 C 8062.914062 2660 8195.175781 2605.214844 8292.695312 2507.695312 C 8390.214844 2410.175781 8445 2277.914062 8445 2140 C 8445 2002.085938 8390.214844 1869.824219 8292.695312 1772.304688 C 8195.175781 1674.785156 8062.914062 1620 7925 1620 C 7874.867188 1620 7825 1627.25 7776.941406 1641.523438 L 8016.847656 2178.484375 C 8020.574219 2186.828125 8022.5 2195.863281 8022.5 2205 C 8022.5 2240.898438 7993.398438 2270 7957.5 2270 L 7421.511719 2270 M 7145 2140 L 7275 2140 C 7275 2025.003906 7305.507812 1912.066406 7363.410156 1812.710938 C 7421.3125 1713.355469 7504.539062 1631.140625 7604.59375 1574.457031 L 7470.027344 1273.265625 L 7145 2140 "/>
</g>
</svg>
