<?xml version="1.0" encoding="UTF-8"?>
<svg xmlns="http://www.w3.org/2000/svg" xmlns:xlink="http://www.w3.org/1999/xlink" width="1250.000000mm" height="350.000000mm" viewBox="0 0 12500 3500" version="1.1">
<g id="surface1941">
<path style=" stroke:none;fill-rule:evenodd;fill:rgb(96.862745%,70.980392%,0%);fill-opacity:1;" d="M 400 3500 C 293.914062 3500 192.171875 3457.855469 117.15625 3382.84375 C 42.144531 3307.828125 0 3206.085938 0 3100 L 0 400 C 0 293.914062 42.144531 192.171875 117.15625 117.15625 C 192.171875 42.144531 293.914062 0 400 0 L 9550 0 C 9767.664062 0 9981.496094 57.296875 10170 166.128906 L 12300 1403.589844 C 12423.761719 1475.042969 12500 1607.09375 12500 1750 C 12500 1892.90625 12423.761719 2024.957031 12300 2096.410156 L 10170 3333.871094 C 9981.496094 3442.703125 9767.664062 3500 9550 3500 L 400 3500 "/>
<path style=" stroke:none;fill-rule:evenodd;fill:rgb(16.470588%,16.078431%,16.470588%);fill-opacity:1;" d="M 400 3400 C 234.316406 3400 100 3265.683594 100 3100 L 100 400 C 100 234.316406 234.316406 100 400 100 L 9550 100 C 9750.113281 100 9946.699219 152.675781 10120 252.730469 L 12250 1490.191406 C 12342.820312 1543.78125 12400 1642.820312 12400 1750 C 12400 1857.179688 12342.820312 1956.21875 12250 2009.808594 L 10120 3247.269531 C 9946.699219 3347.324219 9750.113281 3400 9550 3400 L 400 3400 M 400 3250 C 317.15625 3250 250 3182.84375 250 3100 L 250 400 C 250 317.15625 317.15625 250 400 250 L 9550 250 C 9723.78125 250 9894.5 295.746094 10045 382.636719 L 12175 1620.097656 C 12221.410156 1646.890625 12250 1696.410156 12250 1750 C 12250 1803.589844 12221.410156 1853.109375 12175 1879.902344 L 10045 3117.363281 C 9894.5 3204.253906 9723.78125 3250 9550 3250 L 400 3250 "/>
<path style=" stroke:none;fill-rule:evenodd;fill:rgb(16.470588%,16.078431%,16.470588%);fill-opacity:1;" d="M 6550 1100 L 7416.550781 1154.160156 C 7455.882812 1156.617188 7490.105469 1181.949219 7503.945312 1218.851562 L 7724.53125 1807.082031 C 7741.375 1851.992188 7750 1899.566406 7750 1947.53125 L 7750 2500 C 7750 2555.226562 7705.226562 2600 7650 2600 L 7600 2600 C 7600 2480.652344 7552.589844 2366.191406 7468.199219 2281.800781 C 7383.808594 2197.410156 7269.347656 2150 7150 2150 C 7030.652344 2150 6916.191406 2197.410156 6831.800781 2281.800781 C 6747.410156 2366.191406 6700 2480.652344 6700 2600 L 4900 2600 C 4900 2464.074219 4838.5625 2335.433594 4732.84375 2250 L 6550 2250 L 6550 1100 M 6900 1775 L 6900 1275 L 7405.273438 1306.578125 C 7424.941406 1307.804688 7442.054688 1320.472656 7448.972656 1338.921875 L 7616.585938 1785.894531 C 7618.691406 1791.507812 7619.769531 1797.457031 7619.769531 1803.453125 C 7619.769531 1831.066406 7597.382812 1853.453125 7569.769531 1853.453125 C 7567.816406 1853.453125 7565.863281 1853.335938 7563.925781 1853.109375 L 6900 1775 M 6800 2600 C 6800 2406.699219 6956.699219 2250 7150 2250 C 7343.300781 2250 7500 2406.699219 7500 2600 C 7500 2793.300781 7343.300781 2950 7150 2950 C 6956.699219 2950 6800 2793.300781 6800 2600 M 4100 2600 C 4100 2406.699219 4256.699219 2250 4450 2250 C 4643.300781 2250 4800 2406.699219 4800 2600 C 4800 2793.300781 4643.300781 2950 4450 2950 C 4256.699219 2950 4100 2793.300781 4100 2600 M 3750 2600 L 3450 2500 L 3450 2250 L 4167.15625 2250 C 4061.4375 2335.433594 4000 2464.074219 4000 2600 L 3750 2600 M 3450 2150 L 3450 750 L 6350 750 L 6350 2150 L 3450 2150 "/>
</g>
</svg>
