<?xml version="1.0" encoding="UTF-8"?>
<svg xmlns="http://www.w3.org/2000/svg" xmlns:xlink="http://www.w3.org/1999/xlink" width="1250.000000mm" height="350.000000mm" viewBox="0 0 12500 3500" version="1.1">
<g id="surface1891">
<path style=" stroke:none;fill-rule:evenodd;fill:rgb(96.862745%,70.980392%,0%);fill-opacity:1;" d="M 12100 0 C 12206.085938 0 12307.828125 42.144531 12382.84375 117.15625 C 12457.855469 192.171875 12500 293.914062 12500 400 L 12500 3100 C 12500 3206.085938 12457.855469 3307.828125 12382.84375 3382.84375 C 12307.828125 3457.855469 12206.085938 3500 12100 3500 L 2950 3500 C 2732.335938 3500 2518.503906 3442.703125 2330 3333.871094 L 200 2096.410156 C 76.238281 2024.957031 0 1892.90625 0 1750 C 0 1679.785156 18.484375 1610.808594 53.589844 1550 C 88.695312 1489.191406 139.191406 1438.695312 200 1403.589844 L 2330 166.128906 C 2518.503906 57.296875 2732.335938 0 2950 0 L 12100 0 "/>
<path style=" stroke:none;fill-rule:evenodd;fill:rgb(16.470588%,16.078431%,16.470588%);fill-opacity:1;" d="M 12100 100 C 12265.683594 100 12400 234.316406 12400 400 L 12400 3100 C 12400 3265.683594 12265.683594 3400 12100 3400 L 2950 3400 C 2749.886719 3400 2553.300781 3347.324219 2380 3247.269531 L 250 2009.808594 C 157.179688 1956.21875 100 1857.179688 100 1750 C 100 1642.820312 157.179688 1543.78125 250 1490.191406 L 2380 252.730469 C 2553.300781 152.675781 2749.886719 100 2950 100 L 12100 100 M 12100 250 C 12182.84375 250 12250 317.15625 12250 400 L 12250 3100 C 12250 3182.84375 12182.84375 3250 12100 3250 L 2950 3250 C 2776.21875 3250 2605.5 3204.253906 2455 3117.363281 L 325 1879.902344 C 278.589844 1853.109375 250 1803.589844 250 1750 C 250 1696.410156 278.589844 1646.890625 325 1620.097656 L 2455 382.636719 C 2605.5 295.746094 2776.21875 250 2950 250 L 12100 250 "/>
<path style=" stroke:none;fill-rule:evenodd;fill:rgb(16.470588%,16.078431%,16.470588%);fill-opacity:1;" d="M 5950 1100 L 5083.449219 1154.160156 C 5044.117188 1156.617188 5009.894531 1181.949219 4996.054688 1218.851562 L 4775.46875 1807.082031 C 4758.625 1851.992188 4750 1899.566406 4750 1947.53125 L 4750 2500 C 4750 2555.226562 4794.773438 2600 4850 2600 L 4900 2600 C 4900 2480.652344 4947.410156 2366.191406 5031.800781 2281.800781 C 5116.191406 2197.410156 5230.652344 2150 5350 2150 C 5469.347656 2150 5583.808594 2197.410156 5668.199219 2281.800781 C 5752.589844 2366.191406 5800 2480.652344 5800 2600 L 7600 2600 C 7600 2464.074219 7661.4375 2335.433594 7767.15625 2250 L 5950 2250 L 5950 1100 M 5600 1775 L 5600 1275 L 5094.726562 1306.578125 C 5075.058594 1307.804688 5057.945312 1320.472656 5051.027344 1338.921875 L 4883.414062 1785.894531 C 4881.308594 1791.507812 4880.230469 1797.457031 4880.230469 1803.453125 C 4880.230469 1831.066406 4902.617188 1853.453125 4930.230469 1853.453125 C 4932.183594 1853.453125 4934.136719 1853.335938 4936.074219 1853.109375 L 5600 1775 M 5700 2600 C 5700 2406.699219 5543.300781 2250 5350 2250 C 5156.699219 2250 5000 2406.699219 5000 2600 C 5000 2793.300781 5156.699219 2950 5350 2950 C 5543.300781 2950 5700 2793.300781 5700 2600 M 8400 2600 C 8400 2406.699219 8243.300781 2250 8050 2250 C 7856.699219 2250 7700 2406.699219 7700 2600 C 7700 2793.300781 7856.699219 2950 8050 2950 C 8243.300781 2950 8400 2793.300781 8400 2600 M 8750 2600 L 9050 2500 L 9050 2250 L 8332.84375 2250 C 8438.5625 2335.433594 8500 2464.074219 8500 2600 L 8750 2600 M 9050 2150 L 9050 750 L 6150 750 L 6150 2150 L 9050 2150 "/>
</g>
</svg>
