<?xml version="1.0" encoding="UTF-8"?>
<svg xmlns="http://www.w3.org/2000/svg" xmlns:xlink="http://www.w3.org/1999/xlink" width="1250.000000mm" height="350.000000mm" viewBox="0 0 12500 3500" version="1.1">
<g id="surface1901">
<path style=" stroke:none;fill-rule:evenodd;fill:rgb(96.862745%,70.980392%,0%);fill-opacity:1;" d="M 12100 0 C 12206.085938 0 12307.828125 42.144531 12382.84375 117.15625 C 12457.855469 192.171875 12500 293.914062 12500 400 L 12500 3100 C 12500 3206.085938 12457.855469 3307.828125 12382.84375 3382.84375 C 12307.828125 3457.855469 12206.085938 3500 12100 3500 L 2950 3500 C 2732.335938 3500 2518.503906 3442.703125 2330 3333.871094 L 200 2096.410156 C 76.238281 2024.957031 0 1892.90625 0 1750 C 0 1679.785156 18.484375 1610.808594 53.589844 1550 C 88.695312 1489.191406 139.191406 1438.695312 200 1403.589844 L 2330 166.128906 C 2518.503906 57.296875 2732.335938 0 2950 0 L 12100 0 "/>
<path style=" stroke:none;fill-rule:evenodd;fill:rgb(16.470588%,16.078431%,16.470588%);fill-opacity:1;" d="M 12100 100 C 12265.683594 100 12400 234.316406 12400 400 L 12400 3100 C 12400 3265.683594 12265.683594 3400 12100 3400 L 2950 3400 C 2749.886719 3400 2553.300781 3347.324219 2380 3247.269531 L 250 2009.808594 C 157.179688 1956.21875 100 1857.179688 100 1750 C 100 1642.820312 157.179688 1543.78125 250 1490.191406 L 2380 252.730469 C 2553.300781 152.675781 2749.886719 100 2950 100 L 12100 100 M 12100 250 C 12182.84375 250 12250 317.15625 12250 400 L 12250 3100 C 12250 3182.84375 12182.84375 3250 12100 3250 L 2950 3250 C 2776.21875 3250 2605.5 3204.253906 2455 3117.363281 L 325 1879.902344 C 278.589844 1853.109375 250 1803.589844 250 1750 C 250 1696.410156 278.589844 1646.890625 325 1620.097656 L 2455 382.636719 C 2605.5 295.746094 2776.21875 250 2950 250 L 12100 250 "/>
<path style=" stroke:none;fill-rule:evenodd;fill:rgb(16.470588%,16.078431%,16.470588%);fill-opacity:1;" d="M 6100 2975 C 6072.386719 2975 6050 2952.613281 6050 2925 L 6050 2425 C 6050 2397.386719 6072.386719 2375 6100 2375 L 6250 2375 C 6277.613281 2375 6300 2397.386719 6300 2425 L 6300 2925 C 6300 2952.613281 6277.613281 2975 6250 2975 L 6100 2975 M 6400 2975 C 6372.386719 2975 6350 2952.613281 6350 2925 L 6350 2425 C 6350 2397.386719 6372.386719 2375 6400 2375 L 6550 2375 C 6577.613281 2375 6600 2397.386719 6600 2425 L 6600 2562.5 C 6600 2590.113281 6622.386719 2612.5 6650 2612.5 L 6745 2612.5 C 6770.675781 2612.5 6795.371094 2602.621094 6813.964844 2584.914062 L 6846.550781 2553.878906 C 6874.441406 2527.316406 6911.484375 2512.5 6950 2512.5 C 6988.515625 2512.5 7025.558594 2527.316406 7053.449219 2553.878906 L 7086.035156 2584.914062 C 7104.628906 2602.621094 7129.324219 2612.5 7155 2612.5 L 7250 2612.5 C 7277.613281 2612.5 7300 2590.113281 7300 2562.5 L 7300 2425 C 7300 2397.386719 7322.386719 2375 7350 2375 L 7500 2375 C 7527.613281 2375 7550 2397.386719 7550 2425 L 7550 2925 C 7550 2952.613281 7527.613281 2975 7500 2975 L 7350 2975 C 7322.386719 2975 7300 2952.613281 7300 2925 L 7300 2787.5 C 7300 2759.886719 7277.613281 2737.5 7250 2737.5 L 7155 2737.5 C 7129.324219 2737.5 7104.628906 2747.378906 7086.035156 2765.085938 L 7053.449219 2796.121094 C 7025.558594 2822.683594 6988.515625 2837.5 6950 2837.5 C 6911.484375 2837.5 6874.441406 2822.683594 6846.550781 2796.121094 L 6813.964844 2765.085938 C 6795.371094 2747.378906 6770.675781 2737.5 6745 2737.5 L 6650 2737.5 C 6622.386719 2737.5 6600 2759.886719 6600 2787.5 L 6600 2925 C 6600 2952.613281 6577.613281 2975 6550 2975 L 6400 2975 M 7650 2975 C 7622.386719 2975 7600 2952.613281 7600 2925 L 7600 2425 C 7600 2397.386719 7622.386719 2375 7650 2375 L 7800 2375 C 7827.613281 2375 7850 2397.386719 7850 2425 L 7850 2925 C 7850 2952.613281 7827.613281 2975 7800 2975 L 7650 2975 M 5950 2325 L 5950 2225 L 7950 2225 L 7950 2325 L 5950 2325 M 6050 2175 L 6050 700 C 6050 603.351562 6128.351562 525 6225 525 L 7675 525 C 7771.648438 525 7850 603.351562 7850 700 L 7850 2175 L 6050 2175 "/>
<path style=" stroke:none;fill-rule:evenodd;fill:rgb(96.470588%,47.058824%,15.686275%);fill-opacity:1;" d="M 6275 1975 L 6275 725 L 7625 725 L 7625 1975 L 6275 1975 "/>
</g>
</svg>
