<?xml version="1.0" encoding="UTF-8"?>
<svg xmlns="http://www.w3.org/2000/svg" xmlns:xlink="http://www.w3.org/1999/xlink" width="1250.000000mm" height="350.000000mm" viewBox="0 0 12500 3500" version="1.1">
<g id="surface1951">
<path style=" stroke:none;fill-rule:evenodd;fill:rgb(96.862745%,70.980392%,0%);fill-opacity:1;" d="M 400 3500 C 293.914062 3500 192.171875 3457.855469 117.15625 3382.84375 C 42.144531 3307.828125 0 3206.085938 0 3100 L 0 400 C 0 293.914062 42.144531 192.171875 117.15625 117.15625 C 192.171875 42.144531 293.914062 0 400 0 L 9550 0 C 9767.664062 0 9981.496094 57.296875 10170 166.128906 L 12300 1403.589844 C 12423.761719 1475.042969 12500 1607.09375 12500 1750 C 12500 1892.90625 12423.761719 2024.957031 12300 2096.410156 L 10170 3333.871094 C 9981.496094 3442.703125 9767.664062 3500 9550 3500 L 400 3500 "/>
<path style=" stroke:none;fill-rule:evenodd;fill:rgb(16.470588%,16.078431%,16.470588%);fill-opacity:1;" d="M 400 3400 C 234.316406 3400 100 3265.683594 100 3100 L 100 400 C 100 234.316406 234.316406 100 400 100 L 9550 100 C 9750.113281 100 9946.699219 152.675781 10120 252.730469 L 12250 1490.191406 C 12342.820312 1543.78125 12400 1642.820312 12400 1750 C 12400 1857.179688 12342.820312 1956.21875 12250 2009.808594 L 10120 3247.269531 C 9946.699219 3347.324219 9750.113281 3400 9550 3400 L 400 3400 M 400 3250 C 317.15625 3250 250 3182.84375 250 3100 L 250 400 C 250 317.15625 317.15625 250 400 250 L 9550 250 C 9723.78125 250 9894.5 295.746094 10045 382.636719 L 12175 1620.097656 C 12221.410156 1646.890625 12250 1696.410156 12250 1750 C 12250 1803.589844 12221.410156 1853.109375 12175 1879.902344 L 10045 3117.363281 C 9894.5 3204.253906 9723.78125 3250 9550 3250 L 400 3250 "/>
<path style=" stroke:none;fill-rule:evenodd;fill:rgb(16.470588%,16.078431%,16.470588%);fill-opacity:1;" d="M 4700 2975 C 4672.386719 2975 4650 2952.613281 4650 2925 L 4650 2425 C 4650 2397.386719 4672.386719 2375 4700 2375 L 4850 2375 C 4877.613281 2375 4900 2397.386719 4900 2425 L 4900 2925 C 4900 2952.613281 4877.613281 2975 4850 2975 L 4700 2975 M 5000 2975 C 4972.386719 2975 4950 2952.613281 4950 2925 L 4950 2425 C 4950 2397.386719 4972.386719 2375 5000 2375 L 5150 2375 C 5177.613281 2375 5200 2397.386719 5200 2425 L 5200 2562.5 C 5200 2590.113281 5222.386719 2612.5 5250 2612.5 L 5345 2612.5 C 5370.675781 2612.5 5395.371094 2602.621094 5413.964844 2584.914062 L 5446.550781 2553.878906 C 5474.441406 2527.316406 5511.484375 2512.5 5550 2512.5 C 5588.515625 2512.5 5625.558594 2527.316406 5653.449219 2553.878906 L 5686.035156 2584.914062 C 5704.628906 2602.621094 5729.324219 2612.5 5755 2612.5 L 5850 2612.5 C 5877.613281 2612.5 5900 2590.113281 5900 2562.5 L 5900 2425 C 5900 2397.386719 5922.386719 2375 5950 2375 L 6100 2375 C 6127.613281 2375 6150 2397.386719 6150 2425 L 6150 2925 C 6150 2952.613281 6127.613281 2975 6100 2975 L 5950 2975 C 5922.386719 2975 5900 2952.613281 5900 2925 L 5900 2787.5 C 5900 2759.886719 5877.613281 2737.5 5850 2737.5 L 5755 2737.5 C 5729.324219 2737.5 5704.628906 2747.378906 5686.035156 2765.085938 L 5653.449219 2796.121094 C 5625.558594 2822.683594 5588.515625 2837.5 5550 2837.5 C 5511.484375 2837.5 5474.441406 2822.683594 5446.550781 2796.121094 L 5413.964844 2765.085938 C 5395.371094 2747.378906 5370.675781 2737.5 5345 2737.5 L 5250 2737.5 C 5222.386719 2737.5 5200 2759.886719 5200 2787.5 L 5200 2925 C 5200 2952.613281 5177.613281 2975 5150 2975 L 5000 2975 M 6250 2975 C 6222.386719 2975 6200 2952.613281 6200 2925 L 6200 2425 C 6200 2397.386719 6222.386719 2375 6250 2375 L 6400 2375 C 6427.613281 2375 6450 2397.386719 6450 2425 L 6450 2925 C 6450 2952.613281 6427.613281 2975 6400 2975 L 6250 2975 M 4550 2325 L 4550 2225 L 6550 2225 L 6550 2325 L 4550 2325 M 4650 2175 L 4650 700 C 4650 603.351562 4728.351562 525 4825 525 L 6275 525 C 6371.648438 525 6450 603.351562 6450 700 L 6450 2175 L 4650 2175 "/>
<path style=" stroke:none;fill-rule:evenodd;fill:rgb(96.470588%,47.058824%,15.686275%);fill-opacity:1;" d="M 4875 1975 L 4875 725 L 6225 725 L 6225 1975 L 4875 1975 "/>
</g>
</svg>
