<?xml version="1.0" encoding="UTF-8"?>
<svg xmlns="http://www.w3.org/2000/svg" xmlns:xlink="http://www.w3.org/1999/xlink" width="1250.000000mm" height="350.000000mm" viewBox="0 0 12500 3500" version="1.1">
<g id="surface1946">
<path style=" stroke:none;fill-rule:evenodd;fill:rgb(96.862745%,70.980392%,0%);fill-opacity:1;" d="M 400 3500 C 293.914062 3500 192.171875 3457.855469 117.15625 3382.84375 C 42.144531 3307.828125 0 3206.085938 0 3100 L 0 400 C 0 293.914062 42.144531 192.171875 117.15625 117.15625 C 192.171875 42.144531 293.914062 0 400 0 L 9550 0 C 9767.664062 0 9981.496094 57.296875 10170 166.128906 L 12300 1403.589844 C 12423.761719 1475.042969 12500 1607.09375 12500 1750 C 12500 1892.90625 12423.761719 2024.957031 12300 2096.410156 L 10170 3333.871094 C 9981.496094 3442.703125 9767.664062 3500 9550 3500 L 400 3500 "/>
<path style=" stroke:none;fill-rule:evenodd;fill:rgb(16.470588%,16.078431%,16.470588%);fill-opacity:1;" d="M 400 3400 C 234.316406 3400 100 3265.683594 100 3100 L 100 400 C 100 234.316406 234.316406 100 400 100 L 9550 100 C 9750.113281 100 9946.699219 152.675781 10120 252.730469 L 12250 1490.191406 C 12342.820312 1543.78125 12400 1642.820312 12400 1750 C 12400 1857.179688 12342.820312 1956.21875 12250 2009.808594 L 10120 3247.269531 C 9946.699219 3347.324219 9750.113281 3400 9550 3400 L 400 3400 M 400 3250 C 317.15625 3250 250 3182.84375 250 3100 L 250 400 C 250 317.15625 317.15625 250 400 250 L 9550 250 C 9723.78125 250 9894.5 295.746094 10045 382.636719 L 12175 1620.097656 C 12221.410156 1646.890625 12250 1696.410156 12250 1750 C 12250 1803.589844 12221.410156 1853.109375 12175 1879.902344 L 10045 3117.363281 C 9894.5 3204.253906 9723.78125 3250 9550 3250 L 400 3250 "/>
<path style=" stroke:none;fill-rule:evenodd;fill:rgb(16.470588%,16.078431%,16.470588%);fill-opacity:1;" d="M 5745 710 L 5958.667969 710 C 6072.644531 710 6173.332031 784.234375 6207.039062 893.109375 L 6395.835938 1502.964844 C 6438.347656 1494.34375 6481.621094 1490 6525 1490 C 6697.390625 1490 6862.722656 1558.480469 6984.621094 1680.378906 C 7106.519531 1802.277344 7175 1967.609375 7175 2140 C 7175 2312.390625 7106.519531 2477.722656 6984.621094 2599.621094 C 6862.722656 2721.519531 6697.390625 2790 6525 2790 C 6352.609375 2790 6187.277344 2721.519531 6065.378906 2599.621094 C 5943.480469 2477.722656 5875 2312.390625 5875 2140 C 5875 2012.292969 5912.621094 1887.414062 5983.160156 1780.957031 C 6053.703125 1674.503906 6154.042969 1591.183594 6271.648438 1541.40625 L 6200.53125 1311.6875 L 5592.773438 2212.695312 C 5568.609375 2248.523438 5528.21875 2270 5485 2270 L 5211.867188 2270 C 5181.902344 2416.796875 5102.148438 2548.730469 4986.097656 2643.488281 C 4870.042969 2738.242188 4724.820312 2790 4575 2790 C 4402.609375 2790 4237.277344 2721.519531 4115.378906 2599.621094 C 3993.480469 2477.722656 3925 2312.390625 3925 2140 C 3925 1967.609375 3993.480469 1802.277344 4115.378906 1680.378906 C 4237.277344 1558.480469 4402.609375 1490 4575 1490 C 4643.417969 1490 4711.40625 1500.800781 4776.457031 1522.007812 L 4965 1100 L 4916.25 970 L 4770 970 L 4770 840 L 5322.5 840 C 5340.449219 840 5355 854.550781 5355 872.5 C 5355 887.53125 5344.691406 900.601562 5330.074219 904.105469 L 5055.089844 970 L 5103.839844 1100 L 6135 1100 L 6082.851562 931.554688 C 6066 877.117188 6015.65625 840 5958.667969 840 L 5745 840 L 5745 710 M 6100.371094 1230 L 5491.242188 2133.074219 L 5152.589844 1230 L 6100.371094 1230 M 6434.523438 1627.933594 C 6464.390625 1622.652344 6494.667969 1620 6525 1620 C 6662.914062 1620 6795.175781 1674.785156 6892.695312 1772.304688 C 6990.214844 1869.824219 7045 2002.085938 7045 2140 C 7045 2277.914062 6990.214844 2410.175781 6892.695312 2507.695312 C 6795.175781 2605.214844 6662.914062 2660 6525 2660 C 6387.085938 2660 6254.824219 2605.214844 6157.304688 2507.695312 C 6059.785156 2410.175781 6005 2277.914062 6005 2140 C 6005 2040.0625 6033.800781 1942.238281 6087.949219 1858.242188 C 6142.101562 1774.246094 6219.308594 1707.632812 6310.335938 1666.375 L 6462.90625 2159.222656 C 6471.332031 2186.441406 6496.507812 2205 6525 2205 C 6560.898438 2205 6590 2175.898438 6590 2140 C 6590 2133.484375 6589.019531 2127.003906 6587.09375 2120.777344 L 6434.519531 1627.933594 M 5095 2140 L 4642.734375 2140 L 4842.074219 1693.828125 C 4998.964844 1787.738281 5095 1957.152344 5095 2140 M 5078.488281 2270 C 5049.667969 2381.621094 4984.570312 2480.5 4893.433594 2551.097656 C 4802.296875 2621.691406 4690.28125 2660 4575 2660 C 4437.085938 2660 4304.824219 2605.214844 4207.304688 2507.695312 C 4109.785156 2410.175781 4055 2277.914062 4055 2140 C 4055 2002.085938 4109.785156 1869.824219 4207.304688 1772.304688 C 4304.824219 1674.785156 4437.085938 1620 4575 1620 C 4625.132812 1620 4675 1627.25 4723.058594 1641.523438 L 4483.152344 2178.484375 C 4479.425781 2186.828125 4477.5 2195.863281 4477.5 2205 C 4477.5 2240.898438 4506.601562 2270 4542.5 2270 L 5078.488281 2270 M 5355 2140 L 5225 2140 C 5225 2025.003906 5194.492188 1912.066406 5136.589844 1812.710938 C 5078.6875 1713.355469 4995.460938 1631.140625 4895.40625 1574.457031 L 5029.972656 1273.265625 L 5355 2140 "/>
</g>
</svg>
