<?xml version="1.0" encoding="UTF-8"?>
<svg xmlns="http://www.w3.org/2000/svg" xmlns:xlink="http://www.w3.org/1999/xlink" width="1250.000000mm" height="350.000000mm" viewBox="0 0 12500 3500" version="1.1">
<g id="surface1956">
<path style=" stroke:none;fill-rule:evenodd;fill:rgb(96.862745%,70.980392%,0%);fill-opacity:1;" d="M 400 3500 C 293.914062 3500 192.171875 3457.855469 117.15625 3382.84375 C 42.144531 3307.828125 0 3206.085938 0 3100 L 0 400 C 0 293.914062 42.144531 192.171875 117.15625 117.15625 C 192.171875 42.144531 293.914062 0 400 0 L 9550 0 C 9767.664062 0 9981.496094 57.296875 10170 166.128906 L 12300 1403.589844 C 12423.761719 1475.042969 12500 1607.09375 12500 1750 C 12500 1892.90625 12423.761719 2024.957031 12300 2096.410156 L 10170 3333.871094 C 9981.496094 3442.703125 9767.664062 3500 9550 3500 L 400 3500 "/>
<path style=" stroke:none;fill-rule:evenodd;fill:rgb(16.470588%,16.078431%,16.470588%);fill-opacity:1;" d="M 400 3400 C 234.316406 3400 100 3265.683594 100 3100 L 100 400 C 100 234.316406 234.316406 100 400 100 L 9550 100 C 9750.113281 100 9946.699219 152.675781 10120 252.730469 L 12250 1490.191406 C 12342.820312 1543.78125 12400 1642.820312 12400 1750 C 12400 1857.179688 12342.820312 1956.21875 12250 2009.808594 L 10120 3247.269531 C 9946.699219 3347.324219 9750.113281 3400 9550 3400 L 400 3400 M 400 3250 C 317.15625 3250 250 3182.84375 250 3100 L 250 400 C 250 317.15625 317.15625 250 400 250 L 9550 250 C 9723.78125 250 9894.5 295.746094 10045 382.636719 L 12175 1620.097656 C 12221.410156 1646.890625 12250 1696.410156 12250 1750 C 12250 1803.589844 12221.410156 1853.109375 12175 1879.902344 L 10045 3117.363281 C 9894.5 3204.253906 9723.78125 3250 9550 3250 L 400 3250 "/>
<path style=" stroke:none;fill-rule:evenodd;fill:rgb(0%,35.686275%,54.901961%);fill-opacity:1;" d="M 4550 3000 L 4596.152344 2980.769531 C 4644.902344 2960.457031 4697.191406 2950 4750 2950 C 4802.808594 2950 4855.097656 2960.457031 4903.847656 2980.769531 L 4996.152344 3019.230469 C 5044.902344 3039.542969 5097.191406 3050 5150 3050 C 5202.808594 3050 5255.097656 3039.542969 5303.847656 3019.230469 L 5396.152344 2980.769531 C 5444.902344 2960.457031 5497.191406 2950 5550 2950 C 5602.808594 2950 5655.097656 2960.457031 5703.847656 2980.769531 L 5796.152344 3019.230469 C 5844.902344 3039.542969 5897.191406 3050 5950 3050 C 6002.808594 3050 6055.097656 3039.542969 6103.847656 3019.230469 L 6196.152344 2980.769531 C 6244.902344 2960.457031 6297.191406 2950 6350 2950 C 6402.808594 2950 6455.097656 2960.457031 6503.847656 2980.769531 L 6550 3000 L 6550 2900 L 6503.847656 2880.769531 C 6455.097656 2860.457031 6402.808594 2850 6350 2850 C 6297.191406 2850 6244.902344 2860.457031 6196.152344 2880.769531 L 6103.847656 2919.230469 C 6055.097656 2939.542969 6002.808594 2950 5950 2950 C 5897.191406 2950 5844.902344 2939.542969 5796.152344 2919.230469 L 5703.847656 2880.769531 C 5655.097656 2860.457031 5602.808594 2850 5550 2850 C 5497.191406 2850 5444.902344 2860.457031 5396.152344 2880.769531 L 5303.847656 2919.230469 C 5255.097656 2939.542969 5202.808594 2950 5150 2950 C 5097.191406 2950 5044.902344 2939.542969 4996.152344 2919.230469 L 4903.847656 2880.769531 C 4855.097656 2860.457031 4802.808594 2850 4750 2850 C 4697.191406 2850 4644.902344 2860.457031 4596.152344 2880.769531 L 4550 2900 L 4550 3000 "/>
<path style=" stroke:none;fill-rule:evenodd;fill:rgb(0%,35.686275%,54.901961%);fill-opacity:1;" d="M 4550 2800 L 4596.152344 2780.769531 C 4644.902344 2760.457031 4697.191406 2750 4750 2750 C 4802.808594 2750 4855.097656 2760.457031 4903.847656 2780.769531 L 4996.152344 2819.230469 C 5044.902344 2839.542969 5097.191406 2850 5150 2850 C 5202.808594 2850 5255.097656 2839.542969 5303.847656 2819.230469 L 5396.152344 2780.769531 C 5444.902344 2760.457031 5497.191406 2750 5550 2750 C 5602.808594 2750 5655.097656 2760.457031 5703.847656 2780.769531 L 5796.152344 2819.230469 C 5844.902344 2839.542969 5897.191406 2850 5950 2850 C 6002.808594 2850 6055.097656 2839.542969 6103.847656 2819.230469 L 6196.152344 2780.769531 C 6244.902344 2760.457031 6297.191406 2750 6350 2750 C 6402.808594 2750 6455.097656 2760.457031 6503.847656 2780.769531 L 6550 2800 L 6550 2700 L 6503.847656 2680.769531 C 6455.097656 2660.457031 6402.808594 2650 6350 2650 C 6297.191406 2650 6244.902344 2660.457031 6196.152344 2680.769531 L 6103.847656 2719.230469 C 6055.097656 2739.542969 6002.808594 2750 5950 2750 C 5897.191406 2750 5844.902344 2739.542969 5796.152344 2719.230469 L 5703.847656 2680.769531 C 5655.097656 2660.457031 5602.808594 2650 5550 2650 C 5497.191406 2650 5444.902344 2660.457031 5396.152344 2680.769531 L 5303.847656 2719.230469 C 5255.097656 2739.542969 5202.808594 2750 5150 2750 C 5097.191406 2750 5044.902344 2739.542969 4996.152344 2719.230469 L 4903.847656 2680.769531 C 4855.097656 2660.457031 4802.808594 2650 4750 2650 C 4697.191406 2650 4644.902344 2660.457031 4596.152344 2680.769531 L 4550 2700 L 4550 2800 "/>
<path style=" stroke:none;fill-rule:evenodd;fill:rgb(16.470588%,16.078431%,16.470588%);fill-opacity:1;" d="M 4700 2550 C 4672.386719 2550 4650 2527.613281 4650 2500 L 4650 2000 C 4650 1972.386719 4672.386719 1950 4700 1950 L 4850 1950 C 4877.613281 1950 4900 1972.386719 4900 2000 L 4900 2500 C 4900 2527.613281 4877.613281 2550 4850 2550 L 4700 2550 M 5000 2550 C 4972.386719 2550 4950 2527.613281 4950 2500 L 4950 2000 C 4950 1972.386719 4972.386719 1950 5000 1950 L 5150 1950 C 5177.613281 1950 5200 1972.386719 5200 2000 L 5200 2137.5 C 5200 2165.113281 5222.386719 2187.5 5250 2187.5 L 5345 2187.5 C 5370.675781 2187.5 5395.371094 2177.621094 5413.964844 2159.914062 L 5446.550781 2128.878906 C 5474.441406 2102.316406 5511.484375 2087.5 5550 2087.5 C 5588.515625 2087.5 5625.558594 2102.316406 5653.449219 2128.878906 L 5686.035156 2159.914062 C 5704.628906 2177.621094 5729.324219 2187.5 5755 2187.5 L 5850 2187.5 C 5877.613281 2187.5 5900 2165.113281 5900 2137.5 L 5900 2000 C 5900 1972.386719 5922.386719 1950 5950 1950 L 6100 1950 C 6127.613281 1950 6150 1972.386719 6150 2000 L 6150 2500 C 6150 2527.613281 6127.613281 2550 6100 2550 L 5950 2550 C 5922.386719 2550 5900 2527.613281 5900 2500 L 5900 2362.5 C 5900 2334.886719 5877.613281 2312.5 5850 2312.5 L 5755 2312.5 C 5729.324219 2312.5 5704.628906 2322.378906 5686.035156 2340.085938 L 5653.449219 2371.121094 C 5625.558594 2397.683594 5588.515625 2412.5 5550 2412.5 C 5511.484375 2412.5 5474.441406 2397.683594 5446.550781 2371.121094 L 5413.964844 2340.085938 C 5395.371094 2322.378906 5370.675781 2312.5 5345 2312.5 L 5250 2312.5 C 5222.386719 2312.5 5200 2334.886719 5200 2362.5 L 5200 2500 C 5200 2527.613281 5177.613281 2550 5150 2550 L 5000 2550 M 6250 2550 C 6222.386719 2550 6200 2527.613281 6200 2500 L 6200 2000 C 6200 1972.386719 6222.386719 1950 6250 1950 L 6400 1950 C 6427.613281 1950 6450 1972.386719 6450 2000 L 6450 2500 C 6450 2527.613281 6427.613281 2550 6400 2550 L 6250 2550 M 4550 1900 L 4550 1600 L 4815.152344 1600 C 5011.414062 1728.199219 5275.234375 1800 5550 1800 C 5824.765625 1800 6088.585938 1728.199219 6284.847656 1600 L 6550 1600 L 6550 1900 L 4550 1900 M 6550 1100 C 6550 927.609375 6444.644531 762.277344 6257.105469 640.378906 C 6069.570312 518.480469 5815.214844 450 5550 450 C 5284.785156 450 5030.429688 518.480469 4842.894531 640.378906 C 4655.355469 762.277344 4550 927.609375 4550 1100 C 4550 1272.390625 4655.355469 1437.722656 4842.894531 1559.621094 C 5030.429688 1681.519531 5284.785156 1750 5550 1750 C 5815.214844 1750 6069.570312 1681.519531 6257.105469 1559.621094 C 6444.644531 1437.722656 6550 1272.390625 6550 1100 "/>
<path style=" stroke:none;fill-rule:evenodd;fill:rgb(96.470588%,47.058824%,15.686275%);fill-opacity:1;" d="M 6400 1100 C 6400 960.761719 6310.445312 827.226562 6151.039062 728.769531 C 5991.636719 630.3125 5775.433594 575 5550 575 C 5324.566406 575 5108.363281 630.3125 4948.960938 728.769531 C 4789.554688 827.226562 4700 960.761719 4700 1100 C 4700 1239.238281 4789.554688 1372.773438 4948.960938 1471.230469 C 5108.363281 1569.6875 5324.566406 1625 5550 1625 C 5775.433594 1625 5991.636719 1569.6875 6151.039062 1471.230469 C 6310.445312 1372.773438 6400 1239.238281 6400 1100 "/>
</g>
</svg>
