<?xml version="1.0" encoding="UTF-8"?>
<svg xmlns="http://www.w3.org/2000/svg" xmlns:xlink="http://www.w3.org/1999/xlink" width="1050.000000mm" height="350.000000mm" viewBox="0 0 10500 3500" version="1.1">
<g id="surface1981">
<path style="fill-rule:evenodd;fill:rgb(96.862745%,70.980392%,0%);fill-opacity:1;stroke-width:0.3;stroke-linecap:butt;stroke-linejoin:miter;stroke:rgb(16.470588%,16.078431%,16.470588%);stroke-opacity:1;stroke-miterlimit:3;" d="M -485 -175 C -495.608594 -175 -505.782812 -170.785547 -513.284375 -163.284375 C -520.785547 -155.782813 -525 -145.608594 -525 -135 L -525 135 C -525 145.608594 -520.785547 155.782813 -513.284375 163.284375 C -505.782812 170.785547 -495.608594 175 -485 175 L 485 175 C 495.608594 175 505.782813 170.785547 513.284375 163.284375 C 520.785547 155.782813 525 145.608594 525 135 L 525 -135 C 525 -145.608594 520.785547 -155.782813 513.284375 -163.284375 C 505.782813 -170.785547 495.608594 -175 485 -175 L -485 -175 " transform="matrix(10,0,0,-10,5250,1750)"/>
<path style=" stroke:none;fill-rule:evenodd;fill:rgb(16.470588%,16.078431%,16.470588%);fill-opacity:1;" d="M 400 3400 C 234.316406 3400 100 3265.683594 100 3100 L 100 400 C 100 234.316406 234.316406 100 400 100 L 10100 100 C 10265.683594 100 10400 234.316406 10400 400 L 10400 3100 C 10400 3265.683594 10265.683594 3400 10100 3400 L 400 3400 M 400 3250 C 317.15625 3250 250 3182.84375 250 3100 L 250 400 C 250 317.15625 317.15625 250 400 250 L 10100 250 C 10182.84375 250 10250 317.15625 10250 400 L 10250 3100 C 10250 3182.84375 10182.84375 3250 10100 3250 L 400 3250 "/>
<path style=" stroke:none;fill-rule:evenodd;fill:rgb(16.470588%,16.078431%,16.470588%);fill-opacity:1;" d="M 4250 1100 L 3383.449219 1154.160156 C 3344.117188 1156.617188 3309.894531 1181.949219 3296.054688 1218.851562 L 3075.46875 1807.082031 C 3058.625 1851.992188 3050 1899.566406 3050 1947.53125 L 3050 2500 C 3050 2555.226562 3094.773438 2600 3150 2600 L 3200 2600 C 3200 2480.652344 3247.410156 2366.191406 3331.800781 2281.800781 C 3416.191406 2197.410156 3530.652344 2150 3650 2150 C 3769.347656 2150 3883.808594 2197.410156 3968.199219 2281.800781 C 4052.589844 2366.191406 4100 2480.652344 4100 2600 L 5900 2600 C 5900 2464.074219 5961.4375 2335.433594 6067.15625 2250 L 4250 2250 L 4250 1100 M 3900 1775 L 3900 1275 L 3394.726562 1306.578125 C 3375.058594 1307.804688 3357.945312 1320.472656 3351.027344 1338.921875 L 3183.414062 1785.894531 C 3181.308594 1791.507812 3180.230469 1797.457031 3180.230469 1803.453125 C 3180.230469 1831.066406 3202.617188 1853.453125 3230.230469 1853.453125 C 3232.183594 1853.453125 3234.136719 1853.335938 3236.074219 1853.109375 L 3900 1775 M 4000 2600 C 4000 2406.699219 3843.300781 2250 3650 2250 C 3456.699219 2250 3300 2406.699219 3300 2600 C 3300 2793.300781 3456.699219 2950 3650 2950 C 3843.300781 2950 4000 2793.300781 4000 2600 M 6700 2600 C 6700 2406.699219 6543.300781 2250 6350 2250 C 6156.699219 2250 6000 2406.699219 6000 2600 C 6000 2793.300781 6156.699219 2950 6350 2950 C 6543.300781 2950 6700 2793.300781 6700 2600 M 7050 2600 L 7350 2500 L 7350 2250 L 6632.84375 2250 C 6738.5625 2335.433594 6800 2464.074219 6800 2600 L 7050 2600 M 7350 2150 L 7350 750 L 4450 750 L 4450 2150 L 7350 2150 "/>
<path style=" stroke:none;fill-rule:evenodd;fill:rgb(73.333333%,11.764706%,6.27451%);fill-opacity:1;" d="M 250 2778.441406 L 9333.683594 250 L 10100 250 C 10182.84375 250 10250 317.15625 10250 400 L 10250 721.558594 L 1166.316406 3250 L 400 3250 C 317.15625 3250 250 3182.84375 250 3100 L 250 2778.441406 "/>
</g>
</svg>
