<?xml version="1.0" encoding="UTF-8"?>
<svg xmlns="http://www.w3.org/2000/svg" xmlns:xlink="http://www.w3.org/1999/xlink" width="1050.000000mm" height="350.000000mm" viewBox="0 0 10500 3500" version="1.1">
<g id="surface1991">
<path style="fill-rule:evenodd;fill:rgb(96.862745%,70.980392%,0%);fill-opacity:1;stroke-width:0.3;stroke-linecap:butt;stroke-linejoin:miter;stroke:rgb(16.470588%,16.078431%,16.470588%);stroke-opacity:1;stroke-miterlimit:3;" d="M -485 -175 C -495.608594 -175 -505.782812 -170.785547 -513.284375 -163.284375 C -520.785547 -155.782813 -525 -145.608594 -525 -135 L -525 135 C -525 145.608594 -520.785547 155.782813 -513.284375 163.284375 C -505.782812 170.785547 -495.608594 175 -485 175 L 485 175 C 495.608594 175 505.782813 170.785547 513.284375 163.284375 C 520.785547 155.782813 525 145.608594 525 135 L 525 -135 C 525 -145.608594 520.785547 -155.782813 513.284375 -163.284375 C 505.782813 -170.785547 495.608594 -175 485 -175 L -485 -175 " transform="matrix(10,0,0,-10,5250,1750)"/>
<path style=" stroke:none;fill-rule:evenodd;fill:rgb(16.470588%,16.078431%,16.470588%);fill-opacity:1;" d="M 400 3400 C 234.316406 3400 100 3265.683594 100 3100 L 100 400 C 100 234.316406 234.316406 100 400 100 L 10100 100 C 10265.683594 100 10400 234.316406 10400 400 L 10400 3100 C 10400 3265.683594 10265.683594 3400 10100 3400 L 400 3400 M 400 3250 C 317.15625 3250 250 3182.84375 250 3100 L 250 400 C 250 317.15625 317.15625 250 400 250 L 10100 250 C 10182.84375 250 10250 317.15625 10250 400 L 10250 3100 C 10250 3182.84375 10182.84375 3250 10100 3250 L 400 3250 "/>
<path style=" stroke:none;fill-rule:evenodd;fill:rgb(16.470588%,16.078431%,16.470588%);fill-opacity:1;" d="M 4400 2975 C 4372.386719 2975 4350 2952.613281 4350 2925 L 4350 2425 C 4350 2397.386719 4372.386719 2375 4400 2375 L 4550 2375 C 4577.613281 2375 4600 2397.386719 4600 2425 L 4600 2925 C 4600 2952.613281 4577.613281 2975 4550 2975 L 4400 2975 M 4700 2975 C 4672.386719 2975 4650 2952.613281 4650 2925 L 4650 2425 C 4650 2397.386719 4672.386719 2375 4700 2375 L 4850 2375 C 4877.613281 2375 4900 2397.386719 4900 2425 L 4900 2562.5 C 4900 2590.113281 4922.386719 2612.5 4950 2612.5 L 5045 2612.5 C 5070.675781 2612.5 5095.371094 2602.621094 5113.964844 2584.914062 L 5146.550781 2553.878906 C 5174.441406 2527.316406 5211.484375 2512.5 5250 2512.5 C 5288.515625 2512.5 5325.558594 2527.316406 5353.449219 2553.878906 L 5386.035156 2584.914062 C 5404.628906 2602.621094 5429.324219 2612.5 5455 2612.5 L 5550 2612.5 C 5577.613281 2612.5 5600 2590.113281 5600 2562.5 L 5600 2425 C 5600 2397.386719 5622.386719 2375 5650 2375 L 5800 2375 C 5827.613281 2375 5850 2397.386719 5850 2425 L 5850 2925 C 5850 2952.613281 5827.613281 2975 5800 2975 L 5650 2975 C 5622.386719 2975 5600 2952.613281 5600 2925 L 5600 2787.5 C 5600 2759.886719 5577.613281 2737.5 5550 2737.5 L 5455 2737.5 C 5429.324219 2737.5 5404.628906 2747.378906 5386.035156 2765.085938 L 5353.449219 2796.121094 C 5325.558594 2822.683594 5288.515625 2837.5 5250 2837.5 C 5211.484375 2837.5 5174.441406 2822.683594 5146.550781 2796.121094 L 5113.964844 2765.085938 C 5095.371094 2747.378906 5070.675781 2737.5 5045 2737.5 L 4950 2737.5 C 4922.386719 2737.5 4900 2759.886719 4900 2787.5 L 4900 2925 C 4900 2952.613281 4877.613281 2975 4850 2975 L 4700 2975 M 5950 2975 C 5922.386719 2975 5900 2952.613281 5900 2925 L 5900 2425 C 5900 2397.386719 5922.386719 2375 5950 2375 L 6100 2375 C 6127.613281 2375 6150 2397.386719 6150 2425 L 6150 2925 C 6150 2952.613281 6127.613281 2975 6100 2975 L 5950 2975 M 4250 2325 L 4250 2225 L 6250 2225 L 6250 2325 L 4250 2325 M 4350 2175 L 4350 700 C 4350 603.351562 4428.351562 525 4525 525 L 5975 525 C 6071.648438 525 6150 603.351562 6150 700 L 6150 2175 L 4350 2175 "/>
<path style=" stroke:none;fill-rule:evenodd;fill:rgb(96.470588%,47.058824%,15.686275%);fill-opacity:1;" d="M 4575 1975 L 4575 725 L 5925 725 L 5925 1975 L 4575 1975 "/>
<path style=" stroke:none;fill-rule:evenodd;fill:rgb(73.333333%,11.764706%,6.27451%);fill-opacity:1;" d="M 250 2778.441406 L 9333.683594 250 L 10100 250 C 10182.84375 250 10250 317.15625 10250 400 L 10250 721.558594 L 1166.316406 3250 L 400 3250 C 317.15625 3250 250 3182.84375 250 3100 L 250 2778.441406 "/>
</g>
</svg>
