<?xml version="1.0" encoding="UTF-8"?>
<svg xmlns="http://www.w3.org/2000/svg" xmlns:xlink="http://www.w3.org/1999/xlink" width="600.000000mm" height="600.000000mm" viewBox="0 0 6000 6000" version="1.1">
<g id="surface2001">
<path style="fill-rule:evenodd;fill:rgb(94.509804%,94.117647%,91.764706%);fill-opacity:1;stroke-width:0.3;stroke-linecap:butt;stroke-linejoin:miter;stroke:rgb(16.470588%,16.078431%,16.470588%);stroke-opacity:1;stroke-miterlimit:3;" d="M -260 300 C -270.608594 300 -280.782812 295.785547 -288.284375 288.284375 C -295.785547 280.782812 -300 270.608594 -300 260 L -300 -260 C -300 -270.608594 -295.785547 -280.782812 -288.284375 -288.284375 C -280.782812 -295.785547 -270.608594 -300 -260 -300 L 260 -300 C 270.608594 -300 280.782812 -295.785547 288.284375 -288.284375 C 295.785547 -280.782812 300 -270.608594 300 -260 L 300 260 C 300 270.608594 295.785547 280.782812 288.284375 288.284375 C 280.782812 295.785547 270.608594 300 260 300 L -260 300 " transform="matrix(10,0,0,-10,3000,3000)"/>
<path style=" stroke:none;fill-rule:evenodd;fill:rgb(16.470588%,16.078431%,16.470588%);fill-opacity:1;" d="M 400 100 C 234.316406 100 100 234.316406 100 400 L 100 5600 C 100 5765.683594 234.316406 5900 400 5900 L 5600 5900 C 5765.683594 5900 5900 5765.683594 5900 5600 L 5900 400 C 5900 234.316406 5765.683594 100 5600 100 L 400 100 M 400 250 C 317.15625 250 250 317.15625 250 400 L 250 5600 C 250 5682.84375 317.15625 5750 400 5750 L 5600 5750 C 5682.84375 5750 5750 5682.84375 5750 5600 L 5750 400 C 5750 317.15625 5682.84375 250 5600 250 L 400 250 "/>
<path style=" stroke:none;fill-rule:evenodd;fill:rgb(55.686275%,57.254902%,56.862745%);fill-opacity:1;" d="M 400 5750 C 317.15625 5750 250 5682.84375 250 5600 L 250 4850 L 1000 4850 C 1082.84375 4850 1150 4917.15625 1150 5000 L 1150 5750 L 400 5750 "/>
<path style=" stroke:none;fill-rule:evenodd;fill:rgb(55.686275%,57.254902%,56.862745%);fill-opacity:1;" d="M 2050 5750 L 2050 5000 C 2050 4917.15625 2117.15625 4850 2200 4850 L 5750 4850 L 5750 5600 C 5750 5682.84375 5682.84375 5750 5600 5750 L 2050 5750 "/>
<path style=" stroke:none;fill-rule:evenodd;fill:rgb(55.686275%,57.254902%,56.862745%);fill-opacity:1;" d="M 250 3950 L 1000 3950 C 1082.84375 3950 1150 3882.84375 1150 3800 L 1150 2200 C 1150 2117.15625 1082.84375 2050 1000 2050 L 250 2050 L 250 3950 "/>
<path style=" stroke:none;fill-rule:evenodd;fill:rgb(55.686275%,57.254902%,56.862745%);fill-opacity:1;" d="M 5750 3950 L 5000 3950 C 4917.15625 3950 4850 3882.84375 4850 3800 L 4850 2200 C 4850 2117.15625 4917.15625 2050 5000 2050 L 5750 2050 L 5750 3950 "/>
<path style=" stroke:none;fill-rule:evenodd;fill:rgb(55.686275%,57.254902%,56.862745%);fill-opacity:1;" d="M 250 1150 L 250 400 C 250 317.15625 317.15625 250 400 250 L 1150 250 L 1150 1000 C 1150 1082.84375 1082.84375 1150 1000 1150 L 250 1150 "/>
<path style=" stroke:none;fill-rule:evenodd;fill:rgb(55.686275%,57.254902%,56.862745%);fill-opacity:1;" d="M 2050 250 L 2050 1000 C 2050 1082.84375 2117.15625 1150 2200 1150 L 3800 1150 C 3882.84375 1150 3950 1082.84375 3950 1000 L 3950 250 L 2050 250 "/>
<path style=" stroke:none;fill-rule:evenodd;fill:rgb(55.686275%,57.254902%,56.862745%);fill-opacity:1;" d="M 4850 250 L 4850 1000 C 4850 1082.84375 4917.15625 1150 5000 1150 L 5750 1150 L 5750 400 C 5750 317.15625 5682.84375 250 5600 250 L 4850 250 "/>
<path style=" stroke:none;fill-rule:evenodd;fill:rgb(55.686275%,57.254902%,56.862745%);fill-opacity:1;" d="M 2200 3950 C 2117.15625 3950 2050 3882.84375 2050 3800 L 2050 2200 C 2050 2117.15625 2117.15625 2050 2200 2050 L 3800 2050 C 3882.84375 2050 3950 2117.15625 3950 2200 L 3950 3800 C 3950 3882.84375 3882.84375 3950 3800 3950 L 2200 3950 "/>
<path style=" stroke:none;fill-rule:evenodd;fill:rgb(16.470588%,16.078431%,16.470588%);fill-opacity:1;" d="M 1450 5750 L 1450 5000 C 1450 4801.085938 1529.019531 4610.320312 1669.667969 4469.667969 C 1810.320312 4329.019531 2001.085938 4250 2200 4250 L 3800 4250 C 3919.347656 4250 4033.808594 4202.589844 4118.199219 4118.199219 C 4202.589844 4033.808594 4250 3919.347656 4250 3800 L 4250 2200 C 4250 2080.652344 4202.589844 1966.191406 4118.199219 1881.800781 C 4033.808594 1797.410156 3919.347656 1750 3800 1750 L 1240 1750 L 1297.664062 1973.425781 C 1299.214844 1978.8125 1300 1984.394531 1300 1990 C 1300 2023.136719 1273.136719 2050 1240 2050 C 1228.5625 2050 1217.363281 2046.730469 1207.722656 2040.578125 L 550 1600 L 1207.722656 1159.421875 C 1217.363281 1153.269531 1228.5625 1150 1240 1150 C 1273.136719 1150 1300 1176.863281 1300 1210 C 1300 1214.90625 1299.398438 1219.792969 1298.207031 1224.550781 L 1240 1450 L 3800 1450 C 3998.914062 1450 4189.679688 1529.019531 4330.332031 1669.667969 C 4470.980469 1810.320312 4550 2001.085938 4550 2200 L 4550 3800 C 4550 3998.914062 4470.980469 4189.679688 4330.332031 4330.332031 C 4189.679688 4470.980469 3998.914062 4550 3800 4550 L 2200 4550 C 2080.652344 4550 1966.191406 4597.410156 1881.800781 4681.800781 C 1797.410156 4766.191406 1750 4880.652344 1750 5000 L 1750 5750 L 1450 5750 "/>
</g>
</svg>
