<?xml version="1.0" encoding="UTF-8"?>
<svg xmlns="http://www.w3.org/2000/svg" xmlns:xlink="http://www.w3.org/1999/xlink" width="841.436000mm" height="739.422900mm" viewBox="0 0 8414.36 7394.229" version="1.1">
<g id="surface1">
<path style="fill-rule:evenodd;fill:rgb(94.509804%,94.117647%,91.764706%);fill-opacity:1;stroke-width:0.3;stroke-linecap:butt;stroke-linejoin:miter;stroke:rgb(16.470588%,16.078431%,16.470588%);stroke-opacity:1;stroke-miterlimit:3;" d="M -380.718 -0.000146875 C -391.326594 -0.000146875 -401.500813 4.214306 -409.002375 11.715869 C -416.503547 19.217041 -420.718 29.391259 -420.718 39.999853 C -420.718 47.021337 -418.869563 53.919384 -415.359016 59.999853 L -34.641047 719.4229 C -31.130109 725.503759 -26.080891 730.553369 -20.000031 734.063916 C -13.919172 737.574462 -7.021516 739.4229 -0.00003125 739.4229 C 7.021453 739.4229 13.919109 737.574462 19.999969 734.063916 C 26.080828 730.553369 31.130437 725.503759 34.640984 719.4229 L 415.358953 59.999853 C 418.869891 53.919384 420.717937 47.021337 420.717937 39.999853 C 420.717937 29.391259 416.503875 19.217041 409.002313 11.715869 C 401.50075 4.214306 391.326531 -0.000146875 380.717937 -0.000146875 L -380.718 -0.000146875 " transform="matrix(10,0,0,-10,4207.18,7394.229)"/>
<path style=" stroke:none;fill-rule:evenodd;fill:rgb(73.333333%,11.764706%,6.27451%);fill-opacity:1;" d="M 400 7244.230469 C 261.929688 7244.230469 150 7132.300781 150 6994.230469 C 150 6950.34375 161.550781 6907.234375 183.492188 6869.230469 L 3990.671875 275 C 4035.332031 197.648438 4117.863281 150 4207.179688 150 C 4296.496094 150 4379.027344 197.648438 4423.6875 275 L 8230.867188 6869.230469 C 8252.808594 6907.234375 8264.359375 6950.34375 8264.359375 6994.230469 C 8264.359375 7132.300781 8152.429688 7244.230469 8014.359375 7244.230469 L 400 7244.230469 M 1266.027344 6494.230469 L 4207.179688 1400 L 7148.335938 6494.230469 L 1266.027344 6494.230469 " />
<path style=" stroke:none;fill-rule:evenodd;fill:rgb(16.470588%,16.078431%,16.470588%);fill-opacity:1;" d="M 4607.179688 5844.230469 C 4607.179688 5950.316406 4565.039062 6052.058594 4490.023438 6127.070312 C 4415.007812 6202.085938 4313.265625 6244.230469 4207.179688 6244.230469 C 4101.09375 6244.230469 3999.351562 6202.085938 3924.335938 6127.070312 C 3849.324219 6052.058594 3807.179688 5950.316406 3807.179688 5844.230469 C 3807.179688 5738.140625 3849.324219 5636.402344 3924.335938 5561.386719 C 3999.351562 5486.371094 4101.09375 5444.230469 4207.179688 5444.230469 C 4313.265625 5444.230469 4415.007812 5486.371094 4490.023438 5561.386719 C 4565.039062 5636.402344 4607.179688 5738.140625 4607.179688 5844.230469 M 4406.386719 5062.007812 C 4397.183594 5165.164062 4310.746094 5244.230469 4207.179688 5244.230469 C 4103.613281 5244.230469 4017.175781 5165.164062 4007.972656 5062.007812 L 3808.761719 2829.785156 C 3807.707031 2817.960938 3807.179688 2806.097656 3807.179688 2794.230469 C 3807.179688 2688.140625 3849.324219 2586.402344 3924.335938 2511.386719 C 3999.351562 2436.371094 4101.09375 2394.230469 4207.179688 2394.230469 C 4313.265625 2394.230469 4415.007812 2436.371094 4490.023438 2511.386719 C 4565.039062 2586.402344 4607.179688 2688.140625 4607.179688 2794.230469 C 4607.179688 2806.097656 4606.652344 2817.960938 4605.597656 2829.78125 L 4406.386719 5062.007812 "/>
</g>
</svg>
