<?xml version="1.0" encoding="UTF-8"?>
<svg xmlns="http://www.w3.org/2000/svg" xmlns:xlink="http://www.w3.org/1999/xlink" width="841.436000mm" height="739.422900mm" viewBox="0 0 8414.36 7394.229" version="1.1">
<g id="surface386">
<path style="fill-rule:evenodd;fill:rgb(94.509804%,94.117647%,91.764706%);fill-opacity:1;stroke-width:0.3;stroke-linecap:butt;stroke-linejoin:miter;stroke:rgb(16.470588%,16.078431%,16.470588%);stroke-opacity:1;stroke-miterlimit:3;" d="M -380.718 -0.000146875 C -391.326594 -0.000146875 -401.500813 4.214306 -409.002375 11.715869 C -416.503547 19.217041 -420.718 29.391259 -420.718 39.999853 C -420.718 47.021337 -418.869563 53.919384 -415.359016 59.999853 L -34.641047 719.4229 C -31.130109 725.503759 -26.080891 730.553369 -20.000031 734.063916 C -13.919172 737.574462 -7.021516 739.4229 -0.00003125 739.4229 C 7.021453 739.4229 13.919109 737.574462 19.999969 734.063916 C 26.080828 730.553369 31.130437 725.503759 34.640984 719.4229 L 415.358953 59.999853 C 418.869891 53.919384 420.717937 47.021337 420.717937 39.999853 C 420.717937 29.391259 416.503875 19.217041 409.002313 11.715869 C 401.50075 4.214306 391.326531 -0.000146875 380.717937 -0.000146875 L -380.718 -0.000146875 " transform="matrix(10,0,0,-10,4207.18,7394.229)"/>
<path style=" stroke:none;fill-rule:evenodd;fill:rgb(73.333333%,11.764706%,6.27451%);fill-opacity:1;" d="M 400 7244.230469 C 261.929688 7244.230469 150 7132.300781 150 6994.230469 C 150 6950.34375 161.550781 6907.234375 183.492188 6869.230469 L 3990.671875 275 C 4035.332031 197.648438 4117.863281 150 4207.179688 150 C 4296.496094 150 4379.027344 197.648438 4423.6875 275 L 8230.867188 6869.230469 C 8252.808594 6907.234375 8264.359375 6950.34375 8264.359375 6994.230469 C 8264.359375 7132.300781 8152.429688 7244.230469 8014.359375 7244.230469 L 400 7244.230469 M 1266.027344 6494.230469 L 4207.179688 1400 L 7148.335938 6494.230469 L 1266.027344 6494.230469 "/>
<path style=" stroke:none;fill-rule:evenodd;fill:rgb(16.470588%,16.078431%,16.470588%);fill-opacity:1;" d="M 1807.179688 6194.230469 L 1807.179688 5994.230469 L 4607.179688 5994.230469 L 4607.179688 6194.230469 L 1807.179688 6194.230469 M 4632.179688 6194.230469 L 4632.179688 5994.230469 L 4782.179688 5994.230469 L 4782.179688 6194.230469 L 4632.179688 6194.230469 M 4807.179688 6254.230469 L 4807.179688 6054.230469 L 4957.179688 6054.230469 L 4957.179688 6254.230469 L 4807.179688 6254.230469 M 4982.179688 6324.230469 L 4982.179688 6124.230469 L 5132.179688 6124.230469 L 5132.179688 6324.230469 L 4982.179688 6324.230469 M 5157.179688 6284.230469 L 5157.179688 6084.230469 L 5307.179688 6084.230469 L 5307.179688 6284.230469 L 5157.179688 6284.230469 M 5332.179688 6234.230469 L 5332.179688 6034.230469 L 5482.179688 6034.230469 L 5482.179688 6234.230469 L 5332.179688 6234.230469 M 5507.179688 6324.230469 L 5507.179688 6124.230469 L 5657.179688 6124.230469 L 5657.179688 6324.230469 L 5507.179688 6324.230469 M 5682.179688 6294.230469 L 5682.179688 6094.230469 L 5832.179688 6094.230469 L 5832.179688 6294.230469 L 5682.179688 6294.230469 M 5857.179688 6404.230469 L 5857.179688 6204.230469 L 6007.179688 6204.230469 L 6007.179688 6404.230469 L 5857.179688 6404.230469 M 3911.929688 5021.703125 C 3914.195312 4989.324219 3926.898438 4958.554688 3948.136719 4934.011719 L 3980.851562 4896.203125 C 4003.753906 4869.738281 4023.488281 4840.695312 4039.65625 4809.65625 L 4268.632812 4370.117188 C 4290.164062 4328.792969 4332.894531 4302.871094 4379.492188 4302.871094 C 4382.402344 4302.871094 4385.308594 4302.972656 4388.210938 4303.175781 L 5635.167969 4390.371094 C 5684.796875 4393.839844 5727.644531 4426.414062 5744.265625 4473.304688 L 5909.84375 4940.433594 C 5921.535156 4973.417969 5937.035156 5004.929688 5956.03125 5034.320312 L 5983.164062 5076.316406 C 5998.839844 5100.574219 6007.179688 5128.84375 6007.179688 5157.726562 C 6007.179688 5161.21875 6007.058594 5164.707031 6006.816406 5168.191406 L 5984.144531 5492.398438 C 5979.566406 5557.890625 5925.101562 5608.679688 5859.449219 5608.679688 C 5856.539062 5608.679688 5853.632812 5608.578125 5850.730469 5608.375 L 4005.234375 5479.324219 C 3939.742188 5474.746094 3888.953125 5420.28125 3888.953125 5354.628906 C 3888.953125 5351.722656 3889.054688 5348.8125 3889.257812 5345.910156 L 3911.929688 5021.703125 M 4001.746094 5529.203125 L 4301.015625 5550.128906 L 4281.835938 5824.460938 C 4279.085938 5863.753906 4246.40625 5894.230469 4207.015625 5894.230469 C 4205.273438 5894.230469 4203.527344 5894.167969 4201.785156 5894.046875 L 4052.148438 5883.582031 C 4012.855469 5880.835938 3982.382812 5848.15625 3982.382812 5808.765625 C 3982.382812 5807.019531 3982.441406 5805.273438 3982.566406 5803.535156 L 4001.746094 5529.203125 M 5547.972656 5637.324219 L 5847.242188 5658.253906 L 5828.058594 5932.582031 C 5825.308594 5971.878906 5792.632812 6002.351562 5753.242188 6002.351562 C 5751.496094 6002.351562 5749.75 6002.289062 5748.007812 6002.167969 L 5598.375 5991.707031 C 5559.078125 5988.957031 5528.605469 5956.277344 5528.605469 5916.886719 C 5528.605469 5915.140625 5528.667969 5913.398438 5528.789062 5911.65625 L 5547.972656 5637.324219 M 4162.804688 4838.757812 L 4361.808594 4456.757812 C 4370.417969 4440.226562 4387.511719 4429.855469 4406.152344 4429.855469 C 4407.316406 4429.855469 4408.476562 4429.898438 4409.640625 4429.980469 L 5596.304688 4512.957031 C 5616.15625 4514.347656 5633.292969 4527.375 5639.941406 4546.132812 L 5783.84375 4952.109375 L 4162.804688 4838.757812 "/>
</g>
</svg>
