<?xml version="1.0" encoding="UTF-8"?>
<svg xmlns="http://www.w3.org/2000/svg" xmlns:xlink="http://www.w3.org/1999/xlink" width="841.436000mm" height="739.422900mm" viewBox="0 0 8414.36 7394.229" version="1.1">
<g id="surface391">
<path style="fill-rule:evenodd;fill:rgb(94.509804%,94.117647%,91.764706%);fill-opacity:1;stroke-width:0.3;stroke-linecap:butt;stroke-linejoin:miter;stroke:rgb(16.470588%,16.078431%,16.470588%);stroke-opacity:1;stroke-miterlimit:3;" d="M -380.718 -0.000146875 C -391.326594 -0.000146875 -401.500813 4.214306 -409.002375 11.715869 C -416.503547 19.217041 -420.718 29.391259 -420.718 39.999853 C -420.718 47.021337 -418.869563 53.919384 -415.359016 59.999853 L -34.641047 719.4229 C -31.130109 725.503759 -26.080891 730.553369 -20.000031 734.063916 C -13.919172 737.574462 -7.021516 739.4229 -0.00003125 739.4229 C 7.021453 739.4229 13.919109 737.574462 19.999969 734.063916 C 26.080828 730.553369 31.130437 725.503759 34.640984 719.4229 L 415.358953 59.999853 C 418.869891 53.919384 420.717937 47.021337 420.717937 39.999853 C 420.717937 29.391259 416.503875 19.217041 409.002313 11.715869 C 401.50075 4.214306 391.326531 -0.000146875 380.717937 -0.000146875 L -380.718 -0.000146875 " transform="matrix(10,0,0,-10,4207.18,7394.229)"/>
<path style=" stroke:none;fill-rule:evenodd;fill:rgb(73.333333%,11.764706%,6.27451%);fill-opacity:1;" d="M 400 7244.230469 C 261.929688 7244.230469 150 7132.300781 150 6994.230469 C 150 6950.34375 161.550781 6907.234375 183.492188 6869.230469 L 3990.671875 275 C 4035.332031 197.648438 4117.863281 150 4207.179688 150 C 4296.496094 150 4379.027344 197.648438 4423.6875 275 L 8230.867188 6869.230469 C 8252.808594 6907.234375 8264.359375 6950.34375 8264.359375 6994.230469 C 8264.359375 7132.300781 8152.429688 7244.230469 8014.359375 7244.230469 L 400 7244.230469 M 1266.027344 6494.230469 L 4207.179688 1400 L 7148.335938 6494.230469 L 1266.027344 6494.230469 "/>
<path style=" stroke:none;fill-rule:evenodd;fill:rgb(16.470588%,16.078431%,16.470588%);fill-opacity:1;" d="M 3782.179688 5269.230469 C 3809.792969 5269.230469 3832.179688 5280.421875 3832.179688 5294.230469 C 3832.179688 5306.554688 3814.214844 5317.039062 3789.855469 5318.933594 L 3679.363281 5327.515625 C 3372.183594 5351.371094 3107.085938 5394.527344 2919.832031 5451.160156 C 2732.578125 5507.796875 2632.179688 5575.179688 2632.179688 5644.230469 C 2632.179688 5688.292969 2678.582031 5729.101562 2754.308594 5751.640625 L 2768.589844 5755.890625 C 2785.550781 5760.9375 2797.179688 5776.53125 2797.179688 5794.230469 C 2797.179688 5813.792969 2783.03125 5830.484375 2763.734375 5833.6875 L 2741.851562 5837.320312 C 2714.246094 5841.90625 2685.773438 5844.230469 2657.179688 5844.230469 C 2477.6875 5844.230469 2332.179688 5754.6875 2332.179688 5644.230469 C 2332.179688 5544.773438 2484.949219 5449.390625 2756.875 5379.0625 C 3028.804688 5308.738281 3397.617188 5269.230469 3782.179688 5269.230469 M 2882.179688 6294.230469 C 2792.402344 6294.230469 2702.851562 6285.273438 2614.855469 6267.496094 L 2614.851562 6267.496094 C 2574.03125 6259.25 2544.679688 6223.375 2544.679688 6181.730469 C 2544.679688 6133.402344 2583.855469 6094.230469 2632.179688 6094.230469 C 2640.0625 6094.230469 2647.910156 6095.292969 2655.507812 6097.394531 L 2697.242188 6108.941406 C 2781.902344 6132.359375 2869.339844 6144.230469 2957.179688 6144.230469 C 3103.050781 6144.230469 3242.945312 6123.15625 3346.089844 6085.648438 C 3449.234375 6048.144531 3507.179688 5997.273438 3507.179688 5944.230469 C 3507.179688 5906.523438 3465.203125 5871.324219 3395.382812 5850.480469 L 3303.390625 5823.019531 C 3212.710938 5795.949219 3157.179688 5747.035156 3157.179688 5694.230469 C 3157.179688 5611.347656 3280.972656 5531.863281 3501.328125 5473.257812 C 3721.683594 5414.652344 4020.550781 5381.730469 4332.179688 5381.730469 C 4359.792969 5381.730469 4382.179688 5392.921875 4382.179688 5406.730469 C 4382.179688 5418.96875 4364.457031 5429.40625 4340.304688 5431.398438 L 4260.5625 5437.964844 C 4016.535156 5458.058594 3806.890625 5493.277344 3659.078125 5539.003906 C 3511.265625 5584.730469 3432.179688 5638.835938 3432.179688 5694.230469 C 3432.179688 5731.933594 3474.15625 5767.132812 3543.980469 5787.976562 L 3635.96875 5815.4375 C 3726.648438 5842.507812 3782.179688 5891.421875 3782.179688 5944.230469 C 3782.179688 6037.054688 3687.359375 6126.078125 3518.574219 6191.714844 C 3349.792969 6257.355469 3120.875 6294.230469 2882.179688 6294.230469 M 4607.179688 5494.230469 C 4625.957031 5494.230469 4641.179688 5501.839844 4641.179688 5511.230469 C 4641.179688 5517.070312 4635.179688 5522.503906 4625.292969 5525.617188 L 4591.035156 5536.398438 C 4508.734375 5562.304688 4457.179688 5613.464844 4457.179688 5669.230469 C 4457.179688 5730.199219 4510.65625 5789.070312 4607.542969 5834.761719 C 4704.429688 5880.449219 4838.054688 5909.8125 4983.269531 5917.324219 L 5549.175781 5946.59375 C 5690.667969 5953.910156 5819.648438 5977.855469 5912.808594 6014.101562 C 6005.972656 6050.34375 6057.179688 6096.5 6057.179688 6144.230469 C 6057.179688 6227.070312 5911.671875 6294.230469 5732.179688 6294.230469 C 5726.65625 6294.230469 5722.179688 6289.75 5722.179688 6284.230469 C 5722.179688 6281.441406 5723.34375 6278.777344 5725.394531 6276.886719 L 5745.640625 6258.171875 C 5769.328125 6236.28125 5782.179688 6209.394531 5782.179688 6181.730469 C 5782.179688 6104.707031 5646.0625 6040.203125 5467.25 6032.484375 L 4834.023438 6005.15625 C 4661.988281 5997.730469 4502.734375 5964.40625 4386.984375 5911.605469 C 4271.230469 5858.808594 4207.179688 5790.277344 4207.179688 5719.230469 C 4207.179688 5659.554688 4249.324219 5602.324219 4324.335938 5560.128906 C 4399.351562 5517.933594 4501.09375 5494.230469 4607.179688 5494.230469 M 3073.128906 3994.996094 C 3082.328125 3960.664062 3102.417969 3930.238281 3130.378906 3908.289062 L 3173.453125 3874.476562 C 3203.605469 3850.808594 3230.890625 3823.707031 3254.761719 3793.71875 L 3592.792969 3369.015625 C 3618.769531 3336.382812 3658.203125 3317.367188 3699.910156 3317.367188 C 3711.875 3317.367188 3723.789062 3318.9375 3735.34375 3322.03125 L 5057.742188 3676.367188 C 5110.375 3690.472656 5149.632812 3734.445312 5157.703125 3788.332031 L 5238.097656 4325.152344 C 5243.777344 4363.058594 5253.855469 4400.171875 5268.132812 4435.746094 L 5288.53125 4486.5625 C 5296.339844 4506.023438 5300.355469 4526.792969 5300.355469 4547.761719 C 5300.355469 4562.117188 5298.472656 4576.414062 5294.757812 4590.28125 L 5202.628906 4934.105469 C 5186.59375 4993.957031 5132.355469 5035.578125 5070.390625 5035.578125 C 5058.425781 5035.578125 5046.511719 5034.007812 5034.957031 5030.910156 L 3077.808594 4506.496094 C 3017.953125 4490.457031 2976.335938 4436.21875 2976.335938 4374.253906 C 2976.335938 4362.289062 2977.90625 4350.378906 2981 4338.820312 L 3073.128906 3994.996094 M 3381.078125 3850.738281 L 3674.859375 3481.632812 C 3685.25 3468.578125 3701.023438 3460.972656 3717.707031 3460.972656 C 3722.492188 3460.972656 3727.257812 3461.601562 3731.878906 3462.839844 L 4990.339844 3800.042969 C 5011.394531 3805.683594 5027.097656 3823.273438 5030.324219 3844.828125 L 5100.195312 4311.375 L 3381.078125 3850.738281 M 3063.632812 4559.390625 L 3381.007812 4644.429688 L 3303.054688 4935.359375 C 3293.433594 4971.269531 3260.890625 4996.242188 3223.710938 4996.242188 C 3216.535156 4996.242188 3209.386719 4995.300781 3202.453125 4993.441406 L 3043.765625 4950.921875 C 3007.851562 4941.300781 2982.882812 4908.757812 2982.882812 4871.578125 C 2982.882812 4864.402344 2983.820312 4857.253906 2985.679688 4850.320312 L 3063.632812 4559.390625 M 4703.40625 4998.765625 L 5020.78125 5083.808594 L 4942.828125 5374.734375 C 4933.207031 5410.648438 4900.664062 5435.617188 4863.484375 5435.617188 C 4856.304688 5435.617188 4849.160156 5434.675781 4842.226562 5432.820312 L 4683.539062 5390.300781 C 4647.625 5380.675781 4622.65625 5348.132812 4622.65625 5310.953125 C 4622.65625 5303.777344 4623.597656 5296.628906 4625.453125 5289.695312 L 4703.40625 4998.765625 "/>
</g>
</svg>
