<?xml version="1.0" encoding="UTF-8"?>
<svg xmlns="http://www.w3.org/2000/svg" xmlns:xlink="http://www.w3.org/1999/xlink" width="841.436000mm" height="739.422900mm" viewBox="0 0 8414.36 7394.229" version="1.1">
<g id="surface396">
<path style="fill-rule:evenodd;fill:rgb(94.509804%,94.117647%,91.764706%);fill-opacity:1;stroke-width:0.3;stroke-linecap:butt;stroke-linejoin:miter;stroke:rgb(16.470588%,16.078431%,16.470588%);stroke-opacity:1;stroke-miterlimit:3;" d="M -380.718 -0.000146875 C -391.326594 -0.000146875 -401.500813 4.214306 -409.002375 11.715869 C -416.503547 19.217041 -420.718 29.391259 -420.718 39.999853 C -420.718 47.021337 -418.869563 53.919384 -415.359016 59.999853 L -34.641047 719.4229 C -31.130109 725.503759 -26.080891 730.553369 -20.000031 734.063916 C -13.919172 737.574462 -7.021516 739.4229 -0.00003125 739.4229 C 7.021453 739.4229 13.919109 737.574462 19.999969 734.063916 C 26.080828 730.553369 31.130437 725.503759 34.640984 719.4229 L 415.358953 59.999853 C 418.869891 53.919384 420.717937 47.021337 420.717937 39.999853 C 420.717937 29.391259 416.503875 19.217041 409.002313 11.715869 C 401.50075 4.214306 391.326531 -0.000146875 380.717937 -0.000146875 L -380.718 -0.000146875 " transform="matrix(10,0,0,-10,4207.18,7394.229)"/>
<path style=" stroke:none;fill-rule:evenodd;fill:rgb(73.333333%,11.764706%,6.27451%);fill-opacity:1;" d="M 400 7244.230469 C 261.929688 7244.230469 150 7132.300781 150 6994.230469 C 150 6950.34375 161.550781 6907.234375 183.492188 6869.230469 L 3990.671875 275 C 4035.332031 197.648438 4117.863281 150 4207.179688 150 C 4296.496094 150 4379.027344 197.648438 4423.6875 275 L 8230.867188 6869.230469 C 8252.808594 6907.234375 8264.359375 6950.34375 8264.359375 6994.230469 C 8264.359375 7132.300781 8152.429688 7244.230469 8014.359375 7244.230469 L 400 7244.230469 M 1266.027344 6494.230469 L 4207.179688 1400 L 7148.335938 6494.230469 L 1266.027344 6494.230469 "/>
<path style=" stroke:none;fill-rule:evenodd;fill:rgb(16.470588%,16.078431%,16.470588%);fill-opacity:1;" d="M 4207.179688 3373.078125 L 4371.382812 3467.878906 L 4371.382812 3634.042969 L 4515.285156 3550.960938 L 4679.484375 3645.761719 L 4679.484375 3835.367188 L 4371.382812 4013.25 L 4371.382812 4511.746094 L 4803.09375 4262.5 L 4803.09375 3906.730469 L 4967.292969 3811.929688 L 5131.496094 3906.730469 L 5131.496094 4072.894531 L 5275.398438 3989.8125 L 5439.601562 4084.613281 L 5439.601562 4274.21875 L 5295.695312 4357.300781 L 5439.601562 4440.382812 L 5439.601562 4629.988281 L 5275.398438 4724.789062 L 4967.292969 4546.902344 L 4535.582031 4796.152344 L 4967.292969 5045.402344 L 5275.398438 4867.515625 L 5439.601562 4962.320312 L 5439.601562 5151.921875 L 5295.695312 5235.003906 L 5439.601562 5318.089844 L 5439.601562 5507.691406 L 5275.398438 5602.492188 L 5131.496094 5519.410156 L 5131.496094 5685.574219 L 4967.292969 5780.378906 L 4803.09375 5685.574219 L 4803.09375 5329.804688 L 4371.382812 5080.558594 L 4371.382812 5579.054688 L 4679.484375 5756.9375 L 4679.484375 5946.542969 L 4515.285156 6041.34375 L 4371.382812 5958.261719 L 4371.382812 6124.425781 L 4207.179688 6219.230469 L 4042.980469 6124.425781 L 4042.980469 5958.261719 L 3899.074219 6041.34375 L 3734.875 5946.542969 L 3734.875 5756.9375 L 4042.980469 5579.054688 L 4042.980469 5080.558594 L 3611.265625 5329.804688 L 3611.265625 5685.574219 L 3447.066406 5780.378906 L 3282.863281 5685.574219 L 3282.863281 5519.410156 L 3138.960938 5602.492188 L 2974.761719 5507.691406 L 2974.761719 5318.089844 L 3118.664062 5235.003906 L 2974.761719 5151.921875 L 2974.761719 4962.320312 L 3138.960938 4867.515625 L 3447.066406 5045.402344 L 3878.777344 4796.152344 L 3447.066406 4546.902344 L 3138.960938 4724.789062 L 2974.761719 4629.988281 L 2974.761719 4440.382812 L 3118.664062 4357.300781 L 2974.761719 4274.21875 L 2974.761719 4084.613281 L 3138.960938 3989.8125 L 3282.863281 4072.894531 L 3282.863281 3906.730469 L 3447.066406 3811.929688 L 3611.265625 3906.730469 L 3611.265625 4262.5 L 4042.980469 4511.746094 L 4042.980469 4013.25 L 3734.875 3835.367188 L 3734.875 3645.761719 L 3899.074219 3550.960938 L 4042.980469 3634.042969 L 4042.980469 3467.878906 L 4207.179688 3373.078125 "/>
</g>
</svg>
