<?xml version="1.0" encoding="UTF-8"?>
<svg xmlns="http://www.w3.org/2000/svg" xmlns:xlink="http://www.w3.org/1999/xlink" width="841.436000mm" height="739.422900mm" viewBox="0 0 8414.36 7394.229" version="1.1">
<g id="surface401">
<path style="fill-rule:evenodd;fill:rgb(94.509804%,94.117647%,91.764706%);fill-opacity:1;stroke-width:0.3;stroke-linecap:butt;stroke-linejoin:miter;stroke:rgb(16.470588%,16.078431%,16.470588%);stroke-opacity:1;stroke-miterlimit:3;" d="M -380.718 -0.000146875 C -391.326594 -0.000146875 -401.500813 4.214306 -409.002375 11.715869 C -416.503547 19.217041 -420.718 29.391259 -420.718 39.999853 C -420.718 47.021337 -418.869563 53.919384 -415.359016 59.999853 L -34.641047 719.4229 C -31.130109 725.503759 -26.080891 730.553369 -20.000031 734.063916 C -13.919172 737.574462 -7.021516 739.4229 -0.00003125 739.4229 C 7.021453 739.4229 13.919109 737.574462 19.999969 734.063916 C 26.080828 730.553369 31.130437 725.503759 34.640984 719.4229 L 415.358953 59.999853 C 418.869891 53.919384 420.717937 47.021337 420.717937 39.999853 C 420.717937 29.391259 416.503875 19.217041 409.002313 11.715869 C 401.50075 4.214306 391.326531 -0.000146875 380.717937 -0.000146875 L -380.718 -0.000146875 " transform="matrix(10,0,0,-10,4207.18,7394.229)"/>
<path style=" stroke:none;fill-rule:evenodd;fill:rgb(73.333333%,11.764706%,6.27451%);fill-opacity:1;" d="M 400 7244.230469 C 261.929688 7244.230469 150 7132.300781 150 6994.230469 C 150 6950.34375 161.550781 6907.234375 183.492188 6869.230469 L 3990.671875 275 C 4035.332031 197.648438 4117.863281 150 4207.179688 150 C 4296.496094 150 4379.027344 197.648438 4423.6875 275 L 8230.867188 6869.230469 C 8252.808594 6907.234375 8264.359375 6950.34375 8264.359375 6994.230469 C 8264.359375 7132.300781 8152.429688 7244.230469 8014.359375 7244.230469 L 400 7244.230469 M 1266.027344 6494.230469 L 4207.179688 1400 L 7148.335938 6494.230469 L 1266.027344 6494.230469 "/>
<path style=" stroke:none;fill-rule:evenodd;fill:rgb(16.470588%,16.078431%,16.470588%);fill-opacity:1;" d="M 1468.097656 6344.230469 L 1554.699219 6194.230469 L 3120.8125 6194.230469 C 3069.035156 6194.230469 3027.0625 6152.253906 3027.0625 6100.476562 L 3027.0625 5756.730469 L 3402.0625 5756.730469 L 3402.0625 6100.476562 C 3402.0625 6152.253906 3360.089844 6194.230469 3308.3125 6194.230469 L 6859.660156 6194.230469 L 6946.261719 6344.230469 L 1468.097656 6344.230469 "/>
<path style=" stroke:none;fill-rule:evenodd;fill:rgb(16.470588%,16.078431%,16.470588%);fill-opacity:1;" d="M 2709.402344 4194.230469 L 3152.0625 4194.230469 C 3214.25 4194.230469 3270.519531 4231.109375 3295.332031 4288.132812 L 3542.535156 4856.183594 C 3559.988281 4896.292969 3582.066406 4934.234375 3608.3125 4969.230469 L 3645.8125 5019.230469 C 3670.152344 5051.683594 3683.3125 5091.160156 3683.3125 5131.730469 L 3683.3125 5537.980469 C 3683.3125 5624.273438 3613.355469 5694.230469 3527.0625 5694.230469 L 1843.375 5694.230469 L 2312.472656 4881.730469 L 3386.4375 4881.730469 L 3171.597656 4388.039062 C 3161.667969 4365.230469 3139.164062 4350.480469 3114.285156 4350.480469 L 2619.191406 4350.480469 L 2709.402344 4194.230469 M 3402.0625 5225.480469 C 3402.0625 5121.925781 3318.113281 5037.980469 3214.5625 5037.980469 C 3111.007812 5037.980469 3027.0625 5121.925781 3027.0625 5225.480469 C 3027.0625 5329.035156 3111.007812 5412.980469 3214.5625 5412.980469 C 3318.113281 5412.980469 3402.0625 5329.035156 3402.0625 5225.480469 "/>
<path style=" stroke:none;fill-rule:evenodd;fill:rgb(16.470588%,16.078431%,16.470588%);fill-opacity:1;" d="M 3728.3125 6144.230469 L 5421.671875 5906.242188 L 5413.320312 5846.828125 L 3719.960938 6084.8125 L 3728.3125 6144.230469 "/>
<path style=" stroke:none;fill-rule:evenodd;fill:rgb(16.470588%,16.078431%,16.470588%);fill-opacity:1;" d="M 4028.3125 5964.230469 L 5613.796875 5323.652344 L 5591.320312 5268.019531 L 4005.835938 5908.597656 L 4028.3125 5964.230469 "/>
<path style=" stroke:none;fill-rule:evenodd;fill:rgb(16.470588%,16.078431%,16.470588%);fill-opacity:1;" d="M 3728.3125 6035.203125 L 4818.585938 5327.171875 L 4785.90625 5276.851562 L 3695.632812 5984.882812 L 3728.3125 6035.203125 "/>
<path style=" stroke:none;fill-rule:evenodd;fill:rgb(16.470588%,16.078431%,16.470588%);fill-opacity:1;" d="M 5048.3125 5144.230469 L 5201.011719 5088.652344 L 5257.042969 4968.488281 L 5136.882812 4912.457031 L 4984.183594 4968.035156 L 4928.152344 5088.195312 L 5048.3125 5144.230469 "/>
<path style=" stroke:none;fill-rule:evenodd;fill:rgb(16.470588%,16.078431%,16.470588%);fill-opacity:1;" d="M 5528.3125 5104.230469 L 5635.097656 5104.230469 L 5696.703125 5042.621094 L 5635.097656 4981.015625 L 5528.3125 4981.015625 L 5466.703125 5042.621094 L 5528.3125 5104.230469 "/>
<path style=" stroke:none;fill-rule:evenodd;fill:rgb(16.470588%,16.078431%,16.470588%);fill-opacity:1;" d="M 5753.3125 5544.230469 L 5860.097656 5544.230469 L 5921.703125 5482.621094 L 5860.097656 5421.015625 L 5753.3125 5421.015625 L 5691.703125 5482.621094 L 5753.3125 5544.230469 "/>
<path style=" stroke:none;fill-rule:evenodd;fill:rgb(16.470588%,16.078431%,16.470588%);fill-opacity:1;" d="M 5228.3125 5789.230469 L 5359.199219 5741.589844 L 5407.226562 5638.597656 L 5304.230469 5590.566406 L 5173.34375 5638.207031 L 5125.316406 5741.203125 L 5228.3125 5789.230469 "/>
<path style=" stroke:none;fill-rule:evenodd;fill:rgb(16.470588%,16.078431%,16.470588%);fill-opacity:1;" d="M 5628.3125 6074.230469 L 5744.382812 6074.230469 L 5811.347656 6007.265625 L 5744.382812 5940.300781 L 5628.3125 5940.300781 L 5561.347656 6007.265625 L 5628.3125 6074.230469 "/>
<path style=" stroke:none;fill-rule:evenodd;fill:rgb(16.470588%,16.078431%,16.470588%);fill-opacity:1;" d="M 6068.3125 6094.230469 L 6168.65625 6057.707031 L 6205.480469 5978.742188 L 6126.515625 5941.921875 L 6026.171875 5978.445312 L 5989.351562 6057.40625 L 6068.3125 6094.230469 "/>
<path style=" stroke:none;fill-rule:evenodd;fill:rgb(16.470588%,16.078431%,16.470588%);fill-opacity:1;" d="M 5868.3125 5894.230469 L 6021.011719 5838.652344 L 6077.042969 5718.488281 L 5956.882812 5662.457031 L 5804.183594 5718.035156 L 5748.152344 5838.195312 L 5868.3125 5894.230469 "/>
</g>
</svg>
