<?xml version="1.0" encoding="UTF-8"?>
<svg xmlns="http://www.w3.org/2000/svg" xmlns:xlink="http://www.w3.org/1999/xlink" width="841.436000mm" height="739.422900mm" viewBox="0 0 8414.36 7394.229" version="1.1">
<g id="surface416">
<path style="fill-rule:evenodd;fill:rgb(94.509804%,94.117647%,91.764706%);fill-opacity:1;stroke-width:0.3;stroke-linecap:butt;stroke-linejoin:miter;stroke:rgb(16.470588%,16.078431%,16.470588%);stroke-opacity:1;stroke-miterlimit:3;" d="M -380.718 -0.000146875 C -391.326594 -0.000146875 -401.500813 4.214306 -409.002375 11.715869 C -416.503547 19.217041 -420.718 29.391259 -420.718 39.999853 C -420.718 47.021337 -418.869563 53.919384 -415.359016 59.999853 L -34.641047 719.4229 C -31.130109 725.503759 -26.080891 730.553369 -20.000031 734.063916 C -13.919172 737.574462 -7.021516 739.4229 -0.00003125 739.4229 C 7.021453 739.4229 13.919109 737.574462 19.999969 734.063916 C 26.080828 730.553369 31.130437 725.503759 34.640984 719.4229 L 415.358953 59.999853 C 418.869891 53.919384 420.717937 47.021337 420.717937 39.999853 C 420.717937 29.391259 416.503875 19.217041 409.002313 11.715869 C 401.50075 4.214306 391.326531 -0.000146875 380.717937 -0.000146875 L -380.718 -0.000146875 " transform="matrix(10,0,0,-10,4207.18,7394.229)"/>
<path style=" stroke:none;fill-rule:evenodd;fill:rgb(73.333333%,11.764706%,6.27451%);fill-opacity:1;" d="M 400 7244.230469 C 261.929688 7244.230469 150 7132.300781 150 6994.230469 C 150 6950.34375 161.550781 6907.234375 183.492188 6869.230469 L 3990.671875 275 C 4035.332031 197.648438 4117.863281 150 4207.179688 150 C 4296.496094 150 4379.027344 197.648438 4423.6875 275 L 8230.867188 6869.230469 C 8252.808594 6907.234375 8264.359375 6950.34375 8264.359375 6994.230469 C 8264.359375 7132.300781 8152.429688 7244.230469 8014.359375 7244.230469 L 400 7244.230469 M 1266.027344 6494.230469 L 4207.179688 1400 L 7148.335938 6494.230469 L 1266.027344 6494.230469 "/>
<path style=" stroke:none;fill-rule:evenodd;fill:rgb(16.470588%,16.078431%,16.470588%);fill-opacity:1;" d="M 5159.296875 3703.992188 L 5159.296875 3678.574219 L 5288.722656 3678.574219 L 5288.722656 6344.230469 L 5159.296875 6344.230469 L 5159.296875 3810.929688 L 4948.308594 4594.949219 L 2770.121094 5489.789062 C 2719.933594 5510.40625 2609.675781 5404.378906 2520.265625 5249.519531 C 2430.859375 5094.660156 2394.164062 4946.160156 2437.117188 4913.003906 L 4301.164062 3474.058594 L 5159.296875 3703.992188 M 2464.765625 4952.769531 C 2433.8125 4970.640625 2472.460938 5095.53125 2551.089844 5231.722656 C 2629.722656 5367.914062 2718.554688 5463.832031 2749.507812 5445.960938 C 2780.460938 5428.089844 2741.8125 5303.199219 2663.179688 5167.007812 C 2584.550781 5030.816406 2495.714844 4934.898438 2464.765625 4952.769531 M 2999.445312 4972.863281 C 3064.941406 5086.300781 3106.933594 5202.527344 3110.433594 5280.035156 L 3510.546875 5115.65625 C 3513.214844 5070.707031 3503.609375 5012.769531 3482.722656 4947.839844 C 3461.839844 4882.910156 3430.433594 4813.351562 3391.757812 4746.363281 C 3353.082031 4679.378906 3308.546875 4617.398438 3262.757812 4566.847656 C 3216.96875 4516.292969 3171.597656 4479.003906 3131.335938 4458.839844 L 2788.921875 4723.160156 C 2854.296875 4764.945312 2933.953125 4859.425781 2999.445312 4972.863281 M 3840.113281 4487.503906 C 3886.269531 4567.445312 3922.476562 4651.027344 3944.691406 4728.917969 C 3966.910156 4806.808594 3974.261719 4875.933594 3965.921875 4928.574219 L 4391.433594 4753.765625 C 4405.558594 4694.011719 4400.734375 4614.335938 4377.523438 4524.148438 C 4354.3125 4433.964844 4313.6875 4337.039062 4260.449219 4244.824219 C 4207.207031 4152.613281 4143.582031 4068.96875 4077.082031 4003.773438 C 4010.585938 3938.578125 3943.996094 3894.5625 3885.183594 3876.917969 L 3521.039062 4158.015625 C 3570.796875 4177.117188 3626.988281 4218.046875 3683.335938 4276.230469 C 3739.679688 4334.414062 3793.960938 4407.5625 3840.113281 4487.503906 M 5105.921875 3756.691406 L 4315.359375 3544.859375 C 4385.078125 3560.652344 4464.167969 3608.183594 4542.824219 3681.558594 C 4621.484375 3754.933594 4696.253906 3850.925781 4757.863281 3957.640625 C 4819.476562 4064.359375 4865.226562 4177.105469 4889.441406 4281.914062 C 4913.65625 4386.722656 4915.273438 4478.980469 4894.09375 4547.253906 L 5105.921875 3756.691406 "/>
</g>
</svg>
