<?xml version="1.0" encoding="UTF-8"?>
<svg xmlns="http://www.w3.org/2000/svg" xmlns:xlink="http://www.w3.org/1999/xlink" width="841.436000mm" height="739.422900mm" viewBox="0 0 8414.36 7394.229" version="1.1">
<g id="surface421">
<path style="fill-rule:evenodd;fill:rgb(94.509804%,94.117647%,91.764706%);fill-opacity:1;stroke-width:0.3;stroke-linecap:butt;stroke-linejoin:miter;stroke:rgb(16.470588%,16.078431%,16.470588%);stroke-opacity:1;stroke-miterlimit:3;" d="M -380.718 -0.000146875 C -391.326594 -0.000146875 -401.500813 4.214306 -409.002375 11.715869 C -416.503547 19.217041 -420.718 29.391259 -420.718 39.999853 C -420.718 47.021337 -418.869563 53.919384 -415.359016 59.999853 L -34.641047 719.4229 C -31.130109 725.503759 -26.080891 730.553369 -20.000031 734.063916 C -13.919172 737.574462 -7.021516 739.4229 -0.00003125 739.4229 C 7.021453 739.4229 13.919109 737.574462 19.999969 734.063916 C 26.080828 730.553369 31.130437 725.503759 34.640984 719.4229 L 415.358953 59.999853 C 418.869891 53.919384 420.717937 47.021337 420.717937 39.999853 C 420.717937 29.391259 416.503875 19.217041 409.002313 11.715869 C 401.50075 4.214306 391.326531 -0.000146875 380.717937 -0.000146875 L -380.718 -0.000146875 " transform="matrix(10,0,0,-10,4207.18,7394.229)"/>
<path style=" stroke:none;fill-rule:evenodd;fill:rgb(73.333333%,11.764706%,6.27451%);fill-opacity:1;" d="M 400 7244.230469 C 261.929688 7244.230469 150 7132.300781 150 6994.230469 C 150 6950.34375 161.550781 6907.234375 183.492188 6869.230469 L 3990.671875 275 C 4035.332031 197.648438 4117.863281 150 4207.179688 150 C 4296.496094 150 4379.027344 197.648438 4423.6875 275 L 8230.867188 6869.230469 C 8252.808594 6907.234375 8264.359375 6950.34375 8264.359375 6994.230469 C 8264.359375 7132.300781 8152.429688 7244.230469 8014.359375 7244.230469 L 400 7244.230469 M 1266.027344 6494.230469 L 4207.179688 1400 L 7148.335938 6494.230469 L 1266.027344 6494.230469 "/>
<path style=" stroke:none;fill-rule:evenodd;fill:rgb(16.470588%,16.078431%,16.470588%);fill-opacity:1;" d="M 4357.179688 5536.015625 C 4357.179688 5506.109375 4366.878906 5477.011719 4384.824219 5453.085938 L 4412.464844 5416.230469 C 4431.8125 5390.429688 4448.085938 5362.464844 4460.953125 5332.898438 L 4643.175781 4914.164062 C 4661.46875 4872.128906 4702.945312 4844.941406 4748.785156 4844.941406 L 5900.574219 4844.941406 C 5946.414062 4844.941406 5987.894531 4872.128906 6006.183594 4914.164062 L 6188.40625 5332.898438 C 6201.273438 5362.464844 6217.546875 5390.429688 6236.894531 5416.230469 L 6264.539062 5453.085938 C 6282.480469 5477.011719 6292.179688 5506.109375 6292.179688 5536.015625 L 6292.179688 5835.480469 C 6292.179688 5899.089844 6240.613281 5950.65625 6177 5950.65625 L 4472.359375 5950.65625 C 4408.746094 5950.65625 4357.179688 5899.089844 4357.179688 5835.480469 L 4357.179688 5536.015625 M 4576.019531 5351.730469 L 4734.386719 4987.808594 C 4741.703125 4970.996094 4758.296875 4960.121094 4776.632812 4960.121094 L 5872.726562 4960.121094 C 5891.066406 4960.121094 5907.65625 4970.996094 5914.972656 4987.808594 L 6073.339844 5351.730469 L 4576.019531 5351.730469 M 4472.359375 5996.730469 L 4748.785156 5996.730469 L 4748.785156 6250.121094 C 4748.785156 6288.289062 4717.847656 6319.230469 4679.679688 6319.230469 L 4541.464844 6319.230469 C 4503.300781 6319.230469 4472.359375 6288.289062 4472.359375 6250.121094 L 4472.359375 5996.730469 M 5900.574219 5996.730469 L 6177 5996.730469 L 6177 6250.121094 C 6177 6288.289062 6146.0625 6319.230469 6107.894531 6319.230469 L 5969.679688 6319.230469 C 5931.511719 6319.230469 5900.574219 6288.289062 5900.574219 6250.121094 L 5900.574219 5996.730469 "/>
<path style=" stroke:none;fill-rule:evenodd;fill:rgb(16.470588%,16.078431%,16.470588%);fill-opacity:1;" d="M 3547.179688 4901.582031 C 3547.179688 4876.089844 3555.449219 4851.28125 3570.742188 4830.890625 L 3594.308594 4799.46875 C 3610.800781 4777.480469 3624.671875 4753.640625 3635.640625 4728.433594 L 3790.976562 4371.484375 C 3806.570312 4335.652344 3841.925781 4312.480469 3881.003906 4312.480469 L 4862.839844 4312.480469 C 4901.917969 4312.480469 4937.277344 4335.652344 4952.867188 4371.484375 L 5108.203125 4728.433594 C 5119.171875 4753.640625 5133.042969 4777.480469 5149.535156 4799.46875 L 5161.140625 4814.941406 L 4748.785156 4814.941406 C 4691.003906 4814.941406 4638.722656 4849.207031 4615.667969 4902.191406 L 4462.117188 5255.042969 L 3645.363281 5255.042969 C 3591.136719 5255.042969 3547.179688 5211.082031 3547.179688 5156.859375 L 3547.179688 4901.582031 M 3733.730469 4744.488281 L 3868.730469 4434.265625 C 3874.964844 4419.933594 3889.109375 4410.664062 3904.738281 4410.664062 L 4839.105469 4410.664062 C 4854.734375 4410.664062 4868.878906 4419.933594 4875.113281 4434.265625 L 5010.113281 4744.488281 L 3733.730469 4744.488281 M 3645.363281 5294.316406 L 3881.003906 5294.316406 L 3881.003906 5510.320312 C 3881.003906 5542.855469 3854.628906 5569.230469 3822.09375 5569.230469 L 3704.273438 5569.230469 C 3671.738281 5569.230469 3645.363281 5542.855469 3645.363281 5510.320312 L 3645.363281 5294.316406 "/>
<path style=" stroke:none;fill-rule:evenodd;fill:rgb(16.470588%,16.078431%,16.470588%);fill-opacity:1;" d="M 2827.179688 4337.640625 C 2827.179688 4316.070312 2834.175781 4295.082031 2847.117188 4277.824219 L 2867.054688 4251.238281 C 2881.011719 4232.632812 2892.75 4212.460938 2902.03125 4191.132812 L 3033.464844 3889.105469 C 3046.660156 3858.785156 3076.578125 3839.179688 3109.640625 3839.179688 L 3940.410156 3839.179688 C 3973.476562 3839.179688 4003.394531 3858.785156 4016.585938 3889.105469 L 4148.023438 4191.132812 C 4157.300781 4212.460938 4169.039062 4232.632812 4182.996094 4251.238281 L 4202.933594 4277.824219 C 4204.074219 4279.34375 4205.167969 4280.898438 4206.222656 4282.480469 L 3881.003906 4282.480469 C 3829.984375 4282.480469 3783.824219 4312.734375 3763.46875 4359.515625 L 3642.835938 4636.71875 L 2910.257812 4636.71875 C 2864.375 4636.71875 2827.179688 4599.523438 2827.179688 4553.640625 L 2827.179688 4337.640625 M 2985.027344 4204.71875 L 3099.253906 3942.226562 C 3104.53125 3930.097656 3116.5 3922.253906 3129.726562 3922.253906 L 3920.328125 3922.253906 C 3933.554688 3922.253906 3945.519531 3930.097656 3950.796875 3942.226562 L 4065.027344 4204.71875 L 2985.027344 4204.71875 M 2910.257812 4669.949219 L 3109.640625 4669.949219 L 3109.640625 4852.71875 C 3109.640625 4880.246094 3087.324219 4902.5625 3059.796875 4902.5625 L 2960.101562 4902.5625 C 2932.574219 4902.5625 2910.257812 4880.246094 2910.257812 4852.71875 L 2910.257812 4669.949219 "/>
</g>
</svg>
