<?xml version="1.0" encoding="UTF-8"?>
<svg xmlns="http://www.w3.org/2000/svg" xmlns:xlink="http://www.w3.org/1999/xlink" width="841.436000mm" height="739.422900mm" viewBox="0 0 8414.36 7394.229" version="1.1">
<g id="surface426">
<path style="fill-rule:evenodd;fill:rgb(94.509804%,94.117647%,91.764706%);fill-opacity:1;stroke-width:0.3;stroke-linecap:butt;stroke-linejoin:miter;stroke:rgb(16.470588%,16.078431%,16.470588%);stroke-opacity:1;stroke-miterlimit:3;" d="M -380.718 -0.000146875 C -391.326594 -0.000146875 -401.500813 4.214306 -409.002375 11.715869 C -416.503547 19.217041 -420.718 29.391259 -420.718 39.999853 C -420.718 47.021337 -418.869563 53.919384 -415.359016 59.999853 L -34.641047 719.4229 C -31.130109 725.503759 -26.080891 730.553369 -20.000031 734.063916 C -13.919172 737.574462 -7.021516 739.4229 -0.00003125 739.4229 C 7.021453 739.4229 13.919109 737.574462 19.999969 734.063916 C 26.080828 730.553369 31.130437 725.503759 34.640984 719.4229 L 415.358953 59.999853 C 418.869891 53.919384 420.717937 47.021337 420.717937 39.999853 C 420.717937 29.391259 416.503875 19.217041 409.002313 11.715869 C 401.50075 4.214306 391.326531 -0.000146875 380.717937 -0.000146875 L -380.718 -0.000146875 " transform="matrix(10,0,0,-10,4207.18,7394.229)"/>
<path style=" stroke:none;fill-rule:evenodd;fill:rgb(73.333333%,11.764706%,6.27451%);fill-opacity:1;" d="M 400 7244.230469 C 261.929688 7244.230469 150 7132.300781 150 6994.230469 C 150 6950.34375 161.550781 6907.234375 183.492188 6869.230469 L 3990.671875 275 C 4035.332031 197.648438 4117.863281 150 4207.179688 150 C 4296.496094 150 4379.027344 197.648438 4423.6875 275 L 8230.867188 6869.230469 C 8252.808594 6907.234375 8264.359375 6950.34375 8264.359375 6994.230469 C 8264.359375 7132.300781 8152.429688 7244.230469 8014.359375 7244.230469 L 400 7244.230469 M 1266.027344 6494.230469 L 4207.179688 1400 L 7148.335938 6494.230469 L 1266.027344 6494.230469 "/>
<path style=" stroke:none;fill-rule:evenodd;fill:rgb(16.470588%,16.078431%,16.470588%);fill-opacity:1;" d="M 4049.503906 6244.03125 L 4013.96875 5284.644531 C 4013.488281 5271.585938 4009.484375 5258.898438 4002.386719 5247.921875 L 3715.636719 4804.597656 L 3266.753906 4566.953125 L 2586.472656 5851.925781 C 2564.324219 5893.765625 2552.742188 5940.382812 2552.742188 5987.722656 C 2552.742188 6095.230469 2612.167969 6193.929688 2707.179688 6244.226562 L 3424.617188 4889.070312 L 3726.152344 5355.253906 L 3748.726562 5964.738281 C 3754.503906 6120.742188 3882.648438 6244.230469 4038.761719 6244.230469 C 4042.34375 6244.230469 4045.925781 6244.164062 4049.503906 6244.03125 M 3300.699219 4502.828125 L 3704.039062 3740.964844 L 3416.691406 3740.964844 L 3243.476562 4068.148438 L 3414.839844 4209.691406 L 3357.578125 4317.855469 L 3186.214844 4176.3125 L 3109.386719 4321.429688 C 3026.25 4277.417969 2974.253906 4191.054688 2974.253906 4096.988281 C 2974.253906 4055.566406 2984.386719 4014.773438 3003.765625 3978.167969 L 3212.691406 3583.53125 C 3244.128906 3524.152344 3305.816406 3487.011719 3373.007812 3487.011719 L 4013.230469 3487.007812 C 4173.523438 3487.007812 4303.464844 3616.953125 4303.464844 3777.242188 C 4303.464844 3783.476562 4303.265625 3789.707031 4302.863281 3795.929688 L 4232.019531 4884.65625 L 4912.855469 5450.753906 C 4886.488281 5481.945312 4852.988281 5506.316406 4815.195312 5521.804688 L 4222.496094 5032.25 L 4214.558594 5155.324219 C 4080.925781 5146.703125 3976.953125 5035.804688 3976.953125 4901.898438 C 3976.953125 4896.445312 3977.128906 4890.992188 3977.480469 4885.546875 L 3980.890625 4832.691406 L 3814.550781 4695.300781 L 3871.8125 4587.136719 L 3990.410156 4685.09375 L 4019.765625 4230.132812 L 3749.585938 4740.472656 L 3300.699219 4502.828125 M 4793.234375 3341.894531 C 4793.234375 3191.621094 4671.414062 3069.800781 4521.140625 3069.800781 C 4370.867188 3069.800781 4249.046875 3191.621094 4249.046875 3341.894531 C 4249.046875 3492.167969 4370.867188 3613.988281 4521.140625 3613.988281 C 4671.414062 3613.988281 4793.234375 3492.167969 4793.234375 3341.894531 M 4248.050781 6124.828125 L 4664.269531 5632.441406 C 4681.777344 5611.726562 4704.738281 5596.335938 4730.550781 5588.011719 L 4807.996094 5563.035156 C 4859.621094 5546.382812 4905.546875 5515.601562 4940.5625 5474.175781 L 5223.613281 5139.324219 C 5292.542969 5057.777344 5393.898438 5010.734375 5500.679688 5010.734375 C 5613.363281 5010.734375 5719.648438 5063.097656 5788.320312 5152.4375 L 6537.746094 6127.453125 C 6547.492188 6140.132812 6552.773438 6155.675781 6552.773438 6171.671875 C 6552.773438 6211.742188 6520.289062 6244.226562 6480.21875 6244.226562 L 4303.464844 6244.226562 C 4263.390625 6244.226562 4230.90625 6211.742188 4230.90625 6171.671875 C 4230.90625 6154.519531 4236.980469 6137.925781 4248.050781 6124.828125 "/>
</g>
</svg>
