<?xml version="1.0" encoding="UTF-8"?>
<svg xmlns="http://www.w3.org/2000/svg" xmlns:xlink="http://www.w3.org/1999/xlink" width="841.436000mm" height="739.422900mm" viewBox="0 0 8414.36 7394.229" version="1.1">
<g id="surface436">
<path style="fill-rule:evenodd;fill:rgb(94.509804%,94.117647%,91.764706%);fill-opacity:1;stroke-width:0.3;stroke-linecap:butt;stroke-linejoin:miter;stroke:rgb(16.470588%,16.078431%,16.470588%);stroke-opacity:1;stroke-miterlimit:3;" d="M -380.718 -0.000146875 C -391.326594 -0.000146875 -401.500813 4.214306 -409.002375 11.715869 C -416.503547 19.217041 -420.718 29.391259 -420.718 39.999853 C -420.718 47.021337 -418.869563 53.919384 -415.359016 59.999853 L -34.641047 719.4229 C -31.130109 725.503759 -26.080891 730.553369 -20.000031 734.063916 C -13.919172 737.574462 -7.021516 739.4229 -0.00003125 739.4229 C 7.021453 739.4229 13.919109 737.574462 19.999969 734.063916 C 26.080828 730.553369 31.130437 725.503759 34.640984 719.4229 L 415.358953 59.999853 C 418.869891 53.919384 420.717937 47.021337 420.717937 39.999853 C 420.717937 29.391259 416.503875 19.217041 409.002313 11.715869 C 401.50075 4.214306 391.326531 -0.000146875 380.717937 -0.000146875 L -380.718 -0.000146875 " transform="matrix(10,0,0,-10,4207.18,7394.229)"/>
<path style=" stroke:none;fill-rule:evenodd;fill:rgb(73.333333%,11.764706%,6.27451%);fill-opacity:1;" d="M 400 7244.230469 C 261.929688 7244.230469 150 7132.300781 150 6994.230469 C 150 6950.34375 161.550781 6907.234375 183.492188 6869.230469 L 3990.671875 275 C 4035.332031 197.648438 4117.863281 150 4207.179688 150 C 4296.496094 150 4379.027344 197.648438 4423.6875 275 L 8230.867188 6869.230469 C 8252.808594 6907.234375 8264.359375 6950.34375 8264.359375 6994.230469 C 8264.359375 7132.300781 8152.429688 7244.230469 8014.359375 7244.230469 L 400 7244.230469 M 1266.027344 6494.230469 L 4207.179688 1400 L 7148.335938 6494.230469 L 1266.027344 6494.230469 "/>
<path style=" stroke:none;fill-rule:evenodd;fill:rgb(16.470588%,16.078431%,16.470588%);fill-opacity:1;" d="M 4757.179688 5644.230469 C 4757.179688 5498.359375 4699.234375 5358.464844 4596.089844 5255.320312 C 4492.945312 5152.175781 4353.050781 5094.230469 4207.179688 5094.230469 C 4061.3125 5094.230469 3921.417969 5152.175781 3818.269531 5255.320312 C 3715.125 5358.464844 3657.179688 5498.359375 3657.179688 5644.230469 C 3657.179688 5790.097656 3715.125 5929.992188 3818.269531 6033.136719 C 3921.417969 6136.28125 4061.3125 6194.230469 4207.179688 6194.230469 C 4353.050781 6194.230469 4492.945312 6136.28125 4596.089844 6033.136719 C 4699.234375 5929.992188 4757.179688 5790.097656 4757.179688 5644.230469 "/>
<path style=" stroke:none;fill-rule:evenodd;fill:rgb(0%,54.901961%,15.294118%);fill-opacity:1;" d="M 4707.179688 5644.230469 C 4707.179688 5511.621094 4654.5 5384.445312 4560.734375 5290.675781 C 4466.964844 5196.90625 4339.789062 5144.230469 4207.179688 5144.230469 C 4074.570312 5144.230469 3947.394531 5196.90625 3853.625 5290.675781 C 3759.859375 5384.445312 3707.179688 5511.621094 3707.179688 5644.230469 C 3707.179688 5776.835938 3759.859375 5904.015625 3853.625 5997.78125 C 3947.394531 6091.550781 4074.570312 6144.230469 4207.179688 6144.230469 C 4339.789062 6144.230469 4466.964844 6091.550781 4560.734375 5997.78125 C 4654.5 5904.015625 4707.179688 5776.835938 4707.179688 5644.230469 "/>
<path style=" stroke:none;fill-rule:evenodd;fill:rgb(16.470588%,16.078431%,16.470588%);fill-opacity:1;" d="M 4757.179688 4394.230469 C 4757.179688 4248.359375 4699.234375 4108.464844 4596.089844 4005.320312 C 4492.945312 3902.175781 4353.050781 3844.230469 4207.179688 3844.230469 C 4061.3125 3844.230469 3921.417969 3902.175781 3818.269531 4005.320312 C 3715.125 4108.464844 3657.179688 4248.359375 3657.179688 4394.230469 C 3657.179688 4540.097656 3715.125 4679.992188 3818.269531 4783.136719 C 3921.417969 4886.28125 4061.3125 4944.230469 4207.179688 4944.230469 C 4353.050781 4944.230469 4492.945312 4886.28125 4596.089844 4783.136719 C 4699.234375 4679.992188 4757.179688 4540.097656 4757.179688 4394.230469 "/>
<path style=" stroke:none;fill-rule:evenodd;fill:rgb(96.862745%,70.980392%,0%);fill-opacity:1;" d="M 4707.179688 4394.230469 C 4707.179688 4261.621094 4654.5 4134.445312 4560.734375 4040.675781 C 4466.964844 3946.90625 4339.789062 3894.230469 4207.179688 3894.230469 C 4074.570312 3894.230469 3947.394531 3946.90625 3853.625 4040.675781 C 3759.859375 4134.445312 3707.179688 4261.621094 3707.179688 4394.230469 C 3707.179688 4526.835938 3759.859375 4654.015625 3853.625 4747.78125 C 3947.394531 4841.550781 4074.570312 4894.230469 4207.179688 4894.230469 C 4339.789062 4894.230469 4466.964844 4841.550781 4560.734375 4747.78125 C 4654.5 4654.015625 4707.179688 4526.835938 4707.179688 4394.230469 "/>
<path style=" stroke:none;fill-rule:evenodd;fill:rgb(16.470588%,16.078431%,16.470588%);fill-opacity:1;" d="M 4757.179688 3144.230469 C 4757.179688 2998.359375 4699.234375 2858.464844 4596.089844 2755.320312 C 4492.945312 2652.175781 4353.050781 2594.230469 4207.179688 2594.230469 C 4061.3125 2594.230469 3921.417969 2652.175781 3818.269531 2755.320312 C 3715.125 2858.464844 3657.179688 2998.359375 3657.179688 3144.230469 C 3657.179688 3290.097656 3715.125 3429.992188 3818.269531 3533.136719 C 3921.417969 3636.28125 4061.3125 3694.230469 4207.179688 3694.230469 C 4353.050781 3694.230469 4492.945312 3636.28125 4596.089844 3533.136719 C 4699.234375 3429.992188 4757.179688 3290.097656 4757.179688 3144.230469 "/>
<path style=" stroke:none;fill-rule:evenodd;fill:rgb(73.333333%,11.764706%,6.27451%);fill-opacity:1;" d="M 4707.179688 3144.230469 C 4707.179688 3011.621094 4654.5 2884.445312 4560.734375 2790.675781 C 4466.964844 2696.90625 4339.789062 2644.230469 4207.179688 2644.230469 C 4074.570312 2644.230469 3947.394531 2696.90625 3853.625 2790.675781 C 3759.859375 2884.445312 3707.179688 3011.621094 3707.179688 3144.230469 C 3707.179688 3276.835938 3759.859375 3404.015625 3853.625 3497.78125 C 3947.394531 3591.550781 4074.570312 3644.230469 4207.179688 3644.230469 C 4339.789062 3644.230469 4466.964844 3591.550781 4560.734375 3497.78125 C 4654.5 3404.015625 4707.179688 3276.835938 4707.179688 3144.230469 "/>
</g>
</svg>
