<?xml version="1.0" encoding="UTF-8"?>
<svg xmlns="http://www.w3.org/2000/svg" xmlns:xlink="http://www.w3.org/1999/xlink" width="841.436000mm" height="739.422900mm" viewBox="0 0 8414.36 7394.229" version="1.1">
<g id="surface451">
<path style="fill-rule:evenodd;fill:rgb(94.509804%,94.117647%,91.764706%);fill-opacity:1;stroke-width:0.3;stroke-linecap:butt;stroke-linejoin:miter;stroke:rgb(16.470588%,16.078431%,16.470588%);stroke-opacity:1;stroke-miterlimit:3;" d="M -380.718 -0.000146875 C -391.326594 -0.000146875 -401.500813 4.214306 -409.002375 11.715869 C -416.503547 19.217041 -420.718 29.391259 -420.718 39.999853 C -420.718 47.021337 -418.869563 53.919384 -415.359016 59.999853 L -34.641047 719.4229 C -31.130109 725.503759 -26.080891 730.553369 -20.000031 734.063916 C -13.919172 737.574462 -7.021516 739.4229 -0.00003125 739.4229 C 7.021453 739.4229 13.919109 737.574462 19.999969 734.063916 C 26.080828 730.553369 31.130437 725.503759 34.640984 719.4229 L 415.358953 59.999853 C 418.869891 53.919384 420.717937 47.021337 420.717937 39.999853 C 420.717937 29.391259 416.503875 19.217041 409.002313 11.715869 C 401.50075 4.214306 391.326531 -0.000146875 380.717937 -0.000146875 L -380.718 -0.000146875 " transform="matrix(10,0,0,-10,4207.18,7394.229)"/>
<path style=" stroke:none;fill-rule:evenodd;fill:rgb(73.333333%,11.764706%,6.27451%);fill-opacity:1;" d="M 400 7244.230469 C 261.929688 7244.230469 150 7132.300781 150 6994.230469 C 150 6950.34375 161.550781 6907.234375 183.492188 6869.230469 L 3990.671875 275 C 4035.332031 197.648438 4117.863281 150 4207.179688 150 C 4296.496094 150 4379.027344 197.648438 4423.6875 275 L 8230.867188 6869.230469 C 8252.808594 6907.234375 8264.359375 6950.34375 8264.359375 6994.230469 C 8264.359375 7132.300781 8152.429688 7244.230469 8014.359375 7244.230469 L 400 7244.230469 M 1266.027344 6494.230469 L 4207.179688 1400 L 7148.335938 6494.230469 L 1266.027344 6494.230469 "/>
<path style=" stroke:none;fill-rule:evenodd;fill:rgb(16.470588%,16.078431%,16.470588%);fill-opacity:1;" d="M 4157.179688 4782.921875 L 4865.457031 6087.375 C 4917.941406 6184.039062 5019.113281 6244.230469 5129.101562 6244.230469 C 5179.101562 6244.230469 5228.308594 6231.730469 5272.25 6207.875 L 4475.359375 4740.207031 C 4463.429688 4718.234375 4457.179688 4693.632812 4457.179688 4668.632812 L 4457.179688 4631.730469 L 3857.179688 4631.730469 L 3857.179688 4668.632812 C 3857.179688 4693.632812 3850.929688 4718.234375 3839.003906 4740.207031 L 3243.253906 5837.4375 C 3219.398438 5881.378906 3206.898438 5930.585938 3206.898438 5980.585938 C 3206.898438 6090.574219 3267.089844 6191.746094 3363.753906 6244.230469 L 4157.179688 4782.921875 M 3857.179688 3686.601562 L 3857.179688 4556.730469 L 4457.179688 4556.730469 L 4457.179688 3837.132812 L 4846.867188 4437.195312 C 4895.277344 4511.746094 4978.128906 4556.730469 5067.015625 4556.730469 C 5117.765625 4556.730469 5167.425781 4542.019531 5209.984375 4514.378906 L 4471.679688 3377.488281 C 4402.519531 3270.992188 4284.164062 3206.730469 4157.179688 3206.730469 C 4069.015625 3206.730469 3983.671875 3237.792969 3916.132812 3294.460938 L 3412.554688 3717.015625 C 3361.605469 3759.765625 3332.179688 3822.867188 3332.179688 3889.375 L 3332.179688 4256.730469 C 3332.179688 4401.703125 3449.707031 4519.230469 3594.679688 4519.230469 L 3594.679688 3906.867188 L 3857.179688 3686.601562 M 4607.179688 2794.230469 C 4607.179688 2628.542969 4472.867188 2494.230469 4307.179688 2494.230469 C 4141.496094 2494.230469 4007.179688 2628.542969 4007.179688 2794.230469 C 4007.179688 2959.914062 4141.496094 3094.230469 4307.179688 3094.230469 C 4472.867188 3094.230469 4607.179688 2959.914062 4607.179688 2794.230469 "/>
</g>
</svg>
