<?xml version="1.0" encoding="UTF-8"?>
<svg xmlns="http://www.w3.org/2000/svg" xmlns:xlink="http://www.w3.org/1999/xlink" width="841.436000mm" height="739.422900mm" viewBox="0 0 8414.36 7394.229" version="1.1">
<g id="surface446">
<path style="fill-rule:evenodd;fill:rgb(94.509804%,94.117647%,91.764706%);fill-opacity:1;stroke-width:0.3;stroke-linecap:butt;stroke-linejoin:miter;stroke:rgb(16.470588%,16.078431%,16.470588%);stroke-opacity:1;stroke-miterlimit:3;" d="M -380.718 -0.000146875 C -391.326594 -0.000146875 -401.500813 4.214306 -409.002375 11.715869 C -416.503547 19.217041 -420.718 29.391259 -420.718 39.999853 C -420.718 47.021337 -418.869563 53.919384 -415.359016 59.999853 L -34.641047 719.4229 C -31.130109 725.503759 -26.080891 730.553369 -20.000031 734.063916 C -13.919172 737.574462 -7.021516 739.4229 -0.00003125 739.4229 C 7.021453 739.4229 13.919109 737.574462 19.999969 734.063916 C 26.080828 730.553369 31.130437 725.503759 34.640984 719.4229 L 415.358953 59.999853 C 418.869891 53.919384 420.717937 47.021337 420.717937 39.999853 C 420.717937 29.391259 416.503875 19.217041 409.002313 11.715869 C 401.50075 4.214306 391.326531 -0.000146875 380.717937 -0.000146875 L -380.718 -0.000146875 " transform="matrix(10,0,0,-10,4207.18,7394.229)"/>
<path style=" stroke:none;fill-rule:evenodd;fill:rgb(73.333333%,11.764706%,6.27451%);fill-opacity:1;" d="M 400 7244.230469 C 261.929688 7244.230469 150 7132.300781 150 6994.230469 C 150 6950.34375 161.550781 6907.234375 183.492188 6869.230469 L 3990.671875 275 C 4035.332031 197.648438 4117.863281 150 4207.179688 150 C 4296.496094 150 4379.027344 197.648438 4423.6875 275 L 8230.867188 6869.230469 C 8252.808594 6907.234375 8264.359375 6950.34375 8264.359375 6994.230469 C 8264.359375 7132.300781 8152.429688 7244.230469 8014.359375 7244.230469 L 400 7244.230469 M 1266.027344 6494.230469 L 4207.179688 1400 L 7148.335938 6494.230469 L 1266.027344 6494.230469 "/>
<path style=" stroke:none;fill-rule:evenodd;fill:rgb(16.470588%,16.078431%,16.470588%);fill-opacity:1;" d="M 4257.179688 4782.921875 L 3548.902344 6087.375 C 3496.421875 6184.039062 3395.25 6244.230469 3285.257812 6244.230469 C 3235.257812 6244.230469 3186.050781 6231.730469 3142.109375 6207.875 L 3939.003906 4740.207031 C 3950.929688 4718.234375 3957.179688 4693.632812 3957.179688 4668.632812 L 3957.179688 4631.730469 L 4557.179688 4631.730469 L 4557.179688 4668.632812 C 4557.179688 4693.632812 4563.429688 4718.234375 4575.359375 4740.207031 L 5171.105469 5837.4375 C 5194.964844 5881.378906 5207.460938 5930.585938 5207.460938 5980.585938 C 5207.460938 6090.574219 5147.269531 6191.746094 5050.609375 6244.230469 L 4257.179688 4782.921875 M 4557.179688 3686.601562 L 4557.179688 4556.730469 L 3957.179688 4556.730469 L 3957.179688 3837.132812 L 3567.492188 4437.195312 C 3519.082031 4511.746094 3436.230469 4556.730469 3347.34375 4556.730469 C 3296.59375 4556.730469 3246.9375 4542.019531 3204.375 4514.378906 L 3942.679688 3377.488281 C 4011.839844 3270.992188 4130.195312 3206.730469 4257.179688 3206.730469 C 4345.34375 3206.730469 4430.6875 3237.792969 4498.226562 3294.460938 L 5001.808594 3717.015625 C 5052.753906 3759.765625 5082.179688 3822.867188 5082.179688 3889.375 L 5082.179688 4256.730469 C 5082.179688 4401.703125 4964.65625 4519.230469 4819.679688 4519.230469 L 4819.679688 3906.867188 L 4557.179688 3686.601562 M 4407.179688 2794.230469 C 4407.179688 2628.542969 4272.867188 2494.230469 4107.179688 2494.230469 C 3941.496094 2494.230469 3807.179688 2628.542969 3807.179688 2794.230469 C 3807.179688 2959.914062 3941.496094 3094.230469 4107.179688 3094.230469 C 4272.867188 3094.230469 4407.179688 2959.914062 4407.179688 2794.230469 "/>
</g>
</svg>
