<?xml version="1.0" encoding="UTF-8"?>
<svg xmlns="http://www.w3.org/2000/svg" xmlns:xlink="http://www.w3.org/1999/xlink" width="841.436000mm" height="739.422900mm" viewBox="0 0 8414.36 7394.229" version="1.1">
<g id="surface461">
<path style="fill-rule:evenodd;fill:rgb(94.509804%,94.117647%,91.764706%);fill-opacity:1;stroke-width:0.3;stroke-linecap:butt;stroke-linejoin:miter;stroke:rgb(16.470588%,16.078431%,16.470588%);stroke-opacity:1;stroke-miterlimit:3;" d="M -380.718 -0.000146875 C -391.326594 -0.000146875 -401.500813 4.214306 -409.002375 11.715869 C -416.503547 19.217041 -420.718 29.391259 -420.718 39.999853 C -420.718 47.021337 -418.869563 53.919384 -415.359016 59.999853 L -34.641047 719.4229 C -31.130109 725.503759 -26.080891 730.553369 -20.000031 734.063916 C -13.919172 737.574462 -7.021516 739.4229 -0.00003125 739.4229 C 7.021453 739.4229 13.919109 737.574462 19.999969 734.063916 C 26.080828 730.553369 31.130437 725.503759 34.640984 719.4229 L 415.358953 59.999853 C 418.869891 53.919384 420.717937 47.021337 420.717937 39.999853 C 420.717937 29.391259 416.503875 19.217041 409.002313 11.715869 C 401.50075 4.214306 391.326531 -0.000146875 380.717937 -0.000146875 L -380.718 -0.000146875 " transform="matrix(10,0,0,-10,4207.18,7394.229)"/>
<path style=" stroke:none;fill-rule:evenodd;fill:rgb(73.333333%,11.764706%,6.27451%);fill-opacity:1;" d="M 400 7244.230469 C 261.929688 7244.230469 150 7132.300781 150 6994.230469 C 150 6950.34375 161.550781 6907.234375 183.492188 6869.230469 L 3990.671875 275 C 4035.332031 197.648438 4117.863281 150 4207.179688 150 C 4296.496094 150 4379.027344 197.648438 4423.6875 275 L 8230.867188 6869.230469 C 8252.808594 6907.234375 8264.359375 6950.34375 8264.359375 6994.230469 C 8264.359375 7132.300781 8152.429688 7244.230469 8014.359375 7244.230469 L 400 7244.230469 M 1266.027344 6494.230469 L 4207.179688 1400 L 7148.335938 6494.230469 L 1266.027344 6494.230469 "/>
<path style=" stroke:none;fill-rule:evenodd;fill:rgb(16.470588%,16.078431%,16.470588%);fill-opacity:1;" d="M 5520.179688 4942.230469 L 5847.277344 5213.605469 C 5879.941406 5240.703125 5921.046875 5255.535156 5963.488281 5255.535156 C 6011.757812 5255.535156 6058.050781 5236.359375 6092.179688 5202.226562 L 5515.589844 4625.636719 C 5467.664062 4645.828125 5416.183594 4656.230469 5364.179688 4656.230469 C 5287.703125 4656.230469 5212.914062 4633.742188 5149.113281 4591.570312 L 4764.359375 4676.867188 C 4749.0625 4680.257812 4736.109375 4690.367188 4729.101562 4704.378906 L 4532.179688 5098.230469 C 4557.453125 5110.863281 4585.320312 5117.441406 4613.574219 5117.441406 C 4682.507812 5117.441406 4745.53125 5078.496094 4776.359375 5016.835938 L 4870.179688 4838.230469 L 5052.179688 4838.230469 L 4896.179688 5462.230469 L 4544.496094 5488.742188 C 4449.558594 5495.902344 4376.179688 5575.019531 4376.179688 5670.230469 L 4972.351562 5670.230469 C 4989.738281 5670.230469 5005.972656 5661.542969 5015.617188 5647.078125 L 5104.175781 5514.230469 L 5286.179688 5566.230469 L 5286.179688 6112.230469 C 5286.179688 6212.746094 5367.664062 6294.230469 5468.179688 6294.230469 L 5520.179688 4942.230469 M 5104.179688 4266.230469 C 5104.179688 4122.636719 5220.585938 4006.230469 5364.179688 4006.230469 C 5507.773438 4006.230469 5624.179688 4122.636719 5624.179688 4266.230469 C 5624.179688 4409.824219 5507.773438 4526.230469 5364.179688 4526.230469 C 5220.585938 4526.230469 5104.179688 4409.824219 5104.179688 4266.230469 "/>
<path style=" stroke:none;fill-rule:evenodd;fill:rgb(16.470588%,16.078431%,16.470588%);fill-opacity:1;" d="M 4144.375 6160.957031 L 3914.589844 4801.433594 C 3913.136719 4792.84375 3912.40625 4784.144531 3912.40625 4775.433594 C 3912.40625 4769.34375 3912.765625 4763.257812 3913.476562 4757.207031 L 3988.8125 4116.832031 L 4523.128906 4437.472656 C 4559.5 4459.296875 4601.117188 4470.828125 4643.535156 4470.828125 C 4725.726562 4470.828125 4801.890625 4427.707031 4844.179688 4357.234375 L 3986.179688 3842.347656 C 3925.796875 3873.164062 3858.972656 3889.230469 3791.179688 3889.230469 C 3681.699219 3889.230469 3576.359375 3847.371094 3496.738281 3772.230469 L 3041.097656 3918.621094 C 3021.902344 3924.785156 3005.839844 3938.148438 2996.277344 3955.902344 L 2738.175781 4435.230469 C 2772.269531 4453.589844 2810.390625 4463.199219 2849.113281 4463.199219 C 2935.199219 4463.199219 3014.332031 4415.933594 3055.144531 4340.140625 L 3172.511719 4122.179688 L 3448.867188 4033.390625 L 3371.042969 4694.867188 C 3369.425781 4708.628906 3365.976562 4722.117188 3360.796875 4734.96875 L 3167.179688 5215.230469 L 2723.546875 5406.476562 C 2637.753906 5443.460938 2582.179688 5527.9375 2582.179688 5621.363281 C 2582.179688 5653.21875 2588.683594 5684.742188 2601.296875 5713.996094 L 3332.496094 5422.109375 C 3351.515625 5414.5 3366.777344 5399.71875 3374.988281 5380.953125 L 3635.179688 4786.230469 L 3876.023438 5976.632812 C 3898.105469 6085.769531 3994.03125 6164.230469 4105.378906 6164.230469 C 4118.445312 6164.230469 4131.488281 6163.132812 4144.375 6160.957031 M 3505.179688 3460.230469 C 3505.179688 3302.277344 3633.226562 3174.230469 3791.179688 3174.230469 C 3949.132812 3174.230469 4077.179688 3302.277344 4077.179688 3460.230469 C 4077.179688 3618.183594 3949.132812 3746.230469 3791.179688 3746.230469 C 3633.226562 3746.230469 3505.179688 3618.183594 3505.179688 3460.230469 "/>
</g>
</svg>
