<?xml version="1.0" encoding="UTF-8"?>
<svg xmlns="http://www.w3.org/2000/svg" xmlns:xlink="http://www.w3.org/1999/xlink" width="841.436000mm" height="739.422900mm" viewBox="0 0 8414.36 7394.229" version="1.1">
<g id="surface456">
<path style="fill-rule:evenodd;fill:rgb(94.509804%,94.117647%,91.764706%);fill-opacity:1;stroke-width:0.3;stroke-linecap:butt;stroke-linejoin:miter;stroke:rgb(16.470588%,16.078431%,16.470588%);stroke-opacity:1;stroke-miterlimit:3;" d="M -380.718 -0.000146875 C -391.326594 -0.000146875 -401.500813 4.214306 -409.002375 11.715869 C -416.503547 19.217041 -420.718 29.391259 -420.718 39.999853 C -420.718 47.021337 -418.869563 53.919384 -415.359016 59.999853 L -34.641047 719.4229 C -31.130109 725.503759 -26.080891 730.553369 -20.000031 734.063916 C -13.919172 737.574462 -7.021516 739.4229 -0.00003125 739.4229 C 7.021453 739.4229 13.919109 737.574462 19.999969 734.063916 C 26.080828 730.553369 31.130437 725.503759 34.640984 719.4229 L 415.358953 59.999853 C 418.869891 53.919384 420.717937 47.021337 420.717937 39.999853 C 420.717937 29.391259 416.503875 19.217041 409.002313 11.715869 C 401.50075 4.214306 391.326531 -0.000146875 380.717937 -0.000146875 L -380.718 -0.000146875 " transform="matrix(10,0,0,-10,4207.18,7394.229)"/>
<path style=" stroke:none;fill-rule:evenodd;fill:rgb(73.333333%,11.764706%,6.27451%);fill-opacity:1;" d="M 400 7244.230469 C 261.929688 7244.230469 150 7132.300781 150 6994.230469 C 150 6950.34375 161.550781 6907.234375 183.492188 6869.230469 L 3990.671875 275 C 4035.332031 197.648438 4117.863281 150 4207.179688 150 C 4296.496094 150 4379.027344 197.648438 4423.6875 275 L 8230.867188 6869.230469 C 8252.808594 6907.234375 8264.359375 6950.34375 8264.359375 6994.230469 C 8264.359375 7132.300781 8152.429688 7244.230469 8014.359375 7244.230469 L 400 7244.230469 M 1266.027344 6494.230469 L 4207.179688 1400 L 7148.335938 6494.230469 L 1266.027344 6494.230469 "/>
<path style=" stroke:none;fill-rule:evenodd;fill:rgb(16.470588%,16.078431%,16.470588%);fill-opacity:1;" d="M 2894.179688 4942.230469 L 2567.082031 5213.605469 C 2534.417969 5240.703125 2493.3125 5255.535156 2450.871094 5255.535156 C 2402.601562 5255.535156 2356.308594 5236.359375 2322.179688 5202.226562 L 2898.769531 4625.636719 C 2946.695312 4645.828125 2998.175781 4656.230469 3050.179688 4656.230469 C 3126.65625 4656.230469 3201.445312 4633.742188 3265.246094 4591.570312 L 3650 4676.867188 C 3665.296875 4680.257812 3678.25 4690.367188 3685.257812 4704.378906 L 3882.179688 5098.230469 C 3856.90625 5110.863281 3829.042969 5117.441406 3800.785156 5117.441406 C 3731.851562 5117.441406 3668.832031 5078.496094 3638 5016.835938 L 3544.179688 4838.230469 L 3362.179688 4838.230469 L 3518.179688 5462.230469 L 3869.863281 5488.742188 C 3964.800781 5495.902344 4038.179688 5575.019531 4038.179688 5670.230469 L 3442.011719 5670.230469 C 3424.625 5670.230469 3408.386719 5661.542969 3398.742188 5647.078125 L 3310.183594 5514.230469 L 3128.179688 5566.230469 L 3128.179688 6112.230469 C 3128.179688 6212.746094 3046.695312 6294.230469 2946.179688 6294.230469 L 2894.179688 4942.230469 M 3310.179688 4266.230469 C 3310.179688 4122.636719 3193.773438 4006.230469 3050.179688 4006.230469 C 2906.585938 4006.230469 2790.179688 4122.636719 2790.179688 4266.230469 C 2790.179688 4409.824219 2906.585938 4526.230469 3050.179688 4526.230469 C 3193.773438 4526.230469 3310.179688 4409.824219 3310.179688 4266.230469 "/>
<path style=" stroke:none;fill-rule:evenodd;fill:rgb(16.470588%,16.078431%,16.470588%);fill-opacity:1;" d="M 4269.984375 6160.957031 L 4499.769531 4801.433594 C 4501.222656 4792.84375 4501.953125 4784.144531 4501.953125 4775.433594 C 4501.953125 4769.34375 4501.59375 4763.257812 4500.882812 4757.207031 L 4425.546875 4116.832031 L 3891.230469 4437.472656 C 3854.859375 4459.296875 3813.242188 4470.828125 3770.824219 4470.828125 C 3688.636719 4470.828125 3612.472656 4427.707031 3570.179688 4357.234375 L 4428.179688 3842.347656 C 4488.5625 3873.164062 4555.390625 3889.230469 4623.179688 3889.230469 C 4732.660156 3889.230469 4838 3847.371094 4917.625 3772.230469 L 5373.261719 3918.621094 C 5392.460938 3924.785156 5408.523438 3938.148438 5418.082031 3955.902344 L 5676.183594 4435.230469 C 5642.089844 4453.589844 5603.96875 4463.199219 5565.246094 4463.199219 C 5479.160156 4463.199219 5400.027344 4415.933594 5359.214844 4340.140625 L 5241.847656 4122.179688 L 4965.492188 4033.390625 L 5043.316406 4694.867188 C 5044.9375 4708.628906 5048.382812 4722.117188 5053.5625 4734.96875 L 5247.179688 5215.230469 L 5690.8125 5406.476562 C 5776.605469 5443.460938 5832.179688 5527.9375 5832.179688 5621.363281 C 5832.179688 5653.21875 5825.675781 5684.742188 5813.0625 5713.996094 L 5081.863281 5422.109375 C 5062.84375 5414.5 5047.582031 5399.71875 5039.371094 5380.953125 L 4779.179688 4786.230469 L 4538.335938 5976.632812 C 4516.253906 6085.769531 4420.328125 6164.230469 4308.984375 6164.230469 C 4295.914062 6164.230469 4282.871094 6163.132812 4269.984375 6160.957031 M 4909.179688 3460.230469 C 4909.179688 3302.277344 4781.132812 3174.230469 4623.179688 3174.230469 C 4465.226562 3174.230469 4337.179688 3302.277344 4337.179688 3460.230469 C 4337.179688 3618.183594 4465.226562 3746.230469 4623.179688 3746.230469 C 4781.132812 3746.230469 4909.179688 3618.183594 4909.179688 3460.230469 "/>
</g>
</svg>
