<?xml version="1.0" encoding="UTF-8"?>
<svg xmlns="http://www.w3.org/2000/svg" xmlns:xlink="http://www.w3.org/1999/xlink" width="841.436000mm" height="739.422900mm" viewBox="0 0 8414.36 7394.229" version="1.1">
<g id="surface466">
<path style="fill-rule:evenodd;fill:rgb(94.509804%,94.117647%,91.764706%);fill-opacity:1;stroke-width:0.3;stroke-linecap:butt;stroke-linejoin:miter;stroke:rgb(16.470588%,16.078431%,16.470588%);stroke-opacity:1;stroke-miterlimit:3;" d="M -380.718 -0.000146875 C -391.326594 -0.000146875 -401.500813 4.214306 -409.002375 11.715869 C -416.503547 19.217041 -420.718 29.391259 -420.718 39.999853 C -420.718 47.021337 -418.869563 53.919384 -415.359016 59.999853 L -34.641047 719.4229 C -31.130109 725.503759 -26.080891 730.553369 -20.000031 734.063916 C -13.919172 737.574462 -7.021516 739.4229 -0.00003125 739.4229 C 7.021453 739.4229 13.919109 737.574462 19.999969 734.063916 C 26.080828 730.553369 31.130437 725.503759 34.640984 719.4229 L 415.358953 59.999853 C 418.869891 53.919384 420.717937 47.021337 420.717937 39.999853 C 420.717937 29.391259 416.503875 19.217041 409.002313 11.715869 C 401.50075 4.214306 391.326531 -0.000146875 380.717937 -0.000146875 L -380.718 -0.000146875 " transform="matrix(10,0,0,-10,4207.18,7394.229)"/>
<path style=" stroke:none;fill-rule:evenodd;fill:rgb(73.333333%,11.764706%,6.27451%);fill-opacity:1;" d="M 400 7244.230469 C 261.929688 7244.230469 150 7132.300781 150 6994.230469 C 150 6950.34375 161.550781 6907.234375 183.492188 6869.230469 L 3990.671875 275 C 4035.332031 197.648438 4117.863281 150 4207.179688 150 C 4296.496094 150 4379.027344 197.648438 4423.6875 275 L 8230.867188 6869.230469 C 8252.808594 6907.234375 8264.359375 6950.34375 8264.359375 6994.230469 C 8264.359375 7132.300781 8152.429688 7244.230469 8014.359375 7244.230469 L 400 7244.230469 M 1266.027344 6494.230469 L 4207.179688 1400 L 7148.335938 6494.230469 L 1266.027344 6494.230469 "/>
<path style=" stroke:none;fill-rule:evenodd;fill:rgb(16.470588%,16.078431%,16.470588%);fill-opacity:1;" d="M 1912.179688 6244.230469 L 2485.929688 5254.230469 L 2931.429688 5254.230469 L 2506.179688 6244.230469 L 1912.179688 6244.230469 M 2911.179688 6244.230469 L 3235.179688 5254.230469 L 3417.6875 5254.230469 L 3150.988281 5745.429688 L 3214.261719 5779.785156 C 3264.355469 5806.984375 3320.449219 5821.230469 3377.449219 5821.230469 C 3456.320312 5821.230469 3532.769531 5793.96875 3593.84375 5744.0625 L 3505.179688 6244.230469 L 2911.179688 6244.230469 M 3910.179688 6244.230469 L 3984.429688 5254.230469 L 4429.929688 5254.230469 L 4504.179688 6244.230469 L 3910.179688 6244.230469 M 4909.179688 6244.230469 L 4790.933594 5577.203125 L 4937.34375 5846.859375 L 5000.621094 5812.503906 C 5110.816406 5752.675781 5179.433594 5637.339844 5179.433594 5511.949219 C 5179.433594 5454.949219 5165.183594 5398.851562 5137.988281 5348.761719 L 5086.660156 5254.230469 L 5179.179688 5254.230469 L 5503.179688 6244.230469 L 4909.179688 6244.230469 M 5908.179688 6244.230469 L 5482.929688 5254.230469 L 5928.429688 5254.230469 L 6502.179688 6244.230469 L 5908.179688 6244.230469 "/>
<path style=" stroke:none;fill-rule:evenodd;fill:rgb(16.470588%,16.078431%,16.470588%);fill-opacity:1;" d="M 4252.179688 4434.050781 L 3614.730469 5608.0625 C 3567.496094 5695.058594 3476.441406 5749.230469 3377.449219 5749.230469 C 3332.449219 5749.230469 3288.164062 5737.980469 3248.617188 5716.507812 L 3965.820312 4395.609375 C 3976.554688 4375.835938 3982.179688 4353.691406 3982.179688 4331.191406 L 3982.179688 4297.980469 L 4522.179688 4297.980469 L 4522.179688 4331.191406 C 4522.179688 4353.691406 4527.804688 4375.835938 4538.539062 4395.609375 L 5074.710938 5383.117188 C 5096.183594 5422.664062 5107.433594 5466.949219 5107.433594 5511.949219 C 5107.433594 5610.941406 5053.261719 5701.996094 4966.265625 5749.230469 L 4252.179688 4434.050781 M 4522.179688 3447.363281 L 4522.179688 4230.480469 L 3982.179688 4230.480469 L 3982.179688 3582.839844 L 3631.464844 4122.898438 C 3587.890625 4189.992188 3513.328125 4230.480469 3433.328125 4230.480469 C 3387.652344 4230.480469 3342.960938 4217.238281 3304.65625 4192.363281 L 3969.128906 3169.164062 C 4031.371094 3073.316406 4137.894531 3015.480469 4252.179688 3015.480469 C 4331.527344 3015.480469 4408.335938 3043.4375 4469.121094 3094.4375 L 4922.34375 3474.738281 C 4968.199219 3513.210938 4994.679688 3570.003906 4994.679688 3629.859375 L 4994.679688 3960.480469 C 4994.679688 4090.957031 4888.90625 4196.730469 4758.429688 4196.730469 L 4758.429688 3645.601562 L 4522.179688 3447.363281 M 4387.179688 2644.230469 C 4387.179688 2495.113281 4266.296875 2374.230469 4117.179688 2374.230469 C 3968.0625 2374.230469 3847.179688 2495.113281 3847.179688 2644.230469 C 3847.179688 2793.347656 3968.0625 2914.230469 4117.179688 2914.230469 C 4266.296875 2914.230469 4387.179688 2793.347656 4387.179688 2644.230469 "/>
</g>
</svg>
