<?xml version="1.0" encoding="UTF-8"?>
<svg xmlns="http://www.w3.org/2000/svg" xmlns:xlink="http://www.w3.org/1999/xlink" width="841.436000mm" height="739.422900mm" viewBox="0 0 8414.36 7394.229" version="1.1">
<g id="surface471">
<path style="fill-rule:evenodd;fill:rgb(94.509804%,94.117647%,91.764706%);fill-opacity:1;stroke-width:0.3;stroke-linecap:butt;stroke-linejoin:miter;stroke:rgb(16.470588%,16.078431%,16.470588%);stroke-opacity:1;stroke-miterlimit:3;" d="M -380.718 -0.000146875 C -391.326594 -0.000146875 -401.500813 4.214306 -409.002375 11.715869 C -416.503547 19.217041 -420.718 29.391259 -420.718 39.999853 C -420.718 47.021337 -418.869563 53.919384 -415.359016 59.999853 L -34.641047 719.4229 C -31.130109 725.503759 -26.080891 730.553369 -20.000031 734.063916 C -13.919172 737.574462 -7.021516 739.4229 -0.00003125 739.4229 C 7.021453 739.4229 13.919109 737.574462 19.999969 734.063916 C 26.080828 730.553369 31.130437 725.503759 34.640984 719.4229 L 415.358953 59.999853 C 418.869891 53.919384 420.717937 47.021337 420.717937 39.999853 C 420.717937 29.391259 416.503875 19.217041 409.002313 11.715869 C 401.50075 4.214306 391.326531 -0.000146875 380.717937 -0.000146875 L -380.718 -0.000146875 " transform="matrix(10,0,0,-10,4207.18,7394.229)"/>
<path style=" stroke:none;fill-rule:evenodd;fill:rgb(73.333333%,11.764706%,6.27451%);fill-opacity:1;" d="M 400 7244.230469 C 261.929688 7244.230469 150 7132.300781 150 6994.230469 C 150 6950.34375 161.550781 6907.234375 183.492188 6869.230469 L 3990.671875 275 C 4035.332031 197.648438 4117.863281 150 4207.179688 150 C 4296.496094 150 4379.027344 197.648438 4423.6875 275 L 8230.867188 6869.230469 C 8252.808594 6907.234375 8264.359375 6950.34375 8264.359375 6994.230469 C 8264.359375 7132.300781 8152.429688 7244.230469 8014.359375 7244.230469 L 400 7244.230469 M 1266.027344 6494.230469 L 4207.179688 1400 L 7148.335938 6494.230469 L 1266.027344 6494.230469 "/>
<path style=" stroke:none;fill-rule:evenodd;fill:rgb(16.470588%,16.078431%,16.470588%);fill-opacity:1;" d="M 1912.179688 6244.230469 L 2485.929688 5254.230469 L 2931.429688 5254.230469 L 2506.179688 6244.230469 L 1912.179688 6244.230469 M 2911.179688 6244.230469 L 3235.179688 5254.230469 L 3327.699219 5254.230469 L 3276.371094 5348.761719 C 3249.175781 5398.851562 3234.929688 5454.949219 3234.929688 5511.949219 C 3234.929688 5637.339844 3303.546875 5752.675781 3413.738281 5812.503906 L 3477.015625 5846.859375 L 3623.425781 5577.203125 L 3505.179688 6244.230469 L 2911.179688 6244.230469 M 3910.179688 6244.230469 L 3984.429688 5254.230469 L 4429.929688 5254.230469 L 4504.179688 6244.230469 L 3910.179688 6244.230469 M 4909.179688 6244.230469 L 4820.515625 5744.0625 C 4881.589844 5793.96875 4958.039062 5821.230469 5036.910156 5821.230469 C 5093.910156 5821.230469 5150.003906 5806.984375 5200.097656 5779.785156 L 5263.371094 5745.429688 L 4996.671875 5254.230469 L 5179.179688 5254.230469 L 5503.179688 6244.230469 L 4909.179688 6244.230469 M 5908.179688 6244.230469 L 5482.929688 5254.230469 L 5928.429688 5254.230469 L 6502.179688 6244.230469 L 5908.179688 6244.230469 "/>
<path style=" stroke:none;fill-rule:evenodd;fill:rgb(16.470588%,16.078431%,16.470588%);fill-opacity:1;" d="M 4162.179688 4434.050781 L 4799.628906 5608.0625 C 4846.863281 5695.058594 4937.917969 5749.230469 5036.910156 5749.230469 C 5081.910156 5749.230469 5126.195312 5737.980469 5165.742188 5716.507812 L 4448.539062 4395.609375 C 4437.804688 4375.835938 4432.179688 4353.691406 4432.179688 4331.191406 L 4432.179688 4297.980469 L 3892.179688 4297.980469 L 3892.179688 4331.191406 C 3892.179688 4353.691406 3886.554688 4375.835938 3875.820312 4395.609375 L 3339.648438 5383.117188 C 3318.175781 5422.664062 3306.929688 5466.949219 3306.929688 5511.949219 C 3306.929688 5610.941406 3361.101562 5701.996094 3448.09375 5749.230469 L 4162.179688 4434.050781 M 3892.179688 3447.363281 L 3892.179688 4230.480469 L 4432.179688 4230.480469 L 4432.179688 3582.839844 L 4782.898438 4122.898438 C 4826.46875 4189.992188 4901.03125 4230.480469 4981.03125 4230.480469 C 5026.707031 4230.480469 5071.398438 4217.238281 5109.703125 4192.363281 L 4445.230469 3169.164062 C 4382.988281 3073.316406 4276.464844 3015.480469 4162.179688 3015.480469 C 4082.832031 3015.480469 4006.023438 3043.4375 3945.238281 3094.4375 L 3492.015625 3474.738281 C 3446.160156 3513.210938 3419.679688 3570.003906 3419.679688 3629.859375 L 3419.679688 3960.480469 C 3419.679688 4090.957031 3525.453125 4196.730469 3655.929688 4196.730469 L 3655.929688 3645.601562 L 3892.179688 3447.363281 M 4027.179688 2644.230469 C 4027.179688 2495.113281 4148.0625 2374.230469 4297.179688 2374.230469 C 4446.296875 2374.230469 4567.179688 2495.113281 4567.179688 2644.230469 C 4567.179688 2793.347656 4446.296875 2914.230469 4297.179688 2914.230469 C 4148.0625 2914.230469 4027.179688 2793.347656 4027.179688 2644.230469 "/>
</g>
</svg>
