<?xml version="1.0" encoding="UTF-8"?>
<svg xmlns="http://www.w3.org/2000/svg" xmlns:xlink="http://www.w3.org/1999/xlink" width="841.436000mm" height="739.422900mm" viewBox="0 0 8414.36 7394.229" version="1.1">
<g id="surface476">
<path style="fill-rule:evenodd;fill:rgb(94.509804%,94.117647%,91.764706%);fill-opacity:1;stroke-width:0.3;stroke-linecap:butt;stroke-linejoin:miter;stroke:rgb(16.470588%,16.078431%,16.470588%);stroke-opacity:1;stroke-miterlimit:3;" d="M -380.718 -0.000146875 C -391.326594 -0.000146875 -401.500813 4.214306 -409.002375 11.715869 C -416.503547 19.217041 -420.718 29.391259 -420.718 39.999853 C -420.718 47.021337 -418.869563 53.919384 -415.359016 59.999853 L -34.641047 719.4229 C -31.130109 725.503759 -26.080891 730.553369 -20.000031 734.063916 C -13.919172 737.574462 -7.021516 739.4229 -0.00003125 739.4229 C 7.021453 739.4229 13.919109 737.574462 19.999969 734.063916 C 26.080828 730.553369 31.130437 725.503759 34.640984 719.4229 L 415.358953 59.999853 C 418.869891 53.919384 420.717937 47.021337 420.717937 39.999853 C 420.717937 29.391259 416.503875 19.217041 409.002313 11.715869 C 401.50075 4.214306 391.326531 -0.000146875 380.717937 -0.000146875 L -380.718 -0.000146875 " transform="matrix(10,0,0,-10,4207.18,7394.229)"/>
<path style=" stroke:none;fill-rule:evenodd;fill:rgb(73.333333%,11.764706%,6.27451%);fill-opacity:1;" d="M 400 7244.230469 C 261.929688 7244.230469 150 7132.300781 150 6994.230469 C 150 6950.34375 161.550781 6907.234375 183.492188 6869.230469 L 3990.671875 275 C 4035.332031 197.648438 4117.863281 150 4207.179688 150 C 4296.496094 150 4379.027344 197.648438 4423.6875 275 L 8230.867188 6869.230469 C 8252.808594 6907.234375 8264.359375 6950.34375 8264.359375 6994.230469 C 8264.359375 7132.300781 8152.429688 7244.230469 8014.359375 7244.230469 L 400 7244.230469 M 1266.027344 6494.230469 L 4207.179688 1400 L 7148.335938 6494.230469 L 1266.027344 6494.230469 "/>
<path style=" stroke:none;fill-rule:evenodd;fill:rgb(16.470588%,16.078431%,16.470588%);fill-opacity:1;" d="M 3982.179688 3794.230469 L 3735.640625 3794.230469 C 3604.128906 3794.230469 3487.949219 3879.882812 3449.058594 4005.511719 L 3231.21875 4709.1875 C 3182.160156 4699.238281 3132.234375 4694.230469 3082.179688 4694.230469 C 2883.269531 4694.230469 2692.503906 4773.246094 2551.851562 4913.898438 C 2411.199219 5054.550781 2332.179688 5245.316406 2332.179688 5444.230469 C 2332.179688 5643.140625 2411.199219 5833.90625 2551.851562 5974.558594 C 2692.503906 6115.210938 2883.269531 6194.230469 3082.179688 6194.230469 C 3281.09375 6194.230469 3471.859375 6115.210938 3612.511719 5974.558594 C 3753.164062 5833.90625 3832.179688 5643.140625 3832.179688 5444.230469 C 3832.179688 5296.875 3788.773438 5152.785156 3707.378906 5029.949219 C 3625.984375 4907.117188 3510.210938 4810.980469 3374.507812 4753.546875 L 3456.566406 4488.484375 L 4157.824219 5528.109375 C 4185.707031 5569.449219 4232.3125 5594.230469 4282.179688 5594.230469 L 4597.332031 5594.230469 C 4631.90625 5763.609375 4723.933594 5915.84375 4857.839844 6025.175781 C 4991.746094 6134.511719 5159.308594 6194.230469 5332.179688 6194.230469 C 5531.09375 6194.230469 5721.859375 6115.210938 5862.511719 5974.558594 C 6003.164062 5833.90625 6082.179688 5643.140625 6082.179688 5444.230469 C 6082.179688 5245.316406 6003.164062 5054.550781 5862.511719 4913.898438 C 5721.859375 4773.246094 5531.09375 4694.230469 5332.179688 4694.230469 C 5253.238281 4694.230469 5174.789062 4706.691406 5099.730469 4731.160156 L 4882.179688 4244.230469 L 4938.429688 4094.230469 L 5107.179688 4094.230469 L 5107.179688 3944.230469 L 4469.679688 3944.230469 C 4448.96875 3944.230469 4432.179688 3961.019531 4432.179688 3981.730469 C 4432.179688 3999.074219 4444.074219 4014.15625 4460.941406 4018.195312 L 4778.230469 4094.230469 L 4721.980469 4244.230469 L 3532.179688 4244.230469 L 3592.347656 4049.871094 C 3611.792969 3987.054688 3669.882812 3944.230469 3735.640625 3944.230469 L 3982.179688 3944.230469 L 3982.179688 3794.230469 M 3572.132812 4394.230469 L 4274.976562 5436.238281 L 4665.730469 4394.230469 L 3572.132812 4394.230469 M 3186.578125 4853.382812 C 3152.113281 4847.292969 3117.179688 4844.230469 3082.179688 4844.230469 C 2923.050781 4844.230469 2770.4375 4907.441406 2657.914062 5019.964844 C 2545.394531 5132.488281 2482.179688 5285.097656 2482.179688 5444.230469 C 2482.179688 5603.359375 2545.394531 5755.972656 2657.914062 5868.492188 C 2770.4375 5981.015625 2923.050781 6044.230469 3082.179688 6044.230469 C 3241.308594 6044.230469 3393.921875 5981.015625 3506.445312 5868.492188 C 3618.964844 5755.972656 3682.179688 5603.359375 3682.179688 5444.230469 C 3682.179688 5328.914062 3648.949219 5216.042969 3586.46875 5119.125 C 3523.988281 5022.207031 3434.898438 4945.34375 3329.871094 4897.742188 L 3153.824219 5466.410156 C 3144.101562 5497.816406 3115.058594 5519.230469 3082.179688 5519.230469 C 3040.757812 5519.230469 3007.179688 5485.648438 3007.179688 5444.230469 C 3007.179688 5436.710938 3008.3125 5429.234375 3010.535156 5422.050781 L 3186.578125 4853.382812 M 4732.179688 5444.230469 L 5254.027344 5444.230469 L 5024.015625 4929.414062 C 4842.992188 5037.773438 4732.179688 5233.25 4732.179688 5444.230469 M 4751.234375 5594.230469 C 4784.488281 5723.023438 4859.597656 5837.113281 4964.757812 5918.570312 C 5069.917969 6000.027344 5199.164062 6044.230469 5332.179688 6044.230469 C 5491.308594 6044.230469 5643.921875 5981.015625 5756.445312 5868.492188 C 5868.964844 5755.972656 5932.179688 5603.359375 5932.179688 5444.230469 C 5932.179688 5285.097656 5868.964844 5132.488281 5756.445312 5019.964844 C 5643.921875 4907.441406 5491.308594 4844.230469 5332.179688 4844.230469 C 5274.335938 4844.230469 5216.792969 4852.59375 5161.34375 4869.0625 L 5438.15625 5488.636719 C 5442.457031 5498.261719 5444.679688 5508.6875 5444.679688 5519.230469 C 5444.679688 5560.648438 5411.101562 5594.230469 5369.679688 5594.230469 L 4751.234375 5594.230469 M 4432.179688 5444.230469 L 4582.179688 5444.230469 C 4582.179688 5311.542969 4617.382812 5181.226562 4684.191406 5066.589844 C 4751.003906 4951.949219 4847.03125 4857.085938 4962.480469 4791.679688 L 4807.210938 4444.148438 L 4432.179688 5444.230469 "/>
</g>
</svg>
