<?xml version="1.0" encoding="UTF-8"?>
<svg xmlns="http://www.w3.org/2000/svg" xmlns:xlink="http://www.w3.org/1999/xlink" width="841.436000mm" height="739.422900mm" viewBox="0 0 8414.36 7394.229" version="1.1">
<g id="surface481">
<path style="fill-rule:evenodd;fill:rgb(94.509804%,94.117647%,91.764706%);fill-opacity:1;stroke-width:0.3;stroke-linecap:butt;stroke-linejoin:miter;stroke:rgb(16.470588%,16.078431%,16.470588%);stroke-opacity:1;stroke-miterlimit:3;" d="M -380.718 -0.000146875 C -391.326594 -0.000146875 -401.500813 4.214306 -409.002375 11.715869 C -416.503547 19.217041 -420.718 29.391259 -420.718 39.999853 C -420.718 47.021337 -418.869563 53.919384 -415.359016 59.999853 L -34.641047 719.4229 C -31.130109 725.503759 -26.080891 730.553369 -20.000031 734.063916 C -13.919172 737.574462 -7.021516 739.4229 -0.00003125 739.4229 C 7.021453 739.4229 13.919109 737.574462 19.999969 734.063916 C 26.080828 730.553369 31.130437 725.503759 34.640984 719.4229 L 415.358953 59.999853 C 418.869891 53.919384 420.717937 47.021337 420.717937 39.999853 C 420.717937 29.391259 416.503875 19.217041 409.002313 11.715869 C 401.50075 4.214306 391.326531 -0.000146875 380.717937 -0.000146875 L -380.718 -0.000146875 " transform="matrix(10,0,0,-10,4207.18,7394.229)"/>
<path style=" stroke:none;fill-rule:evenodd;fill:rgb(73.333333%,11.764706%,6.27451%);fill-opacity:1;" d="M 400 7244.230469 C 261.929688 7244.230469 150 7132.300781 150 6994.230469 C 150 6950.34375 161.550781 6907.234375 183.492188 6869.230469 L 3990.671875 275 C 4035.332031 197.648438 4117.863281 150 4207.179688 150 C 4296.496094 150 4379.027344 197.648438 4423.6875 275 L 8230.867188 6869.230469 C 8252.808594 6907.234375 8264.359375 6950.34375 8264.359375 6994.230469 C 8264.359375 7132.300781 8152.429688 7244.230469 8014.359375 7244.230469 L 400 7244.230469 M 1266.027344 6494.230469 L 4207.179688 1400 L 7148.335938 6494.230469 L 1266.027344 6494.230469 "/>
<path style=" stroke:none;fill-rule:evenodd;fill:rgb(16.470588%,16.078431%,16.470588%);fill-opacity:1;" d="M 4432.179688 3794.230469 L 4678.71875 3794.230469 C 4810.230469 3794.230469 4926.410156 3879.882812 4965.300781 4005.511719 L 5183.144531 4709.1875 C 5232.199219 4699.238281 5282.125 4694.230469 5332.179688 4694.230469 C 5531.09375 4694.230469 5721.859375 4773.246094 5862.511719 4913.898438 C 6003.164062 5054.550781 6082.179688 5245.316406 6082.179688 5444.230469 C 6082.179688 5643.140625 6003.164062 5833.90625 5862.511719 5974.558594 C 5721.859375 6115.210938 5531.09375 6194.230469 5332.179688 6194.230469 C 5133.269531 6194.230469 4942.503906 6115.210938 4801.851562 5974.558594 C 4661.199219 5833.90625 4582.179688 5643.140625 4582.179688 5444.230469 C 4582.179688 5296.875 4625.585938 5152.785156 4706.980469 5029.949219 C 4788.375 4907.117188 4904.152344 4810.980469 5039.851562 4753.546875 L 4957.796875 4488.484375 L 4256.535156 5528.109375 C 4228.652344 5569.449219 4182.046875 5594.230469 4132.179688 5594.230469 L 3817.027344 5594.230469 C 3782.453125 5763.609375 3690.425781 5915.84375 3556.523438 6025.175781 C 3422.617188 6134.511719 3255.050781 6194.230469 3082.179688 6194.230469 C 2883.269531 6194.230469 2692.503906 6115.210938 2551.851562 5974.558594 C 2411.199219 5833.90625 2332.179688 5643.140625 2332.179688 5444.230469 C 2332.179688 5245.316406 2411.199219 5054.550781 2551.851562 4913.898438 C 2692.503906 4773.246094 2883.269531 4694.230469 3082.179688 4694.230469 C 3161.125 4694.230469 3239.574219 4706.691406 3314.628906 4731.160156 L 3532.179688 4244.230469 L 3475.929688 4094.230469 L 3307.179688 4094.230469 L 3307.179688 3944.230469 L 3944.679688 3944.230469 C 3965.390625 3944.230469 3982.179688 3961.019531 3982.179688 3981.730469 C 3982.179688 3999.074219 3970.285156 4014.15625 3953.417969 4018.195312 L 3636.128906 4094.230469 L 3692.378906 4244.230469 L 4882.179688 4244.230469 L 4822.011719 4049.871094 C 4802.566406 3987.054688 4744.476562 3944.230469 4678.71875 3944.230469 L 4432.179688 3944.230469 L 4432.179688 3794.230469 M 4842.226562 4394.230469 L 4139.382812 5436.238281 L 3748.628906 4394.230469 L 4842.226562 4394.230469 M 5227.78125 4853.382812 C 5262.246094 4847.292969 5297.179688 4844.230469 5332.179688 4844.230469 C 5491.308594 4844.230469 5643.921875 4907.441406 5756.445312 5019.964844 C 5868.964844 5132.488281 5932.179688 5285.097656 5932.179688 5444.230469 C 5932.179688 5603.359375 5868.964844 5755.972656 5756.445312 5868.492188 C 5643.921875 5981.015625 5491.308594 6044.230469 5332.179688 6044.230469 C 5173.050781 6044.230469 5020.4375 5981.015625 4907.914062 5868.492188 C 4795.394531 5755.972656 4732.179688 5603.359375 4732.179688 5444.230469 C 4732.179688 5328.914062 4765.410156 5216.042969 4827.890625 5119.125 C 4890.375 5022.207031 4979.460938 4945.34375 5084.488281 4897.742188 L 5260.535156 5466.410156 C 5270.257812 5497.816406 5299.300781 5519.230469 5332.179688 5519.230469 C 5373.601562 5519.230469 5407.179688 5485.648438 5407.179688 5444.230469 C 5407.179688 5436.710938 5406.050781 5429.234375 5403.824219 5422.050781 L 5227.78125 4853.382812 M 3682.179688 5444.230469 L 3160.332031 5444.230469 L 3390.34375 4929.414062 C 3571.371094 5037.773438 3682.179688 5233.25 3682.179688 5444.230469 M 3663.128906 5594.230469 C 3629.875 5723.023438 3554.761719 5837.113281 3449.601562 5918.570312 C 3344.445312 6000.027344 3215.199219 6044.230469 3082.179688 6044.230469 C 2923.050781 6044.230469 2770.4375 5981.015625 2657.914062 5868.492188 C 2545.394531 5755.972656 2482.179688 5603.359375 2482.179688 5444.230469 C 2482.179688 5285.097656 2545.394531 5132.488281 2657.914062 5019.964844 C 2770.4375 4907.441406 2923.050781 4844.230469 3082.179688 4844.230469 C 3140.023438 4844.230469 3197.566406 4852.59375 3253.015625 4869.0625 L 2976.203125 5488.636719 C 2971.902344 5498.261719 2969.679688 5508.6875 2969.679688 5519.230469 C 2969.679688 5560.648438 3003.257812 5594.230469 3044.679688 5594.230469 L 3663.128906 5594.230469 M 3982.179688 5444.230469 L 3832.179688 5444.230469 C 3832.179688 5311.542969 3796.976562 5181.226562 3730.167969 5066.589844 C 3663.355469 4951.949219 3567.328125 4857.085938 3451.878906 4791.679688 L 3607.148438 4444.148438 L 3982.179688 5444.230469 "/>
</g>
</svg>
