<?xml version="1.0" encoding="UTF-8"?>
<svg xmlns="http://www.w3.org/2000/svg" xmlns:xlink="http://www.w3.org/1999/xlink" width="841.436000mm" height="739.422900mm" viewBox="0 0 8414.36 7394.229" version="1.1">
<g id="surface496">
<path style="fill-rule:evenodd;fill:rgb(94.509804%,94.117647%,91.764706%);fill-opacity:1;stroke-width:0.3;stroke-linecap:butt;stroke-linejoin:miter;stroke:rgb(16.470588%,16.078431%,16.470588%);stroke-opacity:1;stroke-miterlimit:3;" d="M -380.718 -0.000146875 C -391.326594 -0.000146875 -401.500813 4.214306 -409.002375 11.715869 C -416.503547 19.217041 -420.718 29.391259 -420.718 39.999853 C -420.718 47.021337 -418.869563 53.919384 -415.359016 59.999853 L -34.641047 719.4229 C -31.130109 725.503759 -26.080891 730.553369 -20.000031 734.063916 C -13.919172 737.574462 -7.021516 739.4229 -0.00003125 739.4229 C 7.021453 739.4229 13.919109 737.574462 19.999969 734.063916 C 26.080828 730.553369 31.130437 725.503759 34.640984 719.4229 L 415.358953 59.999853 C 418.869891 53.919384 420.717937 47.021337 420.717937 39.999853 C 420.717937 29.391259 416.503875 19.217041 409.002313 11.715869 C 401.50075 4.214306 391.326531 -0.000146875 380.717937 -0.000146875 L -380.718 -0.000146875 " transform="matrix(10,0,0,-10,4207.18,7394.229)"/>
<path style=" stroke:none;fill-rule:evenodd;fill:rgb(73.333333%,11.764706%,6.27451%);fill-opacity:1;" d="M 400 7244.230469 C 261.929688 7244.230469 150 7132.300781 150 6994.230469 C 150 6950.34375 161.550781 6907.234375 183.492188 6869.230469 L 3990.671875 275 C 4035.332031 197.648438 4117.863281 150 4207.179688 150 C 4296.496094 150 4379.027344 197.648438 4423.6875 275 L 8230.867188 6869.230469 C 8252.808594 6907.234375 8264.359375 6950.34375 8264.359375 6994.230469 C 8264.359375 7132.300781 8152.429688 7244.230469 8014.359375 7244.230469 L 400 7244.230469 M 1266.027344 6494.230469 L 4207.179688 1400 L 7148.335938 6494.230469 L 1266.027344 6494.230469 "/>
<path style=" stroke:none;fill-rule:evenodd;fill:rgb(16.470588%,16.078431%,16.470588%);fill-opacity:1;" d="M 4523.757812 5368.414062 L 4698.128906 5349.242188 C 4809 5337.054688 4906.984375 5271.625 4960.730469 5173.890625 L 5150.824219 4828.214844 C 5154.992188 4820.632812 5157.179688 4812.121094 5157.179688 4803.46875 C 5157.179688 4775.101562 5134.1875 4752.109375 5105.820312 4752.109375 C 5103.070312 4752.109375 5100.324219 4752.328125 5097.609375 4752.769531 L 4573.207031 4837.707031 C 4628.292969 4776.117188 4663.53125 4699.347656 4674.316406 4617.425781 L 4780.550781 3810.53125 L 5140.058594 3707.816406 L 5140.058594 3587.980469 L 4740.269531 3466.304688 C 4677.273438 3447.132812 4624.941406 3402.886719 4595.5625 3343.957031 L 4473.664062 3099.464844 C 4470.1875 3092.492188 4463.066406 3088.089844 4455.277344 3088.089844 C 4443.933594 3088.089844 4434.734375 3097.285156 4434.734375 3108.632812 C 4434.734375 3110.246094 4434.925781 3111.855469 4435.300781 3113.425781 L 4484.523438 3318.449219 C 4484.902344 3320.019531 4485.089844 3321.628906 4485.089844 3323.246094 C 4485.089844 3334.589844 4475.894531 3343.789062 4464.546875 3343.789062 C 4461.3125 3343.789062 4458.125 3343.023438 4455.242188 3341.558594 L 4408.042969 3317.570312 C 4388.398438 3307.589844 4372.488281 3291.554688 4362.65625 3271.835938 L 4251.109375 3048.105469 C 4247.632812 3041.132812 4240.511719 3036.730469 4232.722656 3036.730469 C 4221.378906 3036.730469 4212.179688 3045.925781 4212.179688 3057.273438 C 4212.179688 3058.886719 4212.371094 3060.496094 4212.746094 3062.066406 L 4245.082031 3196.757812 C 4245.460938 3198.328125 4245.648438 3199.9375 4245.648438 3201.554688 C 4245.648438 3212.898438 4236.453125 3222.097656 4225.105469 3222.097656 C 4221.871094 3222.097656 4218.683594 3221.332031 4215.800781 3219.867188 L 4195.976562 3209.792969 C 4125.773438 3174.113281 4074.324219 3109.941406 4054.757812 3033.660156 L 4050.503906 3017.078125 C 4047.785156 3006.476562 4038.230469 2999.066406 4027.289062 2999.066406 C 4014.050781 2999.066406 4003.320312 3009.796875 4003.320312 3023.03125 C 4003.320312 3023.460938 4003.332031 3023.886719 4003.355469 3024.3125 C 4009.566406 3140.5 4074.359375 3245.582031 4175.382812 3303.3125 L 4523.757812 3502.382812 L 4245.925781 3519.5 C 4296.929688 3594.46875 4381.726562 3639.339844 4472.398438 3639.339844 L 4347.765625 4066.640625 C 4295.910156 4244.4375 4157.734375 4383.992188 3980.464844 4437.613281 L 3052.351562 4718.347656 C 3021.367188 4727.71875 2991.597656 4740.722656 2963.664062 4757.082031 L 2793.941406 4856.484375 C 2751.984375 4881.058594 2726.199219 4926.039062 2726.199219 4974.664062 C 2726.199219 4985.710938 2727.539062 4996.714844 2730.179688 5007.4375 L 2748.503906 5081.773438 C 2756.433594 5113.949219 2760.441406 5146.964844 2760.441406 5180.097656 C 2760.441406 5255.359375 2739.769531 5329.175781 2700.679688 5393.492188 C 2661.589844 5457.808594 2605.589844 5510.148438 2538.78125 5544.808594 L 2400.929688 5642.328125 L 2179.921875 6065.265625 C 2156.304688 6110.464844 2109.535156 6138.796875 2058.539062 6138.796875 C 2052.816406 6138.796875 2047.097656 6138.4375 2041.417969 6137.722656 L 2007.179688 6344.230469 C 2115.703125 6308.527344 2210.347656 6239.792969 2277.875 6147.640625 L 2421.269531 5951.949219 C 2487.414062 5861.679688 2579.621094 5793.832031 2685.484375 5757.539062 L 2879.816406 5690.910156 C 3085.644531 5620.339844 3245.6875 5456.144531 3310.964844 5248.574219 C 3667.695312 5248.222656 4020.925781 5178.191406 4350.808594 5042.417969 L 4369.679688 5111.621094 L 4934.625 4957.542969 L 4866.496094 5099.917969 C 4838.046875 5159.375 4777.984375 5197.21875 4712.070312 5197.21875 C 4686.222656 5197.21875 4660.710938 5191.363281 4637.449219 5180.097656 L 4523.757812 5368.414062 "/>
</g>
</svg>
