<?xml version="1.0" encoding="UTF-8"?>
<svg xmlns="http://www.w3.org/2000/svg" xmlns:xlink="http://www.w3.org/1999/xlink" width="841.436000mm" height="739.422900mm" viewBox="0 0 8414.36 7394.229" version="1.1">
<g id="surface501">
<path style="fill-rule:evenodd;fill:rgb(94.509804%,94.117647%,91.764706%);fill-opacity:1;stroke-width:0.3;stroke-linecap:butt;stroke-linejoin:miter;stroke:rgb(16.470588%,16.078431%,16.470588%);stroke-opacity:1;stroke-miterlimit:3;" d="M -380.718 -0.000146875 C -391.326594 -0.000146875 -401.500813 4.214306 -409.002375 11.715869 C -416.503547 19.217041 -420.718 29.391259 -420.718 39.999853 C -420.718 47.021337 -418.869563 53.919384 -415.359016 59.999853 L -34.641047 719.4229 C -31.130109 725.503759 -26.080891 730.553369 -20.000031 734.063916 C -13.919172 737.574462 -7.021516 739.4229 -0.00003125 739.4229 C 7.021453 739.4229 13.919109 737.574462 19.999969 734.063916 C 26.080828 730.553369 31.130437 725.503759 34.640984 719.4229 L 415.358953 59.999853 C 418.869891 53.919384 420.717937 47.021337 420.717937 39.999853 C 420.717937 29.391259 416.503875 19.217041 409.002313 11.715869 C 401.50075 4.214306 391.326531 -0.000146875 380.717937 -0.000146875 L -380.718 -0.000146875 " transform="matrix(10,0,0,-10,4207.18,7394.229)"/>
<path style=" stroke:none;fill-rule:evenodd;fill:rgb(73.333333%,11.764706%,6.27451%);fill-opacity:1;" d="M 400 7244.230469 C 261.929688 7244.230469 150 7132.300781 150 6994.230469 C 150 6950.34375 161.550781 6907.234375 183.492188 6869.230469 L 3990.671875 275 C 4035.332031 197.648438 4117.863281 150 4207.179688 150 C 4296.496094 150 4379.027344 197.648438 4423.6875 275 L 8230.867188 6869.230469 C 8252.808594 6907.234375 8264.359375 6950.34375 8264.359375 6994.230469 C 8264.359375 7132.300781 8152.429688 7244.230469 8014.359375 7244.230469 L 400 7244.230469 M 1266.027344 6494.230469 L 4207.179688 1400 L 7148.335938 6494.230469 L 1266.027344 6494.230469 "/>
<path style=" stroke:none;fill-rule:evenodd;fill:rgb(16.470588%,16.078431%,16.470588%);fill-opacity:1;" d="M 4514.632812 4932.601562 C 4731.699219 4802.175781 4938.179688 4654.894531 5132.171875 4492.117188 L 5214.277344 4423.226562 C 5269.273438 4377.078125 5311.15625 4317.261719 5335.714844 4249.796875 L 5338.855469 4241.148438 C 5344.363281 4226.019531 5347.179688 4210.042969 5347.179688 4193.945312 C 5347.179688 4144.636719 5320.875 4099.070312 5278.171875 4074.417969 L 5278.171875 4074.414062 C 5249.519531 4057.871094 5217.585938 4047.804688 5184.621094 4044.921875 L 5138.59375 4041.265625 C 5082.511719 4036.363281 5027.316406 4024.125 4974.417969 4004.871094 L 4853.371094 3960.816406 L 4853.367188 3960.8125 C 4820.664062 3948.910156 4787.308594 3938.871094 4753.464844 3930.746094 L 4574.523438 3887.789062 C 4564.675781 3885.421875 4554.582031 3884.230469 4544.453125 3884.230469 C 4497.625 3884.230469 4454.488281 3909.640625 4431.785156 3950.59375 L 4413.941406 3982.785156 C 4407.535156 3994.34375 4397.722656 4003.652344 4385.84375 4009.449219 L 4385.847656 4009.449219 L 3641.542969 4372.46875 C 3596.3125 4394.527344 3546.652344 4405.992188 3496.332031 4405.992188 L 3496.332031 4405.996094 C 3439.6875 4405.996094 3386.195312 4432.085938 3351.320312 4476.722656 L 3334.328125 4498.472656 L 3334.324219 4498.472656 C 3313.398438 4525.257812 3281.304688 4540.910156 3247.316406 4540.910156 C 3246.03125 4540.910156 3244.746094 4540.886719 3243.460938 4540.84375 L 3243.464844 4540.84375 L 3234.269531 4540.523438 L 3234.265625 4540.523438 C 3233.519531 4540.496094 3232.769531 4540.484375 3232.019531 4540.484375 C 3218.417969 4540.484375 3205.164062 4544.789062 3194.160156 4552.785156 L 3194.15625 4552.785156 L 3164.386719 4574.421875 L 3164.386719 4574.417969 C 2991.085938 4700.328125 2826.792969 4838.1875 2672.703125 4986.988281 L 2672.699219 4986.988281 L 2606.511719 5050.90625 C 2581.375 5075.179688 2567.179688 5108.625 2567.179688 5143.566406 C 2567.179688 5161.621094 2570.972656 5179.472656 2578.316406 5195.960938 L 2585.800781 5212.773438 C 2604.355469 5254.449219 2643.570312 5283.203125 2688.898438 5288.367188 L 2725.464844 5292.535156 L 2725.464844 5292.539062 C 2735.148438 5293.640625 2744.886719 5294.195312 2754.628906 5294.195312 C 2765.125 5294.195312 2775.609375 5293.550781 2786.027344 5292.273438 L 2786.027344 5292.269531 L 2822.558594 5287.785156 C 2823.117188 5287.71875 2823.679688 5287.683594 2824.242188 5287.683594 C 2831.863281 5287.683594 2838.042969 5293.863281 2838.042969 5301.484375 C 2838.042969 5306.417969 2835.414062 5310.972656 2831.140625 5313.4375 L 2775.363281 5345.640625 L 2775.359375 5345.644531 C 2746.890625 5362.078125 2729.355469 5392.457031 2729.355469 5425.328125 C 2729.355469 5462.25 2751.425781 5495.597656 2785.414062 5510.027344 L 2785.414062 5510.023438 L 2836.234375 5531.597656 C 2924.976562 5569.265625 3010.621094 5613.847656 3092.375 5664.933594 L 3092.375 5664.9375 L 3154.800781 5703.941406 L 3154.800781 5703.949219 C 3252.945312 5765.277344 3357.25 5816.148438 3466.003906 5855.734375 L 3466.007812 5855.726562 L 3794.566406 5975.316406 C 3824.585938 5986.242188 3851.589844 6004.117188 3873.378906 6027.480469 L 3898.480469 6054.398438 L 3898.476562 6054.398438 C 3908.699219 6063.929688 3922.152344 6069.230469 3936.128906 6069.230469 C 3966.617188 6069.230469 3991.335938 6044.511719 3991.335938 6014.023438 C 3991.335938 6001.042969 3986.761719 5988.476562 3978.421875 5978.535156 L 3960.679688 5957.390625 C 3972.285156 5959.4375 3984.046875 5960.464844 3995.828125 5960.464844 C 4007.613281 5960.464844 4019.375 5959.4375 4030.980469 5957.390625 L 4030.984375 5957.390625 L 4040.042969 5955.792969 C 4057.632812 5952.691406 4070.457031 5937.40625 4070.457031 5919.546875 C 4070.457031 5916.113281 4069.976562 5912.699219 4069.03125 5909.402344 L 4069.035156 5909.402344 L 4066.496094 5900.554688 L 4066.496094 5900.558594 C 4058.675781 5873.289062 4045.210938 5847.96875 4026.976562 5826.234375 L 4026.980469 5826.230469 L 4026.976562 5826.234375 C 4050.691406 5818.984375 4072.875 5807.433594 4092.417969 5792.167969 L 4092.421875 5792.164062 L 4099.671875 5786.496094 L 4099.671875 5786.5 C 4108.601562 5779.523438 4113.816406 5768.828125 4113.816406 5757.496094 C 4113.816406 5748.84375 4110.769531 5740.46875 4105.207031 5733.839844 L 4099.292969 5726.796875 L 4099.292969 5726.792969 C 4083.558594 5708.039062 4060.332031 5697.210938 4035.855469 5697.210938 C 4031.035156 5697.210938 4026.222656 5697.632812 4021.476562 5698.46875 L 4007.886719 5700.867188 C 4020.191406 5682.625 4026.765625 5661.125 4026.765625 5639.121094 C 4026.765625 5635.910156 4026.625 5632.699219 4026.34375 5629.5 L 4026.34375 5629.496094 L 4026.339844 5629.496094 C 4085.269531 5629.496094 4144.0625 5623.835938 4201.910156 5612.59375 L 4210.941406 5610.839844 C 4261.71875 5600.96875 4308.699219 5577.03125 4346.527344 5541.753906 L 4346.527344 5541.75 L 4346.53125 5541.75 C 4480.796875 5628.945312 4637.457031 5675.347656 4797.554688 5675.347656 C 4860.25 5675.347656 4922.746094 5668.230469 4983.839844 5654.125 C 4995.527344 5610.511719 5034.691406 5579.914062 5079.835938 5579.125 L 5079.835938 5579.128906 L 5108.597656 5511.367188 L 5118.355469 5521.125 C 5135.609375 5538.382812 5159.015625 5548.074219 5183.417969 5548.074219 C 5214.007812 5548.074219 5242.59375 5532.875 5259.699219 5507.515625 L 5259.703125 5507.515625 C 5267.90625 5495.355469 5272.289062 5481.019531 5272.289062 5466.351562 C 5272.289062 5425.699219 5239.332031 5392.742188 5198.679688 5392.742188 C 5191.816406 5392.742188 5184.988281 5393.703125 5178.390625 5395.59375 L 5178.386719 5395.59375 L 5107.632812 5415.882812 L 5082.5625 5366.695312 L 5146.816406 5362.199219 C 5195.023438 5358.828125 5232.410156 5318.738281 5232.410156 5270.410156 C 5232.410156 5248.449219 5223.6875 5227.382812 5208.15625 5211.855469 L 5208.152344 5211.855469 C 5187.445312 5191.148438 5159.363281 5179.515625 5130.078125 5179.515625 C 5088.558594 5179.515625 5050.546875 5202.808594 5031.695312 5239.804688 L 5031.699219 5239.804688 L 5006.636719 5288.992188 L 4816.414062 5358.226562 L 4816.417969 5358.226562 C 4756.847656 5334.15625 4696.054688 5313.222656 4634.292969 5295.511719 L 4634.289062 5295.515625 C 4611.199219 5288.894531 4587.292969 5285.535156 4563.273438 5285.535156 C 4545.269531 5285.535156 4527.316406 5287.425781 4509.707031 5291.167969 L 4509.710938 5291.167969 C 4508.765625 5291.367188 4507.804688 5291.46875 4506.839844 5291.46875 C 4499.21875 5291.46875 4493.039062 5285.289062 4493.039062 5277.667969 C 4493.039062 5277.347656 4493.050781 5277.023438 4493.070312 5276.703125 L 4493.070312 5276.699219 L 4503.980469 5120.664062 L 4652.839844 5048.058594 C 4832.878906 4960.246094 4994.601562 4851.886719 5105.386719 4744.832031 C 5216.167969 4637.777344 5267.761719 4540 5249.765625 4471.222656 L 5244.898438 4456.867188 C 5244.429688 4457.261719 5243.964844 4457.65625 5243.496094 4458.050781 L 5104.40625 4574.023438 C 4925.261719 4719.773438 4736 4852.625 4538.042969 4971.566406 L 4538.042969 4971.570312 C 4534.507812 4973.691406 4530.460938 4974.816406 4526.339844 4974.816406 C 4513.785156 4974.816406 4503.609375 4964.640625 4503.609375 4952.085938 C 4503.609375 4944.105469 4507.792969 4936.710938 4514.632812 4932.601562 M 4811.453125 4438.378906 C 4913.539062 4418.535156 4984.597656 4342.261719 4970.167969 4268.015625 C 4955.734375 4193.769531 4861.277344 4149.667969 4759.1875 4169.511719 C 4829.605469 4181.367188 4881.171875 4242.335938 4881.171875 4313.742188 C 4881.171875 4364.582031 4854.773438 4411.773438 4811.449219 4438.378906 M 4794.648438 4441.644531 C 4692.558594 4461.488281 4598.101562 4417.386719 4583.667969 4343.140625 C 4569.238281 4268.898438 4640.296875 4192.621094 4742.382812 4172.777344 L 4742.386719 4172.777344 C 4699.0625 4199.382812 4672.664062 4246.574219 4672.664062 4297.410156 C 4672.664062 4368.820312 4724.230469 4429.789062 4794.648438 4441.644531 M 4472 4214.519531 C 4478.140625 4209.277344 4481.679688 4201.605469 4481.679688 4193.53125 C 4481.679688 4178.285156 4469.320312 4165.925781 4454.074219 4165.925781 C 4447.5 4165.925781 4441.144531 4168.269531 4436.148438 4172.539062 C 4045.023438 4506.59375 3619.957031 4798.734375 3167.925781 5044.167969 C 3159.03125 5048.996094 3153.492188 5058.304688 3153.492188 5068.425781 C 3153.492188 5083.671875 3165.851562 5096.027344 3181.097656 5096.027344 C 3185.695312 5096.027344 3190.222656 5094.878906 3194.265625 5092.683594 C 3649.691406 4845.410156 4077.941406 4551.078125 4472.003906 4214.519531 M 3305.527344 4580.121094 C 3305.574219 4579.589844 3305.597656 4579.054688 3305.597656 4578.519531 C 3305.597656 4568.355469 3297.359375 4560.117188 3287.195312 4560.117188 C 3277.65625 4560.117188 3269.695312 4567.410156 3268.863281 4576.914062 C 3258.226562 4698.464844 3199.742188 4810.8125 3106.273438 4889.246094 L 2838.429688 5113.996094 C 2819.734375 5129.683594 2808.035156 5152.152344 2805.910156 5176.460938 C 2805.863281 5176.996094 2805.839844 5177.53125 2805.839844 5178.066406 C 2805.839844 5188.226562 2814.078125 5196.46875 2824.242188 5196.46875 C 2833.78125 5196.46875 2841.742188 5189.175781 2842.574219 5179.667969 C 2843.851562 5165.082031 2850.871094 5151.601562 2862.085938 5142.191406 L 3129.929688 4917.441406 C 3230.878906 4832.734375 3294.042969 4711.398438 3305.527344 4580.121094 M 3379.882812 5710.65625 C 3379.136719 5710.746094 3378.386719 5710.792969 3377.640625 5710.792969 C 3367.476562 5710.792969 3359.238281 5702.554688 3359.238281 5692.390625 C 3359.238281 5683.09375 3366.167969 5675.257812 3375.394531 5674.125 C 3449.804688 5664.988281 3524.699219 5660.40625 3599.664062 5660.40625 L 3599.664062 5660.410156 C 3636.035156 5681.40625 3677.289062 5692.460938 3719.28125 5692.460938 C 3775.929688 5692.460938 3831.207031 5675.03125 3877.609375 5642.539062 C 3902.199219 5625.320312 3916.847656 5597.1875 3916.847656 5567.167969 C 3916.847656 5525.523438 3888.875 5489.070312 3848.648438 5478.289062 L 3404.261719 5359.214844 C 3342.125 5342.566406 3278.074219 5334.132812 3213.742188 5334.132812 C 3192.328125 5334.132812 3170.921875 5335.070312 3149.589844 5336.933594 L 2966.265625 5352.972656 C 2965.730469 5353.019531 2965.195312 5353.042969 2964.660156 5353.042969 C 2954.496094 5353.042969 2946.257812 5344.804688 2946.257812 5334.640625 C 2946.257812 5325.097656 2953.550781 5317.140625 2963.054688 5316.308594 L 3146.378906 5300.269531 C 3168.78125 5298.308594 3191.257812 5297.328125 3213.742188 5297.328125 C 3281.289062 5297.328125 3348.542969 5306.183594 3413.785156 5323.664062 L 3858.175781 5442.738281 C 3914.492188 5457.828125 3953.652344 5508.863281 3953.652344 5567.167969 C 3953.652344 5609.195312 3933.148438 5648.582031 3898.722656 5672.6875 L 3898.722656 5672.691406 C 3846.128906 5709.515625 3783.484375 5729.265625 3719.28125 5729.265625 C 3674.296875 5729.265625 3629.992188 5718.269531 3590.226562 5697.238281 C 3519.910156 5697.605469 3449.675781 5702.085938 3379.878906 5710.65625 M 4552.378906 4744.496094 C 4559.648438 4741.847656 4564.488281 4734.9375 4564.488281 4727.203125 C 4564.488281 4717.039062 4556.25 4708.800781 4546.085938 4708.800781 C 4543.9375 4708.800781 4541.808594 4709.175781 4539.792969 4709.910156 C 4477.6875 4732.515625 4424.042969 4773.679688 4386.136719 4827.816406 L 4175.03125 5129.304688 C 4114.761719 5215.375 4016.296875 5266.632812 3911.226562 5266.632812 C 3845.136719 5266.632812 3780.648438 5246.296875 3726.511719 5208.390625 L 3726.507812 5208.390625 L 3711.433594 5197.835938 C 3692.871094 5184.835938 3670.761719 5177.867188 3648.101562 5177.867188 C 3635.222656 5177.867188 3622.441406 5180.121094 3610.335938 5184.523438 L 3558.457031 5203.40625 C 3551.1875 5206.054688 3546.351562 5212.964844 3546.351562 5220.699219 C 3546.351562 5230.863281 3554.589844 5239.101562 3564.753906 5239.101562 C 3566.898438 5239.101562 3569.027344 5238.726562 3571.046875 5237.992188 L 3622.925781 5219.109375 C 3630.992188 5216.175781 3639.515625 5214.671875 3648.101562 5214.671875 C 3663.207031 5214.671875 3677.949219 5219.320312 3690.320312 5227.984375 L 3705.398438 5238.539062 C 3765.722656 5280.777344 3837.585938 5303.4375 3911.226562 5303.4375 C 4028.308594 5303.4375 4138.023438 5246.320312 4205.179688 5150.414062 L 4416.285156 4848.925781 C 4449.859375 4800.976562 4497.375 4764.515625 4552.382812 4744.496094 "/>
</g>
</svg>
