<?xml version="1.0" encoding="UTF-8"?>
<svg xmlns="http://www.w3.org/2000/svg" xmlns:xlink="http://www.w3.org/1999/xlink" width="841.436000mm" height="739.422900mm" viewBox="0 0 8414.36 7394.229" version="1.1">
<g id="surface486">
<path style="fill-rule:evenodd;fill:rgb(94.509804%,94.117647%,91.764706%);fill-opacity:1;stroke-width:0.3;stroke-linecap:butt;stroke-linejoin:miter;stroke:rgb(16.470588%,16.078431%,16.470588%);stroke-opacity:1;stroke-miterlimit:3;" d="M -380.718 -0.000146875 C -391.326594 -0.000146875 -401.500813 4.214306 -409.002375 11.715869 C -416.503547 19.217041 -420.718 29.391259 -420.718 39.999853 C -420.718 47.021337 -418.869563 53.919384 -415.359016 59.999853 L -34.641047 719.4229 C -31.130109 725.503759 -26.080891 730.553369 -20.000031 734.063916 C -13.919172 737.574462 -7.021516 739.4229 -0.00003125 739.4229 C 7.021453 739.4229 13.919109 737.574462 19.999969 734.063916 C 26.080828 730.553369 31.130437 725.503759 34.640984 719.4229 L 415.358953 59.999853 C 418.869891 53.919384 420.717937 47.021337 420.717937 39.999853 C 420.717937 29.391259 416.503875 19.217041 409.002313 11.715869 C 401.50075 4.214306 391.326531 -0.000146875 380.717937 -0.000146875 L -380.718 -0.000146875 " transform="matrix(10,0,0,-10,4207.18,7394.229)"/>
<path style=" stroke:none;fill-rule:evenodd;fill:rgb(73.333333%,11.764706%,6.27451%);fill-opacity:1;" d="M 400 7244.230469 C 261.929688 7244.230469 150 7132.300781 150 6994.230469 C 150 6950.34375 161.550781 6907.234375 183.492188 6869.230469 L 3990.671875 275 C 4035.332031 197.648438 4117.863281 150 4207.179688 150 C 4296.496094 150 4379.027344 197.648438 4423.6875 275 L 8230.867188 6869.230469 C 8252.808594 6907.234375 8264.359375 6950.34375 8264.359375 6994.230469 C 8264.359375 7132.300781 8152.429688 7244.230469 8014.359375 7244.230469 L 400 7244.230469 M 1266.027344 6494.230469 L 4207.179688 1400 L 7148.335938 6494.230469 L 1266.027344 6494.230469 "/>
<path style=" stroke:none;fill-rule:evenodd;fill:rgb(16.470588%,16.078431%,16.470588%);fill-opacity:1;" d="M 3890.605469 5368.414062 L 3716.230469 5349.242188 C 3605.359375 5337.054688 3507.375 5271.625 3453.628906 5173.890625 L 3263.535156 4828.214844 C 3259.367188 4820.632812 3257.179688 4812.121094 3257.179688 4803.46875 C 3257.179688 4775.101562 3280.175781 4752.109375 3308.539062 4752.109375 C 3311.289062 4752.109375 3314.035156 4752.328125 3316.75 4752.769531 L 3841.152344 4837.707031 C 3786.066406 4776.117188 3750.828125 4699.347656 3740.042969 4617.425781 L 3633.808594 3810.53125 L 3274.300781 3707.816406 L 3274.300781 3587.980469 L 3674.089844 3466.304688 C 3737.085938 3447.132812 3789.417969 3402.886719 3818.796875 3343.957031 L 3940.699219 3099.464844 C 3944.171875 3092.492188 3951.292969 3088.089844 3959.082031 3088.089844 C 3970.425781 3088.089844 3979.625 3097.285156 3979.625 3108.632812 C 3979.625 3110.246094 3979.433594 3111.855469 3979.058594 3113.425781 L 3929.835938 3318.449219 C 3929.460938 3320.019531 3929.269531 3321.628906 3929.269531 3323.246094 C 3929.269531 3334.589844 3938.464844 3343.789062 3949.8125 3343.789062 C 3953.046875 3343.789062 3956.234375 3343.023438 3959.121094 3341.558594 L 4006.316406 3317.570312 C 4025.960938 3307.589844 4041.871094 3291.554688 4051.703125 3271.835938 L 4163.253906 3048.105469 C 4166.726562 3041.132812 4173.847656 3036.730469 4181.636719 3036.730469 C 4192.984375 3036.730469 4202.179688 3045.925781 4202.179688 3057.273438 C 4202.179688 3058.886719 4201.988281 3060.496094 4201.613281 3062.066406 L 4169.277344 3196.757812 C 4168.902344 3198.328125 4168.710938 3199.9375 4168.710938 3201.554688 C 4168.710938 3212.898438 4177.90625 3222.097656 4189.253906 3222.097656 C 4192.488281 3222.097656 4195.675781 3221.332031 4198.5625 3219.867188 L 4218.382812 3209.792969 C 4288.585938 3174.113281 4340.035156 3109.941406 4359.601562 3033.660156 L 4363.855469 3017.078125 C 4366.574219 3006.476562 4376.128906 2999.066406 4387.070312 2999.066406 C 4400.308594 2999.066406 4411.039062 3009.796875 4411.039062 3023.03125 C 4411.039062 3023.460938 4411.027344 3023.886719 4411.003906 3024.3125 C 4404.792969 3140.5 4340 3245.582031 4238.976562 3303.3125 L 3890.605469 3502.382812 L 4168.433594 3519.5 C 4117.429688 3594.46875 4032.632812 3639.339844 3941.964844 3639.339844 L 4066.59375 4066.640625 C 4118.449219 4244.4375 4256.625 4383.992188 4433.898438 4437.613281 L 5362.007812 4718.347656 C 5392.992188 4727.71875 5422.761719 4740.722656 5450.695312 4757.082031 L 5620.417969 4856.484375 C 5662.375 4881.058594 5688.160156 4926.039062 5688.160156 4974.664062 C 5688.160156 4985.710938 5686.824219 4996.714844 5684.179688 5007.4375 L 5665.855469 5081.773438 C 5657.925781 5113.949219 5653.917969 5146.964844 5653.917969 5180.097656 C 5653.917969 5255.359375 5674.589844 5329.175781 5713.679688 5393.492188 C 5752.769531 5457.808594 5808.773438 5510.148438 5875.578125 5544.808594 L 6013.429688 5642.328125 L 6234.4375 6065.265625 C 6258.054688 6110.464844 6304.828125 6138.796875 6355.820312 6138.796875 C 6361.542969 6138.796875 6367.261719 6138.4375 6372.941406 6137.722656 L 6407.179688 6344.230469 C 6298.65625 6308.527344 6204.011719 6239.792969 6136.488281 6147.640625 L 5993.089844 5951.949219 C 5926.945312 5861.679688 5834.738281 5793.832031 5728.875 5757.539062 L 5534.546875 5690.910156 C 5328.714844 5620.339844 5168.671875 5456.144531 5103.394531 5248.574219 C 4746.664062 5248.222656 4393.4375 5178.191406 4063.554688 5042.417969 L 4044.679688 5111.621094 L 3479.734375 4957.542969 L 3547.863281 5099.917969 C 3576.3125 5159.375 3636.375 5197.21875 3702.289062 5197.21875 C 3728.136719 5197.21875 3753.648438 5191.363281 3776.910156 5180.097656 L 3890.605469 5368.414062 "/>
</g>
</svg>
