<?xml version="1.0" encoding="UTF-8"?>
<svg xmlns="http://www.w3.org/2000/svg" xmlns:xlink="http://www.w3.org/1999/xlink" width="841.436000mm" height="739.422900mm" viewBox="0 0 8414.36 7394.229" version="1.1">
<g id="surface491">
<path style="fill-rule:evenodd;fill:rgb(94.509804%,94.117647%,91.764706%);fill-opacity:1;stroke-width:0.3;stroke-linecap:butt;stroke-linejoin:miter;stroke:rgb(16.470588%,16.078431%,16.470588%);stroke-opacity:1;stroke-miterlimit:3;" d="M -380.718 -0.000146875 C -391.326594 -0.000146875 -401.500813 4.214306 -409.002375 11.715869 C -416.503547 19.217041 -420.718 29.391259 -420.718 39.999853 C -420.718 47.021337 -418.869563 53.919384 -415.359016 59.999853 L -34.641047 719.4229 C -31.130109 725.503759 -26.080891 730.553369 -20.000031 734.063916 C -13.919172 737.574462 -7.021516 739.4229 -0.00003125 739.4229 C 7.021453 739.4229 13.919109 737.574462 19.999969 734.063916 C 26.080828 730.553369 31.130437 725.503759 34.640984 719.4229 L 415.358953 59.999853 C 418.869891 53.919384 420.717937 47.021337 420.717937 39.999853 C 420.717937 29.391259 416.503875 19.217041 409.002313 11.715869 C 401.50075 4.214306 391.326531 -0.000146875 380.717937 -0.000146875 L -380.718 -0.000146875 " transform="matrix(10,0,0,-10,4207.18,7394.229)"/>
<path style=" stroke:none;fill-rule:evenodd;fill:rgb(73.333333%,11.764706%,6.27451%);fill-opacity:1;" d="M 400 7244.230469 C 261.929688 7244.230469 150 7132.300781 150 6994.230469 C 150 6950.34375 161.550781 6907.234375 183.492188 6869.230469 L 3990.671875 275 C 4035.332031 197.648438 4117.863281 150 4207.179688 150 C 4296.496094 150 4379.027344 197.648438 4423.6875 275 L 8230.867188 6869.230469 C 8252.808594 6907.234375 8264.359375 6950.34375 8264.359375 6994.230469 C 8264.359375 7132.300781 8152.429688 7244.230469 8014.359375 7244.230469 L 400 7244.230469 M 1266.027344 6494.230469 L 4207.179688 1400 L 7148.335938 6494.230469 L 1266.027344 6494.230469 "/>
<path style=" stroke:none;fill-rule:evenodd;fill:rgb(16.470588%,16.078431%,16.470588%);fill-opacity:1;" d="M 3899.730469 4932.601562 C 3682.660156 4802.175781 3476.179688 4654.894531 3282.1875 4492.117188 L 3200.085938 4423.226562 C 3145.085938 4377.078125 3103.203125 4317.261719 3078.648438 4249.796875 L 3075.503906 4241.148438 C 3069.996094 4226.019531 3067.179688 4210.042969 3067.179688 4193.945312 C 3067.179688 4144.636719 3093.484375 4099.070312 3136.1875 4074.417969 L 3136.1875 4074.414062 C 3164.84375 4057.871094 3196.773438 4047.804688 3229.738281 4044.921875 L 3275.765625 4041.265625 C 3331.847656 4036.363281 3387.042969 4024.125 3439.945312 4004.871094 L 3560.988281 3960.816406 L 3560.992188 3960.8125 C 3593.699219 3948.910156 3627.050781 3938.871094 3660.894531 3930.746094 L 3839.835938 3887.789062 C 3849.683594 3885.421875 3859.777344 3884.230469 3869.90625 3884.230469 C 3916.734375 3884.230469 3959.871094 3909.640625 3982.574219 3950.59375 L 4000.417969 3982.785156 C 4006.824219 3994.34375 4016.636719 4003.652344 4028.515625 4009.449219 L 4772.816406 4372.46875 C 4818.046875 4394.527344 4867.707031 4405.992188 4918.027344 4405.992188 L 4918.027344 4405.996094 C 4974.675781 4405.996094 5028.164062 4432.085938 5063.039062 4476.722656 L 5080.03125 4498.472656 L 5080.035156 4498.472656 C 5100.960938 4525.257812 5133.054688 4540.910156 5167.042969 4540.910156 C 5168.328125 4540.910156 5169.613281 4540.886719 5170.898438 4540.84375 L 5170.894531 4540.84375 L 5180.089844 4540.523438 L 5180.09375 4540.523438 C 5180.84375 4540.496094 5181.589844 4540.484375 5182.339844 4540.484375 C 5195.941406 4540.484375 5209.195312 4544.789062 5220.199219 4552.785156 L 5220.203125 4552.785156 L 5249.976562 4574.421875 L 5249.972656 4574.417969 C 5423.273438 4700.328125 5587.570312 4838.1875 5741.660156 4986.988281 L 5807.847656 5050.90625 C 5832.984375 5075.179688 5847.179688 5108.625 5847.179688 5143.566406 C 5847.179688 5161.621094 5843.386719 5179.472656 5836.042969 5195.960938 L 5828.558594 5212.773438 C 5810 5254.449219 5770.789062 5283.203125 5725.460938 5288.367188 L 5688.894531 5292.535156 L 5688.894531 5292.539062 C 5679.210938 5293.640625 5669.476562 5294.195312 5659.730469 5294.195312 C 5649.234375 5294.195312 5638.75 5293.550781 5628.332031 5292.273438 L 5628.332031 5292.269531 L 5591.800781 5287.785156 C 5591.242188 5287.71875 5590.679688 5287.683594 5590.117188 5287.683594 C 5582.496094 5287.683594 5576.316406 5293.863281 5576.316406 5301.484375 C 5576.316406 5306.417969 5578.949219 5310.972656 5583.21875 5313.4375 L 5638.996094 5345.640625 L 5639 5345.644531 C 5667.46875 5362.078125 5685.003906 5392.457031 5685.003906 5425.328125 C 5685.003906 5462.25 5662.933594 5495.597656 5628.945312 5510.027344 L 5628.945312 5510.023438 L 5578.125 5531.597656 C 5489.382812 5569.265625 5403.738281 5613.847656 5321.984375 5664.933594 L 5321.984375 5664.9375 L 5259.558594 5703.941406 L 5259.558594 5703.949219 C 5161.414062 5765.277344 5057.109375 5816.148438 4948.355469 5855.734375 L 4948.355469 5855.726562 L 4619.792969 5975.316406 C 4589.777344 5986.242188 4562.769531 6004.117188 4540.984375 6027.480469 L 4540.980469 6027.480469 L 4515.882812 6054.398438 C 4505.660156 6063.929688 4492.207031 6069.230469 4478.230469 6069.230469 C 4447.742188 6069.230469 4423.023438 6044.511719 4423.023438 6014.023438 C 4423.023438 6001.042969 4427.597656 5988.476562 4435.941406 5978.535156 L 4435.9375 5978.535156 L 4453.683594 5957.390625 L 4453.679688 5957.390625 C 4442.074219 5959.4375 4430.3125 5960.464844 4418.53125 5960.464844 C 4406.746094 5960.464844 4394.984375 5959.4375 4383.378906 5957.390625 L 4383.375 5957.390625 L 4374.316406 5955.792969 C 4356.726562 5952.691406 4343.902344 5937.40625 4343.902344 5919.546875 C 4343.902344 5916.113281 4344.382812 5912.699219 4345.328125 5909.402344 L 4345.324219 5909.402344 L 4347.863281 5900.554688 L 4347.863281 5900.558594 C 4355.683594 5873.289062 4369.148438 5847.96875 4387.382812 5826.234375 L 4387.378906 5826.230469 L 4387.386719 5826.234375 C 4363.667969 5818.984375 4341.484375 5807.433594 4321.941406 5792.167969 L 4321.9375 5792.164062 L 4314.6875 5786.496094 L 4314.6875 5786.5 C 4305.761719 5779.523438 4300.542969 5768.828125 4300.542969 5757.496094 C 4300.542969 5748.84375 4303.589844 5740.46875 4309.152344 5733.839844 L 4315.066406 5726.796875 L 4315.066406 5726.792969 C 4330.800781 5708.039062 4354.027344 5697.210938 4378.503906 5697.210938 C 4383.324219 5697.210938 4388.136719 5697.632812 4392.886719 5698.46875 L 4392.882812 5698.46875 L 4406.476562 5700.867188 L 4406.472656 5700.867188 C 4394.167969 5682.625 4387.597656 5661.125 4387.597656 5639.121094 C 4387.597656 5635.910156 4387.734375 5632.699219 4388.015625 5629.5 L 4388.015625 5629.496094 L 4388.019531 5629.496094 C 4329.089844 5629.496094 4270.296875 5623.835938 4212.449219 5612.59375 L 4203.417969 5610.839844 C 4152.644531 5600.96875 4105.660156 5577.03125 4067.832031 5541.753906 L 4067.832031 5541.75 C 3933.5625 5628.945312 3776.902344 5675.347656 3616.808594 5675.347656 C 3554.109375 5675.347656 3491.613281 5668.230469 3430.523438 5654.125 L 3430.519531 5654.125 C 3432.808594 5662.671875 3433.96875 5671.476562 3433.96875 5680.324219 C 3433.96875 5736.222656 3388.65625 5781.535156 3332.757812 5781.535156 C 3276.855469 5781.535156 3231.542969 5736.222656 3231.542969 5680.324219 C 3231.542969 5624.425781 3276.855469 5579.109375 3332.757812 5579.109375 C 3333.34375 5579.109375 3333.933594 5579.113281 3334.523438 5579.125 L 3334.523438 5579.128906 L 3305.761719 5511.367188 L 3296.003906 5521.125 C 3278.75 5538.382812 3255.34375 5548.074219 3230.941406 5548.074219 C 3200.355469 5548.074219 3171.765625 5532.875 3154.660156 5507.515625 L 3154.65625 5507.515625 C 3146.453125 5495.355469 3142.070312 5481.019531 3142.070312 5466.351562 C 3142.070312 5425.699219 3175.027344 5392.742188 3215.679688 5392.742188 C 3222.542969 5392.742188 3229.375 5393.703125 3235.96875 5395.59375 L 3235.972656 5395.59375 L 3306.730469 5415.882812 L 3331.796875 5366.695312 L 3267.542969 5362.199219 C 3219.335938 5358.828125 3181.949219 5318.738281 3181.949219 5270.410156 C 3181.949219 5248.449219 3190.671875 5227.382812 3206.203125 5211.855469 L 3206.207031 5211.855469 C 3226.914062 5191.148438 3254.996094 5179.515625 3284.28125 5179.515625 C 3325.800781 5179.515625 3363.8125 5202.808594 3382.664062 5239.804688 L 3382.660156 5239.804688 L 3407.722656 5288.992188 L 3597.945312 5358.226562 L 3597.941406 5358.226562 C 3657.511719 5334.15625 3718.304688 5313.222656 3780.070312 5295.511719 L 3780.070312 5295.515625 C 3803.164062 5288.894531 3827.066406 5285.535156 3851.085938 5285.535156 C 3869.089844 5285.535156 3887.042969 5287.425781 3904.652344 5291.167969 C 3905.59375 5291.367188 3906.554688 5291.46875 3907.519531 5291.46875 C 3915.144531 5291.46875 3921.320312 5285.289062 3921.320312 5277.667969 C 3921.320312 5277.347656 3921.3125 5277.023438 3921.289062 5276.703125 L 3921.289062 5276.699219 L 3910.378906 5120.664062 L 3761.519531 5048.058594 C 3581.480469 4960.246094 3419.757812 4851.886719 3308.972656 4744.832031 C 3198.191406 4637.777344 3146.597656 4540 3164.59375 4471.222656 L 3169.460938 4456.867188 C 3169.929688 4457.261719 3170.394531 4457.65625 3170.863281 4458.050781 L 3309.957031 4574.023438 C 3489.097656 4719.773438 3678.359375 4852.625 3876.316406 4971.566406 L 3876.316406 4971.570312 C 3879.851562 4973.691406 3883.898438 4974.816406 3888.023438 4974.816406 C 3900.574219 4974.816406 3910.75 4964.640625 3910.75 4952.085938 C 3910.75 4944.105469 3906.566406 4936.710938 3899.726562 4932.601562 M 3602.910156 4438.378906 C 3500.820312 4418.535156 3429.761719 4342.261719 3444.195312 4268.015625 C 3458.625 4193.769531 3553.082031 4149.667969 3655.171875 4169.511719 C 3584.753906 4181.367188 3533.191406 4242.335938 3533.191406 4313.742188 C 3533.191406 4364.582031 3559.589844 4411.773438 3602.910156 4438.378906 M 3619.710938 4441.644531 C 3721.800781 4461.488281 3816.257812 4417.386719 3830.691406 4343.140625 C 3845.121094 4268.898438 3774.0625 4192.621094 3671.976562 4172.777344 C 3715.296875 4199.382812 3741.695312 4246.574219 3741.695312 4297.410156 C 3741.695312 4368.820312 3690.128906 4429.789062 3619.710938 4441.644531 M 3942.359375 4214.519531 C 3936.21875 4209.277344 3932.683594 4201.605469 3932.683594 4193.53125 C 3932.683594 4178.285156 3945.039062 4165.925781 3960.285156 4165.925781 C 3966.859375 4165.925781 3973.214844 4168.269531 3978.214844 4172.539062 L 3978.210938 4172.539062 C 4369.339844 4506.59375 4794.402344 4798.734375 5246.433594 5044.167969 L 5246.4375 5044.167969 L 5246.433594 5044.167969 C 5255.328125 5048.996094 5260.867188 5058.304688 5260.867188 5068.425781 C 5260.867188 5083.671875 5248.507812 5096.027344 5233.265625 5096.027344 C 5228.664062 5096.027344 5224.136719 5094.878906 5220.09375 5092.683594 C 4764.667969 4845.410156 4336.417969 4551.078125 3942.355469 4214.519531 M 5108.832031 4580.121094 C 5108.785156 4579.589844 5108.761719 4579.054688 5108.761719 4578.519531 C 5108.761719 4568.355469 5117 4560.117188 5127.164062 4560.117188 C 5136.707031 4560.117188 5144.664062 4567.410156 5145.496094 4576.914062 C 5156.132812 4698.464844 5214.617188 4810.8125 5308.085938 4889.246094 L 5575.933594 5113.996094 C 5594.625 5129.683594 5606.324219 5152.152344 5608.449219 5176.460938 C 5608.496094 5176.996094 5608.519531 5177.53125 5608.519531 5178.066406 C 5608.519531 5188.226562 5600.28125 5196.46875 5590.117188 5196.46875 C 5580.578125 5196.46875 5572.617188 5189.175781 5571.785156 5179.667969 C 5570.507812 5165.082031 5563.492188 5151.601562 5552.273438 5142.191406 L 5284.429688 4917.441406 C 5183.480469 4832.734375 5120.316406 4711.398438 5108.832031 4580.121094 M 5034.476562 5710.65625 C 5035.222656 5710.746094 5035.972656 5710.792969 5036.722656 5710.792969 C 5046.882812 5710.792969 5055.121094 5702.554688 5055.121094 5692.390625 C 5055.121094 5683.09375 5048.191406 5675.257812 5038.964844 5674.125 C 4964.558594 5664.988281 4889.660156 5660.40625 4814.695312 5660.40625 L 4814.695312 5660.410156 C 4778.328125 5681.40625 4737.070312 5692.460938 4695.078125 5692.460938 C 4638.429688 5692.460938 4583.152344 5675.03125 4536.75 5642.539062 C 4512.160156 5625.320312 4497.515625 5597.1875 4497.515625 5567.167969 C 4497.515625 5525.523438 4525.484375 5489.070312 4565.710938 5478.289062 L 5010.097656 5359.214844 C 5072.234375 5342.566406 5136.285156 5334.132812 5200.617188 5334.132812 C 5222.03125 5334.132812 5243.4375 5335.070312 5264.773438 5336.933594 L 5448.097656 5352.972656 C 5448.628906 5353.019531 5449.164062 5353.042969 5449.699219 5353.042969 C 5459.863281 5353.042969 5468.101562 5344.804688 5468.101562 5334.640625 C 5468.101562 5325.097656 5460.808594 5317.140625 5451.304688 5316.308594 L 5267.980469 5300.269531 C 5245.578125 5298.308594 5223.101562 5297.328125 5200.617188 5297.328125 C 5133.070312 5297.328125 5065.816406 5306.183594 5000.574219 5323.664062 L 4556.183594 5442.738281 C 4499.867188 5457.828125 4460.707031 5508.863281 4460.707031 5567.167969 C 4460.707031 5609.195312 4481.210938 5648.582031 4515.640625 5672.6875 L 4515.636719 5672.691406 C 4568.230469 5709.515625 4630.875 5729.265625 4695.078125 5729.265625 C 4740.0625 5729.265625 4784.367188 5718.269531 4824.132812 5697.238281 C 4894.449219 5697.605469 4964.6875 5702.085938 5034.480469 5710.65625 M 3861.980469 4744.496094 C 3854.710938 4741.847656 3849.871094 4734.9375 3849.871094 4727.203125 C 3849.871094 4717.039062 3858.109375 4708.800781 3868.273438 4708.800781 C 3870.421875 4708.800781 3872.550781 4709.175781 3874.566406 4709.910156 C 3936.671875 4732.515625 3990.316406 4773.679688 4028.222656 4827.816406 L 4028.226562 4827.816406 L 4239.328125 5129.304688 C 4299.597656 5215.375 4398.0625 5266.632812 4503.132812 5266.632812 C 4569.222656 5266.632812 4633.710938 5246.296875 4687.851562 5208.390625 L 4702.925781 5197.835938 C 4721.488281 5184.835938 4743.597656 5177.867188 4766.257812 5177.867188 C 4779.140625 5177.867188 4791.921875 5180.121094 4804.023438 5184.523438 L 4855.902344 5203.40625 C 4863.171875 5206.054688 4868.011719 5212.964844 4868.011719 5220.699219 C 4868.011719 5230.863281 4859.769531 5239.101562 4849.609375 5239.101562 C 4847.460938 5239.101562 4845.332031 5238.726562 4843.3125 5237.992188 L 4791.433594 5219.109375 C 4783.367188 5216.175781 4774.847656 5214.671875 4766.257812 5214.671875 C 4751.152344 5214.671875 4736.414062 5219.320312 4724.039062 5227.984375 L 4708.960938 5238.539062 C 4648.636719 5280.777344 4576.777344 5303.4375 4503.132812 5303.4375 C 4386.054688 5303.4375 4276.335938 5246.320312 4209.179688 5150.414062 L 3998.074219 4848.925781 C 3964.5 4800.976562 3916.984375 4764.515625 3861.976562 4744.496094 "/>
</g>
</svg>
