<?xml version="1.0" encoding="UTF-8"?>
<svg xmlns="http://www.w3.org/2000/svg" xmlns:xlink="http://www.w3.org/1999/xlink" width="841.436000mm" height="739.422900mm" viewBox="0 0 8414.36 7394.229" version="1.1">
<g id="surface511">
<path style="fill-rule:evenodd;fill:rgb(94.509804%,94.117647%,91.764706%);fill-opacity:1;stroke-width:0.3;stroke-linecap:butt;stroke-linejoin:miter;stroke:rgb(16.470588%,16.078431%,16.470588%);stroke-opacity:1;stroke-miterlimit:3;" d="M -380.718 -0.000146875 C -391.326594 -0.000146875 -401.500813 4.214306 -409.002375 11.715869 C -416.503547 19.217041 -420.718 29.391259 -420.718 39.999853 C -420.718 47.021337 -418.869563 53.919384 -415.359016 59.999853 L -34.641047 719.4229 C -31.130109 725.503759 -26.080891 730.553369 -20.000031 734.063916 C -13.919172 737.574462 -7.021516 739.4229 -0.00003125 739.4229 C 7.021453 739.4229 13.919109 737.574462 19.999969 734.063916 C 26.080828 730.553369 31.130437 725.503759 34.640984 719.4229 L 415.358953 59.999853 C 418.869891 53.919384 420.717937 47.021337 420.717937 39.999853 C 420.717937 29.391259 416.503875 19.217041 409.002313 11.715869 C 401.50075 4.214306 391.326531 -0.000146875 380.717937 -0.000146875 L -380.718 -0.000146875 " transform="matrix(10,0,0,-10,4207.18,7394.229)"/>
<path style=" stroke:none;fill-rule:evenodd;fill:rgb(73.333333%,11.764706%,6.27451%);fill-opacity:1;" d="M 400 7244.230469 C 261.929688 7244.230469 150 7132.300781 150 6994.230469 C 150 6950.34375 161.550781 6907.234375 183.492188 6869.230469 L 3990.671875 275 C 4035.332031 197.648438 4117.863281 150 4207.179688 150 C 4296.496094 150 4379.027344 197.648438 4423.6875 275 L 8230.867188 6869.230469 C 8252.808594 6907.234375 8264.359375 6950.34375 8264.359375 6994.230469 C 8264.359375 7132.300781 8152.429688 7244.230469 8014.359375 7244.230469 L 400 7244.230469 M 1266.027344 6494.230469 L 4207.179688 1400 L 7148.335938 6494.230469 L 1266.027344 6494.230469 "/>
<path style=" stroke:none;fill-rule:evenodd;fill:rgb(16.470588%,16.078431%,16.470588%);fill-opacity:1;" d="M 5782.179688 4855.59375 L 5654.90625 4982.863281 L 5129.90625 4982.863281 L 4862.640625 5290.4375 C 4706.691406 5469.902344 4620.816406 5699.65625 4620.816406 5937.410156 C 4620.816406 6068.527344 4646.957031 6198.332031 4697.714844 6319.226562 L 4509.453125 6319.230469 L 4420.941406 5699.660156 C 4314.117188 5816.867188 4254.90625 5969.734375 4254.90625 6128.320312 C 4254.90625 6193.078125 4264.792969 6257.453125 4284.21875 6319.230469 L 4095.816406 6319.230469 L 4155.15625 5606.859375 L 3596.222656 5511.425781 C 3507.632812 5623.710938 3459.453125 5762.566406 3459.453125 5905.59375 C 3459.453125 6057.269531 3513.628906 6203.960938 3612.222656 6319.230469 L 3427.632812 6319.230469 L 3145.546875 5637.511719 C 3011.5625 5752.367188 2934.453125 5920.027344 2934.453125 6096.5 C 2934.453125 6172.761719 2948.882812 6248.332031 2976.976562 6319.226562 L 2791.269531 6319.230469 L 2791.269531 4791.957031 C 2791.269531 4739.339844 2807.574219 4688.019531 2837.941406 4645.050781 C 2823.683594 4637.0625 2807.613281 4632.863281 2791.269531 4632.863281 C 2738.550781 4632.863281 2695.816406 4675.601562 2695.816406 4728.320312 L 2695.816406 5377.675781 C 2695.816406 5482.699219 2674.152344 5586.59375 2632.179688 5682.863281 L 2532.179688 5461.496094 C 2574.097656 5439.523438 2600.363281 5396.101562 2600.363281 5348.773438 L 2600.363281 4728.320312 C 2600.363281 4622.882812 2685.835938 4537.410156 2791.269531 4537.410156 L 4445.816406 4537.410156 L 4986.757812 4469.792969 C 4965.867188 4432.058594 4954.90625 4389.632812 4954.90625 4346.5 C 4954.90625 4310.386719 4962.589844 4274.6875 4977.449219 4241.773438 L 5082.179688 4346.5 L 5209.453125 4219.230469 L 5591.269531 4219.230469 L 5294.300781 4367.714844 L 5782.179688 4855.59375 "/>
</g>
</svg>
