<?xml version="1.0" encoding="UTF-8"?>
<svg xmlns="http://www.w3.org/2000/svg" xmlns:xlink="http://www.w3.org/1999/xlink" width="841.436000mm" height="739.422900mm" viewBox="0 0 8414.36 7394.229" version="1.1">
<g id="surface516">
<path style="fill-rule:evenodd;fill:rgb(94.509804%,94.117647%,91.764706%);fill-opacity:1;stroke-width:0.3;stroke-linecap:butt;stroke-linejoin:miter;stroke:rgb(16.470588%,16.078431%,16.470588%);stroke-opacity:1;stroke-miterlimit:3;" d="M -380.718 -0.000146875 C -391.326594 -0.000146875 -401.500813 4.214306 -409.002375 11.715869 C -416.503547 19.217041 -420.718 29.391259 -420.718 39.999853 C -420.718 47.021337 -418.869563 53.919384 -415.359016 59.999853 L -34.641047 719.4229 C -31.130109 725.503759 -26.080891 730.553369 -20.000031 734.063916 C -13.919172 737.574462 -7.021516 739.4229 -0.00003125 739.4229 C 7.021453 739.4229 13.919109 737.574462 19.999969 734.063916 C 26.080828 730.553369 31.130437 725.503759 34.640984 719.4229 L 415.358953 59.999853 C 418.869891 53.919384 420.717937 47.021337 420.717937 39.999853 C 420.717937 29.391259 416.503875 19.217041 409.002313 11.715869 C 401.50075 4.214306 391.326531 -0.000146875 380.717937 -0.000146875 L -380.718 -0.000146875 " transform="matrix(10,0,0,-10,4207.18,7394.229)"/>
<path style=" stroke:none;fill-rule:evenodd;fill:rgb(73.333333%,11.764706%,6.27451%);fill-opacity:1;" d="M 400 7244.230469 C 261.929688 7244.230469 150 7132.300781 150 6994.230469 C 150 6950.34375 161.550781 6907.234375 183.492188 6869.230469 L 3990.671875 275 C 4035.332031 197.648438 4117.863281 150 4207.179688 150 C 4296.496094 150 4379.027344 197.648438 4423.6875 275 L 8230.867188 6869.230469 C 8252.808594 6907.234375 8264.359375 6950.34375 8264.359375 6994.230469 C 8264.359375 7132.300781 8152.429688 7244.230469 8014.359375 7244.230469 L 400 7244.230469 M 1266.027344 6494.230469 L 4207.179688 1400 L 7148.335938 6494.230469 L 1266.027344 6494.230469 "/>
<path style=" stroke:none;fill-rule:evenodd;fill:rgb(16.470588%,16.078431%,16.470588%);fill-opacity:1;" d="M 2757.179688 6294.230469 L 2757.179688 6092.304688 L 3026.410156 6092.304688 L 3026.410156 5957.691406 L 3430.257812 5957.691406 L 3430.257812 6092.304688 L 4036.027344 6092.304688 L 4036.027344 5957.691406 L 6257.179688 5957.691406 L 6257.179688 6092.304688 C 5903.574219 6092.304688 5557.648438 6111.410156 5261.800781 6147.277344 C 4965.949219 6183.140625 4733.03125 6234.214844 4591.589844 6294.230469 L 2757.179688 6294.230469 M 3165.917969 5890.382812 C 3058.8125 5890.382812 2956.089844 5847.835938 2880.355469 5772.097656 C 2804.621094 5696.363281 2762.070312 5593.644531 2762.070312 5486.535156 C 2762.070312 5484.914062 2762.082031 5483.292969 2762.101562 5481.671875 L 2770.054688 4821.980469 C 2770.445312 4789.445312 2773.789062 4757.011719 2780.035156 4725.078125 L 2821.410156 4513.59375 C 2827.933594 4480.246094 2837.597656 4447.59375 2850.277344 4416.066406 L 3046.320312 3928.617188 C 3066.824219 3877.632812 3116.261719 3844.230469 3171.214844 3844.230469 L 3761.332031 3844.230469 C 3743.585938 3776.816406 3707.167969 3715.78125 3656.265625 3668.152344 C 3605.363281 3620.519531 3542.046875 3588.230469 3473.605469 3575 L 3295.640625 3575 C 3273.339844 3575 3255.257812 3556.917969 3255.257812 3534.613281 C 3255.257812 3512.308594 3273.339844 3494.230469 3295.640625 3494.230469 L 4372.566406 3494.230469 C 4394.867188 3494.230469 4412.949219 3512.308594 4412.949219 3534.613281 C 4412.949219 3556.917969 4394.867188 3575 4372.566406 3575 L 4194.601562 3575 C 4126.15625 3588.230469 4062.839844 3620.519531 4011.9375 3668.152344 C 3961.039062 3715.78125 3924.617188 3776.816406 3906.875 3844.230469 L 4237.949219 3844.230469 C 4369.230469 3844.230469 4488.53125 3920.570312 4543.53125 4039.777344 L 4607.335938 4178.074219 C 4901.871094 4816.453125 5507.25 5255.675781 6205.511719 5337.605469 L 6215.554688 5338.78125 C 6239.289062 5341.566406 6257.179688 5361.679688 6257.179688 5385.574219 L 6257.179688 5823.074219 C 6257.179688 5860.25 6227.046875 5890.382812 6189.871094 5890.382812 L 3165.917969 5890.382812 M 3670.285156 3574.996094 L 3997.921875 3574.996094 C 3920.097656 3632.160156 3862.671875 3712.789062 3834.101562 3805.027344 L 3834.105469 3805.027344 C 3805.53125 3712.789062 3748.109375 3632.15625 3670.285156 3574.996094 M 3228.332031 5217.304688 C 3228.332031 5142.960938 3168.0625 5082.691406 3093.71875 5082.691406 C 3019.371094 5082.691406 2959.101562 5142.960938 2959.101562 5217.304688 C 2959.101562 5291.652344 3019.371094 5351.921875 3093.71875 5351.921875 C 3168.0625 5351.921875 3228.332031 5291.652344 3228.332031 5217.304688 M 3766.796875 4786.535156 C 3766.796875 4712.191406 3706.527344 4651.921875 3632.179688 4651.921875 C 3557.835938 4651.921875 3497.566406 4712.191406 3497.566406 4786.535156 C 3497.566406 4860.882812 3557.835938 4921.152344 3632.179688 4921.152344 C 3706.527344 4921.152344 3766.796875 4860.882812 3766.796875 4786.535156 M 4305.257812 5217.304688 C 4305.257812 5142.960938 4244.988281 5082.691406 4170.640625 5082.691406 C 4096.296875 5082.691406 4036.027344 5142.960938 4036.027344 5217.304688 C 4036.027344 5291.652344 4096.296875 5351.921875 4170.640625 5351.921875 C 4244.988281 5351.921875 4305.257812 5291.652344 4305.257812 5217.304688 M 3090.621094 4055.195312 C 3103.234375 4025.242188 3132.566406 4005.769531 3165.0625 4005.769531 L 4206.988281 4005.769531 C 4239.488281 4005.769531 4268.820312 4025.242188 4281.429688 4055.195312 L 4437.523438 4432.117188 C 4441.703125 4442.039062 4443.855469 4452.695312 4443.855469 4463.460938 C 4443.855469 4508.066406 4407.691406 4544.230469 4363.085938 4544.230469 L 3008.96875 4544.230469 C 2964.359375 4544.230469 2928.199219 4508.066406 2928.199219 4463.460938 C 2928.199219 4452.695312 2930.351562 4442.039062 2934.527344 4432.117188 L 3090.625 4055.195312 M 4668.714844 4590.0625 C 4741.929688 4681.085938 4822.972656 4766.3125 4911.019531 4844.886719 L 4911.019531 5312.066406 C 4838.386719 5276.765625 4767.726562 5238.96875 4699.246094 5198.777344 L 4668.71875 4590.0625 M 5032.175781 4945.386719 C 5100.789062 4998.253906 5172.710938 5047.214844 5247.558594 5091.996094 L 5247.558594 5452.644531 C 5174.332031 5426.726562 5102.476562 5398.429688 5032.175781 5367.832031 L 5032.179688 4945.382812 M 5355.25 5152.488281 C 5416.546875 5184.746094 5479.441406 5214.253906 5543.714844 5240.910156 L 5543.714844 5542.558594 C 5480.136719 5526.328125 5417.28125 5508.378906 5355.25 5488.738281 L 5355.257812 5152.484375 M 5637.945312 5277.585938 C 5691.058594 5296.929688 5744.945312 5314.347656 5799.484375 5329.796875 L 5799.484375 5597.851562 C 5745.257812 5588.199219 5691.390625 5577.320312 5637.945312 5565.234375 L 5637.949219 5277.585938 M 5880.253906 5351.125 C 5924.796875 5362.039062 5969.6875 5371.648438 6014.867188 5379.941406 L 6014.867188 5629.539062 C 5969.824219 5624.289062 5924.9375 5618.203125 5880.25 5611.289062 L 5880.257812 5351.125 M 6082.175781 5391.289062 C 6117.945312 5396.789062 6153.851562 5401.460938 6189.867188 5405.308594 L 6189.867188 5645.699219 C 6153.902344 5643.246094 6118 5640.265625 6082.175781 5636.757812 L 6082.179688 5391.289062 "/>
</g>
</svg>
