<?xml version="1.0" encoding="UTF-8"?>
<svg xmlns="http://www.w3.org/2000/svg" xmlns:xlink="http://www.w3.org/1999/xlink" width="300.000000mm" height="1000.000000mm" viewBox="0 0 3000 10000" version="1.1">
<g id="surface581">
<path style="fill-rule:evenodd;fill:rgb(94.509804%,94.117647%,91.764706%);fill-opacity:1;stroke-width:0.3;stroke-linecap:butt;stroke-linejoin:miter;stroke:rgb(16.470588%,16.078431%,16.470588%);stroke-opacity:1;stroke-miterlimit:3;" d="M -110 -500 C -120.608594 -500 -130.782813 -495.785547 -138.284375 -488.284375 C -145.785547 -480.782813 -150 -470.608594 -150 -460 L -150 460 C -150 470.608594 -145.785547 480.782812 -138.284375 488.284375 C -130.782813 495.785547 -120.608594 500 -110 500 L 110 500 C 120.608594 500 130.782813 495.785547 138.284375 488.284375 C 145.785547 480.782812 150 470.608594 150 460 L 150 -460 C 150 -470.608594 145.785547 -480.782813 138.284375 -488.284375 C 130.782813 -495.785547 120.608594 -500 110 -500 L -110 -500 " transform="matrix(10,0,0,-10,1500,5000)"/>
<path style=" stroke:none;fill-rule:evenodd;fill:rgb(16.470588%,16.078431%,16.470588%);fill-opacity:1;" d="M 400 9900 C 234.316406 9900 100 9765.683594 100 9600 L 100 400 C 100 234.316406 234.316406 100 400 100 L 2600 100 C 2765.683594 100 2900 234.316406 2900 400 L 2900 9600 C 2900 9765.683594 2765.683594 9900 2600 9900 L 400 9900 M 2600 9750 C 2682.84375 9750 2750 9682.84375 2750 9600 L 2750 400 C 2750 317.15625 2682.84375 250 2600 250 L 400 250 C 317.15625 250 250 317.15625 250 400 L 250 9600 C 250 9682.84375 317.15625 9750 400 9750 L 2600 9750 "/>
<path style=" stroke:none;fill-rule:evenodd;fill:rgb(73.333333%,11.764706%,6.27451%);fill-opacity:1;" d="M 2750 9400 L 2750 8350 L 250 6900 L 250 7950 L 2750 9400 M 2750 7200 L 2750 6150 L 250 4700 L 250 5750 L 2750 7200 M 2750 5000 L 2750 3950 L 250 2500 L 250 3550 L 2750 5000 "/>
</g>
</svg>
