<?xml version="1.0" encoding="UTF-8"?>
<svg xmlns="http://www.w3.org/2000/svg" xmlns:xlink="http://www.w3.org/1999/xlink" width="830.884600mm" height="1259.134200mm" viewBox="0 0 8308.846 12591.342" version="1.1">
<g id="surface646">
<path style="fill-rule:evenodd;fill:rgb(94.509804%,94.117647%,91.764706%);fill-opacity:1;stroke-width:0.3;stroke-linecap:butt;stroke-linejoin:miter;stroke:rgb(16.470588%,16.078431%,16.470588%);stroke-opacity:1;stroke-miterlimit:3;" d="M -415.4423 -539.567275 L -103.923159 -0.0000875 L -415.4423 539.5671 L -259.557534 629.5671 L -0.0001125 179.999913 L 259.5577 629.5671 L 415.442466 539.5671 L 103.922934 -0.0000875 L 415.442466 -539.567275 L 259.5577 -629.567275 L -0.0001125 -180.000087 L -259.557534 -629.567275 L -415.4423 -539.567275 " transform="matrix(10,0,0,-10,4154.423,6295.671)"/>
<path style=" stroke:none;fill-rule:evenodd;fill:rgb(73.333333%,11.764706%,6.27451%);fill-opacity:1;" d="M 0 11691.34375 L 1500 9093.265625 L 3058.847656 9993.265625 L 1558.847656 12591.34375 L 0 11691.34375 "/>
<path style=" stroke:none;fill-rule:evenodd;fill:rgb(73.333333%,11.764706%,6.27451%);fill-opacity:1;" d="M 0 900 L 1558.847656 0 L 3058.847656 2598.074219 L 1500 3498.074219 L 0 900 "/>
<path style=" stroke:none;fill-rule:evenodd;fill:rgb(73.333333%,11.764706%,6.27451%);fill-opacity:1;" d="M 8308.847656 900 L 6750 0 L 5250 2598.074219 L 6808.847656 3498.074219 L 8308.847656 900 "/>
<path style=" stroke:none;fill-rule:evenodd;fill:rgb(73.333333%,11.764706%,6.27451%);fill-opacity:1;" d="M 8308.847656 11691.34375 L 6808.847656 9093.265625 L 5250 9993.265625 L 6750 12591.34375 L 8308.847656 11691.34375 "/>
<path style=" stroke:none;fill-rule:evenodd;fill:rgb(73.333333%,11.764706%,6.27451%);fill-opacity:1;" d="M 3954.421875 5295.671875 L 4338.199219 5320.84375 L 4019.488281 6157.816406 L 4554.421875 5965.085938 L 4264.476562 6850.769531 L 4478.105469 6823.152344 L 4067.34375 7295.671875 L 3935.785156 6683.550781 L 4109.527344 6810.882812 L 4217.585938 6270.765625 L 3804.421875 6391.585938 L 3954.421875 5295.671875 "/>
</g>
</svg>
