<?xml version="1.0" encoding="UTF-8"?>
<svg xmlns="http://www.w3.org/2000/svg" xmlns:xlink="http://www.w3.org/1999/xlink" width="1259.134200mm" height="830.884600mm" viewBox="0 0 12591.342 8308.846" version="1.1">
<g id="surface656">
<path style="fill-rule:evenodd;fill:rgb(94.509804%,94.117647%,91.764706%);fill-opacity:1;stroke-width:0.3;stroke-linecap:butt;stroke-linejoin:miter;stroke:rgb(16.470588%,16.078431%,16.470588%);stroke-opacity:1;stroke-miterlimit:3;" d="M -539.5671 415.4423 L 0.0000875 103.923159 L 539.567275 415.4423 L 629.567275 259.557534 L 180.000087 0.0001125 L 629.567275 -259.5577 L 539.567275 -415.442466 L 0.0000875 -103.922934 L -539.5671 -415.442466 L -629.5671 -259.5577 L -179.999913 0.0001125 L -629.5671 259.557534 L -539.5671 415.4423 " transform="matrix(10,0,0,-10,6295.671,4154.423)"/>
<path style=" stroke:none;fill-rule:evenodd;fill:rgb(73.333333%,11.764706%,6.27451%);fill-opacity:1;" d="M 900 0 L 3498.074219 1500 L 2598.074219 3058.847656 L 0 1558.847656 L 900 0 "/>
<path style=" stroke:none;fill-rule:evenodd;fill:rgb(73.333333%,11.764706%,6.27451%);fill-opacity:1;" d="M 11691.34375 0 L 12591.34375 1558.847656 L 9993.265625 3058.847656 L 9093.265625 1500 L 11691.34375 0 "/>
<path style=" stroke:none;fill-rule:evenodd;fill:rgb(73.333333%,11.764706%,6.27451%);fill-opacity:1;" d="M 11691.34375 8308.847656 L 12591.34375 6750 L 9993.265625 5250 L 9093.265625 6808.847656 L 11691.34375 8308.847656 "/>
<path style=" stroke:none;fill-rule:evenodd;fill:rgb(73.333333%,11.764706%,6.27451%);fill-opacity:1;" d="M 900 8308.847656 L 3498.074219 6808.847656 L 2598.074219 5250 L 0 6750 L 900 8308.847656 "/>
<path style=" stroke:none;fill-rule:evenodd;fill:rgb(73.333333%,11.764706%,6.27451%);fill-opacity:1;" d="M 6165.671875 3354.421875 L 6472.691406 3374.5625 L 6217.722656 4044.140625 L 6645.671875 3889.957031 L 6413.714844 4598.5 L 6584.617188 4576.40625 L 6256.007812 4954.421875 L 6150.761719 4464.726562 L 6289.757812 4566.59375 L 6376.199219 4134.5 L 6045.671875 4231.152344 L 6165.671875 3354.421875 "/>
</g>
</svg>
