<?xml version="1.0" encoding="UTF-8"?>
<svg xmlns="http://www.w3.org/2000/svg" xmlns:xlink="http://www.w3.org/1999/xlink" width="1200.000000mm" height="1600.000000mm" viewBox="0 0 12000 16000" version="1.1">
<g id="surface1">
<path style="fill-rule:evenodd;fill:rgb(94.509804%,94.117647%,91.764706%);fill-opacity:1;stroke-width:0.3;stroke-linecap:butt;stroke-linejoin:miter;stroke:rgb(16.470588%,16.078431%,16.470588%);stroke-opacity:1;stroke-miterlimit:3;" d="M -540 -800 C -555.912891 -800 -571.174219 -793.678516 -582.426563 -782.426563 C -593.678516 -771.174219 -600 -755.912891 -600 -740 L -600 740 C -600 755.912891 -593.678516 771.174219 -582.426563 782.426563 C -571.174219 793.678516 -555.912891 800 -540 800 L 540 800 C 555.912891 800 571.174219 793.678516 582.426563 782.426563 C 593.678516 771.174219 600 755.912891 600 740 L 600 -740 C 600 -755.912891 593.678516 -771.174219 582.426563 -782.426563 C 571.174219 -793.678516 555.912891 -800 540 -800 L -540 -800 " transform="matrix(10,0,0,-10,6000,8000)"/>
<path style=" stroke:none;fill-rule:evenodd;fill:rgb(16.470588%,16.078431%,16.470588%);fill-opacity:1;" d="M 600 15850 C 480.652344 15850 366.191406 15802.589844 281.800781 15718.199219 C 197.410156 15633.808594 150 15519.347656 150 15400 L 150 600 C 150 480.652344 197.410156 366.191406 281.800781 281.800781 C 366.191406 197.410156 480.652344 150 600 150 L 11400 150 C 11519.347656 150 11633.808594 197.410156 11718.199219 281.800781 C 11802.589844 366.191406 11850 480.652344 11850 600 L 11850 15400 C 11850 15519.347656 11802.589844 15633.808594 11718.199219 15718.199219 C 11633.808594 15802.589844 11519.347656 15850 11400 15850 L 600 15850 M 600 15650 C 461.929688 15650 350 15538.070312 350 15400 L 350 600 C 350 461.929688 461.929688 350 600 350 L 11400 350 C 11538.070312 350 11650 461.929688 11650 600 L 11650 15400 C 11650 15538.070312 11538.070312 15650 11400 15650 L 600 15650 "/>
<path style=" stroke:none;fill-rule:evenodd;fill:rgb(16.470588%,16.078431%,16.470588%);fill-opacity:1;" d="M 3600 2980 L 3150 3096.191406 C 3140.199219 3098.71875 3130.121094 3100 3120 3100 C 3053.726562 3100 3000 3046.273438 3000 2980 C 3000 2956.226562 3007.0625 2932.988281 3020.289062 2913.234375 L 3900 1600 L 4779.710938 2913.234375 C 4792.9375 2932.988281 4800 2956.226562 4800 2980 C 4800 3046.273438 4746.273438 3100 4680 3100 C 4669.878906 3100 4659.800781 3098.71875 4650 3096.191406 L 4200 2980 L 4200 14400 L 3600 14400 L 3600 2980 "/>
<path style=" stroke:none;fill-rule:evenodd;fill:rgb(16.470588%,16.078431%,16.470588%);fill-opacity:1;" d="M 7800 2980 L 7350 3096.191406 C 7340.199219 3098.71875 7330.121094 3100 7320 3100 C 7253.726562 3100 7200 3046.273438 7200 2980 C 7200 2956.226562 7207.0625 2932.988281 7220.289062 2913.234375 L 8100 1600 L 8979.710938 2913.234375 C 8992.9375 2932.988281 9000 2956.226562 9000 2980 C 9000 3046.273438 8946.273438 3100 8880 3100 C 8869.878906 3100 8859.800781 3098.71875 8850 3096.191406 L 8400 2980 L 8400 14400 L 7800 14400 L 7800 2980 "/>
</g>
</svg>
