<?xml version="1.0" encoding="UTF-8"?>
<svg xmlns="http://www.w3.org/2000/svg" xmlns:xlink="http://www.w3.org/1999/xlink" width="1200.000000mm" height="1600.000000mm" viewBox="0 0 12000 16000" version="1.1">
<g id="surface6">
<path style="fill-rule:evenodd;fill:rgb(94.509804%,94.117647%,91.764706%);fill-opacity:1;stroke-width:0.3;stroke-linecap:butt;stroke-linejoin:miter;stroke:rgb(16.470588%,16.078431%,16.470588%);stroke-opacity:1;stroke-miterlimit:3;" d="M -540 -800 C -555.912891 -800 -571.174219 -793.678516 -582.426563 -782.426563 C -593.678516 -771.174219 -600 -755.912891 -600 -740 L -600 740 C -600 755.912891 -593.678516 771.174219 -582.426563 782.426563 C -571.174219 793.678516 -555.912891 800 -540 800 L 540 800 C 555.912891 800 571.174219 793.678516 582.426563 782.426563 C 593.678516 771.174219 600 755.912891 600 740 L 600 -740 C 600 -755.912891 593.678516 -771.174219 582.426563 -782.426563 C 571.174219 -793.678516 555.912891 -800 540 -800 L -540 -800 " transform="matrix(10,0,0,-10,6000,8000)"/>
<path style=" stroke:none;fill-rule:evenodd;fill:rgb(16.470588%,16.078431%,16.470588%);fill-opacity:1;" d="M 600 15850 C 480.652344 15850 366.191406 15802.589844 281.800781 15718.199219 C 197.410156 15633.808594 150 15519.347656 150 15400 L 150 600 C 150 480.652344 197.410156 366.191406 281.800781 281.800781 C 366.191406 197.410156 480.652344 150 600 150 L 11400 150 C 11519.347656 150 11633.808594 197.410156 11718.199219 281.800781 C 11802.589844 366.191406 11850 480.652344 11850 600 L 11850 15400 C 11850 15519.347656 11802.589844 15633.808594 11718.199219 15718.199219 C 11633.808594 15802.589844 11519.347656 15850 11400 15850 L 600 15850 M 600 15650 C 461.929688 15650 350 15538.070312 350 15400 L 350 600 C 350 461.929688 461.929688 350 600 350 L 11400 350 C 11538.070312 350 11650 461.929688 11650 600 L 11650 15400 C 11650 15538.070312 11538.070312 15650 11400 15650 L 600 15650 "/>
<path style=" stroke:none;fill-rule:evenodd;fill:rgb(16.470588%,16.078431%,16.470588%);fill-opacity:1;" d="M 2400 2980 L 1950 3096.191406 C 1940.199219 3098.71875 1930.121094 3100 1920 3100 C 1853.726562 3100 1800 3046.273438 1800 2980 C 1800 2956.226562 1807.0625 2932.988281 1820.289062 2913.234375 L 2700 1600 L 3579.710938 2913.234375 C 3592.9375 2932.988281 3600 2956.226562 3600 2980 C 3600 3046.273438 3546.273438 3100 3480 3100 C 3469.878906 3100 3459.800781 3098.71875 3450 3096.191406 L 3000 2980 L 3000 14400 L 2400 14400 L 2400 2980 "/>
<path style=" stroke:none;fill-rule:evenodd;fill:rgb(16.470588%,16.078431%,16.470588%);fill-opacity:1;" d="M 5700 2980 L 5250 3096.191406 C 5240.199219 3098.71875 5230.121094 3100 5220 3100 C 5153.726562 3100 5100 3046.273438 5100 2980 C 5100 2956.226562 5107.0625 2932.988281 5120.289062 2913.234375 L 6000 1600 L 6879.710938 2913.234375 C 6892.9375 2932.988281 6900 2956.226562 6900 2980 C 6900 3046.273438 6846.273438 3100 6780 3100 C 6769.878906 3100 6759.800781 3098.71875 6750 3096.191406 L 6300 2980 L 6300 14400 L 5700 14400 L 5700 2980 "/>
<path style=" stroke:none;fill-rule:evenodd;fill:rgb(16.470588%,16.078431%,16.470588%);fill-opacity:1;" d="M 9000 2980 L 8550 3096.191406 C 8540.199219 3098.71875 8530.121094 3100 8520 3100 C 8453.726562 3100 8400 3046.273438 8400 2980 C 8400 2956.226562 8407.0625 2932.988281 8420.289062 2913.234375 L 9300 1600 L 10179.710938 2913.234375 C 10192.9375 2932.988281 10200 2956.226562 10200 2980 C 10200 3046.273438 10146.273438 3100 10080 3100 C 10069.878906 3100 10059.800781 3098.71875 10050 3096.191406 L 9600 2980 L 9600 14400 L 9000 14400 L 9000 2980 "/>
</g>
</svg>
