<?xml version="1.0" encoding="UTF-8"?>
<svg xmlns="http://www.w3.org/2000/svg" xmlns:xlink="http://www.w3.org/1999/xlink" width="1200.000000mm" height="1600.000000mm" viewBox="0 0 12000 16000" version="1.1">
<g id="surface21">
<path style="fill-rule:evenodd;fill:rgb(94.509804%,94.117647%,91.764706%);fill-opacity:1;stroke-width:0.3;stroke-linecap:butt;stroke-linejoin:miter;stroke:rgb(16.470588%,16.078431%,16.470588%);stroke-opacity:1;stroke-miterlimit:3;" d="M -540 -800 C -555.912891 -800 -571.174219 -793.678516 -582.426563 -782.426563 C -593.678516 -771.174219 -600 -755.912891 -600 -740 L -600 740 C -600 755.912891 -593.678516 771.174219 -582.426563 782.426563 C -571.174219 793.678516 -555.912891 800 -540 800 L 540 800 C 555.912891 800 571.174219 793.678516 582.426563 782.426563 C 593.678516 771.174219 600 755.912891 600 740 L 600 -740 C 600 -755.912891 593.678516 -771.174219 582.426563 -782.426563 C 571.174219 -793.678516 555.912891 -800 540 -800 L -540 -800 " transform="matrix(10,0,0,-10,6000,8000)"/>
<path style=" stroke:none;fill-rule:evenodd;fill:rgb(16.470588%,16.078431%,16.470588%);fill-opacity:1;" d="M 600 15850 C 480.652344 15850 366.191406 15802.589844 281.800781 15718.199219 C 197.410156 15633.808594 150 15519.347656 150 15400 L 150 600 C 150 480.652344 197.410156 366.191406 281.800781 281.800781 C 366.191406 197.410156 480.652344 150 600 150 L 11400 150 C 11519.347656 150 11633.808594 197.410156 11718.199219 281.800781 C 11802.589844 366.191406 11850 480.652344 11850 600 L 11850 15400 C 11850 15519.347656 11802.589844 15633.808594 11718.199219 15718.199219 C 11633.808594 15802.589844 11519.347656 15850 11400 15850 L 600 15850 M 600 15650 C 461.929688 15650 350 15538.070312 350 15400 L 350 600 C 350 461.929688 461.929688 350 600 350 L 11400 350 C 11538.070312 350 11650 461.929688 11650 600 L 11650 15400 C 11650 15538.070312 11538.070312 15650 11400 15650 L 600 15650 "/>
<path style=" stroke:none;fill-rule:evenodd;fill:rgb(16.470588%,16.078431%,16.470588%);fill-opacity:1;" d="M 3600 2980 L 3150 3096.191406 C 3140.199219 3098.71875 3130.121094 3100 3120 3100 C 3053.726562 3100 3000 3046.273438 3000 2980 C 3000 2956.226562 3007.0625 2932.988281 3020.289062 2913.234375 L 3900 1600 L 4779.710938 2913.234375 C 4792.9375 2932.988281 4800 2956.226562 4800 2980 C 4800 3046.273438 4746.273438 3100 4680 3100 C 4669.878906 3100 4659.800781 3098.71875 4650 3096.191406 L 4200 2980 L 4200 14400 L 3600 14400 L 3600 2980 "/>
<path style=" stroke:none;fill-rule:evenodd;fill:rgb(16.470588%,16.078431%,16.470588%);fill-opacity:1;" d="M 7800 2980 L 7350 3096.191406 C 7340.199219 3098.71875 7330.121094 3100 7320 3100 C 7253.726562 3100 7200 3046.273438 7200 2980 C 7200 2956.226562 7207.0625 2932.988281 7220.289062 2913.234375 L 8100 1600 L 8979.710938 2913.234375 C 8992.9375 2932.988281 9000 2956.226562 9000 2980 C 9000 3046.273438 8946.273438 3100 8880 3100 C 8869.878906 3100 8859.800781 3098.71875 8850 3096.191406 L 8400 2980 L 8400 14400 L 7800 14400 L 7800 2980 "/>
<path style=" stroke:none;fill-rule:evenodd;fill:rgb(94.509804%,94.117647%,91.764706%);fill-opacity:1;" d="M 6300 8300 C 6300 7663.480469 6047.144531 7053.03125 5597.054688 6602.945312 C 5146.96875 6152.855469 4536.519531 5900 3900 5900 C 3263.480469 5900 2653.03125 6152.855469 2202.945312 6602.945312 C 1752.855469 7053.03125 1500 7663.480469 1500 8300 C 1500 8936.519531 1752.855469 9546.96875 2202.945312 9997.054688 C 2653.03125 10447.144531 3263.480469 10700 3900 10700 C 4536.519531 10700 5146.96875 10447.144531 5597.054688 9997.054688 C 6047.144531 9546.96875 6300 8936.519531 6300 8300 "/>
<path style=" stroke:none;fill-rule:evenodd;fill:rgb(73.333333%,11.764706%,6.27451%);fill-opacity:1;" d="M 6180 8300 C 6180 7695.304688 5939.785156 7115.378906 5512.203125 6687.796875 C 5084.621094 6260.214844 4504.695312 6020 3900 6020 C 3295.304688 6020 2715.378906 6260.214844 2287.796875 6687.796875 C 1860.214844 7115.378906 1620 7695.304688 1620 8300 C 1620 8904.695312 1860.214844 9484.621094 2287.796875 9912.203125 C 2715.378906 10339.785156 3295.304688 10580 3900 10580 C 4504.695312 10580 5084.621094 10339.785156 5512.203125 9912.203125 C 5939.785156 9484.621094 6180 8904.695312 6180 8300 M 5580 8300 C 5580 7854.4375 5403 7427.121094 5087.9375 7112.0625 C 4772.878906 6797 4345.5625 6620 3900 6620 C 3454.4375 6620 3027.121094 6797 2712.0625 7112.0625 C 2397 7427.121094 2220 7854.4375 2220 8300 C 2220 8745.5625 2397 9172.878906 2712.0625 9487.9375 C 3027.121094 9803 3454.4375 9980 3900 9980 C 4345.5625 9980 4772.878906 9803 5087.9375 9487.9375 C 5403 9172.878906 5580 8745.5625 5580 8300 "/>
<path style=" stroke:none;fill-rule:evenodd;fill:rgb(16.470588%,16.078431%,16.470588%);fill-opacity:1;" d="M 3260 7884 L 2705.40625 7918.660156 C 2680.234375 7920.234375 2658.332031 7936.449219 2649.476562 7960.066406 L 2508.300781 8336.535156 C 2497.519531 8365.277344 2492 8395.722656 2492 8426.421875 L 2492 8780 C 2492 8815.347656 2520.652344 8844 2556 8844 L 2588 8844 C 2588 8684.941406 2716.941406 8556 2876 8556 C 3035.058594 8556 3164 8684.941406 3164 8844 L 4316 8844 C 4316 8757.007812 4355.320312 8674.675781 4422.980469 8620 L 3260 8620 L 3260 7884 M 3036 8316 L 3036 7996 L 2712.625 8016.210938 C 2700.035156 8016.996094 2689.085938 8025.101562 2684.65625 8036.910156 L 2577.386719 8322.972656 C 2576.039062 8326.566406 2575.347656 8330.371094 2575.347656 8334.210938 C 2575.347656 8351.882812 2589.675781 8366.210938 2607.347656 8366.210938 C 2608.597656 8366.210938 2609.847656 8366.136719 2611.089844 8365.992188 L 3036 8316 M 3100 8844 C 3100 8720.289062 2999.710938 8620 2876 8620 C 2752.289062 8620 2652 8720.289062 2652 8844 C 2652 8967.710938 2752.289062 9068 2876 9068 C 2999.710938 9068 3100 8967.710938 3100 8844 M 4828 8844 C 4828 8720.289062 4727.710938 8620 4604 8620 C 4480.289062 8620 4380 8720.289062 4380 8844 C 4380 8967.710938 4480.289062 9068 4604 9068 C 4727.710938 9068 4828 8967.710938 4828 8844 M 5052 8844 L 5244 8780 L 5244 8620 L 4785.019531 8620 C 4852.679688 8674.675781 4892 8757.007812 4892 8844 L 5052 8844 M 5244 8556 L 5244 7660 L 3388 7660 L 3388 8556 L 5244 8556 "/>
</g>
</svg>
