<?xml version="1.0" encoding="UTF-8"?>
<svg xmlns="http://www.w3.org/2000/svg" xmlns:xlink="http://www.w3.org/1999/xlink" width="1200.000000mm" height="1600.000000mm" viewBox="0 0 12000 16000" version="1.1">
<g id="surface101">
<path style="fill-rule:evenodd;fill:rgb(94.509804%,94.117647%,91.764706%);fill-opacity:1;stroke-width:0.3;stroke-linecap:butt;stroke-linejoin:miter;stroke:rgb(16.470588%,16.078431%,16.470588%);stroke-opacity:1;stroke-miterlimit:3;" d="M -540 -800 C -555.912891 -800 -571.174219 -793.678516 -582.426563 -782.426563 C -593.678516 -771.174219 -600 -755.912891 -600 -740 L -600 740 C -600 755.912891 -593.678516 771.174219 -582.426563 782.426563 C -571.174219 793.678516 -555.912891 800 -540 800 L 540 800 C 555.912891 800 571.174219 793.678516 582.426563 782.426563 C 593.678516 771.174219 600 755.912891 600 740 L 600 -740 C 600 -755.912891 593.678516 -771.174219 582.426563 -782.426563 C 571.174219 -793.678516 555.912891 -800 540 -800 L -540 -800 " transform="matrix(10,0,0,-10,6000,8000)"/>
<path style=" stroke:none;fill-rule:evenodd;fill:rgb(16.470588%,16.078431%,16.470588%);fill-opacity:1;" d="M 600 15850 C 480.652344 15850 366.191406 15802.589844 281.800781 15718.199219 C 197.410156 15633.808594 150 15519.347656 150 15400 L 150 600 C 150 480.652344 197.410156 366.191406 281.800781 281.800781 C 366.191406 197.410156 480.652344 150 600 150 L 11400 150 C 11519.347656 150 11633.808594 197.410156 11718.199219 281.800781 C 11802.589844 366.191406 11850 480.652344 11850 600 L 11850 15400 C 11850 15519.347656 11802.589844 15633.808594 11718.199219 15718.199219 C 11633.808594 15802.589844 11519.347656 15850 11400 15850 L 600 15850 M 600 15650 C 461.929688 15650 350 15538.070312 350 15400 L 350 600 C 350 461.929688 461.929688 350 600 350 L 11400 350 C 11538.070312 350 11650 461.929688 11650 600 L 11650 15400 C 11650 15538.070312 11538.070312 15650 11400 15650 L 600 15650 "/>
<path style=" stroke:none;fill-rule:evenodd;fill:rgb(16.470588%,16.078431%,16.470588%);fill-opacity:1;" d="M 2200 13020 L 2650 12903.808594 C 2659.800781 12901.28125 2669.878906 12900 2680 12900 C 2746.273438 12900 2800 12953.726562 2800 13020 C 2800 13043.773438 2792.9375 13067.011719 2779.710938 13086.765625 L 1900 14400 L 1020.289062 13086.765625 C 1007.0625 13067.011719 1000 13043.773438 1000 13020 C 1000 12953.726562 1053.726562 12900 1120 12900 C 1130.121094 12900 1140.199219 12901.28125 1150 12903.808594 L 1600 13020 L 1600 3200 L 2200 3200 L 2200 13020 "/>
<path style=" stroke:none;fill-rule:evenodd;fill:rgb(16.470588%,16.078431%,16.470588%);fill-opacity:1;" d="M 4800 13020 L 5250 12903.808594 C 5259.800781 12901.28125 5269.878906 12900 5280 12900 C 5346.273438 12900 5400 12953.726562 5400 13020 C 5400 13043.773438 5392.9375 13067.011719 5379.710938 13086.765625 L 4500 14400 L 3620.289062 13086.765625 C 3607.0625 13067.011719 3600 13043.773438 3600 13020 C 3600 12953.726562 3653.726562 12900 3720 12900 C 3730.121094 12900 3740.199219 12901.28125 3750 12903.808594 L 4200 13020 L 4200 3200 L 4800 3200 L 4800 13020 "/>
<path style=" stroke:none;fill-rule:evenodd;fill:rgb(16.470588%,16.078431%,16.470588%);fill-opacity:1;" d="M 7400 13020 L 7850 12903.808594 C 7859.800781 12901.28125 7869.878906 12900 7880 12900 C 7946.273438 12900 8000 12953.726562 8000 13020 C 8000 13043.773438 7992.9375 13067.011719 7979.710938 13086.765625 L 7100 14400 L 6220.289062 13086.765625 C 6207.0625 13067.011719 6200 13043.773438 6200 13020 C 6200 12953.726562 6253.726562 12900 6320 12900 C 6330.121094 12900 6340.199219 12901.28125 6350 12903.808594 L 6800 13020 L 6800 3200 L 7400 3200 L 7400 13020 "/>
<path style=" stroke:none;fill-rule:evenodd;fill:rgb(16.470588%,16.078431%,16.470588%);fill-opacity:1;" d="M 9800 2980 L 9350 3096.191406 C 9340.199219 3098.71875 9330.121094 3100 9320 3100 C 9253.726562 3100 9200 3046.273438 9200 2980 C 9200 2956.226562 9207.0625 2932.988281 9220.289062 2913.234375 L 10100 1600 L 10979.710938 2913.234375 C 10992.9375 2932.988281 11000 2956.226562 11000 2980 C 11000 3046.273438 10946.273438 3100 10880 3100 C 10869.878906 3100 10859.800781 3098.71875 10850 3096.191406 L 10400 2980 L 10400 12800 L 9800 12800 L 9800 2980 "/>
</g>
</svg>
