<?xml version="1.0" encoding="UTF-8"?>
<svg xmlns="http://www.w3.org/2000/svg" xmlns:xlink="http://www.w3.org/1999/xlink" width="1200.000000mm" height="1600.000000mm" viewBox="0 0 12000 16000" version="1.1">
<g id="surface146">
<path style="fill-rule:evenodd;fill:rgb(94.509804%,94.117647%,91.764706%);fill-opacity:1;stroke-width:0.3;stroke-linecap:butt;stroke-linejoin:miter;stroke:rgb(16.470588%,16.078431%,16.470588%);stroke-opacity:1;stroke-miterlimit:3;" d="M -540 -800 C -555.912891 -800 -571.174219 -793.678516 -582.426563 -782.426563 C -593.678516 -771.174219 -600 -755.912891 -600 -740 L -600 740 C -600 755.912891 -593.678516 771.174219 -582.426563 782.426563 C -571.174219 793.678516 -555.912891 800 -540 800 L 540 800 C 555.912891 800 571.174219 793.678516 582.426563 782.426563 C 593.678516 771.174219 600 755.912891 600 740 L 600 -740 C 600 -755.912891 593.678516 -771.174219 582.426563 -782.426563 C 571.174219 -793.678516 555.912891 -800 540 -800 L -540 -800 " transform="matrix(10,0,0,-10,6000,8000)"/>
<path style=" stroke:none;fill-rule:evenodd;fill:rgb(16.470588%,16.078431%,16.470588%);fill-opacity:1;" d="M 600 15850 C 480.652344 15850 366.191406 15802.589844 281.800781 15718.199219 C 197.410156 15633.808594 150 15519.347656 150 15400 L 150 600 C 150 480.652344 197.410156 366.191406 281.800781 281.800781 C 366.191406 197.410156 480.652344 150 600 150 L 11400 150 C 11519.347656 150 11633.808594 197.410156 11718.199219 281.800781 C 11802.589844 366.191406 11850 480.652344 11850 600 L 11850 15400 C 11850 15519.347656 11802.589844 15633.808594 11718.199219 15718.199219 C 11633.808594 15802.589844 11519.347656 15850 11400 15850 L 600 15850 M 600 15650 C 461.929688 15650 350 15538.070312 350 15400 L 350 600 C 350 461.929688 461.929688 350 600 350 L 11400 350 C 11538.070312 350 11650 461.929688 11650 600 L 11650 15400 C 11650 15538.070312 11538.070312 15650 11400 15650 L 600 15650 "/>
<path style=" stroke:none;fill-rule:evenodd;fill:rgb(16.470588%,16.078431%,16.470588%);fill-opacity:1;" d="M 1900 13020 L 2350 12903.808594 C 2359.800781 12901.28125 2369.878906 12900 2380 12900 C 2446.273438 12900 2500 12953.726562 2500 13020 C 2500 13043.773438 2492.9375 13067.011719 2479.710938 13086.765625 L 1600 14400 L 720.289062 13086.765625 C 707.0625 13067.011719 700 13043.773438 700 13020 C 700 12953.726562 753.726562 12900 820 12900 C 830.121094 12900 840.199219 12901.28125 850 12903.808594 L 1300 13020 L 1300 3200 L 1900 3200 L 1900 13020 "/>
<path style=" stroke:none;fill-rule:evenodd;fill:rgb(16.470588%,16.078431%,16.470588%);fill-opacity:1;" d="M 4000 13020 L 4450 12903.808594 C 4459.800781 12901.28125 4469.878906 12900 4480 12900 C 4546.273438 12900 4600 12953.726562 4600 13020 C 4600 13043.773438 4592.9375 13067.011719 4579.710938 13086.765625 L 3700 14400 L 2820.289062 13086.765625 C 2807.0625 13067.011719 2800 13043.773438 2800 13020 C 2800 12953.726562 2853.726562 12900 2920 12900 C 2930.121094 12900 2940.199219 12901.28125 2950 12903.808594 L 3400 13020 L 3400 3200 L 4000 3200 L 4000 13020 "/>
<path style=" stroke:none;fill-rule:evenodd;fill:rgb(16.470588%,16.078431%,16.470588%);fill-opacity:1;" d="M 5900 2980 L 5450 3096.191406 C 5440.199219 3098.71875 5430.121094 3100 5420 3100 C 5353.726562 3100 5300 3046.273438 5300 2980 C 5300 2956.226562 5307.0625 2932.988281 5320.289062 2913.234375 L 6200 1600 L 7079.710938 2913.234375 C 7092.9375 2932.988281 7100 2956.226562 7100 2980 C 7100 3046.273438 7046.273438 3100 6980 3100 C 6969.878906 3100 6959.800781 3098.71875 6950 3096.191406 L 6500 2980 L 6500 12800 L 5900 12800 L 5900 2980 "/>
<path style=" stroke:none;fill-rule:evenodd;fill:rgb(16.470588%,16.078431%,16.470588%);fill-opacity:1;" d="M 8000 2980 L 7550 3096.191406 C 7540.199219 3098.71875 7530.121094 3100 7520 3100 C 7453.726562 3100 7400 3046.273438 7400 2980 C 7400 2956.226562 7407.0625 2932.988281 7420.289062 2913.234375 L 8300 1600 L 9179.710938 2913.234375 C 9192.9375 2932.988281 9200 2956.226562 9200 2980 C 9200 3046.273438 9146.273438 3100 9080 3100 C 9069.878906 3100 9059.800781 3098.71875 9050 3096.191406 L 8600 2980 L 8600 12800 L 8000 12800 L 8000 2980 "/>
<path style=" stroke:none;fill-rule:evenodd;fill:rgb(16.470588%,16.078431%,16.470588%);fill-opacity:1;" d="M 10100 2980 L 9650 3096.191406 C 9640.199219 3098.71875 9630.121094 3100 9620 3100 C 9553.726562 3100 9500 3046.273438 9500 2980 C 9500 2956.226562 9507.0625 2932.988281 9520.289062 2913.234375 L 10400 1600 L 11279.710938 2913.234375 C 11292.9375 2932.988281 11300 2956.226562 11300 2980 C 11300 3046.273438 11246.273438 3100 11180 3100 C 11169.878906 3100 11159.800781 3098.71875 11150 3096.191406 L 10700 2980 L 10700 12800 L 10100 12800 L 10100 2980 "/>
<path style=" stroke:none;fill-rule:evenodd;fill:rgb(94.509804%,94.117647%,91.764706%);fill-opacity:1;" d="M 9650 7500 C 9650 6863.480469 9397.144531 6253.03125 8947.054688 5802.945312 C 8496.96875 5352.855469 7886.519531 5100 7250 5100 C 6613.480469 5100 6003.03125 5352.855469 5552.945312 5802.945312 C 5102.855469 6253.03125 4850 6863.480469 4850 7500 C 4850 8136.519531 5102.855469 8746.96875 5552.945312 9197.054688 C 6003.03125 9647.144531 6613.480469 9900 7250 9900 C 7886.519531 9900 8496.96875 9647.144531 8947.054688 9197.054688 C 9397.144531 8746.96875 9650 8136.519531 9650 7500 "/>
<path style=" stroke:none;fill-rule:evenodd;fill:rgb(73.333333%,11.764706%,6.27451%);fill-opacity:1;" d="M 9530 7500 C 9530 6895.304688 9289.785156 6315.378906 8862.203125 5887.796875 C 8434.621094 5460.214844 7854.695312 5220 7250 5220 C 6645.304688 5220 6065.378906 5460.214844 5637.796875 5887.796875 C 5210.214844 6315.378906 4970 6895.304688 4970 7500 C 4970 8104.695312 5210.214844 8684.621094 5637.796875 9112.203125 C 6065.378906 9539.785156 6645.304688 9780 7250 9780 C 7854.695312 9780 8434.621094 9539.785156 8862.203125 9112.203125 C 9289.785156 8684.621094 9530 8104.695312 9530 7500 M 8930 7500 C 8930 7054.4375 8753 6627.121094 8437.9375 6312.0625 C 8122.878906 5997 7695.5625 5820 7250 5820 C 6804.4375 5820 6377.121094 5997 6062.0625 6312.0625 C 5747 6627.121094 5570 7054.4375 5570 7500 C 5570 7945.5625 5747 8372.878906 6062.0625 8687.9375 C 6377.121094 9003 6804.4375 9180 7250 9180 C 7695.5625 9180 8122.878906 9003 8437.9375 8687.9375 C 8753 8372.878906 8930 7945.5625 8930 7500 "/>
<path style=" stroke:none;fill-rule:evenodd;fill:rgb(16.470588%,16.078431%,16.470588%);fill-opacity:1;" d="M 6610 7084 L 6055.40625 7118.660156 C 6030.234375 7120.234375 6008.332031 7136.449219 5999.476562 7160.066406 L 5858.300781 7536.535156 C 5847.519531 7565.277344 5842 7595.722656 5842 7626.421875 L 5842 7980 C 5842 8015.347656 5870.652344 8044 5906 8044 L 5938 8044 C 5938 7884.941406 6066.941406 7756 6226 7756 C 6385.058594 7756 6514 7884.941406 6514 8044 L 7666 8044 C 7666 7957.007812 7705.320312 7874.675781 7772.980469 7820 L 6610 7820 L 6610 7084 M 6386 7516 L 6386 7196 L 6062.625 7216.210938 C 6050.035156 7216.996094 6039.085938 7225.101562 6034.65625 7236.910156 L 5927.386719 7522.972656 C 5926.039062 7526.566406 5925.347656 7530.371094 5925.347656 7534.210938 C 5925.347656 7551.882812 5939.675781 7566.210938 5957.347656 7566.210938 C 5958.597656 7566.210938 5959.847656 7566.136719 5961.089844 7565.992188 L 6386 7516 M 6450 8044 C 6450 7920.289062 6349.710938 7820 6226 7820 C 6102.289062 7820 6002 7920.289062 6002 8044 C 6002 8167.710938 6102.289062 8268 6226 8268 C 6349.710938 8268 6450 8167.710938 6450 8044 M 8178 8044 C 8178 7920.289062 8077.710938 7820 7954 7820 C 7830.289062 7820 7730 7920.289062 7730 8044 C 7730 8167.710938 7830.289062 8268 7954 8268 C 8077.710938 8268 8178 8167.710938 8178 8044 M 8402 8044 L 8594 7980 L 8594 7820 L 8135.019531 7820 C 8202.679688 7874.675781 8242 7957.007812 8242 8044 L 8402 8044 M 8594 7756 L 8594 6860 L 6738 6860 L 6738 7756 L 8594 7756 "/>
</g>
</svg>
