<?xml version="1.0" encoding="UTF-8"?>
<svg xmlns="http://www.w3.org/2000/svg" xmlns:xlink="http://www.w3.org/1999/xlink" width="1200.000000mm" height="1600.000000mm" viewBox="0 0 12000 16000" version="1.1">
<g id="surface181">
<path style="fill-rule:evenodd;fill:rgb(94.509804%,94.117647%,91.764706%);fill-opacity:1;stroke-width:0.3;stroke-linecap:butt;stroke-linejoin:miter;stroke:rgb(16.470588%,16.078431%,16.470588%);stroke-opacity:1;stroke-miterlimit:3;" d="M -540 -800 C -555.912891 -800 -571.174219 -793.678516 -582.426563 -782.426563 C -593.678516 -771.174219 -600 -755.912891 -600 -740 L -600 740 C -600 755.912891 -593.678516 771.174219 -582.426563 782.426563 C -571.174219 793.678516 -555.912891 800 -540 800 L 540 800 C 555.912891 800 571.174219 793.678516 582.426563 782.426563 C 593.678516 771.174219 600 755.912891 600 740 L 600 -740 C 600 -755.912891 593.678516 -771.174219 582.426563 -782.426563 C 571.174219 -793.678516 555.912891 -800 540 -800 L -540 -800 " transform="matrix(10,0,0,-10,6000,8000)"/>
<path style=" stroke:none;fill-rule:evenodd;fill:rgb(16.470588%,16.078431%,16.470588%);fill-opacity:1;" d="M 600 15850 C 480.652344 15850 366.191406 15802.589844 281.800781 15718.199219 C 197.410156 15633.808594 150 15519.347656 150 15400 L 150 600 C 150 480.652344 197.410156 366.191406 281.800781 281.800781 C 366.191406 197.410156 480.652344 150 600 150 L 11400 150 C 11519.347656 150 11633.808594 197.410156 11718.199219 281.800781 C 11802.589844 366.191406 11850 480.652344 11850 600 L 11850 15400 C 11850 15519.347656 11802.589844 15633.808594 11718.199219 15718.199219 C 11633.808594 15802.589844 11519.347656 15850 11400 15850 L 600 15850 M 600 15650 C 461.929688 15650 350 15538.070312 350 15400 L 350 600 C 350 461.929688 461.929688 350 600 350 L 11400 350 C 11538.070312 350 11650 461.929688 11650 600 L 11650 15400 C 11650 15538.070312 11538.070312 15650 11400 15650 L 600 15650 "/>
<path style=" stroke:none;fill-rule:evenodd;fill:rgb(16.470588%,16.078431%,16.470588%);fill-opacity:1;" d="M 2400 2980 L 2850 3096.191406 C 2859.800781 3098.71875 2869.878906 3100 2880 3100 C 2946.273438 3100 3000 3046.273438 3000 2980 C 3000 2956.226562 2992.9375 2932.988281 2979.710938 2913.234375 L 2100 1600 L 1220.289062 2913.234375 C 1207.0625 2932.988281 1200 2956.226562 1200 2980 C 1200 3046.273438 1253.726562 3100 1320 3100 C 1330.121094 3100 1340.199219 3098.71875 1350 3096.191406 L 1800 2980 L 1800 14400 L 2400 14400 L 2400 2980 "/>
<path style=" stroke:none;fill-rule:evenodd;fill:rgb(16.470588%,16.078431%,16.470588%);fill-opacity:1;" d="M 5000 2980 L 5450 3096.191406 C 5459.800781 3098.71875 5469.878906 3100 5480 3100 C 5546.273438 3100 5600 3046.273438 5600 2980 C 5600 2956.226562 5592.9375 2932.988281 5579.710938 2913.234375 L 4700 1600 L 3820.289062 2913.234375 C 3807.0625 2932.988281 3800 2956.226562 3800 2980 C 3800 3046.273438 3853.726562 3100 3920 3100 C 3930.121094 3100 3940.199219 3098.71875 3950 3096.191406 L 4400 2980 L 4400 14400 L 5000 14400 L 5000 2980 "/>
<path style=" stroke:none;fill-rule:evenodd;fill:rgb(16.470588%,16.078431%,16.470588%);fill-opacity:1;" d="M 7600 2980 L 8050 3096.191406 C 8059.800781 3098.71875 8069.878906 3100 8080 3100 C 8146.273438 3100 8200 3046.273438 8200 2980 C 8200 2956.226562 8192.9375 2932.988281 8179.710938 2913.234375 L 7300 1600 L 6420.289062 2913.234375 C 6407.0625 2932.988281 6400 2956.226562 6400 2980 C 6400 3046.273438 6453.726562 3100 6520 3100 C 6530.121094 3100 6540.199219 3098.71875 6550 3096.191406 L 7000 2980 L 7000 14400 L 7600 14400 L 7600 2980 "/>
<path style=" stroke:none;fill-rule:evenodd;fill:rgb(16.470588%,16.078431%,16.470588%);fill-opacity:1;" d="M 9387.941406 7163.679688 L 9788.292969 6927.640625 C 9824.890625 6906.066406 9847.347656 6866.75 9847.347656 6824.269531 C 9847.347656 6766.976562 9806.847656 6717.675781 9750.648438 6706.554688 L 8200 6400 L 8506.542969 7950.648438 C 8517.667969 8006.847656 8566.96875 8047.347656 8624.261719 8047.347656 C 8666.742188 8047.347656 8706.054688 8024.890625 8727.632812 7988.292969 L 8963.679688 7587.941406 L 9424.265625 8048.527344 C 9536.785156 8161.046875 9600 8313.660156 9600 8472.789062 L 9600 14400 L 10200 14400 L 10200 8472.789062 C 10200 8154.53125 10073.570312 7849.304688 9848.527344 7624.261719 L 9387.941406 7163.679688 "/>
</g>
</svg>
