<?xml version="1.0" encoding="UTF-8"?>
<svg xmlns="http://www.w3.org/2000/svg" xmlns:xlink="http://www.w3.org/1999/xlink" width="1200.000000mm" height="1600.000000mm" viewBox="0 0 12000 16000" version="1.1">
<g id="surface186">
<path style="fill-rule:evenodd;fill:rgb(94.509804%,94.117647%,91.764706%);fill-opacity:1;stroke-width:0.3;stroke-linecap:butt;stroke-linejoin:miter;stroke:rgb(16.470588%,16.078431%,16.470588%);stroke-opacity:1;stroke-miterlimit:3;" d="M -540 -800 C -555.912891 -800 -571.174219 -793.678516 -582.426563 -782.426563 C -593.678516 -771.174219 -600 -755.912891 -600 -740 L -600 740 C -600 755.912891 -593.678516 771.174219 -582.426563 782.426563 C -571.174219 793.678516 -555.912891 800 -540 800 L 540 800 C 555.912891 800 571.174219 793.678516 582.426563 782.426563 C 593.678516 771.174219 600 755.912891 600 740 L 600 -740 C 600 -755.912891 593.678516 -771.174219 582.426563 -782.426563 C 571.174219 -793.678516 555.912891 -800 540 -800 L -540 -800 " transform="matrix(10,0,0,-10,6000,8000)"/>
<path style=" stroke:none;fill-rule:evenodd;fill:rgb(16.470588%,16.078431%,16.470588%);fill-opacity:1;" d="M 600 15850 C 480.652344 15850 366.191406 15802.589844 281.800781 15718.199219 C 197.410156 15633.808594 150 15519.347656 150 15400 L 150 600 C 150 480.652344 197.410156 366.191406 281.800781 281.800781 C 366.191406 197.410156 480.652344 150 600 150 L 11400 150 C 11519.347656 150 11633.808594 197.410156 11718.199219 281.800781 C 11802.589844 366.191406 11850 480.652344 11850 600 L 11850 15400 C 11850 15519.347656 11802.589844 15633.808594 11718.199219 15718.199219 C 11633.808594 15802.589844 11519.347656 15850 11400 15850 L 600 15850 M 600 15650 C 461.929688 15650 350 15538.070312 350 15400 L 350 600 C 350 461.929688 461.929688 350 600 350 L 11400 350 C 11538.070312 350 11650 461.929688 11650 600 L 11650 15400 C 11650 15538.070312 11538.070312 15650 11400 15650 L 600 15650 "/>
<path style=" stroke:none;fill-rule:evenodd;fill:rgb(16.470588%,16.078431%,16.470588%);fill-opacity:1;" d="M 1200 2980 L 750 3096.191406 C 740.199219 3098.71875 730.121094 3100 720 3100 C 653.726562 3100 600 3046.273438 600 2980 C 600 2956.226562 607.0625 2932.988281 620.289062 2913.234375 L 1500 1600 L 2379.710938 2913.234375 C 2392.9375 2932.988281 2400 2956.226562 2400 2980 C 2400 3046.273438 2346.273438 3100 2280 3100 C 2269.878906 3100 2259.800781 3098.71875 2250 3096.191406 L 1800 2980 L 1800 14400 L 1200 14400 L 1200 2980 "/>
<path style=" stroke:none;fill-rule:evenodd;fill:rgb(16.470588%,16.078431%,16.470588%);fill-opacity:1;" d="M 3500 2980 L 3050 3096.191406 C 3040.199219 3098.71875 3030.121094 3100 3020 3100 C 2953.726562 3100 2900 3046.273438 2900 2980 C 2900 2956.226562 2907.0625 2932.988281 2920.289062 2913.234375 L 3800 1600 L 4679.710938 2913.234375 C 4692.9375 2932.988281 4700 2956.226562 4700 2980 C 4700 3046.273438 4646.273438 3100 4580 3100 C 4569.878906 3100 4559.800781 3098.71875 4550 3096.191406 L 4100 2980 L 4100 14400 L 3500 14400 L 3500 2980 "/>
<path style=" stroke:none;fill-rule:evenodd;fill:rgb(16.470588%,16.078431%,16.470588%);fill-opacity:1;" d="M 5800 2980 L 5350 3096.191406 C 5340.199219 3098.71875 5330.121094 3100 5320 3100 C 5253.726562 3100 5200 3046.273438 5200 2980 C 5200 2956.226562 5207.0625 2932.988281 5220.289062 2913.234375 L 6100 1600 L 6979.710938 2913.234375 C 6992.9375 2932.988281 7000 2956.226562 7000 2980 C 7000 3046.273438 6946.273438 3100 6880 3100 C 6869.878906 3100 6859.800781 3098.71875 6850 3096.191406 L 6400 2980 L 6400 14400 L 5800 14400 L 5800 2980 "/>
<path style=" stroke:none;fill-rule:evenodd;fill:rgb(16.470588%,16.078431%,16.470588%);fill-opacity:1;" d="M 8100 2980 L 7650 3096.191406 C 7640.199219 3098.71875 7630.121094 3100 7620 3100 C 7553.726562 3100 7500 3046.273438 7500 2980 C 7500 2956.226562 7507.0625 2932.988281 7520.289062 2913.234375 L 8400 1600 L 9279.710938 2913.234375 C 9292.9375 2932.988281 9300 2956.226562 9300 2980 C 9300 3046.273438 9246.273438 3100 9180 3100 C 9169.878906 3100 9159.800781 3098.71875 9150 3096.191406 L 8700 2980 L 8700 14400 L 8100 14400 L 8100 2980 "/>
<path style=" stroke:none;fill-rule:evenodd;fill:rgb(16.470588%,16.078431%,16.470588%);fill-opacity:1;" d="M 10487.941406 7163.679688 L 10888.292969 6927.640625 C 10924.890625 6906.066406 10947.347656 6866.75 10947.347656 6824.269531 C 10947.347656 6766.976562 10906.847656 6717.675781 10850.648438 6706.554688 L 9300 6400 L 9606.542969 7950.648438 C 9617.667969 8006.847656 9666.96875 8047.347656 9724.261719 8047.347656 C 9766.742188 8047.347656 9806.054688 8024.890625 9827.632812 7988.292969 L 10063.679688 7587.941406 L 10224.265625 7748.527344 C 10336.785156 7861.046875 10400 8013.660156 10400 8172.789062 L 10400 14400 L 11000 14400 L 11000 8172.789062 C 11000 7854.53125 10873.570312 7549.304688 10648.527344 7324.261719 L 10487.941406 7163.679688 "/>
</g>
</svg>
