<?xml version="1.0" encoding="UTF-8"?>
<svg xmlns="http://www.w3.org/2000/svg" xmlns:xlink="http://www.w3.org/1999/xlink" width="1200.000000mm" height="1600.000000mm" viewBox="0 0 12000 16000" version="1.1">
<g id="surface166">
<path style="fill-rule:evenodd;fill:rgb(94.509804%,94.117647%,91.764706%);fill-opacity:1;stroke-width:0.3;stroke-linecap:butt;stroke-linejoin:miter;stroke:rgb(16.470588%,16.078431%,16.470588%);stroke-opacity:1;stroke-miterlimit:3;" d="M -540 -800 C -555.912891 -800 -571.174219 -793.678516 -582.426563 -782.426563 C -593.678516 -771.174219 -600 -755.912891 -600 -740 L -600 740 C -600 755.912891 -593.678516 771.174219 -582.426563 782.426563 C -571.174219 793.678516 -555.912891 800 -540 800 L 540 800 C 555.912891 800 571.174219 793.678516 582.426563 782.426563 C 593.678516 771.174219 600 755.912891 600 740 L 600 -740 C 600 -755.912891 593.678516 -771.174219 582.426563 -782.426563 C 571.174219 -793.678516 555.912891 -800 540 -800 L -540 -800 " transform="matrix(10,0,0,-10,6000,8000)"/>
<path style=" stroke:none;fill-rule:evenodd;fill:rgb(16.470588%,16.078431%,16.470588%);fill-opacity:1;" d="M 600 15850 C 480.652344 15850 366.191406 15802.589844 281.800781 15718.199219 C 197.410156 15633.808594 150 15519.347656 150 15400 L 150 600 C 150 480.652344 197.410156 366.191406 281.800781 281.800781 C 366.191406 197.410156 480.652344 150 600 150 L 11400 150 C 11519.347656 150 11633.808594 197.410156 11718.199219 281.800781 C 11802.589844 366.191406 11850 480.652344 11850 600 L 11850 15400 C 11850 15519.347656 11802.589844 15633.808594 11718.199219 15718.199219 C 11633.808594 15802.589844 11519.347656 15850 11400 15850 L 600 15850 M 600 15650 C 461.929688 15650 350 15538.070312 350 15400 L 350 600 C 350 461.929688 461.929688 350 600 350 L 11400 350 C 11538.070312 350 11650 461.929688 11650 600 L 11650 15400 C 11650 15538.070312 11538.070312 15650 11400 15650 L 600 15650 "/>
<path style=" stroke:none;fill-rule:evenodd;fill:rgb(16.470588%,16.078431%,16.470588%);fill-opacity:1;" d="M 1512.058594 7163.679688 L 1111.707031 6927.640625 C 1075.109375 6906.066406 1052.652344 6866.75 1052.652344 6824.269531 C 1052.652344 6766.976562 1093.152344 6717.675781 1149.351562 6706.554688 L 2700 6400 L 2393.457031 7950.648438 C 2382.332031 8006.847656 2333.03125 8047.347656 2275.738281 8047.347656 C 2233.257812 8047.347656 2193.945312 8024.890625 2172.367188 7988.292969 L 1936.320312 7587.941406 L 1775.734375 7748.527344 C 1663.214844 7861.046875 1600 8013.660156 1600 8172.789062 L 1600 14400 L 1000 14400 L 1000 8172.789062 C 1000 7854.53125 1126.429688 7549.304688 1351.472656 7324.261719 L 1512.058594 7163.679688 "/>
<path style=" stroke:none;fill-rule:evenodd;fill:rgb(16.470588%,16.078431%,16.470588%);fill-opacity:1;" d="M 3300 2980 L 2850 3096.191406 C 2840.199219 3098.71875 2830.121094 3100 2820 3100 C 2753.726562 3100 2700 3046.273438 2700 2980 C 2700 2956.226562 2707.0625 2932.988281 2720.289062 2913.234375 L 3600 1600 L 4479.710938 2913.234375 C 4492.9375 2932.988281 4500 2956.226562 4500 2980 C 4500 3046.273438 4446.273438 3100 4380 3100 C 4369.878906 3100 4359.800781 3098.71875 4350 3096.191406 L 3900 2980 L 3900 14400 L 3300 14400 L 3300 2980 "/>
<path style=" stroke:none;fill-rule:evenodd;fill:rgb(16.470588%,16.078431%,16.470588%);fill-opacity:1;" d="M 5600 2980 L 5150 3096.191406 C 5140.199219 3098.71875 5130.121094 3100 5120 3100 C 5053.726562 3100 5000 3046.273438 5000 2980 C 5000 2956.226562 5007.0625 2932.988281 5020.289062 2913.234375 L 5900 1600 L 6779.710938 2913.234375 C 6792.9375 2932.988281 6800 2956.226562 6800 2980 C 6800 3046.273438 6746.273438 3100 6680 3100 C 6669.878906 3100 6659.800781 3098.71875 6650 3096.191406 L 6200 2980 L 6200 14400 L 5600 14400 L 5600 2980 "/>
<path style=" stroke:none;fill-rule:evenodd;fill:rgb(16.470588%,16.078431%,16.470588%);fill-opacity:1;" d="M 7900 2980 L 7450 3096.191406 C 7440.199219 3098.71875 7430.121094 3100 7420 3100 C 7353.726562 3100 7300 3046.273438 7300 2980 C 7300 2956.226562 7307.0625 2932.988281 7320.289062 2913.234375 L 8200 1600 L 9079.710938 2913.234375 C 9092.9375 2932.988281 9100 2956.226562 9100 2980 C 9100 3046.273438 9046.273438 3100 8980 3100 C 8969.878906 3100 8959.800781 3098.71875 8950 3096.191406 L 8500 2980 L 8500 14400 L 7900 14400 L 7900 2980 "/>
<path style=" stroke:none;fill-rule:evenodd;fill:rgb(16.470588%,16.078431%,16.470588%);fill-opacity:1;" d="M 10200 2980 L 9750 3096.191406 C 9740.199219 3098.71875 9730.121094 3100 9720 3100 C 9653.726562 3100 9600 3046.273438 9600 2980 C 9600 2956.226562 9607.0625 2932.988281 9620.289062 2913.234375 L 10500 1600 L 11379.710938 2913.234375 C 11392.9375 2932.988281 11400 2956.226562 11400 2980 C 11400 3046.273438 11346.273438 3100 11280 3100 C 11269.878906 3100 11259.800781 3098.71875 11250 3096.191406 L 10800 2980 L 10800 14400 L 10200 14400 L 10200 2980 "/>
</g>
</svg>
