<?xml version="1.0" encoding="UTF-8"?>
<svg xmlns="http://www.w3.org/2000/svg" xmlns:xlink="http://www.w3.org/1999/xlink" width="1200.000000mm" height="1600.000000mm" viewBox="0 0 12000 16000" version="1.1">
<g id="surface206">
<path style="fill-rule:evenodd;fill:rgb(94.509804%,94.117647%,91.764706%);fill-opacity:1;stroke-width:0.3;stroke-linecap:butt;stroke-linejoin:miter;stroke:rgb(16.470588%,16.078431%,16.470588%);stroke-opacity:1;stroke-miterlimit:3;" d="M -540 -800 C -555.912891 -800 -571.174219 -793.678516 -582.426563 -782.426563 C -593.678516 -771.174219 -600 -755.912891 -600 -740 L -600 740 C -600 755.912891 -593.678516 771.174219 -582.426563 782.426563 C -571.174219 793.678516 -555.912891 800 -540 800 L 540 800 C 555.912891 800 571.174219 793.678516 582.426563 782.426563 C 593.678516 771.174219 600 755.912891 600 740 L 600 -740 C 600 -755.912891 593.678516 -771.174219 582.426563 -782.426563 C 571.174219 -793.678516 555.912891 -800 540 -800 L -540 -800 " transform="matrix(10,0,0,-10,6000,8000)"/>
<path style=" stroke:none;fill-rule:evenodd;fill:rgb(16.470588%,16.078431%,16.470588%);fill-opacity:1;" d="M 600 15850 C 480.652344 15850 366.191406 15802.589844 281.800781 15718.199219 C 197.410156 15633.808594 150 15519.347656 150 15400 L 150 600 C 150 480.652344 197.410156 366.191406 281.800781 281.800781 C 366.191406 197.410156 480.652344 150 600 150 L 11400 150 C 11519.347656 150 11633.808594 197.410156 11718.199219 281.800781 C 11802.589844 366.191406 11850 480.652344 11850 600 L 11850 15400 C 11850 15519.347656 11802.589844 15633.808594 11718.199219 15718.199219 C 11633.808594 15802.589844 11519.347656 15850 11400 15850 L 600 15850 M 600 15650 C 461.929688 15650 350 15538.070312 350 15400 L 350 600 C 350 461.929688 461.929688 350 600 350 L 11400 350 C 11538.070312 350 11650 461.929688 11650 600 L 11650 15400 C 11650 15538.070312 11538.070312 15650 11400 15650 L 600 15650 "/>
<path style=" stroke:none;fill-rule:evenodd;fill:rgb(16.470588%,16.078431%,16.470588%);fill-opacity:1;" d="M 2612.058594 5563.679688 L 2211.707031 5327.640625 C 2175.109375 5306.066406 2152.652344 5266.75 2152.652344 5224.269531 C 2152.652344 5166.976562 2193.152344 5117.675781 2249.351562 5106.554688 L 3800 4800 L 3493.457031 6350.648438 C 3482.332031 6406.847656 3433.03125 6447.347656 3375.738281 6447.347656 C 3333.257812 6447.347656 3293.945312 6424.890625 3272.367188 6388.292969 L 3036.320312 5987.941406 L 2575.734375 6448.527344 C 2463.214844 6561.046875 2400 6713.660156 2400 6872.789062 L 2400 14400 L 1800 14400 L 1800 6872.789062 C 1800 6554.53125 1926.429688 6249.304688 2151.472656 6024.261719 L 2612.058594 5563.679688 "/>
<path style=" stroke:none;fill-rule:evenodd;fill:rgb(16.470588%,16.078431%,16.470588%);fill-opacity:1;" d="M 4400 2980 L 3950 3096.191406 C 3940.199219 3098.71875 3930.121094 3100 3920 3100 C 3853.726562 3100 3800 3046.273438 3800 2980 C 3800 2956.226562 3807.0625 2932.988281 3820.289062 2913.234375 L 4700 1600 L 5579.710938 2913.234375 C 5592.9375 2932.988281 5600 2956.226562 5600 2980 C 5600 3046.273438 5546.273438 3100 5480 3100 C 5469.878906 3100 5459.800781 3098.71875 5450 3096.191406 L 5000 2980 L 5000 14400 L 4400 14400 L 4400 2980 "/>
<path style=" stroke:none;fill-rule:evenodd;fill:rgb(16.470588%,16.078431%,16.470588%);fill-opacity:1;" d="M 7000 2980 L 6550 3096.191406 C 6540.199219 3098.71875 6530.121094 3100 6520 3100 C 6453.726562 3100 6400 3046.273438 6400 2980 C 6400 2956.226562 6407.0625 2932.988281 6420.289062 2913.234375 L 7300 1600 L 8179.710938 2913.234375 C 8192.9375 2932.988281 8200 2956.226562 8200 2980 C 8200 3046.273438 8146.273438 3100 8080 3100 C 8069.878906 3100 8059.800781 3098.71875 8050 3096.191406 L 7600 2980 L 7600 14400 L 7000 14400 L 7000 2980 "/>
<path style=" stroke:none;fill-rule:evenodd;fill:rgb(16.470588%,16.078431%,16.470588%);fill-opacity:1;" d="M 9600 2980 L 9150 3096.191406 C 9140.199219 3098.71875 9130.121094 3100 9120 3100 C 9053.726562 3100 9000 3046.273438 9000 2980 C 9000 2956.226562 9007.0625 2932.988281 9020.289062 2913.234375 L 9900 1600 L 10779.710938 2913.234375 C 10792.9375 2932.988281 10800 2956.226562 10800 2980 C 10800 3046.273438 10746.273438 3100 10680 3100 C 10669.878906 3100 10659.800781 3098.71875 10650 3096.191406 L 10200 2980 L 10200 14400 L 9600 14400 L 9600 2980 "/>
<path style=" stroke:none;fill-rule:evenodd;fill:rgb(94.509804%,94.117647%,91.764706%);fill-opacity:1;" d="M 8400 8400 C 8400 7763.480469 8147.144531 7153.03125 7697.054688 6702.945312 C 7246.96875 6252.855469 6636.519531 6000 6000 6000 C 5363.480469 6000 4753.03125 6252.855469 4302.945312 6702.945312 C 3852.855469 7153.03125 3600 7763.480469 3600 8400 C 3600 9036.519531 3852.855469 9646.96875 4302.945312 10097.054688 C 4753.03125 10547.144531 5363.480469 10800 6000 10800 C 6636.519531 10800 7246.96875 10547.144531 7697.054688 10097.054688 C 8147.144531 9646.96875 8400 9036.519531 8400 8400 "/>
<path style=" stroke:none;fill-rule:evenodd;fill:rgb(16.470588%,16.078431%,16.470588%);fill-opacity:1;" d="M 8320 8400 C 8320 7784.699219 8075.570312 7194.597656 7640.488281 6759.511719 C 7205.402344 6324.429688 6615.300781 6080 6000 6080 C 5384.699219 6080 4794.597656 6324.429688 4359.511719 6759.511719 C 3924.429688 7194.597656 3680 7784.699219 3680 8400 C 3680 9015.300781 3924.429688 9605.402344 4359.511719 10040.488281 C 4794.597656 10475.570312 5384.699219 10720 6000 10720 C 6615.300781 10720 7205.402344 10475.570312 7640.488281 10040.488281 C 8075.570312 9605.402344 8320 9015.300781 8320 8400 M 7206.253906 6560.175781 C 6847.835938 6325.183594 6428.585938 6200 6000 6200 C 5416.523438 6200 4856.945312 6431.785156 4444.363281 6844.363281 C 4031.785156 7256.945312 3800 7816.523438 3800 8400 C 3800 8828.585938 3925.183594 9247.835938 4160.175781 9606.253906 L 7206.253906 6560.175781 M 7299.796875 6625.027344 C 7322.59375 6641.722656 7345.066406 6658.851562 7367.203125 6676.414062 L 4276.414062 9767.203125 C 4258.851562 9745.066406 4241.722656 9722.59375 4225.027344 9699.796875 L 7299.796875 6625.027344 M 7453.488281 6748.523438 C 7474.527344 6767.042969 7495.214844 6785.960938 7515.53125 6805.269531 L 4405.269531 9915.53125 C 4385.960938 9895.214844 4367.042969 9874.527344 4348.523438 9853.488281 L 7453.488281 6748.523438 M 7651.476562 6946.511719 C 7632.957031 6925.472656 7614.039062 6904.785156 7594.730469 6884.46875 L 4484.46875 9994.730469 C 4504.785156 10014.039062 4525.472656 10032.957031 4546.511719 10051.476562 L 7651.476562 6946.511719 M 7774.972656 7100.203125 C 7758.277344 7077.40625 7741.148438 7054.933594 7723.585938 7032.796875 L 4632.796875 10123.585938 C 4654.933594 10141.148438 4677.40625 10158.277344 4700.203125 10174.972656 L 7774.972656 7100.203125 M 7839.824219 7193.746094 C 8074.816406 7552.164062 8200 7971.414062 8200 8400 C 8200 8983.476562 7968.214844 9543.054688 7555.636719 9955.636719 C 7143.054688 10368.214844 6583.476562 10600 6000 10600 C 5571.414062 10600 5152.164062 10474.816406 4793.746094 10239.824219 L 7839.824219 7193.746094 "/>
</g>
</svg>
