<?xml version="1.0" encoding="UTF-8"?>
<svg xmlns="http://www.w3.org/2000/svg" xmlns:xlink="http://www.w3.org/1999/xlink" width="1200.000000mm" height="1600.000000mm" viewBox="0 0 12000 16000" version="1.1">
<g id="surface306">
<path style="fill-rule:evenodd;fill:rgb(94.509804%,94.117647%,91.764706%);fill-opacity:1;stroke-width:0.3;stroke-linecap:butt;stroke-linejoin:miter;stroke:rgb(16.470588%,16.078431%,16.470588%);stroke-opacity:1;stroke-miterlimit:3;" d="M -540 -800 C -555.912891 -800 -571.174219 -793.678516 -582.426563 -782.426563 C -593.678516 -771.174219 -600 -755.912891 -600 -740 L -600 740 C -600 755.912891 -593.678516 771.174219 -582.426563 782.426563 C -571.174219 793.678516 -555.912891 800 -540 800 L 540 800 C 555.912891 800 571.174219 793.678516 582.426563 782.426563 C 593.678516 771.174219 600 755.912891 600 740 L 600 -740 C 600 -755.912891 593.678516 -771.174219 582.426563 -782.426563 C 571.174219 -793.678516 555.912891 -800 540 -800 L -540 -800 " transform="matrix(10,0,0,-10,6000,8000)"/>
<path style=" stroke:none;fill-rule:evenodd;fill:rgb(16.470588%,16.078431%,16.470588%);fill-opacity:1;" d="M 600 15850 C 480.652344 15850 366.191406 15802.589844 281.800781 15718.199219 C 197.410156 15633.808594 150 15519.347656 150 15400 L 150 600 C 150 480.652344 197.410156 366.191406 281.800781 281.800781 C 366.191406 197.410156 480.652344 150 600 150 L 11400 150 C 11519.347656 150 11633.808594 197.410156 11718.199219 281.800781 C 11802.589844 366.191406 11850 480.652344 11850 600 L 11850 15400 C 11850 15519.347656 11802.589844 15633.808594 11718.199219 15718.199219 C 11633.808594 15802.589844 11519.347656 15850 11400 15850 L 600 15850 M 600 15650 C 461.929688 15650 350 15538.070312 350 15400 L 350 600 C 350 461.929688 461.929688 350 600 350 L 11400 350 C 11538.070312 350 11650 461.929688 11650 600 L 11650 15400 C 11650 15538.070312 11538.070312 15650 11400 15650 L 600 15650 "/>
<path style=" stroke:none;fill-rule:evenodd;fill:rgb(16.470588%,16.078431%,16.470588%);fill-opacity:1;" d="M 1800 13020 L 2250 12903.808594 C 2259.800781 12901.28125 2269.878906 12900 2280 12900 C 2346.273438 12900 2400 12953.726562 2400 13020 C 2400 13043.773438 2392.9375 13067.011719 2379.710938 13086.765625 L 1500 14400 L 620.289062 13086.765625 C 607.0625 13067.011719 600 13043.773438 600 13020 C 600 12953.726562 653.726562 12900 720 12900 C 730.121094 12900 740.199219 12901.28125 750 12903.808594 L 1200 13020 L 1200 3200 L 1800 3200 L 1800 13020 "/>
<path style=" stroke:none;fill-rule:evenodd;fill:rgb(16.470588%,16.078431%,16.470588%);fill-opacity:1;" d="M 4100 13020 L 4550 12903.808594 C 4559.800781 12901.28125 4569.878906 12900 4580 12900 C 4646.273438 12900 4700 12953.726562 4700 13020 C 4700 13043.773438 4692.9375 13067.011719 4679.710938 13086.765625 L 3800 14400 L 2920.289062 13086.765625 C 2907.0625 13067.011719 2900 13043.773438 2900 13020 C 2900 12953.726562 2953.726562 12900 3020 12900 C 3030.121094 12900 3040.199219 12901.28125 3050 12903.808594 L 3500 13020 L 3500 3200 L 4100 3200 L 4100 13020 "/>
<path style=" stroke:none;fill-rule:evenodd;fill:rgb(16.470588%,16.078431%,16.470588%);fill-opacity:1;" d="M 5800 2980 L 5350 3096.191406 C 5340.199219 3098.71875 5330.121094 3100 5320 3100 C 5253.726562 3100 5200 3046.273438 5200 2980 C 5200 2956.226562 5207.0625 2932.988281 5220.289062 2913.234375 L 6100 1600 L 6979.710938 2913.234375 C 6992.9375 2932.988281 7000 2956.226562 7000 2980 C 7000 3046.273438 6946.273438 3100 6880 3100 C 6869.878906 3100 6859.800781 3098.71875 6850 3096.191406 L 6400 2980 L 6400 12800 L 5800 12800 L 5800 2980 "/>
<path style=" stroke:none;fill-rule:evenodd;fill:rgb(16.470588%,16.078431%,16.470588%);fill-opacity:1;" d="M 8100 2980 L 7650 3096.191406 C 7640.199219 3098.71875 7630.121094 3100 7620 3100 C 7553.726562 3100 7500 3046.273438 7500 2980 C 7500 2956.226562 7507.0625 2932.988281 7520.289062 2913.234375 L 8400 1600 L 9279.710938 2913.234375 C 9292.9375 2932.988281 9300 2956.226562 9300 2980 C 9300 3046.273438 9246.273438 3100 9180 3100 C 9169.878906 3100 9159.800781 3098.71875 9150 3096.191406 L 8700 2980 L 8700 12800 L 8100 12800 L 8100 2980 "/>
<path style=" stroke:none;fill-rule:evenodd;fill:rgb(16.470588%,16.078431%,16.470588%);fill-opacity:1;" d="M 10487.941406 5563.679688 L 10888.292969 5327.640625 C 10924.890625 5306.066406 10947.347656 5266.75 10947.347656 5224.269531 C 10947.347656 5166.976562 10906.847656 5117.675781 10850.648438 5106.554688 L 9300 4800 L 9606.542969 6350.648438 C 9617.667969 6406.847656 9666.96875 6447.347656 9724.261719 6447.347656 C 9766.742188 6447.347656 9806.054688 6424.890625 9827.632812 6388.292969 L 10063.679688 5987.941406 L 10224.265625 6148.527344 C 10336.785156 6261.046875 10400 6413.660156 10400 6572.789062 L 10400 12800 L 11000 12800 L 11000 6572.789062 C 11000 6254.53125 10873.570312 5949.304688 10648.527344 5724.261719 L 10487.941406 5563.679688 "/>
</g>
</svg>
