<?xml version="1.0" encoding="UTF-8"?>
<svg xmlns="http://www.w3.org/2000/svg" xmlns:xlink="http://www.w3.org/1999/xlink" width="1200.000000mm" height="1600.000000mm" viewBox="0 0 12000 16000" version="1.1">
<g id="surface286">
<path style="fill-rule:evenodd;fill:rgb(94.509804%,94.117647%,91.764706%);fill-opacity:1;stroke-width:0.3;stroke-linecap:butt;stroke-linejoin:miter;stroke:rgb(16.470588%,16.078431%,16.470588%);stroke-opacity:1;stroke-miterlimit:3;" d="M -540 -800 C -555.912891 -800 -571.174219 -793.678516 -582.426563 -782.426563 C -593.678516 -771.174219 -600 -755.912891 -600 -740 L -600 740 C -600 755.912891 -593.678516 771.174219 -582.426563 782.426563 C -571.174219 793.678516 -555.912891 800 -540 800 L 540 800 C 555.912891 800 571.174219 793.678516 582.426563 782.426563 C 593.678516 771.174219 600 755.912891 600 740 L 600 -740 C 600 -755.912891 593.678516 -771.174219 582.426563 -782.426563 C 571.174219 -793.678516 555.912891 -800 540 -800 L -540 -800 " transform="matrix(10,0,0,-10,6000,8000)"/>
<path style=" stroke:none;fill-rule:evenodd;fill:rgb(16.470588%,16.078431%,16.470588%);fill-opacity:1;" d="M 600 15850 C 480.652344 15850 366.191406 15802.589844 281.800781 15718.199219 C 197.410156 15633.808594 150 15519.347656 150 15400 L 150 600 C 150 480.652344 197.410156 366.191406 281.800781 281.800781 C 366.191406 197.410156 480.652344 150 600 150 L 11400 150 C 11519.347656 150 11633.808594 197.410156 11718.199219 281.800781 C 11802.589844 366.191406 11850 480.652344 11850 600 L 11850 15400 C 11850 15519.347656 11802.589844 15633.808594 11718.199219 15718.199219 C 11633.808594 15802.589844 11519.347656 15850 11400 15850 L 600 15850 M 600 15650 C 461.929688 15650 350 15538.070312 350 15400 L 350 600 C 350 461.929688 461.929688 350 600 350 L 11400 350 C 11538.070312 350 11650 461.929688 11650 600 L 11650 15400 C 11650 15538.070312 11538.070312 15650 11400 15650 L 600 15650 "/>
<path style=" stroke:none;fill-rule:evenodd;fill:rgb(16.470588%,16.078431%,16.470588%);fill-opacity:1;" d="M 1700 13020 L 2150 12903.808594 C 2159.800781 12901.28125 2169.878906 12900 2180 12900 C 2246.273438 12900 2300 12953.726562 2300 13020 C 2300 13043.773438 2292.9375 13067.011719 2279.710938 13086.765625 L 1400 14400 L 520.289062 13086.765625 C 507.0625 13067.011719 500 13043.773438 500 13020 C 500 12953.726562 553.726562 12900 620 12900 C 630.121094 12900 640.199219 12901.28125 650 12903.808594 L 1100 13020 L 1100 3200 L 1700 3200 L 1700 13020 "/>
<path style=" stroke:none;fill-rule:evenodd;fill:rgb(16.470588%,16.078431%,16.470588%);fill-opacity:1;" d="M 4000 13020 L 4450 12903.808594 C 4459.800781 12901.28125 4469.878906 12900 4480 12900 C 4546.273438 12900 4600 12953.726562 4600 13020 C 4600 13043.773438 4592.9375 13067.011719 4579.710938 13086.765625 L 3700 14400 L 2820.289062 13086.765625 C 2807.0625 13067.011719 2800 13043.773438 2800 13020 C 2800 12953.726562 2853.726562 12900 2920 12900 C 2930.121094 12900 2940.199219 12901.28125 2950 12903.808594 L 3400 13020 L 3400 3200 L 4000 3200 L 4000 13020 "/>
<path style=" stroke:none;fill-rule:evenodd;fill:rgb(16.470588%,16.078431%,16.470588%);fill-opacity:1;" d="M 6300 13020 L 6750 12903.808594 C 6759.800781 12901.28125 6769.878906 12900 6780 12900 C 6846.273438 12900 6900 12953.726562 6900 13020 C 6900 13043.773438 6892.9375 13067.011719 6879.710938 13086.765625 L 6000 14400 L 5120.289062 13086.765625 C 5107.0625 13067.011719 5100 13043.773438 5100 13020 C 5100 12953.726562 5153.726562 12900 5220 12900 C 5230.121094 12900 5240.199219 12901.28125 5250 12903.808594 L 5700 13020 L 5700 3200 L 6300 3200 L 6300 13020 "/>
<path style=" stroke:none;fill-rule:evenodd;fill:rgb(16.470588%,16.078431%,16.470588%);fill-opacity:1;" d="M 8512.058594 5563.679688 L 8111.707031 5327.640625 C 8075.109375 5306.066406 8052.652344 5266.75 8052.652344 5224.269531 C 8052.652344 5166.976562 8093.152344 5117.675781 8149.351562 5106.554688 L 9700 4800 L 9393.457031 6350.648438 C 9382.332031 6406.847656 9333.03125 6447.347656 9275.738281 6447.347656 C 9233.257812 6447.347656 9193.945312 6424.890625 9172.367188 6388.292969 L 8936.320312 5987.941406 L 8775.734375 6148.527344 C 8663.214844 6261.046875 8600 6413.660156 8600 6572.789062 L 8600 12800 L 8000 12800 L 8000 6572.789062 C 8000 6254.53125 8126.429688 5949.304688 8351.472656 5724.261719 L 8512.058594 5563.679688 "/>
<path style=" stroke:none;fill-rule:evenodd;fill:rgb(16.470588%,16.078431%,16.470588%);fill-opacity:1;" d="M 10300 2980 L 9850 3096.191406 C 9840.199219 3098.71875 9830.121094 3100 9820 3100 C 9753.726562 3100 9700 3046.273438 9700 2980 C 9700 2956.226562 9707.0625 2932.988281 9720.289062 2913.234375 L 10600 1600 L 11479.710938 2913.234375 C 11492.9375 2932.988281 11500 2956.226562 11500 2980 C 11500 3046.273438 11446.273438 3100 11380 3100 C 11369.878906 3100 11359.800781 3098.71875 11350 3096.191406 L 10900 2980 L 10900 12800 L 10300 12800 L 10300 2980 "/>
</g>
</svg>
