<?xml version="1.0" encoding="UTF-8"?>
<svg xmlns="http://www.w3.org/2000/svg" xmlns:xlink="http://www.w3.org/1999/xlink" width="1200.000000mm" height="1600.000000mm" viewBox="0 0 12000 16000" version="1.1">
<g id="surface291">
<path style="fill-rule:evenodd;fill:rgb(94.509804%,94.117647%,91.764706%);fill-opacity:1;stroke-width:0.3;stroke-linecap:butt;stroke-linejoin:miter;stroke:rgb(16.470588%,16.078431%,16.470588%);stroke-opacity:1;stroke-miterlimit:3;" d="M -540 -800 C -555.912891 -800 -571.174219 -793.678516 -582.426563 -782.426563 C -593.678516 -771.174219 -600 -755.912891 -600 -740 L -600 740 C -600 755.912891 -593.678516 771.174219 -582.426563 782.426563 C -571.174219 793.678516 -555.912891 800 -540 800 L 540 800 C 555.912891 800 571.174219 793.678516 582.426563 782.426563 C 593.678516 771.174219 600 755.912891 600 740 L 600 -740 C 600 -755.912891 593.678516 -771.174219 582.426563 -782.426563 C 571.174219 -793.678516 555.912891 -800 540 -800 L -540 -800 " transform="matrix(10,0,0,-10,6000,8000)"/>
<path style=" stroke:none;fill-rule:evenodd;fill:rgb(16.470588%,16.078431%,16.470588%);fill-opacity:1;" d="M 600 15850 C 480.652344 15850 366.191406 15802.589844 281.800781 15718.199219 C 197.410156 15633.808594 150 15519.347656 150 15400 L 150 600 C 150 480.652344 197.410156 366.191406 281.800781 281.800781 C 366.191406 197.410156 480.652344 150 600 150 L 11400 150 C 11519.347656 150 11633.808594 197.410156 11718.199219 281.800781 C 11802.589844 366.191406 11850 480.652344 11850 600 L 11850 15400 C 11850 15519.347656 11802.589844 15633.808594 11718.199219 15718.199219 C 11633.808594 15802.589844 11519.347656 15850 11400 15850 L 600 15850 M 600 15650 C 461.929688 15650 350 15538.070312 350 15400 L 350 600 C 350 461.929688 461.929688 350 600 350 L 11400 350 C 11538.070312 350 11650 461.929688 11650 600 L 11650 15400 C 11650 15538.070312 11538.070312 15650 11400 15650 L 600 15650 M 2900 13020 L 3350 12903.808594 C 3359.800781 12901.28125 3369.878906 12900 3380 12900 C 3446.273438 12900 3500 12953.726562 3500 13020 C 3500 13043.773438 3492.9375 13067.011719 3479.710938 13086.765625 L 2600 14400 L 1720.289062 13086.765625 C 1707.0625 13067.011719 1700 13043.773438 1700 13020 C 1700 12953.726562 1753.726562 12900 1820 12900 C 1830.121094 12900 1840.199219 12901.28125 1850 12903.808594 L 2300 13020 L 2300 3200 L 2900 3200 L 2900 13020 "/>
<path style=" stroke:none;fill-rule:evenodd;fill:rgb(16.470588%,16.078431%,16.470588%);fill-opacity:1;" d="M 6000 2980 L 5550 3096.191406 C 5540.199219 3098.71875 5530.121094 3100 5520 3100 C 5453.726562 3100 5400 3046.273438 5400 2980 C 5400 2956.226562 5407.0625 2932.988281 5420.289062 2913.234375 L 6300 1600 L 7179.710938 2913.234375 C 7192.9375 2932.988281 7200 2956.226562 7200 2980 C 7200 3046.273438 7146.273438 3100 7080 3100 C 7069.878906 3100 7059.800781 3098.71875 7050 3096.191406 L 6600 2980 L 6600 12800 L 6000 12800 L 6000 2980 "/>
<path style=" stroke:none;fill-rule:evenodd;fill:rgb(16.470588%,16.078431%,16.470588%);fill-opacity:1;" d="M 8387.941406 5563.679688 L 8788.292969 5327.640625 C 8824.890625 5306.066406 8847.347656 5266.75 8847.347656 5224.269531 C 8847.347656 5166.976562 8806.847656 5117.675781 8750.648438 5106.554688 L 7200 4800 L 7506.542969 6350.648438 C 7517.667969 6406.847656 7566.96875 6447.347656 7624.261719 6447.347656 C 7666.742188 6447.347656 7706.054688 6424.890625 7727.632812 6388.292969 L 7963.679688 5987.941406 L 8924.265625 6948.527344 C 9036.785156 7061.046875 9100 7213.660156 9100 7372.789062 L 9100 12800 L 9700 12800 L 9700 7372.789062 C 9700 7054.53125 9573.570312 6749.304688 9348.527344 6524.261719 L 8387.941406 5563.679688 "/>
</g>
</svg>
