<?xml version="1.0" encoding="UTF-8"?>
<svg xmlns="http://www.w3.org/2000/svg" xmlns:xlink="http://www.w3.org/1999/xlink" width="1200.000000mm" height="1600.000000mm" viewBox="0 0 12000 16000" version="1.1">
<g id="surface301">
<path style="fill-rule:evenodd;fill:rgb(94.509804%,94.117647%,91.764706%);fill-opacity:1;stroke-width:0.3;stroke-linecap:butt;stroke-linejoin:miter;stroke:rgb(16.470588%,16.078431%,16.470588%);stroke-opacity:1;stroke-miterlimit:3;" d="M -540 -800 C -555.912891 -800 -571.174219 -793.678516 -582.426563 -782.426563 C -593.678516 -771.174219 -600 -755.912891 -600 -740 L -600 740 C -600 755.912891 -593.678516 771.174219 -582.426563 782.426563 C -571.174219 793.678516 -555.912891 800 -540 800 L 540 800 C 555.912891 800 571.174219 793.678516 582.426563 782.426563 C 593.678516 771.174219 600 755.912891 600 740 L 600 -740 C 600 -755.912891 593.678516 -771.174219 582.426563 -782.426563 C 571.174219 -793.678516 555.912891 -800 540 -800 L -540 -800 " transform="matrix(10,0,0,-10,6000,8000)"/>
<path style=" stroke:none;fill-rule:evenodd;fill:rgb(16.470588%,16.078431%,16.470588%);fill-opacity:1;" d="M 600 15850 C 480.652344 15850 366.191406 15802.589844 281.800781 15718.199219 C 197.410156 15633.808594 150 15519.347656 150 15400 L 150 600 C 150 480.652344 197.410156 366.191406 281.800781 281.800781 C 366.191406 197.410156 480.652344 150 600 150 L 11400 150 C 11519.347656 150 11633.808594 197.410156 11718.199219 281.800781 C 11802.589844 366.191406 11850 480.652344 11850 600 L 11850 15400 C 11850 15519.347656 11802.589844 15633.808594 11718.199219 15718.199219 C 11633.808594 15802.589844 11519.347656 15850 11400 15850 L 600 15850 M 600 15650 C 461.929688 15650 350 15538.070312 350 15400 L 350 600 C 350 461.929688 461.929688 350 600 350 L 11400 350 C 11538.070312 350 11650 461.929688 11650 600 L 11650 15400 C 11650 15538.070312 11538.070312 15650 11400 15650 L 600 15650 "/>
<path style=" stroke:none;fill-rule:evenodd;fill:rgb(16.470588%,16.078431%,16.470588%);fill-opacity:1;" d="M 2200 13020 L 2650 12903.808594 C 2659.800781 12901.28125 2669.878906 12900 2680 12900 C 2746.273438 12900 2800 12953.726562 2800 13020 C 2800 13043.773438 2792.9375 13067.011719 2779.710938 13086.765625 L 1900 14400 L 1020.289062 13086.765625 C 1007.0625 13067.011719 1000 13043.773438 1000 13020 C 1000 12953.726562 1053.726562 12900 1120 12900 C 1130.121094 12900 1140.199219 12901.28125 1150 12903.808594 L 1600 13020 L 1600 3200 L 2200 3200 L 2200 13020 "/>
<path style=" stroke:none;fill-rule:evenodd;fill:rgb(16.470588%,16.078431%,16.470588%);fill-opacity:1;" d="M 4800 13020 L 5250 12903.808594 C 5259.800781 12901.28125 5269.878906 12900 5280 12900 C 5346.273438 12900 5400 12953.726562 5400 13020 C 5400 13043.773438 5392.9375 13067.011719 5379.710938 13086.765625 L 4500 14400 L 3620.289062 13086.765625 C 3607.0625 13067.011719 3600 13043.773438 3600 13020 C 3600 12953.726562 3653.726562 12900 3720 12900 C 3730.121094 12900 3740.199219 12901.28125 3750 12903.808594 L 4200 13020 L 4200 3200 L 4800 3200 L 4800 13020 "/>
<path style=" stroke:none;fill-rule:evenodd;fill:rgb(16.470588%,16.078431%,16.470588%);fill-opacity:1;" d="M 7200 2980 L 6750 3096.191406 C 6740.199219 3098.71875 6730.121094 3100 6720 3100 C 6653.726562 3100 6600 3046.273438 6600 2980 C 6600 2956.226562 6607.0625 2932.988281 6620.289062 2913.234375 L 7500 1600 L 8379.710938 2913.234375 C 8392.9375 2932.988281 8400 2956.226562 8400 2980 C 8400 3046.273438 8346.273438 3100 8280 3100 C 8269.878906 3100 8259.800781 3098.71875 8250 3096.191406 L 7800 2980 L 7800 12800 L 7200 12800 L 7200 2980 "/>
<path style=" stroke:none;fill-rule:evenodd;fill:rgb(16.470588%,16.078431%,16.470588%);fill-opacity:1;" d="M 9587.941406 5563.679688 L 9988.292969 5327.640625 C 10024.890625 5306.066406 10047.347656 5266.75 10047.347656 5224.269531 C 10047.347656 5166.976562 10006.847656 5117.675781 9950.648438 5106.554688 L 8400 4800 L 8706.542969 6350.648438 C 8717.667969 6406.847656 8766.96875 6447.347656 8824.261719 6447.347656 C 8866.742188 6447.347656 8906.054688 6424.890625 8927.632812 6388.292969 L 9163.679688 5987.941406 L 9624.265625 6448.527344 C 9736.785156 6561.046875 9800 6713.660156 9800 6872.789062 L 9800 12800 L 10400 12800 L 10400 6872.789062 C 10400 6554.53125 10273.570312 6249.304688 10048.527344 6024.261719 L 9587.941406 5563.679688 "/>
</g>
</svg>
