<?xml version="1.0" encoding="UTF-8"?>
<svg xmlns="http://www.w3.org/2000/svg" xmlns:xlink="http://www.w3.org/1999/xlink" width="1200.000000mm" height="1600.000000mm" viewBox="0 0 12000 16000" version="1.1">
<g id="surface331">
<path style="fill-rule:evenodd;fill:rgb(94.509804%,94.117647%,91.764706%);fill-opacity:1;stroke-width:0.3;stroke-linecap:butt;stroke-linejoin:miter;stroke:rgb(16.470588%,16.078431%,16.470588%);stroke-opacity:1;stroke-miterlimit:3;" d="M -540 -800 C -555.912891 -800 -571.174219 -793.678516 -582.426563 -782.426563 C -593.678516 -771.174219 -600 -755.912891 -600 -740 L -600 740 C -600 755.912891 -593.678516 771.174219 -582.426563 782.426563 C -571.174219 793.678516 -555.912891 800 -540 800 L 540 800 C 555.912891 800 571.174219 793.678516 582.426563 782.426563 C 593.678516 771.174219 600 755.912891 600 740 L 600 -740 C 600 -755.912891 593.678516 -771.174219 582.426563 -782.426563 C 571.174219 -793.678516 555.912891 -800 540 -800 L -540 -800 " transform="matrix(10,0,0,-10,6000,8000)"/>
<path style=" stroke:none;fill-rule:evenodd;fill:rgb(16.470588%,16.078431%,16.470588%);fill-opacity:1;" d="M 600 15850 C 480.652344 15850 366.191406 15802.589844 281.800781 15718.199219 C 197.410156 15633.808594 150 15519.347656 150 15400 L 150 600 C 150 480.652344 197.410156 366.191406 281.800781 281.800781 C 366.191406 197.410156 480.652344 150 600 150 L 11400 150 C 11519.347656 150 11633.808594 197.410156 11718.199219 281.800781 C 11802.589844 366.191406 11850 480.652344 11850 600 L 11850 15400 C 11850 15519.347656 11802.589844 15633.808594 11718.199219 15718.199219 C 11633.808594 15802.589844 11519.347656 15850 11400 15850 L 600 15850 M 600 15650 C 461.929688 15650 350 15538.070312 350 15400 L 350 600 C 350 461.929688 461.929688 350 600 350 L 11400 350 C 11538.070312 350 11650 461.929688 11650 600 L 11650 15400 C 11650 15538.070312 11538.070312 15650 11400 15650 L 600 15650 "/>
<path style=" stroke:none;fill-rule:evenodd;fill:rgb(16.470588%,16.078431%,16.470588%);fill-opacity:1;" d="M 1700 13020 L 2150 12903.808594 C 2159.800781 12901.28125 2169.878906 12900 2180 12900 C 2246.273438 12900 2300 12953.726562 2300 13020 C 2300 13043.773438 2292.9375 13067.011719 2279.710938 13086.765625 L 1400 14400 L 520.289062 13086.765625 C 507.0625 13067.011719 500 13043.773438 500 13020 C 500 12953.726562 553.726562 12900 620 12900 C 630.121094 12900 640.199219 12901.28125 650 12903.808594 L 1100 13020 L 1100 3200 L 1700 3200 L 1700 13020 "/>
<path style=" stroke:none;fill-rule:evenodd;fill:rgb(16.470588%,16.078431%,16.470588%);fill-opacity:1;" d="M 4000 13020 L 4450 12903.808594 C 4459.800781 12901.28125 4469.878906 12900 4480 12900 C 4546.273438 12900 4600 12953.726562 4600 13020 C 4600 13043.773438 4592.9375 13067.011719 4579.710938 13086.765625 L 3700 14400 L 2820.289062 13086.765625 C 2807.0625 13067.011719 2800 13043.773438 2800 13020 C 2800 12953.726562 2853.726562 12900 2920 12900 C 2930.121094 12900 2940.199219 12901.28125 2950 12903.808594 L 3400 13020 L 3400 3200 L 4000 3200 L 4000 13020 "/>
<path style=" stroke:none;fill-rule:evenodd;fill:rgb(16.470588%,16.078431%,16.470588%);fill-opacity:1;" d="M 6212.058594 4763.679688 L 5811.707031 4527.640625 C 5775.109375 4506.066406 5752.652344 4466.75 5752.652344 4424.269531 C 5752.652344 4366.976562 5793.152344 4317.675781 5849.351562 4306.554688 L 7400 4000 L 7093.457031 5550.648438 C 7082.332031 5606.847656 7033.03125 5647.347656 6975.738281 5647.347656 C 6933.257812 5647.347656 6893.945312 5624.890625 6872.367188 5588.292969 L 6636.320312 5187.941406 L 6475.734375 5348.527344 C 6363.214844 5461.046875 6300 5613.660156 6300 5772.789062 L 6300 12800 L 5700 12800 L 5700 5772.789062 C 5700 5454.53125 5826.429688 5149.304688 6051.472656 4924.261719 L 6212.058594 4763.679688 "/>
<path style=" stroke:none;fill-rule:evenodd;fill:rgb(16.470588%,16.078431%,16.470588%);fill-opacity:1;" d="M 8000 2980 L 7550 3096.191406 C 7540.199219 3098.71875 7530.121094 3100 7520 3100 C 7453.726562 3100 7400 3046.273438 7400 2980 C 7400 2956.226562 7407.0625 2932.988281 7420.289062 2913.234375 L 8300 1600 L 9179.710938 2913.234375 C 9192.9375 2932.988281 9200 2956.226562 9200 2980 C 9200 3046.273438 9146.273438 3100 9080 3100 C 9069.878906 3100 9059.800781 3098.71875 9050 3096.191406 L 8600 2980 L 8600 12800 L 8000 12800 L 8000 2980 "/>
<path style=" stroke:none;fill-rule:evenodd;fill:rgb(16.470588%,16.078431%,16.470588%);fill-opacity:1;" d="M 10300 2980 L 9850 3096.191406 C 9840.199219 3098.71875 9830.121094 3100 9820 3100 C 9753.726562 3100 9700 3046.273438 9700 2980 C 9700 2956.226562 9707.0625 2932.988281 9720.289062 2913.234375 L 10600 1600 L 11479.710938 2913.234375 C 11492.9375 2932.988281 11500 2956.226562 11500 2980 C 11500 3046.273438 11446.273438 3100 11380 3100 C 11369.878906 3100 11359.800781 3098.71875 11350 3096.191406 L 10900 2980 L 10900 12800 L 10300 12800 L 10300 2980 "/>
<path style=" stroke:none;fill-rule:evenodd;fill:rgb(94.509804%,94.117647%,91.764706%);fill-opacity:1;" d="M 10100 8000 C 10100 7522.609375 9910.359375 7064.773438 9572.792969 6727.207031 C 9235.226562 6389.640625 8777.390625 6200 8300 6200 C 7822.609375 6200 7364.773438 6389.640625 7027.207031 6727.207031 C 6689.640625 7064.773438 6500 7522.609375 6500 8000 C 6500 8477.390625 6689.640625 8935.226562 7027.207031 9272.792969 C 7364.773438 9610.359375 7822.609375 9800 8300 9800 C 8777.390625 9800 9235.226562 9610.359375 9572.792969 9272.792969 C 9910.359375 8935.226562 10100 8477.390625 10100 8000 "/>
<path style=" stroke:none;fill-rule:evenodd;fill:rgb(16.470588%,16.078431%,16.470588%);fill-opacity:1;" d="M 10040 8000 C 10040 7538.523438 9856.679688 7095.949219 9530.367188 6769.632812 C 9204.050781 6443.320312 8761.476562 6260 8300 6260 C 7838.523438 6260 7395.949219 6443.320312 7069.632812 6769.632812 C 6743.320312 7095.949219 6560 7538.523438 6560 8000 C 6560 8461.476562 6743.320312 8904.050781 7069.632812 9230.367188 C 7395.949219 9556.679688 7838.523438 9740 8300 9740 C 8761.476562 9740 9204.050781 9556.679688 9530.367188 9230.367188 C 9856.679688 8904.050781 10040 8461.476562 10040 8000 M 9204.691406 6620.132812 C 8935.878906 6443.890625 8621.4375 6350 8300 6350 C 7862.394531 6350 7442.707031 6523.839844 7133.273438 6833.273438 C 6823.839844 7142.707031 6650 7562.394531 6650 8000 C 6650 8321.4375 6743.890625 8635.878906 6920.132812 8904.691406 L 9204.691406 6620.132812 M 9274.847656 6668.769531 C 9291.945312 6681.292969 9308.800781 6694.140625 9325.402344 6707.308594 L 7007.308594 9025.402344 C 6994.140625 9008.800781 6981.292969 8991.945312 6968.769531 8974.847656 L 9274.847656 6668.769531 M 9390.113281 6761.390625 C 9405.894531 6775.28125 9421.410156 6789.472656 9436.648438 6803.953125 L 7103.953125 9136.648438 C 7089.472656 9121.410156 7075.28125 9105.894531 7061.390625 9090.113281 L 9390.113281 6761.390625 M 9538.609375 6909.886719 C 9524.71875 6894.105469 9510.527344 6878.589844 9496.046875 6863.351562 L 7163.351562 9196.046875 C 7178.589844 9210.527344 7194.105469 9224.71875 7209.886719 9238.609375 L 9538.609375 6909.886719 M 9631.230469 7025.152344 C 9618.707031 7008.054688 9605.859375 6991.199219 9592.691406 6974.597656 L 7274.597656 9292.691406 C 7291.199219 9305.859375 7308.054688 9318.707031 7325.152344 9331.230469 L 9631.230469 7025.152344 M 9679.867188 7095.308594 C 9856.109375 7364.121094 9950 7678.5625 9950 8000 C 9950 8437.605469 9776.160156 8857.292969 9466.726562 9166.726562 C 9157.292969 9476.160156 8737.605469 9650 8300 9650 C 7978.5625 9650 7664.121094 9556.109375 7395.308594 9379.867188 L 9679.867188 7095.308594 "/>
</g>
</svg>
