<?xml version="1.0" encoding="UTF-8"?>
<svg xmlns="http://www.w3.org/2000/svg" xmlns:xlink="http://www.w3.org/1999/xlink" width="1200.000000mm" height="1600.000000mm" viewBox="0 0 12000 16000" version="1.1">
<g id="surface426">
<path style="fill-rule:evenodd;fill:rgb(94.509804%,94.117647%,91.764706%);fill-opacity:1;stroke-width:0.3;stroke-linecap:butt;stroke-linejoin:miter;stroke:rgb(16.470588%,16.078431%,16.470588%);stroke-opacity:1;stroke-miterlimit:3;" d="M -540 -800 C -555.912891 -800 -571.174219 -793.678516 -582.426563 -782.426563 C -593.678516 -771.174219 -600 -755.912891 -600 -740 L -600 740 C -600 755.912891 -593.678516 771.174219 -582.426563 782.426563 C -571.174219 793.678516 -555.912891 800 -540 800 L 540 800 C 555.912891 800 571.174219 793.678516 582.426563 782.426563 C 593.678516 771.174219 600 755.912891 600 740 L 600 -740 C 600 -755.912891 593.678516 -771.174219 582.426563 -782.426563 C 571.174219 -793.678516 555.912891 -800 540 -800 L -540 -800 " transform="matrix(10,0,0,-10,6000,8000)"/>
<path style=" stroke:none;fill-rule:evenodd;fill:rgb(16.470588%,16.078431%,16.470588%);fill-opacity:1;" d="M 600 15850 C 480.652344 15850 366.191406 15802.589844 281.800781 15718.199219 C 197.410156 15633.808594 150 15519.347656 150 15400 L 150 600 C 150 480.652344 197.410156 366.191406 281.800781 281.800781 C 366.191406 197.410156 480.652344 150 600 150 L 11400 150 C 11519.347656 150 11633.808594 197.410156 11718.199219 281.800781 C 11802.589844 366.191406 11850 480.652344 11850 600 L 11850 15400 C 11850 15519.347656 11802.589844 15633.808594 11718.199219 15718.199219 C 11633.808594 15802.589844 11519.347656 15850 11400 15850 L 600 15850 M 600 15650 C 461.929688 15650 350 15538.070312 350 15400 L 350 600 C 350 461.929688 461.929688 350 600 350 L 11400 350 C 11538.070312 350 11650 461.929688 11650 600 L 11650 15400 C 11650 15538.070312 11538.070312 15650 11400 15650 L 600 15650 "/>
<path style=" stroke:none;fill-rule:evenodd;fill:rgb(16.470588%,16.078431%,16.470588%);fill-opacity:1;" d="M 1300 2980 L 850 3096.191406 C 840.199219 3098.71875 830.121094 3100 820 3100 C 753.726562 3100 700 3046.273438 700 2980 C 700 2956.226562 707.0625 2932.988281 720.289062 2913.234375 L 1600 1600 L 2479.710938 2913.234375 C 2492.9375 2932.988281 2500 2956.226562 2500 2980 C 2500 3046.273438 2446.273438 3100 2380 3100 C 2369.878906 3100 2359.800781 3098.71875 2350 3096.191406 L 1900 2980 L 1900 14400 L 1300 14400 L 1300 2980 "/>
<path style=" stroke:none;fill-rule:evenodd;fill:rgb(16.470588%,16.078431%,16.470588%);fill-opacity:1;" d="M 3500 2980 L 3050 3096.191406 C 3040.199219 3098.71875 3030.121094 3100 3020 3100 C 2953.726562 3100 2900 3046.273438 2900 2980 C 2900 2956.226562 2907.0625 2932.988281 2920.289062 2913.234375 L 3800 1600 L 4679.710938 2913.234375 C 4692.9375 2932.988281 4700 2956.226562 4700 2980 C 4700 3046.273438 4646.273438 3100 4580 3100 C 4569.878906 3100 4559.800781 3098.71875 4550 3096.191406 L 4100 2980 L 4100 14400 L 3500 14400 L 3500 2980 "/>
<path style=" stroke:none;fill-rule:evenodd;fill:rgb(16.470588%,16.078431%,16.470588%);fill-opacity:1;" d="M 5700 2980 L 5250 3096.191406 C 5240.199219 3098.71875 5230.121094 3100 5220 3100 C 5153.726562 3100 5100 3046.273438 5100 2980 C 5100 2956.226562 5107.0625 2932.988281 5120.289062 2913.234375 L 6000 1600 L 6879.710938 2913.234375 C 6892.9375 2932.988281 6900 2956.226562 6900 2980 C 6900 3046.273438 6846.273438 3100 6780 3100 C 6769.878906 3100 6759.800781 3098.71875 6750 3096.191406 L 6300 2980 L 6300 14400 L 5700 14400 L 5700 2980 "/>
<path style=" stroke:none;fill-rule:evenodd;fill:rgb(16.470588%,16.078431%,16.470588%);fill-opacity:1;" d="M 7900 2980 L 7450 3096.191406 C 7440.199219 3098.71875 7430.121094 3100 7420 3100 C 7353.726562 3100 7300 3046.273438 7300 2980 C 7300 2956.226562 7307.0625 2932.988281 7320.289062 2913.234375 L 8200 1600 L 9079.710938 2913.234375 C 9092.9375 2932.988281 9100 2956.226562 9100 2980 C 9100 3046.273438 9046.273438 3100 8980 3100 C 8969.878906 3100 8959.800781 3098.71875 8950 3096.191406 L 8500 2980 L 8500 14400 L 7900 14400 L 7900 2980 "/>
<path style=" stroke:none;fill-rule:evenodd;fill:rgb(16.470588%,16.078431%,16.470588%);fill-opacity:1;" d="M 10700 2980 L 11150 3096.191406 C 11159.800781 3098.71875 11169.878906 3100 11180 3100 C 11246.273438 3100 11300 3046.273438 11300 2980 C 11300 2956.226562 11292.9375 2932.988281 11279.710938 2913.234375 L 10400 1600 L 9520.289062 2913.234375 C 9507.0625 2932.988281 9500 2956.226562 9500 2980 C 9500 3046.273438 9553.726562 3100 9620 3100 C 9630.121094 3100 9640.199219 3098.71875 9650 3096.191406 L 10100 2980 L 10100 8302.941406 C 10100 8462.070312 10036.785156 8614.683594 9924.265625 8727.203125 L 9100 9551.46875 L 9100 10400 L 10348.527344 9151.46875 C 10573.570312 8926.425781 10700 8621.199219 10700 8302.941406 L 10700 2980 "/>
</g>
</svg>
