<?xml version="1.0" encoding="UTF-8"?>
<svg xmlns="http://www.w3.org/2000/svg" xmlns:xlink="http://www.w3.org/1999/xlink" width="1200.000000mm" height="1600.000000mm" viewBox="0 0 12000 16000" version="1.1">
<g id="surface431">
<path style="fill-rule:evenodd;fill:rgb(94.509804%,94.117647%,91.764706%);fill-opacity:1;stroke-width:0.3;stroke-linecap:butt;stroke-linejoin:miter;stroke:rgb(16.470588%,16.078431%,16.470588%);stroke-opacity:1;stroke-miterlimit:3;" d="M -540 -800 C -555.912891 -800 -571.174219 -793.678516 -582.426563 -782.426563 C -593.678516 -771.174219 -600 -755.912891 -600 -740 L -600 740 C -600 755.912891 -593.678516 771.174219 -582.426563 782.426563 C -571.174219 793.678516 -555.912891 800 -540 800 L 540 800 C 555.912891 800 571.174219 793.678516 582.426563 782.426563 C 593.678516 771.174219 600 755.912891 600 740 L 600 -740 C 600 -755.912891 593.678516 -771.174219 582.426563 -782.426563 C 571.174219 -793.678516 555.912891 -800 540 -800 L -540 -800 " transform="matrix(10,0,0,-10,6000,8000)"/>
<path style=" stroke:none;fill-rule:evenodd;fill:rgb(16.470588%,16.078431%,16.470588%);fill-opacity:1;" d="M 600 15850 C 480.652344 15850 366.191406 15802.589844 281.800781 15718.199219 C 197.410156 15633.808594 150 15519.347656 150 15400 L 150 600 C 150 480.652344 197.410156 366.191406 281.800781 281.800781 C 366.191406 197.410156 480.652344 150 600 150 L 11400 150 C 11519.347656 150 11633.808594 197.410156 11718.199219 281.800781 C 11802.589844 366.191406 11850 480.652344 11850 600 L 11850 15400 C 11850 15519.347656 11802.589844 15633.808594 11718.199219 15718.199219 C 11633.808594 15802.589844 11519.347656 15850 11400 15850 L 600 15850 M 600 15650 C 461.929688 15650 350 15538.070312 350 15400 L 350 600 C 350 461.929688 461.929688 350 600 350 L 11400 350 C 11538.070312 350 11650 461.929688 11650 600 L 11650 15400 C 11650 15538.070312 11538.070312 15650 11400 15650 L 600 15650 M 4000 2980 L 3550 3096.191406 C 3540.199219 3098.71875 3530.121094 3100 3520 3100 C 3453.726562 3100 3400 3046.273438 3400 2980 C 3400 2956.226562 3407.0625 2932.988281 3420.289062 2913.234375 L 4300 1600 L 5179.710938 2913.234375 C 5192.9375 2932.988281 5200 2956.226562 5200 2980 C 5200 3046.273438 5146.273438 3100 5080 3100 C 5069.878906 3100 5059.800781 3098.71875 5050 3096.191406 L 4600 2980 L 4600 8702.941406 C 4600 8862.070312 4663.214844 9014.683594 4775.734375 9127.203125 L 6800 11151.472656 L 6800 12000 L 4351.472656 9551.46875 C 4126.429688 9326.425781 4000 9021.199219 4000 8702.941406 L 4000 2980 "/>
<path style=" stroke:none;fill-rule:evenodd;fill:rgb(16.470588%,16.078431%,16.470588%);fill-opacity:1;" d="M 7400 2980 L 6950 3096.191406 C 6940.199219 3098.71875 6930.121094 3100 6920 3100 C 6853.726562 3100 6800 3046.273438 6800 2980 C 6800 2956.226562 6807.0625 2932.988281 6820.289062 2913.234375 L 7700 1600 L 8579.710938 2913.234375 C 8592.9375 2932.988281 8600 2956.226562 8600 2980 C 8600 3046.273438 8546.273438 3100 8480 3100 C 8469.878906 3100 8459.800781 3098.71875 8450 3096.191406 L 8000 2980 L 8000 14400 L 7400 14400 L 7400 2980 "/>
<path style=" stroke:none;fill-rule:evenodd;fill:rgb(94.509804%,94.117647%,91.764706%);fill-opacity:1;" d="M 6700 6100 C 6700 5463.480469 6447.144531 4853.03125 5997.054688 4402.945312 C 5546.96875 3952.855469 4936.519531 3700 4300 3700 C 3663.480469 3700 3053.03125 3952.855469 2602.945312 4402.945312 C 2152.855469 4853.03125 1900 5463.480469 1900 6100 C 1900 6736.519531 2152.855469 7346.96875 2602.945312 7797.054688 C 3053.03125 8247.144531 3663.480469 8500 4300 8500 C 4936.519531 8500 5546.96875 8247.144531 5997.054688 7797.054688 C 6447.144531 7346.96875 6700 6736.519531 6700 6100 "/>
<path style=" stroke:none;fill-rule:evenodd;fill:rgb(73.333333%,11.764706%,6.27451%);fill-opacity:1;" d="M 6580 6100 C 6580 5495.304688 6339.785156 4915.378906 5912.203125 4487.796875 C 5484.621094 4060.214844 4904.695312 3820 4300 3820 C 3695.304688 3820 3115.378906 4060.214844 2687.796875 4487.796875 C 2260.214844 4915.378906 2020 5495.304688 2020 6100 C 2020 6704.695312 2260.214844 7284.621094 2687.796875 7712.203125 C 3115.378906 8139.785156 3695.304688 8380 4300 8380 C 4904.695312 8380 5484.621094 8139.785156 5912.203125 7712.203125 C 6339.785156 7284.621094 6580 6704.695312 6580 6100 M 5980 6100 C 5980 5654.4375 5803 5227.121094 5487.9375 4912.0625 C 5172.878906 4597 4745.5625 4420 4300 4420 C 3854.4375 4420 3427.121094 4597 3112.0625 4912.0625 C 2797 5227.121094 2620 5654.4375 2620 6100 C 2620 6545.5625 2797 6972.878906 3112.0625 7287.9375 C 3427.121094 7603 3854.4375 7780 4300 7780 C 4745.5625 7780 5172.878906 7603 5487.9375 7287.9375 C 5803 6972.878906 5980 6545.5625 5980 6100 "/>
<path style=" stroke:none;fill-rule:evenodd;fill:rgb(16.470588%,16.078431%,16.470588%);fill-opacity:1;" d="M 3660 5684 L 3105.40625 5718.660156 C 3080.234375 5720.234375 3058.332031 5736.449219 3049.476562 5760.066406 L 2908.300781 6136.535156 C 2897.519531 6165.277344 2892 6195.722656 2892 6226.421875 L 2892 6580 C 2892 6615.347656 2920.652344 6644 2956 6644 L 2988 6644 C 2988 6484.941406 3116.941406 6356 3276 6356 C 3435.058594 6356 3564 6484.941406 3564 6644 L 4716 6644 C 4716 6557.007812 4755.320312 6474.675781 4822.980469 6420 L 3660 6420 L 3660 5684 M 3436 6116 L 3436 5796 L 3112.625 5816.210938 C 3100.035156 5816.996094 3089.085938 5825.101562 3084.65625 5836.910156 L 2977.386719 6122.972656 C 2976.039062 6126.566406 2975.347656 6130.371094 2975.347656 6134.210938 C 2975.347656 6151.882812 2989.675781 6166.210938 3007.347656 6166.210938 C 3008.597656 6166.210938 3009.847656 6166.136719 3011.089844 6165.992188 L 3436 6116 M 3500 6644 C 3500 6520.289062 3399.710938 6420 3276 6420 C 3152.289062 6420 3052 6520.289062 3052 6644 C 3052 6767.710938 3152.289062 6868 3276 6868 C 3399.710938 6868 3500 6767.710938 3500 6644 M 5228 6644 C 5228 6520.289062 5127.710938 6420 5004 6420 C 4880.289062 6420 4780 6520.289062 4780 6644 C 4780 6767.710938 4880.289062 6868 5004 6868 C 5127.710938 6868 5228 6767.710938 5228 6644 M 5452 6644 L 5644 6580 L 5644 6420 L 5185.019531 6420 C 5252.679688 6474.675781 5292 6557.007812 5292 6644 L 5452 6644 M 5644 6356 L 5644 5460 L 3788 5460 L 3788 6356 L 5644 6356 "/>
</g>
</svg>
