<?xml version="1.0" encoding="UTF-8"?>
<svg xmlns="http://www.w3.org/2000/svg" xmlns:xlink="http://www.w3.org/1999/xlink" width="1200.000000mm" height="1600.000000mm" viewBox="0 0 12000 16000" version="1.1">
<g id="surface586">
<path style="fill-rule:evenodd;fill:rgb(94.509804%,94.117647%,91.764706%);fill-opacity:1;stroke-width:0.3;stroke-linecap:butt;stroke-linejoin:miter;stroke:rgb(16.470588%,16.078431%,16.470588%);stroke-opacity:1;stroke-miterlimit:3;" d="M -540 -800 C -555.912891 -800 -571.174219 -793.678516 -582.426563 -782.426563 C -593.678516 -771.174219 -600 -755.912891 -600 -740 L -600 740 C -600 755.912891 -593.678516 771.174219 -582.426563 782.426563 C -571.174219 793.678516 -555.912891 800 -540 800 L 540 800 C 555.912891 800 571.174219 793.678516 582.426563 782.426563 C 593.678516 771.174219 600 755.912891 600 740 L 600 -740 C 600 -755.912891 593.678516 -771.174219 582.426563 -782.426563 C 571.174219 -793.678516 555.912891 -800 540 -800 L -540 -800 " transform="matrix(10,0,0,-10,6000,8000)"/>
<path style=" stroke:none;fill-rule:evenodd;fill:rgb(16.470588%,16.078431%,16.470588%);fill-opacity:1;" d="M 600 15850 C 480.652344 15850 366.191406 15802.589844 281.800781 15718.199219 C 197.410156 15633.808594 150 15519.347656 150 15400 L 150 600 C 150 480.652344 197.410156 366.191406 281.800781 281.800781 C 366.191406 197.410156 480.652344 150 600 150 L 11400 150 C 11519.347656 150 11633.808594 197.410156 11718.199219 281.800781 C 11802.589844 366.191406 11850 480.652344 11850 600 L 11850 15400 C 11850 15519.347656 11802.589844 15633.808594 11718.199219 15718.199219 C 11633.808594 15802.589844 11519.347656 15850 11400 15850 L 600 15850 M 600 15650 C 461.929688 15650 350 15538.070312 350 15400 L 350 600 C 350 461.929688 461.929688 350 600 350 L 11400 350 C 11538.070312 350 11650 461.929688 11650 600 L 11650 15400 C 11650 15538.070312 11538.070312 15650 11400 15650 L 600 15650 "/>
<path style=" stroke:none;fill-rule:evenodd;fill:rgb(16.470588%,16.078431%,16.470588%);fill-opacity:1;" d="M 1900 13020 L 2350 12903.808594 C 2359.800781 12901.28125 2369.878906 12900 2380 12900 C 2446.273438 12900 2500 12953.726562 2500 13020 C 2500 13043.773438 2492.9375 13067.011719 2479.710938 13086.765625 L 1600 14400 L 720.289062 13086.765625 C 707.0625 13067.011719 700 13043.773438 700 13020 C 700 12953.726562 753.726562 12900 820 12900 C 830.121094 12900 840.199219 12901.28125 850 12903.808594 L 1300 13020 L 1300 3200 L 1900 3200 L 1900 13020 "/>
<path style=" stroke:none;fill-rule:evenodd;fill:rgb(16.470588%,16.078431%,16.470588%);fill-opacity:1;" d="M 4000 13020 L 4450 12903.808594 C 4459.800781 12901.28125 4469.878906 12900 4480 12900 C 4546.273438 12900 4600 12953.726562 4600 13020 C 4600 13043.773438 4592.9375 13067.011719 4579.710938 13086.765625 L 3700 14400 L 2820.289062 13086.765625 C 2807.0625 13067.011719 2800 13043.773438 2800 13020 C 2800 12953.726562 2853.726562 12900 2920 12900 C 2930.121094 12900 2940.199219 12901.28125 2950 12903.808594 L 3400 13020 L 3400 3200 L 4000 3200 L 4000 13020 "/>
<path style=" stroke:none;fill-rule:evenodd;fill:rgb(16.470588%,16.078431%,16.470588%);fill-opacity:1;" d="M 5900 2980 L 5450 3096.191406 C 5440.199219 3098.71875 5430.121094 3100 5420 3100 C 5353.726562 3100 5300 3046.273438 5300 2980 C 5300 2956.226562 5307.0625 2932.988281 5320.289062 2913.234375 L 6200 1600 L 7079.710938 2913.234375 C 7092.9375 2932.988281 7100 2956.226562 7100 2980 C 7100 3046.273438 7046.273438 3100 6980 3100 C 6969.878906 3100 6959.800781 3098.71875 6950 3096.191406 L 6500 2980 L 6500 12800 L 5900 12800 L 5900 2980 "/>
<path style=" stroke:none;fill-rule:evenodd;fill:rgb(16.470588%,16.078431%,16.470588%);fill-opacity:1;" d="M 8000 2980 L 7550 3096.191406 C 7540.199219 3098.71875 7530.121094 3100 7520 3100 C 7453.726562 3100 7400 3046.273438 7400 2980 C 7400 2956.226562 7407.0625 2932.988281 7420.289062 2913.234375 L 8300 1600 L 9179.710938 2913.234375 C 9192.9375 2932.988281 9200 2956.226562 9200 2980 C 9200 3046.273438 9146.273438 3100 9080 3100 C 9069.878906 3100 9059.800781 3098.71875 9050 3096.191406 L 8600 2980 L 8600 12800 L 8000 12800 L 8000 2980 "/>
<path style=" stroke:none;fill-rule:evenodd;fill:rgb(16.470588%,16.078431%,16.470588%);fill-opacity:1;" d="M 10700 2980 L 11150 3096.191406 C 11159.800781 3098.71875 11169.878906 3100 11180 3100 C 11246.273438 3100 11300 3046.273438 11300 2980 C 11300 2956.226562 11292.9375 2932.988281 11279.710938 2913.234375 L 10400 1600 L 9520.289062 2913.234375 C 9507.0625 2932.988281 9500 2956.226562 9500 2980 C 9500 3046.273438 9553.726562 3100 9620 3100 C 9630.121094 3100 9640.199219 3098.71875 9650 3096.191406 L 10100 2980 L 10100 7602.941406 C 10100 7762.070312 10036.785156 7914.683594 9924.265625 8027.203125 L 9200 8751.46875 L 9200 9600 L 10348.527344 8451.46875 C 10573.570312 8226.425781 10700 7921.199219 10700 7602.941406 L 10700 2980 "/>
</g>
</svg>
