<?xml version="1.0" encoding="UTF-8"?>
<svg xmlns="http://www.w3.org/2000/svg" xmlns:xlink="http://www.w3.org/1999/xlink" width="1200.000000mm" height="1600.000000mm" viewBox="0 0 12000 16000" version="1.1">
<g id="surface701">
<path style="fill-rule:evenodd;fill:rgb(94.509804%,94.117647%,91.764706%);fill-opacity:1;stroke-width:0.3;stroke-linecap:butt;stroke-linejoin:miter;stroke:rgb(16.470588%,16.078431%,16.470588%);stroke-opacity:1;stroke-miterlimit:3;" d="M -540 -800 C -555.912891 -800 -571.174219 -793.678516 -582.426563 -782.426563 C -593.678516 -771.174219 -600 -755.912891 -600 -740 L -600 740 C -600 755.912891 -593.678516 771.174219 -582.426563 782.426563 C -571.174219 793.678516 -555.912891 800 -540 800 L 540 800 C 555.912891 800 571.174219 793.678516 582.426563 782.426563 C 593.678516 771.174219 600 755.912891 600 740 L 600 -740 C 600 -755.912891 593.678516 -771.174219 582.426563 -782.426563 C 571.174219 -793.678516 555.912891 -800 540 -800 L -540 -800 " transform="matrix(10,0,0,-10,6000,8000)"/>
<path style=" stroke:none;fill-rule:evenodd;fill:rgb(16.470588%,16.078431%,16.470588%);fill-opacity:1;" d="M 600 15850 C 480.652344 15850 366.191406 15802.589844 281.800781 15718.199219 C 197.410156 15633.808594 150 15519.347656 150 15400 L 150 600 C 150 480.652344 197.410156 366.191406 281.800781 281.800781 C 366.191406 197.410156 480.652344 150 600 150 L 11400 150 C 11519.347656 150 11633.808594 197.410156 11718.199219 281.800781 C 11802.589844 366.191406 11850 480.652344 11850 600 L 11850 15400 C 11850 15519.347656 11802.589844 15633.808594 11718.199219 15718.199219 C 11633.808594 15802.589844 11519.347656 15850 11400 15850 L 600 15850 M 600 15650 C 461.929688 15650 350 15538.070312 350 15400 L 350 600 C 350 461.929688 461.929688 350 600 350 L 11400 350 C 11538.070312 350 11650 461.929688 11650 600 L 11650 15400 C 11650 15538.070312 11538.070312 15650 11400 15650 L 600 15650 "/>
<path style=" stroke:none;fill-rule:evenodd;fill:rgb(16.470588%,16.078431%,16.470588%);fill-opacity:1;" d="M 1900 13020 L 2350 12903.808594 C 2359.800781 12901.28125 2369.878906 12900 2380 12900 C 2446.273438 12900 2500 12953.726562 2500 13020 C 2500 13043.773438 2492.9375 13067.011719 2479.710938 13086.765625 L 1600 14400 L 720.289062 13086.765625 C 707.0625 13067.011719 700 13043.773438 700 13020 C 700 12953.726562 753.726562 12900 820 12900 C 830.121094 12900 840.199219 12901.28125 850 12903.808594 L 1300 13020 L 1300 3200 L 1900 3200 L 1900 13020 "/>
<path style=" stroke:none;fill-rule:evenodd;fill:rgb(16.470588%,16.078431%,16.470588%);fill-opacity:1;" d="M 4400 13020 L 4850 12903.808594 C 4859.800781 12901.28125 4869.878906 12900 4880 12900 C 4946.273438 12900 5000 12953.726562 5000 13020 C 5000 13043.773438 4992.9375 13067.011719 4979.710938 13086.765625 L 4100 14400 L 3220.289062 13086.765625 C 3207.0625 13067.011719 3200 13043.773438 3200 13020 C 3200 12953.726562 3253.726562 12900 3320 12900 C 3330.121094 12900 3340.199219 12901.28125 3350 12903.808594 L 3800 13020 L 3800 3200 L 4400 3200 L 4400 13020 "/>
<path style=" stroke:none;fill-rule:evenodd;fill:rgb(16.470588%,16.078431%,16.470588%);fill-opacity:1;" d="M 6500 2980 L 6050 3096.191406 C 6040.199219 3098.71875 6030.121094 3100 6020 3100 C 5953.726562 3100 5900 3046.273438 5900 2980 C 5900 2956.226562 5907.0625 2932.988281 5920.289062 2913.234375 L 6800 1600 L 7679.710938 2913.234375 C 7692.9375 2932.988281 7700 2956.226562 7700 2980 C 7700 3046.273438 7646.273438 3100 7580 3100 C 7569.878906 3100 7559.800781 3098.71875 7550 3096.191406 L 7100 2980 L 7100 12800 L 6500 12800 L 6500 2980 "/>
<path style=" stroke:none;fill-rule:evenodd;fill:rgb(16.470588%,16.078431%,16.470588%);fill-opacity:1;" d="M 9600 2980 L 10050 3096.191406 C 10059.800781 3098.71875 10069.878906 3100 10080 3100 C 10146.273438 3100 10200 3046.273438 10200 2980 C 10200 2956.226562 10192.9375 2932.988281 10179.710938 2913.234375 L 9300 1600 L 8420.289062 2913.234375 C 8407.0625 2932.988281 8400 2956.226562 8400 2980 C 8400 3046.273438 8453.726562 3100 8520 3100 C 8530.121094 3100 8540.199219 3098.71875 8550 3096.191406 L 9000 2980 L 9000 8702.941406 C 9000 8862.070312 8936.785156 9014.683594 8824.265625 9127.203125 L 7600 10351.46875 L 7600 11200 L 9248.527344 9551.46875 C 9473.570312 9326.425781 9600 9021.199219 9600 8702.941406 L 9600 2980 "/>
<path style=" stroke:none;fill-rule:evenodd;fill:rgb(94.509804%,94.117647%,91.764706%);fill-opacity:1;" d="M 11400 5800 C 11400 5243.046875 11178.75 4708.902344 10784.925781 4315.074219 C 10391.097656 3921.25 9856.953125 3700 9300 3700 C 8743.046875 3700 8208.902344 3921.25 7815.074219 4315.074219 C 7421.25 4708.902344 7200 5243.046875 7200 5800 C 7200 6356.953125 7421.25 6891.097656 7815.074219 7284.925781 C 8208.902344 7678.75 8743.046875 7900 9300 7900 C 9856.953125 7900 10391.097656 7678.75 10784.925781 7284.925781 C 11178.75 6891.097656 11400 6356.953125 11400 5800 "/>
<path style=" stroke:none;fill-rule:evenodd;fill:rgb(73.333333%,11.764706%,6.27451%);fill-opacity:1;" d="M 11295 5800 C 11295 5270.894531 11084.8125 4763.457031 10710.679688 4389.320312 C 10336.542969 4015.1875 9829.105469 3805 9300 3805 C 8770.894531 3805 8263.457031 4015.1875 7889.320312 4389.320312 C 7515.1875 4763.457031 7305 5270.894531 7305 5800 C 7305 6329.105469 7515.1875 6836.542969 7889.320312 7210.679688 C 8263.457031 7584.8125 8770.894531 7795 9300 7795 C 9829.105469 7795 10336.542969 7584.8125 10710.679688 7210.679688 C 11084.8125 6836.542969 11295 6329.105469 11295 5800 M 10770 5800 C 10770 5410.132812 10615.125 5036.230469 10339.445312 4760.554688 C 10063.769531 4484.875 9689.867188 4330 9300 4330 C 8910.132812 4330 8536.230469 4484.875 8260.554688 4760.554688 C 7984.875 5036.230469 7830 5410.132812 7830 5800 C 7830 6189.867188 7984.875 6563.769531 8260.554688 6839.445312 C 8536.230469 7115.125 8910.132812 7270 9300 7270 C 9689.867188 7270 10063.769531 7115.125 10339.445312 6839.445312 C 10615.125 6563.769531 10770 6189.867188 10770 5800 "/>
<path style=" stroke:none;fill-rule:evenodd;fill:rgb(16.470588%,16.078431%,16.470588%);fill-opacity:1;" d="M 8740 5436 L 8254.730469 5466.328125 C 8232.703125 5467.707031 8213.539062 5481.890625 8205.789062 5502.558594 L 8082.261719 5831.964844 C 8072.832031 5857.117188 8068 5883.757812 8068 5910.617188 L 8068 6220 C 8068 6250.929688 8093.070312 6276 8124 6276 L 8152 6276 C 8152 6136.824219 8264.824219 6024 8404 6024 C 8543.175781 6024 8656 6136.824219 8656 6276 L 9664 6276 C 9664 6199.882812 9698.40625 6127.84375 9757.609375 6080 L 8740 6080 L 8740 5436 M 8544 5814 L 8544 5534 L 8261.046875 5551.683594 C 8250.03125 5552.371094 8240.449219 5559.464844 8236.574219 5569.796875 L 8142.710938 5820.101562 C 8141.535156 5823.246094 8140.929688 5826.574219 8140.929688 5829.933594 C 8140.929688 5845.398438 8153.464844 5857.933594 8168.929688 5857.933594 C 8170.023438 5857.933594 8171.117188 5857.867188 8172.203125 5857.742188 L 8544 5814 M 8600 6276 C 8600 6167.753906 8512.246094 6080 8404 6080 C 8295.753906 6080 8208 6167.753906 8208 6276 C 8208 6384.246094 8295.753906 6472 8404 6472 C 8512.246094 6472 8600 6384.246094 8600 6276 M 10112 6276 C 10112 6167.753906 10024.246094 6080 9916 6080 C 9807.753906 6080 9720 6167.753906 9720 6276 C 9720 6384.246094 9807.753906 6472 9916 6472 C 10024.246094 6472 10112 6384.246094 10112 6276 M 10308 6276 L 10476 6220 L 10476 6080 L 10074.390625 6080 C 10133.59375 6127.84375 10168 6199.882812 10168 6276 L 10308 6276 M 10476 6024 L 10476 5240 L 8852 5240 L 8852 6024 L 10476 6024 "/>
</g>
</svg>
