<?xml version="1.0" encoding="UTF-8"?>
<svg xmlns="http://www.w3.org/2000/svg" xmlns:xlink="http://www.w3.org/1999/xlink" width="1200.000000mm" height="1600.000000mm" viewBox="0 0 12000 16000" version="1.1">
<g id="surface711">
<path style="fill-rule:evenodd;fill:rgb(94.509804%,94.117647%,91.764706%);fill-opacity:1;stroke-width:0.3;stroke-linecap:butt;stroke-linejoin:miter;stroke:rgb(16.470588%,16.078431%,16.470588%);stroke-opacity:1;stroke-miterlimit:3;" d="M -540 -800 C -555.912891 -800 -571.174219 -793.678516 -582.426563 -782.426563 C -593.678516 -771.174219 -600 -755.912891 -600 -740 L -600 740 C -600 755.912891 -593.678516 771.174219 -582.426563 782.426563 C -571.174219 793.678516 -555.912891 800 -540 800 L 540 800 C 555.912891 800 571.174219 793.678516 582.426563 782.426563 C 593.678516 771.174219 600 755.912891 600 740 L 600 -740 C 600 -755.912891 593.678516 -771.174219 582.426563 -782.426563 C 571.174219 -793.678516 555.912891 -800 540 -800 L -540 -800 " transform="matrix(10,0,0,-10,6000,8000)"/>
<path style=" stroke:none;fill-rule:evenodd;fill:rgb(16.470588%,16.078431%,16.470588%);fill-opacity:1;" d="M 600 15850 C 480.652344 15850 366.191406 15802.589844 281.800781 15718.199219 C 197.410156 15633.808594 150 15519.347656 150 15400 L 150 600 C 150 480.652344 197.410156 366.191406 281.800781 281.800781 C 366.191406 197.410156 480.652344 150 600 150 L 11400 150 C 11519.347656 150 11633.808594 197.410156 11718.199219 281.800781 C 11802.589844 366.191406 11850 480.652344 11850 600 L 11850 15400 C 11850 15519.347656 11802.589844 15633.808594 11718.199219 15718.199219 C 11633.808594 15802.589844 11519.347656 15850 11400 15850 L 600 15850 M 600 15650 C 461.929688 15650 350 15538.070312 350 15400 L 350 600 C 350 461.929688 461.929688 350 600 350 L 11400 350 C 11538.070312 350 11650 461.929688 11650 600 L 11650 15400 C 11650 15538.070312 11538.070312 15650 11400 15650 L 600 15650 M 9500 2980 L 9050 3096.191406 C 9040.199219 3098.71875 9030.121094 3100 9020 3100 C 8953.726562 3100 8900 3046.273438 8900 2980 C 8900 2956.226562 8907.0625 2932.988281 8920.289062 2913.234375 L 9800 1600 L 10679.710938 2913.234375 C 10692.9375 2932.988281 10700 2956.226562 10700 2980 C 10700 3046.273438 10646.273438 3100 10580 3100 C 10569.878906 3100 10559.800781 3098.71875 10550 3096.191406 L 10100 2980 L 10100 14400 L 9500 14400 L 9500 2980 "/>
<path style=" stroke:none;fill-rule:evenodd;fill:rgb(16.470588%,16.078431%,16.470588%);fill-opacity:1;" d="M 6400 2980 L 5950 3096.191406 C 5940.199219 3098.71875 5930.121094 3100 5920 3100 C 5853.726562 3100 5800 3046.273438 5800 2980 C 5800 2956.226562 5807.0625 2932.988281 5820.289062 2913.234375 L 6700 1600 L 7579.710938 2913.234375 C 7592.9375 2932.988281 7600 2956.226562 7600 2980 C 7600 3046.273438 7546.273438 3100 7480 3100 C 7469.878906 3100 7459.800781 3098.71875 7450 3096.191406 L 7000 2980 L 7000 14400 L 6400 14400 L 6400 2980 "/>
<path style=" stroke:none;fill-rule:evenodd;fill:rgb(16.470588%,16.078431%,16.470588%);fill-opacity:1;" d="M 3900 2980 L 4350 3096.191406 C 4359.800781 3098.71875 4369.878906 3100 4380 3100 C 4446.273438 3100 4500 3046.273438 4500 2980 C 4500 2956.226562 4492.9375 2932.988281 4479.710938 2913.234375 L 3600 1600 L 2720.289062 2913.234375 C 2707.0625 2932.988281 2700 2956.226562 2700 2980 C 2700 3046.273438 2753.726562 3100 2820 3100 C 2830.121094 3100 2840.199219 3098.71875 2850 3096.191406 L 3300 2980 L 3300 7327.207031 C 3300 7486.339844 3236.785156 7638.949219 3124.265625 7751.472656 L 1300 9575.734375 L 1724.265625 10000 L 3548.527344 8175.734375 C 3773.570312 7950.691406 3900 7645.46875 3900 7327.207031 L 3900 2980 "/>
</g>
</svg>
