<?xml version="1.0" encoding="UTF-8"?>
<svg xmlns="http://www.w3.org/2000/svg" xmlns:xlink="http://www.w3.org/1999/xlink" width="1200.000000mm" height="1600.000000mm" viewBox="0 0 12000 16000" version="1.1">
<g id="surface721">
<path style="fill-rule:evenodd;fill:rgb(94.509804%,94.117647%,91.764706%);fill-opacity:1;stroke-width:0.3;stroke-linecap:butt;stroke-linejoin:miter;stroke:rgb(16.470588%,16.078431%,16.470588%);stroke-opacity:1;stroke-miterlimit:3;" d="M -540 -800 C -555.912891 -800 -571.174219 -793.678516 -582.426563 -782.426563 C -593.678516 -771.174219 -600 -755.912891 -600 -740 L -600 740 C -600 755.912891 -593.678516 771.174219 -582.426563 782.426563 C -571.174219 793.678516 -555.912891 800 -540 800 L 540 800 C 555.912891 800 571.174219 793.678516 582.426563 782.426563 C 593.678516 771.174219 600 755.912891 600 740 L 600 -740 C 600 -755.912891 593.678516 -771.174219 582.426563 -782.426563 C 571.174219 -793.678516 555.912891 -800 540 -800 L -540 -800 " transform="matrix(10,0,0,-10,6000,8000)"/>
<path style=" stroke:none;fill-rule:evenodd;fill:rgb(16.470588%,16.078431%,16.470588%);fill-opacity:1;" d="M 600 15850 C 480.652344 15850 366.191406 15802.589844 281.800781 15718.199219 C 197.410156 15633.808594 150 15519.347656 150 15400 L 150 600 C 150 480.652344 197.410156 366.191406 281.800781 281.800781 C 366.191406 197.410156 480.652344 150 600 150 L 11400 150 C 11519.347656 150 11633.808594 197.410156 11718.199219 281.800781 C 11802.589844 366.191406 11850 480.652344 11850 600 L 11850 15400 C 11850 15519.347656 11802.589844 15633.808594 11718.199219 15718.199219 C 11633.808594 15802.589844 11519.347656 15850 11400 15850 L 600 15850 M 600 15650 C 461.929688 15650 350 15538.070312 350 15400 L 350 600 C 350 461.929688 461.929688 350 600 350 L 11400 350 C 11538.070312 350 11650 461.929688 11650 600 L 11650 15400 C 11650 15538.070312 11538.070312 15650 11400 15650 L 600 15650 "/>
<path style=" stroke:none;fill-rule:evenodd;fill:rgb(16.470588%,16.078431%,16.470588%);fill-opacity:1;" d="M 10000 2980 L 9550 3096.191406 C 9540.199219 3098.71875 9530.121094 3100 9520 3100 C 9453.726562 3100 9400 3046.273438 9400 2980 C 9400 2956.226562 9407.0625 2932.988281 9420.289062 2913.234375 L 10300 1600 L 11179.710938 2913.234375 C 11192.9375 2932.988281 11200 2956.226562 11200 2980 C 11200 3046.273438 11146.273438 3100 11080 3100 C 11069.878906 3100 11059.800781 3098.71875 11050 3096.191406 L 10600 2980 L 10600 14400 L 10000 14400 L 10000 2980 "/>
<path style=" stroke:none;fill-rule:evenodd;fill:rgb(16.470588%,16.078431%,16.470588%);fill-opacity:1;" d="M 7600 2980 L 7150 3096.191406 C 7140.199219 3098.71875 7130.121094 3100 7120 3100 C 7053.726562 3100 7000 3046.273438 7000 2980 C 7000 2956.226562 7007.0625 2932.988281 7020.289062 2913.234375 L 7900 1600 L 8779.710938 2913.234375 C 8792.9375 2932.988281 8800 2956.226562 8800 2980 C 8800 3046.273438 8746.273438 3100 8680 3100 C 8669.878906 3100 8659.800781 3098.71875 8650 3096.191406 L 8200 2980 L 8200 14400 L 7600 14400 L 7600 2980 "/>
<path style=" stroke:none;fill-rule:evenodd;fill:rgb(16.470588%,16.078431%,16.470588%);fill-opacity:1;" d="M 5200 2980 L 4750 3096.191406 C 4740.199219 3098.71875 4730.121094 3100 4720 3100 C 4653.726562 3100 4600 3046.273438 4600 2980 C 4600 2956.226562 4607.0625 2932.988281 4620.289062 2913.234375 L 5500 1600 L 6379.710938 2913.234375 C 6392.9375 2932.988281 6400 2956.226562 6400 2980 C 6400 3046.273438 6346.273438 3100 6280 3100 C 6269.878906 3100 6259.800781 3098.71875 6250 3096.191406 L 5800 2980 L 5800 14400 L 5200 14400 L 5200 2980 "/>
<path style=" stroke:none;fill-rule:evenodd;fill:rgb(16.470588%,16.078431%,16.470588%);fill-opacity:1;" d="M 3400 2980 L 3850 3096.191406 C 3859.800781 3098.71875 3869.878906 3100 3880 3100 C 3946.273438 3100 4000 3046.273438 4000 2980 C 4000 2956.226562 3992.9375 2932.988281 3979.710938 2913.234375 L 3100 1600 L 2220.289062 2913.234375 C 2207.0625 2932.988281 2200 2956.226562 2200 2980 C 2200 3046.273438 2253.726562 3100 2320 3100 C 2330.121094 3100 2340.199219 3098.71875 2350 3096.191406 L 2800 2980 L 2800 7327.207031 C 2800 7486.339844 2736.785156 7638.949219 2624.265625 7751.472656 L 800 9575.734375 L 1224.265625 10000 L 3048.527344 8175.734375 C 3273.570312 7950.691406 3400 7645.46875 3400 7327.207031 L 3400 2980 "/>
</g>
</svg>
