<?xml version="1.0" encoding="UTF-8"?>
<svg xmlns="http://www.w3.org/2000/svg" xmlns:xlink="http://www.w3.org/1999/xlink" width="1200.000000mm" height="1600.000000mm" viewBox="0 0 12000 16000" version="1.1">
<g id="surface741">
<path style="fill-rule:evenodd;fill:rgb(94.509804%,94.117647%,91.764706%);fill-opacity:1;stroke-width:0.3;stroke-linecap:butt;stroke-linejoin:miter;stroke:rgb(16.470588%,16.078431%,16.470588%);stroke-opacity:1;stroke-miterlimit:3;" d="M -540 -800 C -555.912891 -800 -571.174219 -793.678516 -582.426563 -782.426563 C -593.678516 -771.174219 -600 -755.912891 -600 -740 L -600 740 C -600 755.912891 -593.678516 771.174219 -582.426563 782.426563 C -571.174219 793.678516 -555.912891 800 -540 800 L 540 800 C 555.912891 800 571.174219 793.678516 582.426563 782.426563 C 593.678516 771.174219 600 755.912891 600 740 L 600 -740 C 600 -755.912891 593.678516 -771.174219 582.426563 -782.426563 C 571.174219 -793.678516 555.912891 -800 540 -800 L -540 -800 " transform="matrix(10,0,0,-10,6000,8000)"/>
<path style=" stroke:none;fill-rule:evenodd;fill:rgb(16.470588%,16.078431%,16.470588%);fill-opacity:1;" d="M 600 15850 C 480.652344 15850 366.191406 15802.589844 281.800781 15718.199219 C 197.410156 15633.808594 150 15519.347656 150 15400 L 150 600 C 150 480.652344 197.410156 366.191406 281.800781 281.800781 C 366.191406 197.410156 480.652344 150 600 150 L 11400 150 C 11519.347656 150 11633.808594 197.410156 11718.199219 281.800781 C 11802.589844 366.191406 11850 480.652344 11850 600 L 11850 15400 C 11850 15519.347656 11802.589844 15633.808594 11718.199219 15718.199219 C 11633.808594 15802.589844 11519.347656 15850 11400 15850 L 600 15850 M 600 15650 C 461.929688 15650 350 15538.070312 350 15400 L 350 600 C 350 461.929688 461.929688 350 600 350 L 11400 350 C 11538.070312 350 11650 461.929688 11650 600 L 11650 15400 C 11650 15538.070312 11538.070312 15650 11400 15650 L 600 15650 M 2500 2980 L 2950 3096.191406 C 2959.800781 3098.71875 2969.878906 3100 2980 3100 C 3046.273438 3100 3100 3046.273438 3100 2980 C 3100 2956.226562 3092.9375 2932.988281 3079.710938 2913.234375 L 2200 1600 L 1320.289062 2913.234375 C 1307.0625 2932.988281 1300 2956.226562 1300 2980 C 1300 3046.273438 1353.726562 3100 1420 3100 C 1430.121094 3100 1440.199219 3098.71875 1450 3096.191406 L 1900 2980 L 1900 14400 L 2500 14400 L 2500 2980 "/>
<path style=" stroke:none;fill-rule:evenodd;fill:rgb(16.470588%,16.078431%,16.470588%);fill-opacity:1;" d="M 5600 2980 L 6050 3096.191406 C 6059.800781 3098.71875 6069.878906 3100 6080 3100 C 6146.273438 3100 6200 3046.273438 6200 2980 C 6200 2956.226562 6192.9375 2932.988281 6179.710938 2913.234375 L 5300 1600 L 4420.289062 2913.234375 C 4407.0625 2932.988281 4400 2956.226562 4400 2980 C 4400 3046.273438 4453.726562 3100 4520 3100 C 4530.121094 3100 4540.199219 3098.71875 4550 3096.191406 L 5000 2980 L 5000 14400 L 5600 14400 L 5600 2980 "/>
<path style=" stroke:none;fill-rule:evenodd;fill:rgb(16.470588%,16.078431%,16.470588%);fill-opacity:1;" d="M 8100 2980 L 7650 3096.191406 C 7640.199219 3098.71875 7630.121094 3100 7620 3100 C 7553.726562 3100 7500 3046.273438 7500 2980 C 7500 2956.226562 7507.0625 2932.988281 7520.289062 2913.234375 L 8400 1600 L 9279.710938 2913.234375 C 9292.9375 2932.988281 9300 2956.226562 9300 2980 C 9300 3046.273438 9246.273438 3100 9180 3100 C 9169.878906 3100 9159.800781 3098.71875 9150 3096.191406 L 8700 2980 L 8700 7327.207031 C 8700 7486.339844 8763.214844 7638.949219 8875.734375 7751.472656 L 10700 9575.734375 L 10275.734375 10000 L 8451.472656 8175.734375 C 8226.429688 7950.691406 8100 7645.46875 8100 7327.207031 L 8100 2980 "/>
</g>
</svg>
