<?xml version="1.0" encoding="UTF-8"?>
<svg xmlns="http://www.w3.org/2000/svg" xmlns:xlink="http://www.w3.org/1999/xlink" width="1200.000000mm" height="1600.000000mm" viewBox="0 0 12000 16000" version="1.1">
<g id="surface761">
<path style="fill-rule:evenodd;fill:rgb(94.509804%,94.117647%,91.764706%);fill-opacity:1;stroke-width:0.3;stroke-linecap:butt;stroke-linejoin:miter;stroke:rgb(16.470588%,16.078431%,16.470588%);stroke-opacity:1;stroke-miterlimit:3;" d="M -540 -800 C -555.912891 -800 -571.174219 -793.678516 -582.426563 -782.426563 C -593.678516 -771.174219 -600 -755.912891 -600 -740 L -600 740 C -600 755.912891 -593.678516 771.174219 -582.426563 782.426563 C -571.174219 793.678516 -555.912891 800 -540 800 L 540 800 C 555.912891 800 571.174219 793.678516 582.426563 782.426563 C 593.678516 771.174219 600 755.912891 600 740 L 600 -740 C 600 -755.912891 593.678516 -771.174219 582.426563 -782.426563 C 571.174219 -793.678516 555.912891 -800 540 -800 L -540 -800 " transform="matrix(10,0,0,-10,6000,8000)"/>
<path style=" stroke:none;fill-rule:evenodd;fill:rgb(16.470588%,16.078431%,16.470588%);fill-opacity:1;" d="M 600 15850 C 480.652344 15850 366.191406 15802.589844 281.800781 15718.199219 C 197.410156 15633.808594 150 15519.347656 150 15400 L 150 600 C 150 480.652344 197.410156 366.191406 281.800781 281.800781 C 366.191406 197.410156 480.652344 150 600 150 L 11400 150 C 11519.347656 150 11633.808594 197.410156 11718.199219 281.800781 C 11802.589844 366.191406 11850 480.652344 11850 600 L 11850 15400 C 11850 15519.347656 11802.589844 15633.808594 11718.199219 15718.199219 C 11633.808594 15802.589844 11519.347656 15850 11400 15850 L 600 15850 M 600 15650 C 461.929688 15650 350 15538.070312 350 15400 L 350 600 C 350 461.929688 461.929688 350 600 350 L 11400 350 C 11538.070312 350 11650 461.929688 11650 600 L 11650 15400 C 11650 15538.070312 11538.070312 15650 11400 15650 L 600 15650 "/>
<path style=" stroke:none;fill-rule:evenodd;fill:rgb(16.470588%,16.078431%,16.470588%);fill-opacity:1;" d="M 2000 2980 L 2450 3096.191406 C 2459.800781 3098.71875 2469.878906 3100 2480 3100 C 2546.273438 3100 2600 3046.273438 2600 2980 C 2600 2956.226562 2592.9375 2932.988281 2579.710938 2913.234375 L 1700 1600 L 820.289062 2913.234375 C 807.0625 2932.988281 800 2956.226562 800 2980 C 800 3046.273438 853.726562 3100 920 3100 C 930.121094 3100 940.199219 3098.71875 950 3096.191406 L 1400 2980 L 1400 14400 L 2000 14400 L 2000 2980 "/>
<path style=" stroke:none;fill-rule:evenodd;fill:rgb(16.470588%,16.078431%,16.470588%);fill-opacity:1;" d="M 3800 2980 L 3350 3096.191406 C 3340.199219 3098.71875 3330.121094 3100 3320 3100 C 3253.726562 3100 3200 3046.273438 3200 2980 C 3200 2956.226562 3207.0625 2932.988281 3220.289062 2913.234375 L 4100 1600 L 4979.710938 2913.234375 C 4992.9375 2932.988281 5000 2956.226562 5000 2980 C 5000 3046.273438 4946.273438 3100 4880 3100 C 4869.878906 3100 4859.800781 3098.71875 4850 3096.191406 L 4400 2980 L 4400 8327.207031 C 4400 8486.339844 4463.214844 8638.949219 4575.734375 8751.472656 L 7800 11975.734375 L 7375.734375 12400 L 4151.472656 9175.734375 C 3926.429688 8950.691406 3800 8645.46875 3800 8327.207031 L 3800 2980 "/>
<path style=" stroke:none;fill-rule:evenodd;fill:rgb(16.470588%,16.078431%,16.470588%);fill-opacity:1;" d="M 6200 2980 L 5750 3096.191406 C 5740.199219 3098.71875 5730.121094 3100 5720 3100 C 5653.726562 3100 5600 3046.273438 5600 2980 C 5600 2956.226562 5607.0625 2932.988281 5620.289062 2913.234375 L 6500 1600 L 7379.710938 2913.234375 C 7392.9375 2932.988281 7400 2956.226562 7400 2980 C 7400 3046.273438 7346.273438 3100 7280 3100 C 7269.878906 3100 7259.800781 3098.71875 7250 3096.191406 L 6800 2980 L 6800 1980 L 6800 7327.207031 C 6800 7486.339844 6863.214844 7638.949219 6975.734375 7751.472656 L 9500 10275.734375 L 9075.734375 10700 L 6551.472656 8175.734375 C 6326.429688 7950.691406 6200 7645.46875 6200 7327.207031 L 6200 2980 "/>
<path style=" stroke:none;fill-rule:evenodd;fill:rgb(16.470588%,16.078431%,16.470588%);fill-opacity:1;" d="M 8600 2980 L 8150 3096.191406 C 8140.199219 3098.71875 8130.121094 3100 8120 3100 C 8053.726562 3100 8000 3046.273438 8000 2980 C 8000 2956.226562 8007.0625 2932.988281 8020.289062 2913.234375 L 8900 1600 L 9779.710938 2913.234375 C 9792.9375 2932.988281 9800 2956.226562 9800 2980 C 9800 3046.273438 9746.273438 3100 9680 3100 C 9669.878906 3100 9659.800781 3098.71875 9650 3096.191406 L 9200 2980 L 9200 6327.207031 C 9200 6486.339844 9263.214844 6638.949219 9375.734375 6751.472656 L 11200 8575.734375 L 10775.734375 9000 L 8951.472656 7175.734375 C 8726.429688 6950.691406 8600 6645.46875 8600 6327.207031 L 8600 2980 "/>
</g>
</svg>
