<?xml version="1.0" encoding="UTF-8"?>
<svg xmlns="http://www.w3.org/2000/svg" xmlns:xlink="http://www.w3.org/1999/xlink" width="1200.000000mm" height="1600.000000mm" viewBox="0 0 12000 16000" version="1.1">
<g id="surface771">
<path style="fill-rule:evenodd;fill:rgb(94.509804%,94.117647%,91.764706%);fill-opacity:1;stroke-width:0.3;stroke-linecap:butt;stroke-linejoin:miter;stroke:rgb(16.470588%,16.078431%,16.470588%);stroke-opacity:1;stroke-miterlimit:3;" d="M -540 -800 C -555.912891 -800 -571.174219 -793.678516 -582.426563 -782.426563 C -593.678516 -771.174219 -600 -755.912891 -600 -740 L -600 740 C -600 755.912891 -593.678516 771.174219 -582.426563 782.426563 C -571.174219 793.678516 -555.912891 800 -540 800 L 540 800 C 555.912891 800 571.174219 793.678516 582.426563 782.426563 C 593.678516 771.174219 600 755.912891 600 740 L 600 -740 C 600 -755.912891 593.678516 -771.174219 582.426563 -782.426563 C 571.174219 -793.678516 555.912891 -800 540 -800 L -540 -800 " transform="matrix(10,0,0,-10,6000,8000)"/>
<path style=" stroke:none;fill-rule:evenodd;fill:rgb(16.470588%,16.078431%,16.470588%);fill-opacity:1;" d="M 600 15850 C 480.652344 15850 366.191406 15802.589844 281.800781 15718.199219 C 197.410156 15633.808594 150 15519.347656 150 15400 L 150 600 C 150 480.652344 197.410156 366.191406 281.800781 281.800781 C 366.191406 197.410156 480.652344 150 600 150 L 11400 150 C 11519.347656 150 11633.808594 197.410156 11718.199219 281.800781 C 11802.589844 366.191406 11850 480.652344 11850 600 L 11850 15400 C 11850 15519.347656 11802.589844 15633.808594 11718.199219 15718.199219 C 11633.808594 15802.589844 11519.347656 15850 11400 15850 L 600 15850 M 600 15650 C 461.929688 15650 350 15538.070312 350 15400 L 350 600 C 350 461.929688 461.929688 350 600 350 L 11400 350 C 11538.070312 350 11650 461.929688 11650 600 L 11650 15400 C 11650 15538.070312 11538.070312 15650 11400 15650 L 600 15650 "/>
<path style=" stroke:none;fill-rule:evenodd;fill:rgb(16.470588%,16.078431%,16.470588%);fill-opacity:1;" d="M 5887.941406 2063.679688 L 6288.296875 1827.640625 C 6324.890625 1806.066406 6347.351562 1766.75 6347.351562 1724.269531 C 6347.351562 1666.976562 6306.851562 1617.675781 6250.648438 1606.554688 L 4700 1300 L 5006.542969 2850.648438 C 5017.667969 2906.847656 5066.96875 2947.347656 5124.261719 2947.347656 C 5166.742188 2947.347656 5206.054688 2924.890625 5227.632812 2888.292969 L 5463.679688 2487.941406 L 10275.738281 7300 L 10700 6875.738281 L 5887.941406 2063.679688 "/>
<path style=" stroke:none;fill-rule:evenodd;fill:rgb(16.470588%,16.078431%,16.470588%);fill-opacity:1;" d="M 4187.941406 3763.679688 L 4588.296875 3527.640625 C 4624.890625 3506.066406 4647.351562 3466.75 4647.351562 3424.269531 C 4647.351562 3366.976562 4606.851562 3317.675781 4550.648438 3306.554688 L 3000 3000 L 3306.542969 4550.648438 C 3317.667969 4606.847656 3366.96875 4647.347656 3424.261719 4647.347656 C 3466.742188 4647.347656 3506.054688 4624.890625 3527.632812 4588.292969 L 3763.679688 4187.941406 L 8575.738281 9000 L 9000 8575.738281 L 4187.941406 3763.679688 "/>
<path style=" stroke:none;fill-rule:evenodd;fill:rgb(16.470588%,16.078431%,16.470588%);fill-opacity:1;" d="M 2487.941406 5463.679688 L 2888.292969 5227.632812 C 2924.890625 5206.054688 2947.347656 5166.742188 2947.347656 5124.261719 C 2947.347656 5066.96875 2906.847656 5017.667969 2850.648438 5006.542969 L 1300 4700 L 1606.554688 6250.648438 C 1617.675781 6306.851562 1666.976562 6347.351562 1724.269531 6347.351562 C 1766.75 6347.351562 1806.066406 6324.890625 1827.640625 6288.296875 L 2063.679688 5887.941406 L 4724.265625 8548.523438 C 4836.785156 8661.046875 4900 8813.660156 4900 8972.789062 L 4900 14700 L 5500 14700 L 5500 8972.789062 C 5500 8654.527344 5373.570312 8349.304688 5148.527344 8124.261719 L 2487.941406 5463.679688 "/>
</g>
</svg>
