<?xml version="1.0" encoding="UTF-8"?>
<svg xmlns="http://www.w3.org/2000/svg" xmlns:xlink="http://www.w3.org/1999/xlink" width="1200.000000mm" height="1600.000000mm" viewBox="0 0 12000 16000" version="1.1">
<g id="surface786">
<path style="fill-rule:evenodd;fill:rgb(94.509804%,94.117647%,91.764706%);fill-opacity:1;stroke-width:0.3;stroke-linecap:butt;stroke-linejoin:miter;stroke:rgb(16.470588%,16.078431%,16.470588%);stroke-opacity:1;stroke-miterlimit:3;" d="M -540 -800 C -555.912891 -800 -571.174219 -793.678516 -582.426563 -782.426563 C -593.678516 -771.174219 -600 -755.912891 -600 -740 L -600 740 C -600 755.912891 -593.678516 771.174219 -582.426563 782.426563 C -571.174219 793.678516 -555.912891 800 -540 800 L 540 800 C 555.912891 800 571.174219 793.678516 582.426563 782.426563 C 593.678516 771.174219 600 755.912891 600 740 L 600 -740 C 600 -755.912891 593.678516 -771.174219 582.426563 -782.426563 C 571.174219 -793.678516 555.912891 -800 540 -800 L -540 -800 " transform="matrix(10,0,0,-10,6000,8000)"/>
<path style=" stroke:none;fill-rule:evenodd;fill:rgb(16.470588%,16.078431%,16.470588%);fill-opacity:1;" d="M 600 15850 C 480.652344 15850 366.191406 15802.589844 281.800781 15718.199219 C 197.410156 15633.808594 150 15519.347656 150 15400 L 150 600 C 150 480.652344 197.410156 366.191406 281.800781 281.800781 C 366.191406 197.410156 480.652344 150 600 150 L 11400 150 C 11519.347656 150 11633.808594 197.410156 11718.199219 281.800781 C 11802.589844 366.191406 11850 480.652344 11850 600 L 11850 15400 C 11850 15519.347656 11802.589844 15633.808594 11718.199219 15718.199219 C 11633.808594 15802.589844 11519.347656 15850 11400 15850 L 600 15850 M 600 15650 C 461.929688 15650 350 15538.070312 350 15400 L 350 600 C 350 461.929688 461.929688 350 600 350 L 11400 350 C 11538.070312 350 11650 461.929688 11650 600 L 11650 15400 C 11650 15538.070312 11538.070312 15650 11400 15650 L 600 15650 "/>
<path style=" stroke:none;fill-rule:evenodd;fill:rgb(16.470588%,16.078431%,16.470588%);fill-opacity:1;" d="M 7287.941406 1763.679688 L 7688.296875 1527.640625 C 7724.890625 1506.066406 7747.351562 1466.75 7747.351562 1424.269531 C 7747.351562 1366.976562 7706.851562 1317.675781 7650.648438 1306.554688 L 6100 1000 L 6406.542969 2550.648438 C 6417.667969 2606.847656 6466.96875 2647.347656 6524.261719 2647.347656 C 6566.742188 2647.347656 6606.054688 2624.890625 6627.632812 2588.292969 L 6863.679688 2187.941406 L 10575.738281 5900 L 11000 5475.738281 L 7287.941406 1763.679688 "/>
<path style=" stroke:none;fill-rule:evenodd;fill:rgb(16.470588%,16.078431%,16.470588%);fill-opacity:1;" d="M 5587.941406 3463.679688 L 5988.296875 3227.640625 C 6024.890625 3206.066406 6047.351562 3166.75 6047.351562 3124.269531 C 6047.351562 3066.976562 6006.851562 3017.675781 5950.648438 3006.554688 L 4400 2700 L 4706.542969 4250.648438 C 4717.667969 4306.847656 4766.96875 4347.347656 4824.261719 4347.347656 C 4866.742188 4347.347656 4906.054688 4324.890625 4927.632812 4288.292969 L 5163.679688 3887.941406 L 8875.738281 7600 L 9300 7175.738281 L 5587.941406 3463.679688 "/>
<path style=" stroke:none;fill-rule:evenodd;fill:rgb(16.470588%,16.078431%,16.470588%);fill-opacity:1;" d="M 3887.941406 5163.679688 L 4288.292969 4927.632812 C 4324.890625 4906.054688 4347.347656 4866.742188 4347.347656 4824.261719 C 4347.347656 4766.96875 4306.847656 4717.667969 4250.648438 4706.542969 L 2700 4400 L 3006.554688 5950.648438 C 3017.675781 6006.851562 3066.976562 6047.351562 3124.269531 6047.351562 C 3166.75 6047.351562 3206.066406 6024.890625 3227.640625 5988.296875 L 3463.679688 5587.941406 L 5624.265625 7748.523438 C 5736.785156 7861.046875 5800 8013.660156 5800 8172.789062 L 5800 15000 L 6400 15000 L 6400 8172.789062 C 6400 7854.527344 6273.570312 7549.304688 6048.527344 7324.261719 L 3887.941406 5163.679688 "/>
<path style=" stroke:none;fill-rule:evenodd;fill:rgb(16.470588%,16.078431%,16.470588%);fill-opacity:1;" d="M 2187.941406 6863.679688 L 2588.292969 6627.632812 C 2624.890625 6606.054688 2647.347656 6566.742188 2647.347656 6524.261719 C 2647.347656 6466.96875 2606.847656 6417.667969 2550.648438 6406.542969 L 1000 6100 L 1306.554688 7650.648438 C 1317.675781 7706.851562 1366.976562 7747.351562 1424.269531 7747.351562 C 1466.75 7747.351562 1506.066406 7724.890625 1527.640625 7688.296875 L 1763.679688 7287.941406 L 3224.265625 8748.523438 C 3336.785156 8861.046875 3400 9013.660156 3400 9172.789062 L 3400 15000 L 4000 15000 L 4000 9172.789062 C 4000 8854.527344 3873.570312 8549.304688 3648.527344 8324.261719 L 2187.941406 6863.679688 "/>
</g>
</svg>
