<?xml version="1.0" encoding="UTF-8"?>
<svg xmlns="http://www.w3.org/2000/svg" xmlns:xlink="http://www.w3.org/1999/xlink" width="1200.000000mm" height="1600.000000mm" viewBox="0 0 12000 16000" version="1.1">
<g id="surface816">
<path style="fill-rule:evenodd;fill:rgb(94.509804%,94.117647%,91.764706%);fill-opacity:1;stroke-width:0.3;stroke-linecap:butt;stroke-linejoin:miter;stroke:rgb(16.470588%,16.078431%,16.470588%);stroke-opacity:1;stroke-miterlimit:3;" d="M -540 -800 C -555.912891 -800 -571.174219 -793.678516 -582.426563 -782.426563 C -593.678516 -771.174219 -600 -755.912891 -600 -740 L -600 740 C -600 755.912891 -593.678516 771.174219 -582.426563 782.426563 C -571.174219 793.678516 -555.912891 800 -540 800 L 540 800 C 555.912891 800 571.174219 793.678516 582.426563 782.426563 C 593.678516 771.174219 600 755.912891 600 740 L 600 -740 C 600 -755.912891 593.678516 -771.174219 582.426563 -782.426563 C 571.174219 -793.678516 555.912891 -800 540 -800 L -540 -800 " transform="matrix(10,0,0,-10,6000,8000)"/>
<path style=" stroke:none;fill-rule:evenodd;fill:rgb(16.470588%,16.078431%,16.470588%);fill-opacity:1;" d="M 600 15850 C 480.652344 15850 366.191406 15802.589844 281.800781 15718.199219 C 197.410156 15633.808594 150 15519.347656 150 15400 L 150 600 C 150 480.652344 197.410156 366.191406 281.800781 281.800781 C 366.191406 197.410156 480.652344 150 600 150 L 11400 150 C 11519.347656 150 11633.808594 197.410156 11718.199219 281.800781 C 11802.589844 366.191406 11850 480.652344 11850 600 L 11850 15400 C 11850 15519.347656 11802.589844 15633.808594 11718.199219 15718.199219 C 11633.808594 15802.589844 11519.347656 15850 11400 15850 L 600 15850 M 600 15650 C 461.929688 15650 350 15538.070312 350 15400 L 350 600 C 350 461.929688 461.929688 350 600 350 L 11400 350 C 11538.070312 350 11650 461.929688 11650 600 L 11650 15400 C 11650 15538.070312 11538.070312 15650 11400 15650 L 600 15650 "/>
<path style=" stroke:none;fill-rule:evenodd;fill:rgb(16.470588%,16.078431%,16.470588%);fill-opacity:1;" d="M 4712.058594 1763.679688 L 4311.703125 1527.640625 C 4275.109375 1506.066406 4252.648438 1466.75 4252.648438 1424.269531 C 4252.648438 1366.976562 4293.148438 1317.675781 4349.351562 1306.554688 L 5900 1000 L 5593.457031 2550.648438 C 5582.332031 2606.847656 5533.03125 2647.347656 5475.738281 2647.347656 C 5433.257812 2647.347656 5393.945312 2624.890625 5372.367188 2588.292969 L 5136.320312 2187.941406 L 1424.261719 5900 L 1000 5475.738281 L 4712.058594 1763.679688 "/>
<path style=" stroke:none;fill-rule:evenodd;fill:rgb(16.470588%,16.078431%,16.470588%);fill-opacity:1;" d="M 6412.058594 3463.679688 L 6011.703125 3227.640625 C 5975.109375 3206.066406 5952.648438 3166.75 5952.648438 3124.269531 C 5952.648438 3066.976562 5993.148438 3017.675781 6049.351562 3006.554688 L 7600 2700 L 7293.457031 4250.648438 C 7282.332031 4306.847656 7233.03125 4347.347656 7175.738281 4347.347656 C 7133.257812 4347.347656 7093.945312 4324.890625 7072.367188 4288.292969 L 6836.320312 3887.941406 L 3124.261719 7600 L 2700 7175.738281 L 6412.058594 3463.679688 "/>
<path style=" stroke:none;fill-rule:evenodd;fill:rgb(16.470588%,16.078431%,16.470588%);fill-opacity:1;" d="M 8112.058594 5163.679688 L 7711.707031 4927.632812 C 7675.109375 4906.054688 7652.652344 4866.742188 7652.652344 4824.261719 C 7652.652344 4766.96875 7693.152344 4717.667969 7749.351562 4706.542969 L 9300 4400 L 8993.445312 5950.648438 C 8982.324219 6006.851562 8933.023438 6047.351562 8875.730469 6047.351562 C 8833.25 6047.351562 8793.933594 6024.890625 8772.359375 5988.296875 L 8536.320312 5587.941406 L 6375.734375 7748.523438 C 6263.214844 7861.046875 6200 8013.660156 6200 8172.789062 L 6200 15000 L 5600 15000 L 5600 8172.789062 C 5600 7854.527344 5726.429688 7549.304688 5951.472656 7324.261719 L 8112.058594 5163.679688 "/>
<path style=" stroke:none;fill-rule:evenodd;fill:rgb(16.470588%,16.078431%,16.470588%);fill-opacity:1;" d="M 9812.058594 6863.679688 L 9411.707031 6627.632812 C 9375.109375 6606.054688 9352.652344 6566.742188 9352.652344 6524.261719 C 9352.652344 6466.96875 9393.152344 6417.667969 9449.351562 6406.542969 L 11000 6100 L 10693.445312 7650.648438 C 10682.324219 7706.851562 10633.023438 7747.351562 10575.730469 7747.351562 C 10533.25 7747.351562 10493.933594 7724.890625 10472.359375 7688.296875 L 10236.320312 7287.941406 L 8775.734375 8748.523438 C 8663.214844 8861.046875 8600 9013.660156 8600 9172.789062 L 8600 15000 L 8000 15000 L 8000 9172.789062 C 8000 8854.527344 8126.429688 8549.304688 8351.472656 8324.261719 L 9812.058594 6863.679688 "/>
</g>
</svg>
