<?xml version="1.0" encoding="UTF-8"?>
<svg xmlns="http://www.w3.org/2000/svg" xmlns:xlink="http://www.w3.org/1999/xlink" width="1200.000000mm" height="1600.000000mm" viewBox="0 0 12000 16000" version="1.1">
<g id="surface806">
<path style="fill-rule:evenodd;fill:rgb(94.509804%,94.117647%,91.764706%);fill-opacity:1;stroke-width:0.3;stroke-linecap:butt;stroke-linejoin:miter;stroke:rgb(16.470588%,16.078431%,16.470588%);stroke-opacity:1;stroke-miterlimit:3;" d="M -540 -800 C -555.912891 -800 -571.174219 -793.678516 -582.426563 -782.426563 C -593.678516 -771.174219 -600 -755.912891 -600 -740 L -600 740 C -600 755.912891 -593.678516 771.174219 -582.426563 782.426563 C -571.174219 793.678516 -555.912891 800 -540 800 L 540 800 C 555.912891 800 571.174219 793.678516 582.426563 782.426563 C 593.678516 771.174219 600 755.912891 600 740 L 600 -740 C 600 -755.912891 593.678516 -771.174219 582.426563 -782.426563 C 571.174219 -793.678516 555.912891 -800 540 -800 L -540 -800 " transform="matrix(10,0,0,-10,6000,8000)"/>
<path style=" stroke:none;fill-rule:evenodd;fill:rgb(16.470588%,16.078431%,16.470588%);fill-opacity:1;" d="M 600 15850 C 480.652344 15850 366.191406 15802.589844 281.800781 15718.199219 C 197.410156 15633.808594 150 15519.347656 150 15400 L 150 600 C 150 480.652344 197.410156 366.191406 281.800781 281.800781 C 366.191406 197.410156 480.652344 150 600 150 L 11400 150 C 11519.347656 150 11633.808594 197.410156 11718.199219 281.800781 C 11802.589844 366.191406 11850 480.652344 11850 600 L 11850 15400 C 11850 15519.347656 11802.589844 15633.808594 11718.199219 15718.199219 C 11633.808594 15802.589844 11519.347656 15850 11400 15850 L 600 15850 M 600 15650 C 461.929688 15650 350 15538.070312 350 15400 L 350 600 C 350 461.929688 461.929688 350 600 350 L 11400 350 C 11538.070312 350 11650 461.929688 11650 600 L 11650 15400 C 11650 15538.070312 11538.070312 15650 11400 15650 L 600 15650 "/>
<path style=" stroke:none;fill-rule:evenodd;fill:rgb(16.470588%,16.078431%,16.470588%);fill-opacity:1;" d="M 6112.058594 2063.679688 L 5711.703125 1827.640625 C 5675.109375 1806.066406 5652.648438 1766.75 5652.648438 1724.269531 C 5652.648438 1666.976562 5693.148438 1617.675781 5749.351562 1606.554688 L 7300 1300 L 6993.457031 2850.648438 C 6982.332031 2906.847656 6933.03125 2947.347656 6875.738281 2947.347656 C 6833.257812 2947.347656 6793.945312 2924.890625 6772.367188 2888.292969 L 6536.320312 2487.941406 L 1724.261719 7300 L 1300 6875.738281 L 6112.058594 2063.679688 "/>
<path style=" stroke:none;fill-rule:evenodd;fill:rgb(16.470588%,16.078431%,16.470588%);fill-opacity:1;" d="M 7812.058594 3763.679688 L 7411.707031 3527.632812 C 7375.109375 3506.054688 7352.652344 3466.742188 7352.652344 3424.261719 C 7352.652344 3366.96875 7393.152344 3317.667969 7449.351562 3306.542969 L 9000 3000 L 8693.445312 4550.648438 C 8682.324219 4606.851562 8633.023438 4647.351562 8575.730469 4647.351562 C 8533.25 4647.351562 8493.933594 4624.890625 8472.359375 4588.296875 L 8236.320312 4187.941406 L 4875.734375 7548.523438 C 4763.214844 7661.046875 4700 7813.660156 4700 7972.789062 L 4700 14700 L 4100 14700 L 4100 7972.789062 C 4100 7654.527344 4226.429688 7349.304688 4451.472656 7124.261719 L 7812.058594 3763.679688 "/>
<path style=" stroke:none;fill-rule:evenodd;fill:rgb(16.470588%,16.078431%,16.470588%);fill-opacity:1;" d="M 9512.058594 5463.679688 L 9111.707031 5227.632812 C 9075.109375 5206.054688 9052.652344 5166.742188 9052.652344 5124.261719 C 9052.652344 5066.96875 9093.152344 5017.667969 9149.351562 5006.542969 L 10700 4700 L 10393.445312 6250.648438 C 10382.324219 6306.851562 10333.023438 6347.351562 10275.730469 6347.351562 C 10233.25 6347.351562 10193.933594 6324.890625 10172.359375 6288.296875 L 9936.320312 5887.941406 L 7275.734375 8548.523438 C 7163.214844 8661.046875 7100 8813.660156 7100 8972.789062 L 7100 14700 L 6500 14700 L 6500 8972.789062 C 6500 8654.527344 6626.429688 8349.304688 6851.472656 8124.261719 L 9512.058594 5463.679688 "/>
</g>
</svg>
