<?xml version="1.0" encoding="UTF-8"?>
<svg xmlns="http://www.w3.org/2000/svg" xmlns:xlink="http://www.w3.org/1999/xlink" width="1200.000000mm" height="1600.000000mm" viewBox="0 0 12000 16000" version="1.1">
<g id="surface796">
<path style="fill-rule:evenodd;fill:rgb(94.509804%,94.117647%,91.764706%);fill-opacity:1;stroke-width:0.3;stroke-linecap:butt;stroke-linejoin:miter;stroke:rgb(16.470588%,16.078431%,16.470588%);stroke-opacity:1;stroke-miterlimit:3;" d="M -540 -800 C -555.912891 -800 -571.174219 -793.678516 -582.426563 -782.426563 C -593.678516 -771.174219 -600 -755.912891 -600 -740 L -600 740 C -600 755.912891 -593.678516 771.174219 -582.426563 782.426563 C -571.174219 793.678516 -555.912891 800 -540 800 L 540 800 C 555.912891 800 571.174219 793.678516 582.426563 782.426563 C 593.678516 771.174219 600 755.912891 600 740 L 600 -740 C 600 -755.912891 593.678516 -771.174219 582.426563 -782.426563 C 571.174219 -793.678516 555.912891 -800 540 -800 L -540 -800 " transform="matrix(10,0,0,-10,6000,8000)"/>
<path style=" stroke:none;fill-rule:evenodd;fill:rgb(16.470588%,16.078431%,16.470588%);fill-opacity:1;" d="M 600 15850 C 480.652344 15850 366.191406 15802.589844 281.800781 15718.199219 C 197.410156 15633.808594 150 15519.347656 150 15400 L 150 600 C 150 480.652344 197.410156 366.191406 281.800781 281.800781 C 366.191406 197.410156 480.652344 150 600 150 L 11400 150 C 11519.347656 150 11633.808594 197.410156 11718.199219 281.800781 C 11802.589844 366.191406 11850 480.652344 11850 600 L 11850 15400 C 11850 15519.347656 11802.589844 15633.808594 11718.199219 15718.199219 C 11633.808594 15802.589844 11519.347656 15850 11400 15850 L 600 15850 M 600 15650 C 461.929688 15650 350 15538.070312 350 15400 L 350 600 C 350 461.929688 461.929688 350 600 350 L 11400 350 C 11538.070312 350 11650 461.929688 11650 600 L 11650 15400 C 11650 15538.070312 11538.070312 15650 11400 15650 L 600 15650 "/>
<path style=" stroke:none;fill-rule:evenodd;fill:rgb(16.470588%,16.078431%,16.470588%);fill-opacity:1;" d="M 7512.058594 2363.679688 L 7111.703125 2127.640625 C 7075.109375 2106.066406 7052.648438 2066.75 7052.648438 2024.269531 C 7052.648438 1966.976562 7093.148438 1917.675781 7149.351562 1906.554688 L 8700 1600 L 8393.457031 3150.648438 C 8382.332031 3206.847656 8333.03125 3247.347656 8275.738281 3247.347656 C 8233.257812 3247.347656 8193.945312 3224.890625 8172.367188 3188.292969 L 7936.320312 2787.941406 L 2024.261719 8700 L 1600 8275.738281 L 7512.058594 2363.679688 "/>
<path style=" stroke:none;fill-rule:evenodd;fill:rgb(16.470588%,16.078431%,16.470588%);fill-opacity:1;" d="M 9212.058594 4063.679688 L 8811.707031 3827.632812 C 8775.109375 3806.054688 8752.652344 3766.742188 8752.652344 3724.261719 C 8752.652344 3666.96875 8793.152344 3617.667969 8849.351562 3606.542969 L 10400 3300 L 10093.445312 4850.648438 C 10082.324219 4906.851562 10033.023438 4947.351562 9975.730469 4947.351562 C 9933.25 4947.351562 9893.933594 4924.890625 9872.359375 4888.296875 L 9636.320312 4487.941406 L 6425.734375 7698.523438 C 6313.214844 7811.046875 6250 7963.660156 6250 8122.789062 L 6250 14400 L 5650 14400 L 5650 8122.789062 C 5650 7804.527344 5776.429688 7499.304688 6001.472656 7274.261719 L 9212.058594 4063.679688 "/>
</g>
</svg>
