<?xml version="1.0" encoding="UTF-8"?>
<svg xmlns="http://www.w3.org/2000/svg" xmlns:xlink="http://www.w3.org/1999/xlink" width="1200.000000mm" height="1600.000000mm" viewBox="0 0 12000 16000" version="1.1">
<g id="surface896">
<path style="fill-rule:evenodd;fill:rgb(94.509804%,94.117647%,91.764706%);fill-opacity:1;stroke-width:0.3;stroke-linecap:butt;stroke-linejoin:miter;stroke:rgb(16.470588%,16.078431%,16.470588%);stroke-opacity:1;stroke-miterlimit:3;" d="M 540 -800 C 555.912891 -800 571.174219 -793.678516 582.426563 -782.426563 C 593.678516 -771.174219 600 -755.912891 600 -740 L 600 740 C 600 755.912891 593.678516 771.174219 582.426563 782.426563 C 571.174219 793.678516 555.912891 800 540 800 L -540 800 C -555.912891 800 -571.174219 793.678516 -582.426563 782.426563 C -593.678516 771.174219 -600 755.912891 -600 740 L -600 -740 C -600 -755.912891 -593.678516 -771.174219 -582.426563 -782.426563 C -571.174219 -793.678516 -555.912891 -800 -540 -800 L 540 -800 " transform="matrix(10,0,0,-10,6000,8000)"/>
<path style=" stroke:none;fill-rule:evenodd;fill:rgb(16.470588%,16.078431%,16.470588%);fill-opacity:1;" d="M 11400 15850 C 11519.347656 15850 11633.808594 15802.589844 11718.199219 15718.199219 C 11802.589844 15633.808594 11850 15519.347656 11850 15400 L 11850 600 C 11850 480.652344 11802.589844 366.191406 11718.199219 281.800781 C 11633.808594 197.410156 11519.347656 150 11400 150 L 600 150 C 480.652344 150 366.191406 197.410156 281.800781 281.800781 C 197.410156 366.191406 150 480.652344 150 600 L 150 15400 C 150 15519.347656 197.410156 15633.808594 281.800781 15718.199219 C 366.191406 15802.589844 480.652344 15850 600 15850 L 11400 15850 M 11400 15650 C 11538.070312 15650 11650 15538.070312 11650 15400 L 11650 600 C 11650 461.929688 11538.070312 350 11400 350 L 600 350 C 461.929688 350 350 461.929688 350 600 L 350 15400 C 350 15538.070312 461.929688 15650 600 15650 L 11400 15650 "/>
<path style=" stroke:none;fill-rule:evenodd;fill:rgb(16.470588%,16.078431%,16.470588%);fill-opacity:1;" d="M 10700 2980 L 11150 3096.191406 C 11159.800781 3098.71875 11169.878906 3100 11180 3100 C 11246.273438 3100 11300 3046.273438 11300 2980 C 11300 2956.226562 11292.9375 2932.988281 11279.710938 2913.234375 L 10400 1600 L 9520.289062 2913.234375 C 9507.0625 2932.988281 9500 2956.226562 9500 2980 C 9500 3046.273438 9553.726562 3100 9620 3100 C 9630.121094 3100 9640.199219 3098.71875 9650 3096.191406 L 10100 2980 L 10100 4000 C 10100 4676.316406 9959.992188 5345.3125 9688.792969 5964.871094 C 9417.59375 6584.433594 9021.074219 7141.144531 8524.195312 7599.964844 L 7268.761719 8759.226562 C 6711.039062 9274.226562 6265.964844 9899.105469 5961.558594 10594.53125 C 5657.148438 11289.957031 5500 12040.867188 5500 12800 L 5500 14400 L 6100 14400 L 6100 12800 C 6100 12123.683594 6240.007812 11454.6875 6511.207031 10835.128906 C 6782.40625 10215.566406 7178.925781 9658.855469 7675.804688 9200.035156 L 8931.238281 8040.773438 C 9488.960938 7525.773438 9934.035156 6900.894531 10238.441406 6205.46875 C 10542.851562 5510.042969 10700 4759.132812 10700 4000 L 10700 2980 "/>
<path style=" stroke:none;fill-rule:evenodd;fill:rgb(16.470588%,16.078431%,16.470588%);fill-opacity:1;" d="M 8600 2980 L 9050 3096.191406 C 9059.800781 3098.71875 9069.878906 3100 9080 3100 C 9146.273438 3100 9200 3046.273438 9200 2980 C 9200 2956.226562 9192.9375 2932.988281 9179.710938 2913.234375 L 8300 1600 L 7420.289062 2913.234375 C 7407.0625 2932.988281 7400 2956.226562 7400 2980 C 7400 3046.273438 7453.726562 3100 7520 3100 C 7530.121094 3100 7540.199219 3098.71875 7550 3096.191406 L 8000 2980 L 8000 4000 C 8000 4781.304688 7673.554688 5527.078125 7099.539062 6057.121094 L 5844.105469 7216.382812 C 5073.433594 7928.019531 4458.425781 8791.492188 4037.789062 9752.441406 C 3617.152344 10713.394531 3400 11751.019531 3400 12800 L 3400 14400 L 4000 14400 L 4000 12800 C 4000 11833.832031 4200.007812 10878.125 4587.4375 9993.039062 C 4974.863281 9107.953125 5541.320312 8312.648438 6251.152344 7657.195312 L 7506.582031 6497.933594 C 8203.601562 5854.308594 8600 4948.730469 8600 4000 L 8600 2980 "/>
<path style=" stroke:none;fill-rule:evenodd;fill:rgb(16.470588%,16.078431%,16.470588%);fill-opacity:1;" d="M 1900 2980 L 2350 3096.191406 C 2359.800781 3098.71875 2369.878906 3100 2380 3100 C 2446.273438 3100 2500 3046.273438 2500 2980 C 2500 2956.226562 2492.9375 2932.988281 2479.710938 2913.234375 L 1600 1600 L 720.289062 2913.234375 C 707.0625 2932.988281 700 2956.226562 700 2980 C 700 3046.273438 753.726562 3100 820 3100 C 830.121094 3100 840.199219 3098.71875 850 3096.191406 L 1300 2980 L 1300 14400 L 1900 14400 L 1900 2980 "/>
</g>
</svg>
