<?xml version="1.0" encoding="UTF-8"?>
<svg xmlns="http://www.w3.org/2000/svg" xmlns:xlink="http://www.w3.org/1999/xlink" width="1200.000000mm" height="1600.000000mm" viewBox="0 0 12000 16000" version="1.1">
<g id="surface861">
<path style="fill-rule:evenodd;fill:rgb(94.509804%,94.117647%,91.764706%);fill-opacity:1;stroke-width:0.3;stroke-linecap:butt;stroke-linejoin:miter;stroke:rgb(16.470588%,16.078431%,16.470588%);stroke-opacity:1;stroke-miterlimit:3;" d="M 540 -800 C 555.912891 -800 571.174219 -793.678516 582.426563 -782.426563 C 593.678516 -771.174219 600 -755.912891 600 -740 L 600 740 C 600 755.912891 593.678516 771.174219 582.426563 782.426563 C 571.174219 793.678516 555.912891 800 540 800 L -540 800 C -555.912891 800 -571.174219 793.678516 -582.426563 782.426563 C -593.678516 771.174219 -600 755.912891 -600 740 L -600 -740 C -600 -755.912891 -593.678516 -771.174219 -582.426563 -782.426563 C -571.174219 -793.678516 -555.912891 -800 -540 -800 L 540 -800 " transform="matrix(10,0,0,-10,6000,8000)"/>
<path style=" stroke:none;fill-rule:evenodd;fill:rgb(16.470588%,16.078431%,16.470588%);fill-opacity:1;" d="M 11400 15850 C 11519.347656 15850 11633.808594 15802.589844 11718.199219 15718.199219 C 11802.589844 15633.808594 11850 15519.347656 11850 15400 L 11850 600 C 11850 480.652344 11802.589844 366.191406 11718.199219 281.800781 C 11633.808594 197.410156 11519.347656 150 11400 150 L 600 150 C 480.652344 150 366.191406 197.410156 281.800781 281.800781 C 197.410156 366.191406 150 480.652344 150 600 L 150 15400 C 150 15519.347656 197.410156 15633.808594 281.800781 15718.199219 C 366.191406 15802.589844 480.652344 15850 600 15850 L 11400 15850 M 11400 15650 C 11538.070312 15650 11650 15538.070312 11650 15400 L 11650 600 C 11650 461.929688 11538.070312 350 11400 350 L 600 350 C 461.929688 350 350 461.929688 350 600 L 350 15400 C 350 15538.070312 461.929688 15650 600 15650 L 11400 15650 "/>
<path style=" stroke:none;fill-rule:evenodd;fill:rgb(16.470588%,16.078431%,16.470588%);fill-opacity:1;" d="M 5500 2980 L 5050 3096.191406 C 5040.199219 3098.71875 5030.121094 3100 5020 3100 C 4953.726562 3100 4900 3046.273438 4900 2980 C 4900 2956.226562 4907.0625 2932.988281 4920.289062 2913.234375 L 5800 1600 L 6679.710938 2913.234375 C 6692.9375 2932.988281 6700 2956.226562 6700 2980 C 6700 3046.273438 6646.273438 3100 6580 3100 C 6569.878906 3100 6559.800781 3098.71875 6550 3096.191406 L 6100 2980 L 6100 4000 C 6100 4781.304688 6426.445312 5527.078125 7000.460938 6057.121094 L 8255.894531 7216.382812 C 9026.566406 7928.019531 9641.574219 8791.492188 10062.210938 9752.441406 C 10482.847656 10713.394531 10700 11751.019531 10700 12800 L 10700 14400 L 10100 14400 L 10100 12800 C 10100 11833.832031 9899.992188 10878.125 9512.5625 9993.039062 C 9125.136719 9107.953125 8558.679688 8312.648438 7848.847656 7657.195312 L 6593.417969 6497.933594 C 5896.398438 5854.308594 5500 4948.730469 5500 4000 L 5500 2980 "/>
<path style=" stroke:none;fill-rule:evenodd;fill:rgb(16.470588%,16.078431%,16.470588%);fill-opacity:1;" d="M 4000 2980 L 4450 3096.191406 C 4459.800781 3098.71875 4469.878906 3100 4480 3100 C 4546.273438 3100 4600 3046.273438 4600 2980 C 4600 2956.226562 4592.9375 2932.988281 4579.710938 2913.234375 L 3700 1600 L 2820.289062 2913.234375 C 2807.0625 2932.988281 2800 2956.226562 2800 2980 C 2800 3046.273438 2853.726562 3100 2920 3100 C 2930.121094 3100 2940.199219 3098.71875 2950 3096.191406 L 3400 2980 L 3400 9600 L 4000 9600 L 4000 2980 "/>
<path style=" stroke:none;fill-rule:evenodd;fill:rgb(16.470588%,16.078431%,16.470588%);fill-opacity:1;" d="M 1900 2980 L 2350 3096.191406 C 2359.800781 3098.71875 2369.878906 3100 2380 3100 C 2446.273438 3100 2500 3046.273438 2500 2980 C 2500 2956.226562 2492.9375 2932.988281 2479.710938 2913.234375 L 1600 1600 L 720.289062 2913.234375 C 707.0625 2932.988281 700 2956.226562 700 2980 C 700 3046.273438 753.726562 3100 820 3100 C 830.121094 3100 840.199219 3098.71875 850 3096.191406 L 1300 2980 L 1300 9600 L 1900 9600 L 1900 2980 "/>
</g>
</svg>
