<?xml version="1.0" encoding="UTF-8"?>
<svg xmlns="http://www.w3.org/2000/svg" xmlns:xlink="http://www.w3.org/1999/xlink" width="1200.000000mm" height="1600.000000mm" viewBox="0 0 12000 16000" version="1.1">
<g id="surface856">
<path style="fill-rule:evenodd;fill:rgb(94.509804%,94.117647%,91.764706%);fill-opacity:1;stroke-width:0.3;stroke-linecap:butt;stroke-linejoin:miter;stroke:rgb(16.470588%,16.078431%,16.470588%);stroke-opacity:1;stroke-miterlimit:3;" d="M 540 -800 C 555.912891 -800 571.174219 -793.678516 582.426563 -782.426563 C 593.678516 -771.174219 600 -755.912891 600 -740 L 600 740 C 600 755.912891 593.678516 771.174219 582.426563 782.426563 C 571.174219 793.678516 555.912891 800 540 800 L -540 800 C -555.912891 800 -571.174219 793.678516 -582.426563 782.426563 C -593.678516 771.174219 -600 755.912891 -600 740 L -600 -740 C -600 -755.912891 -593.678516 -771.174219 -582.426563 -782.426563 C -571.174219 -793.678516 -555.912891 -800 -540 -800 L 540 -800 " transform="matrix(10,0,0,-10,6000,8000)"/>
<path style=" stroke:none;fill-rule:evenodd;fill:rgb(16.470588%,16.078431%,16.470588%);fill-opacity:1;" d="M 11400 15850 C 11519.347656 15850 11633.808594 15802.589844 11718.199219 15718.199219 C 11802.589844 15633.808594 11850 15519.347656 11850 15400 L 11850 600 C 11850 480.652344 11802.589844 366.191406 11718.199219 281.800781 C 11633.808594 197.410156 11519.347656 150 11400 150 L 600 150 C 480.652344 150 366.191406 197.410156 281.800781 281.800781 C 197.410156 366.191406 150 480.652344 150 600 L 150 15400 C 150 15519.347656 197.410156 15633.808594 281.800781 15718.199219 C 366.191406 15802.589844 480.652344 15850 600 15850 L 11400 15850 M 11400 15650 C 11538.070312 15650 11650 15538.070312 11650 15400 L 11650 600 C 11650 461.929688 11538.070312 350 11400 350 L 600 350 C 461.929688 350 350 461.929688 350 600 L 350 15400 C 350 15538.070312 461.929688 15650 600 15650 L 11400 15650 "/>
<path style=" stroke:none;fill-rule:evenodd;fill:rgb(16.470588%,16.078431%,16.470588%);fill-opacity:1;" d="M 3900 2980 L 3450 3096.191406 C 3440.199219 3098.71875 3430.121094 3100 3420 3100 C 3353.726562 3100 3300 3046.273438 3300 2980 C 3300 2956.226562 3307.0625 2932.988281 3320.289062 2913.234375 L 4200 1600 L 5079.710938 2913.234375 C 5092.9375 2932.988281 5100 2956.226562 5100 2980 C 5100 3046.273438 5046.273438 3100 4980 3100 C 4969.878906 3100 4959.800781 3098.71875 4950 3096.191406 L 4500 2980 L 4500 3600 C 4500 4815.863281 5097.355469 5954.128906 6097.945312 6644.890625 L 7606.425781 7686.277344 C 8499.007812 8302.476562 9228.652344 9126.160156 9732.664062 10086.566406 C 10236.679688 11046.96875 10500 12115.378906 10500 13200 L 10500 14400 L 9900 14400 L 9900 13200 C 9900 12212.507812 9660.261719 11239.777344 9201.382812 10365.378906 C 8742.503906 9490.984375 8078.203125 8741.0625 7265.550781 8180.042969 L 5757.070312 7138.65625 C 5184.21875 6743.1875 4715.941406 6214.554688 4392.46875 5598.175781 C 4068.996094 4981.796875 3900 4296.101562 3900 3600 L 3900 2980 "/>
<path style=" stroke:none;fill-rule:evenodd;fill:rgb(16.470588%,16.078431%,16.470588%);fill-opacity:1;" d="M 2100 2980 L 2550 3096.191406 C 2559.800781 3098.71875 2569.878906 3100 2580 3100 C 2646.273438 3100 2700 3046.273438 2700 2980 C 2700 2956.226562 2692.9375 2932.988281 2679.710938 2913.234375 L 1800 1600 L 920.289062 2913.234375 C 907.0625 2932.988281 900 2956.226562 900 2980 C 900 3046.273438 953.726562 3100 1020 3100 C 1030.121094 3100 1040.199219 3098.71875 1050 3096.191406 L 1500 2980 L 1500 9600 L 2100 9600 L 2100 2980 "/>
</g>
</svg>
