<?xml version="1.0" encoding="UTF-8"?>
<svg xmlns="http://www.w3.org/2000/svg" xmlns:xlink="http://www.w3.org/1999/xlink" width="1200.000000mm" height="1600.000000mm" viewBox="0 0 12000 16000" version="1.1">
<g id="surface886">
<path style="fill-rule:evenodd;fill:rgb(94.509804%,94.117647%,91.764706%);fill-opacity:1;stroke-width:0.3;stroke-linecap:butt;stroke-linejoin:miter;stroke:rgb(16.470588%,16.078431%,16.470588%);stroke-opacity:1;stroke-miterlimit:3;" d="M 540 -800 C 555.912891 -800 571.174219 -793.678516 582.426563 -782.426563 C 593.678516 -771.174219 600 -755.912891 600 -740 L 600 740 C 600 755.912891 593.678516 771.174219 582.426563 782.426563 C 571.174219 793.678516 555.912891 800 540 800 L -540 800 C -555.912891 800 -571.174219 793.678516 -582.426563 782.426563 C -593.678516 771.174219 -600 755.912891 -600 740 L -600 -740 C -600 -755.912891 -593.678516 -771.174219 -582.426563 -782.426563 C -571.174219 -793.678516 -555.912891 -800 -540 -800 L 540 -800 " transform="matrix(10,0,0,-10,6000,8000)"/>
<path style=" stroke:none;fill-rule:evenodd;fill:rgb(16.470588%,16.078431%,16.470588%);fill-opacity:1;" d="M 11400 15850 C 11519.347656 15850 11633.808594 15802.589844 11718.199219 15718.199219 C 11802.589844 15633.808594 11850 15519.347656 11850 15400 L 11850 600 C 11850 480.652344 11802.589844 366.191406 11718.199219 281.800781 C 11633.808594 197.410156 11519.347656 150 11400 150 L 600 150 C 480.652344 150 366.191406 197.410156 281.800781 281.800781 C 197.410156 366.191406 150 480.652344 150 600 L 150 15400 C 150 15519.347656 197.410156 15633.808594 281.800781 15718.199219 C 366.191406 15802.589844 480.652344 15850 600 15850 L 11400 15850 M 11400 15650 C 11538.070312 15650 11650 15538.070312 11650 15400 L 11650 600 C 11650 461.929688 11538.070312 350 11400 350 L 600 350 C 461.929688 350 350 461.929688 350 600 L 350 15400 C 350 15538.070312 461.929688 15650 600 15650 L 11400 15650 "/>
<path style=" stroke:none;fill-rule:evenodd;fill:rgb(16.470588%,16.078431%,16.470588%);fill-opacity:1;" d="M 9900 2980 L 10350 3096.191406 C 10359.800781 3098.71875 10369.878906 3100 10380 3100 C 10446.273438 3100 10500 3046.273438 10500 2980 C 10500 2956.226562 10492.9375 2932.988281 10479.710938 2913.234375 L 9600 1600 L 8720.289062 2913.234375 C 8707.0625 2932.988281 8700 2956.226562 8700 2980 C 8700 3046.273438 8753.726562 3100 8820 3100 C 8830.121094 3100 8840.199219 3098.71875 8850 3096.191406 L 9300 2980 L 9300 4000 C 9300 4676.316406 9159.992188 5345.3125 8888.792969 5964.871094 C 8617.59375 6584.433594 8221.074219 7141.144531 7724.195312 7599.964844 L 6468.761719 8759.226562 C 5911.039062 9274.226562 5465.964844 9899.105469 5161.558594 10594.53125 C 4857.148438 11289.957031 4700 12040.867188 4700 12800 L 4700 14400 L 5300 14400 L 5300 12800 C 5300 12123.683594 5440.007812 11454.6875 5711.207031 10835.128906 C 5982.40625 10215.566406 6378.925781 9658.855469 6875.804688 9200.035156 L 8131.238281 8040.773438 C 8688.960938 7525.773438 9134.035156 6900.894531 9438.441406 6205.46875 C 9742.851562 5510.042969 9900 4759.132812 9900 4000 L 9900 2980 "/>
<path style=" stroke:none;fill-rule:evenodd;fill:rgb(16.470588%,16.078431%,16.470588%);fill-opacity:1;" d="M 2700 2980 L 3150 3096.191406 C 3159.800781 3098.71875 3169.878906 3100 3180 3100 C 3246.273438 3100 3300 3046.273438 3300 2980 C 3300 2956.226562 3292.9375 2932.988281 3279.710938 2913.234375 L 2400 1600 L 1520.289062 2913.234375 C 1507.0625 2932.988281 1500 2956.226562 1500 2980 C 1500 3046.273438 1553.726562 3100 1620 3100 C 1630.121094 3100 1640.199219 3098.71875 1650 3096.191406 L 2100 2980 L 2100 14400 L 2700 14400 L 2700 2980 "/>
</g>
</svg>
