<?xml version="1.0" encoding="UTF-8"?>
<svg xmlns="http://www.w3.org/2000/svg" xmlns:xlink="http://www.w3.org/1999/xlink" width="1200.000000mm" height="1600.000000mm" viewBox="0 0 12000 16000" version="1.1">
<g id="surface876">
<path style="fill-rule:evenodd;fill:rgb(94.509804%,94.117647%,91.764706%);fill-opacity:1;stroke-width:0.3;stroke-linecap:butt;stroke-linejoin:miter;stroke:rgb(16.470588%,16.078431%,16.470588%);stroke-opacity:1;stroke-miterlimit:3;" d="M -540 -800 C -555.912891 -800 -571.174219 -793.678516 -582.426563 -782.426563 C -593.678516 -771.174219 -600 -755.912891 -600 -740 L -600 740 C -600 755.912891 -593.678516 771.174219 -582.426563 782.426563 C -571.174219 793.678516 -555.912891 800 -540 800 L 540 800 C 555.912891 800 571.174219 793.678516 582.426563 782.426563 C 593.678516 771.174219 600 755.912891 600 740 L 600 -740 C 600 -755.912891 593.678516 -771.174219 582.426563 -782.426563 C 571.174219 -793.678516 555.912891 -800 540 -800 L -540 -800 " transform="matrix(10,0,0,-10,6000,8000)"/>
<path style=" stroke:none;fill-rule:evenodd;fill:rgb(16.470588%,16.078431%,16.470588%);fill-opacity:1;" d="M 600 15850 C 480.652344 15850 366.191406 15802.589844 281.800781 15718.199219 C 197.410156 15633.808594 150 15519.347656 150 15400 L 150 600 C 150 480.652344 197.410156 366.191406 281.800781 281.800781 C 366.191406 197.410156 480.652344 150 600 150 L 11400 150 C 11519.347656 150 11633.808594 197.410156 11718.199219 281.800781 C 11802.589844 366.191406 11850 480.652344 11850 600 L 11850 15400 C 11850 15519.347656 11802.589844 15633.808594 11718.199219 15718.199219 C 11633.808594 15802.589844 11519.347656 15850 11400 15850 L 600 15850 M 600 15650 C 461.929688 15650 350 15538.070312 350 15400 L 350 600 C 350 461.929688 461.929688 350 600 350 L 11400 350 C 11538.070312 350 11650 461.929688 11650 600 L 11650 15400 C 11650 15538.070312 11538.070312 15650 11400 15650 L 600 15650 "/>
<path style=" stroke:none;fill-rule:evenodd;fill:rgb(16.470588%,16.078431%,16.470588%);fill-opacity:1;" d="M 8100 2980 L 8550 3096.191406 C 8559.800781 3098.71875 8569.878906 3100 8580 3100 C 8646.273438 3100 8700 3046.273438 8700 2980 C 8700 2956.226562 8692.9375 2932.988281 8679.710938 2913.234375 L 7800 1600 L 6920.289062 2913.234375 C 6907.0625 2932.988281 6900 2956.226562 6900 2980 C 6900 3046.273438 6953.726562 3100 7020 3100 C 7030.121094 3100 7040.199219 3098.71875 7050 3096.191406 L 7500 2980 L 7500 3600 C 7500 4815.863281 6902.644531 5954.128906 5902.054688 6644.890625 L 4393.574219 7686.277344 C 3500.992188 8302.476562 2771.347656 9126.160156 2267.335938 10086.566406 C 1763.320312 11046.96875 1500 12115.378906 1500 13200 L 1500 14400 L 2100 14400 L 2100 13200 C 2100 12212.507812 2339.738281 11239.777344 2798.617188 10365.378906 C 3257.496094 9490.984375 3921.796875 8741.0625 4734.449219 8180.042969 L 6242.929688 7138.65625 C 6815.78125 6743.1875 7284.058594 6214.554688 7607.53125 5598.175781 C 7931.003906 4981.796875 8100 4296.101562 8100 3600 L 8100 2980 "/>
<path style=" stroke:none;fill-rule:evenodd;fill:rgb(16.470588%,16.078431%,16.470588%);fill-opacity:1;" d="M 10500 2980 L 10950 3096.191406 C 10959.800781 3098.71875 10969.878906 3100 10980 3100 C 11046.273438 3100 11100 3046.273438 11100 2980 C 11100 2956.226562 11092.9375 2932.988281 11079.710938 2913.234375 L 10200 1600 L 9320.289062 2913.234375 C 9307.0625 2932.988281 9300 2956.226562 9300 2980 C 9300 3046.273438 9353.726562 3100 9420 3100 C 9430.121094 3100 9440.199219 3098.71875 9450 3096.191406 L 9900 2980 L 9900 3600 C 9900 4587.492188 9660.261719 5560.222656 9201.382812 6434.621094 C 8742.503906 7309.015625 8078.203125 8058.9375 7265.550781 8619.957031 L 5757.070312 9661.34375 C 5184.21875 10056.8125 4715.941406 10585.445312 4392.46875 11201.824219 C 4068.996094 11818.203125 3900 12503.898438 3900 13200 L 3900 14400 L 4500 14400 L 4500 13200 C 4500 11984.136719 5097.355469 10845.871094 6097.945312 10155.109375 L 7606.425781 9113.722656 C 8499.007812 8497.523438 9228.652344 7673.839844 9732.664062 6713.433594 C 10236.679688 5753.03125 10500 4684.621094 10500 3600 L 10500 2980 "/>
</g>
</svg>
