<?xml version="1.0" encoding="UTF-8"?>
<svg xmlns="http://www.w3.org/2000/svg" xmlns:xlink="http://www.w3.org/1999/xlink" width="1200.000000mm" height="1600.000000mm" viewBox="0 0 12000 16000" version="1.1">
<g id="surface846">
<path style="fill-rule:evenodd;fill:rgb(94.509804%,94.117647%,91.764706%);fill-opacity:1;stroke-width:0.3;stroke-linecap:butt;stroke-linejoin:miter;stroke:rgb(16.470588%,16.078431%,16.470588%);stroke-opacity:1;stroke-miterlimit:3;" d="M -540 -800 C -555.912891 -800 -571.174219 -793.678516 -582.426563 -782.426563 C -593.678516 -771.174219 -600 -755.912891 -600 -740 L -600 740 C -600 755.912891 -593.678516 771.174219 -582.426563 782.426563 C -571.174219 793.678516 -555.912891 800 -540 800 L 540 800 C 555.912891 800 571.174219 793.678516 582.426563 782.426563 C 593.678516 771.174219 600 755.912891 600 740 L 600 -740 C 600 -755.912891 593.678516 -771.174219 582.426563 -782.426563 C 571.174219 -793.678516 555.912891 -800 540 -800 L -540 -800 " transform="matrix(10,0,0,-10,6000,8000)"/>
<path style=" stroke:none;fill-rule:evenodd;fill:rgb(16.470588%,16.078431%,16.470588%);fill-opacity:1;" d="M 600 15850 C 480.652344 15850 366.191406 15802.589844 281.800781 15718.199219 C 197.410156 15633.808594 150 15519.347656 150 15400 L 150 600 C 150 480.652344 197.410156 366.191406 281.800781 281.800781 C 366.191406 197.410156 480.652344 150 600 150 L 11400 150 C 11519.347656 150 11633.808594 197.410156 11718.199219 281.800781 C 11802.589844 366.191406 11850 480.652344 11850 600 L 11850 15400 C 11850 15519.347656 11802.589844 15633.808594 11718.199219 15718.199219 C 11633.808594 15802.589844 11519.347656 15850 11400 15850 L 600 15850 M 600 15650 C 461.929688 15650 350 15538.070312 350 15400 L 350 600 C 350 461.929688 461.929688 350 600 350 L 11400 350 C 11538.070312 350 11650 461.929688 11650 600 L 11650 15400 C 11650 15538.070312 11538.070312 15650 11400 15650 L 600 15650 "/>
<path style=" stroke:none;fill-rule:evenodd;fill:rgb(16.470588%,16.078431%,16.470588%);fill-opacity:1;" d="M 1300 2980 L 850 3096.191406 C 840.199219 3098.71875 830.121094 3100 820 3100 C 753.726562 3100 700 3046.273438 700 2980 C 700 2956.226562 707.0625 2932.988281 720.289062 2913.234375 L 1600 1600 L 2479.710938 2913.234375 C 2492.9375 2932.988281 2500 2956.226562 2500 2980 C 2500 3046.273438 2446.273438 3100 2380 3100 C 2369.878906 3100 2359.800781 3098.71875 2350 3096.191406 L 1900 2980 L 1900 4000 C 1900 4676.316406 2040.007812 5345.3125 2311.207031 5964.871094 C 2582.40625 6584.433594 2978.925781 7141.144531 3475.804688 7599.964844 L 4731.238281 8759.226562 C 5288.960938 9274.226562 5734.035156 9899.105469 6038.441406 10594.53125 C 6342.851562 11289.957031 6500 12040.867188 6500 12800 L 6500 14400 L 5900 14400 L 5900 12800 C 5900 12123.683594 5759.992188 11454.6875 5488.792969 10835.128906 C 5217.59375 10215.566406 4821.074219 9658.855469 4324.195312 9200.035156 L 3068.761719 8040.773438 C 2511.039062 7525.773438 2065.964844 6900.894531 1761.558594 6205.46875 C 1457.148438 5510.042969 1300 4759.132812 1300 4000 L 1300 2980 "/>
<path style=" stroke:none;fill-rule:evenodd;fill:rgb(16.470588%,16.078431%,16.470588%);fill-opacity:1;" d="M 8000 2980 L 7550 3096.191406 C 7540.199219 3098.71875 7530.121094 3100 7520 3100 C 7453.726562 3100 7400 3046.273438 7400 2980 C 7400 2956.226562 7407.0625 2932.988281 7420.289062 2913.234375 L 8300 1600 L 9179.710938 2913.234375 C 9192.9375 2932.988281 9200 2956.226562 9200 2980 C 9200 3046.273438 9146.273438 3100 9080 3100 C 9069.878906 3100 9059.800781 3098.71875 9050 3096.191406 L 8600 2980 L 8600 14400 L 8000 14400 L 8000 2980 "/>
<path style=" stroke:none;fill-rule:evenodd;fill:rgb(16.470588%,16.078431%,16.470588%);fill-opacity:1;" d="M 10100 2980 L 9650 3096.191406 C 9640.199219 3098.71875 9630.121094 3100 9620 3100 C 9553.726562 3100 9500 3046.273438 9500 2980 C 9500 2956.226562 9507.0625 2932.988281 9520.289062 2913.234375 L 10400 1600 L 11279.710938 2913.234375 C 11292.9375 2932.988281 11300 2956.226562 11300 2980 C 11300 3046.273438 11246.273438 3100 11180 3100 C 11169.878906 3100 11159.800781 3098.71875 11150 3096.191406 L 10700 2980 L 10700 14400 L 10100 14400 L 10100 2980 "/>
</g>
</svg>
