<?xml version="1.0" encoding="UTF-8"?>
<svg xmlns="http://www.w3.org/2000/svg" xmlns:xlink="http://www.w3.org/1999/xlink" width="1200.000000mm" height="1600.000000mm" viewBox="0 0 12000 16000" version="1.1">
<g id="surface1066">
<path style="fill-rule:evenodd;fill:rgb(94.509804%,94.117647%,91.764706%);fill-opacity:1;stroke-width:0.3;stroke-linecap:butt;stroke-linejoin:miter;stroke:rgb(16.470588%,16.078431%,16.470588%);stroke-opacity:1;stroke-miterlimit:3;" d="M -540 -800 C -555.912891 -800 -571.174219 -793.678516 -582.426563 -782.426563 C -593.678516 -771.174219 -600 -755.912891 -600 -740 L -600 740 C -600 755.912891 -593.678516 771.174219 -582.426563 782.426563 C -571.174219 793.678516 -555.912891 800 -540 800 L 540 800 C 555.912891 800 571.174219 793.678516 582.426563 782.426563 C 593.678516 771.174219 600 755.912891 600 740 L 600 -740 C 600 -755.912891 593.678516 -771.174219 582.426563 -782.426563 C 571.174219 -793.678516 555.912891 -800 540 -800 L -540 -800 " transform="matrix(10,0,0,-10,6000,8000)"/>
<path style=" stroke:none;fill-rule:evenodd;fill:rgb(16.470588%,16.078431%,16.470588%);fill-opacity:1;" d="M 600 15850 C 480.652344 15850 366.191406 15802.589844 281.800781 15718.199219 C 197.410156 15633.808594 150 15519.347656 150 15400 L 150 600 C 150 480.652344 197.410156 366.191406 281.800781 281.800781 C 366.191406 197.410156 480.652344 150 600 150 L 11400 150 C 11519.347656 150 11633.808594 197.410156 11718.199219 281.800781 C 11802.589844 366.191406 11850 480.652344 11850 600 L 11850 15400 C 11850 15519.347656 11802.589844 15633.808594 11718.199219 15718.199219 C 11633.808594 15802.589844 11519.347656 15850 11400 15850 L 600 15850 M 600 15650 C 461.929688 15650 350 15538.070312 350 15400 L 350 600 C 350 461.929688 461.929688 350 600 350 L 11400 350 C 11538.070312 350 11650 461.929688 11650 600 L 11650 15400 C 11650 15538.070312 11538.070312 15650 11400 15650 L 600 15650 "/>
<path style=" stroke:none;fill-rule:evenodd;fill:rgb(16.470588%,16.078431%,16.470588%);fill-opacity:1;" d="M 2100 2980 L 1650 3096.191406 C 1640.199219 3098.71875 1630.121094 3100 1620 3100 C 1553.726562 3100 1500 3046.273438 1500 2980 C 1500 2956.226562 1507.0625 2932.988281 1520.289062 2913.234375 L 2400 1600 L 3279.710938 2913.234375 C 3292.9375 2932.988281 3300 2956.226562 3300 2980 C 3300 3046.273438 3246.273438 3100 3180 3100 C 3169.878906 3100 3159.800781 3098.71875 3150 3096.191406 L 2700 2980 L 2700 4000 C 2700 4676.316406 2840.007812 5345.3125 3111.207031 5964.871094 C 3382.40625 6584.433594 3778.925781 7141.144531 4275.804688 7599.964844 L 5531.238281 8759.226562 C 6088.960938 9274.226562 6534.035156 9899.105469 6838.441406 10594.53125 C 7142.851562 11289.957031 7300 12040.867188 7300 12800 L 7300 14400 L 6700 14400 L 6700 12800 C 6700 12123.683594 6559.992188 11454.6875 6288.792969 10835.128906 C 6017.59375 10215.566406 5621.074219 9658.855469 5124.195312 9200.035156 L 3868.761719 8040.773438 C 3311.039062 7525.773438 2865.964844 6900.894531 2561.558594 6205.46875 C 2257.148438 5510.042969 2100 4759.132812 2100 4000 L 2100 2980 "/>
<path style=" stroke:none;fill-rule:evenodd;fill:rgb(16.470588%,16.078431%,16.470588%);fill-opacity:1;" d="M 9300 2980 L 8850 3096.191406 C 8840.199219 3098.71875 8830.121094 3100 8820 3100 C 8753.726562 3100 8700 3046.273438 8700 2980 C 8700 2956.226562 8707.0625 2932.988281 8720.289062 2913.234375 L 9600 1600 L 10479.710938 2913.234375 C 10492.9375 2932.988281 10500 2956.226562 10500 2980 C 10500 3046.273438 10446.273438 3100 10380 3100 C 10369.878906 3100 10359.800781 3098.71875 10350 3096.191406 L 9900 2980 L 9900 14400 L 9300 14400 L 9300 2980 "/>
<path style=" stroke:none;fill-rule:evenodd;fill:rgb(16.470588%,16.078431%,16.470588%);fill-opacity:1;" d="M 4400 15300 L 4100 15300 L 4100 15166.433594 C 4100 14327.230469 4240.84375 13493.976562 4516.667969 12701.398438 C 4558.632812 12580.8125 4672.320312 12500 4800 12500 C 4927.679688 12500 5041.367188 12580.8125 5083.332031 12701.398438 C 5359.15625 13493.976562 5500 14327.230469 5500 15166.433594 L 5500 15300 L 5200 15300 L 5200 15166.433594 C 5200 14360.796875 5064.789062 13560.875 4800 12800 C 4535.210938 13560.875 4400 14360.796875 4400 15166.433594 L 4400 15300 "/>
<path style=" stroke:none;fill-rule:evenodd;fill:rgb(16.470588%,16.078431%,16.470588%);fill-opacity:1;" d="M 5200 700 L 5500 700 L 5500 833.566406 C 5500 1672.769531 5359.15625 2506.023438 5083.332031 3298.601562 C 5041.367188 3419.1875 4927.679688 3500 4800 3500 C 4672.320312 3500 4558.632812 3419.1875 4516.667969 3298.601562 L 4516.671875 3298.613281 C 4240.847656 2506.03125 4100 1672.773438 4100 833.566406 L 4100 700 L 4400 700 L 4400 833.566406 C 4400 1639.207031 4535.210938 2439.132812 4800.003906 3200.011719 L 4800 3200 C 5064.789062 2439.125 5200 1639.203125 5200 833.566406 L 5200 700 "/>
</g>
</svg>
