<?xml version="1.0" encoding="UTF-8"?>
<svg xmlns="http://www.w3.org/2000/svg" xmlns:xlink="http://www.w3.org/1999/xlink" width="1200.000000mm" height="1600.000000mm" viewBox="0 0 12000 16000" version="1.1">
<g id="surface1051">
<path style="fill-rule:evenodd;fill:rgb(94.509804%,94.117647%,91.764706%);fill-opacity:1;stroke-width:0.3;stroke-linecap:butt;stroke-linejoin:miter;stroke:rgb(16.470588%,16.078431%,16.470588%);stroke-opacity:1;stroke-miterlimit:3;" d="M -540 -800 C -555.912891 -800 -571.174219 -793.678516 -582.426563 -782.426563 C -593.678516 -771.174219 -600 -755.912891 -600 -740 L -600 740 C -600 755.912891 -593.678516 771.174219 -582.426563 782.426563 C -571.174219 793.678516 -555.912891 800 -540 800 L 540 800 C 555.912891 800 571.174219 793.678516 582.426563 782.426563 C 593.678516 771.174219 600 755.912891 600 740 L 600 -740 C 600 -755.912891 593.678516 -771.174219 582.426563 -782.426563 C 571.174219 -793.678516 555.912891 -800 540 -800 L -540 -800 " transform="matrix(10,0,0,-10,6000,8000)"/>
<path style=" stroke:none;fill-rule:evenodd;fill:rgb(16.470588%,16.078431%,16.470588%);fill-opacity:1;" d="M 600 15850 C 480.652344 15850 366.191406 15802.589844 281.800781 15718.199219 C 197.410156 15633.808594 150 15519.347656 150 15400 L 150 600 C 150 480.652344 197.410156 366.191406 281.800781 281.800781 C 366.191406 197.410156 480.652344 150 600 150 L 11400 150 C 11519.347656 150 11633.808594 197.410156 11718.199219 281.800781 C 11802.589844 366.191406 11850 480.652344 11850 600 L 11850 15400 C 11850 15519.347656 11802.589844 15633.808594 11718.199219 15718.199219 C 11633.808594 15802.589844 11519.347656 15850 11400 15850 L 600 15850 M 600 15650 C 461.929688 15650 350 15538.070312 350 15400 L 350 600 C 350 461.929688 461.929688 350 600 350 L 11400 350 C 11538.070312 350 11650 461.929688 11650 600 L 11650 15400 C 11650 15538.070312 11538.070312 15650 11400 15650 L 600 15650 "/>
<path style=" stroke:none;fill-rule:evenodd;fill:rgb(16.470588%,16.078431%,16.470588%);fill-opacity:1;" d="M 2700 2980 L 2250 3096.191406 C 2240.199219 3098.71875 2230.121094 3100 2220 3100 C 2153.726562 3100 2100 3046.273438 2100 2980 C 2100 2956.226562 2107.0625 2932.988281 2120.289062 2913.234375 L 3000 1600 L 3879.710938 2913.234375 C 3892.9375 2932.988281 3900 2956.226562 3900 2980 C 3900 3046.273438 3846.273438 3100 3780 3100 C 3769.878906 3100 3759.800781 3098.71875 3750 3096.191406 L 3300 2980 L 3300 3600 C 3300 4393.230469 3492.578125 5174.605469 3861.183594 5876.988281 C 4229.792969 6579.375 4763.410156 7181.769531 5416.195312 7632.421875 L 6924.675781 8673.808594 C 7657.394531 9179.644531 8256.355469 9855.804688 8670.097656 10644.195312 C 9083.84375 11432.585938 9300 12309.636719 9300 13200 L 9300 14400 L 8700 14400 L 8700 13200 C 8700 12406.769531 8507.421875 11625.394531 8138.816406 10923.011719 C 7770.207031 10220.625 7236.589844 9618.230469 6583.804688 9167.578125 L 5075.324219 8126.191406 C 4342.605469 7620.355469 3743.644531 6944.195312 3329.902344 6155.804688 C 2916.15625 5367.414062 2700 4490.363281 2700 3600 L 2700 2980 "/>
<path style=" stroke:none;fill-rule:evenodd;fill:rgb(16.470588%,16.078431%,16.470588%);fill-opacity:1;" d="M 5600 15300 L 5300 15300 L 5300 15166.433594 C 5300 14327.230469 5440.84375 13493.976562 5716.667969 12701.398438 C 5758.632812 12580.8125 5872.320312 12500 6000 12500 C 6127.679688 12500 6241.367188 12580.8125 6283.332031 12701.398438 C 6559.15625 13493.976562 6700 14327.230469 6700 15166.433594 L 6700 15300 L 6400 15300 L 6400 15166.433594 C 6400 14360.796875 6264.789062 13560.875 6000 12800 C 5735.210938 13560.875 5600 14360.796875 5600 15166.433594 L 5600 15300 "/>
<path style=" stroke:none;fill-rule:evenodd;fill:rgb(16.470588%,16.078431%,16.470588%);fill-opacity:1;" d="M 6400 700 L 6700 700 L 6700 833.566406 C 6700 1672.769531 6559.15625 2506.023438 6283.332031 3298.601562 C 6241.367188 3419.1875 6127.679688 3500 6000 3500 C 5872.320312 3500 5758.632812 3419.1875 5716.667969 3298.601562 L 5716.671875 3298.613281 C 5440.847656 2506.03125 5300 1672.773438 5300 833.566406 L 5300 700 L 5600 700 L 5600 833.566406 C 5600 1639.207031 5735.210938 2439.132812 6000.003906 3200.011719 L 6000 3200 C 6264.789062 2439.125 6400 1639.203125 6400 833.566406 L 6400 700 "/>
</g>
</svg>
