<?xml version="1.0" encoding="UTF-8"?>
<svg xmlns="http://www.w3.org/2000/svg" xmlns:xlink="http://www.w3.org/1999/xlink" width="1200.000000mm" height="1600.000000mm" viewBox="0 0 12000 16000" version="1.1">
<g id="surface1056">
<path style="fill-rule:evenodd;fill:rgb(94.509804%,94.117647%,91.764706%);fill-opacity:1;stroke-width:0.3;stroke-linecap:butt;stroke-linejoin:miter;stroke:rgb(16.470588%,16.078431%,16.470588%);stroke-opacity:1;stroke-miterlimit:3;" d="M -540 -800 C -555.912891 -800 -571.174219 -793.678516 -582.426563 -782.426563 C -593.678516 -771.174219 -600 -755.912891 -600 -740 L -600 740 C -600 755.912891 -593.678516 771.174219 -582.426563 782.426563 C -571.174219 793.678516 -555.912891 800 -540 800 L 540 800 C 555.912891 800 571.174219 793.678516 582.426563 782.426563 C 593.678516 771.174219 600 755.912891 600 740 L 600 -740 C 600 -755.912891 593.678516 -771.174219 582.426563 -782.426563 C 571.174219 -793.678516 555.912891 -800 540 -800 L -540 -800 " transform="matrix(10,0,0,-10,6000,8000)"/>
<path style=" stroke:none;fill-rule:evenodd;fill:rgb(16.470588%,16.078431%,16.470588%);fill-opacity:1;" d="M 600 15850 C 480.652344 15850 366.191406 15802.589844 281.800781 15718.199219 C 197.410156 15633.808594 150 15519.347656 150 15400 L 150 600 C 150 480.652344 197.410156 366.191406 281.800781 281.800781 C 366.191406 197.410156 480.652344 150 600 150 L 11400 150 C 11519.347656 150 11633.808594 197.410156 11718.199219 281.800781 C 11802.589844 366.191406 11850 480.652344 11850 600 L 11850 15400 C 11850 15519.347656 11802.589844 15633.808594 11718.199219 15718.199219 C 11633.808594 15802.589844 11519.347656 15850 11400 15850 L 600 15850 M 600 15650 C 461.929688 15650 350 15538.070312 350 15400 L 350 600 C 350 461.929688 461.929688 350 600 350 L 11400 350 C 11538.070312 350 11650 461.929688 11650 600 L 11650 15400 C 11650 15538.070312 11538.070312 15650 11400 15650 L 600 15650 "/>
<path style=" stroke:none;fill-rule:evenodd;fill:rgb(16.470588%,16.078431%,16.470588%);fill-opacity:1;" d="M 1500 2980 L 1050 3096.191406 C 1040.199219 3098.71875 1030.121094 3100 1020 3100 C 953.726562 3100 900 3046.273438 900 2980 C 900 2956.226562 907.0625 2932.988281 920.289062 2913.234375 L 1800 1600 L 2679.710938 2913.234375 C 2692.9375 2932.988281 2700 2956.226562 2700 2980 C 2700 3046.273438 2646.273438 3100 2580 3100 C 2569.878906 3100 2559.800781 3098.71875 2550 3096.191406 L 2100 2980 L 2100 3600 C 2100 4587.492188 2339.738281 5560.222656 2798.617188 6434.621094 C 3257.496094 7309.015625 3921.796875 8058.9375 4734.449219 8619.957031 L 6242.929688 9661.34375 C 6815.78125 10056.8125 7284.058594 10585.445312 7607.53125 11201.824219 C 7931.003906 11818.203125 8100 12503.898438 8100 13200 L 8100 14400 L 7500 14400 L 7500 13200 C 7500 11984.136719 6902.644531 10845.871094 5902.054688 10155.109375 L 4393.574219 9113.722656 C 3500.992188 8497.523438 2771.347656 7673.839844 2267.335938 6713.433594 C 1763.320312 5753.03125 1500 4684.621094 1500 3600 L 1500 2980 "/>
<path style=" stroke:none;fill-rule:evenodd;fill:rgb(16.470588%,16.078431%,16.470588%);fill-opacity:1;" d="M 3900 2980 L 3450 3096.191406 C 3440.199219 3098.71875 3430.121094 3100 3420 3100 C 3353.726562 3100 3300 3046.273438 3300 2980 C 3300 2956.226562 3307.0625 2932.988281 3320.289062 2913.234375 L 4200 1600 L 5079.710938 2913.234375 C 5092.9375 2932.988281 5100 2956.226562 5100 2980 C 5100 3046.273438 5046.273438 3100 4980 3100 C 4969.878906 3100 4959.800781 3098.71875 4950 3096.191406 L 4500 2980 L 4500 3600 C 4500 4815.863281 5097.355469 5954.128906 6097.945312 6644.890625 L 7606.425781 7686.277344 C 8499.007812 8302.476562 9228.652344 9126.160156 9732.664062 10086.566406 C 10236.679688 11046.96875 10500 12115.378906 10500 13200 L 10500 14400 L 9900 14400 L 9900 13200 C 9900 12212.507812 9660.261719 11239.777344 9201.382812 10365.378906 C 8742.503906 9490.984375 8078.203125 8741.0625 7265.550781 8180.042969 L 5757.070312 7138.65625 C 5184.21875 6743.1875 4715.941406 6214.554688 4392.46875 5598.175781 C 4068.996094 4981.796875 3900 4296.101562 3900 3600 L 3900 2980 "/>
<path style=" stroke:none;fill-rule:evenodd;fill:rgb(16.470588%,16.078431%,16.470588%);fill-opacity:1;" d="M 5600 15300 L 5300 15300 L 5300 15166.433594 C 5300 14327.230469 5440.84375 13493.976562 5716.667969 12701.398438 C 5758.632812 12580.8125 5872.320312 12500 6000 12500 C 6127.679688 12500 6241.367188 12580.8125 6283.332031 12701.398438 C 6559.15625 13493.976562 6700 14327.230469 6700 15166.433594 L 6700 15300 L 6400 15300 L 6400 15166.433594 C 6400 14360.796875 6264.789062 13560.875 6000 12800 C 5735.210938 13560.875 5600 14360.796875 5600 15166.433594 L 5600 15300 "/>
<path style=" stroke:none;fill-rule:evenodd;fill:rgb(16.470588%,16.078431%,16.470588%);fill-opacity:1;" d="M 6400 700 L 6700 700 L 6700 833.566406 C 6700 1672.769531 6559.15625 2506.023438 6283.332031 3298.601562 C 6241.367188 3419.1875 6127.679688 3500 6000 3500 C 5872.320312 3500 5758.632812 3419.1875 5716.667969 3298.601562 L 5716.671875 3298.613281 C 5440.847656 2506.03125 5300 1672.773438 5300 833.566406 L 5300 700 L 5600 700 L 5600 833.566406 C 5600 1639.207031 5735.210938 2439.132812 6000.003906 3200.011719 L 6000 3200 C 6264.789062 2439.125 6400 1639.203125 6400 833.566406 L 6400 700 "/>
</g>
</svg>
