<?xml version="1.0" encoding="UTF-8"?>
<svg xmlns="http://www.w3.org/2000/svg" xmlns:xlink="http://www.w3.org/1999/xlink" width="1200.000000mm" height="1600.000000mm" viewBox="0 0 12000 16000" version="1.1">
<g id="surface1091">
<path style="fill-rule:evenodd;fill:rgb(94.509804%,94.117647%,91.764706%);fill-opacity:1;stroke-width:0.3;stroke-linecap:butt;stroke-linejoin:miter;stroke:rgb(16.470588%,16.078431%,16.470588%);stroke-opacity:1;stroke-miterlimit:3;" d="M -540 -800 C -555.912891 -800 -571.174219 -793.678516 -582.426563 -782.426563 C -593.678516 -771.174219 -600 -755.912891 -600 -740 L -600 740 C -600 755.912891 -593.678516 771.174219 -582.426563 782.426563 C -571.174219 793.678516 -555.912891 800 -540 800 L 540 800 C 555.912891 800 571.174219 793.678516 582.426563 782.426563 C 593.678516 771.174219 600 755.912891 600 740 L 600 -740 C 600 -755.912891 593.678516 -771.174219 582.426563 -782.426563 C 571.174219 -793.678516 555.912891 -800 540 -800 L -540 -800 " transform="matrix(10,0,0,-10,6000,8000)"/>
<path style=" stroke:none;fill-rule:evenodd;fill:rgb(16.470588%,16.078431%,16.470588%);fill-opacity:1;" d="M 600 15850 C 480.652344 15850 366.191406 15802.589844 281.800781 15718.199219 C 197.410156 15633.808594 150 15519.347656 150 15400 L 150 600 C 150 480.652344 197.410156 366.191406 281.800781 281.800781 C 366.191406 197.410156 480.652344 150 600 150 L 11400 150 C 11519.347656 150 11633.808594 197.410156 11718.199219 281.800781 C 11802.589844 366.191406 11850 480.652344 11850 600 L 11850 15400 C 11850 15519.347656 11802.589844 15633.808594 11718.199219 15718.199219 C 11633.808594 15802.589844 11519.347656 15850 11400 15850 L 600 15850 M 600 15650 C 461.929688 15650 350 15538.070312 350 15400 L 350 600 C 350 461.929688 461.929688 350 600 350 L 11400 350 C 11538.070312 350 11650 461.929688 11650 600 L 11650 15400 C 11650 15538.070312 11538.070312 15650 11400 15650 L 600 15650 "/>
<path style=" stroke:none;fill-rule:evenodd;fill:rgb(16.470588%,16.078431%,16.470588%);fill-opacity:1;" d="M 1300 2980 L 850 3096.191406 C 840.199219 3098.71875 830.121094 3100 820 3100 C 753.726562 3100 700 3046.273438 700 2980 C 700 2956.226562 707.0625 2932.988281 720.289062 2913.234375 L 1600 1600 L 2479.710938 2913.234375 C 2492.9375 2932.988281 2500 2956.226562 2500 2980 C 2500 3046.273438 2446.273438 3100 2380 3100 C 2369.878906 3100 2359.800781 3098.71875 2350 3096.191406 L 1900 2980 L 1900 4000 C 1900 4676.316406 2040.007812 5345.3125 2311.207031 5964.871094 C 2582.40625 6584.433594 2978.925781 7141.144531 3475.804688 7599.964844 L 4731.238281 8759.226562 C 5288.960938 9274.226562 5734.035156 9899.105469 6038.441406 10594.53125 C 6342.851562 11289.957031 6500 12040.867188 6500 12800 L 6500 14400 L 5900 14400 L 5900 12800 C 5900 12123.683594 5759.992188 11454.6875 5488.792969 10835.128906 C 5217.59375 10215.566406 4821.074219 9658.855469 4324.195312 9200.035156 L 3068.761719 8040.773438 C 2511.039062 7525.773438 2065.964844 6900.894531 1761.558594 6205.46875 C 1457.148438 5510.042969 1300 4759.132812 1300 4000 L 1300 2980 "/>
<path style=" stroke:none;fill-rule:evenodd;fill:rgb(16.470588%,16.078431%,16.470588%);fill-opacity:1;" d="M 3400 2980 L 2950 3096.191406 C 2940.199219 3098.71875 2930.121094 3100 2920 3100 C 2853.726562 3100 2800 3046.273438 2800 2980 C 2800 2956.226562 2807.0625 2932.988281 2820.289062 2913.234375 L 3700 1600 L 4579.710938 2913.234375 C 4592.9375 2932.988281 4600 2956.226562 4600 2980 C 4600 3046.273438 4546.273438 3100 4480 3100 C 4469.878906 3100 4459.800781 3098.71875 4450 3096.191406 L 4000 2980 L 4000 4000 C 4000 4781.304688 4326.445312 5527.078125 4900.460938 6057.121094 L 6155.894531 7216.382812 C 6926.566406 7928.019531 7541.574219 8791.492188 7962.210938 9752.441406 C 8382.847656 10713.394531 8600 11751.019531 8600 12800 L 8600 14400 L 8000 14400 L 8000 12800 C 8000 11833.832031 7799.992188 10878.125 7412.5625 9993.039062 C 7025.136719 9107.953125 6458.679688 8312.648438 5748.847656 7657.195312 L 4493.417969 6497.933594 C 3796.398438 5854.308594 3400 4948.730469 3400 4000 L 3400 2980 "/>
<path style=" stroke:none;fill-rule:evenodd;fill:rgb(16.470588%,16.078431%,16.470588%);fill-opacity:1;" d="M 7200 2980 L 6750 3096.191406 C 6740.199219 3098.71875 6730.121094 3100 6720 3100 C 6653.726562 3100 6600 3046.273438 6600 2980 C 6600 2956.226562 6607.0625 2932.988281 6620.289062 2913.234375 L 7500 1600 L 8378.53125 2911.503906 C 8392.507812 2931.613281 8400 2955.511719 8400 2980 C 8400 3046.273438 8346.273438 3100 8280 3100 C 8269.878906 3100 8259.800781 3098.71875 8250 3096.191406 L 7800 2980 L 7800 3800 C 7800 4631.0625 8052.554688 5442.503906 8524.1875 6126.773438 L 9498.910156 7540.957031 C 10281.132812 8675.847656 10700 10021.652344 10700 11400 L 10700 14400 L 10100 14400 L 10100 11400 C 10100 10143.269531 9718.089844 8916.214844 9004.890625 7881.460938 L 8030.164062 6467.277344 C 7489.511719 5682.871094 7200 4752.679688 7200 3800 L 7200 2980 "/>
<path style=" stroke:none;fill-rule:evenodd;fill:rgb(16.470588%,16.078431%,16.470588%);fill-opacity:1;" d="M 6000 700 L 6300 700 L 6300 833.566406 C 6300 1672.769531 6159.15625 2506.023438 5883.332031 3298.601562 C 5841.367188 3419.1875 5727.679688 3500 5600 3500 C 5472.320312 3500 5358.632812 3419.1875 5316.667969 3298.601562 L 5316.671875 3298.613281 C 5040.847656 2506.03125 4900 1672.773438 4900 833.566406 L 4900 700 L 5200 700 L 5200 833.566406 C 5200 1639.207031 5335.210938 2439.132812 5600.003906 3200.011719 L 5600 3200 C 5864.789062 2439.125 6000 1639.203125 6000 833.566406 L 6000 700 "/>
</g>
</svg>
