<?xml version="1.0" encoding="UTF-8"?>
<svg xmlns="http://www.w3.org/2000/svg" xmlns:xlink="http://www.w3.org/1999/xlink" width="1200.000000mm" height="1600.000000mm" viewBox="0 0 12000 16000" version="1.1">
<g id="surface1061">
<path style="fill-rule:evenodd;fill:rgb(94.509804%,94.117647%,91.764706%);fill-opacity:1;stroke-width:0.3;stroke-linecap:butt;stroke-linejoin:miter;stroke:rgb(16.470588%,16.078431%,16.470588%);stroke-opacity:1;stroke-miterlimit:3;" d="M -540 -800 C -555.912891 -800 -571.174219 -793.678516 -582.426563 -782.426563 C -593.678516 -771.174219 -600 -755.912891 -600 -740 L -600 740 C -600 755.912891 -593.678516 771.174219 -582.426563 782.426563 C -571.174219 793.678516 -555.912891 800 -540 800 L 540 800 C 555.912891 800 571.174219 793.678516 582.426563 782.426563 C 593.678516 771.174219 600 755.912891 600 740 L 600 -740 C 600 -755.912891 593.678516 -771.174219 582.426563 -782.426563 C 571.174219 -793.678516 555.912891 -800 540 -800 L -540 -800 " transform="matrix(10,0,0,-10,6000,8000)"/>
<path style=" stroke:none;fill-rule:evenodd;fill:rgb(16.470588%,16.078431%,16.470588%);fill-opacity:1;" d="M 600 15850 C 480.652344 15850 366.191406 15802.589844 281.800781 15718.199219 C 197.410156 15633.808594 150 15519.347656 150 15400 L 150 600 C 150 480.652344 197.410156 366.191406 281.800781 281.800781 C 366.191406 197.410156 480.652344 150 600 150 L 11400 150 C 11519.347656 150 11633.808594 197.410156 11718.199219 281.800781 C 11802.589844 366.191406 11850 480.652344 11850 600 L 11850 15400 C 11850 15519.347656 11802.589844 15633.808594 11718.199219 15718.199219 C 11633.808594 15802.589844 11519.347656 15850 11400 15850 L 600 15850 M 600 15650 C 461.929688 15650 350 15538.070312 350 15400 L 350 600 C 350 461.929688 461.929688 350 600 350 L 11400 350 C 11538.070312 350 11650 461.929688 11650 600 L 11650 15400 C 11650 15538.070312 11538.070312 15650 11400 15650 L 600 15650 "/>
<path style=" stroke:none;fill-rule:evenodd;fill:rgb(16.470588%,16.078431%,16.470588%);fill-opacity:1;" d="M 1300 2980 L 850 3096.191406 C 840.199219 3098.71875 830.121094 3100 820 3100 C 753.726562 3100 700 3046.273438 700 2980 C 700 2956.226562 707.0625 2932.988281 720.289062 2913.234375 L 1600 1600 L 2479.710938 2913.234375 C 2492.9375 2932.988281 2500 2956.226562 2500 2980 C 2500 3046.273438 2446.273438 3100 2380 3100 C 2369.878906 3100 2359.800781 3098.71875 2350 3096.191406 L 1900 2980 L 1900 4000 C 1900 4966.167969 2100.007812 5921.875 2487.4375 6806.960938 C 2874.863281 7692.046875 3441.320312 8487.351562 4151.152344 9142.804688 L 5406.582031 10302.066406 C 6103.601562 10945.691406 6500 11851.269531 6500 12800 L 6500 14400 L 5900 14400 L 5900 12800 C 5900 12018.695312 5573.554688 11272.921875 4999.539062 10742.878906 L 3744.105469 9583.617188 C 2973.433594 8871.980469 2358.425781 8008.507812 1937.789062 7047.558594 C 1517.152344 6086.605469 1300 5048.980469 1300 4000 L 1300 2980 "/>
<path style=" stroke:none;fill-rule:evenodd;fill:rgb(16.470588%,16.078431%,16.470588%);fill-opacity:1;" d="M 3400 2980 L 2950 3096.191406 C 2940.199219 3098.71875 2930.121094 3100 2920 3100 C 2853.726562 3100 2800 3046.273438 2800 2980 C 2800 2956.226562 2807.0625 2932.988281 2820.289062 2913.234375 L 3700 1600 L 4579.710938 2913.234375 C 4592.9375 2932.988281 4600 2956.226562 4600 2980 C 4600 3046.273438 4546.273438 3100 4480 3100 C 4469.878906 3100 4459.800781 3098.71875 4450 3096.191406 L 4000 2980 L 4000 4000 C 4000 4676.316406 4140.007812 5345.3125 4411.207031 5964.871094 C 4682.40625 6584.433594 5078.925781 7141.144531 5575.804688 7599.964844 L 6831.238281 8759.226562 C 7388.960938 9274.226562 7834.035156 9899.105469 8138.441406 10594.53125 C 8442.851562 11289.957031 8600 12040.867188 8600 12800 L 8600 14400 L 8000 14400 L 8000 12800 C 8000 12123.683594 7859.992188 11454.6875 7588.792969 10835.128906 C 7317.59375 10215.566406 6921.074219 9658.855469 6424.195312 9200.035156 L 5168.761719 8040.773438 C 4611.039062 7525.773438 4165.964844 6900.894531 3861.558594 6205.46875 C 3557.148438 5510.042969 3400 4759.132812 3400 4000 L 3400 2980 "/>
<path style=" stroke:none;fill-rule:evenodd;fill:rgb(16.470588%,16.078431%,16.470588%);fill-opacity:1;" d="M 5500 2980 L 5050 3096.191406 C 5040.199219 3098.71875 5030.121094 3100 5020 3100 C 4953.726562 3100 4900 3046.273438 4900 2980 C 4900 2956.226562 4907.0625 2932.988281 4920.289062 2913.234375 L 5800 1600 L 6679.710938 2913.234375 C 6692.9375 2932.988281 6700 2956.226562 6700 2980 C 6700 3046.273438 6646.273438 3100 6580 3100 C 6569.878906 3100 6559.800781 3098.71875 6550 3096.191406 L 6100 2980 L 6100 4000 C 6100 4781.304688 6426.445312 5527.078125 7000.460938 6057.121094 L 8255.894531 7216.382812 C 9026.566406 7928.019531 9641.574219 8791.492188 10062.210938 9752.441406 C 10482.847656 10713.394531 10700 11751.019531 10700 12800 L 10700 14400 L 10100 14400 L 10100 12800 C 10100 11833.832031 9899.992188 10878.125 9512.5625 9993.039062 C 9125.136719 9107.953125 8558.679688 8312.648438 7848.847656 7657.195312 L 6593.417969 6497.933594 C 5896.398438 5854.308594 5500 4948.730469 5500 4000 L 5500 2980 "/>
<path style=" stroke:none;fill-rule:evenodd;fill:rgb(16.470588%,16.078431%,16.470588%);fill-opacity:1;" d="M 8000 700 L 8300 700 L 8300 833.566406 C 8300 1672.769531 8159.15625 2506.023438 7883.332031 3298.601562 C 7841.367188 3419.1875 7727.679688 3500 7600 3500 C 7472.320312 3500 7358.632812 3419.1875 7316.667969 3298.601562 L 7316.671875 3298.613281 C 7040.847656 2506.03125 6900 1672.773438 6900 833.566406 L 6900 700 L 7200 700 L 7200 833.566406 C 7200 1639.207031 7335.210938 2439.132812 7600.003906 3200.011719 L 7600 3200 C 7864.789062 2439.125 8000 1639.203125 8000 833.566406 L 8000 700 "/>
</g>
</svg>
