<?xml version="1.0" encoding="UTF-8"?>
<svg xmlns="http://www.w3.org/2000/svg" xmlns:xlink="http://www.w3.org/1999/xlink" width="1200.000000mm" height="1600.000000mm" viewBox="0 0 12000 16000" version="1.1">
<g id="surface1111">
<path style="fill-rule:evenodd;fill:rgb(94.509804%,94.117647%,91.764706%);fill-opacity:1;stroke-width:0.3;stroke-linecap:butt;stroke-linejoin:miter;stroke:rgb(16.470588%,16.078431%,16.470588%);stroke-opacity:1;stroke-miterlimit:3;" d="M -540 -800 C -555.912891 -800 -571.174219 -793.678516 -582.426563 -782.426563 C -593.678516 -771.174219 -600 -755.912891 -600 -740 L -600 740 C -600 755.912891 -593.678516 771.174219 -582.426563 782.426563 C -571.174219 793.678516 -555.912891 800 -540 800 L 540 800 C 555.912891 800 571.174219 793.678516 582.426563 782.426563 C 593.678516 771.174219 600 755.912891 600 740 L 600 -740 C 600 -755.912891 593.678516 -771.174219 582.426563 -782.426563 C 571.174219 -793.678516 555.912891 -800 540 -800 L -540 -800 " transform="matrix(10,0,0,-10,6000,8000)"/>
<path style=" stroke:none;fill-rule:evenodd;fill:rgb(16.470588%,16.078431%,16.470588%);fill-opacity:1;" d="M 600 15850 C 480.652344 15850 366.191406 15802.589844 281.800781 15718.199219 C 197.410156 15633.808594 150 15519.347656 150 15400 L 150 600 C 150 480.652344 197.410156 366.191406 281.800781 281.800781 C 366.191406 197.410156 480.652344 150 600 150 L 11400 150 C 11519.347656 150 11633.808594 197.410156 11718.199219 281.800781 C 11802.589844 366.191406 11850 480.652344 11850 600 L 11850 15400 C 11850 15519.347656 11802.589844 15633.808594 11718.199219 15718.199219 C 11633.808594 15802.589844 11519.347656 15850 11400 15850 L 600 15850 M 600 15650 C 461.929688 15650 350 15538.070312 350 15400 L 350 600 C 350 461.929688 461.929688 350 600 350 L 11400 350 C 11538.070312 350 11650 461.929688 11650 600 L 11650 15400 C 11650 15538.070312 11538.070312 15650 11400 15650 L 600 15650 "/>
<path style=" stroke:none;fill-rule:evenodd;fill:rgb(16.470588%,16.078431%,16.470588%);fill-opacity:1;" d="M 8100 2980 L 8550 3096.191406 C 8559.800781 3098.71875 8569.878906 3100 8580 3100 C 8646.273438 3100 8700 3046.273438 8700 2980 C 8700 2956.226562 8692.9375 2932.988281 8679.710938 2913.234375 L 7800 1600 L 6920.289062 2913.234375 C 6907.0625 2932.988281 6900 2956.226562 6900 2980 C 6900 3046.273438 6953.726562 3100 7020 3100 C 7030.121094 3100 7040.199219 3098.71875 7050 3096.191406 L 7500 2980 L 7500 3600 C 7500 4815.863281 6902.644531 5954.128906 5902.054688 6644.890625 L 4393.574219 7686.277344 C 3500.992188 8302.476562 2771.347656 9126.160156 2267.335938 10086.566406 C 1763.320312 11046.96875 1500 12115.378906 1500 13200 L 1500 14400 L 2100 14400 L 2100 13200 C 2100 12212.507812 2339.738281 11239.777344 2798.617188 10365.378906 C 3257.496094 9490.984375 3921.796875 8741.0625 4734.449219 8180.042969 L 6242.929688 7138.65625 C 6815.78125 6743.1875 7284.058594 6214.554688 7607.53125 5598.175781 C 7931.003906 4981.796875 8100 4296.101562 8100 3600 L 8100 2980 "/>
<path style=" stroke:none;fill-rule:evenodd;fill:rgb(16.470588%,16.078431%,16.470588%);fill-opacity:1;" d="M 9900 2980 L 9450 3096.191406 C 9440.199219 3098.71875 9430.121094 3100 9420 3100 C 9353.726562 3100 9300 3046.273438 9300 2980 C 9300 2956.226562 9307.0625 2932.988281 9320.289062 2913.234375 L 10200 1600 L 11079.710938 2913.234375 C 11092.9375 2932.988281 11100 2956.226562 11100 2980 C 11100 3046.273438 11046.273438 3100 10980 3100 C 10969.878906 3100 10959.800781 3098.71875 10950 3096.191406 L 10500 2980 L 10500 9600 L 9900 9600 L 9900 2980 "/>
<path style=" stroke:none;fill-rule:evenodd;fill:rgb(16.470588%,16.078431%,16.470588%);fill-opacity:1;" d="M 5600 15300 L 5300 15300 L 5300 15166.433594 C 5300 14327.230469 5440.84375 13493.976562 5716.667969 12701.398438 C 5758.632812 12580.8125 5872.320312 12500 6000 12500 C 6127.679688 12500 6241.367188 12580.8125 6283.332031 12701.398438 C 6559.15625 13493.976562 6700 14327.230469 6700 15166.433594 L 6700 15300 L 6400 15300 L 6400 15166.433594 C 6400 14360.796875 6264.789062 13560.875 6000 12800 C 5735.210938 13560.875 5600 14360.796875 5600 15166.433594 L 5600 15300 "/>
<path style=" stroke:none;fill-rule:evenodd;fill:rgb(16.470588%,16.078431%,16.470588%);fill-opacity:1;" d="M 6400 700 L 6700 700 L 6700 833.566406 C 6700 1672.769531 6559.15625 2506.023438 6283.332031 3298.601562 C 6241.367188 3419.1875 6127.679688 3500 6000 3500 C 5872.320312 3500 5758.632812 3419.1875 5716.667969 3298.601562 L 5716.671875 3298.613281 C 5440.847656 2506.03125 5300 1672.773438 5300 833.566406 L 5300 700 L 5600 700 L 5600 833.566406 C 5600 1639.207031 5735.210938 2439.132812 6000.003906 3200.011719 L 6000 3200 C 6264.789062 2439.125 6400 1639.203125 6400 833.566406 L 6400 700 "/>
</g>
</svg>
