<?xml version="1.0" encoding="UTF-8"?>
<svg xmlns="http://www.w3.org/2000/svg" xmlns:xlink="http://www.w3.org/1999/xlink" width="1200.000000mm" height="1600.000000mm" viewBox="0 0 12000 16000" version="1.1">
<g id="surface1081">
<path style="fill-rule:evenodd;fill:rgb(94.509804%,94.117647%,91.764706%);fill-opacity:1;stroke-width:0.3;stroke-linecap:butt;stroke-linejoin:miter;stroke:rgb(16.470588%,16.078431%,16.470588%);stroke-opacity:1;stroke-miterlimit:3;" d="M -540 -800 C -555.912891 -800 -571.174219 -793.678516 -582.426563 -782.426563 C -593.678516 -771.174219 -600 -755.912891 -600 -740 L -600 740 C -600 755.912891 -593.678516 771.174219 -582.426563 782.426563 C -571.174219 793.678516 -555.912891 800 -540 800 L 540 800 C 555.912891 800 571.174219 793.678516 582.426563 782.426563 C 593.678516 771.174219 600 755.912891 600 740 L 600 -740 C 600 -755.912891 593.678516 -771.174219 582.426563 -782.426563 C 571.174219 -793.678516 555.912891 -800 540 -800 L -540 -800 " transform="matrix(10,0,0,-10,6000,8000)"/>
<path style=" stroke:none;fill-rule:evenodd;fill:rgb(16.470588%,16.078431%,16.470588%);fill-opacity:1;" d="M 600 15850 C 480.652344 15850 366.191406 15802.589844 281.800781 15718.199219 C 197.410156 15633.808594 150 15519.347656 150 15400 L 150 600 C 150 480.652344 197.410156 366.191406 281.800781 281.800781 C 366.191406 197.410156 480.652344 150 600 150 L 11400 150 C 11519.347656 150 11633.808594 197.410156 11718.199219 281.800781 C 11802.589844 366.191406 11850 480.652344 11850 600 L 11850 15400 C 11850 15519.347656 11802.589844 15633.808594 11718.199219 15718.199219 C 11633.808594 15802.589844 11519.347656 15850 11400 15850 L 600 15850 M 600 15650 C 461.929688 15650 350 15538.070312 350 15400 L 350 600 C 350 461.929688 461.929688 350 600 350 L 11400 350 C 11538.070312 350 11650 461.929688 11650 600 L 11650 15400 C 11650 15538.070312 11538.070312 15650 11400 15650 L 600 15650 "/>
<path style=" stroke:none;fill-rule:evenodd;fill:rgb(16.470588%,16.078431%,16.470588%);fill-opacity:1;" d="M 2100 2980 L 1650 3096.191406 C 1640.199219 3098.71875 1630.121094 3100 1620 3100 C 1553.726562 3100 1500 3046.273438 1500 2980 C 1500 2956.226562 1507.0625 2932.988281 1520.289062 2913.234375 L 2400 1600 L 3279.710938 2913.234375 C 3292.9375 2932.988281 3300 2956.226562 3300 2980 C 3300 3046.273438 3246.273438 3100 3180 3100 C 3169.878906 3100 3159.800781 3098.71875 3150 3096.191406 L 2700 2980 L 2700 4000 C 2700 4676.316406 2840.007812 5345.3125 3111.207031 5964.871094 C 3382.40625 6584.433594 3778.925781 7141.144531 4275.804688 7599.964844 L 5531.238281 8759.226562 C 6088.960938 9274.226562 6534.035156 9899.105469 6838.441406 10594.53125 C 7142.851562 11289.957031 7300 12040.867188 7300 12800 L 7300 14400 L 6700 14400 L 6700 12800 C 6700 12123.683594 6559.992188 11454.6875 6288.792969 10835.128906 C 6017.59375 10215.566406 5621.074219 9658.855469 5124.195312 9200.035156 L 3868.761719 8040.773438 C 3311.039062 7525.773438 2865.964844 6900.894531 2561.558594 6205.46875 C 2257.148438 5510.042969 2100 4759.132812 2100 4000 L 2100 2980 "/>
<path style=" stroke:none;fill-rule:evenodd;fill:rgb(16.470588%,16.078431%,16.470588%);fill-opacity:1;" d="M 6400 2980 L 5950 3096.191406 C 5940.199219 3098.71875 5930.121094 3100 5920 3100 C 5853.726562 3100 5800 3046.273438 5800 2980 C 5800 2956.226562 5807.0625 2932.988281 5820.289062 2913.234375 L 6700 1600 L 7578.53125 2911.503906 C 7592.507812 2931.613281 7600 2955.511719 7600 2980 C 7600 3046.273438 7546.273438 3100 7480 3100 C 7469.878906 3100 7459.800781 3098.71875 7450 3096.191406 L 7000 2980 L 7000 3800 C 7000 4631.0625 7252.554688 5442.503906 7724.1875 6126.773438 L 8698.910156 7540.957031 C 9481.132812 8675.847656 9900 10021.652344 9900 11400 L 9900 14400 L 9300 14400 L 9300 11400 C 9300 10143.269531 8918.089844 8916.214844 8204.890625 7881.460938 L 7230.164062 6467.277344 C 6689.511719 5682.871094 6400 4752.679688 6400 3800 L 6400 2980 "/>
<path style=" stroke:none;fill-rule:evenodd;fill:rgb(16.470588%,16.078431%,16.470588%);fill-opacity:1;" d="M 4150 15300 L 3850 15300 L 3850 15166.433594 C 3850 14327.230469 3990.84375 13493.976562 4266.667969 12701.398438 C 4308.632812 12580.8125 4422.320312 12500 4550 12500 C 4677.679688 12500 4791.367188 12580.8125 4833.332031 12701.398438 C 5109.15625 13493.976562 5250 14327.230469 5250 15166.433594 L 5250 15300 L 4950 15300 L 4950 15166.433594 C 4950 14360.796875 4814.789062 13560.875 4550 12800 C 4285.210938 13560.875 4150 14360.796875 4150 15166.433594 L 4150 15300 "/>
<path style=" stroke:none;fill-rule:evenodd;fill:rgb(16.470588%,16.078431%,16.470588%);fill-opacity:1;" d="M 4950 700 L 5250 700 L 5250 833.566406 C 5250 1672.769531 5109.15625 2506.023438 4833.332031 3298.601562 C 4791.367188 3419.1875 4677.679688 3500 4550 3500 C 4422.320312 3500 4308.632812 3419.1875 4266.667969 3298.601562 L 4266.671875 3298.613281 C 3990.847656 2506.03125 3850 1672.773438 3850 833.566406 L 3850 700 L 4150 700 L 4150 833.566406 C 4150 1639.207031 4285.210938 2439.132812 4550.003906 3200.011719 L 4550 3200 C 4814.789062 2439.125 4950 1639.203125 4950 833.566406 L 4950 700 "/>
</g>
</svg>
