<?xml version="1.0" encoding="UTF-8"?>
<svg xmlns="http://www.w3.org/2000/svg" xmlns:xlink="http://www.w3.org/1999/xlink" width="1200.000000mm" height="1600.000000mm" viewBox="0 0 12000 16000" version="1.1">
<g id="surface1106">
<path style="fill-rule:evenodd;fill:rgb(94.509804%,94.117647%,91.764706%);fill-opacity:1;stroke-width:0.3;stroke-linecap:butt;stroke-linejoin:miter;stroke:rgb(16.470588%,16.078431%,16.470588%);stroke-opacity:1;stroke-miterlimit:3;" d="M -540 -800 C -555.912891 -800 -571.174219 -793.678516 -582.426563 -782.426563 C -593.678516 -771.174219 -600 -755.912891 -600 -740 L -600 740 C -600 755.912891 -593.678516 771.174219 -582.426563 782.426563 C -571.174219 793.678516 -555.912891 800 -540 800 L 540 800 C 555.912891 800 571.174219 793.678516 582.426563 782.426563 C 593.678516 771.174219 600 755.912891 600 740 L 600 -740 C 600 -755.912891 593.678516 -771.174219 582.426563 -782.426563 C 571.174219 -793.678516 555.912891 -800 540 -800 L -540 -800 " transform="matrix(10,0,0,-10,6000,8000)"/>
<path style=" stroke:none;fill-rule:evenodd;fill:rgb(16.470588%,16.078431%,16.470588%);fill-opacity:1;" d="M 600 15850 C 480.652344 15850 366.191406 15802.589844 281.800781 15718.199219 C 197.410156 15633.808594 150 15519.347656 150 15400 L 150 600 C 150 480.652344 197.410156 366.191406 281.800781 281.800781 C 366.191406 197.410156 480.652344 150 600 150 L 11400 150 C 11519.347656 150 11633.808594 197.410156 11718.199219 281.800781 C 11802.589844 366.191406 11850 480.652344 11850 600 L 11850 15400 C 11850 15519.347656 11802.589844 15633.808594 11718.199219 15718.199219 C 11633.808594 15802.589844 11519.347656 15850 11400 15850 L 600 15850 M 600 15650 C 461.929688 15650 350 15538.070312 350 15400 L 350 600 C 350 461.929688 461.929688 350 600 350 L 11400 350 C 11538.070312 350 11650 461.929688 11650 600 L 11650 15400 C 11650 15538.070312 11538.070312 15650 11400 15650 L 600 15650 "/>
<path style=" stroke:none;fill-rule:evenodd;fill:rgb(16.470588%,16.078431%,16.470588%);fill-opacity:1;" d="M 6500 2980 L 6950 3096.191406 C 6959.800781 3098.71875 6969.878906 3100 6980 3100 C 7046.273438 3100 7100 3046.273438 7100 2980 C 7100 2956.226562 7092.9375 2932.988281 7079.710938 2913.234375 L 6200 1600 L 5320.289062 2913.234375 C 5307.0625 2932.988281 5300 2956.226562 5300 2980 C 5300 3046.273438 5353.726562 3100 5420 3100 C 5430.121094 3100 5440.199219 3098.71875 5450 3096.191406 L 5900 2980 L 5900 4000 C 5900 4781.304688 5573.554688 5527.078125 4999.539062 6057.121094 L 3744.105469 7216.382812 C 2973.433594 7928.019531 2358.425781 8791.492188 1937.789062 9752.441406 C 1517.152344 10713.394531 1300 11751.019531 1300 12800 L 1300 14400 L 1900 14400 L 1900 12800 C 1900 11833.832031 2100.007812 10878.125 2487.4375 9993.039062 C 2874.863281 9107.953125 3441.320312 8312.648438 4151.152344 7657.195312 L 5406.582031 6497.933594 C 6103.601562 5854.308594 6500 4948.730469 6500 4000 L 6500 2980 "/>
<path style=" stroke:none;fill-rule:evenodd;fill:rgb(16.470588%,16.078431%,16.470588%);fill-opacity:1;" d="M 8600 2980 L 9050 3096.191406 C 9059.800781 3098.71875 9069.878906 3100 9080 3100 C 9146.273438 3100 9200 3046.273438 9200 2980 C 9200 2956.226562 9192.9375 2932.988281 9179.710938 2913.234375 L 8300 1600 L 7420.289062 2913.234375 C 7407.0625 2932.988281 7400 2956.226562 7400 2980 C 7400 3046.273438 7453.726562 3100 7520 3100 C 7530.121094 3100 7540.199219 3098.71875 7550 3096.191406 L 8000 2980 L 8000 4000 C 8000 4676.316406 7859.992188 5345.3125 7588.792969 5964.871094 C 7317.59375 6584.433594 6921.074219 7141.144531 6424.195312 7599.964844 L 5168.761719 8759.226562 C 4611.039062 9274.226562 4165.964844 9899.105469 3861.558594 10594.53125 C 3557.148438 11289.957031 3400 12040.867188 3400 12800 L 3400 14400 L 4000 14400 L 4000 12800 C 4000 12123.683594 4140.007812 11454.6875 4411.207031 10835.128906 C 4682.40625 10215.566406 5078.925781 9658.855469 5575.804688 9200.035156 L 6831.238281 8040.773438 C 7388.960938 7525.773438 7834.035156 6900.894531 8138.441406 6205.46875 C 8442.851562 5510.042969 8600 4759.132812 8600 4000 L 8600 2980 "/>
<path style=" stroke:none;fill-rule:evenodd;fill:rgb(16.470588%,16.078431%,16.470588%);fill-opacity:1;" d="M 10700 2980 L 11150 3096.191406 C 11159.800781 3098.71875 11169.878906 3100 11180 3100 C 11246.273438 3100 11300 3046.273438 11300 2980 C 11300 2956.226562 11292.9375 2932.988281 11279.710938 2913.234375 L 10400 1600 L 9520.289062 2913.234375 C 9507.0625 2932.988281 9500 2956.226562 9500 2980 C 9500 3046.273438 9553.726562 3100 9620 3100 C 9630.121094 3100 9640.199219 3098.71875 9650 3096.191406 L 10100 2980 L 10100 4000 C 10100 4966.167969 9899.992188 5921.875 9512.5625 6806.960938 C 9125.136719 7692.046875 8558.679688 8487.351562 7848.847656 9142.804688 L 6593.417969 10302.066406 C 5896.398438 10945.691406 5500 11851.269531 5500 12800 L 5500 14400 L 6100 14400 L 6100 12800 C 6100 12018.695312 6426.445312 11272.921875 7000.460938 10742.878906 L 8255.894531 9583.617188 C 9026.566406 8871.980469 9641.574219 8008.507812 10062.210938 7047.558594 C 10482.847656 6086.605469 10700 5048.980469 10700 4000 L 10700 2980 "/>
<path style=" stroke:none;fill-rule:evenodd;fill:rgb(16.470588%,16.078431%,16.470588%);fill-opacity:1;" d="M 4800 700 L 5100 700 L 5100 833.566406 C 5100 1672.769531 4959.15625 2506.023438 4683.332031 3298.601562 C 4641.367188 3419.1875 4527.679688 3500 4400 3500 C 4272.320312 3500 4158.632812 3419.1875 4116.667969 3298.601562 L 4116.671875 3298.613281 C 3840.847656 2506.03125 3700 1672.773438 3700 833.566406 L 3700 700 L 4000 700 L 4000 833.566406 C 4000 1639.207031 4135.210938 2439.132812 4400.003906 3200.011719 L 4400 3200 C 4664.789062 2439.125 4800 1639.203125 4800 833.566406 L 4800 700 "/>
</g>
</svg>
