<?xml version="1.0" encoding="UTF-8"?>
<svg xmlns="http://www.w3.org/2000/svg" xmlns:xlink="http://www.w3.org/1999/xlink" width="1200.000000mm" height="1600.000000mm" viewBox="0 0 12000 16000" version="1.1">
<g id="surface1316">
<path style="fill-rule:evenodd;fill:rgb(94.509804%,94.117647%,91.764706%);fill-opacity:1;stroke-width:0.3;stroke-linecap:butt;stroke-linejoin:miter;stroke:rgb(16.470588%,16.078431%,16.470588%);stroke-opacity:1;stroke-miterlimit:3;" d="M -540 -800 C -555.912891 -800 -571.174219 -793.678516 -582.426563 -782.426563 C -593.678516 -771.174219 -600 -755.912891 -600 -740 L -600 740 C -600 755.912891 -593.678516 771.174219 -582.426563 782.426563 C -571.174219 793.678516 -555.912891 800 -540 800 L 540 800 C 555.912891 800 571.174219 793.678516 582.426563 782.426563 C 593.678516 771.174219 600 755.912891 600 740 L 600 -740 C 600 -755.912891 593.678516 -771.174219 582.426563 -782.426563 C 571.174219 -793.678516 555.912891 -800 540 -800 L -540 -800 " transform="matrix(10,0,0,-10,6000,8000)"/>
<path style=" stroke:none;fill-rule:evenodd;fill:rgb(16.470588%,16.078431%,16.470588%);fill-opacity:1;" d="M 600 15850 C 480.652344 15850 366.191406 15802.589844 281.800781 15718.199219 C 197.410156 15633.808594 150 15519.347656 150 15400 L 150 600 C 150 480.652344 197.410156 366.191406 281.800781 281.800781 C 366.191406 197.410156 480.652344 150 600 150 L 11400 150 C 11519.347656 150 11633.808594 197.410156 11718.199219 281.800781 C 11802.589844 366.191406 11850 480.652344 11850 600 L 11850 15400 C 11850 15519.347656 11802.589844 15633.808594 11718.199219 15718.199219 C 11633.808594 15802.589844 11519.347656 15850 11400 15850 L 600 15850 M 600 15650 C 461.929688 15650 350 15538.070312 350 15400 L 350 600 C 350 461.929688 461.929688 350 600 350 L 11400 350 C 11538.070312 350 11650 461.929688 11650 600 L 11650 15400 C 11650 15538.070312 11538.070312 15650 11400 15650 L 600 15650 "/>
<path style=" stroke:none;fill-rule:evenodd;fill:rgb(16.470588%,16.078431%,16.470588%);fill-opacity:1;" d="M 4500 2980 L 4950 3096.191406 C 4959.800781 3098.71875 4969.878906 3100 4980 3100 C 5046.273438 3100 5100 3046.273438 5100 2980 C 5100 2956.226562 5092.9375 2932.988281 5079.710938 2913.234375 L 4200 1600 L 3320.289062 2913.234375 C 3307.0625 2932.988281 3300 2956.226562 3300 2980 C 3300 3046.273438 3353.726562 3100 3420 3100 C 3430.121094 3100 3440.199219 3098.71875 3450 3096.191406 L 3900 2980 L 3900 4000 C 3900 4696.375 4086.457031 5380.046875 4440 5980 L 4643.078125 6324.617188 C 4942.230469 6832.269531 5100 7410.761719 5100 8000 C 5100 8589.238281 4942.230469 9167.730469 4643.078125 9675.382812 L 4440 10020 C 4086.457031 10619.953125 3900 11303.625 3900 12000 L 3900 14400 L 4500 14400 L 4500 12000 C 4500 11410.761719 4657.769531 10832.269531 4956.921875 10324.617188 L 5160 9980 C 5513.542969 9380.046875 5700 8696.375 5700 8000 C 5700 7303.625 5513.542969 6619.953125 5160 6020 L 4956.921875 5675.382812 C 4657.769531 5167.730469 4500 4589.238281 4500 4000 L 4500 2980 "/>
<path style=" stroke:none;fill-rule:evenodd;fill:rgb(16.470588%,16.078431%,16.470588%);fill-opacity:1;" d="M 7500 2980 L 7950 3096.191406 C 7959.800781 3098.71875 7969.878906 3100 7980 3100 C 8046.273438 3100 8100 3046.273438 8100 2980 C 8100 2956.226562 8092.9375 2932.988281 8079.710938 2913.234375 L 7200 1600 L 6320.289062 2913.234375 C 6307.0625 2932.988281 6300 2956.226562 6300 2980 C 6300 3046.273438 6353.726562 3100 6420 3100 C 6430.121094 3100 6440.199219 3098.71875 6450 3096.191406 L 6900 2980 L 6900 4000 C 6900 4696.375 7086.457031 5380.046875 7440 5980 L 7643.078125 6324.617188 C 7942.230469 6832.269531 8100 7410.761719 8100 8000 C 8100 8589.238281 7942.230469 9167.730469 7643.078125 9675.382812 L 7440 10020 C 7086.457031 10619.953125 6900 11303.625 6900 12000 L 6900 14400 L 7500 14400 L 7500 12000 C 7500 11410.761719 7657.769531 10832.269531 7956.921875 10324.617188 L 8160 9980 C 8513.542969 9380.046875 8700 8696.375 8700 8000 C 8700 7303.625 8513.542969 6619.953125 8160 6020 L 7956.921875 5675.382812 C 7657.769531 5167.730469 7500 4589.238281 7500 4000 L 7500 2980 "/>
</g>
</svg>
