<?xml version="1.0" encoding="UTF-8"?>
<svg xmlns="http://www.w3.org/2000/svg" xmlns:xlink="http://www.w3.org/1999/xlink" width="1200.000000mm" height="1600.000000mm" viewBox="0 0 12000 16000" version="1.1">
<g id="surface1321">
<path style="fill-rule:evenodd;fill:rgb(94.509804%,94.117647%,91.764706%);fill-opacity:1;stroke-width:0.3;stroke-linecap:butt;stroke-linejoin:miter;stroke:rgb(16.470588%,16.078431%,16.470588%);stroke-opacity:1;stroke-miterlimit:3;" d="M -540 -800 C -555.912891 -800 -571.174219 -793.678516 -582.426563 -782.426563 C -593.678516 -771.174219 -600 -755.912891 -600 -740 L -600 740 C -600 755.912891 -593.678516 771.174219 -582.426563 782.426563 C -571.174219 793.678516 -555.912891 800 -540 800 L 540 800 C 555.912891 800 571.174219 793.678516 582.426563 782.426563 C 593.678516 771.174219 600 755.912891 600 740 L 600 -740 C 600 -755.912891 593.678516 -771.174219 582.426563 -782.426563 C 571.174219 -793.678516 555.912891 -800 540 -800 L -540 -800 " transform="matrix(10,0,0,-10,6000,8000)"/>
<path style=" stroke:none;fill-rule:evenodd;fill:rgb(16.470588%,16.078431%,16.470588%);fill-opacity:1;" d="M 600 15850 C 480.652344 15850 366.191406 15802.589844 281.800781 15718.199219 C 197.410156 15633.808594 150 15519.347656 150 15400 L 150 600 C 150 480.652344 197.410156 366.191406 281.800781 281.800781 C 366.191406 197.410156 480.652344 150 600 150 L 11400 150 C 11519.347656 150 11633.808594 197.410156 11718.199219 281.800781 C 11802.589844 366.191406 11850 480.652344 11850 600 L 11850 15400 C 11850 15519.347656 11802.589844 15633.808594 11718.199219 15718.199219 C 11633.808594 15802.589844 11519.347656 15850 11400 15850 L 600 15850 M 600 15650 C 461.929688 15650 350 15538.070312 350 15400 L 350 600 C 350 461.929688 461.929688 350 600 350 L 11400 350 C 11538.070312 350 11650 461.929688 11650 600 L 11650 15400 C 11650 15538.070312 11538.070312 15650 11400 15650 L 600 15650 "/>
<path style=" stroke:none;fill-rule:evenodd;fill:rgb(16.470588%,16.078431%,16.470588%);fill-opacity:1;" d="M 3600 2980 L 4050 3096.191406 C 4059.800781 3098.71875 4069.878906 3100 4080 3100 C 4146.273438 3100 4200 3046.273438 4200 2980 C 4200 2956.226562 4192.9375 2932.988281 4179.710938 2913.234375 L 3300 1600 L 2420.289062 2913.234375 C 2407.0625 2932.988281 2400 2956.226562 2400 2980 C 2400 3046.273438 2453.726562 3100 2520 3100 C 2530.121094 3100 2540.199219 3098.71875 2550 3096.191406 L 3000 2980 L 3000 4000 C 3000 4696.375 3186.457031 5380.046875 3540 5980 L 3743.078125 6324.617188 C 4042.230469 6832.269531 4200 7410.761719 4200 8000 C 4200 8589.238281 4042.230469 9167.730469 3743.078125 9675.382812 L 3540 10020 C 3186.457031 10619.953125 3000 11303.625 3000 12000 L 3000 14400 L 3600 14400 L 3600 12000 C 3600 11410.761719 3757.769531 10832.269531 4056.921875 10324.617188 L 4260 9980 C 4613.542969 9380.046875 4800 8696.375 4800 8000 C 4800 7303.625 4613.542969 6619.953125 4260 6020 L 4056.921875 5675.382812 C 3757.769531 5167.730469 3600 4589.238281 3600 4000 L 3600 2980 "/>
<path style=" stroke:none;fill-rule:evenodd;fill:rgb(16.470588%,16.078431%,16.470588%);fill-opacity:1;" d="M 6000 2980 L 6450 3096.191406 C 6459.800781 3098.71875 6469.878906 3100 6480 3100 C 6546.273438 3100 6600 3046.273438 6600 2980 C 6600 2956.226562 6592.9375 2932.988281 6579.710938 2913.234375 L 5700 1600 L 4820.289062 2913.234375 C 4807.0625 2932.988281 4800 2956.226562 4800 2980 C 4800 3046.273438 4853.726562 3100 4920 3100 C 4930.121094 3100 4940.199219 3098.71875 4950 3096.191406 L 5400 2980 L 5400 4000 C 5400 4696.375 5586.457031 5380.046875 5940 5980 L 6143.078125 6324.617188 C 6442.230469 6832.269531 6600 7410.761719 6600 8000 C 6600 8589.238281 6442.230469 9167.730469 6143.078125 9675.382812 L 5940 10020 C 5586.457031 10619.953125 5400 11303.625 5400 12000 L 5400 14400 L 6000 14400 L 6000 12000 C 6000 11410.761719 6157.769531 10832.269531 6456.921875 10324.617188 L 6660 9980 C 7013.542969 9380.046875 7200 8696.375 7200 8000 C 7200 7303.625 7013.542969 6619.953125 6660 6020 L 6456.921875 5675.382812 C 6157.769531 5167.730469 6000 4589.238281 6000 4000 L 6000 2980 "/>
<path style=" stroke:none;fill-rule:evenodd;fill:rgb(16.470588%,16.078431%,16.470588%);fill-opacity:1;" d="M 8400 2980 L 8850 3096.191406 C 8859.800781 3098.71875 8869.878906 3100 8880 3100 C 8946.273438 3100 9000 3046.273438 9000 2980 C 9000 2956.226562 8992.9375 2932.988281 8979.710938 2913.234375 L 8100 1600 L 7220.289062 2913.234375 C 7207.0625 2932.988281 7200 2956.226562 7200 2980 C 7200 3046.273438 7253.726562 3100 7320 3100 C 7330.121094 3100 7340.199219 3098.71875 7350 3096.191406 L 7800 2980 L 7800 4000 C 7800 4696.375 7986.457031 5380.046875 8340 5980 L 8543.078125 6324.617188 C 8842.230469 6832.269531 9000 7410.761719 9000 8000 C 9000 8589.238281 8842.230469 9167.730469 8543.078125 9675.382812 L 8340 10020 C 7986.457031 10619.953125 7800 11303.625 7800 12000 L 7800 14400 L 8400 14400 L 8400 12000 C 8400 11410.761719 8557.769531 10832.269531 8856.921875 10324.617188 L 9060 9980 C 9413.542969 9380.046875 9600 8696.375 9600 8000 C 9600 7303.625 9413.542969 6619.953125 9060 6020 L 8856.921875 5675.382812 C 8557.769531 5167.730469 8400 4589.238281 8400 4000 L 8400 2980 "/>
</g>
</svg>
