<?xml version="1.0" encoding="UTF-8"?>
<svg xmlns="http://www.w3.org/2000/svg" xmlns:xlink="http://www.w3.org/1999/xlink" width="1200.000000mm" height="1600.000000mm" viewBox="0 0 12000 16000" version="1.1">
<g id="surface1301">
<path style="fill-rule:evenodd;fill:rgb(94.509804%,94.117647%,91.764706%);fill-opacity:1;stroke-width:0.3;stroke-linecap:butt;stroke-linejoin:miter;stroke:rgb(16.470588%,16.078431%,16.470588%);stroke-opacity:1;stroke-miterlimit:3;" d="M -540 -800 C -555.912891 -800 -571.174219 -793.678516 -582.426563 -782.426563 C -593.678516 -771.174219 -600 -755.912891 -600 -740 L -600 740 C -600 755.912891 -593.678516 771.174219 -582.426563 782.426563 C -571.174219 793.678516 -555.912891 800 -540 800 L 540 800 C 555.912891 800 571.174219 793.678516 582.426563 782.426563 C 593.678516 771.174219 600 755.912891 600 740 L 600 -740 C 600 -755.912891 593.678516 -771.174219 582.426563 -782.426563 C 571.174219 -793.678516 555.912891 -800 540 -800 L -540 -800 " transform="matrix(10,0,0,-10,6000,8000)"/>
<path style=" stroke:none;fill-rule:evenodd;fill:rgb(16.470588%,16.078431%,16.470588%);fill-opacity:1;" d="M 600 15850 C 480.652344 15850 366.191406 15802.589844 281.800781 15718.199219 C 197.410156 15633.808594 150 15519.347656 150 15400 L 150 600 C 150 480.652344 197.410156 366.191406 281.800781 281.800781 C 366.191406 197.410156 480.652344 150 600 150 L 11400 150 C 11519.347656 150 11633.808594 197.410156 11718.199219 281.800781 C 11802.589844 366.191406 11850 480.652344 11850 600 L 11850 15400 C 11850 15519.347656 11802.589844 15633.808594 11718.199219 15718.199219 C 11633.808594 15802.589844 11519.347656 15850 11400 15850 L 600 15850 M 600 15650 C 461.929688 15650 350 15538.070312 350 15400 L 350 600 C 350 461.929688 461.929688 350 600 350 L 11400 350 C 11538.070312 350 11650 461.929688 11650 600 L 11650 15400 C 11650 15538.070312 11538.070312 15650 11400 15650 L 600 15650 "/>
<path style=" stroke:none;fill-rule:evenodd;fill:rgb(16.470588%,16.078431%,16.470588%);fill-opacity:1;" d="M 4500 2980 L 4050 3096.191406 C 4040.199219 3098.71875 4030.121094 3100 4020 3100 C 3953.726562 3100 3900 3046.273438 3900 2980 C 3900 2956.226562 3907.0625 2932.988281 3920.289062 2913.234375 L 4800 1600 L 5679.710938 2913.234375 C 5692.9375 2932.988281 5700 2956.226562 5700 2980 C 5700 3046.273438 5646.273438 3100 5580 3100 C 5569.878906 3100 5559.800781 3098.71875 5550 3096.191406 L 5100 2980 L 5100 4000 C 5100 4696.375 4913.542969 5380.046875 4560 5980 L 4356.921875 6324.617188 C 4057.769531 6832.269531 3900 7410.761719 3900 8000 C 3900 8589.238281 4057.769531 9167.730469 4356.921875 9675.382812 L 4560 10020 C 4913.542969 10619.953125 5100 11303.625 5100 12000 L 5100 14400 L 4500 14400 L 4500 12000 C 4500 11410.761719 4342.230469 10832.269531 4043.078125 10324.617188 L 3840 9980 C 3486.457031 9380.046875 3300 8696.375 3300 8000 C 3300 7303.625 3486.457031 6619.953125 3840 6020 L 4043.078125 5675.382812 C 4342.230469 5167.730469 4500 4589.238281 4500 4000 L 4500 2980 "/>
<path style=" stroke:none;fill-rule:evenodd;fill:rgb(16.470588%,16.078431%,16.470588%);fill-opacity:1;" d="M 7500 2980 L 7050 3096.191406 C 7040.199219 3098.71875 7030.121094 3100 7020 3100 C 6953.726562 3100 6900 3046.273438 6900 2980 C 6900 2956.226562 6907.0625 2932.988281 6920.289062 2913.234375 L 7800 1600 L 8679.710938 2913.234375 C 8692.9375 2932.988281 8700 2956.226562 8700 2980 C 8700 3046.273438 8646.273438 3100 8580 3100 C 8569.878906 3100 8559.800781 3098.71875 8550 3096.191406 L 8100 2980 L 8100 4000 C 8100 4696.375 7913.542969 5380.046875 7560 5980 L 7356.921875 6324.617188 C 7057.769531 6832.269531 6900 7410.761719 6900 8000 C 6900 8589.238281 7057.769531 9167.730469 7356.921875 9675.382812 L 7560 10020 C 7913.542969 10619.953125 8100 11303.625 8100 12000 L 8100 14400 L 7500 14400 L 7500 12000 C 7500 11410.761719 7342.230469 10832.269531 7043.078125 10324.617188 L 6840 9980 C 6486.457031 9380.046875 6300 8696.375 6300 8000 C 6300 7303.625 6486.457031 6619.953125 6840 6020 L 7043.078125 5675.382812 C 7342.230469 5167.730469 7500 4589.238281 7500 4000 L 7500 2980 "/>
</g>
</svg>
