<?xml version="1.0" encoding="UTF-8"?>
<svg xmlns="http://www.w3.org/2000/svg" xmlns:xlink="http://www.w3.org/1999/xlink" width="1200.000000mm" height="1600.000000mm" viewBox="0 0 12000 16000" version="1.1">
<g id="surface1306">
<path style="fill-rule:evenodd;fill:rgb(94.509804%,94.117647%,91.764706%);fill-opacity:1;stroke-width:0.3;stroke-linecap:butt;stroke-linejoin:miter;stroke:rgb(16.470588%,16.078431%,16.470588%);stroke-opacity:1;stroke-miterlimit:3;" d="M -540 -800 C -555.912891 -800 -571.174219 -793.678516 -582.426563 -782.426563 C -593.678516 -771.174219 -600 -755.912891 -600 -740 L -600 740 C -600 755.912891 -593.678516 771.174219 -582.426563 782.426563 C -571.174219 793.678516 -555.912891 800 -540 800 L 540 800 C 555.912891 800 571.174219 793.678516 582.426563 782.426563 C 593.678516 771.174219 600 755.912891 600 740 L 600 -740 C 600 -755.912891 593.678516 -771.174219 582.426563 -782.426563 C 571.174219 -793.678516 555.912891 -800 540 -800 L -540 -800 " transform="matrix(10,0,0,-10,6000,8000)"/>
<path style=" stroke:none;fill-rule:evenodd;fill:rgb(16.470588%,16.078431%,16.470588%);fill-opacity:1;" d="M 600 15850 C 480.652344 15850 366.191406 15802.589844 281.800781 15718.199219 C 197.410156 15633.808594 150 15519.347656 150 15400 L 150 600 C 150 480.652344 197.410156 366.191406 281.800781 281.800781 C 366.191406 197.410156 480.652344 150 600 150 L 11400 150 C 11519.347656 150 11633.808594 197.410156 11718.199219 281.800781 C 11802.589844 366.191406 11850 480.652344 11850 600 L 11850 15400 C 11850 15519.347656 11802.589844 15633.808594 11718.199219 15718.199219 C 11633.808594 15802.589844 11519.347656 15850 11400 15850 L 600 15850 M 600 15650 C 461.929688 15650 350 15538.070312 350 15400 L 350 600 C 350 461.929688 461.929688 350 600 350 L 11400 350 C 11538.070312 350 11650 461.929688 11650 600 L 11650 15400 C 11650 15538.070312 11538.070312 15650 11400 15650 L 600 15650 "/>
<path style=" stroke:none;fill-rule:evenodd;fill:rgb(16.470588%,16.078431%,16.470588%);fill-opacity:1;" d="M 3600 2980 L 3150 3096.191406 C 3140.199219 3098.71875 3130.121094 3100 3120 3100 C 3053.726562 3100 3000 3046.273438 3000 2980 C 3000 2956.226562 3007.0625 2932.988281 3020.289062 2913.234375 L 3900 1600 L 4779.710938 2913.234375 C 4792.9375 2932.988281 4800 2956.226562 4800 2980 C 4800 3046.273438 4746.273438 3100 4680 3100 C 4669.878906 3100 4659.800781 3098.71875 4650 3096.191406 L 4200 2980 L 4200 4000 C 4200 4696.375 4013.542969 5380.046875 3660 5980 L 3456.921875 6324.617188 C 3157.769531 6832.269531 3000 7410.761719 3000 8000 C 3000 8589.238281 3157.769531 9167.730469 3456.921875 9675.382812 L 3660 10020 C 4013.542969 10619.953125 4200 11303.625 4200 12000 L 4200 14400 L 3600 14400 L 3600 12000 C 3600 11410.761719 3442.230469 10832.269531 3143.078125 10324.617188 L 2940 9980 C 2586.457031 9380.046875 2400 8696.375 2400 8000 C 2400 7303.625 2586.457031 6619.953125 2940 6020 L 3143.078125 5675.382812 C 3442.230469 5167.730469 3600 4589.238281 3600 4000 L 3600 2980 "/>
<path style=" stroke:none;fill-rule:evenodd;fill:rgb(16.470588%,16.078431%,16.470588%);fill-opacity:1;" d="M 6000 2980 L 5550 3096.191406 C 5540.199219 3098.71875 5530.121094 3100 5520 3100 C 5453.726562 3100 5400 3046.273438 5400 2980 C 5400 2956.226562 5407.0625 2932.988281 5420.289062 2913.234375 L 6300 1600 L 7179.710938 2913.234375 C 7192.9375 2932.988281 7200 2956.226562 7200 2980 C 7200 3046.273438 7146.273438 3100 7080 3100 C 7069.878906 3100 7059.800781 3098.71875 7050 3096.191406 L 6600 2980 L 6600 4000 C 6600 4696.375 6413.542969 5380.046875 6060 5980 L 5856.921875 6324.617188 C 5557.769531 6832.269531 5400 7410.761719 5400 8000 C 5400 8589.238281 5557.769531 9167.730469 5856.921875 9675.382812 L 6060 10020 C 6413.542969 10619.953125 6600 11303.625 6600 12000 L 6600 14400 L 6000 14400 L 6000 12000 C 6000 11410.761719 5842.230469 10832.269531 5543.078125 10324.617188 L 5340 9980 C 4986.457031 9380.046875 4800 8696.375 4800 8000 C 4800 7303.625 4986.457031 6619.953125 5340 6020 L 5543.078125 5675.382812 C 5842.230469 5167.730469 6000 4589.238281 6000 4000 L 6000 2980 "/>
<path style=" stroke:none;fill-rule:evenodd;fill:rgb(16.470588%,16.078431%,16.470588%);fill-opacity:1;" d="M 8400 2980 L 7950 3096.191406 C 7940.199219 3098.71875 7930.121094 3100 7920 3100 C 7853.726562 3100 7800 3046.273438 7800 2980 C 7800 2956.226562 7807.0625 2932.988281 7820.289062 2913.234375 L 8700 1600 L 9579.710938 2913.234375 C 9592.9375 2932.988281 9600 2956.226562 9600 2980 C 9600 3046.273438 9546.273438 3100 9480 3100 C 9469.878906 3100 9459.800781 3098.71875 9450 3096.191406 L 9000 2980 L 9000 4000 C 9000 4696.375 8813.542969 5380.046875 8460 5980 L 8256.921875 6324.617188 C 7957.769531 6832.269531 7800 7410.761719 7800 8000 C 7800 8589.238281 7957.769531 9167.730469 8256.921875 9675.382812 L 8460 10020 C 8813.542969 10619.953125 9000 11303.625 9000 12000 L 9000 14400 L 8400 14400 L 8400 12000 C 8400 11410.761719 8242.230469 10832.269531 7943.078125 10324.617188 L 7740 9980 C 7386.457031 9380.046875 7200 8696.375 7200 8000 C 7200 7303.625 7386.457031 6619.953125 7740 6020 L 7943.078125 5675.382812 C 8242.230469 5167.730469 8400 4589.238281 8400 4000 L 8400 2980 "/>
</g>
</svg>
