<?xml version="1.0" encoding="UTF-8"?>
<svg xmlns="http://www.w3.org/2000/svg" xmlns:xlink="http://www.w3.org/1999/xlink" width="1200.000000mm" height="1600.000000mm" viewBox="0 0 12000 16000" version="1.1">
<g id="surface1396">
<path style="fill-rule:evenodd;fill:rgb(94.509804%,94.117647%,91.764706%);fill-opacity:1;stroke-width:0.3;stroke-linecap:butt;stroke-linejoin:miter;stroke:rgb(16.470588%,16.078431%,16.470588%);stroke-opacity:1;stroke-miterlimit:3;" d="M -540 -800 C -555.912891 -800 -571.174219 -793.678516 -582.426563 -782.426563 C -593.678516 -771.174219 -600 -755.912891 -600 -740 L -600 740 C -600 755.912891 -593.678516 771.174219 -582.426563 782.426563 C -571.174219 793.678516 -555.912891 800 -540 800 L 540 800 C 555.912891 800 571.174219 793.678516 582.426563 782.426563 C 593.678516 771.174219 600 755.912891 600 740 L 600 -740 C 600 -755.912891 593.678516 -771.174219 582.426563 -782.426563 C 571.174219 -793.678516 555.912891 -800 540 -800 L -540 -800 " transform="matrix(10,0,0,-10,6000,8000)"/>
<path style=" stroke:none;fill-rule:evenodd;fill:rgb(16.470588%,16.078431%,16.470588%);fill-opacity:1;" d="M 600 15850 C 480.652344 15850 366.191406 15802.589844 281.800781 15718.199219 C 197.410156 15633.808594 150 15519.347656 150 15400 L 150 600 C 150 480.652344 197.410156 366.191406 281.800781 281.800781 C 366.191406 197.410156 480.652344 150 600 150 L 11400 150 C 11519.347656 150 11633.808594 197.410156 11718.199219 281.800781 C 11802.589844 366.191406 11850 480.652344 11850 600 L 11850 15400 C 11850 15519.347656 11802.589844 15633.808594 11718.199219 15718.199219 C 11633.808594 15802.589844 11519.347656 15850 11400 15850 L 600 15850 M 600 15650 C 461.929688 15650 350 15538.070312 350 15400 L 350 600 C 350 461.929688 461.929688 350 600 350 L 11400 350 C 11538.070312 350 11650 461.929688 11650 600 L 11650 15400 C 11650 15538.070312 11538.070312 15650 11400 15650 L 600 15650 "/>
<path style=" stroke:none;fill-rule:evenodd;fill:rgb(16.470588%,16.078431%,16.470588%);fill-opacity:1;" d="M 2787.9375 5563.675781 L 3188.296875 5327.636719 C 3224.890625 5306.058594 3247.351562 5266.746094 3247.351562 5224.265625 C 3247.351562 5166.960938 3206.835938 5117.65625 3150.625 5106.542969 L 1600 4800 L 1906.542969 6350.625 C 1917.65625 6406.835938 1966.960938 6447.351562 2024.265625 6447.351562 C 2066.746094 6447.351562 2106.058594 6424.890625 2127.636719 6388.296875 L 2363.675781 5987.9375 L 3124.265625 6748.527344 C 3236.785156 6861.050781 3300 7013.660156 3300 7172.792969 L 3300 14400 L 3900 14400 L 3900 7172.792969 C 3900 6854.53125 3773.570312 6549.308594 3548.527344 6324.265625 L 2787.9375 5563.675781 "/>
<path style=" stroke:none;fill-rule:evenodd;fill:rgb(16.470588%,16.078431%,16.470588%);fill-opacity:1;" d="M 6300 2980 L 6750 3096.191406 C 6759.800781 3098.71875 6769.878906 3100 6780 3100 C 6846.273438 3100 6900 3046.273438 6900 2980 C 6900 2956.21875 6892.933594 2932.972656 6879.699219 2913.214844 L 6000 1600 L 5120.300781 2913.214844 C 5107.066406 2932.972656 5100 2956.21875 5100 2980 C 5100 3046.273438 5153.726562 3100 5220 3100 C 5230.121094 3100 5240.199219 3098.71875 5250 3096.191406 L 5700 2980 L 5700 14400 L 6300 14400 L 6300 2980 "/>
<path style=" stroke:none;fill-rule:evenodd;fill:rgb(16.470588%,16.078431%,16.470588%);fill-opacity:1;" d="M 9212.0625 5563.675781 L 8811.703125 5327.636719 C 8775.109375 5306.058594 8752.648438 5266.746094 8752.648438 5224.265625 C 8752.648438 5166.960938 8793.164062 5117.65625 8849.375 5106.542969 L 10400 4800 L 10093.457031 6350.625 C 10082.34375 6406.835938 10033.039062 6447.351562 9975.734375 6447.351562 C 9933.253906 6447.351562 9893.941406 6424.890625 9872.363281 6388.296875 L 9636.324219 5987.9375 L 8875.734375 6748.527344 C 8763.214844 6861.050781 8700 7013.660156 8700 7172.792969 L 8700 14400 L 8100 14400 L 8100 7172.792969 C 8100 6854.53125 8226.429688 6549.308594 8451.472656 6324.265625 L 9212.0625 5563.675781 "/>
</g>
</svg>
