<?xml version="1.0" encoding="UTF-8"?>
<svg xmlns="http://www.w3.org/2000/svg" xmlns:xlink="http://www.w3.org/1999/xlink" width="1200.000000mm" height="1600.000000mm" viewBox="0 0 12000 16000" version="1.1">
<g id="surface1356">
<path style="fill-rule:evenodd;fill:rgb(94.509804%,94.117647%,91.764706%);fill-opacity:1;stroke-width:0.3;stroke-linecap:butt;stroke-linejoin:miter;stroke:rgb(16.470588%,16.078431%,16.470588%);stroke-opacity:1;stroke-miterlimit:3;" d="M -540 -800 C -555.912891 -800 -571.174219 -793.678516 -582.426563 -782.426563 C -593.678516 -771.174219 -600 -755.912891 -600 -740 L -600 740 C -600 755.912891 -593.678516 771.174219 -582.426563 782.426563 C -571.174219 793.678516 -555.912891 800 -540 800 L 540 800 C 555.912891 800 571.174219 793.678516 582.426563 782.426563 C 593.678516 771.174219 600 755.912891 600 740 L 600 -740 C 600 -755.912891 593.678516 -771.174219 582.426563 -782.426563 C 571.174219 -793.678516 555.912891 -800 540 -800 L -540 -800 " transform="matrix(10,0,0,-10,6000,8000)"/>
<path style=" stroke:none;fill-rule:evenodd;fill:rgb(16.470588%,16.078431%,16.470588%);fill-opacity:1;" d="M 600 15850 C 480.652344 15850 366.191406 15802.589844 281.800781 15718.199219 C 197.410156 15633.808594 150 15519.347656 150 15400 L 150 600 C 150 480.652344 197.410156 366.191406 281.800781 281.800781 C 366.191406 197.410156 480.652344 150 600 150 L 11400 150 C 11519.347656 150 11633.808594 197.410156 11718.199219 281.800781 C 11802.589844 366.191406 11850 480.652344 11850 600 L 11850 15400 C 11850 15519.347656 11802.589844 15633.808594 11718.199219 15718.199219 C 11633.808594 15802.589844 11519.347656 15850 11400 15850 L 600 15850 M 600 15650 C 461.929688 15650 350 15538.070312 350 15400 L 350 600 C 350 461.929688 461.929688 350 600 350 L 11400 350 C 11538.070312 350 11650 461.929688 11650 600 L 11650 15400 C 11650 15538.070312 11538.070312 15650 11400 15650 L 600 15650 "/>
<path style=" stroke:none;fill-rule:evenodd;fill:rgb(16.470588%,16.078431%,16.470588%);fill-opacity:1;" d="M 2437.9375 7763.675781 L 2838.296875 7527.636719 C 2874.890625 7506.058594 2897.351562 7466.746094 2897.351562 7424.265625 C 2897.351562 7366.960938 2856.835938 7317.65625 2800.625 7306.542969 L 1250 7000 L 1556.542969 8550.625 C 1567.65625 8606.835938 1616.960938 8647.351562 1674.265625 8647.351562 C 1716.746094 8647.351562 1756.058594 8624.890625 1777.636719 8588.296875 L 2013.675781 8187.9375 L 3474.265625 9648.527344 C 3586.785156 9761.050781 3650 9913.660156 3650 10072.792969 L 3650 14400 L 4250 14400 L 4250 5972.792969 C 4250 5654.53125 4123.570312 5349.308594 3898.527344 5124.265625 L 3337.9375 4563.675781 L 3738.296875 4327.636719 C 3774.890625 4306.058594 3797.351562 4266.746094 3797.351562 4224.265625 C 3797.351562 4166.960938 3756.835938 4117.65625 3700.625 4106.542969 L 2150 3800 L 2456.542969 5350.625 C 2467.65625 5406.835938 2516.960938 5447.351562 2574.265625 5447.351562 C 2616.746094 5447.351562 2656.058594 5424.890625 2677.636719 5388.296875 L 2913.675781 4987.9375 L 3474.265625 5548.527344 C 3586.785156 5661.050781 3650 5813.660156 3650 5972.792969 L 3650 8975.734375 L 2437.9375 7763.675781 "/>
<path style=" stroke:none;fill-rule:evenodd;fill:rgb(16.470588%,16.078431%,16.470588%);fill-opacity:1;" d="M 6600 2980 L 6150 3096.191406 C 6140.199219 3098.71875 6130.121094 3100 6120 3100 C 6053.726562 3100 6000 3046.273438 6000 2980 C 6000 2956.21875 6007.066406 2932.972656 6020.300781 2913.214844 L 6900 1600 L 7779.699219 2913.214844 C 7792.933594 2932.972656 7800 2956.21875 7800 2980 C 7800 3046.273438 7746.273438 3100 7680 3100 C 7669.878906 3100 7659.800781 3098.71875 7650 3096.191406 L 7200 2980 L 7200 14400 L 6600 14400 L 6600 2980 "/>
<path style=" stroke:none;fill-rule:evenodd;fill:rgb(16.470588%,16.078431%,16.470588%);fill-opacity:1;" d="M 9550 2980 L 9100 3096.191406 C 9090.199219 3098.71875 9080.121094 3100 9070 3100 C 9003.726562 3100 8950 3046.273438 8950 2980 C 8950 2956.21875 8957.066406 2932.972656 8970.300781 2913.214844 L 9850 1600 L 10729.699219 2913.214844 C 10742.933594 2932.972656 10750 2956.21875 10750 2980 C 10750 3046.273438 10696.273438 3100 10630 3100 C 10619.878906 3100 10609.800781 3098.71875 10600 3096.191406 L 10150 2980 L 10150 14400 L 9550 14400 L 9550 2980 "/>
</g>
</svg>
