<?xml version="1.0" encoding="UTF-8"?>
<svg xmlns="http://www.w3.org/2000/svg" xmlns:xlink="http://www.w3.org/1999/xlink" width="1200.000000mm" height="1600.000000mm" viewBox="0 0 12000 16000" version="1.1">
<g id="surface1371">
<path style="fill-rule:evenodd;fill:rgb(94.509804%,94.117647%,91.764706%);fill-opacity:1;stroke-width:0.3;stroke-linecap:butt;stroke-linejoin:miter;stroke:rgb(16.470588%,16.078431%,16.470588%);stroke-opacity:1;stroke-miterlimit:3;" d="M -540 -800 C -555.912891 -800 -571.174219 -793.678516 -582.426563 -782.426563 C -593.678516 -771.174219 -600 -755.912891 -600 -740 L -600 740 C -600 755.912891 -593.678516 771.174219 -582.426563 782.426563 C -571.174219 793.678516 -555.912891 800 -540 800 L 540 800 C 555.912891 800 571.174219 793.678516 582.426563 782.426563 C 593.678516 771.174219 600 755.912891 600 740 L 600 -740 C 600 -755.912891 593.678516 -771.174219 582.426563 -782.426563 C 571.174219 -793.678516 555.912891 -800 540 -800 L -540 -800 " transform="matrix(10,0,0,-10,6000,8000)"/>
<path style=" stroke:none;fill-rule:evenodd;fill:rgb(16.470588%,16.078431%,16.470588%);fill-opacity:1;" d="M 600 15850 C 480.652344 15850 366.191406 15802.589844 281.800781 15718.199219 C 197.410156 15633.808594 150 15519.347656 150 15400 L 150 600 C 150 480.652344 197.410156 366.191406 281.800781 281.800781 C 366.191406 197.410156 480.652344 150 600 150 L 11400 150 C 11519.347656 150 11633.808594 197.410156 11718.199219 281.800781 C 11802.589844 366.191406 11850 480.652344 11850 600 L 11850 15400 C 11850 15519.347656 11802.589844 15633.808594 11718.199219 15718.199219 C 11633.808594 15802.589844 11519.347656 15850 11400 15850 L 600 15850 M 600 15650 C 461.929688 15650 350 15538.070312 350 15400 L 350 600 C 350 461.929688 461.929688 350 600 350 L 11400 350 C 11538.070312 350 11650 461.929688 11650 600 L 11650 15400 C 11650 15538.070312 11538.070312 15650 11400 15650 L 600 15650 "/>
<path style=" stroke:none;fill-rule:evenodd;fill:rgb(16.470588%,16.078431%,16.470588%);fill-opacity:1;" d="M 2150 2980 L 2600 3096.191406 C 2609.800781 3098.71875 2619.878906 3100 2630 3100 C 2696.273438 3100 2750 3046.273438 2750 2980 C 2750 2956.21875 2742.933594 2932.972656 2729.699219 2913.214844 L 1850 1600 L 970.300781 2913.214844 C 957.066406 2932.972656 950 2956.21875 950 2980 C 950 3046.273438 1003.726562 3100 1070 3100 C 1080.121094 3100 1090.199219 3098.71875 1100 3096.191406 L 1550 2980 L 1550 14400 L 2150 14400 L 2150 2980 "/>
<path style=" stroke:none;fill-rule:evenodd;fill:rgb(16.470588%,16.078431%,16.470588%);fill-opacity:1;" d="M 4550 2980 L 5000 3096.191406 C 5009.800781 3098.71875 5019.878906 3100 5030 3100 C 5096.273438 3100 5150 3046.273438 5150 2980 C 5150 2956.21875 5142.933594 2932.972656 5129.699219 2913.214844 L 4250 1600 L 3370.300781 2913.214844 C 3357.066406 2932.972656 3350 2956.21875 3350 2980 C 3350 3046.273438 3403.726562 3100 3470 3100 C 3480.121094 3100 3490.199219 3098.71875 3500 3096.191406 L 3950 2980 L 3950 14400 L 4550 14400 L 4550 2980 "/>
<path style=" stroke:none;fill-rule:evenodd;fill:rgb(16.470588%,16.078431%,16.470588%);fill-opacity:1;" d="M 6950 2980 L 7400 3096.191406 C 7409.800781 3098.71875 7419.878906 3100 7430 3100 C 7496.273438 3100 7550 3046.273438 7550 2980 C 7550 2956.21875 7542.933594 2932.972656 7529.699219 2913.214844 L 6650 1600 L 5770.300781 2913.214844 C 5757.066406 2932.972656 5750 2956.21875 5750 2980 C 5750 3046.273438 5803.726562 3100 5870 3100 C 5880.121094 3100 5890.199219 3098.71875 5900 3096.191406 L 6350 2980 L 6350 14400 L 6950 14400 L 6950 2980 "/>
<path style=" stroke:none;fill-rule:evenodd;fill:rgb(16.470588%,16.078431%,16.470588%);fill-opacity:1;" d="M 9862.0625 5563.675781 L 9461.703125 5327.636719 C 9425.109375 5306.058594 9402.648438 5266.746094 9402.648438 5224.265625 C 9402.648438 5166.960938 9443.164062 5117.65625 9499.375 5106.542969 L 11050 4800 L 10743.457031 6350.625 C 10732.34375 6406.835938 10683.039062 6447.351562 10625.734375 6447.351562 C 10583.253906 6447.351562 10543.941406 6424.890625 10522.363281 6388.296875 L 10286.324219 5987.9375 L 9525.734375 6748.527344 C 9413.214844 6861.050781 9350 7013.660156 9350 7172.792969 L 9350 14400 L 8750 14400 L 8750 7172.792969 C 8750 6854.53125 8876.429688 6549.308594 9101.472656 6324.265625 L 9862.0625 5563.675781 "/>
</g>
</svg>
