<?xml version="1.0" encoding="UTF-8"?>
<svg xmlns="http://www.w3.org/2000/svg" xmlns:xlink="http://www.w3.org/1999/xlink" width="1200.000000mm" height="1600.000000mm" viewBox="0 0 12000 16000" version="1.1">
<g id="surface1361">
<path style="fill-rule:evenodd;fill:rgb(94.509804%,94.117647%,91.764706%);fill-opacity:1;stroke-width:0.3;stroke-linecap:butt;stroke-linejoin:miter;stroke:rgb(16.470588%,16.078431%,16.470588%);stroke-opacity:1;stroke-miterlimit:3;" d="M -540 -800 C -555.912891 -800 -571.174219 -793.678516 -582.426563 -782.426563 C -593.678516 -771.174219 -600 -755.912891 -600 -740 L -600 740 C -600 755.912891 -593.678516 771.174219 -582.426563 782.426563 C -571.174219 793.678516 -555.912891 800 -540 800 L 540 800 C 555.912891 800 571.174219 793.678516 582.426563 782.426563 C 593.678516 771.174219 600 755.912891 600 740 L 600 -740 C 600 -755.912891 593.678516 -771.174219 582.426563 -782.426563 C 571.174219 -793.678516 555.912891 -800 540 -800 L -540 -800 " transform="matrix(10,0,0,-10,6000,8000)"/>
<path style=" stroke:none;fill-rule:evenodd;fill:rgb(16.470588%,16.078431%,16.470588%);fill-opacity:1;" d="M 600 15850 C 480.652344 15850 366.191406 15802.589844 281.800781 15718.199219 C 197.410156 15633.808594 150 15519.347656 150 15400 L 150 600 C 150 480.652344 197.410156 366.191406 281.800781 281.800781 C 366.191406 197.410156 480.652344 150 600 150 L 11400 150 C 11519.347656 150 11633.808594 197.410156 11718.199219 281.800781 C 11802.589844 366.191406 11850 480.652344 11850 600 L 11850 15400 C 11850 15519.347656 11802.589844 15633.808594 11718.199219 15718.199219 C 11633.808594 15802.589844 11519.347656 15850 11400 15850 L 600 15850 M 600 15650 C 461.929688 15650 350 15538.070312 350 15400 L 350 600 C 350 461.929688 461.929688 350 600 350 L 11400 350 C 11538.070312 350 11650 461.929688 11650 600 L 11650 15400 C 11650 15538.070312 11538.070312 15650 11400 15650 L 600 15650 "/>
<path style=" stroke:none;fill-rule:evenodd;fill:rgb(16.470588%,16.078431%,16.470588%);fill-opacity:1;" d="M 4300 2980 L 4750 3096.191406 C 4759.800781 3098.71875 4769.878906 3100 4780 3100 C 4846.273438 3100 4900 3046.273438 4900 2980 C 4900 2956.21875 4892.933594 2932.972656 4879.699219 2913.214844 L 4000 1600 L 3120.300781 2913.214844 C 3107.066406 2932.972656 3100 2956.21875 3100 2980 C 3100 3046.273438 3153.726562 3100 3220 3100 C 3230.121094 3100 3240.199219 3098.71875 3250 3096.191406 L 3700 2980 L 3700 14400 L 4300 14400 L 4300 2980 "/>
<path style=" stroke:none;fill-rule:evenodd;fill:rgb(16.470588%,16.078431%,16.470588%);fill-opacity:1;" d="M 8612.0625 5563.675781 L 8211.703125 5327.636719 C 8175.109375 5306.058594 8152.648438 5266.746094 8152.648438 5224.265625 C 8152.648438 5166.960938 8193.164062 5117.65625 8249.375 5106.542969 L 9800 4800 L 9493.457031 6350.625 C 9482.34375 6406.835938 9433.039062 6447.351562 9375.734375 6447.351562 C 9333.253906 6447.351562 9293.941406 6424.890625 9272.363281 6388.296875 L 9036.324219 5987.9375 L 7575.734375 7448.527344 C 7463.214844 7561.050781 7400 7713.660156 7400 7872.792969 L 7400 14400 L 6800 14400 L 6800 7872.792969 C 6800 7554.53125 6926.429688 7249.308594 7151.472656 7024.265625 L 8612.0625 5563.675781 "/>
</g>
</svg>
