<?xml version="1.0" encoding="UTF-8"?>
<svg xmlns="http://www.w3.org/2000/svg" xmlns:xlink="http://www.w3.org/1999/xlink" width="1200.000000mm" height="1600.000000mm" viewBox="0 0 12000 16000" version="1.1">
<g id="surface1386">
<path style="fill-rule:evenodd;fill:rgb(94.509804%,94.117647%,91.764706%);fill-opacity:1;stroke-width:0.3;stroke-linecap:butt;stroke-linejoin:miter;stroke:rgb(16.470588%,16.078431%,16.470588%);stroke-opacity:1;stroke-miterlimit:3;" d="M -540 -800 C -555.912891 -800 -571.174219 -793.678516 -582.426563 -782.426563 C -593.678516 -771.174219 -600 -755.912891 -600 -740 L -600 740 C -600 755.912891 -593.678516 771.174219 -582.426563 782.426563 C -571.174219 793.678516 -555.912891 800 -540 800 L 540 800 C 555.912891 800 571.174219 793.678516 582.426563 782.426563 C 593.678516 771.174219 600 755.912891 600 740 L 600 -740 C 600 -755.912891 593.678516 -771.174219 582.426563 -782.426563 C 571.174219 -793.678516 555.912891 -800 540 -800 L -540 -800 " transform="matrix(10,0,0,-10,6000,8000)"/>
<path style=" stroke:none;fill-rule:evenodd;fill:rgb(16.470588%,16.078431%,16.470588%);fill-opacity:1;" d="M 600 15850 C 480.652344 15850 366.191406 15802.589844 281.800781 15718.199219 C 197.410156 15633.808594 150 15519.347656 150 15400 L 150 600 C 150 480.652344 197.410156 366.191406 281.800781 281.800781 C 366.191406 197.410156 480.652344 150 600 150 L 11400 150 C 11519.347656 150 11633.808594 197.410156 11718.199219 281.800781 C 11802.589844 366.191406 11850 480.652344 11850 600 L 11850 15400 C 11850 15519.347656 11802.589844 15633.808594 11718.199219 15718.199219 C 11633.808594 15802.589844 11519.347656 15850 11400 15850 L 600 15850 M 600 15650 C 461.929688 15650 350 15538.070312 350 15400 L 350 600 C 350 461.929688 461.929688 350 600 350 L 11400 350 C 11538.070312 350 11650 461.929688 11650 600 L 11650 15400 C 11650 15538.070312 11538.070312 15650 11400 15650 L 600 15650 "/>
<path style=" stroke:none;fill-rule:evenodd;fill:rgb(16.470588%,16.078431%,16.470588%);fill-opacity:1;" d="M 3850 2980 L 4300 3096.191406 C 4309.800781 3098.71875 4319.878906 3100 4330 3100 C 4396.273438 3100 4450 3046.273438 4450 2980 C 4450 2956.21875 4442.933594 2932.972656 4429.699219 2913.214844 L 3550 1600 L 2670.300781 2913.214844 C 2657.066406 2932.972656 2650 2956.21875 2650 2980 C 2650 3046.273438 2703.726562 3100 2770 3100 C 2780.121094 3100 2790.199219 3098.71875 2800 3096.191406 L 3250 2980 L 3250 14400 L 3850 14400 L 3850 2980 "/>
<path style=" stroke:none;fill-rule:evenodd;fill:rgb(16.470588%,16.078431%,16.470588%);fill-opacity:1;" d="M 8162.0625 7763.675781 L 7761.703125 7527.636719 C 7725.109375 7506.058594 7702.648438 7466.746094 7702.648438 7424.265625 C 7702.648438 7366.960938 7743.164062 7317.65625 7799.375 7306.542969 L 9350 7000 L 9043.457031 8550.625 C 9032.34375 8606.835938 8983.039062 8647.351562 8925.734375 8647.351562 C 8883.253906 8647.351562 8843.941406 8624.890625 8822.363281 8588.296875 L 8586.324219 8187.9375 L 7125.734375 9648.527344 C 7013.214844 9761.050781 6950 9913.660156 6950 10072.792969 L 6950 14400 L 6350 14400 L 6350 5972.792969 C 6350 5654.53125 6476.429688 5349.308594 6701.472656 5124.265625 L 7262.0625 4563.675781 L 6861.703125 4327.636719 C 6825.109375 4306.058594 6802.648438 4266.746094 6802.648438 4224.265625 C 6802.648438 4166.960938 6843.164062 4117.65625 6899.375 4106.542969 L 8450 3800 L 8143.457031 5350.625 C 8132.34375 5406.835938 8083.039062 5447.351562 8025.734375 5447.351562 C 7983.253906 5447.351562 7943.941406 5424.890625 7922.363281 5388.296875 L 7686.324219 4987.9375 L 7125.734375 5548.527344 C 7013.214844 5661.050781 6950 5813.660156 6950 5972.792969 L 6950 8975.734375 L 8162.0625 7763.675781 "/>
</g>
</svg>
