<?xml version="1.0" encoding="UTF-8"?>
<svg xmlns="http://www.w3.org/2000/svg" xmlns:xlink="http://www.w3.org/1999/xlink" width="1200.000000mm" height="1600.000000mm" viewBox="0 0 12000 16000" version="1.1">
<g id="surface1391">
<path style="fill-rule:evenodd;fill:rgb(94.509804%,94.117647%,91.764706%);fill-opacity:1;stroke-width:0.3;stroke-linecap:butt;stroke-linejoin:miter;stroke:rgb(16.470588%,16.078431%,16.470588%);stroke-opacity:1;stroke-miterlimit:3;" d="M -540 -800 C -555.912891 -800 -571.174219 -793.678516 -582.426563 -782.426563 C -593.678516 -771.174219 -600 -755.912891 -600 -740 L -600 740 C -600 755.912891 -593.678516 771.174219 -582.426563 782.426563 C -571.174219 793.678516 -555.912891 800 -540 800 L 540 800 C 555.912891 800 571.174219 793.678516 582.426563 782.426563 C 593.678516 771.174219 600 755.912891 600 740 L 600 -740 C 600 -755.912891 593.678516 -771.174219 582.426563 -782.426563 C 571.174219 -793.678516 555.912891 -800 540 -800 L -540 -800 " transform="matrix(10,0,0,-10,6000,8000)"/>
<path style=" stroke:none;fill-rule:evenodd;fill:rgb(16.470588%,16.078431%,16.470588%);fill-opacity:1;" d="M 600 15850 C 480.652344 15850 366.191406 15802.589844 281.800781 15718.199219 C 197.410156 15633.808594 150 15519.347656 150 15400 L 150 600 C 150 480.652344 197.410156 366.191406 281.800781 281.800781 C 366.191406 197.410156 480.652344 150 600 150 L 11400 150 C 11519.347656 150 11633.808594 197.410156 11718.199219 281.800781 C 11802.589844 366.191406 11850 480.652344 11850 600 L 11850 15400 C 11850 15519.347656 11802.589844 15633.808594 11718.199219 15718.199219 C 11633.808594 15802.589844 11519.347656 15850 11400 15850 L 600 15850 M 600 15650 C 461.929688 15650 350 15538.070312 350 15400 L 350 600 C 350 461.929688 461.929688 350 600 350 L 11400 350 C 11538.070312 350 11650 461.929688 11650 600 L 11650 15400 C 11650 15538.070312 11538.070312 15650 11400 15650 L 600 15650 "/>
<path style=" stroke:none;fill-rule:evenodd;fill:rgb(16.470588%,16.078431%,16.470588%);fill-opacity:1;" d="M 2450 2980 L 2900 3096.191406 C 2909.800781 3098.71875 2919.878906 3100 2930 3100 C 2996.273438 3100 3050 3046.273438 3050 2980 C 3050 2956.21875 3042.933594 2932.972656 3029.699219 2913.214844 L 2150 1600 L 1270.300781 2913.214844 C 1257.066406 2932.972656 1250 2956.21875 1250 2980 C 1250 3046.273438 1303.726562 3100 1370 3100 C 1380.121094 3100 1390.199219 3098.71875 1400 3096.191406 L 1850 2980 L 1850 14400 L 2450 14400 L 2450 2980 "/>
<path style=" stroke:none;fill-rule:evenodd;fill:rgb(16.470588%,16.078431%,16.470588%);fill-opacity:1;" d="M 5400 2980 L 5850 3096.191406 C 5859.800781 3098.71875 5869.878906 3100 5880 3100 C 5946.273438 3100 6000 3046.273438 6000 2980 C 6000 2956.21875 5992.933594 2932.972656 5979.699219 2913.214844 L 5100 1600 L 4220.300781 2913.214844 C 4207.066406 2932.972656 4200 2956.21875 4200 2980 C 4200 3046.273438 4253.726562 3100 4320 3100 C 4330.121094 3100 4340.199219 3098.71875 4350 3096.191406 L 4800 2980 L 4800 14400 L 5400 14400 L 5400 2980 "/>
<path style=" stroke:none;fill-rule:evenodd;fill:rgb(16.470588%,16.078431%,16.470588%);fill-opacity:1;" d="M 9562.0625 7763.675781 L 9161.703125 7527.636719 C 9125.109375 7506.058594 9102.648438 7466.746094 9102.648438 7424.265625 C 9102.648438 7366.960938 9143.164062 7317.65625 9199.375 7306.542969 L 10750 7000 L 10443.457031 8550.625 C 10432.34375 8606.835938 10383.039062 8647.351562 10325.734375 8647.351562 C 10283.253906 8647.351562 10243.941406 8624.890625 10222.363281 8588.296875 L 9986.324219 8187.9375 L 8525.734375 9648.527344 C 8413.214844 9761.050781 8350 9913.660156 8350 10072.792969 L 8350 14400 L 7750 14400 L 7750 5972.792969 C 7750 5654.53125 7876.429688 5349.308594 8101.472656 5124.265625 L 8662.0625 4563.675781 L 8261.703125 4327.636719 C 8225.109375 4306.058594 8202.648438 4266.746094 8202.648438 4224.265625 C 8202.648438 4166.960938 8243.164062 4117.65625 8299.375 4106.542969 L 9850 3800 L 9543.457031 5350.625 C 9532.34375 5406.835938 9483.039062 5447.351562 9425.734375 5447.351562 C 9383.253906 5447.351562 9343.941406 5424.890625 9322.363281 5388.296875 L 9086.324219 4987.9375 L 8525.734375 5548.527344 C 8413.214844 5661.050781 8350 5813.660156 8350 5972.792969 L 8350 8975.734375 L 9562.0625 7763.675781 "/>
</g>
</svg>
