<?xml version="1.0" encoding="UTF-8"?>
<svg xmlns="http://www.w3.org/2000/svg" xmlns:xlink="http://www.w3.org/1999/xlink" width="1200.000000mm" height="1600.000000mm" viewBox="0 0 12000 16000" version="1.1">
<g id="surface1351">
<path style="fill-rule:evenodd;fill:rgb(94.509804%,94.117647%,91.764706%);fill-opacity:1;stroke-width:0.3;stroke-linecap:butt;stroke-linejoin:miter;stroke:rgb(16.470588%,16.078431%,16.470588%);stroke-opacity:1;stroke-miterlimit:3;" d="M -540 -800 C -555.912891 -800 -571.174219 -793.678516 -582.426563 -782.426563 C -593.678516 -771.174219 -600 -755.912891 -600 -740 L -600 740 C -600 755.912891 -593.678516 771.174219 -582.426563 782.426563 C -571.174219 793.678516 -555.912891 800 -540 800 L 540 800 C 555.912891 800 571.174219 793.678516 582.426563 782.426563 C 593.678516 771.174219 600 755.912891 600 740 L 600 -740 C 600 -755.912891 593.678516 -771.174219 582.426563 -782.426563 C 571.174219 -793.678516 555.912891 -800 540 -800 L -540 -800 " transform="matrix(10,0,0,-10,6000,8000)"/>
<path style=" stroke:none;fill-rule:evenodd;fill:rgb(16.470588%,16.078431%,16.470588%);fill-opacity:1;" d="M 600 15850 C 480.652344 15850 366.191406 15802.589844 281.800781 15718.199219 C 197.410156 15633.808594 150 15519.347656 150 15400 L 150 600 C 150 480.652344 197.410156 366.191406 281.800781 281.800781 C 366.191406 197.410156 480.652344 150 600 150 L 11400 150 C 11519.347656 150 11633.808594 197.410156 11718.199219 281.800781 C 11802.589844 366.191406 11850 480.652344 11850 600 L 11850 15400 C 11850 15519.347656 11802.589844 15633.808594 11718.199219 15718.199219 C 11633.808594 15802.589844 11519.347656 15850 11400 15850 L 600 15850 M 600 15650 C 461.929688 15650 350 15538.070312 350 15400 L 350 600 C 350 461.929688 461.929688 350 600 350 L 11400 350 C 11538.070312 350 11650 461.929688 11650 600 L 11650 15400 C 11650 15538.070312 11538.070312 15650 11400 15650 L 600 15650 "/>
<path style=" stroke:none;fill-rule:evenodd;fill:rgb(16.470588%,16.078431%,16.470588%);fill-opacity:1;" d="M 3837.9375 7763.675781 L 4238.296875 7527.636719 C 4274.890625 7506.058594 4297.351562 7466.746094 4297.351562 7424.265625 C 4297.351562 7366.960938 4256.835938 7317.65625 4200.625 7306.542969 L 2650 7000 L 2956.542969 8550.625 C 2967.65625 8606.835938 3016.960938 8647.351562 3074.265625 8647.351562 C 3116.746094 8647.351562 3156.058594 8624.890625 3177.636719 8588.296875 L 3413.675781 8187.9375 L 4874.265625 9648.527344 C 4986.785156 9761.050781 5050 9913.660156 5050 10072.792969 L 5050 14400 L 5650 14400 L 5650 5972.792969 C 5650 5654.53125 5523.570312 5349.308594 5298.527344 5124.265625 L 4737.9375 4563.675781 L 5138.296875 4327.636719 C 5174.890625 4306.058594 5197.351562 4266.746094 5197.351562 4224.265625 C 5197.351562 4166.960938 5156.835938 4117.65625 5100.625 4106.542969 L 3550 3800 L 3856.542969 5350.625 C 3867.65625 5406.835938 3916.960938 5447.351562 3974.265625 5447.351562 C 4016.746094 5447.351562 4056.058594 5424.890625 4077.636719 5388.296875 L 4313.675781 4987.9375 L 4874.265625 5548.527344 C 4986.785156 5661.050781 5050 5813.660156 5050 5972.792969 L 5050 8975.734375 L 3837.9375 7763.675781 "/>
<path style=" stroke:none;fill-rule:evenodd;fill:rgb(16.470588%,16.078431%,16.470588%);fill-opacity:1;" d="M 8150 2980 L 7700 3096.191406 C 7690.199219 3098.71875 7680.121094 3100 7670 3100 C 7603.726562 3100 7550 3046.273438 7550 2980 C 7550 2956.21875 7557.066406 2932.972656 7570.300781 2913.214844 L 8450 1600 L 9329.699219 2913.214844 C 9342.933594 2932.972656 9350 2956.21875 9350 2980 C 9350 3046.273438 9296.273438 3100 9230 3100 C 9219.878906 3100 9209.800781 3098.71875 9200 3096.191406 L 8750 2980 L 8750 14400 L 8150 14400 L 8150 2980 "/>
</g>
</svg>
