<?xml version="1.0" encoding="UTF-8"?>
<svg xmlns="http://www.w3.org/2000/svg" xmlns:xlink="http://www.w3.org/1999/xlink" width="1200.000000mm" height="1600.000000mm" viewBox="0 0 12000 16000" version="1.1">
<g id="surface1401">
<path style="fill-rule:evenodd;fill:rgb(94.509804%,94.117647%,91.764706%);fill-opacity:1;stroke-width:0.3;stroke-linecap:butt;stroke-linejoin:miter;stroke:rgb(16.470588%,16.078431%,16.470588%);stroke-opacity:1;stroke-miterlimit:3;" d="M -540 -800 C -555.912891 -800 -571.174219 -793.678516 -582.426563 -782.426563 C -593.678516 -771.174219 -600 -755.912891 -600 -740 L -600 740 C -600 755.912891 -593.678516 771.174219 -582.426563 782.426563 C -571.174219 793.678516 -555.912891 800 -540 800 L 540 800 C 555.912891 800 571.174219 793.678516 582.426563 782.426563 C 593.678516 771.174219 600 755.912891 600 740 L 600 -740 C 600 -755.912891 593.678516 -771.174219 582.426563 -782.426563 C 571.174219 -793.678516 555.912891 -800 540 -800 L -540 -800 " transform="matrix(10,0,0,-10,6000,8000)"/>
<path style=" stroke:none;fill-rule:evenodd;fill:rgb(16.470588%,16.078431%,16.470588%);fill-opacity:1;" d="M 600 15850 C 480.652344 15850 366.191406 15802.589844 281.800781 15718.199219 C 197.410156 15633.808594 150 15519.347656 150 15400 L 150 600 C 150 480.652344 197.410156 366.191406 281.800781 281.800781 C 366.191406 197.410156 480.652344 150 600 150 L 11400 150 C 11519.347656 150 11633.808594 197.410156 11718.199219 281.800781 C 11802.589844 366.191406 11850 480.652344 11850 600 L 11850 15400 C 11850 15519.347656 11802.589844 15633.808594 11718.199219 15718.199219 C 11633.808594 15802.589844 11519.347656 15850 11400 15850 L 600 15850 M 600 15650 C 461.929688 15650 350 15538.070312 350 15400 L 350 600 C 350 461.929688 461.929688 350 600 350 L 11400 350 C 11538.070312 350 11650 461.929688 11650 600 L 11650 15400 C 11650 15538.070312 11538.070312 15650 11400 15650 L 600 15650 "/>
<path style=" stroke:none;fill-rule:evenodd;fill:rgb(16.470588%,16.078431%,16.470588%);fill-opacity:1;" d="M 1937.9375 5563.675781 L 2338.296875 5327.636719 C 2374.890625 5306.058594 2397.351562 5266.746094 2397.351562 5224.265625 C 2397.351562 5166.960938 2356.835938 5117.65625 2300.625 5106.542969 L 750 4800 L 1056.542969 6350.625 C 1067.65625 6406.835938 1116.960938 6447.351562 1174.265625 6447.351562 C 1216.746094 6447.351562 1256.058594 6424.890625 1277.636719 6388.296875 L 1513.675781 5987.9375 L 2374.265625 6848.527344 C 2486.785156 6961.050781 2550 7113.660156 2550 7272.792969 L 2550 14400 L 3150 14400 L 3150 7272.792969 C 3150 6954.53125 3023.570312 6649.308594 2798.527344 6424.265625 L 1937.9375 5563.675781 "/>
<path style=" stroke:none;fill-rule:evenodd;fill:rgb(16.470588%,16.078431%,16.470588%);fill-opacity:1;" d="M 5250 2980 L 5700 3096.191406 C 5709.800781 3098.71875 5719.878906 3100 5730 3100 C 5796.273438 3100 5850 3046.273438 5850 2980 C 5850 2956.21875 5842.933594 2932.972656 5829.699219 2913.214844 L 4950 1600 L 4070.300781 2913.214844 C 4057.066406 2932.972656 4050 2956.21875 4050 2980 C 4050 3046.273438 4103.726562 3100 4170 3100 C 4180.121094 3100 4190.199219 3098.71875 4200 3096.191406 L 4650 2980 L 4650 14400 L 5250 14400 L 5250 2980 "/>
<path style=" stroke:none;fill-rule:evenodd;fill:rgb(16.470588%,16.078431%,16.470588%);fill-opacity:1;" d="M 7350 2980 L 7800 3096.191406 C 7809.800781 3098.71875 7819.878906 3100 7830 3100 C 7896.273438 3100 7950 3046.273438 7950 2980 C 7950 2956.21875 7942.933594 2932.972656 7929.699219 2913.214844 L 7050 1600 L 6170.300781 2913.214844 C 6157.066406 2932.972656 6150 2956.21875 6150 2980 C 6150 3046.273438 6203.726562 3100 6270 3100 C 6280.121094 3100 6290.199219 3098.71875 6300 3096.191406 L 6750 2980 L 6750 14400 L 7350 14400 L 7350 2980 "/>
<path style=" stroke:none;fill-rule:evenodd;fill:rgb(16.470588%,16.078431%,16.470588%);fill-opacity:1;" d="M 10062.0625 5563.675781 L 9661.703125 5327.636719 C 9625.109375 5306.058594 9602.648438 5266.746094 9602.648438 5224.265625 C 9602.648438 5166.960938 9643.164062 5117.65625 9699.375 5106.542969 L 11250 4800 L 10943.457031 6350.625 C 10932.34375 6406.835938 10883.039062 6447.351562 10825.734375 6447.351562 C 10783.253906 6447.351562 10743.941406 6424.890625 10722.363281 6388.296875 L 10486.324219 5987.9375 L 9625.734375 6848.527344 C 9513.214844 6961.050781 9450 7113.660156 9450 7272.792969 L 9450 14400 L 8850 14400 L 8850 7272.792969 C 8850 6954.53125 8976.429688 6649.308594 9201.472656 6424.265625 L 10062.0625 5563.675781 "/>
</g>
</svg>
