<?xml version="1.0" encoding="UTF-8"?>
<svg xmlns="http://www.w3.org/2000/svg" xmlns:xlink="http://www.w3.org/1999/xlink" width="1200.000000mm" height="1600.000000mm" viewBox="0 0 12000 16000" version="1.1">
<g id="surface1336">
<path style="fill-rule:evenodd;fill:rgb(94.509804%,94.117647%,91.764706%);fill-opacity:1;stroke-width:0.3;stroke-linecap:butt;stroke-linejoin:miter;stroke:rgb(16.470588%,16.078431%,16.470588%);stroke-opacity:1;stroke-miterlimit:3;" d="M -540 -800 C -555.912891 -800 -571.174219 -793.678516 -582.426563 -782.426563 C -593.678516 -771.174219 -600 -755.912891 -600 -740 L -600 740 C -600 755.912891 -593.678516 771.174219 -582.426563 782.426563 C -571.174219 793.678516 -555.912891 800 -540 800 L 540 800 C 555.912891 800 571.174219 793.678516 582.426563 782.426563 C 593.678516 771.174219 600 755.912891 600 740 L 600 -740 C 600 -755.912891 593.678516 -771.174219 582.426563 -782.426563 C 571.174219 -793.678516 555.912891 -800 540 -800 L -540 -800 " transform="matrix(10,0,0,-10,6000,8000)"/>
<path style=" stroke:none;fill-rule:evenodd;fill:rgb(16.470588%,16.078431%,16.470588%);fill-opacity:1;" d="M 600 15850 C 480.652344 15850 366.191406 15802.589844 281.800781 15718.199219 C 197.410156 15633.808594 150 15519.347656 150 15400 L 150 600 C 150 480.652344 197.410156 366.191406 281.800781 281.800781 C 366.191406 197.410156 480.652344 150 600 150 L 11400 150 C 11519.347656 150 11633.808594 197.410156 11718.199219 281.800781 C 11802.589844 366.191406 11850 480.652344 11850 600 L 11850 15400 C 11850 15519.347656 11802.589844 15633.808594 11718.199219 15718.199219 C 11633.808594 15802.589844 11519.347656 15850 11400 15850 L 600 15850 M 600 15650 C 461.929688 15650 350 15538.070312 350 15400 L 350 600 C 350 461.929688 461.929688 350 600 350 L 11400 350 C 11538.070312 350 11650 461.929688 11650 600 L 11650 15400 C 11650 15538.070312 11538.070312 15650 11400 15650 L 600 15650 "/>
<path style=" stroke:none;fill-rule:evenodd;fill:rgb(16.470588%,16.078431%,16.470588%);fill-opacity:1;" d="M 2137.9375 5563.675781 L 2538.296875 5327.636719 C 2574.890625 5306.058594 2597.351562 5266.746094 2597.351562 5224.265625 C 2597.351562 5166.960938 2556.835938 5117.65625 2500.625 5106.542969 L 950 4800 L 1256.542969 6350.625 C 1267.65625 6406.835938 1316.960938 6447.351562 1374.265625 6447.351562 C 1416.746094 6447.351562 1456.058594 6424.890625 1477.636719 6388.296875 L 1713.675781 5987.9375 L 2474.265625 6748.527344 C 2586.785156 6861.050781 2650 7013.660156 2650 7172.792969 L 2650 14400 L 3250 14400 L 3250 7172.792969 C 3250 6854.53125 3123.570312 6549.308594 2898.527344 6324.265625 L 2137.9375 5563.675781 "/>
<path style=" stroke:none;fill-rule:evenodd;fill:rgb(16.470588%,16.078431%,16.470588%);fill-opacity:1;" d="M 5650 2980 L 6100 3096.191406 C 6109.800781 3098.71875 6119.878906 3100 6130 3100 C 6196.273438 3100 6250 3046.273438 6250 2980 C 6250 2956.21875 6242.933594 2932.972656 6229.699219 2913.214844 L 5350 1600 L 4470.300781 2913.214844 C 4457.066406 2932.972656 4450 2956.21875 4450 2980 C 4450 3046.273438 4503.726562 3100 4570 3100 C 4580.121094 3100 4590.199219 3098.71875 4600 3096.191406 L 5050 2980 L 5050 14400 L 5650 14400 L 5650 2980 "/>
<path style=" stroke:none;fill-rule:evenodd;fill:rgb(16.470588%,16.078431%,16.470588%);fill-opacity:1;" d="M 8050 2980 L 8500 3096.191406 C 8509.800781 3098.71875 8519.878906 3100 8530 3100 C 8596.273438 3100 8650 3046.273438 8650 2980 C 8650 2956.21875 8642.933594 2932.972656 8629.699219 2913.214844 L 7750 1600 L 6870.300781 2913.214844 C 6857.066406 2932.972656 6850 2956.21875 6850 2980 C 6850 3046.273438 6903.726562 3100 6970 3100 C 6980.121094 3100 6990.199219 3098.71875 7000 3096.191406 L 7450 2980 L 7450 14400 L 8050 14400 L 8050 2980 "/>
<path style=" stroke:none;fill-rule:evenodd;fill:rgb(16.470588%,16.078431%,16.470588%);fill-opacity:1;" d="M 10450 2980 L 10900 3096.191406 C 10909.800781 3098.71875 10919.878906 3100 10930 3100 C 10996.273438 3100 11050 3046.273438 11050 2980 C 11050 2956.21875 11042.933594 2932.972656 11029.699219 2913.214844 L 10150 1600 L 9270.300781 2913.214844 C 9257.066406 2932.972656 9250 2956.21875 9250 2980 C 9250 3046.273438 9303.726562 3100 9370 3100 C 9380.121094 3100 9390.199219 3098.71875 9400 3096.191406 L 9850 2980 L 9850 14400 L 10450 14400 L 10450 2980 "/>
</g>
</svg>
