<?xml version="1.0" encoding="UTF-8"?>
<svg xmlns="http://www.w3.org/2000/svg" xmlns:xlink="http://www.w3.org/1999/xlink" width="1200.000000mm" height="1600.000000mm" viewBox="0 0 12000 16000" version="1.1">
<g id="surface1431">
<path style="fill-rule:evenodd;fill:rgb(94.509804%,94.117647%,91.764706%);fill-opacity:1;stroke-width:0.3;stroke-linecap:butt;stroke-linejoin:miter;stroke:rgb(16.470588%,16.078431%,16.470588%);stroke-opacity:1;stroke-miterlimit:3;" d="M -540 -800 C -555.912891 -800 -571.174219 -793.678516 -582.426563 -782.426563 C -593.678516 -771.174219 -600 -755.912891 -600 -740 L -600 740 C -600 755.912891 -593.678516 771.174219 -582.426563 782.426563 C -571.174219 793.678516 -555.912891 800 -540 800 L 540 800 C 555.912891 800 571.174219 793.678516 582.426563 782.426563 C 593.678516 771.174219 600 755.912891 600 740 L 600 -740 C 600 -755.912891 593.678516 -771.174219 582.426563 -782.426563 C 571.174219 -793.678516 555.912891 -800 540 -800 L -540 -800 " transform="matrix(10,0,0,-10,6000,8000)"/>
<path style=" stroke:none;fill-rule:evenodd;fill:rgb(16.470588%,16.078431%,16.470588%);fill-opacity:1;" d="M 600 15850 C 480.652344 15850 366.191406 15802.589844 281.800781 15718.199219 C 197.410156 15633.808594 150 15519.347656 150 15400 L 150 600 C 150 480.652344 197.410156 366.191406 281.800781 281.800781 C 366.191406 197.410156 480.652344 150 600 150 L 11400 150 C 11519.347656 150 11633.808594 197.410156 11718.199219 281.800781 C 11802.589844 366.191406 11850 480.652344 11850 600 L 11850 15400 C 11850 15519.347656 11802.589844 15633.808594 11718.199219 15718.199219 C 11633.808594 15802.589844 11519.347656 15850 11400 15850 L 600 15850 M 600 15650 C 461.929688 15650 350 15538.070312 350 15400 L 350 600 C 350 461.929688 461.929688 350 600 350 L 11400 350 C 11538.070312 350 11650 461.929688 11650 600 L 11650 15400 C 11650 15538.070312 11538.070312 15650 11400 15650 L 600 15650 "/>
<path style=" stroke:none;fill-rule:evenodd;fill:rgb(16.470588%,16.078431%,16.470588%);fill-opacity:1;" d="M 2087.9375 7763.675781 L 2488.296875 7527.636719 C 2524.890625 7506.058594 2547.351562 7466.746094 2547.351562 7424.265625 C 2547.351562 7366.960938 2506.835938 7317.65625 2450.625 7306.542969 L 900 7000 L 1206.542969 8550.625 C 1217.65625 8606.835938 1266.960938 8647.351562 1324.265625 8647.351562 C 1366.746094 8647.351562 1406.058594 8624.890625 1427.636719 8588.296875 L 1663.675781 8187.9375 L 3124.265625 9648.527344 C 3236.785156 9761.050781 3300 9913.660156 3300 10072.792969 L 3300 14400 L 3900 14400 L 3900 5972.792969 C 3900 5654.53125 3773.570312 5349.308594 3548.527344 5124.265625 L 2987.9375 4563.675781 L 3388.296875 4327.636719 C 3424.890625 4306.058594 3447.351562 4266.746094 3447.351562 4224.265625 C 3447.351562 4166.960938 3406.835938 4117.65625 3350.625 4106.542969 L 1800 3800 L 2106.542969 5350.625 C 2117.65625 5406.835938 2166.960938 5447.351562 2224.265625 5447.351562 C 2266.746094 5447.351562 2306.058594 5424.890625 2327.636719 5388.296875 L 2563.675781 4987.9375 L 3124.265625 5548.527344 C 3236.785156 5661.050781 3300 5813.660156 3300 5972.792969 L 3300 8975.734375 L 2087.9375 7763.675781 "/>
<path style=" stroke:none;fill-rule:evenodd;fill:rgb(16.470588%,16.078431%,16.470588%);fill-opacity:1;" d="M 5700 2980 L 5250 3096.191406 C 5240.199219 3098.71875 5230.121094 3100 5220 3100 C 5153.726562 3100 5100 3046.273438 5100 2980 C 5100 2956.21875 5107.066406 2932.972656 5120.300781 2913.214844 L 6000 1600 L 6879.699219 2913.214844 C 6892.933594 2932.972656 6900 2956.21875 6900 2980 C 6900 3046.273438 6846.273438 3100 6780 3100 C 6769.878906 3100 6759.800781 3098.71875 6750 3096.191406 L 6300 2980 L 6300 14400 L 5700 14400 L 5700 2980 "/>
<path style=" stroke:none;fill-rule:evenodd;fill:rgb(16.470588%,16.078431%,16.470588%);fill-opacity:1;" d="M 9912.0625 7763.675781 L 9511.703125 7527.636719 C 9475.109375 7506.058594 9452.648438 7466.746094 9452.648438 7424.265625 C 9452.648438 7366.960938 9493.164062 7317.65625 9549.375 7306.542969 L 11100 7000 L 10793.457031 8550.625 C 10782.34375 8606.835938 10733.039062 8647.351562 10675.734375 8647.351562 C 10633.253906 8647.351562 10593.941406 8624.890625 10572.363281 8588.296875 L 10336.324219 8187.9375 L 8875.734375 9648.527344 C 8763.214844 9761.050781 8700 9913.660156 8700 10072.792969 L 8700 14400 L 8100 14400 L 8100 2980 L 7650 3096.191406 C 7640.199219 3098.71875 7630.121094 3100 7620 3100 C 7553.726562 3100 7500 3046.273438 7500 2980 C 7500 2956.21875 7507.066406 2932.972656 7520.300781 2913.214844 L 8400 1600 L 9279.699219 2913.214844 C 9292.933594 2932.972656 9300 2956.21875 9300 2980 C 9300 3046.273438 9246.273438 3100 9180 3100 C 9169.878906 3100 9159.800781 3098.71875 9150 3096.191406 L 8700 2980 L 8700 8975.734375 L 9912.0625 7763.675781 "/>
</g>
</svg>
