<?xml version="1.0" encoding="UTF-8"?>
<svg xmlns="http://www.w3.org/2000/svg" xmlns:xlink="http://www.w3.org/1999/xlink" width="1200.000000mm" height="1600.000000mm" viewBox="0 0 12000 16000" version="1.1">
<g id="surface1406">
<path style="fill-rule:evenodd;fill:rgb(94.509804%,94.117647%,91.764706%);fill-opacity:1;stroke-width:0.3;stroke-linecap:butt;stroke-linejoin:miter;stroke:rgb(16.470588%,16.078431%,16.470588%);stroke-opacity:1;stroke-miterlimit:3;" d="M -540 -800 C -555.912891 -800 -571.174219 -793.678516 -582.426563 -782.426563 C -593.678516 -771.174219 -600 -755.912891 -600 -740 L -600 740 C -600 755.912891 -593.678516 771.174219 -582.426563 782.426563 C -571.174219 793.678516 -555.912891 800 -540 800 L 540 800 C 555.912891 800 571.174219 793.678516 582.426563 782.426563 C 593.678516 771.174219 600 755.912891 600 740 L 600 -740 C 600 -755.912891 593.678516 -771.174219 582.426563 -782.426563 C 571.174219 -793.678516 555.912891 -800 540 -800 L -540 -800 " transform="matrix(10,0,0,-10,6000,8000)"/>
<path style=" stroke:none;fill-rule:evenodd;fill:rgb(16.470588%,16.078431%,16.470588%);fill-opacity:1;" d="M 600 15850 C 480.652344 15850 366.191406 15802.589844 281.800781 15718.199219 C 197.410156 15633.808594 150 15519.347656 150 15400 L 150 600 C 150 480.652344 197.410156 366.191406 281.800781 281.800781 C 366.191406 197.410156 480.652344 150 600 150 L 11400 150 C 11519.347656 150 11633.808594 197.410156 11718.199219 281.800781 C 11802.589844 366.191406 11850 480.652344 11850 600 L 11850 15400 C 11850 15519.347656 11802.589844 15633.808594 11718.199219 15718.199219 C 11633.808594 15802.589844 11519.347656 15850 11400 15850 L 600 15850 M 600 15650 C 461.929688 15650 350 15538.070312 350 15400 L 350 600 C 350 461.929688 461.929688 350 600 350 L 11400 350 C 11538.070312 350 11650 461.929688 11650 600 L 11650 15400 C 11650 15538.070312 11538.070312 15650 11400 15650 L 600 15650 "/>
<path style=" stroke:none;fill-rule:evenodd;fill:rgb(16.470588%,16.078431%,16.470588%);fill-opacity:1;" d="M 2937.9375 5563.675781 L 3338.296875 5327.636719 C 3374.890625 5306.058594 3397.351562 5266.746094 3397.351562 5224.265625 C 3397.351562 5166.960938 3356.835938 5117.65625 3300.625 5106.542969 L 1750 4800 L 2056.542969 6350.625 C 2067.65625 6406.835938 2116.960938 6447.351562 2174.265625 6447.351562 C 2216.746094 6447.351562 2256.058594 6424.890625 2277.636719 6388.296875 L 2513.675781 5987.9375 L 3974.265625 7448.527344 C 4086.785156 7561.050781 4150 7713.660156 4150 7872.792969 L 4150 14400 L 4750 14400 L 4750 7872.792969 C 4750 7554.53125 4623.570312 7249.308594 4398.527344 7024.265625 L 2937.9375 5563.675781 "/>
<path style=" stroke:none;fill-rule:evenodd;fill:rgb(16.470588%,16.078431%,16.470588%);fill-opacity:1;" d="M 9062.0625 5563.675781 L 8661.703125 5327.636719 C 8625.109375 5306.058594 8602.648438 5266.746094 8602.648438 5224.265625 C 8602.648438 5166.960938 8643.164062 5117.65625 8699.375 5106.542969 L 10250 4800 L 9943.457031 6350.625 C 9932.34375 6406.835938 9883.039062 6447.351562 9825.734375 6447.351562 C 9783.253906 6447.351562 9743.941406 6424.890625 9722.363281 6388.296875 L 9486.324219 5987.9375 L 8025.734375 7448.527344 C 7913.214844 7561.050781 7850 7713.660156 7850 7872.792969 L 7850 14400 L 7250 14400 L 7250 2980 L 6800 3096.191406 C 6790.199219 3098.71875 6780.121094 3100 6770 3100 C 6703.726562 3100 6650 3046.273438 6650 2980 C 6650 2956.21875 6657.066406 2932.972656 6670.300781 2913.214844 L 7550 1600 L 8429.699219 2913.214844 C 8442.933594 2932.972656 8450 2956.21875 8450 2980 C 8450 3046.273438 8396.273438 3100 8330 3100 C 8319.878906 3100 8309.800781 3098.71875 8300 3096.191406 L 7850 2980 L 7850 6775.734375 L 9062.0625 5563.675781 "/>
</g>
</svg>
