<?xml version="1.0" encoding="UTF-8"?>
<svg xmlns="http://www.w3.org/2000/svg" xmlns:xlink="http://www.w3.org/1999/xlink" width="1200.000000mm" height="1600.000000mm" viewBox="0 0 12000 16000" version="1.1">
<g id="surface1461">
<path style="fill-rule:evenodd;fill:rgb(94.509804%,94.117647%,91.764706%);fill-opacity:1;stroke-width:0.3;stroke-linecap:butt;stroke-linejoin:miter;stroke:rgb(16.470588%,16.078431%,16.470588%);stroke-opacity:1;stroke-miterlimit:3;" d="M -540 -800 C -555.912891 -800 -571.174219 -793.678516 -582.426563 -782.426563 C -593.678516 -771.174219 -600 -755.912891 -600 -740 L -600 740 C -600 755.912891 -593.678516 771.174219 -582.426563 782.426563 C -571.174219 793.678516 -555.912891 800 -540 800 L 540 800 C 555.912891 800 571.174219 793.678516 582.426563 782.426563 C 593.678516 771.174219 600 755.912891 600 740 L 600 -740 C 600 -755.912891 593.678516 -771.174219 582.426563 -782.426563 C 571.174219 -793.678516 555.912891 -800 540 -800 L -540 -800 " transform="matrix(10,0,0,-10,6000,8000)"/>
<path style=" stroke:none;fill-rule:evenodd;fill:rgb(16.470588%,16.078431%,16.470588%);fill-opacity:1;" d="M 600 15850 C 480.652344 15850 366.191406 15802.589844 281.800781 15718.199219 C 197.410156 15633.808594 150 15519.347656 150 15400 L 150 600 C 150 480.652344 197.410156 366.191406 281.800781 281.800781 C 366.191406 197.410156 480.652344 150 600 150 L 11400 150 C 11519.347656 150 11633.808594 197.410156 11718.199219 281.800781 C 11802.589844 366.191406 11850 480.652344 11850 600 L 11850 15400 C 11850 15519.347656 11802.589844 15633.808594 11718.199219 15718.199219 C 11633.808594 15802.589844 11519.347656 15850 11400 15850 L 600 15850 M 600 15650 C 461.929688 15650 350 15538.070312 350 15400 L 350 600 C 350 461.929688 461.929688 350 600 350 L 11400 350 C 11538.070312 350 11650 461.929688 11650 600 L 11650 15400 C 11650 15538.070312 11538.070312 15650 11400 15650 L 600 15650 "/>
<path style=" stroke:none;fill-rule:evenodd;fill:rgb(16.470588%,16.078431%,16.470588%);fill-opacity:1;" d="M 2937.9375 4563.675781 L 3338.296875 4327.636719 C 3374.890625 4306.058594 3397.351562 4266.746094 3397.351562 4224.265625 C 3397.351562 4166.960938 3356.835938 4117.65625 3300.625 4106.542969 L 1750 3800 L 2056.542969 5350.625 C 2067.65625 5406.835938 2116.960938 5447.351562 2174.265625 5447.351562 C 2216.746094 5447.351562 2256.058594 5424.890625 2277.636719 5388.296875 L 2513.675781 4987.9375 L 3974.265625 6448.527344 C 4086.785156 6561.050781 4150 6713.660156 4150 6872.792969 L 4150 14400 L 4750 14400 L 4750 2980 L 5200 3096.191406 C 5209.800781 3098.71875 5219.878906 3100 5230 3100 C 5296.273438 3100 5350 3046.273438 5350 2980 C 5350 2956.21875 5342.933594 2932.972656 5329.699219 2913.214844 L 4450 1600 L 3570.300781 2913.214844 C 3557.066406 2932.972656 3550 2956.21875 3550 2980 C 3550 3046.273438 3603.726562 3100 3670 3100 C 3680.121094 3100 3690.199219 3098.71875 3700 3096.191406 L 4150 2980 L 4150 5775.734375 L 2937.9375 4563.675781 "/>
<path style=" stroke:none;fill-rule:evenodd;fill:rgb(16.470588%,16.078431%,16.470588%);fill-opacity:1;" d="M 9062.0625 7763.675781 L 8661.703125 7527.636719 C 8625.109375 7506.058594 8602.648438 7466.746094 8602.648438 7424.265625 C 8602.648438 7366.960938 8643.164062 7317.65625 8699.375 7306.542969 L 10250 7000 L 9943.457031 8550.625 C 9932.34375 8606.835938 9883.039062 8647.351562 9825.734375 8647.351562 C 9783.253906 8647.351562 9743.941406 8624.890625 9722.363281 8588.296875 L 9486.324219 8187.9375 L 8025.734375 9648.527344 C 7913.214844 9761.050781 7850 9913.660156 7850 10072.792969 L 7850 14400 L 7250 14400 L 7250 5972.792969 C 7250 5654.53125 7376.429688 5349.308594 7601.472656 5124.265625 L 8162.0625 4563.675781 L 7761.703125 4327.636719 C 7725.109375 4306.058594 7702.648438 4266.746094 7702.648438 4224.265625 C 7702.648438 4166.960938 7743.164062 4117.65625 7799.375 4106.542969 L 9350 3800 L 9043.457031 5350.625 C 9032.34375 5406.835938 8983.039062 5447.351562 8925.734375 5447.351562 C 8883.253906 5447.351562 8843.941406 5424.890625 8822.363281 5388.296875 L 8586.324219 4987.9375 L 8025.734375 5548.527344 C 7913.214844 5661.050781 7850 5813.660156 7850 5972.792969 L 7850 8975.734375 L 9062.0625 7763.675781 "/>
</g>
</svg>
