<?xml version="1.0" encoding="UTF-8"?>
<svg xmlns="http://www.w3.org/2000/svg" xmlns:xlink="http://www.w3.org/1999/xlink" width="1200.000000mm" height="1600.000000mm" viewBox="0 0 12000 16000" version="1.1">
<g id="surface1491">
<path style="fill-rule:evenodd;fill:rgb(94.509804%,94.117647%,91.764706%);fill-opacity:1;stroke-width:0.3;stroke-linecap:butt;stroke-linejoin:miter;stroke:rgb(16.470588%,16.078431%,16.470588%);stroke-opacity:1;stroke-miterlimit:3;" d="M -540 -800 C -555.912891 -800 -571.174219 -793.678516 -582.426563 -782.426563 C -593.678516 -771.174219 -600 -755.912891 -600 -740 L -600 740 C -600 755.912891 -593.678516 771.174219 -582.426563 782.426563 C -571.174219 793.678516 -555.912891 800 -540 800 L 540 800 C 555.912891 800 571.174219 793.678516 582.426563 782.426563 C 593.678516 771.174219 600 755.912891 600 740 L 600 -740 C 600 -755.912891 593.678516 -771.174219 582.426563 -782.426563 C 571.174219 -793.678516 555.912891 -800 540 -800 L -540 -800 " transform="matrix(10,0,0,-10,6000,8000)"/>
<path style=" stroke:none;fill-rule:evenodd;fill:rgb(16.470588%,16.078431%,16.470588%);fill-opacity:1;" d="M 600 15850 C 480.652344 15850 366.191406 15802.589844 281.800781 15718.199219 C 197.410156 15633.808594 150 15519.347656 150 15400 L 150 600 C 150 480.652344 197.410156 366.191406 281.800781 281.800781 C 366.191406 197.410156 480.652344 150 600 150 L 11400 150 C 11519.347656 150 11633.808594 197.410156 11718.199219 281.800781 C 11802.589844 366.191406 11850 480.652344 11850 600 L 11850 15400 C 11850 15519.347656 11802.589844 15633.808594 11718.199219 15718.199219 C 11633.808594 15802.589844 11519.347656 15850 11400 15850 L 600 15850 M 600 15650 C 461.929688 15650 350 15538.070312 350 15400 L 350 600 C 350 461.929688 461.929688 350 600 350 L 11400 350 C 11538.070312 350 11650 461.929688 11650 600 L 11650 15400 C 11650 15538.070312 11538.070312 15650 11400 15650 L 600 15650 "/>
<path style=" stroke:none;fill-rule:evenodd;fill:rgb(16.470588%,16.078431%,16.470588%);fill-opacity:1;" d="M 2750 2980 L 3200 3096.191406 C 3209.800781 3098.71875 3219.878906 3100 3230 3100 C 3296.273438 3100 3350 3046.273438 3350 2980 C 3350 2956.21875 3342.933594 2932.972656 3329.699219 2913.214844 L 2450 1600 L 1570.300781 2913.214844 C 1557.066406 2932.972656 1550 2956.21875 1550 2980 C 1550 3046.273438 1603.726562 3100 1670 3100 C 1680.121094 3100 1690.199219 3098.71875 1700 3096.191406 L 2150 2980 L 2150 14400 L 2750 14400 L 2750 2980 "/>
<path style=" stroke:none;fill-rule:evenodd;fill:rgb(16.470588%,16.078431%,16.470588%);fill-opacity:1;" d="M 7062.0625 5563.675781 L 6661.703125 5327.636719 C 6625.109375 5306.058594 6602.648438 5266.746094 6602.648438 5224.265625 C 6602.648438 5166.960938 6643.164062 5117.65625 6699.375 5106.542969 L 8250 4800 L 7943.457031 6350.625 C 7932.34375 6406.835938 7883.039062 6447.351562 7825.734375 6447.351562 C 7783.253906 6447.351562 7743.941406 6424.890625 7722.363281 6388.296875 L 7486.324219 5987.9375 L 6025.734375 7448.527344 C 5913.214844 7561.050781 5850 7713.660156 5850 7872.792969 L 5850 14400 L 5250 14400 L 5250 2980 L 4800 3096.191406 C 4790.199219 3098.71875 4780.121094 3100 4770 3100 C 4703.726562 3100 4650 3046.273438 4650 2980 C 4650 2956.21875 4657.066406 2932.972656 4670.300781 2913.214844 L 5550 1600 L 6429.699219 2913.214844 C 6442.933594 2932.972656 6450 2956.21875 6450 2980 C 6450 3046.273438 6396.273438 3100 6330 3100 C 6319.878906 3100 6309.800781 3098.71875 6300 3096.191406 L 5850 2980 L 5850 6775.734375 L 7062.0625 5563.675781 "/>
<path style=" stroke:none;fill-rule:evenodd;fill:rgb(16.470588%,16.078431%,16.470588%);fill-opacity:1;" d="M 9262.0625 7763.675781 L 8861.703125 7527.636719 C 8825.109375 7506.058594 8802.648438 7466.746094 8802.648438 7424.265625 C 8802.648438 7366.960938 8843.164062 7317.65625 8899.375 7306.542969 L 10450 7000 L 10143.457031 8550.625 C 10132.34375 8606.835938 10083.039062 8647.351562 10025.734375 8647.351562 C 9983.253906 8647.351562 9943.941406 8624.890625 9922.363281 8588.296875 L 9686.324219 8187.9375 L 9125.734375 8748.527344 C 9013.214844 8861.050781 8950 9013.660156 8950 9172.792969 L 8950 14400 L 8350 14400 L 8350 9172.792969 C 8350 8854.53125 8476.429688 8549.308594 8701.472656 8324.265625 L 9262.0625 7763.675781 "/>
</g>
</svg>
