<?xml version="1.0" encoding="UTF-8"?>
<svg xmlns="http://www.w3.org/2000/svg" xmlns:xlink="http://www.w3.org/1999/xlink" width="1200.000000mm" height="1600.000000mm" viewBox="0 0 12000 16000" version="1.1">
<g id="surface1481">
<path style="fill-rule:evenodd;fill:rgb(94.509804%,94.117647%,91.764706%);fill-opacity:1;stroke-width:0.3;stroke-linecap:butt;stroke-linejoin:miter;stroke:rgb(16.470588%,16.078431%,16.470588%);stroke-opacity:1;stroke-miterlimit:3;" d="M -540 -800 C -555.912891 -800 -571.174219 -793.678516 -582.426563 -782.426563 C -593.678516 -771.174219 -600 -755.912891 -600 -740 L -600 740 C -600 755.912891 -593.678516 771.174219 -582.426563 782.426563 C -571.174219 793.678516 -555.912891 800 -540 800 L 540 800 C 555.912891 800 571.174219 793.678516 582.426563 782.426563 C 593.678516 771.174219 600 755.912891 600 740 L 600 -740 C 600 -755.912891 593.678516 -771.174219 582.426563 -782.426563 C 571.174219 -793.678516 555.912891 -800 540 -800 L -540 -800 " transform="matrix(10,0,0,-10,6000,8000)"/>
<path style=" stroke:none;fill-rule:evenodd;fill:rgb(16.470588%,16.078431%,16.470588%);fill-opacity:1;" d="M 600 15850 C 480.652344 15850 366.191406 15802.589844 281.800781 15718.199219 C 197.410156 15633.808594 150 15519.347656 150 15400 L 150 600 C 150 480.652344 197.410156 366.191406 281.800781 281.800781 C 366.191406 197.410156 480.652344 150 600 150 L 11400 150 C 11519.347656 150 11633.808594 197.410156 11718.199219 281.800781 C 11802.589844 366.191406 11850 480.652344 11850 600 L 11850 15400 C 11850 15519.347656 11802.589844 15633.808594 11718.199219 15718.199219 C 11633.808594 15802.589844 11519.347656 15850 11400 15850 L 600 15850 M 600 15650 C 461.929688 15650 350 15538.070312 350 15400 L 350 600 C 350 461.929688 461.929688 350 600 350 L 11400 350 C 11538.070312 350 11650 461.929688 11650 600 L 11650 15400 C 11650 15538.070312 11538.070312 15650 11400 15650 L 600 15650 "/>
<path style=" stroke:none;fill-rule:evenodd;fill:rgb(16.470588%,16.078431%,16.470588%);fill-opacity:1;" d="M 2737.9375 7763.675781 L 3138.296875 7527.636719 C 3174.890625 7506.058594 3197.351562 7466.746094 3197.351562 7424.265625 C 3197.351562 7366.960938 3156.835938 7317.65625 3100.625 7306.542969 L 1550 7000 L 1856.542969 8550.625 C 1867.65625 8606.835938 1916.960938 8647.351562 1974.265625 8647.351562 C 2016.746094 8647.351562 2056.058594 8624.890625 2077.636719 8588.296875 L 2313.675781 8187.9375 L 2874.265625 8748.527344 C 2986.785156 8861.050781 3050 9013.660156 3050 9172.792969 L 3050 14400 L 3650 14400 L 3650 9172.792969 C 3650 8854.53125 3523.570312 8549.308594 3298.527344 8324.265625 L 2737.9375 7763.675781 "/>
<path style=" stroke:none;fill-rule:evenodd;fill:rgb(16.470588%,16.078431%,16.470588%);fill-opacity:1;" d="M 4937.9375 5563.675781 L 5338.296875 5327.636719 C 5374.890625 5306.058594 5397.351562 5266.746094 5397.351562 5224.265625 C 5397.351562 5166.960938 5356.835938 5117.65625 5300.625 5106.542969 L 3750 4800 L 4056.542969 6350.625 C 4067.65625 6406.835938 4116.960938 6447.351562 4174.265625 6447.351562 C 4216.746094 6447.351562 4256.058594 6424.890625 4277.636719 6388.296875 L 4513.675781 5987.9375 L 5974.265625 7448.527344 C 6086.785156 7561.050781 6150 7713.660156 6150 7872.792969 L 6150 14400 L 6750 14400 L 6750 2980 L 7200 3096.191406 C 7209.800781 3098.71875 7219.878906 3100 7230 3100 C 7296.273438 3100 7350 3046.273438 7350 2980 C 7350 2956.21875 7342.933594 2932.972656 7329.699219 2913.214844 L 6450 1600 L 5570.300781 2913.214844 C 5557.066406 2932.972656 5550 2956.21875 5550 2980 C 5550 3046.273438 5603.726562 3100 5670 3100 C 5680.121094 3100 5690.199219 3098.71875 5700 3096.191406 L 6150 2980 L 6150 6775.734375 L 4937.9375 5563.675781 "/>
<path style=" stroke:none;fill-rule:evenodd;fill:rgb(16.470588%,16.078431%,16.470588%);fill-opacity:1;" d="M 9850 2980 L 10300 3096.191406 C 10309.800781 3098.71875 10319.878906 3100 10330 3100 C 10396.273438 3100 10450 3046.273438 10450 2980 C 10450 2956.21875 10442.933594 2932.972656 10429.699219 2913.214844 L 9550 1600 L 8670.300781 2913.214844 C 8657.066406 2932.972656 8650 2956.21875 8650 2980 C 8650 3046.273438 8703.726562 3100 8770 3100 C 8780.121094 3100 8790.199219 3098.71875 8800 3096.191406 L 9250 2980 L 9250 14400 L 9850 14400 L 9850 2980 "/>
</g>
</svg>
