<?xml version="1.0" encoding="UTF-8"?>
<svg xmlns="http://www.w3.org/2000/svg" xmlns:xlink="http://www.w3.org/1999/xlink" width="1200.000000mm" height="1600.000000mm" viewBox="0 0 12000 16000" version="1.1">
<g id="surface1501">
<path style="fill-rule:evenodd;fill:rgb(94.509804%,94.117647%,91.764706%);fill-opacity:1;stroke-width:0.3;stroke-linecap:butt;stroke-linejoin:miter;stroke:rgb(16.470588%,16.078431%,16.470588%);stroke-opacity:1;stroke-miterlimit:3;" d="M -540 -800 C -555.912891 -800 -571.174219 -793.678516 -582.426563 -782.426563 C -593.678516 -771.174219 -600 -755.912891 -600 -740 L -600 740 C -600 755.912891 -593.678516 771.174219 -582.426563 782.426563 C -571.174219 793.678516 -555.912891 800 -540 800 L 540 800 C 555.912891 800 571.174219 793.678516 582.426563 782.426563 C 593.678516 771.174219 600 755.912891 600 740 L 600 -740 C 600 -755.912891 593.678516 -771.174219 582.426563 -782.426563 C 571.174219 -793.678516 555.912891 -800 540 -800 L -540 -800 " transform="matrix(10,0,0,-10,6000,8000)"/>
<path style=" stroke:none;fill-rule:evenodd;fill:rgb(16.470588%,16.078431%,16.470588%);fill-opacity:1;" d="M 600 15850 C 480.652344 15850 366.191406 15802.589844 281.800781 15718.199219 C 197.410156 15633.808594 150 15519.347656 150 15400 L 150 600 C 150 480.652344 197.410156 366.191406 281.800781 281.800781 C 366.191406 197.410156 480.652344 150 600 150 L 11400 150 C 11519.347656 150 11633.808594 197.410156 11718.199219 281.800781 C 11802.589844 366.191406 11850 480.652344 11850 600 L 11850 15400 C 11850 15519.347656 11802.589844 15633.808594 11718.199219 15718.199219 C 11633.808594 15802.589844 11519.347656 15850 11400 15850 L 600 15850 M 600 15650 C 461.929688 15650 350 15538.070312 350 15400 L 350 600 C 350 461.929688 461.929688 350 600 350 L 11400 350 C 11538.070312 350 11650 461.929688 11650 600 L 11650 15400 C 11650 15538.070312 11538.070312 15650 11400 15650 L 600 15650 "/>
<path style=" stroke:none;fill-rule:evenodd;fill:rgb(16.470588%,16.078431%,16.470588%);fill-opacity:1;" d="M 2287.9375 7763.675781 L 2688.296875 7527.636719 C 2724.890625 7506.058594 2747.351562 7466.746094 2747.351562 7424.265625 C 2747.351562 7366.960938 2706.835938 7317.65625 2650.625 7306.542969 L 1100 7000 L 1406.542969 8550.625 C 1417.65625 8606.835938 1466.960938 8647.351562 1524.265625 8647.351562 C 1566.746094 8647.351562 1606.058594 8624.890625 1627.636719 8588.296875 L 1863.675781 8187.9375 L 2424.265625 8748.527344 C 2536.785156 8861.050781 2600 9013.660156 2600 9172.792969 L 2600 14400 L 3200 14400 L 3200 9172.792969 C 3200 8854.53125 3073.570312 8549.308594 2848.527344 8324.265625 L 2287.9375 7763.675781 "/>
<path style=" stroke:none;fill-rule:evenodd;fill:rgb(16.470588%,16.078431%,16.470588%);fill-opacity:1;" d="M 7512.0625 5563.675781 L 7111.703125 5327.636719 C 7075.109375 5306.058594 7052.648438 5266.746094 7052.648438 5224.265625 C 7052.648438 5166.960938 7093.164062 5117.65625 7149.375 5106.542969 L 8700 4800 L 8393.457031 6350.625 C 8382.34375 6406.835938 8333.039062 6447.351562 8275.734375 6447.351562 C 8233.253906 6447.351562 8193.941406 6424.890625 8172.363281 6388.296875 L 7936.324219 5987.9375 L 6475.734375 7448.527344 C 6363.214844 7561.050781 6300 7713.660156 6300 7872.792969 L 6300 14400 L 5700 14400 L 5700 2980 L 5250 3096.191406 C 5240.199219 3098.71875 5230.121094 3100 5220 3100 C 5153.726562 3100 5100 3046.273438 5100 2980 C 5100 2956.21875 5107.066406 2932.972656 5120.300781 2913.214844 L 6000 1600 L 6879.699219 2913.214844 C 6892.933594 2932.972656 6900 2956.21875 6900 2980 C 6900 3046.273438 6846.273438 3100 6780 3100 C 6769.878906 3100 6759.800781 3098.71875 6750 3096.191406 L 6300 2980 L 6300 6775.734375 L 7512.0625 5563.675781 "/>
<path style=" stroke:none;fill-rule:evenodd;fill:rgb(16.470588%,16.078431%,16.470588%);fill-opacity:1;" d="M 9712.0625 7763.675781 L 9311.703125 7527.636719 C 9275.109375 7506.058594 9252.648438 7466.746094 9252.648438 7424.265625 C 9252.648438 7366.960938 9293.164062 7317.65625 9349.375 7306.542969 L 10900 7000 L 10593.457031 8550.625 C 10582.34375 8606.835938 10533.039062 8647.351562 10475.734375 8647.351562 C 10433.253906 8647.351562 10393.941406 8624.890625 10372.363281 8588.296875 L 10136.324219 8187.9375 L 9575.734375 8748.527344 C 9463.214844 8861.050781 9400 9013.660156 9400 9172.792969 L 9400 14400 L 8800 14400 L 8800 9172.792969 C 8800 8854.53125 8926.429688 8549.308594 9151.472656 8324.265625 L 9712.0625 7763.675781 "/>
</g>
</svg>
