<?xml version="1.0" encoding="UTF-8"?>
<svg xmlns="http://www.w3.org/2000/svg" xmlns:xlink="http://www.w3.org/1999/xlink" width="1200.000000mm" height="1600.000000mm" viewBox="0 0 12000 16000" version="1.1">
<g id="surface1511">
<path style="fill-rule:evenodd;fill:rgb(94.509804%,94.117647%,91.764706%);fill-opacity:1;stroke-width:0.3;stroke-linecap:butt;stroke-linejoin:miter;stroke:rgb(16.470588%,16.078431%,16.470588%);stroke-opacity:1;stroke-miterlimit:3;" d="M -540 -800 C -555.912891 -800 -571.174219 -793.678516 -582.426563 -782.426563 C -593.678516 -771.174219 -600 -755.912891 -600 -740 L -600 740 C -600 755.912891 -593.678516 771.174219 -582.426563 782.426563 C -571.174219 793.678516 -555.912891 800 -540 800 L 540 800 C 555.912891 800 571.174219 793.678516 582.426563 782.426563 C 593.678516 771.174219 600 755.912891 600 740 L 600 -740 C 600 -755.912891 593.678516 -771.174219 582.426563 -782.426563 C 571.174219 -793.678516 555.912891 -800 540 -800 L -540 -800 " transform="matrix(10,0,0,-10,6000,8000)"/>
<path style=" stroke:none;fill-rule:evenodd;fill:rgb(16.470588%,16.078431%,16.470588%);fill-opacity:1;" d="M 600 15850 C 480.652344 15850 366.191406 15802.589844 281.800781 15718.199219 C 197.410156 15633.808594 150 15519.347656 150 15400 L 150 600 C 150 480.652344 197.410156 366.191406 281.800781 281.800781 C 366.191406 197.410156 480.652344 150 600 150 L 11400 150 C 11519.347656 150 11633.808594 197.410156 11718.199219 281.800781 C 11802.589844 366.191406 11850 480.652344 11850 600 L 11850 15400 C 11850 15519.347656 11802.589844 15633.808594 11718.199219 15718.199219 C 11633.808594 15802.589844 11519.347656 15850 11400 15850 L 600 15850 M 600 15650 C 461.929688 15650 350 15538.070312 350 15400 L 350 600 C 350 461.929688 461.929688 350 600 350 L 11400 350 C 11538.070312 350 11650 461.929688 11650 600 L 11650 15400 C 11650 15538.070312 11538.070312 15650 11400 15650 L 600 15650 "/>
<path style=" stroke:none;fill-rule:evenodd;fill:rgb(16.470588%,16.078431%,16.470588%);fill-opacity:1;" d="M 2437.9375 5563.675781 L 2838.296875 5327.636719 C 2874.890625 5306.058594 2897.351562 5266.746094 2897.351562 5224.265625 C 2897.351562 5166.960938 2856.835938 5117.65625 2800.625 5106.542969 L 1250 4800 L 1556.542969 6350.625 C 1567.65625 6406.835938 1616.960938 6447.351562 1674.265625 6447.351562 C 1716.746094 6447.351562 1756.058594 6424.890625 1777.636719 6388.296875 L 2013.675781 5987.9375 L 3474.265625 7448.527344 C 3586.785156 7561.050781 3650 7713.660156 3650 7872.792969 L 3650 14400 L 4250 14400 L 4250 2980 L 4700 3096.191406 C 4709.800781 3098.71875 4719.878906 3100 4730 3100 C 4796.273438 3100 4850 3046.273438 4850 2980 C 4850 2956.21875 4842.933594 2932.972656 4829.699219 2913.214844 L 3950 1600 L 3070.300781 2913.214844 C 3057.066406 2932.972656 3050 2956.21875 3050 2980 C 3050 3046.273438 3103.726562 3100 3170 3100 C 3180.121094 3100 3190.199219 3098.71875 3200 3096.191406 L 3650 2980 L 3650 6775.734375 L 2437.9375 5563.675781 "/>
<path style=" stroke:none;fill-rule:evenodd;fill:rgb(16.470588%,16.078431%,16.470588%);fill-opacity:1;" d="M 7862.0625 5563.675781 L 7461.703125 5327.636719 C 7425.109375 5306.058594 7402.648438 5266.746094 7402.648438 5224.265625 C 7402.648438 5166.960938 7443.164062 5117.65625 7499.375 5106.542969 L 9050 4800 L 8743.457031 6350.625 C 8732.34375 6406.835938 8683.039062 6447.351562 8625.734375 6447.351562 C 8583.253906 6447.351562 8543.941406 6424.890625 8522.363281 6388.296875 L 8286.324219 5987.9375 L 6825.734375 7448.527344 C 6713.214844 7561.050781 6650 7713.660156 6650 7872.792969 L 6650 14400 L 6050 14400 L 6050 2980 L 5600 3096.191406 C 5590.199219 3098.71875 5580.121094 3100 5570 3100 C 5503.726562 3100 5450 3046.273438 5450 2980 C 5450 2956.21875 5457.066406 2932.972656 5470.300781 2913.214844 L 6350 1600 L 7229.699219 2913.214844 C 7242.933594 2932.972656 7250 2956.21875 7250 2980 C 7250 3046.273438 7196.273438 3100 7130 3100 C 7119.878906 3100 7109.800781 3098.71875 7100 3096.191406 L 6650 2980 L 6650 6775.734375 L 7862.0625 5563.675781 "/>
<path style=" stroke:none;fill-rule:evenodd;fill:rgb(16.470588%,16.078431%,16.470588%);fill-opacity:1;" d="M 9562.0625 7263.675781 L 9161.703125 7027.636719 C 9125.109375 7006.058594 9102.648438 6966.746094 9102.648438 6924.265625 C 9102.648438 6866.960938 9143.164062 6817.65625 9199.375 6806.542969 L 10750 6500 L 10443.457031 8050.625 C 10432.34375 8106.835938 10383.039062 8147.351562 10325.734375 8147.351562 C 10283.253906 8147.351562 10243.941406 8124.890625 10222.363281 8088.296875 L 9986.324219 7687.9375 L 9225.734375 8448.527344 C 9113.214844 8561.050781 9050 8713.660156 9050 8872.792969 L 9050 14400 L 8450 14400 L 8450 8872.792969 C 8450 8554.53125 8576.429688 8249.308594 8801.472656 8024.265625 L 9562.0625 7263.675781 "/>
</g>
</svg>
