<?xml version="1.0" encoding="UTF-8"?>
<svg xmlns="http://www.w3.org/2000/svg" xmlns:xlink="http://www.w3.org/1999/xlink" width="1200.000000mm" height="1600.000000mm" viewBox="0 0 12000 16000" version="1.1">
<g id="surface1506">
<path style="fill-rule:evenodd;fill:rgb(94.509804%,94.117647%,91.764706%);fill-opacity:1;stroke-width:0.3;stroke-linecap:butt;stroke-linejoin:miter;stroke:rgb(16.470588%,16.078431%,16.470588%);stroke-opacity:1;stroke-miterlimit:3;" d="M -540 -800 C -555.912891 -800 -571.174219 -793.678516 -582.426563 -782.426563 C -593.678516 -771.174219 -600 -755.912891 -600 -740 L -600 740 C -600 755.912891 -593.678516 771.174219 -582.426563 782.426563 C -571.174219 793.678516 -555.912891 800 -540 800 L 540 800 C 555.912891 800 571.174219 793.678516 582.426563 782.426563 C 593.678516 771.174219 600 755.912891 600 740 L 600 -740 C 600 -755.912891 593.678516 -771.174219 582.426563 -782.426563 C 571.174219 -793.678516 555.912891 -800 540 -800 L -540 -800 " transform="matrix(10,0,0,-10,6000,8000)"/>
<path style=" stroke:none;fill-rule:evenodd;fill:rgb(16.470588%,16.078431%,16.470588%);fill-opacity:1;" d="M 600 15850 C 480.652344 15850 366.191406 15802.589844 281.800781 15718.199219 C 197.410156 15633.808594 150 15519.347656 150 15400 L 150 600 C 150 480.652344 197.410156 366.191406 281.800781 281.800781 C 366.191406 197.410156 480.652344 150 600 150 L 11400 150 C 11519.347656 150 11633.808594 197.410156 11718.199219 281.800781 C 11802.589844 366.191406 11850 480.652344 11850 600 L 11850 15400 C 11850 15519.347656 11802.589844 15633.808594 11718.199219 15718.199219 C 11633.808594 15802.589844 11519.347656 15850 11400 15850 L 600 15850 M 600 15650 C 461.929688 15650 350 15538.070312 350 15400 L 350 600 C 350 461.929688 461.929688 350 600 350 L 11400 350 C 11538.070312 350 11650 461.929688 11650 600 L 11650 15400 C 11650 15538.070312 11538.070312 15650 11400 15650 L 600 15650 "/>
<path style=" stroke:none;fill-rule:evenodd;fill:rgb(16.470588%,16.078431%,16.470588%);fill-opacity:1;" d="M 2437.9375 7263.675781 L 2838.296875 7027.636719 C 2874.890625 7006.058594 2897.351562 6966.746094 2897.351562 6924.265625 C 2897.351562 6866.960938 2856.835938 6817.65625 2800.625 6806.542969 L 1250 6500 L 1556.542969 8050.625 C 1567.65625 8106.835938 1616.960938 8147.351562 1674.265625 8147.351562 C 1716.746094 8147.351562 1756.058594 8124.890625 1777.636719 8088.296875 L 2013.675781 7687.9375 L 2774.265625 8448.527344 C 2886.785156 8561.050781 2950 8713.660156 2950 8872.792969 L 2950 14400 L 3550 14400 L 3550 8872.792969 C 3550 8554.53125 3423.570312 8249.308594 3198.527344 8024.265625 L 2437.9375 7263.675781 "/>
<path style=" stroke:none;fill-rule:evenodd;fill:rgb(16.470588%,16.078431%,16.470588%);fill-opacity:1;" d="M 4137.9375 5563.675781 L 4538.296875 5327.636719 C 4574.890625 5306.058594 4597.351562 5266.746094 4597.351562 5224.265625 C 4597.351562 5166.960938 4556.835938 5117.65625 4500.625 5106.542969 L 2950 4800 L 3256.542969 6350.625 C 3267.65625 6406.835938 3316.960938 6447.351562 3374.265625 6447.351562 C 3416.746094 6447.351562 3456.058594 6424.890625 3477.636719 6388.296875 L 3713.675781 5987.9375 L 5174.265625 7448.527344 C 5286.785156 7561.050781 5350 7713.660156 5350 7872.792969 L 5350 14400 L 5950 14400 L 5950 2980 L 6400 3096.191406 C 6409.800781 3098.71875 6419.878906 3100 6430 3100 C 6496.273438 3100 6550 3046.273438 6550 2980 C 6550 2956.21875 6542.933594 2932.972656 6529.699219 2913.214844 L 5650 1600 L 4770.300781 2913.214844 C 4757.066406 2932.972656 4750 2956.21875 4750 2980 C 4750 3046.273438 4803.726562 3100 4870 3100 C 4880.121094 3100 4890.199219 3098.71875 4900 3096.191406 L 5350 2980 L 5350 6775.734375 L 4137.9375 5563.675781 "/>
<path style=" stroke:none;fill-rule:evenodd;fill:rgb(16.470588%,16.078431%,16.470588%);fill-opacity:1;" d="M 9562.0625 5563.675781 L 9161.703125 5327.636719 C 9125.109375 5306.058594 9102.648438 5266.746094 9102.648438 5224.265625 C 9102.648438 5166.960938 9143.164062 5117.65625 9199.375 5106.542969 L 10750 4800 L 10443.457031 6350.625 C 10432.34375 6406.835938 10383.039062 6447.351562 10325.734375 6447.351562 C 10283.253906 6447.351562 10243.941406 6424.890625 10222.363281 6388.296875 L 9986.324219 5987.9375 L 8525.734375 7448.527344 C 8413.214844 7561.050781 8350 7713.660156 8350 7872.792969 L 8350 14400 L 7750 14400 L 7750 2980 L 7300 3096.191406 C 7290.199219 3098.71875 7280.121094 3100 7270 3100 C 7203.726562 3100 7150 3046.273438 7150 2980 C 7150 2956.21875 7157.066406 2932.972656 7170.300781 2913.214844 L 8050 1600 L 8929.699219 2913.214844 C 8942.933594 2932.972656 8950 2956.21875 8950 2980 C 8950 3046.273438 8896.273438 3100 8830 3100 C 8819.878906 3100 8809.800781 3098.71875 8800 3096.191406 L 8350 2980 L 8350 6775.734375 L 9562.0625 5563.675781 "/>
</g>
</svg>
