<?xml version="1.0" encoding="UTF-8"?>
<svg xmlns="http://www.w3.org/2000/svg" xmlns:xlink="http://www.w3.org/1999/xlink" width="1200.000000mm" height="1600.000000mm" viewBox="0 0 12000 16000" version="1.1">
<g id="surface1541">
<path style="fill-rule:evenodd;fill:rgb(94.509804%,94.117647%,91.764706%);fill-opacity:1;stroke-width:0.3;stroke-linecap:butt;stroke-linejoin:miter;stroke:rgb(16.470588%,16.078431%,16.470588%);stroke-opacity:1;stroke-miterlimit:3;" d="M -540 -800 C -555.912891 -800 -571.174219 -793.678516 -582.426563 -782.426563 C -593.678516 -771.174219 -600 -755.912891 -600 -740 L -600 740 C -600 755.912891 -593.678516 771.174219 -582.426563 782.426563 C -571.174219 793.678516 -555.912891 800 -540 800 L 540 800 C 555.912891 800 571.174219 793.678516 582.426563 782.426563 C 593.678516 771.174219 600 755.912891 600 740 L 600 -740 C 600 -755.912891 593.678516 -771.174219 582.426563 -782.426563 C 571.174219 -793.678516 555.912891 -800 540 -800 L -540 -800 " transform="matrix(10,0,0,-10,6000,8000)"/>
<path style=" stroke:none;fill-rule:evenodd;fill:rgb(16.470588%,16.078431%,16.470588%);fill-opacity:1;" d="M 600 15850 C 480.652344 15850 366.191406 15802.589844 281.800781 15718.199219 C 197.410156 15633.808594 150 15519.347656 150 15400 L 150 600 C 150 480.652344 197.410156 366.191406 281.800781 281.800781 C 366.191406 197.410156 480.652344 150 600 150 L 11400 150 C 11519.347656 150 11633.808594 197.410156 11718.199219 281.800781 C 11802.589844 366.191406 11850 480.652344 11850 600 L 11850 15400 C 11850 15519.347656 11802.589844 15633.808594 11718.199219 15718.199219 C 11633.808594 15802.589844 11519.347656 15850 11400 15850 L 600 15850 M 600 15650 C 461.929688 15650 350 15538.070312 350 15400 L 350 600 C 350 461.929688 461.929688 350 600 350 L 11400 350 C 11538.070312 350 11650 461.929688 11650 600 L 11650 15400 C 11650 15538.070312 11538.070312 15650 11400 15650 L 600 15650 "/>
<path style=" stroke:none;fill-rule:evenodd;fill:rgb(16.470588%,16.078431%,16.470588%);fill-opacity:1;" d="M 2787.9375 6163.675781 L 3188.296875 5927.636719 C 3224.890625 5906.058594 3247.351562 5866.746094 3247.351562 5824.265625 C 3247.351562 5766.960938 3206.835938 5717.65625 3150.625 5706.542969 L 1600 5400 L 1906.542969 6950.625 C 1917.65625 7006.835938 1966.960938 7047.351562 2024.265625 7047.351562 C 2066.746094 7047.351562 2106.058594 7024.890625 2127.636719 6988.296875 L 2363.675781 6587.9375 L 2424.265625 6648.527344 C 2536.785156 6761.050781 2600 6913.660156 2600 7072.792969 L 2600 14400 L 3200 14400 L 3200 7072.792969 C 3200 6754.53125 3073.570312 6449.308594 2848.527344 6224.265625 L 2787.9375 6163.675781 "/>
<path style=" stroke:none;fill-rule:evenodd;fill:rgb(16.470588%,16.078431%,16.470588%);fill-opacity:1;" d="M 4487.9375 4463.675781 L 4888.296875 4227.636719 C 4924.890625 4206.058594 4947.351562 4166.746094 4947.351562 4124.265625 C 4947.351562 4066.960938 4906.835938 4017.65625 4850.625 4006.542969 L 3300 3700 L 3606.542969 5250.625 C 3617.65625 5306.835938 3666.960938 5347.351562 3724.265625 5347.351562 C 3766.746094 5347.351562 3806.058594 5324.890625 3827.636719 5288.296875 L 4063.675781 4887.9375 L 4824.265625 5648.527344 C 4936.785156 5761.050781 5000 5913.660156 5000 6072.792969 L 5000 14400 L 5600 14400 L 5600 6072.792969 C 5600 5754.53125 5473.570312 5449.308594 5248.527344 5224.265625 L 4487.9375 4463.675781 "/>
<path style=" stroke:none;fill-rule:evenodd;fill:rgb(16.470588%,16.078431%,16.470588%);fill-opacity:1;" d="M 6187.9375 2763.675781 L 6588.296875 2527.636719 C 6624.890625 2506.058594 6647.351562 2466.746094 6647.351562 2424.265625 C 6647.351562 2366.972656 6606.851562 2317.671875 6550.648438 2306.546875 L 5000 2000 L 5306.546875 3550.648438 C 5317.671875 3606.851562 5366.972656 3647.351562 5424.265625 3647.351562 C 5466.746094 3647.351562 5506.058594 3624.890625 5527.636719 3588.296875 L 5763.675781 3187.9375 L 7224.265625 4648.527344 C 7336.785156 4761.050781 7400 4913.660156 7400 5072.792969 L 7400 14400 L 8000 14400 L 8000 5072.792969 C 8000 4913.660156 8063.214844 4761.050781 8175.734375 4648.527344 L 9636.324219 3187.9375 L 9872.363281 3588.296875 C 9893.941406 3624.890625 9933.253906 3647.351562 9975.734375 3647.351562 C 10033.027344 3647.351562 10082.328125 3606.851562 10093.453125 3550.648438 L 10400 2000 L 8849.351562 2306.546875 C 8793.148438 2317.671875 8752.648438 2366.972656 8752.648438 2424.265625 C 8752.648438 2466.746094 8775.109375 2506.058594 8811.703125 2527.636719 L 9212.0625 2763.675781 L 7751.472656 4224.265625 C 7733.746094 4241.988281 7716.582031 4260.265625 7700 4279.066406 C 7683.417969 4260.265625 7666.253906 4241.988281 7648.527344 4224.265625 L 6187.9375 2763.675781 "/>
</g>
</svg>
