<?xml version="1.0" encoding="UTF-8"?>
<svg xmlns="http://www.w3.org/2000/svg" xmlns:xlink="http://www.w3.org/1999/xlink" width="1200.000000mm" height="1600.000000mm" viewBox="0 0 12000 16000" version="1.1">
<g id="surface1521">
<path style="fill-rule:evenodd;fill:rgb(94.509804%,94.117647%,91.764706%);fill-opacity:1;stroke-width:0.3;stroke-linecap:butt;stroke-linejoin:miter;stroke:rgb(16.470588%,16.078431%,16.470588%);stroke-opacity:1;stroke-miterlimit:3;" d="M -540 -800 C -555.912891 -800 -571.174219 -793.678516 -582.426563 -782.426563 C -593.678516 -771.174219 -600 -755.912891 -600 -740 L -600 740 C -600 755.912891 -593.678516 771.174219 -582.426563 782.426563 C -571.174219 793.678516 -555.912891 800 -540 800 L 540 800 C 555.912891 800 571.174219 793.678516 582.426563 782.426563 C 593.678516 771.174219 600 755.912891 600 740 L 600 -740 C 600 -755.912891 593.678516 -771.174219 582.426563 -782.426563 C 571.174219 -793.678516 555.912891 -800 540 -800 L -540 -800 " transform="matrix(10,0,0,-10,6000,8000)"/>
<path style=" stroke:none;fill-rule:evenodd;fill:rgb(16.470588%,16.078431%,16.470588%);fill-opacity:1;" d="M 600 15850 C 480.652344 15850 366.191406 15802.589844 281.800781 15718.199219 C 197.410156 15633.808594 150 15519.347656 150 15400 L 150 600 C 150 480.652344 197.410156 366.191406 281.800781 281.800781 C 366.191406 197.410156 480.652344 150 600 150 L 11400 150 C 11519.347656 150 11633.808594 197.410156 11718.199219 281.800781 C 11802.589844 366.191406 11850 480.652344 11850 600 L 11850 15400 C 11850 15519.347656 11802.589844 15633.808594 11718.199219 15718.199219 C 11633.808594 15802.589844 11519.347656 15850 11400 15850 L 600 15850 M 600 15650 C 461.929688 15650 350 15538.070312 350 15400 L 350 600 C 350 461.929688 461.929688 350 600 350 L 11400 350 C 11538.070312 350 11650 461.929688 11650 600 L 11650 15400 C 11650 15538.070312 11538.070312 15650 11400 15650 L 600 15650 "/>
<path style=" stroke:none;fill-rule:evenodd;fill:rgb(16.470588%,16.078431%,16.470588%);fill-opacity:1;" d="M 3387.9375 4963.675781 L 3788.296875 4727.636719 C 3824.890625 4706.058594 3847.351562 4666.746094 3847.351562 4624.265625 C 3847.351562 4566.960938 3806.835938 4517.65625 3750.625 4506.542969 L 2200 4200 L 2506.542969 5750.625 C 2517.65625 5806.835938 2566.960938 5847.351562 2624.265625 5847.351562 C 2666.746094 5847.351562 2706.058594 5824.890625 2727.636719 5788.296875 L 2963.675781 5387.9375 L 3524.265625 5948.527344 C 3636.785156 6061.050781 3700 6213.660156 3700 6372.792969 L 3700 14400 L 4300 14400 L 4300 6372.792969 C 4300 6054.53125 4173.570312 5749.308594 3948.527344 5524.265625 "/>
<path style=" stroke:none;fill-rule:evenodd;fill:rgb(16.470588%,16.078431%,16.470588%);fill-opacity:1;" d="M 5587.9375 2763.675781 L 5988.296875 2527.636719 C 6024.890625 2506.058594 6047.351562 2466.746094 6047.351562 2424.265625 C 6047.351562 2366.972656 6006.851562 2317.671875 5950.648438 2306.546875 L 4400 2000 L 4706.546875 3550.648438 C 4717.671875 3606.851562 4766.972656 3647.351562 4824.265625 3647.351562 C 4866.746094 3647.351562 4906.058594 3624.890625 4927.636719 3588.296875 L 5163.675781 3187.9375 L 6624.265625 4648.527344 C 6736.785156 4761.050781 6800 4913.660156 6800 5072.792969 L 6800 14400 L 7400 14400 L 7400 5072.792969 C 7400 4913.660156 7463.214844 4761.050781 7575.734375 4648.527344 L 9036.324219 3187.9375 L 9272.363281 3588.296875 C 9293.941406 3624.890625 9333.253906 3647.351562 9375.734375 3647.351562 C 9433.027344 3647.351562 9482.328125 3606.851562 9493.453125 3550.648438 L 9800 2000 L 8249.351562 2306.546875 C 8193.148438 2317.671875 8152.648438 2366.972656 8152.648438 2424.265625 C 8152.648438 2466.746094 8175.109375 2506.058594 8211.703125 2527.636719 L 8612.0625 2763.675781 L 7151.472656 4224.265625 C 7133.746094 4241.988281 7116.582031 4260.265625 7100 4279.066406 C 7083.417969 4260.265625 7066.253906 4241.988281 7048.527344 4224.265625 L 5587.9375 2763.675781 "/>
</g>
</svg>
