<?xml version="1.0" encoding="UTF-8"?>
<svg xmlns="http://www.w3.org/2000/svg" xmlns:xlink="http://www.w3.org/1999/xlink" width="1200.000000mm" height="1600.000000mm" viewBox="0 0 12000 16000" version="1.1">
<g id="surface1546">
<path style="fill-rule:evenodd;fill:rgb(94.509804%,94.117647%,91.764706%);fill-opacity:1;stroke-width:0.3;stroke-linecap:butt;stroke-linejoin:miter;stroke:rgb(16.470588%,16.078431%,16.470588%);stroke-opacity:1;stroke-miterlimit:3;" d="M -540 -800 C -555.912891 -800 -571.174219 -793.678516 -582.426563 -782.426563 C -593.678516 -771.174219 -600 -755.912891 -600 -740 L -600 740 C -600 755.912891 -593.678516 771.174219 -582.426563 782.426563 C -571.174219 793.678516 -555.912891 800 -540 800 L 540 800 C 555.912891 800 571.174219 793.678516 582.426563 782.426563 C 593.678516 771.174219 600 755.912891 600 740 L 600 -740 C 600 -755.912891 593.678516 -771.174219 582.426563 -782.426563 C 571.174219 -793.678516 555.912891 -800 540 -800 L -540 -800 " transform="matrix(10,0,0,-10,6000,8000)"/>
<path style=" stroke:none;fill-rule:evenodd;fill:rgb(16.470588%,16.078431%,16.470588%);fill-opacity:1;" d="M 600 15850 C 480.652344 15850 366.191406 15802.589844 281.800781 15718.199219 C 197.410156 15633.808594 150 15519.347656 150 15400 L 150 600 C 150 480.652344 197.410156 366.191406 281.800781 281.800781 C 366.191406 197.410156 480.652344 150 600 150 L 11400 150 C 11519.347656 150 11633.808594 197.410156 11718.199219 281.800781 C 11802.589844 366.191406 11850 480.652344 11850 600 L 11850 15400 C 11850 15519.347656 11802.589844 15633.808594 11718.199219 15718.199219 C 11633.808594 15802.589844 11519.347656 15850 11400 15850 L 600 15850 M 600 15650 C 461.929688 15650 350 15538.070312 350 15400 L 350 600 C 350 461.929688 461.929688 350 600 350 L 11400 350 C 11538.070312 350 11650 461.929688 11650 600 L 11650 15400 C 11650 15538.070312 11538.070312 15650 11400 15650 L 600 15650 "/>
<path style=" stroke:none;fill-rule:evenodd;fill:rgb(16.470588%,16.078431%,16.470588%);fill-opacity:1;" d="M 2787.9375 4463.675781 L 3188.296875 4227.636719 C 3224.890625 4206.058594 3247.351562 4166.746094 3247.351562 4124.265625 C 3247.351562 4066.960938 3206.835938 4017.65625 3150.625 4006.542969 L 1600 3700 L 1906.542969 5250.625 C 1917.65625 5306.835938 1966.960938 5347.351562 2024.265625 5347.351562 C 2066.746094 5347.351562 2106.058594 5324.890625 2127.636719 5288.296875 L 2363.675781 4887.9375 L 3124.265625 5648.527344 C 3236.785156 5761.050781 3300 5913.660156 3300 6072.792969 L 3300 14400 L 3900 14400 L 3900 6072.792969 C 3900 5754.53125 3773.570312 5449.308594 3548.527344 5224.265625 L 2787.9375 4463.675781 "/>
<path style=" stroke:none;fill-rule:evenodd;fill:rgb(16.470588%,16.078431%,16.470588%);fill-opacity:1;" d="M 4487.9375 2763.675781 L 4888.296875 2527.636719 C 4924.890625 2506.058594 4947.351562 2466.746094 4947.351562 2424.265625 C 4947.351562 2366.972656 4906.851562 2317.671875 4850.648438 2306.546875 L 3300 2000 L 3606.546875 3550.648438 C 3617.671875 3606.851562 3666.972656 3647.351562 3724.265625 3647.351562 C 3766.746094 3647.351562 3806.058594 3624.890625 3827.636719 3588.296875 L 4063.675781 3187.9375 L 5524.265625 4648.527344 C 5636.785156 4761.050781 5700 4913.660156 5700 5072.792969 L 5700 14400 L 6300 14400 L 6300 5072.792969 C 6300 4913.660156 6363.214844 4761.050781 6475.734375 4648.527344 L 7936.324219 3187.9375 L 8172.363281 3588.296875 C 8193.941406 3624.890625 8233.253906 3647.351562 8275.734375 3647.351562 C 8333.027344 3647.351562 8382.328125 3606.851562 8393.453125 3550.648438 L 8700 2000 L 7149.351562 2306.546875 C 7093.148438 2317.671875 7052.648438 2366.972656 7052.648438 2424.265625 C 7052.648438 2466.746094 7075.109375 2506.058594 7111.703125 2527.636719 L 7512.0625 2763.675781 L 6051.472656 4224.265625 C 6033.746094 4241.988281 6016.582031 4260.265625 6000 4279.066406 C 5983.417969 4260.265625 5966.253906 4241.988281 5948.527344 4224.265625 L 4487.9375 2763.675781 "/>
<path style=" stroke:none;fill-rule:evenodd;fill:rgb(16.470588%,16.078431%,16.470588%);fill-opacity:1;" d="M 9212.0625 4463.675781 L 8811.703125 4227.636719 C 8775.109375 4206.058594 8752.648438 4166.746094 8752.648438 4124.265625 C 8752.648438 4066.960938 8793.164062 4017.65625 8849.375 4006.542969 L 10400 3700 L 10093.457031 5250.625 C 10082.34375 5306.835938 10033.039062 5347.351562 9975.734375 5347.351562 C 9933.253906 5347.351562 9893.941406 5324.890625 9872.363281 5288.296875 L 9636.324219 4887.9375 L 8875.734375 5648.527344 C 8763.214844 5761.050781 8700 5913.660156 8700 6072.792969 L 8700 14400 L 8100 14400 L 8100 6072.792969 C 8100 5754.53125 8226.429688 5449.308594 8451.472656 5224.265625 L 9212.0625 4463.675781 "/>
</g>
</svg>
