<?xml version="1.0" encoding="UTF-8"?>
<svg xmlns="http://www.w3.org/2000/svg" xmlns:xlink="http://www.w3.org/1999/xlink" width="1200.000000mm" height="1600.000000mm" viewBox="0 0 12000 16000" version="1.1">
<g id="surface1516">
<path style="fill-rule:evenodd;fill:rgb(94.509804%,94.117647%,91.764706%);fill-opacity:1;stroke-width:0.3;stroke-linecap:butt;stroke-linejoin:miter;stroke:rgb(16.470588%,16.078431%,16.470588%);stroke-opacity:1;stroke-miterlimit:3;" d="M -540 -800 C -555.912891 -800 -571.174219 -793.678516 -582.426563 -782.426563 C -593.678516 -771.174219 -600 -755.912891 -600 -740 L -600 740 C -600 755.912891 -593.678516 771.174219 -582.426563 782.426563 C -571.174219 793.678516 -555.912891 800 -540 800 L 540 800 C 555.912891 800 571.174219 793.678516 582.426563 782.426563 C 593.678516 771.174219 600 755.912891 600 740 L 600 -740 C 600 -755.912891 593.678516 -771.174219 582.426563 -782.426563 C 571.174219 -793.678516 555.912891 -800 540 -800 L -540 -800 " transform="matrix(10,0,0,-10,6000,8000)"/>
<path style=" stroke:none;fill-rule:evenodd;fill:rgb(16.470588%,16.078431%,16.470588%);fill-opacity:1;" d="M 600 15850 C 480.652344 15850 366.191406 15802.589844 281.800781 15718.199219 C 197.410156 15633.808594 150 15519.347656 150 15400 L 150 600 C 150 480.652344 197.410156 366.191406 281.800781 281.800781 C 366.191406 197.410156 480.652344 150 600 150 L 11400 150 C 11519.347656 150 11633.808594 197.410156 11718.199219 281.800781 C 11802.589844 366.191406 11850 480.652344 11850 600 L 11850 15400 C 11850 15519.347656 11802.589844 15633.808594 11718.199219 15718.199219 C 11633.808594 15802.589844 11519.347656 15850 11400 15850 L 600 15850 M 600 15650 C 461.929688 15650 350 15538.070312 350 15400 L 350 600 C 350 461.929688 461.929688 350 600 350 L 11400 350 C 11538.070312 350 11650 461.929688 11650 600 L 11650 15400 C 11650 15538.070312 11538.070312 15650 11400 15650 L 600 15650 "/>
<path style=" stroke:none;fill-rule:evenodd;fill:rgb(16.470588%,16.078431%,16.470588%);fill-opacity:1;" d="M 2937.9375 2763.675781 L 3338.296875 2527.636719 C 3374.890625 2506.058594 3397.351562 2466.746094 3397.351562 2424.265625 C 3397.351562 2366.960938 3356.835938 2317.65625 3300.625 2306.542969 L 1750 2000 L 2056.542969 3550.625 C 2067.65625 3606.835938 2116.960938 3647.351562 2174.265625 3647.351562 C 2216.746094 3647.351562 2256.058594 3624.890625 2277.636719 3588.296875 L 2513.675781 3187.9375 L 3974.265625 4648.527344 C 4086.785156 4761.050781 4150 4913.660156 4150 5072.792969 L 4150 14400 L 4750 14400 L 4750 5072.792969 C 4750 4754.53125 4623.570312 4449.308594 4398.527344 4224.265625 L 2937.9375 2763.675781 "/>
<path style=" stroke:none;fill-rule:evenodd;fill:rgb(16.470588%,16.078431%,16.470588%);fill-opacity:1;" d="M 9062.0625 2763.675781 L 8661.703125 2527.636719 C 8625.109375 2506.058594 8602.648438 2466.746094 8602.648438 2424.265625 C 8602.648438 2366.960938 8643.164062 2317.65625 8699.375 2306.542969 L 10250 2000 L 9943.457031 3550.625 C 9932.34375 3606.835938 9883.039062 3647.351562 9825.734375 3647.351562 C 9783.253906 3647.351562 9743.941406 3624.890625 9722.363281 3588.296875 L 9486.324219 3187.9375 L 8025.734375 4648.527344 C 7913.214844 4761.050781 7850 4913.660156 7850 5072.792969 L 7850 14400 L 7250 14400 L 7250 5072.792969 C 7250 4754.53125 7376.429688 4449.308594 7601.472656 4224.265625 L 9062.0625 2763.675781 "/>
</g>
</svg>
