<?xml version="1.0" encoding="UTF-8"?>
<svg xmlns="http://www.w3.org/2000/svg" xmlns:xlink="http://www.w3.org/1999/xlink" width="1200.000000mm" height="1600.000000mm" viewBox="0 0 12000 16000" version="1.1">
<g id="surface1531">
<path style="fill-rule:evenodd;fill:rgb(94.509804%,94.117647%,91.764706%);fill-opacity:1;stroke-width:0.3;stroke-linecap:butt;stroke-linejoin:miter;stroke:rgb(16.470588%,16.078431%,16.470588%);stroke-opacity:1;stroke-miterlimit:3;" d="M -540 -800 C -555.912891 -800 -571.174219 -793.678516 -582.426563 -782.426563 C -593.678516 -771.174219 -600 -755.912891 -600 -740 L -600 740 C -600 755.912891 -593.678516 771.174219 -582.426563 782.426563 C -571.174219 793.678516 -555.912891 800 -540 800 L 540 800 C 555.912891 800 571.174219 793.678516 582.426563 782.426563 C 593.678516 771.174219 600 755.912891 600 740 L 600 -740 C 600 -755.912891 593.678516 -771.174219 582.426563 -782.426563 C 571.174219 -793.678516 555.912891 -800 540 -800 L -540 -800 " transform="matrix(10,0,0,-10,6000,8000)"/>
<path style=" stroke:none;fill-rule:evenodd;fill:rgb(16.470588%,16.078431%,16.470588%);fill-opacity:1;" d="M 600 15850 C 480.652344 15850 366.191406 15802.589844 281.800781 15718.199219 C 197.410156 15633.808594 150 15519.347656 150 15400 L 150 600 C 150 480.652344 197.410156 366.191406 281.800781 281.800781 C 366.191406 197.410156 480.652344 150 600 150 L 11400 150 C 11519.347656 150 11633.808594 197.410156 11718.199219 281.800781 C 11802.589844 366.191406 11850 480.652344 11850 600 L 11850 15400 C 11850 15519.347656 11802.589844 15633.808594 11718.199219 15718.199219 C 11633.808594 15802.589844 11519.347656 15850 11400 15850 L 600 15850 M 600 15650 C 461.929688 15650 350 15538.070312 350 15400 L 350 600 C 350 461.929688 461.929688 350 600 350 L 11400 350 C 11538.070312 350 11650 461.929688 11650 600 L 11650 15400 C 11650 15538.070312 11538.070312 15650 11400 15650 L 600 15650 "/>
<path style=" stroke:none;fill-rule:evenodd;fill:rgb(16.470588%,16.078431%,16.470588%);fill-opacity:1;" d="M 2437.9375 4463.675781 L 2838.296875 4227.636719 C 2874.890625 4206.058594 2897.351562 4166.746094 2897.351562 4124.265625 C 2897.351562 4066.960938 2856.835938 4017.65625 2800.625 4006.542969 L 1250 3700 L 1556.542969 5250.625 C 1567.65625 5306.835938 1616.960938 5347.351562 1674.265625 5347.351562 C 1716.746094 5347.351562 1756.058594 5324.890625 1777.636719 5288.296875 L 2013.675781 4887.9375 L 2774.265625 5648.527344 C 2886.785156 5761.050781 2950 5913.660156 2950 6072.792969 L 2950 14400 L 3550 14400 L 3550 6072.792969 C 3550 5754.53125 3423.570312 5449.308594 3198.527344 5224.265625 L 2437.9375 4463.675781 "/>
<path style=" stroke:none;fill-rule:evenodd;fill:rgb(16.470588%,16.078431%,16.470588%);fill-opacity:1;" d="M 4137.9375 2763.675781 L 4538.296875 2527.636719 C 4574.890625 2506.058594 4597.351562 2466.746094 4597.351562 2424.265625 C 4597.351562 2366.960938 4556.835938 2317.65625 4500.625 2306.542969 L 2950 2000 L 3256.542969 3550.625 C 3267.65625 3606.835938 3316.960938 3647.351562 3374.265625 3647.351562 C 3416.746094 3647.351562 3456.058594 3624.890625 3477.636719 3588.296875 L 3713.675781 3187.9375 L 5174.265625 4648.527344 C 5286.785156 4761.050781 5350 4913.660156 5350 5072.792969 L 5350 14400 L 5950 14400 L 5950 5072.792969 C 5950 4754.53125 5823.570312 4449.308594 5598.527344 4224.265625 L 4137.9375 2763.675781 "/>
<path style=" stroke:none;fill-rule:evenodd;fill:rgb(16.470588%,16.078431%,16.470588%);fill-opacity:1;" d="M 9562.0625 2763.675781 L 9161.703125 2527.636719 C 9125.109375 2506.058594 9102.648438 2466.746094 9102.648438 2424.265625 C 9102.648438 2366.960938 9143.164062 2317.65625 9199.375 2306.542969 L 10750 2000 L 10443.457031 3550.625 C 10432.34375 3606.835938 10383.039062 3647.351562 10325.734375 3647.351562 C 10283.253906 3647.351562 10243.941406 3624.890625 10222.363281 3588.296875 L 9986.324219 3187.9375 L 8525.734375 4648.527344 C 8413.214844 4761.050781 8350 4913.660156 8350 5072.792969 L 8350 14400 L 7750 14400 L 7750 5072.792969 C 7750 4754.53125 7876.429688 4449.308594 8101.472656 4224.265625 L 9562.0625 2763.675781 "/>
</g>
</svg>
