<?xml version="1.0" encoding="UTF-8"?>
<svg xmlns="http://www.w3.org/2000/svg" xmlns:xlink="http://www.w3.org/1999/xlink" width="1200.000000mm" height="1600.000000mm" viewBox="0 0 12000 16000" version="1.1">
<g id="surface1526">
<path style="fill-rule:evenodd;fill:rgb(94.509804%,94.117647%,91.764706%);fill-opacity:1;stroke-width:0.3;stroke-linecap:butt;stroke-linejoin:miter;stroke:rgb(16.470588%,16.078431%,16.470588%);stroke-opacity:1;stroke-miterlimit:3;" d="M -540 -800 C -555.912891 -800 -571.174219 -793.678516 -582.426563 -782.426563 C -593.678516 -771.174219 -600 -755.912891 -600 -740 L -600 740 C -600 755.912891 -593.678516 771.174219 -582.426563 782.426563 C -571.174219 793.678516 -555.912891 800 -540 800 L 540 800 C 555.912891 800 571.174219 793.678516 582.426563 782.426563 C 593.678516 771.174219 600 755.912891 600 740 L 600 -740 C 600 -755.912891 593.678516 -771.174219 582.426563 -782.426563 C 571.174219 -793.678516 555.912891 -800 540 -800 L -540 -800 " transform="matrix(10,0,0,-10,6000,8000)"/>
<path style=" stroke:none;fill-rule:evenodd;fill:rgb(16.470588%,16.078431%,16.470588%);fill-opacity:1;" d="M 600 15850 C 480.652344 15850 366.191406 15802.589844 281.800781 15718.199219 C 197.410156 15633.808594 150 15519.347656 150 15400 L 150 600 C 150 480.652344 197.410156 366.191406 281.800781 281.800781 C 366.191406 197.410156 480.652344 150 600 150 L 11400 150 C 11519.347656 150 11633.808594 197.410156 11718.199219 281.800781 C 11802.589844 366.191406 11850 480.652344 11850 600 L 11850 15400 C 11850 15519.347656 11802.589844 15633.808594 11718.199219 15718.199219 C 11633.808594 15802.589844 11519.347656 15850 11400 15850 L 600 15850 M 600 15650 C 461.929688 15650 350 15538.070312 350 15400 L 350 600 C 350 461.929688 461.929688 350 600 350 L 11400 350 C 11538.070312 350 11650 461.929688 11650 600 L 11650 15400 C 11650 15538.070312 11538.070312 15650 11400 15650 L 600 15650 "/>
<path style=" stroke:none;fill-rule:evenodd;fill:rgb(16.470588%,16.078431%,16.470588%);fill-opacity:1;" d="M 3387.9375 2763.675781 L 3788.296875 2527.636719 C 3824.890625 2506.058594 3847.351562 2466.746094 3847.351562 2424.265625 C 3847.351562 2366.972656 3806.851562 2317.671875 3750.648438 2306.546875 L 2200 2000 L 2506.546875 3550.648438 C 2517.671875 3606.851562 2566.972656 3647.351562 2624.265625 3647.351562 C 2666.746094 3647.351562 2706.058594 3624.890625 2727.636719 3588.296875 L 2963.675781 3187.9375 L 4424.265625 4648.527344 C 4536.785156 4761.050781 4600 4913.660156 4600 5072.792969 L 4600 14400 L 5200 14400 L 5200 5072.792969 C 5200 4913.660156 5263.214844 4761.050781 5375.734375 4648.527344 L 6836.324219 3187.9375 L 7072.363281 3588.296875 C 7093.941406 3624.890625 7133.253906 3647.351562 7175.734375 3647.351562 C 7233.027344 3647.351562 7282.328125 3606.851562 7293.453125 3550.648438 L 7600 2000 L 6049.351562 2306.546875 C 5993.148438 2317.671875 5952.648438 2366.972656 5952.648438 2424.265625 C 5952.648438 2466.746094 5975.109375 2506.058594 6011.703125 2527.636719 L 6412.0625 2763.675781 L 4951.472656 4224.265625 C 4933.746094 4241.988281 4916.582031 4260.265625 4900 4279.066406 C 4883.417969 4260.265625 4866.253906 4241.988281 4848.527344 4224.265625 L 3387.9375 2763.675781 "/>
<path style=" stroke:none;fill-rule:evenodd;fill:rgb(16.470588%,16.078431%,16.470588%);fill-opacity:1;" d="M 8612.0625 4963.675781 L 8211.703125 4727.636719 C 8175.109375 4706.058594 8152.648438 4666.746094 8152.648438 4624.265625 C 8152.648438 4566.960938 8193.164062 4517.65625 8249.375 4506.542969 L 9800 4200 L 9493.457031 5750.625 C 9482.34375 5806.835938 9433.039062 5847.351562 9375.734375 5847.351562 C 9333.253906 5847.351562 9293.941406 5824.890625 9272.363281 5788.296875 L 9036.324219 5387.9375 L 8475.734375 5948.527344 C 8363.214844 6061.050781 8300 6213.660156 8300 6372.792969 L 8300 14400 L 7700 14400 L 7700 6372.792969 C 7700 6054.53125 7826.429688 5749.308594 8051.472656 5524.265625 L 8612.0625 4963.675781 "/>
</g>
</svg>
