<?xml version="1.0" encoding="UTF-8"?>
<svg xmlns="http://www.w3.org/2000/svg" xmlns:xlink="http://www.w3.org/1999/xlink" width="1200.000000mm" height="1600.000000mm" viewBox="0 0 12000 16000" version="1.1">
<g id="surface1551">
<path style="fill-rule:evenodd;fill:rgb(94.509804%,94.117647%,91.764706%);fill-opacity:1;stroke-width:0.3;stroke-linecap:butt;stroke-linejoin:miter;stroke:rgb(16.470588%,16.078431%,16.470588%);stroke-opacity:1;stroke-miterlimit:3;" d="M -540 -800 C -555.912891 -800 -571.174219 -793.678516 -582.426563 -782.426563 C -593.678516 -771.174219 -600 -755.912891 -600 -740 L -600 740 C -600 755.912891 -593.678516 771.174219 -582.426563 782.426563 C -571.174219 793.678516 -555.912891 800 -540 800 L 540 800 C 555.912891 800 571.174219 793.678516 582.426563 782.426563 C 593.678516 771.174219 600 755.912891 600 740 L 600 -740 C 600 -755.912891 593.678516 -771.174219 582.426563 -782.426563 C 571.174219 -793.678516 555.912891 -800 540 -800 L -540 -800 " transform="matrix(10,0,0,-10,6000,8000)"/>
<path style=" stroke:none;fill-rule:evenodd;fill:rgb(16.470588%,16.078431%,16.470588%);fill-opacity:1;" d="M 600 15850 C 480.652344 15850 366.191406 15802.589844 281.800781 15718.199219 C 197.410156 15633.808594 150 15519.347656 150 15400 L 150 600 C 150 480.652344 197.410156 366.191406 281.800781 281.800781 C 366.191406 197.410156 480.652344 150 600 150 L 11400 150 C 11519.347656 150 11633.808594 197.410156 11718.199219 281.800781 C 11802.589844 366.191406 11850 480.652344 11850 600 L 11850 15400 C 11850 15519.347656 11802.589844 15633.808594 11718.199219 15718.199219 C 11633.808594 15802.589844 11519.347656 15850 11400 15850 L 600 15850 M 600 15650 C 461.929688 15650 350 15538.070312 350 15400 L 350 600 C 350 461.929688 461.929688 350 600 350 L 11400 350 C 11538.070312 350 11650 461.929688 11650 600 L 11650 15400 C 11650 15538.070312 11538.070312 15650 11400 15650 L 600 15650 "/>
<path style=" stroke:none;fill-rule:evenodd;fill:rgb(16.470588%,16.078431%,16.470588%);fill-opacity:1;" d="M 2787.9375 2763.675781 L 3188.296875 2527.636719 C 3224.890625 2506.058594 3247.351562 2466.746094 3247.351562 2424.265625 C 3247.351562 2366.972656 3206.851562 2317.671875 3150.648438 2306.546875 L 1600 2000 L 1906.546875 3550.648438 C 1917.671875 3606.851562 1966.972656 3647.351562 2024.265625 3647.351562 C 2066.746094 3647.351562 2106.058594 3624.890625 2127.636719 3588.296875 L 2363.675781 3187.9375 L 3824.265625 4648.527344 C 3936.785156 4761.050781 4000 4913.660156 4000 5072.792969 L 4000 14400 L 4600 14400 L 4600 5072.792969 C 4600 4913.660156 4663.214844 4761.050781 4775.734375 4648.527344 L 6236.324219 3187.9375 L 6472.363281 3588.296875 C 6493.941406 3624.890625 6533.253906 3647.351562 6575.734375 3647.351562 C 6633.027344 3647.351562 6682.328125 3606.851562 6693.453125 3550.648438 L 7000 2000 L 5449.351562 2306.546875 C 5393.148438 2317.671875 5352.648438 2366.972656 5352.648438 2424.265625 C 5352.648438 2466.746094 5375.109375 2506.058594 5411.703125 2527.636719 L 5812.0625 2763.675781 L 4351.472656 4224.265625 C 4333.746094 4241.988281 4316.582031 4260.265625 4300 4279.066406 C 4283.417969 4260.265625 4266.253906 4241.988281 4248.527344 4224.265625 L 2787.9375 2763.675781 "/>
<path style=" stroke:none;fill-rule:evenodd;fill:rgb(16.470588%,16.078431%,16.470588%);fill-opacity:1;" d="M 7512.0625 4463.675781 L 7111.703125 4227.636719 C 7075.109375 4206.058594 7052.648438 4166.746094 7052.648438 4124.265625 C 7052.648438 4066.960938 7093.164062 4017.65625 7149.375 4006.542969 L 8700 3700 L 8393.457031 5250.625 C 8382.34375 5306.835938 8333.039062 5347.351562 8275.734375 5347.351562 C 8233.253906 5347.351562 8193.941406 5324.890625 8172.363281 5288.296875 L 7936.324219 4887.9375 L 7175.734375 5648.527344 C 7063.214844 5761.050781 7000 5913.660156 7000 6072.792969 L 7000 14400 L 6400 14400 L 6400 6072.792969 C 6400 5754.53125 6526.429688 5449.308594 6751.472656 5224.265625 L 7512.0625 4463.675781 "/>
<path style=" stroke:none;fill-rule:evenodd;fill:rgb(16.470588%,16.078431%,16.470588%);fill-opacity:1;" d="M 9212.0625 6163.675781 L 8811.703125 5927.636719 C 8775.109375 5906.058594 8752.648438 5866.746094 8752.648438 5824.265625 C 8752.648438 5766.960938 8793.164062 5717.65625 8849.375 5706.542969 L 10400 5400 L 10093.457031 6950.625 C 10082.34375 7006.835938 10033.039062 7047.351562 9975.734375 7047.351562 C 9933.253906 7047.351562 9893.941406 7024.890625 9872.363281 6988.296875 L 9636.324219 6587.9375 L 9575.734375 6648.527344 C 9463.214844 6761.050781 9400 6913.660156 9400 7072.792969 L 9400 14400 L 8800 14400 L 8800 7072.792969 C 8800 6754.53125 8926.429688 6449.308594 9151.472656 6224.265625 L 9212.0625 6163.675781 "/>
</g>
</svg>
