<?xml version="1.0" encoding="UTF-8"?>
<svg xmlns="http://www.w3.org/2000/svg" xmlns:xlink="http://www.w3.org/1999/xlink" width="1200.000000mm" height="1600.000000mm" viewBox="0 0 12000 16000" version="1.1">
<g id="surface1566">
<path style="fill-rule:evenodd;fill:rgb(94.509804%,94.117647%,91.764706%);fill-opacity:1;stroke-width:0.3;stroke-linecap:butt;stroke-linejoin:miter;stroke:rgb(16.470588%,16.078431%,16.470588%);stroke-opacity:1;stroke-miterlimit:3;" d="M -540 -800 C -555.912891 -800 -571.174219 -793.678516 -582.426563 -782.426563 C -593.678516 -771.174219 -600 -755.912891 -600 -740 L -600 740 C -600 755.912891 -593.678516 771.174219 -582.426563 782.426563 C -571.174219 793.678516 -555.912891 800 -540 800 L 540 800 C 555.912891 800 571.174219 793.678516 582.426563 782.426563 C 593.678516 771.174219 600 755.912891 600 740 L 600 -740 C 600 -755.912891 593.678516 -771.174219 582.426563 -782.426563 C 571.174219 -793.678516 555.912891 -800 540 -800 L -540 -800 " transform="matrix(10,0,0,-10,6000,8000)"/>
<path style=" stroke:none;fill-rule:evenodd;fill:rgb(16.470588%,16.078431%,16.470588%);fill-opacity:1;" d="M 600 15850 C 480.652344 15850 366.191406 15802.589844 281.800781 15718.199219 C 197.410156 15633.808594 150 15519.347656 150 15400 L 150 600 C 150 480.652344 197.410156 366.191406 281.800781 281.800781 C 366.191406 197.410156 480.652344 150 600 150 L 11400 150 C 11519.347656 150 11633.808594 197.410156 11718.199219 281.800781 C 11802.589844 366.191406 11850 480.652344 11850 600 L 11850 15400 C 11850 15519.347656 11802.589844 15633.808594 11718.199219 15718.199219 C 11633.808594 15802.589844 11519.347656 15850 11400 15850 L 600 15850 M 600 15650 C 461.929688 15650 350 15538.070312 350 15400 L 350 600 C 350 461.929688 461.929688 350 600 350 L 11400 350 C 11538.070312 350 11650 461.929688 11650 600 L 11650 15400 C 11650 15538.070312 11538.070312 15650 11400 15650 L 600 15650 "/>
<path style=" stroke:none;fill-rule:evenodd;fill:rgb(16.470588%,16.078431%,16.470588%);fill-opacity:1;" d="M 1937.9375 2763.675781 L 2338.296875 2527.636719 C 2374.890625 2506.058594 2397.351562 2466.746094 2397.351562 2424.265625 C 2397.351562 2366.960938 2356.835938 2317.65625 2300.625 2306.542969 L 750 2000 L 1056.542969 3550.625 C 1067.65625 3606.835938 1116.960938 3647.351562 1174.265625 3647.351562 C 1216.746094 3647.351562 1256.058594 3624.890625 1277.636719 3588.296875 L 1513.675781 3187.9375 L 2974.265625 4648.527344 C 3086.785156 4761.050781 3150 4913.660156 3150 5072.792969 L 3150 14400 L 3750 14400 L 3750 5072.792969 C 3750 4754.53125 3623.570312 4449.308594 3398.527344 4224.265625 L 1937.9375 2763.675781 "/>
<path style=" stroke:none;fill-rule:evenodd;fill:rgb(16.470588%,16.078431%,16.470588%);fill-opacity:1;" d="M 7062.0625 2763.675781 L 6661.703125 2527.636719 C 6625.109375 2506.058594 6602.648438 2466.746094 6602.648438 2424.265625 C 6602.648438 2366.960938 6643.164062 2317.65625 6699.375 2306.542969 L 8250 2000 L 7943.457031 3550.625 C 7932.34375 3606.835938 7883.039062 3647.351562 7825.734375 3647.351562 C 7783.253906 3647.351562 7743.941406 3624.890625 7722.363281 3588.296875 L 7486.324219 3187.9375 L 6025.734375 4648.527344 C 5913.214844 4761.050781 5850 4913.660156 5850 5072.792969 L 5850 14400 L 5250 14400 L 5250 5072.792969 C 5250 4754.53125 5376.429688 4449.308594 5601.472656 4224.265625 L 7062.0625 2763.675781 "/>
<path style=" stroke:none;fill-rule:evenodd;fill:rgb(16.470588%,16.078431%,16.470588%);fill-opacity:1;" d="M 8562.0625 4263.675781 L 8161.703125 4027.636719 C 8125.109375 4006.058594 8102.648438 3966.746094 8102.648438 3924.265625 C 8102.648438 3866.960938 8143.164062 3817.65625 8199.375 3806.542969 L 9750 3500 L 9443.457031 5050.625 C 9432.34375 5106.835938 9383.039062 5147.351562 9325.734375 5147.351562 C 9283.253906 5147.351562 9243.941406 5124.890625 9222.363281 5088.296875 L 8986.324219 4687.9375 L 8125.734375 5548.527344 C 8013.214844 5661.050781 7950 5813.660156 7950 5972.792969 L 7950 14400 L 7350 14400 L 7350 5972.792969 C 7350 5654.53125 7476.429688 5349.308594 7701.472656 5124.265625 L 8562.0625 4263.675781 "/>
<path style=" stroke:none;fill-rule:evenodd;fill:rgb(16.470588%,16.078431%,16.470588%);fill-opacity:1;" d="M 10062.0625 5763.675781 L 9661.703125 5527.636719 C 9625.109375 5506.058594 9602.648438 5466.746094 9602.648438 5424.265625 C 9602.648438 5366.960938 9643.164062 5317.65625 9699.375 5306.542969 L 11250 5000 L 10943.457031 6550.625 C 10932.34375 6606.835938 10883.039062 6647.351562 10825.734375 6647.351562 C 10783.253906 6647.351562 10743.941406 6624.890625 10722.363281 6588.296875 L 10486.324219 6187.9375 L 10225.734375 6448.527344 C 10113.214844 6561.050781 10050 6713.660156 10050 6872.792969 L 10050 14400 L 9450 14400 L 9450 6872.792969 C 9450 6554.53125 9576.429688 6249.308594 9801.472656 6024.265625 L 10062.0625 5763.675781 "/>
</g>
</svg>
